<svg width="65" height="37" viewBox="0 0 65 37" fill="none" xmlns="http://www.w3.org/2000/svg">
<path fill-rule="evenodd" clip-rule="evenodd" d="M0 28.8887V7.22211H3.6111V28.8887H0Z" fill="#EBC900"/>
<path fill-rule="evenodd" clip-rule="evenodd" d="M61.3889 28.8887V7.22211H65V28.8887H61.3889Z" fill="#EBC900"/>
<path fill-rule="evenodd" clip-rule="evenodd" d="M18.0557 21.6666H46.9445V32.4999H54.1667V3.6111H46.9445V14.4444H18.0557V3.6111H10.8335V32.4999H18.0557V21.6666ZM18.0557 0H10.8335C8.83914 0 7.22238 1.61676 7.22238 3.6111V32.4999C7.22238 34.4943 8.83914 36.111 10.8335 36.111H18.0557C20.05 36.111 21.6668 34.4943 21.6668 32.4999V25.2777H43.3334V32.4999C43.3334 34.4943 44.9501 36.111 46.9445 36.111H54.1667C56.1611 36.111 57.7778 34.4943 57.7778 32.4999V3.6111C57.7778 1.61676 56.1611 0 54.1667 0H46.9445C44.9501 0 43.3334 1.61676 43.3334 3.6111V10.8333H21.6668V3.6111C21.6668 1.61676 20.05 0 18.0557 0Z" fill="black"/>
</svg>
