<svg width="54" height="53" viewBox="0 0 54 53" fill="none" xmlns="http://www.w3.org/2000/svg">
<path fill-rule="evenodd" clip-rule="evenodd" d="M9 11.0417C7.75737 11.0417 6.75 12.0304 6.75 13.25V44.1667C6.75 45.3864 7.75737 46.375 9 46.375H40.5C41.7427 46.375 42.75 45.3864 42.75 44.1667H9V11.0417Z" fill="black"/>
<path fill-rule="evenodd" clip-rule="evenodd" d="M45.0001 8.83333H13.5001V39.75H45.0001V8.83333ZM13.5001 6.625C12.2575 6.625 11.2501 7.61372 11.2501 8.83333V39.75C11.2501 40.9697 12.2575 41.9583 13.5001 41.9583H45.0001C46.2428 41.9583 47.2501 40.9697 47.2501 39.75V8.83333C47.2501 7.61372 46.2428 6.625 45.0001 6.625H13.5001Z" fill="black"/>
<path fill-rule="evenodd" clip-rule="evenodd" d="M22.4999 15.4583V33.125L37.1249 24.2916L22.4999 15.4583ZM24.7499 19.4103V29.1729L32.8319 24.2916L24.7499 19.4103Z" fill="#EBC900"/>
</svg>
