<svg width="58" height="57" viewBox="0 0 58 57" fill="none" xmlns="http://www.w3.org/2000/svg">
<path fill-rule="evenodd" clip-rule="evenodd" d="M28.9999 10.6875C18.9897 10.6875 10.8749 18.6624 10.8749 28.5H8.45825C8.45825 17.3507 17.6551 8.31248 28.9999 8.31248C40.3447 8.31248 49.5416 17.3507 49.5416 28.5V33.25H47.1249V28.5C47.1249 18.6624 39.01 10.6875 28.9999 10.6875Z" fill="black"/>
<path fill-rule="evenodd" clip-rule="evenodd" d="M28.9999 15.4375C21.659 15.4375 15.7081 21.2858 15.7081 28.5C15.7081 31.1375 13.8138 33.4084 11.1822 33.9257L8.69512 34.4145L8.22119 32.0856L10.7083 31.5968C12.2103 31.3016 13.2915 30.0053 13.2915 28.5C13.2915 19.9741 20.3243 13.0625 28.9999 13.0625C37.6752 13.0625 44.7082 19.9741 44.7082 28.5V35.0643C44.7082 38.7413 43.837 42.3674 42.164 45.6561L40.0025 44.594C41.5078 41.6352 42.2915 38.3724 42.2915 35.0643V28.5C42.2915 21.2858 36.3405 15.4375 28.9999 15.4375Z" fill="black"/>
<path fill-rule="evenodd" clip-rule="evenodd" d="M29.0001 20.1875C24.3287 20.1875 20.5417 23.9091 20.5417 28.5V30.062C20.5417 33.8763 17.9002 37.201 14.1349 38.1263L9.9598 39.1521L9.37366 36.8479L13.5487 35.8221C16.2383 35.1614 18.1251 32.7864 18.1251 30.062V28.5C18.1251 22.5975 22.994 17.8125 29.0001 17.8125C35.0062 17.8125 39.8751 22.5975 39.8751 28.5V34.3532C39.8751 40.0444 37.5744 45.5029 33.4794 49.5273L31.7705 47.8477C35.4125 44.2688 37.4584 39.4145 37.4584 34.3532V28.5C37.4584 23.9091 33.6715 20.1875 29.0001 20.1875Z" fill="black"/>
<path fill-rule="evenodd" clip-rule="evenodd" d="M28.9999 24.9375C26.9979 24.9375 25.3749 26.5325 25.3749 28.5V31.8262C25.3749 36.0499 22.8439 39.8772 18.9167 41.5926L13.7823 43.8351L12.8008 41.6648L17.9352 39.4221C20.9897 38.0881 22.9583 35.1113 22.9583 31.8262V28.5C22.9583 25.2208 25.6632 22.5625 28.9999 22.5625C32.3366 22.5625 35.0416 25.2208 35.0416 28.5V33.3162C35.0416 40.2755 31.0408 46.6374 24.7069 49.7496L23.6262 47.6254C29.1413 44.9153 32.6249 39.3758 32.6249 33.3162V28.5C32.6249 26.5325 31.0019 24.9375 28.9999 24.9375Z" fill="#EBC900"/>
<path fill-rule="evenodd" clip-rule="evenodd" d="M27.7917 31.9148V27.3125H30.2083V31.9148C30.2083 38.2273 26.2977 43.9038 20.334 46.2482L17.3655 47.415L16.468 45.21L19.4364 44.043C24.4828 42.0594 27.7917 37.2562 27.7917 31.9148Z" fill="black"/>
</svg>
