<svg width="62" height="62" viewBox="0 0 62 62" fill="none" xmlns="http://www.w3.org/2000/svg">
<path fill-rule="evenodd" clip-rule="evenodd" d="M27.3725 45.3497L27.3627 45.3665C27.0057 45.9827 26.8021 46.6913 26.8021 47.4639C26.8021 49.7869 28.6833 51.6668 31 51.6668C33.3167 51.6668 35.1979 49.7869 35.1979 47.4639C35.1979 46.6941 34.9936 45.9801 34.6381 45.3645L34.6208 45.3348L31.0003 38.8705L27.3725 45.3497ZM31 33.5834L36.8748 44.0723C37.4514 45.0702 37.7812 46.2283 37.7812 47.4639C37.7812 51.2118 34.7451 54.2501 31 54.2501C27.2549 54.2501 24.2188 51.2118 24.2188 47.4639C24.2188 46.225 24.5483 45.0707 25.1278 44.0707L31 33.5834Z" fill="#EBC900"/>
<path fill-rule="evenodd" clip-rule="evenodd" d="M35.4389 21.5134C34.1974 17.1301 32.1927 13.0875 28.9558 7.97809C28.3846 7.07672 27.7752 6.14212 27.125 5.16663C26.8201 6.23667 26.4773 7.28374 26.1009 8.31121C23.6262 15.0676 19.7036 20.9753 15.6462 26.9813C14.0311 29.7649 12.9166 32.7174 12.9166 36.1666C12.9166 46.6004 20.5634 54.25 31 54.25C41.4364 54.25 49.0833 46.6004 49.0833 36.1666C49.0833 30.0805 46.1336 24.5759 43.2809 19.2518C43.1729 19.0502 43.0649 18.8488 42.9572 18.6476C42.4002 17.6062 41.8513 16.5711 41.3333 15.5393C40.9352 16.7337 40.5371 17.8016 40.101 18.7832C39.5673 19.9849 38.977 21.0573 38.2604 22.0738C37.6634 22.9209 36.9788 23.7293 36.1666 24.5416C35.9592 23.5042 35.7184 22.5002 35.4389 21.5134ZM41.5994 21.5858C40.6727 23.2849 39.5371 24.8246 37.9933 26.3683L34.5802 29.7814L33.6334 25.0483C32.6866 20.3139 31.0007 16.2945 27.8126 11.0358C25.2188 17.3508 21.5049 22.9231 17.8374 28.3528C16.3915 30.8628 15.5 33.3441 15.5 36.1666C15.5 45.1739 21.9905 51.6666 31 51.6666C40.0093 51.6666 46.5 45.1739 46.5 36.1666C46.5 32.9274 45.532 29.776 44.0737 26.5298C43.3026 24.8132 42.4661 23.2083 41.5994 21.5858Z" fill="black"/>
</svg>
