<svg width="45" height="45" viewBox="0 0 45 45" fill="none" xmlns="http://www.w3.org/2000/svg">
<rect x="14.2682" y="14.2682" width="16.4634" height="16.4634" fill="#EBC900"/>
<path fill-rule="evenodd" clip-rule="evenodd" d="M22.5 45C34.9265 45 45 34.9265 45 22.5C45 10.0736 34.9265 0 22.5 0C10.0736 0 0 10.0736 0 22.5C0 34.9265 10.0736 45 22.5 45ZM22.5 42.5C23.0673 42.5 23.796 42.2517 24.669 41.4207C25.555 40.5777 26.4665 39.2395 27.2865 37.3945C27.9155 35.9792 28.4617 34.331 28.896 32.5H16.1041C16.5383 34.331 17.0845 35.9792 17.7135 37.3945C18.5335 39.2395 19.445 40.5777 20.331 41.4207C21.204 42.2517 21.9328 42.5 22.5 42.5ZM15.6016 30C15.216 27.6908 15 25.164 15 22.5C15 19.836 15.216 17.3091 15.6016 15H29.3985C29.784 17.3091 30 19.836 30 22.5C30 25.164 29.784 27.6908 29.3985 30H15.6016ZM31.4605 32.5C30.6027 36.3833 29.2612 39.63 27.613 41.8405C32.8175 40.4682 37.1918 37.051 39.8243 32.5H31.4605ZM41.0462 30H31.931C32.2995 27.6542 32.5 25.1298 32.5 22.5C32.5 19.8703 32.2995 17.3458 31.931 15H41.0462C41.9837 17.3161 42.5 19.8477 42.5 22.5C42.5 25.1523 41.9837 27.684 41.0462 30ZM13.069 30H3.9538C3.01628 27.684 2.5 25.1523 2.5 22.5C2.5 19.8477 3.01628 17.3161 3.9538 15H13.069C12.7005 17.3458 12.5 19.8703 12.5 22.5C12.5 25.1298 12.7005 27.6542 13.069 30ZM5.17565 32.5H13.5395C14.3972 36.3833 15.7388 39.63 17.3869 41.8405C12.1824 40.4682 7.8082 37.051 5.17565 32.5ZM16.1041 12.5H28.896C28.4617 10.6691 27.9155 9.02065 27.2865 7.60545C26.4665 5.76055 25.555 4.4223 24.669 3.57915C23.796 2.74825 23.0673 2.5 22.5 2.5C21.9328 2.5 21.204 2.74825 20.331 3.57915C19.445 4.4223 18.5335 5.76055 17.7135 7.60545C17.0845 9.02065 16.5383 10.6691 16.1041 12.5ZM31.4605 12.5H39.8243C37.1918 7.94912 32.8175 4.53183 27.613 3.15955C29.2612 5.37005 30.6027 8.61672 31.4605 12.5ZM17.3869 3.15955C15.7388 5.37008 14.3972 8.61672 13.5395 12.5H5.17565C7.80817 7.94912 12.1824 4.53183 17.3869 3.15955Z" fill="black"/>
</svg>
