<svg width="72" height="69" viewBox="0 0 72 69" fill="none" xmlns="http://www.w3.org/2000/svg">
<path fill-rule="evenodd" clip-rule="evenodd" d="M35.9998 46C42.6271 46 47.9998 40.8512 47.9998 34.5C47.9998 28.1487 42.6271 23 35.9998 23C29.3724 23 23.9998 28.1487 23.9998 34.5C23.9998 40.8512 29.3724 46 35.9998 46ZM50.9998 34.5C50.9998 42.439 44.284 48.875 35.9998 48.875C27.7156 48.875 20.9998 42.439 20.9998 34.5C20.9998 26.5609 27.7156 20.125 35.9998 20.125C44.284 20.125 50.9998 26.5609 50.9998 34.5Z" fill="black"/>
<path fill-rule="evenodd" clip-rule="evenodd" d="M35.9998 54.625C47.5978 54.625 56.9998 45.6147 56.9998 34.5C56.9998 23.3853 47.5978 14.375 35.9998 14.375C24.4018 14.375 14.9998 23.3853 14.9998 34.5C14.9998 45.6147 24.4018 54.625 35.9998 54.625ZM59.9998 34.5C59.9998 47.2026 49.2547 57.5 35.9998 57.5C22.745 57.5 11.9998 47.2026 11.9998 34.5C11.9998 21.7974 22.745 11.5 35.9998 11.5C49.2547 11.5 59.9998 21.7974 59.9998 34.5Z" fill="black"/>
<path fill-rule="evenodd" clip-rule="evenodd" d="M35.9998 37.375C37.6567 37.375 38.9998 36.0879 38.9998 34.5C38.9998 32.9121 37.6567 31.625 35.9998 31.625C34.3429 31.625 32.9998 32.9121 32.9998 34.5C32.9998 36.0879 34.3429 37.375 35.9998 37.375ZM41.9998 34.5C41.9998 37.6757 39.3136 40.25 35.9998 40.25C32.686 40.25 29.9998 37.6757 29.9998 34.5C29.9998 31.3243 32.686 28.75 35.9998 28.75C39.3136 28.75 41.9998 31.3243 41.9998 34.5Z" fill="#EBC900"/>
<path d="M56.9977 14.375V8.625L50.9998 14.375V18.1061L34.9297 33.5067L37.051 35.5396L53.1358 20.125H56.9998L62.9998 14.375H56.9977Z" fill="black"/>
</svg>
