<svg width="55" height="55" viewBox="0 0 55 55" fill="none" xmlns="http://www.w3.org/2000/svg">
<circle cx="27.5" cy="27.5" r="5.5" fill="#EBC900"/>
<path fill-rule="evenodd" clip-rule="evenodd" d="M32.0832 9.16665C32.0832 11.3023 30.6225 13.0968 28.6457 13.6056V20.72C30.3076 20.9989 31.7677 21.8741 32.7978 23.1181L38.9596 19.5604C38.4119 17.5941 39.2358 15.4319 41.0851 14.364C43.2773 13.0984 46.0805 13.8495 47.3462 16.0416C48.6119 18.2338 47.8607 21.037 45.6685 22.3026C43.8191 23.3704 41.5345 23.0026 40.1054 21.5451L33.945 25.1018C34.223 25.8486 34.3749 26.6564 34.3749 27.5C34.3749 28.3433 34.223 29.1514 33.945 29.898L40.1057 33.4549C41.5348 31.9974 43.8191 31.6296 45.6687 32.6975C47.8609 33.9629 48.6119 36.7661 47.3462 38.9583C46.0807 41.1505 43.2776 41.9015 41.0854 40.636C39.2357 39.5681 38.4121 37.4059 38.9598 35.4395L32.7978 31.8819C31.7677 33.1258 30.3079 34.001 28.6457 34.2799V41.3944C30.6225 41.9031 32.0832 43.6977 32.0832 45.8333C32.0832 48.3647 30.031 50.4166 27.4999 50.4166C24.9685 50.4166 22.9165 48.3647 22.9165 45.8333C22.9165 43.6977 24.3773 41.9031 26.3541 41.3944V34.2799C24.6919 34.001 23.2319 33.1258 22.2019 31.8816L16.0398 35.4395C16.5876 37.4059 15.7639 39.5681 13.9143 40.636C11.7221 41.9015 8.91902 41.1505 7.65335 38.9583C6.38771 36.7661 7.1388 33.9629 9.33099 32.6975C11.1805 31.6296 13.4649 31.9974 14.8939 33.4549L21.0546 29.898C20.7767 29.1514 20.6248 28.3433 20.6248 27.5C20.6248 26.6564 20.7767 25.8486 21.0547 25.102L14.894 21.5451C13.465 23.0026 11.1805 23.3704 9.33099 22.3026C7.1388 21.037 6.38771 18.2338 7.65335 16.0416C8.91902 13.8495 11.7221 13.0984 13.9143 14.364C15.7638 15.4319 16.5876 17.594 16.0398 19.5604L22.202 23.1181C23.2321 21.8741 24.6919 20.9989 26.3541 20.72V13.6056C24.3773 13.0968 22.9165 11.3023 22.9165 9.16665C22.9165 6.63534 24.9685 4.58331 27.4999 4.58331C30.031 4.58331 32.0832 6.63534 32.0832 9.16665ZM27.4999 11.4583C28.7656 11.4583 29.7916 10.4323 29.7916 9.16665C29.7916 7.901 28.7656 6.87498 27.4999 6.87498C26.2342 6.87498 25.2082 7.901 25.2082 9.16665C25.2082 10.4323 26.2342 11.4583 27.4999 11.4583ZM41.403 19.4977C42.041 20.5795 43.4327 20.9472 44.5226 20.318C45.6187 19.6851 45.9943 18.2836 45.3616 17.1875C44.7286 16.0914 43.3271 15.7159 42.231 16.3487C41.141 16.9779 40.7636 18.3673 41.3817 19.4605L41.403 19.4977ZM23.5704 29.8604L23.4865 29.7153C23.1233 29.0588 22.9165 28.3034 22.9165 27.5C22.9165 26.6951 23.124 25.9387 23.4883 25.2812L23.5683 25.1428C24.3697 23.809 25.8306 22.9166 27.4999 22.9166C29.1678 22.9166 30.6276 23.8076 31.4294 25.1396L31.5131 25.2844C31.8763 25.9412 32.0832 26.6963 32.0832 27.5C32.0832 28.3023 31.877 29.0565 31.5149 29.7124L31.4276 29.8636C30.6253 31.1937 29.1664 32.0833 27.4999 32.0833C25.832 32.0833 24.372 31.1923 23.5704 29.8604ZM13.6127 19.4698C14.238 18.3751 13.8614 16.9797 12.7685 16.3487C11.6724 15.7159 10.2708 16.0914 9.638 17.1875C9.00518 18.2836 9.38072 19.6851 10.4768 20.318C11.5698 20.949 12.9664 20.5774 13.6018 19.4885L13.6073 19.4791L13.6127 19.4698ZM27.4999 43.5416C26.2342 43.5416 25.2082 44.5676 25.2082 45.8333C25.2082 47.099 26.2342 48.125 27.4999 48.125C28.7656 48.125 29.7916 47.099 29.7916 45.8333C29.7916 44.5676 28.7656 43.5416 27.4999 43.5416ZM45.3616 37.8125C45.9946 36.7164 45.619 35.3148 44.5229 34.6821C43.4267 34.0491 42.0252 34.4247 41.3924 35.5208C40.7595 36.6169 41.1351 38.0185 42.2312 38.6512C43.3273 39.2842 44.7289 38.9086 45.3616 37.8125ZM13.6073 35.5208C12.9745 34.4247 11.5729 34.0491 10.4768 34.6821C9.38072 35.3148 9.00518 36.7164 9.638 37.8125C10.2708 38.9086 11.6724 39.2842 12.7685 38.6512C13.8646 38.0185 14.2401 36.6169 13.6073 35.5208Z" fill="black"/>
</svg>
