<svg width="55" height="56" viewBox="0 0 55 56" fill="none" xmlns="http://www.w3.org/2000/svg">
<path d="M9.16667 36.7592V41.0667C9.16667 45.7059 17.3748 49 27.5 49C37.6253 49 45.8333 45.7059 45.8333 41.0667V36.7592C45.16 37.4134 44.3779 37.9881 43.5417 38.4879V41.0667C43.5417 41.8426 42.7712 43.2701 39.5844 44.6183C36.6197 45.8722 32.3533 46.6667 27.5 46.6667C22.6466 46.6667 18.3803 45.8722 15.4156 44.6183C12.2288 43.2701 11.4583 41.8426 11.4583 41.0667V38.4879C10.6221 37.9881 9.83987 37.4134 9.16667 36.7592Z" fill="black"/>
<path d="M9.16667 27.4258V31.7334C9.16667 36.3725 17.3748 39.6667 27.5 39.6667C37.6253 39.6667 45.8333 36.3725 45.8333 31.7334V27.4258C45.16 28.08 44.3779 28.6547 43.5417 29.1545V31.7334C43.5417 32.5092 42.7712 33.9367 39.5844 35.2849C36.6197 36.5388 32.3533 37.3333 27.5 37.3333C22.6466 37.3333 18.3803 36.5388 15.4156 35.2849C12.2288 33.9367 11.4583 32.5092 11.4583 31.7334V29.1545C10.6221 28.6547 9.83987 28.08 9.16667 27.4258Z" fill="black"/>
<path d="M11.4583 20.2854V22.3999C11.4583 23.1759 12.2288 24.6034 15.4156 25.9514C18.3803 27.2056 22.6466 27.9998 27.5 27.9998C32.3533 27.9998 36.6197 27.2056 39.5844 25.9514C42.7712 24.6034 43.5417 23.1759 43.5417 22.3999V20.2854C44.3971 19.8386 45.1731 19.3312 45.8333 18.7562V22.3999C45.8333 27.0392 37.6253 30.3332 27.5 30.3332C17.3748 30.3332 9.16667 27.0392 9.16667 22.3999V18.7562C9.82697 19.3312 10.6028 19.8386 11.4583 20.2854Z" fill="#EBC900"/>
<path fill-rule="evenodd" clip-rule="evenodd" d="M42.8862 15.1816C43.508 14.6295 43.5417 14.2969 43.5417 14.2C43.5417 14.0869 43.4922 13.7192 42.8484 13.1215C42.2038 12.5229 41.1432 11.8766 39.639 11.2858C36.6454 10.1101 32.3542 9.33333 27.5 9.33333C22.6458 9.33333 18.3547 10.1101 15.3611 11.2858C13.8567 11.8766 12.7963 12.5229 12.1516 13.1215C11.5078 13.7192 11.4583 14.0869 11.4583 14.2C11.4583 14.2969 11.492 14.6295 12.1138 15.1816C12.7454 15.7426 13.7959 16.3458 15.3052 16.8931C18.3065 17.9813 22.6136 18.6667 27.5 18.6667C32.3863 18.6667 36.6935 17.9813 39.6949 16.8931C41.2042 16.3458 42.2547 15.7426 42.8862 15.1816ZM27.5 21C37.6253 21 45.8333 18.1765 45.8333 14.2C45.8333 10.2235 37.6253 7 27.5 7C17.3748 7 9.16667 10.2235 9.16667 14.2C9.16667 18.1765 17.3748 21 27.5 21Z" fill="black"/>
</svg>
