<svg width="56" height="55" viewBox="0 0 56 55" fill="none" xmlns="http://www.w3.org/2000/svg">
<ellipse cx="38.5" cy="40.9575" rx="4.66666" ry="4.68085" fill="#EBC900"/>
<path fill-rule="evenodd" clip-rule="evenodd" d="M32.6666 13.75C32.6666 10.5859 35.2783 8.02087 38.4999 8.02087C41.7216 8.02087 44.3333 10.5859 44.3333 13.75C44.3333 16.9142 41.7216 19.4792 38.4999 19.4792C36.3157 19.4792 34.4119 18.3001 33.4121 16.5547L20.4445 25.0569C20.8007 25.798 20.9999 26.6262 20.9999 27.5C20.9999 28.5311 20.7227 29.4984 20.2374 30.3341L33.3906 38.4835C34.3842 36.7171 36.2998 35.5209 38.4999 35.5209C41.7216 35.5209 44.3333 38.0859 44.3333 41.25C44.3333 44.4141 41.7216 46.9792 38.4999 46.9792C35.2783 46.9792 32.6666 44.4141 32.6666 41.25C32.6666 41.0841 32.6738 40.92 32.6878 40.7578L18.6764 32.0765C17.6998 32.8002 16.4842 33.2292 15.1666 33.2292C11.9449 33.2292 9.33327 30.6641 9.33327 27.5C9.33327 24.3359 11.9449 21.7709 15.1666 21.7709C16.6551 21.7709 18.0134 22.3184 19.0441 23.2197L32.6906 14.2725C32.6748 14.1004 32.6666 13.9262 32.6666 13.75ZM38.4999 10.3125C36.567 10.3125 34.9999 11.8516 34.9999 13.75C34.9999 15.6485 36.567 17.1875 38.4999 17.1875C40.4329 17.1875 41.9999 15.6485 41.9999 13.75C41.9999 11.8516 40.4329 10.3125 38.4999 10.3125ZM38.4999 37.8125C36.567 37.8125 34.9999 39.3516 34.9999 41.25C34.9999 43.1485 36.567 44.6875 38.4999 44.6875C40.4329 44.6875 41.9999 43.1485 41.9999 41.25C41.9999 39.3516 40.4329 37.8125 38.4999 37.8125ZM11.6666 27.5C11.6666 25.6016 13.2336 24.0625 15.1666 24.0625C17.0996 24.0625 18.6666 25.6016 18.6666 27.5C18.6666 29.3985 17.0996 30.9375 15.1666 30.9375C13.2336 30.9375 11.6666 29.3985 11.6666 27.5Z" fill="black"/>
</svg>
