<svg width="69" height="69" viewBox="0 0 69 69" fill="none" xmlns="http://www.w3.org/2000/svg">
<rect x="42" y="44.1213" width="3.40973" height="15.2422" transform="rotate(-45 42 44.1213)" fill="#EBC900"/>
<path fill-rule="evenodd" clip-rule="evenodd" d="M40.7274 38.7532C43.1761 36.0248 44.6556 32.4785 44.6556 28.602C44.6556 19.9853 37.3455 13 28.3278 13C19.3102 13 12 19.9853 12 28.602C12 37.2189 19.3102 44.2041 28.3278 44.2041C32.3844 44.2041 36.0956 42.7905 38.9512 40.4505L41.4172 42.8069C40.8269 44.0565 41.069 45.5775 42.1436 46.6044L50.9355 55.0057C52.3229 56.3314 54.5721 56.3314 55.9595 55.0057C57.3468 53.68 57.3468 51.5308 55.9595 50.2051L47.1676 41.8038C46.093 40.7769 44.5011 40.5455 43.1934 41.1096L40.7274 38.7532ZM42.1436 28.602C42.1436 35.8932 35.9582 41.8038 28.3278 41.8038C20.6975 41.8038 14.512 35.8932 14.512 28.602C14.512 21.3109 20.6975 15.4003 28.3278 15.4003C35.9582 15.4003 42.1436 21.3109 42.1436 28.602ZM54.1833 51.9024L45.3914 43.5013C44.9852 43.1129 44.3263 43.1129 43.9199 43.501C43.5137 43.8894 43.5137 44.519 43.9199 44.9071L52.7118 53.3085C53.1182 53.6966 53.7768 53.6966 54.1833 53.3085C54.5897 52.9201 54.5897 52.2905 54.1833 51.9024Z" fill="black"/>
</svg>
