<svg width="61" height="61" viewBox="0 0 61 61" fill="none" xmlns="http://www.w3.org/2000/svg">
<path fill-rule="evenodd" clip-rule="evenodd" d="M12.1511 43.2083L10.8803 48.2916H19.6197L18.3489 43.2083H12.1511ZM20.3333 40.6666H10.1667L7.625 50.8333H22.875L20.3333 40.6666Z" fill="black"/>
<path fill-rule="evenodd" clip-rule="evenodd" d="M27.4012 17.7917L26.1304 22.875H34.8696L33.5988 17.7917H27.4012ZM35.5833 15.25H25.4167L22.875 25.4167H38.125L35.5833 15.25Z" fill="black"/>
<path fill-rule="evenodd" clip-rule="evenodd" d="M27.4012 43.2083L26.1304 48.2916H34.8696L33.5988 43.2083H27.4012ZM35.5833 40.6666H25.4167L22.875 50.8333H38.125L35.5833 40.6666Z" fill="#EBC900"/>
<path fill-rule="evenodd" clip-rule="evenodd" d="M19.7761 30.5L18.5053 35.5834H27.2446L25.9738 30.5H19.7761ZM27.9583 27.9584H17.7917L15.25 38.125H30.5L27.9583 27.9584Z" fill="black"/>
<path fill-rule="evenodd" clip-rule="evenodd" d="M35.0262 30.5L33.7554 35.5834H42.4946L41.2238 30.5H35.0262ZM43.2083 27.9584H33.0417L30.5 38.125H45.75L43.2083 27.9584Z" fill="black"/>
<path fill-rule="evenodd" clip-rule="evenodd" d="M42.6512 43.2083L41.3804 48.2916H50.1196L48.8488 43.2083H42.6512ZM50.8333 40.6666H40.6667L38.125 50.8333H53.375L50.8333 40.6666Z" fill="black"/>
<path fill-rule="evenodd" clip-rule="evenodd" d="M13.9792 26.6875L15.25 29.2291L16.5208 26.6875L19.0625 25.4166L16.5208 24.1458L15.25 21.6041L13.9792 24.1458L11.4375 25.4166L13.9792 26.6875Z" fill="#EBC900"/>
<path fill-rule="evenodd" clip-rule="evenodd" d="M36.8542 13.9792L38.125 16.5209L39.3958 13.9792L41.9375 12.7084L39.3958 11.4375L38.125 8.89587L36.8542 11.4375L34.3125 12.7084L36.8542 13.9792Z" fill="black"/>
</svg>
