<?xml version="1.0" encoding="UTF-8"?>
<svg width="629px" height="760px" viewBox="0 0 629 760" version="1.1" xmlns="http://www.w3.org/2000/svg" xmlns:xlink="http://www.w3.org/1999/xlink">
    <title>preserver</title>
    <g id="Drupal-Page" stroke="none" stroke-width="1" fill="none" fill-rule="evenodd">
        <g id="Desktop-Home" transform="translate(-944.000000, -2592.000000)">
            <g id="preserver" transform="translate(1257.500000, 2972.500000) rotate(20.000000) translate(-1257.500000, -2972.500000) translate(1043.000000, 2648.000000)">
                <g id="Life-PReserver" transform="translate(0.056950, 0.858055)">
                    <ellipse id="Oval" stroke="#000000" stroke-width="4" fill="#FFFFFF" cx="195.445314" cy="457.281153" rx="142.832972" ry="142.841202"></ellipse>
                    <path d="M240.009305,320.984982 L220.125571,379.289736 C209.198125,375.228709 200.971373,373.198195 195.445314,373.198195 C189.919255,373.198195 181.692502,375.228709 170.765057,379.289736 L150.881322,320.984982 C165.735986,316.526254 180.59065,314.296889 195.445314,314.296889 C210.299978,314.296889 225.154641,316.526254 240.009305,320.984982 Z" id="yellow-fill" fill="#EBC900"></path>
                    <path d="M240.009305,542.889131 L220.125571,601.193885 C209.198125,597.132857 200.971373,595.102344 195.445314,595.102344 C189.919255,595.102344 181.692502,597.132857 170.765057,601.193885 L150.881322,542.889131 C165.735986,538.430402 180.59065,536.201038 195.445314,536.201038 C210.299978,536.201038 225.154641,538.430402 240.009305,542.889131 Z" id="yellow-fill-copy" fill="#EBC900" transform="translate(195.445314, 568.697462) scale(1, -1) translate(-195.445314, -568.697462) "></path>
                    <path d="M129.530276,431.474288 L109.645411,489.77573 C98.7173449,485.714933 90.490125,483.684534 84.9637519,483.684534 C79.4373788,483.684534 71.2101589,485.714933 60.2820923,489.77573 L40.3972283,431.474288 C55.2527362,427.015813 70.108244,424.786576 84.9637519,424.786576 C99.8192598,424.786576 114.674768,427.015813 129.530276,431.474288 Z" id="yellow-fill-copy-2" fill="#EBC900" transform="translate(84.963752, 457.281153) scale(1, -1) rotate(-90.000000) translate(-84.963752, -457.281153) "></path>
                    <path d="M350.493399,431.474288 L330.608535,489.77573 C319.680469,485.714933 311.453249,483.684534 305.926876,483.684534 C300.400502,483.684534 292.173283,485.714933 281.245216,489.77573 L261.360352,431.474288 C276.21586,427.015813 291.071368,424.786576 305.926876,424.786576 C320.782383,424.786576 335.637891,427.015813 350.493399,431.474288 Z" id="yellow-fill-copy-3" fill="#EBC900" transform="translate(305.926876, 457.281153) scale(-1, 1) rotate(-90.000000) translate(-305.926876, -457.281153) "></path>
                    <ellipse id="Oval" stroke="#000000" stroke-width="4" cx="195.445314" cy="457.281153" rx="142.832972" ry="142.841202"></ellipse>
                    <ellipse id="Oval" stroke="#000000" stroke-width="4" fill="#FFFFFF" cx="195.445314" cy="457.281153" rx="82.4859002" ry="82.490701"></ellipse>
                    <g id="ring" transform="translate(150.881322, 320.796174)" stroke="#000000" stroke-width="4">
                        <line x1="19.9756945" y1="58.4935622" x2="7.45501983e-14" y2="0" id="Path-9"></line>
                        <line x1="89.5401911" y1="58.4935622" x2="69.5644965" y2="0" id="Path-9-Copy" transform="translate(79.552344, 29.246781) scale(-1, 1) translate(-79.552344, -29.246781) "></line>
                    </g>
                    <g id="ring-copy-2" transform="translate(303.352615, 457.717188) rotate(90.000000) translate(-303.352615, -457.717188) translate(258.352615, 428.217188)" stroke="#000000" stroke-width="4">
                        <line x1="19.9756945" y1="58.4935622" x2="7.45501983e-14" y2="0" id="Path-9"></line>
                        <line x1="89.5401911" y1="58.4935622" x2="69.5644965" y2="0" id="Path-9-Copy" transform="translate(79.552344, 29.246781) scale(-1, 1) translate(-79.552344, -29.246781) "></line>
                    </g>
                    <g id="ring-copy-3" transform="translate(88.466428, 457.717188) scale(-1, 1) rotate(90.000000) translate(-88.466428, -457.717188) translate(43.466428, 428.217188)" stroke="#000000" stroke-width="4">
                        <line x1="19.9756945" y1="58.4935622" x2="7.45501983e-14" y2="0" id="Path-9"></line>
                        <line x1="89.5401911" y1="58.4935622" x2="69.5644965" y2="0" id="Path-9-Copy" transform="translate(79.552344, 29.246781) scale(-1, 1) translate(-79.552344, -29.246781) "></line>
                    </g>
                    <g id="ring-copy" transform="translate(195.881322, 565.194600) scale(1, -1) translate(-195.881322, -565.194600) translate(150.881322, 535.694600)" stroke="#000000" stroke-width="4">
                        <line x1="19.9756945" y1="58.4935622" x2="7.45501983e-14" y2="0" id="Path-9"></line>
                        <line x1="89.5401911" y1="58.4935622" x2="69.5644965" y2="0" id="Path-9-Copy" transform="translate(79.552344, 29.246781) scale(-1, 1) translate(-79.552344, -29.246781) "></line>
                    </g>
                    <path d="M403.10735,69.1073509 C352.883413,154.939515 294.822446,197.856497 228.924447,197.858297 C163.026449,197.860097 125.611487,214.15174 116.679563,246.733227" id="Path-10" stroke="#000000" stroke-width="4" transform="translate(259.893456, 157.920289) rotate(-37.000000) translate(-259.893456, -157.920289) "></path>
                </g>
            </g>
        </g>
    </g>
</svg>