<?xml version="1.0" encoding="UTF-8"?>
<!-- Generator: Adobe Illustrator 12.0.1, SVG Export Plug-In . SVG Version: 6.00 Build 51448)  -->
<!DOCTYPE svg PUBLIC "-//W3C//DTD SVG 1.1//EN" "http://www.w3.org/Graphics/SVG/1.1/DTD/svg11.dtd">
<svg version="1.1" id="Layer_1" xmlns="http://www.w3.org/2000/svg" xmlns:xlink="http://www.w3.org/1999/xlink" viewBox="0 0 767.992 367.74" overflow="visible" enable-background="new 0 0 767.992 367.74" xml:space="preserve">
<g>
	<g>
		<path fill="#525252" d="M171.586,140.092c0,0-27.72-129.358-28.319-132.599c-0.601-3.24,0.479-4.44,0.479-4.44H98.507    c1.56,1.2,0.479,4.32,0.479,4.32S69.707,135.292,68.747,139.373c-0.961,4.08-3.12,4.92-3.12,4.92s20.52,0,42.6,0    c-1.08-0.96-0.84-3.96-0.84-3.96l2.76-18.72h21.12c0,0,2.159,15.239,2.52,18.6s-0.84,4.08-0.84,4.08s25.56,0,41.28,0    C172.666,143.693,171.586,140.092,171.586,140.092z M114.106,95.813l6.84-45.6l6.601,45.6H114.106z"/>
		<path fill="#525252" d="M242.146,71.333c0,0,24.96-2.76,24.12-34.799c-1.2-35.04-44.279-33.24-44.279-33.24h-47.16    c1.08,1.2,1.439,5.28,1.439,5.28s0,128.039,0,130.679s-1.319,5.28-1.319,5.28s39,0,52.439,0c13.44,0,44.76-5.761,43.92-38.76    C270.466,72.773,242.146,71.333,242.146,71.333z M229.546,44.813c0.72,15.36-13.32,14.28-14.28,14.28    c0-14.04-0.239-27.24-0.239-27.24S228.826,29.454,229.546,44.813z M214.906,113.813v-29.04c0,0,15.96-2.64,15.96,14.64    C230.866,116.693,214.906,113.813,214.906,113.813z"/>
		<path fill="#525252" d="M323.266,51.173c-7.447-5.967-11.28-16.8,2.64-18c14.756,0.116,24.36,9.6,24.36,9.6V5.454    c-1.08,0.96-2.88,1.08-5.16,0.12s-7.44-2.88-12.96-3.96c-17.76-3.36-31.8,0.6-39.96,6.6s-13.92,12.36-14.88,32.16    s7.384,28.248,18.84,39.72c13.414,10.282,17.28,14.039,20.76,18.359c4.08,4.08,4.32,13.56-9.12,14.88    c-13.92,0.48-30.359-13.92-30.359-13.92s0,20.4,0,40.2c1.439-0.96,3.96,0,9.479,3c13.32,7.439,38.16,7.439,53.88-3.24    c15.721-10.68,20.641-36.96,15.96-52.56C352.065,71.213,336.098,61.445,323.266,51.173z"/>
		<path fill="#525252" d="M413.505,0.173c0,0-52.38-7.327-52.38,73.309s52.38,74.133,52.38,74.133s52.485,4.557,52.485-74.133    S413.505,0.173,413.505,0.173z M413.505,114.499c0,0-12.544,4.826-12.544-41.017c0-45.844,12.544-42.243,12.544-42.243    s11.933-3.574,11.933,42.243C425.438,119.298,413.505,114.499,413.505,114.499z"/>
		<path fill="#525252" d="M513.944,111.292c0,0,0-99.719,0-103.199c0-3.479,1.08-4.92,1.08-4.92h-41.88    c1.8,2.521,1.32,5.28,1.32,5.28s0,124.919,0,129.959s-1.32,5.76-1.32,5.76h69.24c0,0,0-25.92,0-34.319    c-1.2,1.2-5.04,1.439-5.04,1.439H513.944z"/>
		<path fill="#525252" d="M605.384,8.814v96.479c0,0,0.184,10.2-10.017,10.2c-10.199,0-11.25-10.2-11.25-10.2s0-93.119,0-97.079    s1.319-5.04,1.319-5.04h-40.772c1.08,0.601,1.561,5.04,1.561,5.04v97.079c0,0,0.993,42.36,48.393,42.36    c47.4,0,48.087-42.6,48.087-42.6s0-94.319,0-97.08c0-2.76,1.2-4.56,1.2-4.56s-26.4,0-40.08,0    C605.145,4.854,605.384,8.814,605.384,8.814z"/>
		<path fill="#525252" d="M648.464,37.494c2.04-1.32,5.16-1.2,5.16-1.2h17.88c0,0,0,98.879,0,102.839s-1.2,5.16-1.2,5.16    s29.521,0,42,0c-1.32-1.32-1.32-5.4-1.32-5.4V36.293c0,0,15.24,0,18.24,0s4.56,1.2,4.56,1.2v-34.2h-85.319V37.494z"/>
		<path fill="#525252" d="M754.183,0.665c-7.52,0-13.881,5.785-13.881,13.63c0,7.917,6.361,13.7,13.881,13.7    c7.448,0,13.81-5.783,13.81-13.7C767.992,6.45,761.631,0.665,754.183,0.665z M754.183,25.717c-6.254,0-11.133-4.845-11.133-11.423    c0-6.473,4.879-11.351,11.133-11.351c6.183,0,11.062,4.878,11.062,11.351C765.244,20.873,760.365,25.717,754.183,25.717z"/>
		<path fill="#525252" d="M760.473,10.931c0-3.109-1.844-4.481-5.565-4.481h-6.002v15.762h2.386v-6.833h2.748l4.156,6.833h2.676    l-4.482-6.941C758.701,14.98,760.473,13.751,760.473,10.931z M751.291,13.354v-4.88h3.254c1.662,0,3.435,0.361,3.435,2.313    c0,2.422-1.808,2.567-3.832,2.567H751.291z"/>
	</g>
	<g>
		<path fill="#525252" d="M628.946,364.292c0,0,25.56,0,41.28,0c-1.561-0.6-2.641-4.2-2.641-4.2s-27.72-129.358-28.319-132.599    c-0.601-3.24,0.479-4.44,0.479-4.44h-45.239c1.56,1.2,0.479,4.32,0.479,4.32s-29.279,127.919-30.239,131.999    c-0.961,4.08-3.12,4.92-3.12,4.92s20.52,0,42.6,0c-1.08-0.96-0.84-3.96-0.84-3.96l2.76-18.72h21.12c0,0,2.159,15.239,2.52,18.6    S628.946,364.292,628.946,364.292z M610.106,315.813l6.84-45.6l6.601,45.6H610.106z"/>
		<path fill="#525252" d="M292.172,220.173c0,0-52.38-7.327-52.38,73.309s52.38,74.133,52.38,74.133s52.485,4.557,52.485-74.133    S292.172,220.173,292.172,220.173z M292.172,334.499c0,0-12.544,4.826-12.544-41.017c0-45.844,12.544-42.243,12.544-42.243    s11.933-3.574,11.933,42.243C304.104,339.298,292.172,334.499,292.172,334.499z"/>
		<path fill="#525252" d="M393.825,223.131h-42c1.32,1.801,1.44,4.2,1.44,4.2s0,129.839,0,132.359c0,2.52-1.08,5.04-1.08,5.04    s4.439,0,43.08,0c38.64,0,49.439-34.2,49.439-34.2s12.479-31.08,1.08-70.199C434.385,221.211,393.825,223.131,393.825,223.131z     M390.705,335.451v-83.999c0,0,19.32-2.76,19.32,41.76S390.705,335.451,390.705,335.451z"/>
		<path fill="#525252" d="M558.465,361.01l-27.36-72.359c0,0,26.64-57.959,27.96-60.599c1.32-2.641,3.36-4.801,3.36-4.801    s-25.92,0-44.521,0c0.721,0.721,0.48,3.72,0.48,3.72l-20.16,54.24c0,0,0-50.52,0-53.64s1.32-4.2,1.32-4.2h-42    c1.08,0.601,1.56,4.08,1.56,4.08s0,128.279,0,131.999s-1.439,5.28-1.439,5.28s25.8,0,42.239,0    c-1.319-1.32-1.439-5.641-1.439-5.641v-58.8c0,0,17.88,56.4,18.84,59.28s-0.72,5.04-0.72,5.04s32.76,0,44.159,0    C559.615,363.857,558.465,361.01,558.465,361.01z"/>
		<path fill="#525252" d="M213.933,359.868c0.6-3.24,28.319-132.599,28.319-132.599s1.08-3.601,2.641-4.2c-15.721,0-41.28,0-41.28,0    s1.2,0.72,0.84,4.08s-2.52,18.6-2.52,18.6l-10.32,71.399l-10.8-71.399l-2.76-18.72c0,0-0.24-3,0.84-3.96c-22.08,0-42.6,0-42.6,0    s2.159,0.84,3.12,4.92c0.96,4.08,30.239,131.999,30.239,131.999s1.08,3.12-0.479,4.32h45.239    C214.412,364.308,213.332,363.108,213.933,359.868z"/>
	</g>
	<g>
		<path fill="#525252" d="M353.266,185.302c-18.24,13.92-25.681,19.319-25.681,19.319l21.841-39.959c-0.047,0-0.759,0-8.881,0    c-9.359,17.399-13.439,23.52-16.199,27.239c-2.761,3.72-4.561,7.44-10.08,10.44c-5.521,3-5.16-0.721-5.16-1.681    s2.04-4.68,5.88-10.079c3.84-5.4,6-7.8,8.64-14.88c2.641-7.08-0.119-11.28-2.279-11.761c-2.16-0.479-6.601,0-10.8,4.08    c-4.2,4.08-22.32,27.36-25.08,30s-3.721,2.76-6.96,4.08c-3.24,1.32-3.24-0.6-3.12-2.16c0.12-1.56,3.84-8.64,8.04-14.16    c4.2-5.52,9.359-9.959,11.64-15.84c2.28-5.88-0.96-8.279-5.76-7.319s-6.12-0.24-6.12-0.24s3.36-5.04,5.04-7.32    c1.68-2.279,2.88-6.239,0.96-7.079c-1.92-0.841-4.56,1.079-7.2,4.56c-2.64,3.48-3,7.56-3.12,10.68    c-5.88,9.48-17.039,23.28-23.039,30.479c-6,7.2-10.681,9-13.08,8.28c-2.4-0.72-1.561-7.439,0.479-12.12    c2.04-4.68,16.2-26.999,16.2-26.999h8.399l1.2-2.88h-8.159l11.64-20.641h-8.16l-12.84,21.24h-9.24l-0.96,2.399    c0,0,4.08,0.12,8.64,0c-15.479,28.44-22.8,33.96-26.039,36.84c-3.24,2.88-5.4,3.721-7.32,2.88c-1.92-0.84-0.96-3.84,0.6-6.239    c1.561-2.4,10.681-15.48,12.24-23.64c1.56-8.16-1.2-9.36-6.48-9.24c-5.279,0.12-12.959,8.399-15.239,10.2    c1.2-14.4-8.04-11.881-14.521-5.16c-6.479,6.72-18.84,23.999-21.959,27.6c-3.12,3.6-7.08,5.88-8.16,5.52    c-1.08-0.359-0.84-1.56,0.6-6.12c1.44-4.56,15.96-30.6,15.96-30.6c-0.086,0-0.958,0-7.92,0    c-12.585,21.627-21.36,30.96-24.479,33.96c-3.12,3-5.881,4.2-7.561,3.601c-1.68-0.601,0.12-3.36,1.44-5.4    c1.319-2.04,9.239-14.16,11.76-18c2.52-3.84,5.52-12,1.44-13.92c-4.08-1.92-9,1.2-13.921,4.32    c-4.919,3.12-10.199,10.08-12.72,10.319c6.112-11.782,2.28-16.8-0.359-17.52c-2.641-0.72-7.2,0.36-14.28,5.52    c-7.08,5.16-25.56,24.24-30.359,28.08c-4.801,3.84-28.561,18.24-40.561,6.96s0.96-37.199,4.44-43.68    c38.52-6.12,58.56-29.399,60.6-37.68c2.04-8.279-4.561-11.159-8.64-10.8c-36.24,5.16-57.84,36.6-63.48,45.24    c-9.359-0.12-34.8-6.721-28.439-31.561s34.8-24.96,34.8-24.96s-0.12-0.359,0-1.079c-24.36-4.32-44.28,15.479-41.04,35.039    c3.24,19.561,21.24,22.92,33,25.92c-11.76,33-2.399,49.319,17.04,50.52s35.88-12.12,42.72-16.68c-0.72,2.04-1.44,14.16,7.08,14.16    c8.52,0,21.24-19.08,23.64-22.56c2.4-0.12,2.88-1.08,5.28-2.521c2.399-1.44,12.359-10.2,14.279-11.52    c1.921-1.32,4.921-3.12,6.601-2.521s1.2,2.16-3.72,8.28c-4.921,6.12-9.601,12.72-11.641,17.279    c-2.04,4.561-2.76,11.04,3.601,12.721c6.359,1.68,17.52-11.641,17.52-11.641s-1.2,10.561,3.84,11.28s9.36-2.04,18.48-14.04    c9.119-12,16.079-20.399,19.079-23.399s6.961-1.561,3.841,4.199c-3.12,5.761-18,32.521-18,32.521c0.706,0,2.921,0,9.12,0    c12-20.64,21.239-33.601,27.479-36.72c6.24-3.12,3.96,0.72,1.8,4.68c-7.8,12.24-9.479,16.56-10.56,19.92    c-1.08,3.359-2.4,11.88,5.04,12.84c7.439,0.96,13.079-7.2,18.6-12.6c2.88,16.8,12.24,11.88,17.88,7.8s22.8-28.32,29.04-36.6    c8.76-0.24,6.6,3,4.68,6.119c-1.92,3.12-9.84,12.24-12,15.12s-8.52,13.2-1.2,18.72c7.32,5.521,17.761-8.52,24.721-16.92    c6.96-8.399,12.359-17.88,17.52-19.56s4.561,0.84,3.36,3.72s-10.08,14.4-13.8,19.92c-3.721,5.521-3.96,12.84,0.84,14.76    c4.8,1.921,13.56-2.88,13.56-2.88s-0.24,0.84-4.56,7.44c-39.84,22.199-39.96,36.84-39.96,36.84s-2.16,12.479,11.76,7.319    c22.439-10.68,34.08-37.199,38.64-45.72c12.84-9.6,29.4-23.159,29.4-23.159S354.346,186.142,353.266,185.302z M91.427,115.103    c3.12-1.08,9.84-2.88,12,0.359c2.159,3.24-0.24,8.4-1.801,10.92c-1.56,2.521-23.279,26.28-53.159,28.68    C48.467,155.062,63.707,127.342,91.427,115.103z M123.227,180.382c-2.28-1.08-4.44-2.64-5.76-1.32c-1.32,1.32-0.48,4.561,2.399,6    c-3.24,6.24-11.64,19.44-18.84,19.2c0,0-3.96-0.601-2.04-4.8c1.92-4.2,11.28-21.72,22.8-33.36c1.44-1.2,4.92-3.239,5.88,1.8    C128.626,172.942,124.307,178.823,123.227,180.382z M280.905,253.942c-9.359-0.721,0.601-14.521,0.601-14.521    s12.12-14.52,30.72-23.279C312.226,216.142,292.898,254.86,280.905,253.942z"/>
		<path fill="#525252" d="M463.064,133.703c-15.734,7.77-24.6,22.92-34.56,38.159c-3.479,2.28-9.96,5.761-13.08,7.561s-3.72,0.72-4.319,0.36    c6.359-11.641,6.72-16.92,2.76-18.84s-9.96,1.439-16.8,5.52s-26.88,27.6-29.521,30.12c-2.64,2.52-9.6,8.399-9.6,8.399l0.96,1.44    c6.601-4.801,16.92-14.04,16.92-14.04s-1.44,12.96,6.24,14.88c10.56,2.52,22.92-17.04,27.239-23.64    c2.16,0.96,7.44-1.8,15.601-6.36c-4.561,8.28-12.601,25.56-18.84,38.88c-6.24,13.319-9,20.88-9.24,30    c-0.24,9.119,11.04,14.999,22.68-3.48s13.561-39.6,14.28-44.04c13.8-3.96,17.399-13.439,17.399-13.439s-0.72,0-1.92,0.12    c-5.04,6.359-12.479,9.12-14.88,9.479c-0.12-2.76,0.105-4.474-2.88-7.92c-0.66-0.761-1.459-1.688-1.459-1.688    s1.474-4.188,3.619-8.272c3.72-7.079,3.72-4.319,18.24-15.239c14.52-10.92,17.64-24.36,17.64-24.36    S472.545,129.023,463.064,133.703z M408.465,178.102c-2.399-1.439-4.199-2.52-5.88-0.6c-1.68,1.92,1.08,4.439,3.36,5.64    c-3.12,5.16-14.04,23.76-22.08,20.28c0,0-2.64-0.601-1.2-4.561c1.44-3.96,10.561-27,24.84-34.92    C409.545,162.863,418.785,159.743,408.465,178.102z M414.105,245.182c-9.48,10.8-10.44,4.8-10.32,2.88s0.6-7.44,5.76-19.8    c5.16-12.36,10.92-24.601,13.561-30l7.079,0.96C430.185,199.222,427.785,226.342,414.105,245.182z M431.025,195.382    c-2.881,0.12-5.28-0.48-6-0.84l2.88-5.641C427.905,188.902,431.505,191.182,431.025,195.382z M466.185,138.502    c-1.56,3.96-10.439,20.76-26.159,27.12c0,0,8.52-18.96,22.8-28.32C464.625,136.103,467.745,134.542,466.185,138.502z"/>
		<path fill="#525252" d="M538.904,148.823c0.12-2.88,8.64-11.28,10.801-13.8c2.159-2.521,6.119-10.08,0.959-11.28    c-9.119-0.96-14.159,21.12-14.159,21.12l-19.08,20.159c0,0-7.561-11.159-23.521-9.239c-22.016,2.647-30.359,17.04-32.159,31.8    c-1.801,14.76,11.279,25.56,11.279,25.56l-14.04,16.319l3.12,0.24l13.2-15.12c0,0,15.6,10.32,36.72,0.36    c23.76-11.28,26.04-34.08,26.76-43.08C539.505,162.863,538.784,151.703,538.904,148.823z M548.984,127.342    c4.2,1.08-5.88,11.881-8.52,13.92C540.465,141.262,544.784,126.262,548.984,127.342z M475.064,210.862    c0,0-17.999-12.479-6.12-35.64c11.881-23.16,43.8-17.88,46.44-7.92C503.505,179.182,476.984,208.942,475.064,210.862z     M525.465,188.783c-6.601,13.079-19.681,36.6-48.12,23.639c0,0,28.2-32.999,39.479-42.959c0.721,2.28,2.28,5.88-1.8,14.52    c-0.479,1.561,0.601,3.72,2.28,1.2s4.68-8.04,1.8-17.76c11.4-12.479,13.561-14.64,16.08-17.399    C533.984,161.302,532.35,175.128,525.465,188.783z"/>
		<path fill="#525252" d="M748.903,203.302c-3.359,1.319-3.84-0.24-3.6-1.561c0.24-1.319,10.2-15.96,11.88-18.6s6.84-12.12,4.68-17.28    c-3.6-8.159-19.319,6.12-23.52,9.841c3.96-18.12-8.16-11.641-13.68-5.28c-5.521,6.36-23.4,25.439-23.4,25.439    s-8.76,9.84-12.6,8.28c-6.6-2.521,0.24-14.64,2.16-18.36c14.88-3.72,24.479-11.88,23.88-18.359c-0.601-6.479-9.24-3.72-12.48-2.04    c-19.199,11.16-22.08,23.76-23.76,30.6c-1.68,2.521-6.479,7.561-10.56,7.44s-3-5.761-1.561-8.641    c1.44-2.88,34.8-64.919,34.8-64.919h-8.04c0,0-15.239,27.479-20.279,35.88c-0.12-1.08-1.681-3.36-4.32-3.36    c-11.4,0.6-18.72,9.479-25.68,18c-6.96,8.52-10.2,12-12.48,14.399c-2.279,2.4-12.119,12.36-16.8,8.761    c-4.68-3.601,3.48-17.4,3.48-17.4s8.04-1.56,16.56-7.319c9.96-6.841,8.64-16.08,2.16-15.601c-14.88,2.64-20.64,12.72-25.92,19.68    c-4.44-1.56-6.72-3.359-8.4-4.68c0.721-1.439,9.721-19.8,3.12-18.479c-6.6,1.319-7.68,13.439-7.92,20.159    c-7.995,17.723-15.6,22.561-19.199,24.48c-3.601,1.92-5.16-0.48-4.921-2.16c2.04-9.72,18.12-37.2,18.12-37.2    c-1.378,0-3.922,0-8.399,0c-15,30.36-27.24,38.88-28.92,39.72c-1.121,0.556-5.521,1.32-3.36-3.72s12.36-20.76,14.4-26.04    c0.359-0.84,4.68-12.84-6-10.439c-10.681,2.399-17.88,16.319-17.88,16.319l1.8,0.24c6.96-9.359,9.12-10.319,12.84-12.6    s4.68-0.84,4.68,1.56c0,2.4-7.68,12.36-11.88,18.84c-4.199,6.48-5.16,17.641,1.68,18.36c6.841,0.72,11.881-6.24,17.04-10.561    c0.48,5.881,4.2,14.04,13.08,9.12s17.4-20.76,20.28-25.439c2.16,1.32,3.24,2.52,8.279,5.04c-6.239,10.92-3.72,20.76,4.921,21.479    c8.64,0.72,18.359-9.6,22.8-13.56c-0.12,0.96,0.239,13.92,7.439,13.92s11.04-6.84,15.72-11.641c1.44,18.721,16.32,9,19.801,4.681    c8.76,18.359,27.72-6.36,31.8-10.561c4.08-4.199,14.279-15.959,16.56-18.119s4.32-4.32,6.72-3.601c2.4,0.721-0.84,6.12-4.8,12.24    s-16.2,25.8-16.2,25.8s5.16,0,9.36,0c2.16-3.36,14.28-21.359,21-29.76c10.56-10.68,12.72-9.36,13.68-8.76    c0.96,0.6,0.48,3.479-3.84,8.64s-10.92,14.64-12.48,17.64c-1.56,3-3.119,13.44,3.96,13.561c7.08,0.119,14.4-12,14.4-12    s-0.72-0.36-1.68-0.601C756.823,195.862,752.264,201.982,748.903,203.302z M707.983,168.022c2.04-0.96,4.921-2.16,3.601,1.44    c-1.32,3.6-7.08,10.92-19.08,12.96C692.504,182.422,696.943,173.783,707.983,168.022z M626.984,172.823    c6.12-4.44,9.479-6.24,11.04-5.16c1.56,1.08-4.32,12.239-19.44,14.88C618.584,182.542,620.864,177.262,626.984,172.823z     M662.264,185.542c-5.16,7.56-14.04,19.56-18.72,18.359c0,0-3-1.319-1.44-5.88c1.561-4.56,10.32-21.6,21.721-30.6    c2.16-1.44,6-3.48,5.399,1.92C668.624,174.743,667.424,177.982,662.264,185.542z"/>
	</g>
</g>
</svg>
