<?xml version="1.0" encoding="UTF-8"?>
<svg viewBox="0 0 200 42" version="1.1" xmlns="http://www.w3.org/2000/svg" xmlns:xlink="http://www.w3.org/1999/xlink">
    <path d="M153,1.3 C156.9,1.3 160.9,1.3 164.8,1.3 C164.7,2.1 164.6,3 164.6,3.8 C164.6,12.2 164.6,20.6 164.6,29 C164.6,31.5 164.1,33.9 162.7,36 C161,38.7 158.5,40.2 155.5,41 C152.3,41.8 149.2,41.8 146,41.1 C140.1,39.8 136.7,35.5 136.6,29.3 C136.6,23 136.6,16.8 136.6,10.5 C136.6,8.1 136.6,5.7 136.6,3.4 C136.6,2.8 136.4,2.1 136.3,1.4 C140.2,1.4 144.2,1.4 148.3,1.4 C147.6,2.3 147.8,3.4 147.8,4.4 C147.8,12.4 147.8,20.4 147.8,28.4 C147.8,29.2 147.8,29.9 148,30.7 C148.3,32 149.2,32.8 150.5,32.8 C151.7,32.8 152.7,32.1 153.1,30.8 C153.3,30.1 153.3,29.4 153.3,28.7 C153.3,20.2 153.3,11.6 153.3,3.1 C153.3,2.5 153.1,1.9 153,1.3 Z" id="Path" fill="#525252"></path>
    <path d="M32.2,1.3 C32.3,1.3 32.5,1.3 32.7,1.3 C36.5,1.3 40.3,1.3 44.1,1.3 C46.7,1.3 49.2,1.6 51.6,2.5 C59.2,5.1 59.2,14.1 55.8,17.8 C54.7,19 53.4,19.8 51.7,20.3 C51.9,20.3 52,20.4 52.2,20.4 C56.2,21.2 59.1,24.4 59.5,28.6 C59.8,32.4 58.8,35.8 55.6,38.2 C53.3,39.8 50.7,40.5 48,40.6 C42.9,40.7 37.7,40.6 32.6,40.7 C32.5,40.7 32.5,40.7 32.5,40.7 C32.6,28.2 32.5,15.8 32.6,3.4 C32.5,2.6 32.3,2 32.2,1.3 Z M43.4,32.5 C45.5,32.8 47.5,32.1 48.3,30.7 C49.2,29.2 49.1,26.9 48.1,25.6 C47.2,24.4 45,23.7 43.5,24.1 C43.4,26.9 43.4,29.7 43.4,32.5 Z M43.4,16.9 C45.2,17 46.8,16.7 47.7,15.1 C48.5,13.7 48.6,12.1 47.6,10.7 C46.6,9.3 45.1,9.1 43.5,9.2 C43.4,11.8 43.4,14.3 43.4,16.9 Z" id="Shape" fill="#525252"></path>
    <path d="M114.6,21 C114.6,25 114.2,28.9 112.7,32.6 C111.1,36.6 108.5,39.7 104.2,40.9 C100,42.1 95.9,41.9 92,39.6 C88.9,37.7 87.1,34.8 86.1,31.4 C84.6,26.8 84.5,22 84.9,17.3 C85.1,14.6 85.6,12 86.6,9.5 C88.9,3.6 93.7,0.5 100.1,0.7 C106.8,0.9 111.2,4.4 113.2,10.9 C114.3,14.1 114.6,17.5 114.6,21 Z M103.3,21 C103.2,21 103.1,21 103,21 C103,19.3 103.1,17.5 103,15.8 C102.9,14.1 102.7,12.3 101.9,10.8 C101.4,9.9 100.8,9.2 99.7,9.2 C98.7,9.2 97.9,9.8 97.5,10.7 C97.1,11.6 96.8,12.6 96.6,13.6 C96,18.3 96.1,23 96.5,27.8 C96.6,29.1 96.9,30.5 97.7,31.6 C98.7,33.2 100.7,33.2 101.7,31.6 C102.1,30.9 102.5,30.1 102.6,29.3 C102.9,26.5 103.1,23.8 103.3,21 Z" id="Shape" fill="#525252"></path>
    <path d="M9.4,1.3 C13.8,1.3 18.4,1.3 23,1.3 C22.5,2.1 22.6,2.9 22.8,3.7 C25.5,15.2 28.1,26.6 30.8,38.1 C31,38.9 31.3,39.7 31.6,40.5 C27.7,40.5 23.7,40.5 19.7,40.5 C20.5,39.8 20.3,38.9 20.1,38.1 C19.9,37 19.7,35.9 19.6,34.8 C19.5,34.3 19.4,34.1 18.9,34.1 C17.1,34.1 15.2,34.1 13.4,34.1 C12.9,34.1 12.8,34.2 12.7,34.7 C12.5,35.9 12.3,37.1 12.1,38.3 C12,39 11.9,39.7 12.6,40.4 C8.3,40.4 4.2,40.4 -1.42108547e-14,40.4 C1.5,38.6 1.7,36.5 2.2,34.4 C4.6,24.1 7,13.7 9.3,3.4 C9.5,2.9 9.4,2.1 9.4,1.3 Z M18.3,27 C17.6,21.9 16.8,16.9 16.1,11.9 C16,11.9 16,11.9 15.9,11.9 C15.2,16.9 14.4,21.9 13.7,27 C15.3,27 16.8,27 18.3,27 Z" id="Shape" fill="#525252"></path>
    <path d="M81.3,1.9 C81.3,5.3 81.3,8.6 81.3,12.1 C80.9,11.9 80.6,11.7 80.3,11.5 C78.4,10.4 76.4,9.5 74.2,9.3 C72.5,9.2 71.5,9.8 71.2,11.2 C71,12 71.3,12.7 71.9,13.2 C72.7,14 73.7,14.7 74.6,15.5 C76.7,17.3 78.8,19 80.8,21 C85.5,25.7 85,32.7 82.4,36.5 C80.5,39.3 77.7,40.8 74.5,41.3 C70.9,41.9 67.6,41.3 64.3,39.8 C63.9,39.6 63.6,39.5 63.2,39.3 C62.1,38.8 62.1,38.8 60.9,39.1 C60.9,35.3 60.9,31.6 60.9,27.7 C61.7,28.3 62.5,29 63.3,29.5 C65.1,30.8 67,31.9 69.2,32.3 C69.8,32.4 70.3,32.4 70.9,32.4 C72.7,32.3 73.7,30.8 73.1,29.2 C72.8,28.3 72.2,27.4 71.4,26.7 C69.4,24.9 67.2,23.1 65.1,21.4 C62.7,19.4 61.1,17 60.7,13.8 C59.6,6.5 65,0.1 73.3,0.5 C75.3,0.6 77.2,1.1 79,1.8 C79.7,2.2 80.5,2.5 81.3,1.9 Z" id="Path" fill="#525252"></path>
    <path d="M172.4,40.5 C172.5,39.8 172.7,39.2 172.7,38.6 C172.7,29.4 172.7,20.3 172.7,11.1 C172.7,10.8 172.7,10.5 172.7,10.1 C170.5,10.3 168.4,9.7 166.2,10.5 C166.2,7.5 166.2,4.4 166.2,1.3 C174.2,1.3 182.3,1.3 190.3,1.3 C190.3,4.4 190.3,7.4 190.3,10.6 C189.2,9.8 188,10.2 186.8,10.1 C185.9,10.1 184.9,10.1 183.9,10.1 C183.9,10.4 183.9,10.7 183.9,11 C183.9,20.2 183.9,29.4 183.9,38.6 C183.9,39.2 184.1,39.9 184.2,40.5 C180.3,40.5 176.2,40.5 172.4,40.5 Z" id="Path" fill="#525252"></path>
    <path d="M127.8,31.7 C130.2,31.7 132.4,31.7 134.6,31.7 C135,31.7 135.4,31.5 135.8,31.3 C135.8,34.3 135.8,37.4 135.8,40.5 C129.2,40.5 122.7,40.5 116.3,40.5 C116.4,39.9 116.6,39.2 116.6,38.6 C116.6,26.8 116.6,14.9 116.6,3.1 C116.6,2.5 116.4,2 116.3,1.4 C120.2,1.4 124.2,1.4 128.1,1.4 C128,2.1 127.8,2.8 127.8,3.6 C127.8,12.7 127.8,21.8 127.8,30.8 C127.8,31 127.8,31.3 127.8,31.7 Z" id="Path" fill="#525252"></path>
    <path d="M187.3,35 C187.3,31.6 190,28.8 193.5,28.8 C196.9,28.8 199.7,31.6 199.7,35 C199.7,38.4 197,41.2 193.5,41.2 C190.1,41.3 187.3,38.5 187.3,35 Z" id="Path" fill="#525252"></path>
    <path d="M192.2,4.3 C192.2,2.2 193.9,0.5 196.1,0.5 C198.2,0.5 200,2.3 200,4.4 C200,6.5 198.2,8.3 196.1,8.3 C193.9,8.2 192.2,6.5 192.2,4.3 Z M196.1,7.8 C198,7.8 199.6,6.2 199.6,4.3 C199.6,2.4 198,0.8 196.1,0.8 C194.1,0.8 192.6,2.3 192.5,4.3 C192.6,6.2 194.2,7.8 196.1,7.8 Z" id="Shape" fill="#525252"></path>
    <path d="M195.1,4.7 C195.1,5.2 195.1,5.6 195.1,6 C195.1,6.2 194.9,6.3 194.8,6.4 C194.7,6.3 194.5,6.1 194.5,6 C194.5,4.7 194.5,3.4 194.5,2.1 C195.3,2.1 196,2.1 196.7,2.1 C197.3,2.1 197.7,2.4 197.8,3 C197.9,3.6 197.7,4.1 197.1,4.4 C197,4.4 196.9,4.5 196.8,4.5 C197.2,5.1 197.5,5.7 197.9,6.2 C197.9,6.3 197.8,6.3 197.8,6.4 C197.6,6.3 197.3,6.2 197.1,6 C196.9,5.8 196.7,5.4 196.6,5.1 C196.1,4.5 196.1,4.5 195.1,4.7 Z M195.2,4 C195.8,4 196.3,4.1 196.7,4 C197,3.9 197.3,3.5 197.3,3.3 C197.3,3.1 197,2.7 196.7,2.7 C196.2,2.6 195.7,2.7 195.2,2.7 C195.2,3.1 195.2,3.6 195.2,4 Z" id="Shape" fill="#525252"></path>
</svg>
