<?xml version="1.0" encoding="utf-8"?>
<!-- Generator: Adobe Illustrator 23.0.4, SVG Export Plug-In . SVG Version: 6.00 Build 0)  -->
<svg version="1.1" id="Layer_1" xmlns="http://www.w3.org/2000/svg" xmlns:xlink="http://www.w3.org/1999/xlink" x="0px" y="0px"
	 viewBox="0 0 250 250" style="enable-background:new 0 0 250 250;" xml:space="preserve">
<style type="text/css">
	.st0{fill:#525252;}
</style>
<g id="_x31_yueEu.tif">
	<g>
		<path class="st0" d="M178,105.3c3.9,0,7.9,0,11.8,0c-0.1,0.8-0.2,1.7-0.2,2.5c0,8.4,0,16.8,0,25.2c0,2.5-0.5,4.9-1.9,7
			c-1.7,2.7-4.2,4.2-7.2,5c-3.2,0.8-6.3,0.8-9.5,0.1c-5.9-1.3-9.3-5.6-9.4-11.8c0-6.3,0-12.5,0-18.8c0-2.4,0-4.8,0-7.1
			c0-0.6-0.2-1.3-0.3-2c3.9,0,7.9,0,12,0c-0.7,0.9-0.5,2-0.5,3c0,8,0,16,0,24c0,0.8,0,1.5,0.2,2.3c0.3,1.3,1.2,2.1,2.5,2.1
			c1.2,0,2.2-0.7,2.6-2c0.2-0.7,0.2-1.4,0.2-2.1c0-8.5,0-17.1,0-25.6C178.3,106.5,178.1,105.9,178,105.3z"/>
		<path class="st0" d="M57.2,105.3c0.1,0,0.3,0,0.5,0c3.8,0,7.6,0,11.4,0c2.6,0,5.1,0.3,7.5,1.2c7.6,2.6,7.6,11.6,4.2,15.3
			c-1.1,1.2-2.4,2-4.1,2.5c0.2,0,0.3,0.1,0.5,0.1c4,0.8,6.9,4,7.3,8.2c0.3,3.8-0.7,7.2-3.9,9.6c-2.3,1.6-4.9,2.3-7.6,2.4
			c-5.1,0.1-10.3,0-15.4,0.1c-0.1,0-0.1,0-0.1,0c0.1-12.5,0-24.9,0.1-37.3C57.5,106.6,57.3,106,57.2,105.3z M68.4,136.5
			c2.1,0.3,4.1-0.4,4.9-1.8c0.9-1.5,0.8-3.8-0.2-5.1c-0.9-1.2-3.1-1.9-4.6-1.5C68.4,130.9,68.4,133.7,68.4,136.5z M68.4,120.9
			c1.8,0.1,3.4-0.2,4.3-1.8c0.8-1.4,0.9-3-0.1-4.4s-2.5-1.6-4.1-1.5C68.4,115.8,68.4,118.3,68.4,120.9z"/>
		<path class="st0" d="M139.6,125c0,4-0.4,7.9-1.9,11.6c-1.6,4-4.2,7.1-8.5,8.3c-4.2,1.2-8.3,1-12.2-1.3c-3.1-1.9-4.9-4.8-5.9-8.2
			c-1.5-4.6-1.6-9.4-1.2-14.1c0.2-2.7,0.7-5.3,1.7-7.8c2.3-5.9,7.1-9,13.5-8.8c6.7,0.2,11.1,3.7,13.1,10.2
			C139.3,118.1,139.6,121.5,139.6,125z M128.3,125c-0.1,0-0.2,0-0.3,0c0-1.7,0.1-3.5,0-5.2c-0.1-1.7-0.3-3.5-1.1-5
			c-0.5-0.9-1.1-1.6-2.2-1.6c-1,0-1.8,0.6-2.2,1.5c-0.4,0.9-0.7,1.9-0.9,2.9c-0.6,4.7-0.5,9.4-0.1,14.2c0.1,1.3,0.4,2.7,1.2,3.8
			c1,1.6,3,1.6,4,0c0.4-0.7,0.8-1.5,0.9-2.3C127.9,130.5,128.1,127.8,128.3,125z"/>
		<path class="st0" d="M34.4,105.3c4.4,0,9,0,13.6,0c-0.5,0.8-0.4,1.6-0.2,2.4c2.7,11.5,5.3,22.9,8,34.4c0.2,0.8,0.5,1.6,0.8,2.4
			c-3.9,0-7.9,0-11.9,0c0.8-0.7,0.6-1.6,0.4-2.4c-0.2-1.1-0.4-2.2-0.5-3.3c-0.1-0.5-0.2-0.7-0.7-0.7c-1.8,0-3.7,0-5.5,0
			c-0.5,0-0.6,0.1-0.7,0.6c-0.2,1.2-0.4,2.4-0.6,3.6c-0.1,0.7-0.2,1.4,0.5,2.1c-4.3,0-8.4,0-12.6,0c1.5-1.8,1.7-3.9,2.2-6
			c2.4-10.3,4.8-20.7,7.1-31C34.5,106.9,34.4,106.1,34.4,105.3z M43.3,131c-0.7-5.1-1.5-10.1-2.2-15.1c-0.1,0-0.1,0-0.2,0
			c-0.7,5-1.5,10-2.2,15.1C40.3,131,41.8,131,43.3,131z"/>
		<path class="st0" d="M106.3,105.9c0,3.4,0,6.7,0,10.2c-0.4-0.2-0.7-0.4-1-0.6c-1.9-1.1-3.9-2-6.1-2.2c-1.7-0.1-2.7,0.5-3,1.9
			c-0.2,0.8,0.1,1.5,0.7,2c0.8,0.8,1.8,1.5,2.7,2.3c2.1,1.8,4.2,3.5,6.2,5.5c4.7,4.7,4.2,11.7,1.6,15.5c-1.9,2.8-4.7,4.3-7.9,4.8
			c-3.6,0.6-6.9,0-10.2-1.5c-0.4-0.2-0.7-0.3-1.1-0.5c-1.1-0.5-1.1-0.5-2.3-0.2c0-3.8,0-7.5,0-11.4c0.8,0.6,1.6,1.3,2.4,1.8
			c1.8,1.3,3.7,2.4,5.9,2.8c0.6,0.1,1.1,0.1,1.7,0.1c1.8-0.1,2.8-1.6,2.2-3.2c-0.3-0.9-0.9-1.8-1.7-2.5c-2-1.8-4.2-3.6-6.3-5.3
			c-2.4-2-4-4.4-4.4-7.6c-1.1-7.3,4.3-13.7,12.6-13.3c2,0.1,3.9,0.6,5.7,1.3C104.7,106.2,105.5,106.5,106.3,105.9z"/>
		<path class="st0" d="M197.4,144.5c0.1-0.7,0.3-1.3,0.3-1.9c0-9.2,0-18.3,0-27.5c0-0.3,0-0.6,0-1c-2.2,0.2-4.3-0.4-6.5,0.4
			c0-3,0-6.1,0-9.2c8,0,16.1,0,24.1,0c0,3.1,0,6.1,0,9.3c-1.1-0.8-2.3-0.4-3.5-0.5c-0.9,0-1.9,0-2.9,0c0,0.3,0,0.6,0,0.9
			c0,9.2,0,18.4,0,27.6c0,0.6,0.2,1.3,0.3,1.9C205.3,144.5,201.2,144.5,197.4,144.5z"/>
		<path class="st0" d="M152.8,135.7c2.4,0,4.6,0,6.8,0c0.4,0,0.8-0.2,1.2-0.4c0,3,0,6.1,0,9.2c-6.6,0-13.1,0-19.5,0
			c0.1-0.6,0.3-1.3,0.3-1.9c0-11.8,0-23.7,0-35.5c0-0.6-0.2-1.1-0.3-1.7c3.9,0,7.9,0,11.8,0c-0.1,0.7-0.3,1.4-0.3,2.2
			c0,9.1,0,18.2,0,27.2C152.8,135,152.8,135.3,152.8,135.7z"/>
		<path class="st0" d="M212.3,139c0-3.4,2.7-6.2,6.2-6.2c3.4,0,6.2,2.8,6.2,6.2s-2.7,6.2-6.2,6.2C215.1,145.3,212.3,142.5,212.3,139
			z"/>
		<path class="st0" d="M217.2,108.3c0-2.1,1.7-3.8,3.9-3.8c2.1,0,3.9,1.8,3.9,3.9s-1.8,3.9-3.9,3.9
			C218.9,112.2,217.2,110.5,217.2,108.3z M221.1,111.8c1.9,0,3.5-1.6,3.5-3.5s-1.6-3.5-3.5-3.5c-2,0-3.5,1.5-3.6,3.5
			C217.6,110.2,219.2,111.8,221.1,111.8z"/>
		<path class="st0" d="M220.1,108.7c0,0.5,0,0.9,0,1.3c0,0.2-0.2,0.3-0.3,0.4c-0.1-0.1-0.3-0.3-0.3-0.4c0-1.3,0-2.6,0-3.9
			c0.8,0,1.5,0,2.2,0c0.6,0,1,0.3,1.1,0.9s-0.1,1.1-0.7,1.4c-0.1,0-0.2,0.1-0.3,0.1c0.4,0.6,0.7,1.2,1.1,1.7c0,0.1-0.1,0.1-0.1,0.2
			c-0.2-0.1-0.5-0.2-0.7-0.4c-0.2-0.2-0.4-0.6-0.5-0.9C221.1,108.5,221.1,108.5,220.1,108.7z M220.2,108c0.6,0,1.1,0.1,1.5,0
			c0.3-0.1,0.6-0.5,0.6-0.7s-0.3-0.6-0.6-0.6c-0.5-0.1-1,0-1.5,0C220.2,107.1,220.2,107.6,220.2,108z"/>
	</g>
</g>
</svg>
