<svg width="172" height="24" xmlns="http://www.w3.org/2000/svg"><defs><filter id="a"></filter></defs><g transform="translate(-930 -332)" fill="#000000" fill-rule="evenodd"><g fill="#000000" fill-rule="nonzero"><path fill="#000000" d="M956.278 337.944a5.122 5.122 0 00-5.121 5.123 5.126 5.126 0 005.12 5.124 5.112 5.112 0 003.467-1.365c.354.928.84 1.799 1.444 2.587a7.983 7.983 0 01-4.91 1.695c-4.439 0-8.031-3.6-8.031-8.04 0-4.44 3.592-8.043 8.03-8.043 1.852 0 3.553.64 4.911 1.695a10.335 10.335 0 00-1.444 2.586 5.1 5.1 0 00-3.466-1.362zm-16.596-5.85c.525 0 .968.314 1.173.758l7.949 17.646h-3.168l-1.135-2.526h-9.616l-1.153 2.526h-3.167l7.955-17.646c.206-.458.66-.754 1.161-.757zm3.538 13.047l-3.538-7.848-3.534 7.848h7.072zm34.482-2.083c0 1.314-.29 2.528-.82 3.593l4.033 3.817h-4.402l-1.525-1.444c-1.384 1.128-3.24 1.799-5.425 1.799-4.9 0-7.936-4.172-7.936-7.764 0-4.374 3.51-7.946 7.864-8.042h.027c.13.006.159.078.109.195-.26.579-1 2.072-2.3 3.091-1.641 1.295-2.641 2.834-2.641 4.755 0 2.445 1.913 5.114 5.044 5.114 3.126 0 5.036-2.669 5.036-5.114 0-1.921-.995-3.46-2.637-4.755-1.273-1.002-2-2.465-2.282-3.06-.008-.017-.017-.035-.022-.05-.054-.103-.01-.176.132-.17a.341.341 0 00.05.002c4.27.182 7.695 3.624 7.695 8.033zm39.95-7.728v15.12h-2.991v-2.088l-.563.523c-1.428 1.34-2.98 2.019-4.614 2.019-2.068 0-3.81-.756-5.158-2.256-1.352-1.54-2.036-3.489-2.036-5.808 0-2.265.683-4.186 2.036-5.69 1.34-1.502 3.045-2.26 5.064-2.26 1.732 0 3.31.73 4.696 2.17l.575.597v-2.328l2.99.001zm-4.095 11.483c.882-1.028 1.33-2.332 1.33-3.89 0-1.556-.444-2.86-1.331-3.883-.89-1.009-2.068-1.527-3.484-1.527-1.348 0-2.493.522-3.392 1.54-.888 1.026-1.33 2.298-1.33 3.787 0 1.59.434 2.908 1.288 3.918.896 1.033 2.04 1.558 3.4 1.558 1.44 0 2.623-.511 3.519-1.503zm-16.453 3.685V335.33h3.026v15.168h-3.026zm-5.86-15.168h3.05v7.61c0 4.622-3.04 7.987-7.221 7.987-4.153 0-7.176-3.365-7.176-7.986v-7.602h3.04v7.602c0 3.13 1.592 5.077 4.159 5.077 2.566 0 4.158-1.947 4.158-5.078l-.01-7.61zM1023.328 350.47v-18.33h11.611v1.43h-10.046v6.787h9.854v1.429h-9.854v7.255h10.046v1.429zM1045.78 350.47v-8.986c0-2.556-1.29-3.326-3.21-3.326-1.703 0-3.46 1.073-4.31 2.282v10.03h-1.428v-13.273h1.428v2.006c.96-1.154 2.854-2.336 4.776-2.336 2.69 0 4.172 1.319 4.172 4.315v9.288h-1.427zM1049.76 353.85l.823-1.1c1.153 1.374 2.416 1.87 4.391 1.87 2.416 0 4.53-1.21 4.53-4.26v-2.089c-.934 1.347-2.635 2.474-4.611 2.474-3.514 0-5.93-2.666-5.93-6.925 0-4.205 2.416-6.953 5.93-6.953 1.894 0 3.54.962 4.611 2.473v-2.143h1.455v13.135c0 4.068-2.745 5.524-5.985 5.524-2.223 0-3.65-.412-5.215-2.006zm9.744-6.815v-6.458c-.768-1.292-2.525-2.418-4.364-2.418-2.938 0-4.639 2.446-4.639 5.661 0 3.215 1.701 5.633 4.639 5.633 1.839 0 3.596-1.127 4.364-2.418zM1071.883 350.47v-1.567c-1.181 1.292-2.662 1.896-4.502 1.896-2.278 0-4.639-1.566-4.639-4.424 0-2.886 2.334-4.396 4.639-4.396 1.84 0 3.349.604 4.502 1.896v-2.693c0-1.979-1.592-3.05-3.569-3.05-1.647 0-2.936.577-4.144 1.95l-.796-.989c1.372-1.484 2.909-2.226 5.105-2.226 2.69 0 4.831 1.292 4.831 4.26v9.343h-1.427zm0-2.61v-2.913c-.934-1.21-2.416-1.842-4.008-1.842-2.196 0-3.623 1.401-3.623 3.298 0 1.868 1.427 3.27 3.623 3.27 1.592 0 3.074-.604 4.008-1.814zM1075.861 353.85l.824-1.1c1.153 1.374 2.416 1.87 4.392 1.87 2.416 0 4.53-1.21 4.53-4.26v-2.089c-.935 1.347-2.636 2.474-4.613 2.474-3.513 0-5.928-2.666-5.928-6.925 0-4.205 2.415-6.953 5.928-6.953 1.895 0 3.542.962 4.612 2.473v-2.143h1.455v13.135c0 4.068-2.745 5.524-5.984 5.524-2.224 0-3.65-.412-5.216-2.006zm9.745-6.815v-6.458c-.768-1.292-2.525-2.418-4.365-2.418-2.936 0-4.638 2.446-4.638 5.661 0 3.215 1.702 5.633 4.638 5.633 1.84 0 3.597-1.127 4.365-2.418zM1088.788 343.82c0-3.847 2.718-6.953 6.396-6.953 4.035 0 6.258 3.215 6.258 7.035v.384h-11.089c.138 2.886 2.06 5.277 5.188 5.277 1.675 0 3.211-.632 4.337-1.842l.741.935c-1.317 1.374-2.992 2.144-5.187 2.144-3.87 0-6.643-2.886-6.643-6.98zm6.37-5.716c-3.13 0-4.695 2.748-4.804 5.057h9.634c-.027-2.254-1.51-5.057-4.83-5.057z"/></g></g></svg>