
<svg xmlns="http://www.w3.org/2000/svg" viewBox="0 0 300 113.9" width="2500" height="949"><path fill="#525252" d="M89.4 24c4.4 0 8.6 1.7 11.3 4.4 1-3.1 2.7-5.8 4.8-8.6-4.4-3.4-9.9-5.5-16.1-5.5C75 14.4 63 26.1 63 40.8c0 14.4 11.6 26.3 26.3 26.3 6.2 0 11.6-2.1 16.1-5.5-2.1-2.7-3.4-5.5-4.8-8.6-3.1 2.7-6.8 4.4-11.3 4.4-9.2 0-16.8-7.5-16.8-16.8.1-9.1 7.6-16.6 16.9-16.6zM35 4.8c-1.7 0-3.1 1-3.8 2.4L5.2 65h10.3l3.8-8.2h31.5l3.8 8.2h10.3L39.1 7.6c-.7-1.7-2.4-2.8-4.1-2.8zM23.7 47.6l11.6-25.7L47 47.6H23.7zM159.5 40.8c0-14.4-11.3-25.7-25.3-26.3-.3 0-.7.3-.3.7 1 2.1 3.4 6.8 7.5 9.9 5.5 4.1 8.6 9.2 8.6 15.4 0 7.9-6.2 16.8-16.4 16.8-10.3 0-16.4-8.9-16.4-16.8 0-6.2 3.4-11.3 8.6-15.4 4.1-3.4 6.8-8.2 7.5-10.3.3-.3 0-.7-.3-.7-14.4.3-25.7 12-25.7 26.3 0 11.6 9.9 25.3 26 25.3 7.2 0 13.3-2.1 17.8-5.8l5.1 4.8h14.4L157.1 52c1.4-3 2.4-6.8 2.4-11.2zM223.1 15.4h9.9V65h-9.9zM203.9 40.4c0 10.3-5.1 16.8-13.7 16.8s-13.7-6.5-13.7-16.8v-25h-9.9v25c0 15 9.9 26 23.6 26 13.7 0 23.6-10.9 23.6-26v-25h-9.9v25zM280.6 23.3l-2.1-2.1c-4.4-4.8-9.6-7.2-15.4-7.2-6.5 0-12.3 2.4-16.4 7.5-4.4 4.8-6.5 11.3-6.5 18.5 0 7.5 2.4 14 6.5 18.8 4.4 4.8 10.3 7.5 16.8 7.5 5.5 0 10.3-2.4 15-6.5l1.7-1.7V65h9.9V15.4h-9.9v7.9h.4zm-3.8 29.8c-3.1 3.4-6.8 4.8-11.6 4.8-4.4 0-8.2-1.7-10.9-5.1-2.7-3.4-4.1-7.5-4.1-12.7 0-4.8 1.4-8.9 4.4-12.3s6.8-5.1 10.9-5.1c4.8 0 8.6 1.7 11.3 5.1s4.4 7.5 4.4 12.7c0 5-1.3 9.2-4.4 12.6z"/></svg>
