<svg version="1.1" id="Layer_1" xmlns="http://www.w3.org/2000/svg" x="0" y="0" viewBox="0 0 172 24" xml:space="preserve"><style>.st0{fill:#282829}</style><g id="Concept-01"><g id="Desktop---About" transform="translate(-759 -4435)"><g id="Acquia-Engage-Logo" transform="translate(759 4435)"><g id="logo"><path id="f44na" class="st0" d="M26.3 5.9c-2.8 0-5.1 2.3-5.1 5.1s2.3 5.1 5.1 5.1c1.3 0 2.6-.5 3.5-1.4.4.9.8 1.8 1.4 2.6-1.4 1.1-3.1 1.7-4.9 1.7-4.4 0-8-3.6-8-8s3.6-8 8-8c1.9 0 3.6.6 4.9 1.7-.6.8-1.1 1.7-1.4 2.6-1-.9-2.2-1.4-3.5-1.4zM9.7.1c.5 0 1 .3 1.2.8l7.9 17.6h-3.2L14.5 16H4.9l-1.2 2.5H.6L8.6.9c.1-.5.6-.8 1.1-.8zm3.5 13L9.7 5.3l-3.5 7.8h7zm34.5-2c0 1.3-.3 2.5-.8 3.6l4 3.8h-4.4L45 17c-1.4 1.1-3.2 1.8-5.4 1.8-4.9 0-7.9-4.2-7.9-7.8 0-4.4 3.5-7.9 7.9-8 .1 0 .2.1.1.2-.3.6-1 2.1-2.3 3.1-1.6 1.3-2.6 2.8-2.6 4.8 0 2.4 1.9 5.1 5 5.1s5-2.7 5-5.1c0-1.9-1-3.5-2.6-4.8-1.3-1-2-2.5-2.3-3.1-.1-.1-.1-.2.1-.2 4.3.2 7.7 3.6 7.7 8.1zm40-7.8v15.1h-3v-2.1l-.6.5c-1.4 1.3-3 2-4.6 2-2.1 0-3.8-.8-5.2-2.3-1.4-1.5-2-3.5-2-5.8s.7-4.2 2-5.7 3-2.3 5.1-2.3c1.7 0 3.3.7 4.7 2.2l.6.6V3.3h3zm-4.1 11.5c.9-1 1.3-2.3 1.3-3.9S84.5 8 83.6 7s-2.1-1.5-3.5-1.5c-1.3 0-2.5.5-3.4 1.5-.9 1-1.3 2.3-1.3 3.8 0 1.6.4 2.9 1.3 3.9s2 1.6 3.4 1.6 2.6-.5 3.5-1.5zm-16.5 3.7V3.3h3v15.2h-3zM61.2 3.3h3.1v7.6c0 4.6-3 8-7.2 8s-7.2-3.4-7.2-8V3.3h3v7.6c0 3.1 1.6 5.1 4.2 5.1s4.2-1.9 4.2-5.1l-.1-7.6z"/><path id="f44nb" class="st0" d="M93.3 18.5V.1h11.6v1.5h-10v6.8h9.8v1.4h-9.8V17h10v1.5z"/><path id="f44nc" class="st0" d="M115.8 18.5v-9c0-2.6-1.3-3.3-3.2-3.3-1.7 0-3.5 1.1-4.3 2.3v10h-1.4V5.2h1.4v2c1-1.2 2.9-2.3 4.8-2.3 2.7 0 4.2 1.3 4.2 4.3v9.3h-1.5z"/><path id="f44nd" class="st0" d="M119.8 21.8l.8-1.1c1.2 1.4 2.4 1.9 4.4 1.9 2.4 0 4.5-1.2 4.5-4.3v-2.1c-.9 1.3-2.6 2.5-4.6 2.5-3.5 0-5.9-2.7-5.9-6.9s2.4-7 5.9-7c1.9 0 3.5 1 4.6 2.5V5.2h1.5v13.1c0 4.1-2.7 5.5-6 5.5-2.2.1-3.7-.4-5.2-2zm9.7-6.8V8.6c-.8-1.3-2.5-2.4-4.4-2.4-2.9 0-4.6 2.4-4.6 5.7 0 3.2 1.7 5.6 4.6 5.6 1.9 0 3.6-1.2 4.4-2.5z"/><path id="f44ne" class="st0" d="M141.9 18.5v-1.6c-1.2 1.3-2.7 1.9-4.5 1.9-2.3 0-4.6-1.6-4.6-4.4 0-2.9 2.3-4.4 4.6-4.4 1.8 0 3.3.6 4.5 1.9V9.2c0-2-1.6-3.1-3.6-3.1-1.6 0-2.9.6-4.1 1.9l-.8-1c1.4-1.5 2.9-2.2 5.1-2.2 2.7 0 4.8 1.3 4.8 4.3v9.3h-1.4zm0-2.6V13c-.9-1.2-2.4-1.8-4-1.8-2.2 0-3.6 1.4-3.6 3.3s1.4 3.3 3.6 3.3c1.6-.1 3-.7 4-1.9z"/><path id="f44nf" class="st0" d="M145.9 21.8l.8-1.1c1.2 1.4 2.4 1.9 4.4 1.9 2.4 0 4.5-1.2 4.5-4.3v-2.1c-.9 1.3-2.6 2.5-4.6 2.5-3.5 0-5.9-2.7-5.9-6.9s2.4-7 5.9-7c1.9 0 3.5 1 4.6 2.5V5.2h1.5v13.1c0 4.1-2.7 5.5-6 5.5-2.2.1-3.7-.4-5.2-2zm9.7-6.8V8.6c-.8-1.3-2.5-2.4-4.4-2.4-2.9 0-4.6 2.4-4.6 5.7 0 3.2 1.7 5.6 4.6 5.6 1.9 0 3.6-1.2 4.4-2.5z"/><path id="f44ng" class="st0" d="M158.8 11.8c0-3.8 2.7-7 6.4-7 4 0 6.3 3.2 6.3 7v.4h-11.1c.1 2.9 2.1 5.3 5.2 5.3 1.7 0 3.2-.6 4.3-1.8l.7.9c-1.3 1.4-3 2.1-5.2 2.1-3.8.1-6.6-2.8-6.6-6.9zm6.4-5.7c-3.1 0-4.7 2.7-4.8 5.1h9.6c0-2.3-1.5-5.1-4.8-5.1z"/></g></g></g></g></svg>