<?xml version="1.0" encoding="UTF-8"?>
<svg viewBox="0 0 140 46" version="1.1" xmlns="http://www.w3.org/2000/svg" xmlns:xlink="http://www.w3.org/1999/xlink">
    <path fill="#525252" d="M20.7004896,24.6363089 C20.6010923,22.706629 20.5449341,21.0954426 20.4268173,19.4887382 C20.3424482,18.3426365 20.125725,17.2141996 19.6841055,16.1408663 C19.1763089,14.9059134 18.3531827,13.9860264 17.0351789,13.6240301 C15.4862147,13.1987571 13.9451601,13.2841808 12.5137853,14.02742 C9.65499058,15.5120527 8.23758945,17.9751036 8.00109228,21.120226 C7.89246704,22.56742 7.96760829,24.0293785 7.97578154,25.4844821 C7.98158192,26.4955932 7.95389831,27.5127684 8.04934087,28.5167608 C8.22572505,30.3752542 9.01853107,31.9529567 10.4601883,33.1639171 C12.2496045,34.6670056 14.3174388,35.0978154 16.5906591,34.6970621 C18.2369115,34.4070433 19.3374011,33.4745009 19.8618079,31.8938983 C20.0563842,31.3072693 20.2417326,30.6990207 20.2978908,30.0881356 C20.473484,28.1705838 20.5858004,26.2467043 20.7004896,24.6363089 Z M0,1.45536723 C1.47619586,1.45193974 2.95291902,1.46934087 4.42832392,1.43453861 C5.00256121,1.42082863 5.58022599,1.31905838 6.14576271,1.20516008 C6.83178908,1.06700565 7.42052731,0.720037665 7.95943503,0.164783427 C7.95943503,6.08617702 7.95943503,11.9529944 7.95943503,17.8198117 C7.98922787,17.8285122 8.01928437,17.8369492 8.04934087,17.8456497 C8.09389831,17.7515254 8.13977401,17.6581921 8.18301318,17.5635405 C9.15246704,15.4355932 10.6162712,13.7877589 12.8528437,12.9738606 C15.1548023,12.1359699 17.3929567,12.48742 19.5016573,13.6242938 C22.1057627,15.0285122 23.8284746,17.2421469 24.8211299,19.9793974 C26.4615819,24.5026365 25.7175518,28.6852354 22.5687382,32.3138983 C20.31371,34.9127307 17.3259887,36.0013559 13.912467,35.5977024 C11.3223352,35.2916008 9.4480226,33.8016949 8.18854991,31.5329567 C8.14003766,31.4454237 8.09838041,31.3544633 7.9913371,31.2782674 C7.9913371,32.5221846 7.9913371,33.7663653 7.9913371,35.0553672 C5.3047081,35.0553672 2.65235405,35.0553672 0,35.0553672 C0,34.7811676 0,34.506968 0,34.2327684 C1.18775895,34.2327684 2.37551789,34.2327684 3.57962335,34.2327684 C3.57962335,23.5777401 3.57962335,12.9738606 3.57962335,2.34124294 C2.37578154,2.34124294 1.18775895,2.34124294 0,2.34124294 C0,2.04595104 0,1.75065913 0,1.45536723 L0,1.45536723 Z" id="Fill-1"></path>
    <path fill="#525252" d="M117.948023,0 C118.274953,0.105461394 118.611638,0.187457627 118.927232,0.32007533 C120.200151,0.855555556 120.944181,1.96817326 120.846102,3.19152542 C120.769906,4.13883239 120.382599,4.91687382 119.458493,5.28256121 C118.532015,5.6493032 117.606064,5.63875706 116.821695,4.92873823 C116.066328,4.24508475 115.770508,3.37661017 116.054463,2.38316384 C116.148324,2.0546516 116.418305,1.77887006 116.590734,1.46960452 C116.677213,1.31404896 116.821695,1.08651601 116.767119,0.981845574 C116.695405,0.844745763 116.459962,0.742711864 116.282787,0.720564972 C115.727006,0.650960452 115.223164,0.837627119 114.760716,1.13608286 C113.744068,1.79231638 113.027985,2.73145009 112.384934,3.72621469 C111.010772,5.85205273 109.986742,8.14372881 109.217665,10.5522034 C108.910245,11.514275 108.597288,12.4747646 108.287759,13.4360452 C108.256121,13.5343879 108.230282,13.6343126 108.190998,13.7722034 C109.655066,13.7722034 111.091714,13.7722034 112.548927,13.7722034 C112.548927,14.0635405 112.548927,14.3216573 112.548927,14.6137853 C111.007345,14.6137853 109.463126,14.6137853 107.909944,14.6137853 C107.517363,15.7654237 107.131375,16.8888512 106.75145,18.0143879 C105.189303,22.6407156 103.650885,27.2749529 102.060791,31.8912618 C101.057853,34.8022599 99.8708851,37.6349529 98.1471186,40.2129567 C97.2433145,41.5649718 96.3223729,42.8982674 95.08742,43.9800377 C94.0425612,44.8954426 92.8524294,45.4728437 91.4508475,45.5717137 C91.4023352,45.5748776 91.3559322,45.6049341 91.3084746,45.6225989 C90.9288136,45.6225989 90.5491525,45.6225989 90.1694915,45.6225989 C89.8802637,45.5379661 89.5789077,45.4815443 89.3039171,45.3636911 C88.3784934,44.966629 87.732806,44.2998493 87.5168738,43.2982298 C87.3035782,42.3092655 87.7618079,41.3234652 88.60629,40.8380791 C89.4244068,40.3679849 90.620339,40.4713371 91.3406403,41.0745763 C92.0999623,41.7107721 92.1967232,42.973145 91.5365348,43.6858004 C91.4294915,43.8012806 91.2755179,43.8814313 91.1943126,44.0103578 C91.0959699,44.1667043 90.9641431,44.3850094 91.0084369,44.5252731 C91.0537853,44.6689642 91.2945009,44.8408663 91.4505838,44.8416573 C91.8318267,44.8437665 92.2331073,44.8110734 92.5914124,44.6897928 C93.3639171,44.4282486 93.9326177,43.8693032 94.4327684,43.2460264 C95.3305085,42.1273446 95.9044821,40.8349153 96.3105085,39.4789454 C97.3245198,36.0920527 98.3237665,32.699887 99.2768738,29.2953296 C100.539774,24.7847458 101.727006,20.2525424 103.197401,15.8023352 C103.322109,15.4255744 103.445763,15.0480226 103.582863,14.6311864 C101.964294,14.6311864 100.388173,14.6311864 98.793597,14.6311864 C98.793597,14.3430132 98.793597,14.0848964 98.793597,13.7838041 C98.9088136,13.7838041 99.020339,13.7838041 99.1318644,13.7838041 C100.597778,13.7838041 102.063691,13.7753672 103.529341,13.7911864 C103.801431,13.7940866 103.90452,13.6970621 103.993635,13.4555556 C105.247307,10.059435 107.010358,6.96440678 109.496083,4.31205273 C110.873936,2.8419209 112.394162,1.53551789 114.251073,0.704218456 C114.915217,0.406817326 115.651073,0.268926554 116.35371,0.057212806 C116.401431,0.0429755179 116.446516,0.0192467043 116.492655,0 C116.977778,0 117.4629,0 117.948023,0" id="Fill-4"></path>
    <path fill="#525252" d="M139.968362,31.8915254 C139.628512,32.7170245 139.185574,33.4758192 138.530395,34.0943503 C137.21081,35.340113 135.600942,35.7635405 133.843955,35.6586064 C132.977326,35.6069303 132.095669,35.4988324 131.26226,35.2673446 C129.353409,34.7371375 128.311186,33.3439925 128.278493,31.3631638 C128.247646,29.5080979 128.263465,27.6522411 128.262674,25.7966478 C128.261092,22.2120151 128.262147,18.6273823 128.262147,15.0427495 C128.262147,14.9180414 128.262147,14.7930697 128.262147,14.6332957 C126.757213,14.6332957 125.277062,14.6332957 123.777928,14.6332957 C123.777928,14.3411676 123.777928,14.0843691 123.777928,13.8193974 C124.344256,13.7896045 124.900829,13.779322 125.45371,13.727646 C127.017175,13.5815819 128.474915,13.1623729 129.641582,12.0312994 C130.536158,11.1638795 131.072957,10.0852731 131.427571,8.91359699 C131.661959,8.13951036 131.836234,7.34696798 132.042674,6.54256121 C132.204557,6.54256121 132.392015,6.54256121 132.624557,6.54256121 C132.624557,8.94681733 132.624557,11.3521281 132.624557,13.7843315 C135.026441,13.7843315 137.383239,13.7843315 139.764557,13.7843315 C139.764557,14.0674953 139.764557,14.3240301 139.764557,14.6227495 C137.404331,14.6227495 135.040151,14.6227495 132.638795,14.6227495 C132.638795,14.7769868 132.638795,14.8898305 132.638795,15.0024105 C132.638795,20.7273823 132.637213,26.452354 132.643277,32.1770621 C132.64354,32.4908098 132.683352,32.8093032 132.746629,33.1169868 C132.963352,34.1734463 133.621959,34.7184181 134.69951,34.806742 C136.652655,34.966516 137.937966,34.007081 138.835706,32.3790207 C138.906629,32.2500942 138.967533,32.1156309 139.030019,31.9822222 C139.091977,31.8503955 139.150245,31.7164595 139.215367,31.5719774 C139.474275,31.6165348 139.721318,31.6592467 139.968362,31.7016949 C139.968362,31.7649718 139.968362,31.8282486 139.968362,31.8915254" id="Fill-5"></path>
    <path fill="#525252" d="M72.2518644,34.2019209 C73.6349906,34.2019209 74.9622222,34.2019209 76.3166102,34.2019209 C76.3166102,34.4882486 76.3166102,34.7545386 76.3166102,35.0384934 C72.1508851,35.0384934 67.9899058,35.0384934 63.8059887,35.0384934 C63.8059887,34.772467 63.8059887,34.5051224 63.8059887,34.2016573 C65.1529944,34.2016573 66.4986817,34.2016573 67.8854991,34.2016573 C67.8854991,34.0537476 67.8854991,33.940904 67.8854991,33.8283239 C67.8854991,28.3129567 67.8897175,22.7973258 67.8781168,17.2816949 C67.8773258,16.7907721 67.8219586,16.2890395 67.7114878,15.8110358 C67.332354,14.1700565 66.1701695,13.3727684 64.4883239,13.4956309 C62.32742,13.653823 60.7180791,14.7640678 59.3787194,16.3668173 C58.5906591,17.3101695 57.9760829,18.3661017 57.406855,19.4497175 C57.3557062,19.5470056 57.3319774,19.6698682 57.3319774,19.7808663 C57.3282863,24.5055367 57.3288136,29.2299435 57.3298682,33.9546139 C57.3298682,34.026064 57.3417326,34.0975141 57.3506968,34.1963842 C58.6457627,34.1963842 59.9284369,34.1963842 61.2366855,34.1963842 C61.2366855,34.4898305 61.2366855,34.7550659 61.2366855,35.0382298 C57.1247458,35.0382298 53.0159699,35.0382298 48.8837288,35.0382298 C48.8837288,34.7790584 48.8837288,34.5209416 48.8837288,34.2219586 C48.993936,34.2153672 49.114162,34.2019209 49.2346516,34.2016573 C50.373371,34.2000753 51.5126177,34.1950659 52.6513371,34.2053484 C52.8833522,34.207194 52.9574388,34.1441808 52.9571751,33.9037288 C52.9508475,27.5654991 52.9521657,21.2272693 52.9513748,14.8893032 C52.9513748,14.8170621 52.9421469,14.7450847 52.9345009,14.633823 C51.5824859,14.633823 50.239435,14.633823 48.8787194,14.633823 C48.8787194,14.3453861 48.8787194,14.0962335 48.8787194,13.8085876 C48.9852354,13.8041055 49.0959699,13.7951412 49.2067043,13.7948776 C50.8835405,13.7903955 52.560113,13.7911864 54.2369492,13.7806403 C54.6047458,13.7782674 54.9754426,13.7574388 55.3398117,13.7078719 C56.2111864,13.5892279 56.4566478,13.4526554 57.3230132,12.6714501 C57.3230132,14.4350282 57.3230132,16.1622222 57.3230132,17.8891525 C57.3491149,17.8983804 57.3754802,17.9073446 57.4018456,17.9163089 C57.4585311,17.8261394 57.5178531,17.7372881 57.5713748,17.6450094 C58.259774,16.459096 59.1021469,15.4018456 60.1575518,14.5188701 C61.9068927,13.0555932 63.9204143,12.4708098 66.1820339,12.6783051 C67.2901695,12.7798117 68.3735217,12.9635782 69.385951,13.4555556 C71.1173635,14.2968738 71.9839925,15.726403 72.1943879,17.5946516 C72.2415819,18.0122787 72.2492279,18.4359699 72.2494915,18.8567608 C72.2531827,23.8239925 72.2518644,28.7909605 72.2518644,33.7581921 C72.2518644,33.8926554 72.2518644,34.026855 72.2518644,34.2019209" id="Fill-6"></path>
    <path fill="#525252" d="M81.2036911,21.3137476 C81.3484369,21.3137476 81.4615443,21.3137476 81.5749153,21.3137476 C82.3445198,21.3137476 83.1138606,21.3137476 83.8834652,21.3137476 C85.8020716,21.3137476 87.7209416,21.3148023 89.639548,21.312693 C90.1099058,21.3124294 90.2027119,21.2227872 90.1990207,20.7637665 C90.1940113,20.1106968 90.2000753,19.4563089 90.1621092,18.8050847 C90.1033145,17.7918644 89.9422222,16.7949906 89.5325047,15.8550659 C89.0676836,14.7893785 88.3423729,13.9804896 87.1894162,13.672806 C85.2096422,13.1447081 82.692806,13.6279849 81.6975141,16.4791337 C81.1541243,18.0352166 81.1749529,19.6448211 81.2036911,21.3137476 Z M94.8198117,27.673597 C95.0982298,27.673597 95.3484369,27.673597 95.6447834,27.673597 C95.6112994,27.8689642 95.5894162,28.0514124 95.5480226,28.2291149 C94.9083992,30.973484 93.5028625,33.1749906 90.9936723,34.5705085 C89.4233522,35.4439925 87.7201507,35.7529944 85.9362712,35.6562335 C83.5014313,35.5244068 81.3558192,34.6888889 79.580904,32.992806 C78.0018832,31.4839171 77.0493032,29.6146139 76.5741996,27.5035405 C75.5288136,22.8561205 76.7205273,18.8029755 79.9508098,15.3533333 C81.292806,13.9203766 82.9477589,12.9709605 84.9362335,12.7154802 C86.946855,12.4570998 88.8029755,12.9145386 90.4473823,14.0809416 C92.8914501,15.8141996 94.4683616,18.1644068 95.1180038,21.092806 C95.3697928,22.2270433 95.0697552,22.1503202 94.2656121,22.1495292 C90.0482109,22.1439925 85.8310734,22.1468927 81.613936,22.1468927 C81.4889642,22.1468927 81.3637288,22.1468927 81.1947269,22.1468927 C81.1947269,22.280565 81.1947269,22.392354 81.1947269,22.5041431 C81.1947269,24.3491902 81.1778531,26.1942373 81.200791,28.0390207 C81.2158192,29.252354 81.34,30.4556685 81.7391714,31.6162712 C82.4019962,33.5438418 83.7524294,34.6184934 85.7709605,34.7859134 C88.2632768,34.9928814 90.4895669,34.3218832 92.3222222,32.5664783 C93.6004143,31.3420716 94.3528814,29.819209 94.7280603,28.1007156 C94.7573258,27.9675706 94.7852731,27.834162 94.8198117,27.673597 L94.8198117,27.673597 Z" id="Fill-7"></path>
    <path fill="#525252" d="M33.7592467,21.2955556 C33.8654991,21.3021469 33.9575141,21.3129567 34.0495292,21.3129567 C36.759096,21.3137476 39.4683992,21.3137476 42.1777024,21.3132203 C42.2515254,21.3132203 42.3256121,21.3116384 42.3986441,21.3037288 C42.6216949,21.279209 42.7387571,21.1558192 42.7411299,20.9282863 C42.7553672,19.5151036 42.7556309,18.1037665 42.3867797,16.7222222 C41.8497175,14.7100188 40.6949153,13.6467043 38.747307,13.5093409 C36.8635028,13.3764595 35.3045198,14.1249718 34.4502825,15.9795104 C33.9846704,16.9908851 33.8040678,18.0684369 33.7639925,19.1697175 C33.7384181,19.8712994 33.7592467,20.5747269 33.7592467,21.2955556 Z M33.7370998,22.1468927 C33.7370998,22.872467 33.7320904,23.5461017 33.7381544,24.2197363 C33.7526554,25.8108851 33.7363089,27.4033522 33.8011676,28.9926554 C33.8549529,30.3164595 34.1109605,31.6099435 34.8262524,32.7621092 C35.6158945,34.03371 36.812354,34.6617326 38.2627119,34.7811676 C40.9759699,35.0050094 43.3451601,34.2322411 45.2244821,32.1963089 C46.3558192,30.9708475 46.9993974,29.4983427 47.3223729,27.8755556 C47.3326554,27.8241431 47.3442561,27.7729944 47.3566478,27.7221092 C47.3590207,27.713145 47.3687759,27.7060264 47.3896045,27.6801883 C47.6340113,27.6801883 47.892919,27.6801883 48.2230132,27.6801883 C48.0880226,28.2064407 47.9894162,28.7200377 47.8248964,29.2114878 C46.7760829,32.3426365 44.7644068,34.5370245 41.5080226,35.3583051 C36.8450471,36.533936 31.5759322,34.5270056 29.6146139,29.0880979 C27.8288889,24.1361582 28.7548399,19.6311111 32.2021092,15.667081 C33.4763465,14.2019586 35.0614313,13.1726554 36.9966478,12.7945763 C39.1625612,12.3714124 41.1779284,12.8135593 42.979209,14.0688136 C45.3447081,15.7169115 46.8454237,17.9925047 47.6055367,20.7613936 C47.6880603,21.0619586 47.7075706,21.3844068 47.720226,21.6981544 C47.732354,22.0024105 47.5844444,22.1310734 47.2746516,22.145838 C47.18,22.1503202 47.0848211,22.1468927 46.9899058,22.1468927 C42.7094915,22.1468927 38.4290772,22.1468927 34.1483992,22.1468927 C34.0239548,22.1468927 33.8995104,22.1468927 33.7370998,22.1468927 L33.7370998,22.1468927 Z" id="Fill-8"></path>
    <path fill="#525252" d="M50.4595857,44.4390584 C50.4595857,43.1363465 50.4595857,41.8336347 50.4595857,40.5143126 C50.6119774,40.5143126 50.7319397,40.5143126 50.8687759,40.5143126 C50.8687759,42.0930697 50.8687759,43.6604896 50.8687759,45.2326554 C50.6425612,45.3431262 50.5007156,45.2350282 50.3570245,45.0689266 C49.3306215,43.8803766 48.2989454,42.6963089 47.2683239,41.5114501 C47.2018832,41.4349906 47.1314878,41.3622222 47.0120527,41.2325047 C47.0120527,42.6114124 47.0120527,43.9209793 47.0120527,45.2521657 C46.8559699,45.2521657 46.7349529,45.2521657 46.59258,45.2521657 C46.59258,43.6744633 46.59258,42.0991337 46.59258,40.5245951 C46.8290772,40.4412806 46.9833145,40.5327684 47.1367608,40.7117891 C48.1454991,41.8882109 49.1634652,43.0564595 50.1785311,44.227081 C50.24629,44.3051224 50.3166855,44.380791 50.3860264,44.4577778 C50.4105461,44.4514501 50.4350659,44.4451224 50.4595857,44.4390584" id="Fill-9"></path>
    <path fill="#525252" d="M20.1929567,44.5410923 C20.1929567,43.1410923 20.1929567,41.8396987 20.1929567,40.5180038 C20.3421846,40.5180038 20.4634652,40.5180038 20.6068927,40.5180038 C20.6068927,42.0843691 20.6068927,43.659435 20.6068927,45.2400377 C20.3814689,45.3386441 20.2401507,45.2313371 20.0967232,45.0652354 C19.0711111,43.8769492 18.039435,42.693936 17.0093409,41.5093409 C16.9479096,41.4386817 16.8841055,41.3698682 16.7752166,41.2488512 C16.7752166,42.612467 16.7752166,43.9191337 16.7752166,45.2500565 C16.6157062,45.2500565 16.4944256,45.2500565 16.3491525,45.2500565 C16.3491525,43.6810546 16.3491525,42.1070433 16.3491525,40.5232768 C16.5761582,40.4396987 16.7259134,40.5332957 16.879096,40.7117891 C17.9558569,41.9667797 19.0421092,43.213597 20.1929567,44.5410923" id="Fill-10"></path>
    <path fill="#525252" d="M81.7536744,42.8861394 C81.7552542,41.7279096 80.8467043,40.8196234 79.6916384,40.8243506 C78.5405273,40.8293785 77.6346139,41.7229002 77.6303786,42.8574011 C77.6259134,44.0235405 78.5146893,44.9210169 79.6789831,44.9265771 C80.8525047,44.9318267 81.7520904,44.0472693 81.7536744,42.8861394 Z M79.6478719,45.334162 C78.1975141,45.2853861 77.1210169,44.1922787 77.1661017,42.8146893 C77.213032,41.3854237 78.3588701,40.3677213 79.8740866,40.4375895 C81.1301318,40.4955932 82.2954802,41.5349153 82.2124294,43.0564595 C82.1438795,44.3183051 80.9764218,45.3787194 79.6478719,45.334162 L79.6478719,45.334162 Z" id="Fill-11"></path>
    <path fill="#525252" d="M33.9090019,40.8367608 C33.9090019,41.4777024 33.9090019,42.0416573 33.9090019,42.6625612 C34.3411299,42.6327684 34.7529567,42.6385687 35.1510734,42.5679096 C35.5842561,42.4911864 35.8152166,42.1748023 35.8233898,41.7677213 C35.8318267,41.3598493 35.6151036,41.0334463 35.1821846,40.946968 C34.7758945,40.8660264 34.352467,40.8715631 33.9090019,40.8367608 Z M33.8865913,43.0609416 C33.8865913,43.7836158 33.8865913,44.4991714 33.8865913,45.2447834 C33.740791,45.2447834 33.612919,45.2447834 33.4623729,45.2447834 C33.4623729,43.6691902 33.4623729,42.0941243 33.4623729,40.5056121 C33.9954802,40.5056121 34.513032,40.4771375 35.0261017,40.5127307 C35.6873446,40.5586064 36.1392467,40.9237665 36.2512994,41.4315631 C36.3894539,42.0580038 36.1687759,42.486968 35.5054237,42.8758569 C35.7709228,43.2615819 36.040113,43.6444068 36.300339,44.0335593 C36.5621469,44.4248211 36.8149906,44.8221469 37.0839171,45.2350282 C36.7693785,45.3288889 36.5697928,45.274049 36.4110734,44.9885122 C36.1811676,44.5748399 35.8782298,44.2015066 35.6570245,43.7838795 C35.2720904,43.0572505 34.672806,42.8998493 33.8865913,43.0609416 L33.8865913,43.0609416 Z" id="Fill-12"></path>
    <path fill="#525252" d="M40.5335593,43.2439171 C41.1876836,43.2439171 41.7874953,43.2439171 42.4284369,43.2439171 C42.1067797,42.5410169 41.8027872,41.8763465 41.4784934,41.1671186 C41.1549906,41.8781921 40.8523164,42.5433898 40.5335593,43.2439171 Z M43.7838795,45.2318644 C43.4819962,45.3512994 43.3238041,45.2513748 43.2146516,44.9732203 C43.0691149,44.6019962 42.8774388,44.2489642 42.7232015,43.880904 C42.652806,43.712693 42.5642185,43.6420339 42.3743879,43.6462524 C41.7848588,43.6586441 41.1945386,43.6596987 40.6050094,43.645725 C40.4019962,43.6409793 40.3073446,43.7161205 40.232467,43.8961959 C40.0835028,44.2552919 39.8873446,44.5956685 39.7536723,44.9595104 C39.6484746,45.245838 39.487646,45.3373258 39.1699435,45.2403013 C39.2833145,44.9856121 39.3937853,44.7306591 39.5097928,44.4783427 C40.0890395,43.2172881 40.6674953,41.9557062 41.2543879,40.6983427 C41.300791,40.599209 41.4091525,40.5293409 41.4887759,40.4460264 C41.5612806,40.5235405 41.6604143,40.5889266 41.7028625,40.6804143 C42.3791337,42.14 43.0482863,43.6030132 43.7184934,45.0654991 C43.7432768,45.119548 43.7622599,45.1762335 43.7838795,45.2318644 L43.7838795,45.2318644 Z" id="Fill-13"></path>
    <path fill="#525252" d="M11.2210923,41.1642185 C10.893371,41.8884746 10.5901695,42.5589454 10.2806403,43.2425989 C10.9379284,43.2425989 11.5377401,43.2425989 12.1705085,43.2425989 C11.8538606,42.5494539 11.553823,41.892693 11.2210923,41.1642185 Z M13.5309605,45.2334463 C13.2322411,45.3378531 13.0666667,45.2656121 12.9575141,44.974275 C12.8143503,44.5911864 12.6337476,44.2207533 12.4439171,43.8579661 C12.3946139,43.7635782 12.2527684,43.6628625 12.1507345,43.6599623 C11.5298305,43.6417702 10.9081356,43.6430885 10.2874953,43.6589077 C10.1923164,43.6612806 10.0581168,43.7509228 10.013823,43.8368738 C9.82610169,44.2009793 9.66580038,44.5790584 9.49521657,44.9516008 C9.33913371,45.2922411 9.33913371,45.2919774 8.93231638,45.252693 C8.95314501,45.1833522 8.96527307,45.1153296 8.99322034,45.0544256 C9.65815443,43.6019586 10.3228249,42.1492279 10.9954049,40.7001883 C11.0415443,40.600791 11.1493785,40.5298682 11.2284746,40.4457627 C11.305725,40.5325047 11.4093409,40.6071186 11.4560075,40.7080979 C12.1235782,42.147646 12.7837665,43.5908851 13.4452731,45.0333333 C13.474275,45.0968738 13.5003766,45.1619962 13.5309605,45.2334463 L13.5309605,45.2334463 Z" id="Fill-14"></path>
    <path fill="#525252" d="M74.4053861,44.4535593 C74.5240301,44.7910358 74.3869303,44.933145 74.1195857,45.0380791 C73.3180791,45.352354 72.5126177,45.4578154 71.6916008,45.1319397 C70.5945386,44.6966478 70.0150282,43.5961582 70.2351789,42.3854614 C70.4292279,41.3192467 71.4413936,40.4315254 72.5408286,40.4481356 C73.0565348,40.4557815 73.5711864,40.6087006 74.0847834,40.7036158 C74.406968,40.7632015 74.4272693,40.9801883 74.3626742,41.2137853 C73.8767608,41.0877589 73.4103578,40.9213936 72.9297175,40.8512618 C71.753823,40.6793597 70.7448211,41.5288512 70.653597,42.7247834 C70.5621092,43.9199247 71.399209,44.8719774 72.5845951,44.9268173 C73.1140113,44.9513371 73.605725,44.8142373 74.0816196,44.5993597 C74.1847081,44.552693 74.2880603,44.50629 74.4053861,44.4535593" id="Fill-15"></path>
    <path fill="#525252" d="M58.1566855,41.2227495 C57.6955556,41.0959322 57.26,40.9303578 56.8096798,40.8623352 C55.9583427,40.733936 55.2327684,41.0078719 54.7700565,41.7566478 C54.3044444,42.5099058 54.3044444,43.3082486 54.7906215,44.0530697 C55.2828625,44.8073823 56.0450847,45.0225235 56.8919397,44.8925424 C57.3317137,44.8250471 57.7532957,44.6404896 58.1827872,44.5089266 C58.2782298,44.8469303 58.2711111,44.8822599 57.9423352,45.0167232 C56.8521281,45.4633522 55.7867043,45.51371 54.819096,44.726177 C54.0518644,44.1018456 53.7829379,43.0071563 54.1217326,42.0548399 C54.4486629,41.1357439 55.3682863,40.4294162 56.3319397,40.4473446 C56.8381544,40.4568362 57.3483239,40.5773258 57.8445198,40.6972881 C58.2196987,40.7879849 58.2136347,40.8272693 58.1566855,41.2227495" id="Fill-16"></path>
    <path fill="#525252" d="M6.16580038,41.1549906 C5.88237288,41.0540113 5.60421846,40.9174388 5.31103578,40.8631262 C5.10670433,40.8254237 4.86757062,40.8615443 4.66877589,40.9335217 C4.34896422,41.0495292 4.16651601,41.306855 4.1472693,41.6580414 C4.12828625,42.0026365 4.29122411,42.2499435 4.59284369,42.3928437 C4.96327684,42.5681733 5.35559322,42.6997363 5.71785311,42.8895669 C6.40467043,43.2491902 6.59977401,44.0899812 6.16843691,44.7309228 C5.8420339,45.2155179 5.20425612,45.4383051 4.56806026,45.2811676 C4.42621469,45.2461017 4.29122411,45.1825612 4.15254237,45.1337853 C3.83853107,45.0233145 3.64290019,44.8421846 3.77815443,44.4356309 C3.91340866,44.5186817 4.04813559,44.6046328 4.18576271,44.6850471 C4.533258,44.8883239 4.89472693,45.0088136 5.29969868,44.8682863 C5.67804143,44.7367232 5.89318267,44.4638418 5.92640301,44.0749529 C5.95672316,43.7198117 5.79642185,43.4353296 5.47450094,43.2718644 C5.21269303,43.1387194 4.93928437,43.0274576 4.66693032,42.9161959 C3.83905838,42.5776648 3.52794727,42.0685499 3.73122411,41.3735593 C3.92949153,40.6957062 4.64425612,40.3068173 5.42677966,40.4560452 C5.56071563,40.4816196 5.69333333,40.520113 5.82199623,40.5654614 C6.21694915,40.7044068 6.22143126,40.7162712 6.16580038,41.1549906" id="Fill-17"></path>
    <path fill="#525252" d="M64.7258757,44.4614689 C65.0393597,44.6106968 65.3277966,44.7960452 65.6436535,44.8877966 C66.3146516,45.0821092 66.9165725,44.6062147 66.8838795,43.9481356 C66.8688512,43.646516 66.7180414,43.4229379 66.4633522,43.28742 C66.1952166,43.1447834 65.9104708,43.0322034 65.6291525,42.9151412 C64.8173635,42.5776648 64.5088889,42.0870056 64.6821092,41.3978154 C64.8413559,40.7639925 65.499435,40.3621846 66.2687759,40.4412806 C66.4343503,40.4584181 66.5964972,40.513258 66.7586441,40.5567608 C67.0610546,40.6377024 67.2506215,40.7937853 67.1116761,41.17371 C66.9814313,41.1117514 66.846177,41.045838 66.7096045,40.9830885 C66.394275,40.8378154 66.0683992,40.7719021 65.7293409,40.8850094 C65.39371,40.9970621 65.1696045,41.2203766 65.1168738,41.5794727 C65.0628249,41.945951 65.2167985,42.2233145 65.5410923,42.385725 C65.812919,42.5217702 66.1013559,42.6243315 66.3829379,42.7408663 C67.2002637,43.0788701 67.5224482,43.672354 67.2843691,44.4024105 C67.0541996,45.1087382 66.3122787,45.4791714 65.5194727,45.2761582 C65.3678719,45.2371375 65.2249718,45.1643691 65.0754802,45.1155932 C64.7517137,45.0096045 64.6219962,44.8021092 64.7258757,44.4614689" id="Fill-18"></path>
    <path fill="#525252" d="M30.6096422,40.5127307 C30.6096422,40.6332203 30.6096422,40.733936 30.6096422,40.8647081 C29.9349529,40.8647081 29.2755556,40.8647081 28.5932203,40.8647081 C28.5932203,41.446064 28.5932203,41.9973635 28.5932203,42.5800377 C29.1951412,42.5800377 29.7912618,42.5800377 30.405838,42.5800377 C30.405838,42.7102825 30.405838,42.8099435 30.405838,42.9459887 C29.8081356,42.9459887 29.2130697,42.9459887 28.5776648,42.9459887 C28.5776648,43.7319397 28.5776648,44.4830885 28.5776648,45.2540113 C28.4155179,45.2540113 28.2942373,45.2540113 28.1494915,45.2540113 C28.1494915,43.6760452 28.1494915,42.1022976 28.1494915,40.5127307 C28.96629,40.5127307 29.773597,40.5127307 30.6096422,40.5127307" id="Fill-19"></path>
    <path fill="#525252" d="M61.1512618,40.5056121 C61.2981168,40.5056121 61.4133333,40.5056121 61.553597,40.5056121 C61.553597,42.0817326 61.553597,43.6560075 61.553597,45.2524294 C61.4267797,45.2524294 61.2967985,45.2524294 61.1512618,45.2524294 C61.1512618,43.6678719 61.1512618,42.1028249 61.1512618,40.5056121" id="Fill-20"></path>
    <path fill="#525252" d="M120.86113,34.2024482 C122.270885,34.2024482 123.635819,34.2024482 125.007872,34.2024482 C125.007872,34.5040678 125.007872,34.7629755 125.007872,35.0384934 C120.798908,35.0384934 116.606817,35.0384934 112.392053,35.0384934 C112.392053,34.7687759 112.392053,34.5024859 112.392053,34.2000753 C113.756196,34.2000753 115.111375,34.2000753 116.484482,34.2000753 C116.484482,27.6648964 116.484482,21.1647834 116.484482,14.6356685 C115.914991,14.6356685 115.36,14.6356685 114.778644,14.6356685 C114.778644,14.3511864 114.778644,14.0951789 114.778644,13.7943503 C114.898343,13.7943503 115.019887,13.7975141 115.141168,13.793823 C116.225311,13.7600753 117.311563,13.7571751 118.392806,13.6801883 C119.288173,13.6161205 120.123955,13.3311111 120.86113,12.6529944 C120.86113,19.8652354 120.86113,27.0126177 120.86113,34.2024482" id="Fill-21"></path>
</svg>
