<?xml version="1.0" encoding="UTF-8"?>
<svg width="219px" height="50px" viewBox="0 0 219 50" version="1.1" xmlns="http://www.w3.org/2000/svg" xmlns:xlink="http://www.w3.org/1999/xlink">
    <!-- Generator: Sketch 57.1 (83088) - https://sketch.com -->
    <title>bigcommerce-logo</title>
    <desc>Created with Sketch.</desc>
    <g id="Page-1" stroke="none" stroke-width="1" fill="none" fill-rule="evenodd">
        <g id="bigcommerce-logo" fill="#525252" fill-rule="nonzero">
            <path d="M60.1453222,24.0825688 C63.4690229,24.0825688 65.7,25.5963303 67.0659044,27.4770642 L67.0659044,0.688073394 C67.0659044,0.183486239 66.4740125,-0.137614679 66.0642412,0.183486239 L33.2370062,24.3577982 L34.102079,24.3577982 C37.5168399,24.3577982 39.2469854,26.559633 39.2469854,28.9449541 C39.2469854,30.8256881 38.2908524,32.2018349 36.9704782,32.7981651 C36.7428274,32.8899083 36.7428274,33.2110092 36.9704782,33.3027523 C38.472973,33.9449541 39.5656965,35.5504587 39.5656965,37.4770642 C39.5656965,40.2293578 37.7900208,42.3853211 34.3752599,42.3853211 L25.04158,42.3853211 C24.8594595,42.3853211 24.6773389,42.2477064 24.6773389,42.0183486 L24.6773389,30.6422018 L0.227650728,48.6697248 C-0.182120582,49.0366972 -4.42614695e-15,49.6788991 0.546361746,49.6788991 L66.4740125,49.6788991 C66.7927235,49.6788991 67.0203742,49.4495413 67.0203742,49.1284404 L67.0203742,40 C65.2446985,41.6513761 62.9226611,42.706422 60.0997921,42.706422 C54.8182952,42.706422 50.5384615,39.0366972 50.5384615,33.3944954 C50.5839917,27.706422 54.9093555,24.0825688 60.1453222,24.0825688 Z M47.0781705,42.0642202 C47.0781705,42.2477064 46.94158,42.3853211 46.7594595,42.3853211 L43.6178794,42.3853211 C43.4357588,42.3853211 43.2991684,42.2477064 43.2991684,42.0642202 L43.2991684,24.6788991 C43.2991684,24.4954128 43.4357588,24.3577982 43.6178794,24.3577982 L46.7594595,24.3577982 C46.94158,24.3577982 47.0781705,24.4954128 47.0781705,24.6788991 L47.0781705,42.0642202 Z" id="Shape"></path>
            <path d="M28.8661123,31.5137615 L33.2825364,31.5137615 C34.5573805,31.5137615 35.3769231,30.7798165 35.3769231,29.6330275 C35.3769231,28.5321101 34.5573805,27.7522936 33.2825364,27.7522936 L28.6839917,27.7522936 C28.5929314,27.7522936 28.5018711,27.8440367 28.5018711,27.9357798 L28.5018711,31.1926606 C28.5018711,31.3761468 28.6839917,31.5137615 28.8661123,31.5137615 Z" id="Path"></path>
            <path d="M28.8661123,39.0366972 L33.464657,39.0366972 C34.8760915,39.0366972 35.7411642,38.2568807 35.7411642,36.9724771 C35.7411642,35.8256881 34.9216216,34.9082569 33.464657,34.9082569 L28.8661123,34.9082569 C28.6839917,34.9082569 28.5018711,35.0458716 28.5018711,35.2752294 L28.5018711,38.6697248 C28.5018711,38.853211 28.6839917,39.0366972 28.8661123,39.0366972 Z" id="Path"></path>
            <path d="M64.1975052,29.5412844 C63.3324324,28.3944954 61.8754678,27.4770642 60.1453222,27.4770642 C56.8671518,27.4770642 54.4995842,30 54.4995842,33.3944954 C54.4995842,36.7889908 56.8671518,39.3119266 60.1453222,39.3119266 C61.647817,39.3119266 63.0592516,38.6697248 63.833264,38.0275229 C63.8787942,37.9816514 63.9243243,37.8899083 63.9243243,37.7981651 L63.9243243,36.0550459 C63.9243243,35.9174312 63.7877339,35.7798165 63.6511435,35.7798165 L59.5989605,35.7798165 C59.3713098,35.7798165 59.2347193,35.5963303 59.2347193,35.412844 L59.2347193,32.8440367 C59.2347193,32.6146789 59.4168399,32.4770642 59.5989605,32.4770642 L67.1114345,32.4770642 L67.1114345,28.3944954 L64.6983368,29.7247706 C64.5162162,29.7706422 64.2885655,29.6788991 64.1975052,29.5412844 Z" id="Path"></path>
            <path d="M69.8887734,33.3944954 C69.8887734,27.8440367 73.849896,24.0825688 78.9492723,24.0825688 C82.272973,24.0825688 84.4128898,25.7798165 85.6877339,27.8440367 C85.7787942,27.9816514 85.733264,28.2110092 85.5511435,28.2568807 L83.5022869,29.3577982 C83.3656965,29.4495413 83.1835759,29.4036697 83.1380457,29.266055 C82.272973,27.8899083 80.6794179,26.8807339 78.9492723,26.8807339 C75.5345114,26.8807339 72.9848233,29.587156 72.9848233,33.3944954 C72.9848233,37.1559633 75.5345114,39.9082569 78.9492723,39.9082569 C80.6794179,39.9082569 82.272973,38.8990826 83.1380457,37.5229358 C83.229106,37.3853211 83.3656965,37.3394495 83.5022869,37.4311927 L85.5511435,38.4862385 C85.733264,38.5779817 85.7787942,38.7614679 85.6877339,38.9449541 C84.3673597,41.0091743 82.2274428,42.7522936 78.9492723,42.7522936 C73.849896,42.706422 69.8887734,38.8990826 69.8887734,33.3944954 Z" id="Path"></path>
            <path d="M87.4634096,33.3944954 C87.4634096,28.8990826 90.0130977,25.412844 93.8376299,24.4036697 C100.348441,22.6605505 106.31289,28.8073394 104.901455,35.6422018 C104.036383,39.8623853 100.712682,42.7522936 96.2962578,42.7522936 C91.1058212,42.706422 87.4634096,38.7614679 87.4634096,33.3944954 Z M101.987526,33.3944954 C101.987526,29.6788991 99.7110187,26.8807339 96.2507277,26.8807339 C92.7449064,26.8807339 90.5139293,29.6788991 90.5139293,33.3944954 C90.5139293,37.1100917 92.7449064,39.9082569 96.2507277,39.9082569 C99.7565489,39.9082569 101.987526,37.0642202 101.987526,33.3944954 Z" id="Shape"></path>
            <path d="M123.659875,42.1559633 L123.659875,28.440367 L118.241788,42.2477064 C118.241788,42.293578 118.150728,42.3394495 118.105198,42.3394495 L116.966944,42.3394495 C116.921414,42.3394495 116.830353,42.293578 116.830353,42.2477064 L111.366736,28.440367 L111.366736,42.1559633 C111.366736,42.293578 111.275676,42.3853211 111.139085,42.3853211 L108.407277,42.3853211 C108.270686,42.3853211 108.179626,42.293578 108.179626,42.1559633 L108.179626,24.5412844 C108.179626,24.4036697 108.270686,24.3119266 108.407277,24.3119266 L112.322869,24.3119266 C112.50499,24.3119266 112.64158,24.4036697 112.73264,24.587156 L117.513306,36.9724771 L122.248441,24.587156 C122.293971,24.4036697 122.476091,24.3119266 122.658212,24.3119266 L126.573805,24.3119266 C126.710395,24.3119266 126.801455,24.4036697 126.801455,24.5412844 L126.801455,42.1559633 C126.801455,42.293578 126.710395,42.3853211 126.573805,42.3853211 L123.841996,42.3853211 C123.796466,42.3853211 123.659875,42.293578 123.659875,42.1559633 Z" id="Path"></path>
            <path d="M154.620374,42.0642202 L154.620374,24.6788991 C154.620374,24.4954128 154.756965,24.3577982 154.939085,24.3577982 L166.549272,24.3577982 C166.731393,24.3577982 166.867983,24.4954128 166.867983,24.6788991 L166.867983,26.7889908 C166.867983,26.9724771 166.731393,27.1100917 166.549272,27.1100917 L158.080665,27.1100917 C157.898545,27.1100917 157.761954,27.2477064 157.761954,27.4311927 L157.761954,31.4220183 C157.761954,31.6055046 157.898545,31.7431193 158.080665,31.7431193 L166.367152,31.7431193 C166.549272,31.7431193 166.685863,31.8807339 166.685863,32.0642202 L166.685863,34.1743119 C166.685863,34.3577982 166.549272,34.4954128 166.367152,34.4954128 L158.080665,34.4954128 C157.898545,34.4954128 157.761954,34.6330275 157.761954,34.8165138 L157.761954,39.1743119 C157.761954,39.3577982 157.898545,39.4954128 158.080665,39.4954128 L166.549272,39.4954128 C166.731393,39.4954128 166.867983,39.6330275 166.867983,39.8165138 L166.867983,41.9266055 C166.867983,42.1100917 166.731393,42.2477064 166.549272,42.2477064 L154.939085,42.2477064 C154.756965,42.3853211 154.620374,42.2477064 154.620374,42.0642202 Z" id="Path"></path>
            <path d="M181.43763,42.2018349 L177.658628,35.7798165 C177.613098,35.6880734 177.476507,35.6422018 177.385447,35.6422018 L174.744699,35.6422018 C174.562578,35.6422018 174.425988,35.7798165 174.425988,35.9633028 L174.425988,42.0642202 C174.425988,42.2477064 174.289397,42.3853211 174.107277,42.3853211 L171.648649,42.3853211 C171.466528,42.3853211 171.329938,42.2477064 171.329938,42.0642202 L171.329938,24.6788991 C171.329938,24.4954128 171.466528,24.3577982 171.648649,24.3577982 L179.206653,24.3577982 C182.758004,24.3577982 185.080042,26.6513761 185.080042,30 C185.080042,32.9816514 183.258836,34.6788991 181.255509,35.1834862 C181.027859,35.2293578 180.936798,35.4587156 181.027859,35.6880734 C181.756341,36.8807339 184.032848,40.5504587 184.897921,41.8807339 C185.034511,42.1100917 184.897921,42.3853211 184.62474,42.3853211 L181.756341,42.3853211 C181.619751,42.3853211 181.52869,42.3394495 181.43763,42.2018349 Z M181.847401,29.9541284 C181.847401,28.2110092 180.572557,27.1100917 178.796881,27.1100917 L174.790229,27.1100917 C174.608108,27.1100917 174.471518,27.2477064 174.471518,27.4311927 L174.471518,32.5229358 C174.471518,32.706422 174.608108,32.8440367 174.790229,32.8440367 L178.796881,32.8440367 C180.572557,32.8440367 181.847401,31.7431193 181.847401,29.9541284 Z" id="Shape"></path>
            <path d="M206.297089,42.0642202 L206.297089,24.6788991 C206.297089,24.4954128 206.43368,24.3577982 206.6158,24.3577982 L218.271518,24.3577982 C218.453638,24.3577982 218.590229,24.4954128 218.590229,24.6788991 L218.590229,26.8348624 C218.590229,27.0183486 218.453638,27.1559633 218.271518,27.1559633 L209.75738,27.1559633 C209.57526,27.1559633 209.438669,27.293578 209.438669,27.4770642 L209.438669,31.5137615 C209.438669,31.6972477 209.57526,31.8348624 209.75738,31.8348624 L218.043867,31.8348624 C218.225988,31.8348624 218.362578,31.9724771 218.362578,32.1559633 L218.362578,34.3119266 C218.362578,34.4954128 218.225988,34.6330275 218.043867,34.6330275 L209.75738,34.6330275 C209.57526,34.6330275 209.438669,34.7706422 209.438669,34.9541284 L209.438669,39.3577982 C209.438669,39.5412844 209.57526,39.6788991 209.75738,39.6788991 L218.271518,39.6788991 C218.453638,39.6788991 218.590229,39.8165138 218.590229,40 L218.590229,42.1559633 C218.590229,42.3394495 218.453638,42.4770642 218.271518,42.4770642 L206.6158,42.4770642 C206.43368,42.3853211 206.297089,42.2477064 206.297089,42.0642202 Z" id="Path"></path>
            <path d="M187.356549,33.3027523 C187.356549,27.7522936 191.317672,23.9908257 196.417048,23.9908257 C199.740748,23.9908257 201.880665,25.6880734 203.155509,27.7522936 C203.24657,27.8899083 203.20104,28.1192661 203.018919,28.1651376 L200.970062,29.266055 C200.833472,29.3577982 200.651351,29.3119266 200.605821,29.1743119 C199.740748,27.7981651 198.147193,26.7889908 196.417048,26.7889908 C193.002287,26.7889908 190.452599,29.4954128 190.452599,33.3027523 C190.452599,37.0642202 193.002287,39.8165138 196.417048,39.8165138 C198.147193,39.8165138 199.740748,38.8073394 200.605821,37.4311927 C200.696881,37.293578 200.833472,37.2477064 200.970062,37.3394495 L203.018919,38.3944954 C203.20104,38.4862385 203.24657,38.6697248 203.155509,38.853211 C201.835135,40.9174312 199.695218,42.6605505 196.417048,42.6605505 C191.317672,42.6146789 187.356549,38.853211 187.356549,33.3027523 Z" id="Path"></path>
            <path d="M146.880249,42.1559633 L146.880249,28.440367 L141.462162,42.2477064 C141.462162,42.293578 141.371102,42.3394495 141.325572,42.3394495 L140.187318,42.3394495 C140.141788,42.3394495 140.050728,42.293578 140.050728,42.2477064 L134.58711,28.440367 L134.58711,42.1559633 C134.58711,42.293578 134.49605,42.3853211 134.359459,42.3853211 L131.627651,42.3853211 C131.49106,42.3853211 131.4,42.293578 131.4,42.1559633 L131.4,24.5412844 C131.4,24.4036697 131.49106,24.3119266 131.627651,24.3119266 L135.543243,24.3119266 C135.725364,24.3119266 135.861954,24.4036697 135.953015,24.587156 L140.73368,36.9724771 L145.468815,24.587156 C145.514345,24.4036697 145.696466,24.3119266 145.878586,24.3119266 L149.794179,24.3119266 C149.930769,24.3119266 150.02183,24.4036697 150.02183,24.5412844 L150.02183,42.1559633 C150.02183,42.293578 149.930769,42.3853211 149.794179,42.3853211 L147.06237,42.3853211 C146.97131,42.3853211 146.880249,42.293578 146.880249,42.1559633 Z" id="Path"></path>
        </g>
    </g>
</svg>