<?xml version="1.0" encoding="UTF-8"?>
<svg viewBox="0 0 201 68" version="1.1" xmlns="http://www.w3.org/2000/svg" xmlns:xlink="http://www.w3.org/1999/xlink">
  <path fill="#525252" d="M80.9,54.2 C80.7,53.3 80.4,52.4 80.2,51.5 C80,50.6 79.7,49.6 79.4,48.7 C79.4,48.4 79.1,48.2 79.2,48 C79.2,47.9 79.2,47.9 79.2,47.8 C79,47.3 78.8,46.8 78.8,46.2 L78.8,46.2 L78.8,46.2 C78.6,46.2 78.7,46 78.7,45.9 C78.5,44.9 78.2,43.8 77.9,42.8 C77.7,41.9 77.4,41 77.2,40.1 C77,39 76.6,37.9 76.4,36.9 C75.7,34 74.9,31.2 74.2,28.3 C73.6,26 72.9,23.6 72.4,21.3 C72.3,20.7 72.1,20.1 71.9,19.5 C71.6,18.8 71.1,18.6 70.4,18.7 C70.3,18.7 70.3,18.7 70.2,18.7 C69.1,18.8 68,19 66.9,19.1 C65.8,19.3 64.7,19.4 63.6,19.6 C63,19.7 62.5,20 62.3,20.6 C62.1,21.1 62,21.7 61.9,22.2 C61.5,23.9 61.1,25.7 60.6,27.4 C60.1,29.3 59.6,31.3 59.2,33.2 C58.8,35 58.4,36.7 57.9,38.5 C57.3,40.9 56.7,43.2 56.2,45.6 C55.7,47.5 55.3,49.3 54.8,51.2 C54.3,53.4 53.7,55.7 53.2,57.9 C53.1,58.4 52.9,58.9 53,59.4 C53,59.8 53.3,60 53.6,60 C53.7,60 53.9,60 54.1,60 C55.4,59.8 56.6,59.6 57.9,59.4 C59,59.3 60,59.1 61.1,58.9 C61.8,58.8 62.5,58.6 62.9,57.8 C63.1,57.4 63.2,57 63.2,56.5 C63.2,56.2 63.1,56 63.4,55.8 C63.4,55.7 63.4,55.6 63.4,55.6 C63.5,54.9 63.6,54.2 63.9,53.6 C63.9,53.5 63.9,53.5 63.9,53.4 C63.8,53.2 63.9,53.1 64,53 L64,53 L64,53 L64,52.9 L64,52.9 L64,52.9 C64,52.8 64,52.7 64.1,52.7 C64.1,52.7 64.1,52.7 64.1,52.6 C64.1,52.5 64.1,52.5 64.2,52.5 L64.3,52.4 L64.3,52.4 L64.3,52.4 C64.4,52.2 64.5,52.3 64.6,52.3 L64.7,52.3 C64.9,52.3 65.1,52.1 65.3,52.2 C65.4,52.2 65.5,52.2 65.6,52.2 C65.8,52 66.1,52.1 66.3,52.1 C66.7,52 67,51.9 67.4,51.9 C67.5,51.9 67.7,51.9 67.8,51.9 C68.3,51.7 68.7,51.8 69.2,51.8 C69.3,51.8 69.3,51.8 69.4,51.9 L69.4,51.9 C69.4,51.9 69.5,51.9 69.5,52 C69.5,52 69.5,52 69.5,52.1 L69.5,52.1 L69.5,52.1 C69.5,52.1 69.5,52.1 69.5,52.2 L69.5,52.2 C69.5,52.2 69.5,52.2 69.6,52.3 C69.6,52.3 69.6,52.4 69.7,52.4 C69.9,52.5 69.9,52.7 69.9,52.8 C69.9,52.9 69.9,52.9 69.9,53 C70,53.2 70.1,53.5 70.1,53.7 C70.1,53.8 70.1,53.8 70.2,53.9 L70.2,53.9 L70.2,54 C70.3,54.1 70.3,54.3 70.3,54.5 L70.3,54.5 C70.4,54.6 70.4,54.7 70.4,54.7 C70.5,55.3 70.7,55.8 70.8,56.3 C71,57.2 71.6,57.4 72.3,57.3 C72.8,57.2 73.4,57.2 73.9,57.1 C75.2,56.9 76.5,56.7 77.8,56.5 C78.5,56.4 79.2,56.3 79.9,56.2 C80.4,56.1 80.8,55.9 80.8,55.3 C81.2,54.9 81,54.6 80.9,54.2 Z M68,43.3 C67.2,43.4 66.4,43.6 65.7,43.6 C65.1,43.6 65,43.5 65,42.9 C65.2,41.9 65.5,41 65.7,40 C65.8,39.5 65.9,39 66,38.5 C66.1,37.9 66.3,37.3 66.5,36.8 C66.6,36.5 66.8,36.3 67.1,36.3 C67.4,36.3 67.6,36.5 67.7,36.8 C68,37.5 68.1,38.3 68.3,39 C68.5,40 68.8,41 69,42 C69.1,42.8 68.8,43.2 68,43.3 Z" id="Shape"></path>
  <path fill="#525252" d="M21.2,46.3 C20.8,45.8 20.8,45.3 21,44.8 C21.7,43.3 22.2,41.8 22.4,40.2 C22.6,38.7 22.7,37.2 22.4,35.7 C22.3,34.8 22.1,33.8 21.7,32.9 C21.4,32.2 21.1,31.5 20.6,30.9 C20.1,30.1 19.5,29.5 18.7,29 C17,27.8 15.1,27.4 13.1,27.3 C11.7,27.2 10.3,27.4 8.9,27.6 C7.6,27.8 6.2,28 4.9,28.2 C3.7,28.4 2.5,28.5 1.3,28.7 C0.5,28.8 0.1,29.1 -1.77635684e-15,29.8 C-1.77635684e-15,30 -1.77635684e-15,30.3 -1.77635684e-15,30.5 C-1.77635684e-15,42.4 -1.77635684e-15,54.4 -1.77635684e-15,66.3 C-1.77635684e-15,66.4 -1.77635684e-15,66.6 -1.77635684e-15,66.7 C-1.77635684e-15,67.4 0.4,67.7 1,67.6 C1.4,67.6 1.9,67.5 2.3,67.4 C2.6,67.4 2.9,67.3 3.2,67.3 C5,67 6.8,66.8 8.6,66.5 C10.4,66.2 12.3,66 14.1,65.4 C18.6,63.8 21.2,60.6 22.1,56 C22.4,54.3 22.5,52.6 22.4,50.8 C22.5,49.2 22.1,47.7 21.2,46.3 Z M9.2,38.6 C9.2,38 9.5,37.7 10.1,37.5 C10.8,37.3 11.5,37.3 12.2,37.7 C12.8,38.1 13.1,38.6 13.1,39.2 C13.3,41.3 12.1,42.6 10,42.7 C9.4,42.7 9.2,42.5 9.1,41.9 C9.1,41.3 9.1,40.8 9.1,40.2 C9.1,39.7 9.1,39.1 9.2,38.6 Z M10,56.2 C9.5,56.2 9.3,55.9 9.2,55.3 C9.1,54.7 9.2,54.1 9.1,53.6 C9.1,53.1 9.1,52.5 9.2,52 C9.3,51.7 9.4,51.4 9.7,51.3 C10.5,50.8 11.9,50.9 12.6,51.5 C13.1,51.9 13.3,52.5 13.3,53.1 C13.3,55 11.9,56.2 10,56.2 Z" id="Shape"></path>
  <path fill="#525252" d="M171.2,41.9 C171,41.1 170.8,40.3 170.6,39.5 C169.9,36.9 169.2,34.3 168.6,31.8 C168.4,31 168.2,30.1 167.9,29.3 L167.9,29.2 C167.9,29.2 167.9,29.1 167.9,29 C167.8,28.7 167.8,28.4 167.7,28.1 C167.1,25.9 166.5,23.7 166,21.5 C165.8,20.8 165.7,20.1 165.4,19.5 L165.4,19.4 C165.3,19.4 165.2,19.4 165.2,19.2 C165.2,19.1 165.3,19.1 165.3,19.1 C165.3,18.7 165.1,18.3 165,17.9 C164.8,16.8 164.4,15.7 164.1,14.6 C163.5,12.5 163,10.3 162.4,8.2 C162.3,7.8 162.2,7.4 162.1,7.1 C161.9,6.4 161.4,6.1 160.7,6.2 C160,6.3 159.2,6.4 158.5,6.5 C157.1,6.7 155.6,7 154.2,7.1 C153.3,7.2 152.6,7.6 152.4,8.6 C152.3,9 152.2,9.5 152.1,9.9 C151.8,11.2 151.5,12.5 151.2,13.8 C150.9,15.1 150.5,16.4 150.2,17.7 C149.8,19.1 149.5,20.6 149.1,22 C148.7,23.8 148.3,25.5 147.8,27.3 C147.3,29.3 146.8,31.2 146.3,33.2 C146,34.5 145.7,35.8 145.3,37.1 C144.9,38.7 144.5,40.3 144.1,42 C143.8,43.4 143.5,44.8 143.1,46.1 C142.9,47 143.3,47.4 144.2,47.3 C144.9,47.2 145.5,47.1 146.2,47 L146.3,47 C147.9,46.8 149.5,46.5 151.1,46.3 C152.1,46.2 152.9,45.8 153.1,44.7 C153.4,43.4 153.7,42.1 154,40.9 C154.2,40.2 154.5,39.8 155.2,39.7 C156.5,39.5 157.8,39.3 159.1,39.1 C159.8,39 160.1,39.2 160.3,39.9 C160.5,40.4 160.5,40.9 160.7,41.3 C160.9,42.2 161.1,43 161.3,43.8 C161.5,44.4 161.8,44.6 162.5,44.6 C163.1,44.6 163.6,44.5 164.1,44.4 L164.2,44.4 C166.2,44.1 168.2,43.8 170.2,43.5 C171.1,43.2 171.4,42.8 171.2,41.9 Z M158.2,30.5 C157.4,30.7 156.5,30.8 155.7,30.9 C155.2,30.9 155,30.8 155.1,30.2 C155.2,29.4 155.4,28.7 155.6,27.9 C155.7,27.5 155.7,27.2 155.8,26.8 C155.8,26.7 155.8,26.7 155.8,26.6 L155.8,26.5 C156,25.7 156.2,25 156.4,24.2 C156.4,24.1 156.5,23.9 156.6,23.8 C156.9,23.4 157.4,23.4 157.6,23.9 C157.7,24.1 157.8,24.3 157.9,24.5 C158.2,25.9 158.5,27.3 158.8,28.7 C158.8,28.9 158.9,29.1 158.9,29.4 C159.1,30.1 158.9,30.3 158.2,30.5 Z M163.2,44.2 L163.1,44.2 C163.1,44.2 163.1,44.1 163.2,44.2 C163.2,44.1 163.2,44.1 163.2,44.2 C163.3,44.2 163.2,44.2 163.2,44.2 Z" id="Shape"></path>
  <path fill="#525252" d="M196.1,26.3 C196.1,27.2 196.1,28 196,28.9 C195.8,30.1 195.8,31.3 195.4,32.4 C194.8,34.5 194.1,36.4 192.6,38 C191.9,38.7 191.3,39.4 190.4,39.8 C190.4,39.7 190.4,39.6 190.3,39.6 C190.1,39.6 190.2,39.8 190.2,39.9 C190,40 189.9,40.2 189.7,40.2 L189.7,40.2 C189.2,40.3 188.7,40.6 188.2,40.9 C187.6,41.2 186.9,41.3 186.3,41.5 C186.2,41.5 186.1,41.5 186,41.5 L185.9,41.5 C185.8,41.5 185.7,41.5 185.6,41.5 C184.6,41.6 183.6,41.9 182.6,41.8 L182.5,41.9 C182.3,41.9 182.1,41.9 181.8,41.9 C181.7,41.8 181.6,41.8 181.5,41.8 C181,41.8 180.5,41.7 180,41.6 C179.8,41.5 179.5,41.5 179.3,41.5 C179.3,41.5 179.2,41.5 179.2,41.4 C179.1,41.3 179,41.3 178.9,41.3 C178.9,41.3 178.8,41.3 178.8,41.2 L178.7,41.2 L178.7,41.2 L178.6,41.2 C178.6,41.2 178.5,41.2 178.5,41.1 L178.5,41.1 L178.5,41.1 C178.4,41 178.2,40.9 178,40.9 L177.9,40.8 L177.9,40.8 C177.9,40.8 177.8,40.8 177.8,40.7 L177.8,40.7 C177.8,40.7 177.8,40.7 177.7,40.7 C177.7,40.6 177.6,40.6 177.6,40.6 L177.5,40.5 L177.5,40.5 L177.5,40.5 C177.5,40.5 177.5,40.5 177.4,40.5 C177.3,40.4 177.3,40.4 177.2,40.3 L177.2,40.3 C177.2,40.3 177.2,40.3 177.1,40.2 L177.1,40.2 L177.1,40.2 C177.1,40.1 177,40.1 177,40.1 L177,40.1 L177,40.1 C177,40.1 177,40.1 176.9,40.1 L176.8,40 C176.8,40 176.8,40 176.7,39.9 L176.7,39.9 L176.7,39.9 C176.7,39.9 176.7,39.9 176.6,39.8 C175.9,39.1 175.3,38.2 174.9,37.3 C174.4,36.2 174,35 173.7,33.8 C173.7,33.7 173.7,33.7 173.7,33.6 C173.7,33.5 173.8,33.4 173.7,33.4 C173.7,33.3 173.7,33.2 173.7,33.2 C173.7,32.9 173.7,32.6 173.5,32.3 C173.5,32.2 173.4,32.1 173.5,31.9 C173.5,31.8 173.5,31.7 173.4,31.7 L173.4,31.7 C173.4,31.5 173.4,31.3 173.4,31.1 C173.3,30.8 173.4,30.4 173.2,30.1 C173.1,29.2 173,28.2 173,27.3 C172.9,24.8 172.9,22.3 173,19.8 C173.1,18.7 173.1,17.6 173.3,16.5 C173.7,13.6 174.2,10.7 175.6,8.1 C177.1,5.3 179.4,3.4 182.4,2.6 C184.4,2 186.4,1.8 188.4,2 C189.8,2.1 191.1,2.6 192.3,3.4 C193.5,4.2 194.3,5.4 194.9,6.7 C194.9,6.8 194.9,6.8 195,6.9 C195.2,7.6 195.5,8.3 195.7,9 C195.8,9.5 195.9,9.9 196,10.4 C196.1,10.5 196.1,10.7 196,10.8 C196,11.1 196,11.4 196,11.7 C196,11.9 196,12.1 196.2,12.2 C196.2,12.5 196.2,12.7 196.2,13 C196.1,13.3 196.1,13.6 196.2,13.9 C196.2,14.5 196.3,15.1 196.2,15.7 C196,16 196,16.4 195.9,16.8 C195.9,16.8 195.9,16.9 195.8,16.9 C195.7,17 195.7,17 195.6,17.1 C195.4,17.2 195.2,17.2 195,17.4 C194.9,17.4 194.9,17.4 194.8,17.4 C194.7,17.3 194.7,17.4 194.7,17.4 C194.6,17.4 194.6,17.4 194.5,17.4 C194,17.4 193.5,17.4 193,17.6 C192.9,17.6 192.8,17.6 192.8,17.6 C192.6,17.5 192.4,17.6 192.2,17.6 C191.8,17.7 191.3,17.6 190.9,17.9 C190.8,17.9 190.8,17.9 190.7,17.9 C190.6,17.8 190.5,17.9 190.4,18 C189.4,18.1 188.5,18.3 187.5,18.4 C186.9,18.5 186.6,18.1 186.5,17.5 C186.5,16.8 186.5,16.1 186.5,15.4 C186.5,14.8 186.4,14.3 186.2,13.8 C186,13.3 185.8,12.9 185.2,12.8 C184.6,12.7 184,12.9 183.6,13.5 C183.2,14.2 183,14.9 182.9,15.7 C182.7,16.9 182.6,18.1 182.6,19.4 C182.4,19.6 182.5,19.8 182.6,20 C182.6,20.3 182.6,20.7 182.6,21 C182.5,21.8 182.5,22.6 182.6,23.5 C182.6,23.9 182.7,24.3 182.6,24.6 C182.5,24.8 182.5,25 182.6,25.2 C182.6,25.3 182.6,25.5 182.6,25.6 C182.6,26.6 182.8,27.7 182.9,28.7 C183,29.4 183.2,30.1 183.5,30.6 C183.8,31.1 184.4,31.2 184.9,31.1 C185,31.2 185.1,31.2 185.2,31.2 C185.3,31.2 185.3,31.2 185.4,31.1 C185.4,31 185.4,30.9 185.3,30.9 C185.4,30.8 185.5,30.7 185.7,30.7 C186.4,29.7 186.5,28.5 186.5,27.3 C186.5,26.9 186.5,26.5 186.5,26.1 C186.5,25.1 186.9,24.8 187.8,24.6 C188.9,24.5 190.1,24.3 191.2,24.1 C192.4,23.9 193.7,23.7 194.9,23.6 C195.5,23.5 195.9,23.8 195.9,24.4 C196.1,25 196.1,25.6 196.1,26.3 Z" id="Path"></path>
  <path fill="#525252" d="M51.5,58.5 C51,56.9 50.5,55.3 50.1,53.7 C49.7,52.4 49.2,51.1 48.9,49.8 C48.7,49.1 48.5,48.4 48.3,47.8 C47.9,46.6 47.7,45.3 47.2,44.1 C46.9,43.4 47,42.7 47.4,42 C47.9,41.2 48.4,40.3 48.7,39.4 C48.8,39 49.1,38.7 49,38.3 C49.2,37.4 49.5,36.5 49.5,35.5 C49.5,35.4 49.5,35.3 49.6,35.1 C49.7,34.3 49.7,33.5 49.6,32.7 C49.5,32.6 49.5,32.5 49.5,32.3 C49.5,31.8 49.5,31.2 49.3,30.7 L49.3,30.6 C49.3,30.5 49.3,30.4 49.3,30.4 C49.1,29.9 49,29.4 48.8,28.9 C48.8,28.8 48.8,28.8 48.7,28.7 L48.7,28.7 L48.7,28.7 C48.7,28.6 48.7,28.6 48.6,28.5 C48.6,28.5 48.6,28.5 48.6,28.4 L48.6,28.3 L48.6,28.3 C48.5,28.3 48.5,28.2 48.5,28.1 C48.5,28.1 48.5,28 48.4,28 C48.3,27.9 48.2,27.8 48.2,27.7 L48.2,27.7 C48.2,27.7 48.2,27.6 48.1,27.6 L48.1,27.6 C48.1,27.6 48.1,27.6 48.1,27.5 L48,27.4 L48,27.4 C47.8,27 47.5,26.7 47.3,26.4 C46.7,25.7 45.9,25.2 45.1,24.7 C44.3,24.2 43.4,24 42.5,23.8 C41.1,23.5 39.7,23.4 38.2,23.6 C37.2,23.7 36.2,23.8 35.1,24 C34.1,24.1 33.1,24.2 32.2,24.4 C31.1,24.6 29.9,24.7 28.8,24.9 C28.2,25 27.5,25 27.3,25.8 C27.3,38.3 27.3,50.7 27.3,63.2 C27.4,63.7 27.8,63.9 28.4,63.8 C29,63.7 29.7,63.6 30.3,63.5 C30.4,63.5 30.4,63.5 30.5,63.5 C30.7,63.4 30.9,63.3 31.2,63.3 C31.4,63.3 31.6,63.3 31.8,63.3 C31.8,63.3 31.8,63.3 31.9,63.3 C32,63.3 32,63.3 32.1,63.2 C32.2,63.1 32.3,63.1 32.4,63.2 C32.5,63.2 32.5,63.2 32.6,63.2 C32.7,63.1 32.9,63.2 33,63.2 C33.1,63.2 33.1,63.2 33.2,63.2 C34,63.1 34.7,63 35.5,62.9 C36.6,62.7 36.8,62.4 36.8,61.3 C36.8,57.4 36.8,53.5 36.8,49.6 C36.8,49.4 36.8,49.1 36.8,48.9 C36.8,48.5 37.1,48.2 37.5,48.1 C37.9,48.1 38.1,48.3 38.3,48.7 C38.9,50.8 39.5,53 40.1,55.1 C40.3,55.7 40.4,56.3 40.6,56.9 C40.8,57.8 41.1,58.6 41.3,59.5 C41.4,60 41.5,60.6 41.8,61.1 C42,61.5 42.3,61.7 42.8,61.7 C43.3,61.7 43.7,61.6 44.2,61.5 C44.3,61.5 44.3,61.5 44.4,61.5 C44.5,61.3 44.6,61.4 44.6,61.5 L44.7,61.5 C44.8,61.5 44.8,61.5 44.9,61.5 C46.3,61.3 47.8,61.1 49.2,60.9 C49.8,60.8 50.4,60.8 51,60.6 C51.4,60.5 51.6,60.3 51.7,59.9 C51.7,59.2 51.6,58.8 51.5,58.5 Z M40.2,36.1 C39.9,38 38.6,38.6 37.1,38.7 C36.6,38.7 36.3,38.5 36.2,37.9 C36.1,37.3 36.2,36.8 36.2,36.2 C36.2,35.6 36.2,35.1 36.2,34.5 C36.3,33.9 36.6,33.6 37.2,33.4 C37.9,33.2 38.5,33.2 39.1,33.5 C39.9,34.1 40.4,35.1 40.2,36.1 Z" id="Shape"></path>
  <path fill="#525252" d="M94.9,52.7 C94.9,52.9 94.9,53.1 94.8,53.2 L94.8,53.3 C94.8,53.8 94.4,54.2 93.9,54.3 C93.2,54.4 92.5,54.5 91.9,54.6 C90.6,54.8 89.2,55 87.9,55.2 C87.1,55.3 86.3,55.4 85.6,55.5 C85,55.6 84.7,55.3 84.5,54.7 C84.5,54.5 84.5,54.3 84.5,54.1 C84.5,42.2 84.5,30.2 84.5,18.3 C84.5,18.1 84.5,17.8 84.6,17.6 C84.7,17 85.1,16.7 85.6,16.7 C87.1,16.5 88.6,16.3 90.2,16.1 C91.5,15.9 92.7,15.7 94,15.6 C94.6,15.5 94.9,15.7 95,16.2 C95,16.3 95,16.4 95.1,16.5 C95.1,16.6 95.1,16.6 95.1,16.7 C95.2,17.3 95.1,17.9 95.1,18.5 C95.1,26 95.1,33.6 95.1,41.1 C95.1,41.4 95.1,41.6 95.1,41.9 C95.2,42 95.1,42.2 95.1,42.3 C94.9,45.7 94.9,49.2 94.9,52.7 Z" id="Path"></path>
  <path fill="#525252" d="M123.6,48.5 C123.6,49.7 123.1,50 122.1,50.2 C121.8,50.2 121.4,50.3 121.1,50.3 C120.5,50.5 119.9,50.5 119.3,50.6 C118.7,50.7 118.1,50.8 117.6,50.8 C116.6,50.9 116,50.7 115.6,49.8 C115.1,48.8 114.8,47.7 114.4,46.7 L114.4,46.7 C114.4,46.6 114.4,46.6 114.3,46.5 C113.8,45.6 113.5,44.6 113.1,43.6 C112.5,42.2 111.9,40.7 111.3,39.2 C111,38.5 110.6,38.4 110.1,38.9 C110.1,39 110.1,39 110,39.1 C110,39.2 110,39.2 109.9,39.3 L109.9,39.3 C109.9,39.4 109.9,39.5 109.9,39.6 C109.9,40 109.9,40.5 109.9,40.9 C110,41.3 110,41.8 109.9,42.2 C109.9,43.4 109.9,44.6 109.9,45.8 C110,46 110,46.3 109.9,46.5 L109.9,46.6 C110,46.8 110,47.1 109.9,47.3 C109.9,47.3 109.9,47.3 109.9,47.4 C109.9,47.5 109.9,47.5 109.9,47.6 C110,48.8 110,50 109.9,51.1 C109.9,51.6 109.5,51.9 109,52 C108.5,52.1 107.9,52.2 107.4,52.3 C106.9,52.3 106.4,52.3 105.9,52.5 L105.8,52.5 C104.8,52.5 103.9,52.8 103,52.8 C102.3,52.9 101.6,53.1 100.9,53 L100.8,52.9 L100.8,52.9 L100.8,52.9 L100.8,52.9 C100.6,52.6 100.6,52.2 100.6,51.8 C100.6,43.3 100.6,34.7 100.6,26.2 C100.6,22.9 100.6,19.5 100.6,16.2 C100.6,15.9 100.6,15.7 100.7,15.4 C100.8,14.8 101.1,14.5 101.8,14.4 C103.4,14.2 105,13.9 106.6,13.7 C106.9,13.7 107.3,13.6 107.6,13.7 C108,13.8 108.3,13.9 108.5,14.3 C108.9,15 109.2,15.7 109.4,16.5 C109.4,16.6 109.4,16.7 109.5,16.7 C109.5,16.7 109.5,16.8 109.6,16.8 C110,17.4 110.2,18.2 110.5,18.8 C110.9,19.7 111.2,20.6 111.6,21.4 C112.1,22.6 112.6,23.9 113.1,25.1 C113.1,25.2 113.2,25.2 113.2,25.3 C113.3,25.6 113.5,25.8 113.9,25.7 C114.3,25.6 114.4,25.4 114.4,25 C114.4,24.2 114.4,23.5 114.4,22.7 C114.4,22.6 114.4,22.4 114.4,22.3 C114.4,20.8 114.4,19.4 114.4,17.9 L114.4,17.9 C114.4,17.9 114.4,17.9 114.4,17.8 C114.4,16.4 114.4,15 114.4,13.5 C114.4,12.6 114.8,12.3 115.7,12.2 C117.7,11.9 119.7,11.6 121.8,11.3 C122.3,11.2 122.7,11 123.3,11.1 C123.5,11.1 123.7,11.2 123.9,11.4 L123.9,11.4 C123.9,11.4 123.9,11.5 124,11.5 L124,11.5 C124,11.5 124,11.6 124.1,11.6 L124.1,11.6 C124.1,11.7 124.1,11.7 124.1,11.8 L124.1,11.8 L124.1,11.8 C124.1,13.1 124.1,14.4 124.1,15.6 C124.1,15.8 124.1,16 124.1,16.2 C123.6,27.3 123.6,37.9 123.6,48.5 Z" id="Path"></path>
  <path fill="#525252" d="M139.5,10 C139.5,9.4 139.2,9 138.6,9.1 C138.1,9.1 137.6,9.2 137,9.3 C135.9,9.5 134.8,9.6 133.8,9.8 C132.6,10 131.3,10.1 130.1,10.3 C129.7,10.4 129.4,10.5 129.3,10.9 L129.3,10.9 C129.3,11 129.3,11 129.2,11.1 C129.2,11.1 129.2,11.1 129.2,11.2 C129.2,11.3 129.2,11.3 129.1,11.4 C129.1,23.6 129.1,35.8 129.1,47.9 C129.1,48.1 129.2,48.3 129.2,48.6 C129.2,48.7 129.2,48.8 129.3,48.9 L129.3,48.9 C129.3,48.9 129.3,48.9 129.4,49 L129.4,49 C129.4,49 129.5,49 129.5,49.1 L129.5,49.1 C129.5,49.2 129.6,49.2 129.7,49.2 C130.1,49.2 130.4,49.2 130.8,49.1 C130.9,49.1 131,49.1 131.1,49.1 C131.2,49.1 131.2,49.1 131.3,49.1 C131.4,48.9 131.5,49 131.6,49 C131.7,49 131.7,49 131.8,49 C132.1,49 132.5,48.9 132.8,48.9 C134.7,48.6 136.5,48.4 138.4,48.1 C139.1,48 139.6,47.6 139.6,46.8 C139.6,46.6 139.6,46.4 139.6,46.2 C139.6,34.4 139.6,22.5 139.6,10.7 C139.6,10.4 139.6,10.2 139.5,10 Z" id="Path"></path>
  <path fill="#525252" d="M200.1,0.4 C200.1,1.1 200.1,1.8 200.1,2.4 C200.1,2.6 200.1,2.7 199.8,2.7 C199.5,2.7 199.6,2.5 199.6,2.4 C199.6,2.1 199.6,1.7 199.6,1.4 C199.6,1.3 199.7,1.1 199.5,1.1 C199.4,1.1 199.3,1.2 199.3,1.3 C199.1,1.6 199,1.9 198.8,2.2 C198.5,1.9 198.3,1.5 198.1,1.2 L198,1.2 C198,1.7 198,2.1 198,2.6 C198,2.8 197.9,2.9 197.7,2.9 C197.4,2.9 197.5,2.7 197.5,2.6 C197.5,1.9 197.5,1.2 197.5,0.6 C197.5,0.5 197.5,0.3 197.7,0.3 C197.9,0.3 198,0.2 198.1,0.4 C198.3,0.7 198.5,1 198.8,1.4 C199,1 199.2,0.6 199.5,0.3 C199.6,0.2 199.6,0.1 199.8,-6.88338275e-15 C200,-6.88338275e-15 200.1,-6.88338275e-15 200.1,0.4 Z" id="Path"></path>
  <path fill="#525252" d="M196.9,1 L196.8,1 C196.2,1.1 196.2,1.1 196.2,1.8 C196.2,2.2 196.2,2.7 196.2,3.1 C196.2,3.3 196.1,3.4 195.9,3.4 C195.6,3.4 195.7,3.2 195.7,3.1 C195.7,2.8 195.7,2.6 195.7,2.3 C195.7,2.1 195.7,1.8 195.7,1.6 C195.7,1.3 195.6,1.2 195.3,1.3 C195.2,1.3 195.2,1.3 195.1,1.3 C195,1.3 194.8,1.3 194.8,1.1 C194.8,1 194.8,0.9 195,0.8 C195.6,0.7 196.2,0.6 196.7,0.5 C196.8,0.5 196.9,0.5 196.9,0.6 C197,0.8 197,0.9 196.9,1 Z" id="Path"></path>
</svg>
