<?xml version="1.0" encoding="UTF-8"?>
<svg viewBox="0 0 136 49" version="1.1" xmlns="http://www.w3.org/2000/svg" xmlns:xlink="http://www.w3.org/1999/xlink">
  <path fill="#525252" d="M42.2824456,1.15707674 C42.5909994,1.08765213 42.907267,1.07222444 43.0692578,1.07222444 C43.4626638,1.0645106 43.7480761,1.16479058 44.0643438,1.45020285 C44.5117468,1.88989201 44.4963191,2.63813496 44.5117468,5.82395292 C44.5117468,7.69841723 44.4577498,10.7299583 44.4114668,14.3323239 C44.3806114,15.3582652 44.3728975,16.114222 44.1800514,16.661905 C43.9949191,17.2173019 43.6323684,17.5335695 42.8995532,17.5181418 C42.5987132,17.5181418 42.3750117,17.4487172 42.1898794,17.410148 L42.1898794,17.9038341 L49.1940506,17.9038341 L49.1940506,17.3792926 C48.8469276,17.4487172 48.576943,17.4718588 48.43038,17.4718588 C47.3504417,17.4950003 47.088171,16.8933204 47.0187464,15.7825267 C46.9647494,15.1962745 46.9416079,11.4627736 46.9416079,11.4627736 C46.9416079,11.4550597 47.0650294,3.03154105 47.0958848,2.8155534 C47.1421679,1.6661905 47.3890109,1.04908291 48.4843769,1.07222444 C48.6155123,1.07222444 48.9317799,1.07222444 49.2711891,1.15707674 L49.2711891,0.640249129 L42.2824456,0.640249129 L42.2824456,1.15707674 Z M111.691622,1.15707674 C112.000176,1.08765213 112.316444,1.07222444 112.478434,1.07222444 C112.87184,1.0645106 113.157253,1.16479058 113.47352,1.45020285 C113.920923,1.88989201 113.905496,2.63813496 113.920923,5.82395292 C113.920923,7.69841723 113.866926,10.7299583 113.820643,14.3323239 C113.789788,15.3582652 113.782074,16.114222 113.589228,16.661905 C113.404096,17.2173019 113.041545,17.5335695 112.301016,17.5181418 C112.000176,17.5181418 111.776474,17.4487172 111.591342,17.410148 L111.591342,17.9038341 L118.595513,17.9038341 L118.595513,17.3792926 C118.24839,17.4487172 117.978406,17.4718588 117.831843,17.4718588 C116.751904,17.4950003 116.489634,16.8933204 116.420209,15.7825267 C116.366212,15.1962745 116.343071,11.4627736 116.343071,11.4627736 C116.343071,11.4550597 116.466492,3.03154105 116.497348,2.8155534 C116.543631,1.6661905 116.790474,1.04908291 117.88584,1.07222444 C118.016975,1.07222444 118.333243,1.07222444 118.672652,1.15707674 L118.672652,0.640249129 L111.683908,0.640249129 L111.691622,1.15707674 L111.691622,1.15707674 Z M7.64728187,17.1324496 C6.2279344,17.1324496 5.4719776,16.615622 4.83944232,15.9985144 C3.90606708,15.0882807 3.01897492,13.630364 3.01897492,9.63459231 C3.01897492,9.51888464 3.02668876,9.14862008 3.02668876,9.14862008 C3.02668876,8.8940632 3.01897492,8.75521399 3.01897492,8.61636478 C3.01897492,4.62059311 3.90606708,2.73841495 4.83944232,1.82818125 C5.4719776,1.21107365 6.2279344,0.694246043 7.64728187,0.694246043 C11.3267859,0.694246043 11.8821827,4.0189132 11.9901766,4.90600537 C11.9978904,4.89829153 12.414438,4.89829153 12.4221519,4.90600537 C12.414438,3.68721787 12.414438,2.59185189 12.414438,1.20335981 C11.5427736,0.509113765 8.93549397,1.77635684e-15 7.54700189,1.77635684e-15 C5.51826067,1.77635684e-15 3.6515102,0.694246043 2.4327227,1.87446432 C0.53511685,3.74892863 0.08,6.36392206 0.08,8.70893092 L0.08,9.53431233 C0.08,11.8793212 0.53511685,14.4943146 2.4327227,16.3687789 C3.6515102,17.556711 5.51826067,18.1738186 7.54700189,18.1738186 C8.93549397,18.1738186 11.1956505,17.6261356 11.9978904,17.163305 C12.3295857,15.7825267 12.4838626,14.8800069 12.8386995,13.5455117 L12.1058842,13.5455117 C12.0596012,14.077767 11.5967705,17.1324496 7.64728187,17.1324496 L7.64728187,17.1324496 Z M28.4129524,47.2164448 C26.9936049,47.2164448 26.2376481,46.6996172 25.6051129,46.0825096 C24.6717376,45.1722759 23.7846454,43.7143592 23.7846454,39.7185875 C23.7846454,39.6028798 23.7923593,39.2326153 23.7923593,39.2326153 C23.7923593,38.9780584 23.7846454,38.8392092 23.7846454,38.70036 C23.7846454,34.7045883 24.6717376,32.8224101 25.6051129,31.9121764 C26.2376481,31.2950689 27.0013188,30.7782412 28.4129524,30.7782412 C32.0924564,30.7782412 32.6478533,34.1029084 32.7558471,34.9900006 C32.7635609,34.9822867 33.1801086,34.9822867 33.1878224,34.9900006 C33.1801086,33.7712131 33.1801086,32.6758471 33.1801086,31.287355 C32.3007302,30.593109 29.7011645,30.0839952 28.3126724,30.0839952 C26.2839312,30.0839952 24.4171807,30.7782412 23.1983932,31.9584595 C21.3007874,33.8329238 20.8456705,36.4479173 20.8456705,38.7929261 L20.8456705,39.6183075 C20.8456705,41.9633164 21.3007874,44.5783098 23.1983932,46.4527741 C24.4094669,47.6407062 26.2839312,48.2578138 28.3126724,48.2578138 C29.7011645,48.2578138 31.9613211,47.7101308 32.7635609,47.2473002 C33.0875424,45.8665219 33.2495332,44.9640021 33.60437,43.6295069 L32.8715548,43.6295069 C32.8252717,44.1617622 32.362441,47.2164448 28.4129524,47.2164448 L28.4129524,47.2164448 Z M71.5024901,0.347123022 L71.4947763,0.347123022 C71.4947763,0.347123022 71.4870625,0.347123022 71.4793486,0.347123022 C69.5354597,0.354836866 67.7381338,1.04136906 66.5733432,2.22158734 C64.745162,4.09605165 64.3054728,6.71104508 64.3054728,9.05605394 L64.3054728,9.88143535 C64.3054728,12.2264442 64.745162,14.8414376 66.5733432,16.7159019 C67.7381338,17.8961202 69.5354597,18.5132278 71.4793486,18.5209417 L71.4947763,18.5209417 C71.4947763,18.5209417 71.5024901,18.5209417 71.5024901,18.5209417 C73.4463791,18.5132278 75.2437049,17.8961202 76.4084955,16.7159019 C78.2366768,14.8414376 78.6763659,12.2264442 78.6763659,9.88143535 L78.6763659,9.05605394 C78.6763659,6.71104508 78.2366768,4.09605165 76.4084955,2.22158734 C75.2359911,1.04136906 73.4386652,0.347123022 71.5024901,0.347123022 Z M76.0536586,10.1822753 C76.0536586,14.3323239 75.1588526,15.8365236 74.2177636,16.7853266 C73.600656,17.410148 72.852413,17.9269756 71.5024901,17.957831 C70.1525673,17.9269756 69.4120382,17.410148 68.7872167,16.7853266 C67.8461276,15.8365236 66.9513216,14.3323239 66.9513216,10.1822753 L66.9513216,9.12547854 C66.9513216,4.97542998 67.8384138,3.03154105 68.7872167,2.08273813 C69.4043243,1.45791669 70.1525673,0.941089081 71.5024901,0.910233701 C72.852413,0.941089081 73.5929421,1.45791669 74.2177636,2.08273813 C75.1588526,3.03154105 76.0536586,4.97542998 76.0536586,9.12547854 L76.0536586,10.1822753 Z M54.9254374,30.4311182 L54.9100097,30.4311182 C54.9100097,30.4311182 54.9022959,30.4311182 54.9022959,30.4311182 C52.9584069,30.4388321 51.1610811,31.1253643 49.9962905,32.3055825 C48.1681093,34.1800469 47.7284201,36.7950403 47.7284201,39.1400491 L47.7284201,39.9654305 C47.7284201,42.3104394 48.1681093,44.9254328 49.9962905,46.7998971 C51.1610811,47.9801154 52.9584069,48.597223 54.9022959,48.6049369 L54.9100097,48.6049369 C54.9100097,48.6049369 54.9177236,48.6049369 54.9254374,48.6049369 C56.8693263,48.597223 58.6666522,47.9801154 59.8314428,46.7998971 C61.659624,44.9254328 62.0993132,42.3104394 62.0993132,39.9654305 L62.0993132,39.1400491 C62.0993132,36.7950403 61.659624,34.1800469 59.8314428,32.3055825 C58.6666522,31.1253643 56.8693263,30.4311182 54.9254374,30.4311182 Z M59.4843198,40.2662705 C59.4843198,44.4163191 58.5972276,45.9205188 57.6484247,46.8693218 C57.0313171,47.4941432 56.2830741,48.0109708 54.9331512,48.0418262 C53.5832284,48.0109708 52.8426993,47.4941432 52.2178778,46.8693218 C51.2767888,45.9205188 50.3896966,44.4163191 50.3896966,40.2662705 L50.3896966,39.2094737 C50.3896966,35.0594252 51.2767888,33.1155363 52.2178778,32.1667333 C52.8349854,31.5419119 53.5832284,31.0250843 54.9331512,30.9942289 C56.2830741,31.0250843 57.0236032,31.5419119 57.6484247,32.1667333 C58.5895137,33.1155363 59.4843198,35.0594252 59.4843198,39.2094737 L59.4843198,40.2662705 Z M115.995948,30.7242443 C114.653739,30.7242443 113.5738,31.7810411 113.5738,33.0846809 C113.5738,34.3883207 114.661452,35.4528313 115.995948,35.4528313 C117.338157,35.4528313 118.425809,34.3883207 118.425809,33.0846809 C118.425809,31.7887549 117.338157,30.7242443 115.995948,30.7242443 Z M115.995948,35.1134221 C114.846585,35.1134221 113.920923,34.2109022 113.920923,33.0923947 C113.920923,31.9738872 114.846585,31.0713674 115.995948,31.0713674 C117.145311,31.0713674 118.070972,31.9738872 118.070972,33.0923947 C118.070972,34.2109022 117.145311,35.1134221 115.995948,35.1134221 Z M117.075886,32.4752871 C117.075886,31.9893149 116.829043,31.7193303 116.196508,31.7193303 L115.124283,31.7193303 L115.124283,34.4423176 L115.471406,34.4423176 L115.471406,33.2466716 L115.972806,33.2466716 L116.805901,34.4423176 L117.207021,34.4423176 L116.373926,33.2466716 C116.751904,33.1849609 117.075886,32.976687 117.075886,32.4752871 Z M115.918809,32.9458317 L115.471406,32.9458317 L115.471406,32.0201703 L116.096228,32.0201703 C116.397068,32.0201703 116.721049,32.1204503 116.721049,32.4675733 C116.721049,32.9226901 116.304501,32.9458317 115.918809,32.9458317 L115.918809,32.9458317 Z M105.211992,1.17250443 C105.420266,1.12622136 105.682537,1.05679675 105.921666,1.05679675 C106.484777,1.04136906 106.993891,1.10307982 107.209878,1.95931661 C107.449007,2.80012571 107.53386,4.38146392 107.53386,7.4515742 L107.53386,14.1471916 L107.310158,13.8617793 C106.492491,12.8049826 100.969378,2.9698303 100.059144,0.647962974 C99.6734518,0.671104508 98.716935,0.678818353 97.7372767,0.678818353 C96.7653323,0.678818353 95.7779601,0.671104508 95.3074156,0.647962974 L95.3074156,1.18021827 C95.5928278,1.11850751 95.932237,1.05679675 96.2176493,1.05679675 C96.6650523,1.05679675 97.0353168,1.07222444 97.2590183,1.41163362 C97.4827198,1.74332895 97.5521444,2.26787041 97.5521444,3.18581795 L97.5521444,8.3618079 C97.5521444,16.0987944 97.3130153,16.5924804 96.7576184,17.1324496 C96.47992,17.4024341 96.132797,17.4795726 95.7625324,17.4795726 C95.5465448,17.4795726 95.3691263,17.4332895 95.2302771,17.410148 L95.2302771,17.9115479 L100.599113,17.9115479 L100.599113,17.410148 C100.429409,17.4487172 100.25199,17.5027141 100.036003,17.5027141 C99.3263288,17.5181418 98.7863596,17.3330095 98.5318028,16.4459174 C98.269532,15.5665391 98.1923936,14.0083424 98.1846797,11.1542198 L98.1846797,2.82326724 L98.4160951,3.18581795 C99.4420365,4.80572539 106.415352,16.9318896 106.970749,17.9038341 L108.158681,17.9038341 C108.166395,16.8007542 108.212678,8.29238329 108.282103,3.96491629 C108.312958,2.67670419 108.413238,1.95931661 108.652367,1.52734129 C108.89921,1.08765213 109.346613,1.04908291 109.840299,1.04908291 C110.056287,1.04908291 110.256847,1.11079367 110.426552,1.16479058 L110.426552,0.632535284 L105.181137,0.632535284 L105.211992,1.17250443 L105.211992,1.17250443 Z M88.8432135,34.920576 L89.4448934,34.920576 C89.3831827,34.4886007 89.4911765,32.6604194 90.2008502,31.9738872 C90.8025301,31.387635 92.0676007,31.2487858 94.0500589,31.2487858 L94.1734804,31.2487858 L94.1734804,31.3722073 C94.1734804,31.835038 94.2737604,36.4787726 94.2737604,38.9163476 L94.2737604,41.7010457 C94.2737604,46.4296326 94.0654865,46.8538941 93.7337912,47.1855894 C93.5640866,47.3707217 93.2015359,47.501857 92.4301514,47.501857 C92.0444592,47.501857 91.7976161,47.455574 91.6433392,47.4324324 L91.6433392,47.9878293 L99.3340426,47.9878293 L99.3340426,47.4324324 C99.1797657,47.4478601 98.9329227,47.4941432 98.5472304,47.4941432 C97.775846,47.4941432 97.4132952,47.3707217 97.2435907,47.1855894 C96.9196092,46.8461802 96.7113354,46.4296326 96.7036215,41.7010457 L96.7036215,38.9163476 C96.7036215,36.4710588 96.8039015,31.835038 96.8039015,31.3722073 L96.8039015,31.2410719 L96.927323,31.2410719 C98.9097812,31.2410719 100.167138,31.3490658 100.768818,31.935318 C101.470778,32.6218502 101.586485,34.4808868 101.524775,34.9128621 L102.134168,34.9128621 L102.141882,30.7165305 L88.8354997,30.7165305 L88.8432135,34.920576 L88.8432135,34.920576 Z M67.8615553,36.3244957 C66.9513216,35.4991143 66.3727833,34.6737329 66.3650694,33.478087 C66.3650694,32.1204503 66.9898909,31.1947889 68.9183521,31.187075 C69.7745889,31.187075 70.6308257,31.3104965 71.2787886,31.7887549 C71.9267516,32.2747272 72.50529,33.1078224 72.50529,34.4577453 C72.50529,34.5965945 72.4975761,34.7662991 72.4898623,34.9128621 C72.4821484,34.9051483 73.1223976,34.9051483 73.1223976,34.9128621 L73.1223976,30.8013828 C72.8601268,30.8785212 72.5670007,30.8939489 72.2507331,30.8939489 C71.409924,30.8939489 70.5305457,30.6933889 69.5817428,30.6933889 C67.3447277,30.6933889 66.4576356,31.0636535 65.5859711,31.8427518 C64.7374481,32.6372779 64.2283344,33.9949146 64.4211805,35.1057082 C64.7528758,37.0341695 65.3468419,37.7515571 66.3804971,38.6772184 C68.4863768,40.5671105 71.9344655,42.0944517 71.9653208,44.5551683 C71.957607,46.1982172 70.3531272,47.4864293 68.625226,47.4941432 C65.9099526,47.5095709 65.0460019,46.0362265 64.945722,43.5215131 L64.3671836,43.5215131 C64.3671836,44.8482944 64.3748974,45.8048112 64.3748974,46.7150449 L64.3748974,47.9415462 C64.5908851,47.8721216 64.8762974,47.8412662 65.2234204,47.8412662 C66.7430478,47.8412662 67.4681492,48.0186846 68.6020845,48.0186846 C72.8986961,48.003257 73.9323513,45.2108451 73.9554928,43.2515285 C73.947779,40.2816982 71.2402194,39.3560368 67.8615553,36.3244957 L67.8615553,36.3244957 Z M106.862755,36.3244957 C105.952522,35.4991143 105.373983,34.6737329 105.366269,33.478087 C105.366269,32.1204503 105.991091,31.1947889 107.919552,31.187075 C108.775789,31.187075 109.632026,31.3104965 110.279989,31.7887549 C110.927952,32.2747272 111.50649,33.1078224 111.50649,34.4577453 C111.50649,34.5965945 111.498776,34.7662991 111.491062,34.9128621 C111.483348,34.9051483 112.123598,34.9051483 112.123598,34.9128621 L112.123598,30.8013828 C111.861327,30.8785212 111.568201,30.8939489 111.251933,30.8939489 C110.411124,30.8939489 109.531746,30.6933889 108.582943,30.6933889 C106.345928,30.6933889 105.458835,31.0636535 104.587171,31.8427518 C103.738648,32.6372779 103.229534,33.9949146 103.42238,35.1057082 C103.754076,37.0341695 104.348042,37.7515571 105.381697,38.6772184 C107.487577,40.5671105 110.935665,42.0944517 110.966521,44.5551683 C110.958807,46.1982172 109.354327,47.4864293 107.626426,47.4941432 C104.911153,47.5095709 104.039488,46.0362265 103.946922,43.5215131 L103.368384,43.5215131 C103.368384,44.8482944 103.376097,45.8048112 103.368384,46.7150449 L103.368384,47.9415462 C103.584371,47.8721216 103.869783,47.8412662 104.216906,47.8412662 C105.736534,47.8412662 106.461635,48.0186846 107.595571,48.0186846 C111.892182,48.003257 112.925837,45.2108451 112.941282,43.2515285 C112.948979,40.2816982 110.241419,39.3560368 106.862755,36.3244957 L106.862755,36.3244957 Z M27.286731,17.0244557 C27.0167465,16.6310497 26.6850511,15.8982344 26.2376481,14.5020285 C24.15491,7.9838295 22.365298,1.48105823 22.1338826,0.632535284 L19.9971476,0.632535284 C19.7117353,1.58133821 17.0967419,10.1899891 15.5462591,14.6640192 C14.9368653,16.3842066 14.5126039,17.4487172 13.2783887,17.4487172 C13.2321056,17.4487172 13.1703948,17.4410034 13.0932564,17.4178618 L13.0932564,17.9115479 L18.4389509,17.9115479 L18.4389509,17.3947203 C18.2306771,17.4410034 17.9915479,17.4872864 17.6752803,17.4872864 C17.189308,17.4872864 16.8576127,17.3792926 16.6493389,17.1555911 C16.4410651,16.9318896 16.3870682,16.6310497 16.3870682,16.2993543 C16.3870682,15.5433975 16.5644866,14.3477516 17.0504588,12.6661334 L17.6598526,10.6296783 L22.5581441,10.6296783 L23.4683778,14.077767 C23.7460762,15.0651391 23.8772116,15.7053883 23.8772116,16.1527913 C23.8772116,16.6696189 23.707507,17.0167419 23.4529501,17.2173019 C23.1983932,17.4178618 22.8898394,17.4950003 22.612141,17.4950003 C22.3575841,17.4950003 22.0875996,17.4487172 21.8716119,17.4024341 L21.8716119,17.9115479 L28.482377,17.9115479 L28.482377,17.4024341 C28.3589555,17.4487172 28.2046786,17.4950003 27.9964048,17.4950003 C27.8189863,17.5027141 27.5490018,17.4178618 27.286731,17.0244557 L27.286731,17.0244557 Z M22.2418765,10.0125707 C21.6479104,10.0588538 20.9382367,10.0588538 20.3134152,10.0588538 C18.5160894,10.0588538 18.2306771,10.0357122 17.9992618,10.0048569 L17.8526987,9.98942918 L17.8912679,9.85057997 C18.6472247,7.35900806 19.3029015,5.18370379 20.0897137,2.91583338 L20.2131352,2.56099651 L20.3288429,2.91583338 C21.0616582,5.18370379 21.6941935,7.48242958 22.3575841,9.85057997 L22.3884395,9.99714302 L22.2418765,10.0125707 L22.2418765,10.0125707 Z M133.884354,17.0244557 C133.614369,16.6310497 133.282674,15.8982344 132.842985,14.5020285 C130.760247,7.9838295 128.970635,1.48105823 128.739219,0.632535284 L126.602484,0.655676818 C126.317072,1.60447974 123.702079,10.1822753 122.151596,14.6563054 C121.534488,16.3764928 121.110227,17.4410034 119.883726,17.4410034 C119.837442,17.4410034 119.775732,17.4332895 119.698593,17.410148 L119.698593,17.9038341 L125.044288,17.9038341 L125.044288,17.3870065 C124.836014,17.4332895 124.596885,17.4795726 124.280617,17.4795726 C123.794645,17.4795726 123.46295,17.3715788 123.254676,17.1478773 C123.046402,16.9241758 122.992405,16.6233358 122.992405,16.2916405 C122.992405,15.5356837 123.169823,14.3400377 123.648082,12.6584195 L124.257476,10.6219645 L129.155767,10.6219645 L130.066001,14.0700531 C130.343699,15.0574253 130.474835,15.6976744 130.474835,16.1450774 C130.474835,16.661905 130.30513,17.0090281 130.050573,17.209588 C129.796016,17.410148 129.487462,17.4872864 129.209764,17.4872864 C128.947493,17.4872864 128.685223,17.4410034 128.469235,17.3947203 L128.469235,17.9038341 L135.08,17.9038341 L135.08,17.3947203 C134.956578,17.4410034 134.802302,17.4872864 134.594028,17.4872864 C134.416609,17.5027141 134.146625,17.4178618 133.884354,17.0244557 L133.884354,17.0244557 Z M128.839499,10.0125707 C128.245533,10.0588538 127.53586,10.0588538 126.911038,10.0588538 C125.113712,10.0588538 124.8283,10.0357122 124.596885,10.0048569 L124.450322,9.98942918 L124.488891,9.85057997 C125.244848,7.35900806 125.900525,5.18370379 126.687337,2.91583338 L126.810758,2.56099651 L126.926466,2.91583338 C127.659281,5.18370379 128.291816,7.48242958 128.947493,9.85057997 L128.986063,9.98942918 L128.839499,10.0125707 L128.839499,10.0125707 Z M51.1302257,0.640249129 L51.1302257,1.18793212 C51.3539272,1.1339352 51.6239118,1.10307982 51.9170379,1.10307982 C52.356727,1.10307982 52.6729947,1.14936289 52.9198377,1.35763671 C53.4289515,1.87446432 53.4598069,2.36815039 53.4598069,7.02731272 L53.4598069,9.5651677 C53.452093,14.9494315 53.4906622,16.4304897 52.7887024,17.1170219 C52.6498532,17.2558711 52.3490132,17.4795726 51.7396195,17.4718588 C51.4773487,17.4718588 51.315358,17.4024341 51.1225119,17.3792926 L51.1225119,17.9038341 L58.8517845,17.9038341 L58.8517845,17.3715788 C58.4969476,17.4641449 58.327243,17.4718588 57.6638524,17.4718588 C56.8461848,17.4718588 56.3447849,17.2481572 56.1210834,16.6464773 C55.9050957,16.0525113 55.9050957,15.173133 55.889668,13.7152163 L55.8356711,9.07919547 L57.0776001,9.07919547 C57.9415508,9.07919547 58.5432307,9.25661391 58.9366368,9.68087538 C59.322329,10.1128507 59.4611782,10.7530998 59.4611782,11.640192 L59.4611782,11.9101766 L60.1477104,11.9101766 L60.2479904,5.86252214 L59.7080213,5.86252214 C59.6385967,7.4515742 59.1911936,8.53922633 57.4632924,8.57779555 L55.8356711,8.63179247 L55.9128096,4.8597223 C55.9128096,3.67179018 55.9668065,2.56099651 56.0362311,1.27278441 L56.0439449,1.2187875 C56.0439449,1.2187875 56.8616125,1.18021827 58.4506645,1.18021827 C59.6540243,1.18021827 60.9499503,1.2187875 61.5207748,1.78189818 C62.1224547,2.37586424 62.4001531,2.98525799 62.3924393,4.43546083 C62.3924393,4.56659619 62.3924393,4.69001771 62.3847254,4.82886692 L63.0404023,4.82886692 L63.0789715,0.640249129 C63.0789715,0.640249129 61.2893595,0.655676818 59.7234489,0.655676818 C56.4219233,0.655676818 52.0250317,0.640249129 51.1302257,0.640249129 L51.1302257,0.640249129 Z M93.2169636,17.1941603 C92.8389852,16.8007542 92.2758745,15.4508314 91.5893423,13.8386378 C91.4119239,13.4375179 91.2345055,13.0132564 91.0416593,12.5735672 C90.2317056,10.6759614 89.6068842,9.22575853 88.6040843,9.07148163 C88.4960905,9.05605394 88.4960905,8.9634878 88.5809428,8.95577396 C91.6973362,8.64722016 92.353013,6.41791898 92.1138838,3.97263014 C91.9596069,2.39129193 90.8950963,0.663390663 87.0227461,0.640249129 C86.2976447,0.640249129 83.5206605,0.663390663 81.5767716,0.663390663 C80.7513902,0.663390663 80.0725719,0.655676818 79.7563042,0.647962974 L79.7563042,1.18793212 C80.1188549,1.08765213 80.5893995,1.0645106 80.8748117,1.0645106 C81.2450763,1.04136906 81.7387624,1.22650134 81.8390423,2.10587966 C81.9701777,2.99297183 82.0164608,4.61287926 82.0164608,7.92211874 L82.0164608,10.5679675 C82.0164608,16.6541912 81.7464762,16.8470373 81.4456362,17.1555911 C81.059944,17.5027141 80.6356825,17.4718588 80.4042672,17.4795726 C80.265418,17.4795726 79.964578,17.4332895 79.818015,17.3947203 L79.818015,17.9269756 L86.5676293,17.9269756 L86.5676293,17.3870065 C86.2976447,17.4641449 86.0508017,17.4795726 85.7808171,17.4795726 C84.8705834,17.4795726 84.6160265,16.6387635 84.5620296,16.2684989 C84.4694635,15.5511114 84.4000389,14.2166162 84.4000389,11.6016228 L84.4000389,9.22575853 L84.5157465,9.21804468 C84.7703034,9.19490315 85.3102726,9.17176161 85.5494017,9.17176161 C86.0430878,9.17176161 86.482777,9.24118622 86.7527616,9.52659848 C86.9918907,9.76572767 87.3467276,10.5139706 87.7478476,11.4859151 C87.7478476,11.4859151 88.3958105,13.1598194 88.7275059,14.0546254 C89.1826227,15.3119822 89.9771487,16.7698989 90.1159979,16.9936004 C90.4168379,17.4872864 91.0185178,17.9192618 91.80533,17.9192618 L94.4511788,17.9192618 L94.4511788,17.4332895 C93.9112096,17.4950003 93.5100897,17.4564311 93.2169636,17.1941603 L93.2169636,17.1941603 Z M86.5444877,8.74750014 L84.4000389,8.74750014 L84.4000389,6.43334667 C84.4000389,4.85200846 84.5311742,1.38077824 84.5311742,1.38077824 L84.6083127,1.34992286 C84.9785772,1.2187875 85.5108325,1.14164905 86.4519216,1.14164905 C86.9147523,1.14164905 87.6398537,1.14164905 88.2415336,1.58905205 C88.8509274,2.0441689 89.7071642,3.01611336 89.7071642,4.72087309 C89.7071642,6.54134049 89.1826227,7.28186961 88.6735089,7.89126336 C88.1643952,8.50065711 87.2541615,8.74750014 86.5444877,8.74750014 L86.5444877,8.74750014 Z M83.4203805,47.3630078 C82.5487161,47.3707217 81.1679378,47.3090109 80.7513902,46.4064911 C80.4891195,45.5579681 80.4428364,44.0923376 80.4274087,42.0635964 L80.4274087,39.1863322 L81.6153408,39.1863322 C82.2941592,39.1863322 83.2661037,39.4100337 83.5746574,39.842009 C83.8832112,40.2739843 84.0066328,40.8833781 84.0066328,41.6624764 C84.0066328,41.7704703 84.0066328,41.8861779 83.9989189,42.0018856 L84.7317342,42.0018856 L84.7625896,35.9310897 L84.3229004,35.9310897 C84.2534758,37.8826924 83.1426821,38.746643 81.260504,38.7157877 L80.4274087,38.7157877 L80.4274087,36.6639049 C80.4274087,35.1057082 80.4659779,32.2130164 80.7051071,31.2642135 L80.8208148,31.2642135 C81.0522302,31.2410719 81.059944,31.2102166 82.1244546,31.2179304 C83.3201006,31.2179304 84.7625896,31.2719273 85.4722633,31.7270442 C86.181937,32.182161 86.5984847,33.0229701 86.5984847,34.4808868 C86.5984847,34.6505914 86.5907708,34.7508714 86.583057,34.9360037 L87.1538815,34.9360037 C87.1538815,33.6169362 87.1615953,31.3567796 87.1615953,30.7473859 L75.8068156,30.7473859 L75.8068156,31.2719273 C75.984234,31.2333581 76.2310771,31.1716473 76.5242032,31.1716473 C76.8713262,31.1793612 77.3110154,31.187075 77.5424307,31.3953488 C78.0284029,31.8658934 78.0823999,32.4984287 78.0901137,36.7873264 L78.0901137,42.3644363 C78.0901137,44.2543283 78.0438306,45.5425404 77.827843,46.3756357 C77.627283,47.2087309 77.17988,47.5404263 76.5242032,47.5404263 C76.1539386,47.5404263 75.9996617,47.4864293 75.7682464,47.455574 L75.7682464,48.0186846 C76.2387909,48.0186846 86.1510817,48.0109708 87.1075984,48.0109708 C87.377583,46.1673619 87.5010045,45.3034112 87.7324199,43.5523684 L87.03046,43.5523684 C86.5444877,46.4450603 85.2562756,47.3784355 83.4203805,47.3630078 L83.4203805,47.3630078 Z M37.1218833,17.2944403 L37.0216033,17.2944403 C36.1499389,17.2944403 34.9311514,17.1710188 34.553173,16.3302097 C34.1983361,15.5588252 34.1597669,14.3014685 34.1597669,11.840752 L34.1597669,7.50557111 C34.1597669,4.60516542 34.2060499,3.22438718 34.2909022,2.46843038 C34.3603268,1.72790126 34.5223176,1.5967659 34.6534529,1.48105823 C34.9465791,1.19564596 36.1962219,1.11079367 36.4970619,1.15707674 L36.4970619,0.647962974 C35.995662,0.663390663 35.2088498,0.671104508 33.9437792,0.671104508 C32.1773087,0.671104508 30.2102783,0.655676818 29.5237461,0.647962974 L29.5237461,1.17250443 C30.0097183,1.07993829 31.4213519,1.20335981 31.5987704,1.86675047 C31.7839026,2.52242729 31.8301857,3.63322096 31.8301857,5.82395292 L31.8301857,11.987315 C31.8301857,14.2706131 31.7993303,15.5511114 31.5910565,16.3610651 C31.3982104,17.1710188 30.919952,17.4564311 30.2102783,17.4410034 C29.9017245,17.4410034 29.678023,17.3870065 29.4543215,17.3561511 L29.4543215,17.8961202 L40.8013873,17.8961202 C41.0713719,16.0525113 41.1947934,15.1962745 41.4184949,13.4529455 L40.7165351,13.4529455 C40.2459905,16.3687789 38.9577784,17.3021542 37.1218833,17.2944403 L37.1218833,17.2944403 Z M42.4984332,47.3784355 L42.3981532,47.3784355 C41.5264888,47.3784355 40.3077013,47.255014 39.9297229,46.4142049 C39.5825999,45.6428204 39.5440306,44.3854637 39.5363168,41.9247472 L39.5363168,37.5895663 C39.5363168,34.6891606 39.5825999,33.3083824 39.6674521,32.5524256 C39.7368767,31.8118965 39.8988675,31.6807611 40.0300029,31.5650534 C40.323129,31.2796412 41.5727718,31.1947889 41.8736118,31.2410719 L41.8736118,30.7319582 C41.3722119,30.7473859 40.5853997,30.7550997 39.3203291,30.7550997 C37.5538586,30.7550997 35.5868282,30.739672 34.900296,30.7319582 L34.900296,31.2564996 C35.3862682,31.1639335 36.7979018,31.287355 36.9753203,31.9507457 C37.1604525,32.6064225 37.2067356,33.7172162 37.2067356,35.9079481 L37.2067356,42.0713102 C37.2067356,44.3546083 37.1758802,45.6351066 36.9676064,46.4450603 C36.7747603,47.255014 36.2965019,47.5404263 35.5868282,47.5249986 C35.2705605,47.5249986 35.0545729,47.4710017 34.8231575,47.4401463 L34.8231575,47.9801154 L46.1702234,47.9801154 C46.440208,46.1365065 46.5636295,45.2802697 46.787331,43.5369407 L46.0853711,43.5369407 C45.6225404,46.4527741 44.3343283,47.3861494 42.4984332,47.3784355 L42.4984332,47.3784355 Z" fill-rule="nonzero"></path>
</svg>
