<svg height="37" viewBox="0 0 204 37" width="204" xmlns="http://www.w3.org/2000/svg"><g fill="#525252"><g transform="translate(0 .000396)"><path d="m11.3021299 23.8136625-11.3021299 10.8013571v.0059465l11.5796494-.2253036 11.9485714-14.1967679z"/><path d="m0 34.6207018v.0079286l1.40084416 1.7079464h11.43393504l-1.220026-1.9966786z"/><path d="m11.6144883 34.3394357 1.220026 1.9973393 10.9371818-13.0028571 11.832 13.0028571h2.7434026l-14.8191429-16.1379464z"/><path d="m10.3295532 28.3409429v-7.1092858l2.136039-.9408571v7.5519643z"/><path d="m12.4659234 27.8428304 2.8136104-2.7941608v-3.8724464l-2.8136104-.8853571z"/><path d="m45.0147857 6.96921429v4.40762501l1.8697792 1.1443571v-4.65671426l11.1272728-4.64746428-.0225195 33.11896424h13.8792857v-29.34826781l-13.0811688-6.98771429z"/><path d="m28.1587558 17.4218464v6.8945536l1.6558442 1.8288571.153-7.7429107 10.7603377-5.0894821v23.0239107h13.2487402v-18.9869464l-12.4983117-7.56187503z"/></g><g transform="translate(76.831169 6.605095)"><path d="m4.90533896 25.5218071c-3.64418182-3.1905892-4.6111948-7.3451607-4.6111948-10.94275 0-2.5232678.78155844-6.90049996 4.3508961-10.16508924 2.67716883-2.44794643 6.21007794-3.93191072 11.75185714-3.93191072 2.3049351 0 3.6806104.148 5.3914286.37066072 1.4134285.18566071 2.6036493.51932143 3.7190259.63032143.4093247.03766071.5576884.22266071.5576884.44532142 0 .29666072-.1112728.74198215-.1861169 2.04028572-.0735195 1.22430357-.0370909 3.26458928-.1112728 4.00657143-.0377532.55632143-.111935.85298214-.4464155.85298214-.2973896 0-.3715715-.29666071-.3715715-.81598214-.0377532-1.15030357-.519935-2.44794643-1.4505194-3.41258929-1.2266494-1.29830357-4.127026-2.29928571-7.5486624-2.29928571-3.2355195 0-5.355.81532143-6.99163635 2.29928571-2.71492207 2.48626786-3.42163636 6.00985713-3.42163636 9.60744643 0 8.829125 6.73133771 13.2063571 11.71476621 13.2063571 3.3097013 0 5.3172468-.3706607 6.8048572-2.0772857.6318701-.7049821 1.1160389-1.780625 1.2644026-2.4472857.1112727-.5946428.1861168-.7419821.4841688-.7419821.2596364 0 .3344805.2583393.3344805.5556607 0 .4453214-.4464156 3.67225-.8186493 4.9335536-.1861169.6309821-.3344806.8166428-.967013 1.0756428-1.4876104.5946429-4.3131429.8536429-6.6929221.8536429-5.0953636 0-9.37207792-1.1126429-12.75596104-4.0435715"/><path d="m44.2859494 17.509325c.1841298 0 .2225454-.1123214.1841298-.2233214l-3.3454675-9.16212503c-.0377533-.14866071-.0741818-.33366071-.1867792-.33366071-.1112728 0-.1854546.185-.2225455.33366071l-3.4216364 9.12512503c-.0364285.148 0 .2603214.1496884.2603214zm-7.5864156 1.854625c-.1861169 0-.2616234.0746607-.3344806.2966607l-2.0088701 5.3042143c-.3715714.9276429-.5576883 1.817625-.5576883 2.2636071 0 .6679822.3344805 1.1496429 1.4876104 1.1496429h.5583506c.4457533 0 .557026.074.557026.2966607 0 .2973214-.2225454.3713214-.6318701.3713214-1.1895585 0-2.7891039-.111-3.9422338-.111-.4086623 0-2.4546234.111-4.3886493.111-.4821818 0-.7053896-.074-.7053896-.3713214 0-.2226607.1483636-.2966607.4457532-.2966607.3351429 0 .8557403-.0363393 1.1531299-.074 1.7108182-.2226607 2.4168701-1.4839643 3.1606753-3.33925l9.3336623-23.296125c.4464156-1.07564286.6702858-1.48396429 1.0425195-1.48396429.3338182 0 .5563637.33366072.9292598 1.18730358.8921688 2.039625 6.8412857 17.17526781 9.2223896 22.81380361 1.4127662 3.3385892 2.4903896 3.8579107 3.2726104 4.0442321.5570259.1116607 1.1153766.148 1.5617922.148.2973896 0 .4835065.0376607.4835065.2966607 0 .2973214-.3351429.3713214-1.7101559.3713214-1.3392467 0-4.0535065 0-7.0293896-.074-.6696234-.037-1.1153766-.037-1.1153766-.2973214 0-.2226607.149026-.2966607.5212597-.333.2596364-.0753214.5186104-.4089821.3344805-.8536428l-2.9752207-7.8651429c-.0748442-.1843393-.1861169-.259-.3728961-.259z"/><path d="m63.771261 3.07879643-5.5404545.14866071c-2.1578961.074-3.0500649.259-3.6084156 1.07564286-.3709091.55566071-.5563636 1.00098214-.6318701 1.29764286-.0741818.29732143-.1861169.44532143-.4086624.44532143-.2602987 0-.3344805-.185-.3344805-.59332143 0-.59398215.706052-3.96891072.7802338-4.26557143.1112727-.48298214.2238701-.70564286.4464156-.70564286.2973896 0 .6702857.37132143 1.5988831.44532143 1.078948.111 2.4923766.185 3.7183636.185h14.7270779c1.1895585 0 2.0088702-.111 2.5658962-.185.5576883-.11166071.8557402-.185 1.0034415-.185.2616234 0 .2973896.22266071.2973896.77898214 0 .77832143-.1112727 3.33792857-.1112727 4.30257143-.0364286.37132143-.1106104.59398214-.3338182.59398214-.2980519 0-.3728961-.18632142-.4093247-.74198214l-.0370909-.40766071c-.0755065-.96464286-1.0776233-2.00394643-4.387987-2.07728572l-4.6853766-.11166071v15.20964287c0 3.4125893 0 6.3428571.1861169 7.9378214.1112727 1.0386429.3344805 1.8552857 1.4491948 2.0032857.5212597.0746607 1.3399091.1493215 1.896935.1493215.4099871 0 .5954416.111.5954416.296 0 .2596607-.2980519.3713214-.7067143.3713214-2.453961 0-4.7973117-.1116607-5.8391688-.1116607-.8550779 0-3.1977662.1116607-4.6853766.1116607-.4835065 0-.7431429-.1116607-.7431429-.3713214 0-.185.1483636-.296.5947792-.296.557026 0 1.0041039-.0746608 1.3392468-.1493215.7431428-.148.967013-.9646428 1.0782857-2.039625.1854545-1.558625.1854545-4.4888928.1854545-7.9014821z"/><path d="m85.2273584 11.7590625c0-5.63853571 0-6.67651786-.0748441-7.86448214-.0741818-1.26130357-.4457533-1.891625-1.2644026-2.07728572-.4086623-.11166071-.8915065-.148-1.3385844-.148-.3715715 0-.5947792-.07466071-.5947792-.37132143 0-.22266071.2973896-.29666071.8921688-.29666071 1.4134286 0 3.7554545.111 4.8350649.111.9285974 0 3.1242468-.111 4.537013-.111.4828442 0 .7802338.074.7802338.29666071 0 .29666072-.2238702.37132143-.5941169.37132143-.3728961 0-.6702857.03633929-1.116039.111-1.0041039.185-1.3014935.81598215-1.377 2.11428572-.0741818 1.18796428-.0741818 2.22594643-.0741818 7.86448214v6.5291786c0 3.59825 0 6.5285178.1496883 8.1234821.1106104 1.0023036.3715714 1.669625 1.4869481 1.8182857.5205974.074 1.3385844.148 1.8975974.148.408 0 .5934545.1116607.5934545.2973215 0 .259-.2973896.3706607-.7060519.3706607-2.4532987 0-4.7966494-.1116607-5.8020779-.1116607-.855078 0-3.1971039.1116607-4.6847143.1116607-.4841689 0-.7431429-.1116607-.7431429-.3706607 0-.1856608.1483636-.2973215.5941169-.2973215.559013 0 1.0047662-.074 1.3392467-.148.7438052-.1486607.967013-.7789821 1.0782858-1.8552857.1861168-1.5579643.1861168-4.4882321.1861168-8.0864821z"/><path d="m102.221751 25.5218071c-3.6448445-3.1905892-4.6118575-7.3451607-4.6118575-10.94275 0-2.5232678.7808961-6.90049996 4.3508965-10.16508924 2.677831-2.44794643 6.21074-3.93191072 11.752519-3.93191072 2.304273 0 3.68061.148 5.390766.37066072 1.414091.18566071 2.602987.51932143 3.719026.63032143.409325.03766071.558351.22266071.558351.44532142 0 .29666072-.112597.74198215-.186117 2.04028572-.074844 1.22430357-.037753 3.26458928-.111273 4.00657143-.037753.55632143-.112597.85298214-.447078.85298214-.297389 0-.371571-.29666071-.371571-.81598214-.037091-1.15030357-.519935-2.44794643-1.449857-3.41258929-1.227974-1.29830357-4.128351-2.29928571-7.549987-2.29928571-3.23552 0-5.355.81532143-6.990312 2.29928571-2.714922 2.48626786-3.421636 6.00985713-3.421636 9.60744643 0 8.829125 6.730675 13.2063571 11.713441 13.2063571 3.310364 0 5.317909-.3706607 6.80552-2.0772857.63187-.7049821 1.115376-1.780625 1.264402-2.4472857.111935-.5946428.186117-.7419821.483507-.7419821.260961 0 .335143.2583393.335143.5556607 0 .4453214-.446416 3.67225-.81865 4.9335536-.185454.6309821-.335142.8166428-.967013 1.0756428-1.48761.5946429-4.31248.8536429-6.692922.8536429-5.095363 0-9.371415-1.1126429-12.755298-4.0435715"/><path d="m125.443706 2.11481429c.125845 0 .21791-.01189286.276195-.037.058286-.02444643.102663-.05880358.133793-.10307143.030467-.04360715.047025-.09382143.047025-.14998215 0-.08655357-.030467-.15989285-.091402-.21869642-.060273-.05814286-.137766-.08721429-.231156-.08721429-.040403 0-.086104.00792857-.134455.02576786zm-.380844-.66666072h.618624c.155649 0 .272883.03435714.355013.10439286.08213.07003571.12187.15460714.12187.25371428 0 .08126786-.027818.152625-.082792.21341072-.054974.06144643-.146377.10901786-.272883.14139286l.33448.47703571c.041065.05616071.077494.09580357.109286.11760714.01987.01189286.04835.01982143.084779.023125v.05285715h-.29474l-.470922-.64816072h-.121871v.494875c.005299.03435714.021195.060125.045039.07730357.024507.01519643.071533.023125.143065.023125v.05285715h-.588155v-.05285715c.051662 0 .087428-.00594643.109948-.01783928.020532-.01321429.035766-.03039286.045701-.05417857.00861-.01717858.01126-.06673215.01126-.14866072v-.83646428c0-.07928572-.001325-.12553572-.003974-.13941072-.008611-.02444643-.021858-.04360714-.041728-.05682143-.01987-.01321428-.053649-.01982143-.102-.01982143zm.628559-.33894643c-.174195 0-.343753.04426786-.51.13478572-.164922.08853571-.29474.217375-.386805.38321428-.094052.16583929-.139754.337625-.139754.518 0 .17905357.044377.35083929.137767.51535715.089415.16385714.219233.29269642.382168.383875.165585.09117857.337793.13742857.516624.13742857.180156 0 .352363-.04625.517948-.13742857.164922-.09117858.293415-.22001786.384156-.383875.091402-.16451786.137766-.33630358.137766-.51535715 0-.180375-.047688-.35216071-.140416-.518-.092065-.16583928-.221883-.29467857-.387467-.38321428-.166247-.09051786-.33713-.13478572-.511987-.13478572zm0-.09778571c.191415 0 .377532.04823214.559675.14667857.181481.097125.323221.23653571.425883.41955357.103325.18103572.153.37066072.153.56755357 0 .19623215-.049675.38453572-.151013.56491072-.100013.17971428-.241091.32044643-.421247.41955357-.180818.09976786-.368922.15064286-.566298.15064286-.196052 0-.385481-.050875-.564974-.15064286-.180156-.09910714-.320572-.23983929-.420585-.41955357-.101337-.180375-.151013-.36867857-.151013-.56491072 0-.19689285.051-.38651785.153663-.56755357.102-.18301786.243078-.32242857.424558-.41955357.183468-.09844643.367598-.14667857.558351-.14667857z"/></g></g></svg>