<?xml version="1.0" encoding="utf-8"?>
<!-- Generator: Adobe Illustrator 23.0.4, SVG Export Plug-In . SVG Version: 6.00 Build 0)  -->
<svg version="1.1" id="layer" xmlns="http://www.w3.org/2000/svg" xmlns:xlink="http://www.w3.org/1999/xlink" x="0px" y="0px"
	 viewBox="0 0 652 250" style="enable-background:new 0 0 652 250;" xml:space="preserve">
<style type="text/css">
	.st0{fill:#525252;}
</style>
<g>
	<path class="st0" d="M65.83,82.3c0-21.65,16.21-34.72,33.53-34.72c16.89,0,26.91,9.93,29.97,21.56l-10.61,3.57
		c-1.95-8.06-8.15-14.52-19.35-14.52c-10.95,0-21.9,7.98-21.9,24.11c0,15.53,10.7,23.85,22.07,23.85c11.21,0,17.57-7.13,19.78-14.6
		l10.36,3.4c-2.97,11.29-13.16,22.07-30.14,22.07C81.54,116.93,65.83,104.03,65.83,82.3z M135.78,115.57V47.66h10.87v67.91H135.78z
		 M200.64,92.65c0,14.09-10.02,24.28-23.77,24.28c-13.58,0-23.68-10.19-23.68-24.28c0-14.01,10.02-24.19,23.68-24.19
		C190.62,68.46,200.64,78.65,200.64,92.65z M189.69,92.65c0-9.51-6.03-14.35-12.73-14.35c-6.62,0-12.73,4.84-12.73,14.35
		s6.11,14.52,12.73,14.52C183.66,107.17,189.69,102.25,189.69,92.65L189.69,92.65z M223.9,116.85c-10.87,0-17.23-8.06-17.23-18.17
		V69.9h10.87v26.82c0,5.6,2.63,10.44,9.17,10.44c6.28,0,9.59-4.24,9.59-10.19V69.99h10.87v37.35c0,2.8,0.17,5.6,0.51,8.32h-10.44
		c-0.25-1.7-0.34-3.4-0.34-5.09C234.59,114.64,229.24,116.85,223.9,116.85L223.9,116.85z M299.45,107.17c0,2.8,0.17,5.6,0.51,8.32
		h-10.44c-0.25-1.95-0.42-3.9-0.51-5.94c-2.12,3.82-6.96,7.05-13.41,7.05c-13.16,0-21.99-10.36-21.99-24.11
		c0-13.16,8.91-23.94,21.73-23.94c7.98,0,12.05,3.65,13.41,6.54V47.49h10.61L299.45,107.17z M276.78,107.09
		c7.13,0,12.14-5.94,12.14-14.6c0-8.74-4.84-14.18-11.97-14.18s-12.39,5.52-12.39,14.26S269.4,107.09,276.78,107.09z M352.84,115.57
		V87.14H321.6v28.44h-11.29V47.66h11.29v28.86h31.24V47.66h11.38v67.91H352.84z M416,102.5c-2.46,7.98-9.68,14.43-20.63,14.43
		c-12.39,0-23.34-9-23.34-24.45c0-14.43,10.7-24.02,22.24-24.02c14.09,0,22.33,9.25,22.33,23.77c0,1.19-0.08,2.29-0.25,3.48h-33.45
		c0.25,6.96,5.69,11.88,12.48,11.88c6.54,0,9.93-3.48,11.46-7.98L416,102.5z M405.64,87.65c-0.17-5.35-3.74-10.1-11.29-10.1
		c-5.86-0.08-10.7,4.33-11.21,10.1H405.64z M434.25,89.43l11.71-1.78c2.63-0.34,3.4-1.7,3.4-3.31c0-3.82-2.63-6.96-8.66-6.96
		c-5.69,0-8.91,3.65-9.42,8.23l-10.02-2.29c0.85-7.89,7.98-14.94,19.27-14.94c14.09,0,19.44,7.98,19.44,17.06v22.84
		c0,2.46,0.17,4.92,0.59,7.3h-10.1c-0.08-0.25-0.51-2.12-0.51-5.86c-2.12,3.48-6.62,7.22-14.09,7.22c-9.59,0-15.45-6.54-15.45-13.75
		C420.41,95.03,426.44,90.53,434.25,89.43L434.25,89.43z M449.36,96.64v-2.04l-11.88,1.78c-3.4,0.59-6.11,2.46-6.11,6.2
		c0,3.06,2.38,5.94,6.62,5.94C444.1,108.44,449.36,105.56,449.36,96.64L449.36,96.64z M468.89,115.57V47.66h10.87v67.91H468.89z
		 M503.27,69.82h9.51v9.68h-9.51v21.22c0,4.07,1.78,5.69,5.86,5.69c1.27,0,2.55-0.17,3.74-0.34v9c-0.68,0.25-2.72,1.02-6.62,1.02
		c-8.4,0-13.67-5.09-13.67-13.58v-23h-8.4v-9.68h2.38c4.84,0,7.05-3.06,7.05-7.13v-6.88h9.85L503.27,69.82z M530.18,115.57h-10.87
		V47.66h10.87v26.66c3.06-4.07,8.23-5.69,13.07-5.69c11.29,0,16.72,8.06,16.72,18.08v28.86h-10.87V88.58c0-5.6-2.55-10.1-9.42-10.1
		c-6.03,0-9.25,4.5-9.51,10.36L530.18,115.57z"/>
	<path class="st0" d="M568.21,46.05c3.82-0.08,6.88,2.97,6.96,6.79s-2.97,6.88-6.79,6.96c-3.82,0.08-6.88-2.97-6.96-6.79v-0.08
		C561.41,49.11,564.39,46.05,568.21,46.05z M568.21,58.44c2.97,0,5.35-2.38,5.35-5.52s-2.38-5.52-5.35-5.52
		c-2.97,0-5.35,2.38-5.35,5.52S565.23,58.44,568.21,58.44z M567.36,56.58h-1.44v-7.47h2.63c1.36-0.08,2.46,0.93,2.55,2.21v0.08
		c0,1.02-0.68,1.95-1.61,2.21l1.7,2.89h-1.61l-1.53-2.8h-0.59L567.36,56.58z M568.29,52.59c0.85,0,1.27-0.42,1.27-1.1
		s-0.42-1.1-1.27-1.1h-0.93v2.21H568.29z"/>
	<path class="st0" d="M421.86,187.39l-11.38-31.58c-0.17-0.51-0.34-1.02-0.34-1.53c0.08-1.53,1.27-2.72,2.8-2.63
		c1.44,0,2.38,0.93,2.8,2.29l9.42,27.16l9.51-27.25c0.42-1.27,1.27-2.21,2.72-2.21h0.25c1.53,0,2.46,0.93,2.89,2.21l9.34,27.25
		l9.51-27.33c0.34-1.19,1.19-2.12,2.72-2.12c1.44-0.08,2.72,1.1,2.72,2.55l0,0c-0.08,0.51-0.17,1.02-0.34,1.53l-11.38,31.66
		c-0.59,1.61-1.7,2.46-3.06,2.46h-0.17c-1.44,0-2.55-0.85-3.06-2.46l-9.34-26.82l-9.34,26.82c-0.51,1.61-1.61,2.46-3.06,2.46h-0.17
		C423.55,189.94,422.45,189,421.86,187.39"/>
	<path class="st0" d="M504.45,154.45c0-1.53,1.19-2.8,2.72-2.8s2.8,1.19,2.8,2.72c0,0.08,0,0.08,0,0.17v6.45
		c2.72-6.2,8.83-9.17,12.9-9.17c1.44-0.08,2.72,1.1,2.72,2.55c0,0.08,0,0.17,0,0.25c0,1.44-1.02,2.63-2.46,2.8
		c-7.22,0.85-13.16,6.28-13.16,17.06v12.65c0,1.53-1.19,2.8-2.72,2.8c0,0,0,0-0.08,0c-1.53,0-2.8-1.19-2.8-2.72v-0.08L504.45,154.45
		"/>
	<path class="st0" d="M543.59,189.94c-10.1,0-18.34-7.81-18.34-19.27v-0.17c0-10.7,7.47-19.27,17.57-19.27
		c10.87,0,16.98,9,16.98,18.76c0,1.44-1.1,2.55-2.55,2.63h-26.49c0.76,7.98,6.37,12.56,12.9,12.56c4.58,0,7.89-1.78,10.53-4.33
		c0.42-0.42,1.02-0.59,1.53-0.68c1.36,0,2.38,1.02,2.46,2.38c0,0.68-0.34,1.36-0.85,1.78C553.86,187.73,549.78,189.94,543.59,189.94
		 M554.37,168.46c-0.59-6.71-4.41-12.56-11.63-12.56c-6.37,0-11.21,5.35-11.88,12.56H554.37z"/>
	<path class="st0" d="M464.98,178.31v-0.17c0-7.89,6.45-12.05,15.96-12.05c3.9,0,7.72,0.51,11.46,1.61v-1.36
		c0-6.71-4.07-10.19-11.12-10.19c-3.74,0-5.94,0.51-8.66,1.7c-0.34,0.08-0.68,0.17-1.02,0.25c-1.36,0-2.38-1.02-2.46-2.38
		c-0.08-1.02,0.59-1.95,1.53-2.29c3.65-1.61,6.45-2.12,11.21-2.12c5.26,0,9.34,1.36,12.05,4.07c2.55,2.55,3.82,6.11,3.82,10.87
		v20.54c0.08,1.44-1.1,2.72-2.55,2.72c-0.08,0-0.08,0-0.17,0c-1.44,0.08-2.63-1.02-2.63-2.46c0-0.08,0-0.08,0-0.17v-3.57
		c-2.55,3.4-6.96,6.45-13.5,6.45C472.03,189.85,464.98,185.95,464.98,178.31 M492.48,175.42v-3.65c-3.57-1.02-7.22-1.61-10.95-1.61
		c-6.96,0-10.87,3.06-10.87,7.72v0.17c0,4.67,4.33,7.39,9.42,7.39C486.8,185.52,492.48,181.28,492.48,175.42"/>
	<path class="st0" d="M322.28,154.2c-1.19-2.63-4.33-3.74-6.88-2.55c-2.63,1.19-3.74,4.33-2.55,6.88l11.63,25.3
		c1.87,3.99,3.74,6.03,7.39,6.03c3.82,0,5.6-2.29,7.39-6.03c0,0,10.1-22.07,10.27-22.33c0.25-0.59,0.85-0.93,1.44-0.93
		c0.93,0,1.61,0.76,1.61,1.61v21.65c0,3.31,1.78,6.03,5.35,6.03s5.52-2.72,5.52-6.03v-17.74c0-3.4,2.46-5.6,5.77-5.6
		c3.31,0,5.52,2.29,5.52,5.6v17.74c0,3.31,1.87,6.03,5.43,6.03c3.57,0,5.43-2.72,5.43-6.03v-17.74c0-3.4,2.46-5.6,5.77-5.6
		c3.31,0,5.52,2.29,5.52,5.6v17.74c0,3.31,1.87,6.03,5.43,6.03s5.52-2.72,5.52-6.03v-20.12c0-7.39-5.94-12.56-13.07-12.56
		s-11.63,4.92-11.63,4.92c-2.38-3.14-5.69-4.92-11.21-4.92c-5.86,0-10.95,4.92-10.95,4.92c-2.38-3.14-6.45-4.92-9.76-4.92
		c-5.18,0-9.34,2.29-11.8,7.98l-7.47,17.57L322.28,154.2"/>
	<path class="st0" d="M559.89,155.98L559.89,155.98c0-2.55,2.04-4.58,4.5-4.58s4.5,2.04,4.5,4.5l0,0l0,0c0,2.46-2.04,4.5-4.5,4.58
		C561.92,160.57,559.89,158.53,559.89,155.98C559.89,156.07,559.89,156.07,559.89,155.98 M568.04,155.98L568.04,155.98
		c0-2.04-1.61-3.65-3.57-3.74h-0.08c-2.04,0-3.65,1.7-3.65,3.74l0,0l0,0c0,2.04,1.61,3.65,3.65,3.65
		C566.42,159.63,568.04,158.1,568.04,155.98"/>
	<path class="st0" d="M562.69,154.2c0-0.25,0.25-0.51,0.51-0.51l0,0h1.53c0.51,0,0.93,0.17,1.27,0.42c0.59,0.59,0.51,1.53-0.08,2.04
		c-0.08,0.08-0.25,0.25-0.42,0.25l0.68,0.85c0.08,0.08,0.17,0.25,0.17,0.34c0,0.25-0.25,0.42-0.51,0.42c-0.17,0-0.34-0.08-0.42-0.25
		l-0.93-1.19h-0.76v0.93c0,0.25-0.17,0.51-0.42,0.51l0,0c-0.25,0-0.51-0.17-0.51-0.51L562.69,154.2z M564.64,155.81
		c0.42,0,0.76-0.25,0.76-0.59l0,0c0-0.42-0.25-0.68-0.76-0.68h-0.93v1.27H564.64z"/>
	<path class="st0" d="M276.7,177.2c0,6.79-4.33,11.63-10.19,11.63c-3.31,0.08-6.45-1.7-8.06-4.67v4.16h-3.23v-29.97h3.23v11.97
		c1.61-2.97,4.67-4.75,8.06-4.67C272.37,165.66,276.7,170.41,276.7,177.2z M273.3,177.2c0-5.09-3.06-8.66-7.39-8.66
		c-4.33,0-7.47,3.57-7.47,8.66s3.06,8.74,7.47,8.74C270.25,185.95,273.3,182.3,273.3,177.2L273.3,177.2z"/>
	<path class="st0" d="M282.05,195.28l0.76-2.72c0.85,0.42,1.7,0.59,2.63,0.59c1.44,0,2.38-0.51,3.23-1.95l1.27-2.72l-9.59-22.24
		h3.57l7.72,18.42l7.3-18.42h3.48l-10.1,24.62c-1.53,3.74-3.65,5.18-6.71,5.18C284.34,195.96,283.15,195.71,282.05,195.28z"/>
</g>
</svg>
