<?xml version="1.0" encoding="UTF-8"?>
<svg viewBox="0 0 511 151" version="1.1" xmlns="http://www.w3.org/2000/svg" xmlns:xlink="http://www.w3.org/1999/xlink">
    <path fill="#525252" d="M0.83,36.3 C0.83,14.65 17.04,1.58 34.36,1.58 C51.25,1.58 61.27,11.51 64.33,23.14 L53.72,26.71 C51.77,18.65 45.57,12.19 34.37,12.19 C23.42,12.19 12.47,20.17 12.47,36.3 C12.47,51.83 23.17,60.15 34.54,60.15 C45.75,60.15 52.11,53.02 54.32,45.55 L64.68,48.95 C61.71,60.24 51.52,71.02 34.54,71.02 C16.54,70.93 0.83,58.03 0.83,36.3 Z M70.78,69.57 L70.78,1.66 L81.65,1.66 L81.65,69.57 L70.78,69.57 Z M135.64,46.65 C135.64,60.74 125.62,70.93 111.87,70.93 C98.29,70.93 88.19,60.74 88.19,46.65 C88.19,32.64 98.21,22.46 111.87,22.46 C125.62,22.46 135.64,32.65 135.64,46.65 Z M124.69,46.65 C124.69,37.14 118.66,32.3 111.96,32.3 C105.34,32.3 99.23,37.14 99.23,46.65 C99.23,56.16 105.34,61.17 111.96,61.17 C118.66,61.17 124.69,56.25 124.69,46.65 L124.69,46.65 Z M158.9,70.85 C148.03,70.85 141.67,62.79 141.67,52.68 L141.67,23.9 L152.54,23.9 L152.54,50.72 C152.54,56.32 155.17,61.16 161.71,61.16 C167.99,61.16 171.3,56.92 171.3,50.97 L171.3,23.99 L182.17,23.99 L182.17,61.34 C182.17,64.14 182.34,66.94 182.68,69.66 L172.24,69.66 C171.99,67.96 171.9,66.26 171.9,64.57 C169.59,68.64 164.24,70.85 158.9,70.85 L158.9,70.85 Z M234.45,61.17 C234.45,63.97 234.62,66.77 234.96,69.49 L224.52,69.49 C224.27,67.54 224.1,65.59 224.01,63.55 C221.89,67.37 217.05,70.6 210.6,70.6 C197.44,70.6 188.61,60.24 188.61,46.49 C188.61,33.33 197.52,22.55 210.34,22.55 C218.32,22.55 222.39,26.2 223.75,29.09 L223.75,1.49 L234.36,1.49 L234.45,61.17 Z M211.78,61.09 C218.91,61.09 223.92,55.15 223.92,46.49 C223.92,37.75 219.08,32.31 211.95,32.31 C204.82,32.31 199.56,37.83 199.56,46.57 C199.56,55.31 204.4,61.09 211.78,61.09 Z M287.84,69.57 L287.84,41.14 L256.6,41.14 L256.6,69.58 L245.31,69.58 L245.31,1.66 L256.6,1.66 L256.6,30.52 L287.84,30.52 L287.84,1.66 L299.22,1.66 L299.22,69.57 L287.84,69.57 Z M351,56.5 C348.54,64.48 341.32,70.93 330.37,70.93 C317.98,70.93 307.03,61.93 307.03,46.48 C307.03,32.05 317.73,22.46 329.27,22.46 C343.36,22.46 351.6,31.71 351.6,46.23 C351.6,47.42 351.52,48.52 351.35,49.71 L317.9,49.71 C318.15,56.67 323.59,61.59 330.38,61.59 C336.92,61.59 340.31,58.11 341.84,53.61 L351,56.5 Z M340.64,41.65 C340.47,36.3 336.9,31.55 329.35,31.55 C323.49,31.47 318.65,35.88 318.14,41.65 L340.64,41.65 Z M369.25,43.43 L380.96,41.65 C383.59,41.31 384.36,39.95 384.36,38.34 C384.36,34.52 381.73,31.38 375.7,31.38 C370.01,31.38 366.79,35.03 366.28,39.61 L356.26,37.32 C357.11,29.43 364.24,22.38 375.53,22.38 C389.62,22.38 394.97,30.36 394.97,39.44 L394.97,62.28 C394.97,64.74 395.14,67.2 395.56,69.58 L385.46,69.58 C385.38,69.33 384.95,67.46 384.95,63.72 C382.83,67.2 378.33,70.94 370.86,70.94 C361.27,70.94 355.41,64.4 355.41,57.19 C355.41,49.03 361.44,44.53 369.25,43.43 L369.25,43.43 Z M384.36,50.64 L384.36,48.6 L372.48,50.38 C369.08,50.97 366.37,52.84 366.37,56.58 C366.37,59.64 368.75,62.52 372.99,62.52 C379.1,62.44 384.36,59.56 384.36,50.64 L384.36,50.64 Z M403.89,69.57 L403.89,1.66 L414.76,1.66 L414.76,69.57 L403.89,69.57 Z M438.27,23.82 L447.78,23.82 L447.78,33.5 L438.27,33.5 L438.27,54.72 C438.27,58.79 440.05,60.41 444.13,60.41 C445.4,60.41 446.68,60.24 447.87,60.07 L447.87,69.07 C447.19,69.32 445.15,70.09 441.25,70.09 C432.85,70.09 427.58,65 427.58,56.51 L427.58,33.51 L419.18,33.51 L419.18,23.83 L421.56,23.83 C426.4,23.83 428.61,20.77 428.61,16.7 L428.61,9.82 L438.46,9.82 L438.27,23.82 Z M465.18,69.57 L454.31,69.57 L454.31,1.66 L465.18,1.66 L465.18,28.32 C468.24,24.25 473.41,22.63 478.25,22.63 C489.54,22.63 494.97,30.69 494.97,40.71 L494.97,69.57 L484.1,69.57 L484.1,42.58 C484.1,36.98 481.55,32.48 474.68,32.48 C468.65,32.48 465.43,36.98 465.17,42.84 L465.18,69.57 Z" id="Shape"></path>
    <path fill="#525252" d="M503.21,0.05 C507.03,-0.03 510.09,3.02 510.17,6.84 C510.25,10.66 507.2,13.72 503.38,13.8 C499.56,13.88 496.5,10.83 496.419975,7.01 L496.419975,6.93 C496.41,3.11 499.39,0.05 503.21,0.05 Z M503.21,12.44 C506.18,12.44 508.56,10.06 508.56,6.92 C508.56,3.78 506.18,1.4 503.21,1.4 C500.24,1.4 497.86,3.78 497.86,6.92 C497.86,10.06 500.23,12.44 503.21,12.44 Z M502.36,10.58 L500.92,10.58 L500.92,3.11 L503.55,3.11 C504.91,3.03 506.01,4.04 506.1,5.32 L506.1,5.4 C506.1,6.42 505.42,7.35 504.49,7.61 L506.19,10.5 L504.58,10.5 L503.05,7.7 L502.46,7.7 L502.36,10.58 Z M503.29,6.59 C504.14,6.59 504.56,6.17 504.56,5.49 C504.56,4.81 504.14,4.39 503.29,4.39 L502.36,4.39 L502.36,6.6 L503.29,6.6 L503.29,6.59 Z" id="Shape"></path>
    <path fill="#525252" d="M356.86,141.39 L345.48,109.81 C345.31,109.3 345.14,108.79 345.14,108.28 C345.22,106.75 346.41,105.56 347.94,105.65 C349.38,105.65 350.32,106.58 350.74,107.94 L360.16,135.1 L369.67,107.85 C370.09,106.58 370.94,105.64 372.39,105.64 L372.64,105.64 C374.17,105.64 375.1,106.57 375.53,107.85 L384.87,135.1 L394.38,107.77 C394.72,106.58 395.57,105.65 397.1,105.65 C398.54,105.57 399.82,106.75 399.82,108.2 L399.82,108.2 C399.74,108.71 399.65,109.22 399.48,109.73 L388.1,141.39 C387.51,143 386.4,143.85 385.04,143.85 L384.87,143.85 C383.43,143.85 382.32,143 381.81,141.39 L372.47,114.57 L363.13,141.39 C362.62,143 361.52,143.85 360.07,143.85 L359.9,143.85 C358.55,143.94 357.45,143 356.86,141.39" id="Path"></path>
    <path fill="#525252" d="M439.45,108.45 C439.45,106.92 440.64,105.65 442.17,105.65 C443.7,105.65 444.97,106.84 444.97,108.37 C444.97,108.45 444.97,108.45 444.97,108.54 L444.97,114.99 C447.69,108.79 453.8,105.82 457.87,105.82 C459.31,105.74 460.59,106.92 460.59,108.37 C460.59,108.45 460.59,108.54 460.59,108.62 C460.59,110.06 459.57,111.25 458.13,111.42 C450.91,112.27 444.97,117.7 444.97,128.48 L444.97,141.13 C444.97,142.66 443.78,143.93 442.25,143.93 C442.25,143.93 442.25,143.93 442.17,143.93 C440.64,143.93 439.37,142.74 439.37,141.21 L439.37,141.13 L439.45,108.45" id="Path"></path>
    <path fill="#525252" d="M478.59,143.94 C468.49,143.94 460.25,136.13 460.25,124.67 L460.25,124.5 C460.25,113.8 467.72,105.23 477.82,105.23 C488.69,105.23 494.8,114.23 494.8,123.99 C494.8,125.43 493.7,126.54 492.25,126.62 L465.76,126.62 C466.52,134.6 472.13,139.18 478.66,139.18 C483.24,139.18 486.55,137.4 489.19,134.85 C489.61,134.43 490.21,134.26 490.72,134.17 C492.08,134.17 493.1,135.19 493.18,136.55 C493.18,137.23 492.84,137.91 492.33,138.33 C488.86,141.73 484.78,143.94 478.59,143.94 L478.59,143.94 Z M489.37,122.46 C488.78,115.75 484.96,109.9 477.74,109.9 C471.37,109.9 466.53,115.25 465.86,122.46 L489.37,122.46 Z" id="Shape"></path>
    <path fill="#525252" d="M399.98,132.31 L399.98,132.14 C399.98,124.25 406.43,120.09 415.94,120.09 C419.84,120.09 423.66,120.6 427.4,121.7 L427.4,120.34 C427.4,113.63 423.33,110.15 416.28,110.15 C412.54,110.15 410.34,110.66 407.62,111.85 C407.28,111.93 406.94,112.02 406.6,112.1 C405.24,112.1 404.22,111.08 404.14,109.72 C404.06,108.7 404.73,107.77 405.67,107.43 C409.32,105.82 412.12,105.31 416.88,105.31 C422.14,105.31 426.22,106.67 428.93,109.38 C431.48,111.93 432.75,115.49 432.75,120.25 L432.75,140.79 C432.83,142.23 431.65,143.51 430.2,143.51 C430.12,143.51 430.12,143.51 430.03,143.51 C428.59,143.59 427.4,142.49 427.4,141.05 C427.4,140.97 427.4,140.97 427.4,140.88 L427.4,137.31 C424.85,140.71 420.44,143.76 413.9,143.76 C407.03,143.85 399.98,139.95 399.98,132.31 M427.48,129.42 L427.48,125.77 C423.91,124.75 420.26,124.16 416.53,124.16 C409.57,124.16 405.66,127.22 405.66,131.88 L405.66,132.05 C405.66,136.72 409.99,139.44 415.08,139.44 C421.8,139.52 427.48,135.28 427.48,129.42" id="Shape"></path>
    <path fill="#525252" d="M257.28,108.2 C256.09,105.57 252.95,104.46 250.4,105.65 C247.77,106.84 246.66,109.98 247.85,112.53 L259.48,137.83 C261.35,141.82 263.22,143.86 266.87,143.86 C270.69,143.86 272.47,141.57 274.26,137.83 C274.26,137.83 284.36,115.76 284.53,115.5 C284.78,114.91 285.38,114.57 285.97,114.57 C286.9,114.57 287.58,115.33 287.58,116.18 L287.58,137.83 C287.58,141.14 289.36,143.86 292.93,143.86 C296.5,143.86 298.45,141.14 298.45,137.83 L298.45,120.09 C298.45,116.69 300.91,114.49 304.22,114.49 C307.53,114.49 309.74,116.78 309.74,120.09 L309.74,137.83 C309.74,141.14 311.61,143.86 315.17,143.86 C318.74,143.86 320.6,141.14 320.6,137.83 L320.6,120.09 C320.6,116.69 323.06,114.49 326.37,114.49 C329.68,114.49 331.89,116.78 331.89,120.09 L331.89,137.83 C331.89,141.14 333.76,143.86 337.32,143.86 C340.88,143.86 342.84,141.14 342.84,137.83 L342.84,117.71 C342.84,110.32 336.9,105.15 329.77,105.15 C322.64,105.15 318.14,110.07 318.14,110.07 C315.76,106.93 312.45,105.15 306.93,105.15 C301.07,105.15 295.98,110.07 295.98,110.07 C293.6,106.93 289.53,105.15 286.22,105.15 C281.04,105.15 276.88,107.44 274.42,113.13 L266.95,130.7 L257.28,108.2" id="Path"></path>
    <path fill="#525252" d="M494.89,109.98 L494.89,109.98 C494.89,107.43 496.93,105.4 499.39,105.4 C501.85,105.4 503.89,107.44 503.89,109.9 L503.89,109.9 L503.89,109.9 C503.89,112.36 501.85,114.4 499.39,114.48 C496.92,114.57 494.89,112.53 494.89,109.98 C494.89,110.07 494.89,110.07 494.89,109.98 M503.04,109.98 L503.04,109.98 C503.04,107.94 501.43,106.33 499.47,106.24 L499.39,106.24 C497.35,106.24 495.74,107.94 495.74,109.98 L495.74,109.98 L495.74,109.98 C495.74,112.02 497.35,113.63 499.39,113.63 C501.42,113.63 503.04,112.1 503.04,109.98" id="Shape"></path>
    <path fill="#525252" d="M497.69,108.2 C497.69,107.95 497.94,107.69 498.2,107.69 L498.2,107.69 L499.73,107.69 C500.24,107.69 500.66,107.86 501,108.11 C501.59,108.7 501.51,109.64 500.92,110.15 C500.84,110.23 500.67,110.4 500.5,110.4 L501.18,111.25 C501.26,111.33 501.35,111.5 501.35,111.59 C501.35,111.84 501.1,112.01 500.84,112.01 C500.67,112.01 500.5,111.93 500.42,111.76 L499.49,110.57 L498.73,110.57 L498.73,111.5 C498.73,111.75 498.56,112.01 498.31,112.01 L498.31,112.01 C498.06,112.01 497.8,111.84 497.8,111.5 L497.69,108.2 Z M499.64,109.81 C500.06,109.81 500.4,109.56 500.4,109.22 L500.4,109.22 C500.4,108.8 500.15,108.54 499.64,108.54 L498.71,108.54 L498.71,109.81 L499.64,109.81 Z" id="Shape"></path>
    <path fill="#525252" d="M211.7,131.2 C211.7,137.99 207.37,142.83 201.51,142.83 C198.2,142.91 195.06,141.13 193.45,138.16 L193.45,142.32 L190.22,142.32 L190.22,112.35 L193.45,112.35 L193.45,124.32 C195.06,121.35 198.12,119.57 201.51,119.65 C207.37,119.66 211.7,124.41 211.7,131.2 Z M208.3,131.2 C208.3,126.11 205.24,122.54 200.91,122.54 C196.58,122.54 193.44,126.11 193.44,131.2 C193.44,136.29 196.5,139.94002 200.91,139.94002 C205.25,139.95 208.3,136.3 208.3,131.2 L208.3,131.2 Z" id="Shape"></path>
    <path fill="#525252" d="M217.05,149.28 L217.81,146.56 C218.66,146.98 219.51,147.15 220.44,147.15 C221.88,147.15 222.82,146.64 223.67,145.2 L224.94,142.48 L215.35,120.24 L218.92,120.24 L226.64,138.66 L233.94,120.24 L237.42,120.24 L227.32,144.86 C225.79,148.6 223.67,150.04 220.61,150.04 C219.34,149.96 218.15,149.71 217.05,149.28 Z" id="Path"></path>
</svg>
