<svg height="601" viewBox="0 0 2037 601" width="2037" xmlns="http://www.w3.org/2000/svg" xmlns:xlink="http://www.w3.org/1999/xlink"><linearGradient id="a" x1="-.00022%" x2="100.000285%" y1="49.998717%" y2="49.998717%"><stop offset=".005128205" stop-color="#5bc1a6"/><stop offset="1" stop-color="#211645"/></linearGradient><g fill="none"><path d="m.06 140.96c0-87.73 65.71-140.53 135.59-140.53 68.36 0 109 40.26 121.16 87.35l-42.92 14.43c-7.98-32.66-33.04-58.87-78.24-58.87-44.44 0-88.88 32.28-88.88 97.61 0 63.05 43.3 96.47 89.25 96.47 45.2 0 71.02-28.87 80.14-59.25l41.78 13.67c-12.15 45.58-53.17 89.25-121.92 89.25-72.54.01-135.96-52.4-135.96-140.13zm283.22 134.45v-274.98h44.06v274.98zm262.41-92.67c0 56.97-40.64 98.37-96.09 98.37-55.07 0-95.71-41.4-95.71-98.37 0-56.59 40.64-97.99 95.71-97.99 55.45 0 96.09 41.39 96.09 97.99zm-44.44 0c0-38.36-24.31-58.11-51.65-58.11-26.97 0-51.65 19.75-51.65 58.11s24.69 58.87 51.65 58.87c27.34-.01 51.65-20.14 51.65-58.87zm138.6 97.98c-44.06 0-69.88-32.67-69.88-73.68v-116.6h44.06v108.62c0 22.79 10.63 42.16 37.22 42.16 25.45 0 38.74-17.09 38.74-41.4v-109.38h44.06v151.16c0 15.19 1.14 26.97 1.9 33.8h-42.16c-.76-4.18-1.52-12.91-1.52-20.51-9.13 16.72-30.77 25.83-52.42 25.83zm305.7-39.12c0 16.71 1.52 30.76 1.9 33.8h-42.16c-.76-4.18-1.9-16.33-1.9-23.93-8.74 15.57-28.1 28.48-54.31 28.48-53.17 0-88.88-41.78-88.88-97.61 0-53.17 36.08-96.85 88.11-96.85 32.28 0 48.61 14.81 54.31 26.58v-111.64h42.92v241.17zm-91.53-.38c28.87 0 48.99-23.93 48.99-59.25s-19.75-57.35-48.61-57.35-50.13 22.41-50.13 57.73c0 35.33 19.75 58.87 49.75 58.87zm307.65 34.19v-115.08h-126.47v115.08h-45.57v-274.98h45.57v116.98h126.47v-116.98h45.96v274.98zm255.87-52.8c-9.87 32.28-39.12 58.49-83.56 58.49-50.13 0-94.57-36.46-94.57-99.13 0-58.49 43.3-97.23 90.01-97.23 56.97 0 90.39 37.6 90.39 96.09 0 7.22-.76 13.29-1.14 14.05h-135.21c1.14 28.1 23.17 48.23 50.51 48.23 26.59 0 40.26-14.05 46.34-32.28zm-42.15-60c-.76-21.65-15.19-41.02-45.58-41.02-27.73 0-43.68 21.27-45.2 41.02zm115.8 6.83 47.47-7.22c10.64-1.52 13.67-6.84 13.67-13.29 0-15.57-10.63-28.11-34.94-28.11-23.17 0-36.08 14.81-37.98 33.42l-40.26-9.12c3.42-31.9 32.28-60.39 77.86-60.39 56.97 0 78.62 32.28 78.62 69.12v91.91c0 16.71 1.9 27.73 2.28 29.63h-41.02c-.38-1.14-1.9-8.74-1.9-23.55-8.74 14.05-26.97 29.24-56.97 29.24-38.74 0-62.67-26.58-62.67-55.83.01-33.02 24.32-51.25 55.84-55.81zm61.15 29.25v-8.35l-48.23 7.22c-13.67 2.28-24.69 9.87-24.69 25.07 0 12.53 9.5 23.93 26.97 23.93 24.68-.02 45.95-11.79 45.95-47.87zm79.31 76.72v-274.98h44.06v274.98zm138.89-184.97h38.36v39.12h-38.36v85.83c0 16.33 7.22 23.17 23.55 23.17 6.08 0 13.29-1.14 15.19-1.52v36.46c-2.66 1.14-11.02 4.18-26.97 4.18-34.18 0-55.45-20.51-55.45-55.07v-93.05h-34.18v-39.12h9.49c19.75 0 28.48-12.54 28.48-28.87v-27.73h39.88v56.6zm109.12 184.97h-44.06v-274.98h44.06v107.87c12.53-16.33 33.42-23.17 52.79-23.17 45.58 0 67.6 32.67 67.6 73.3v116.98h-44.05v-109.39c0-22.79-10.26-41.02-37.98-41.02-24.31 0-37.6 18.23-38.36 41.78z" fill="url(#a)"/><g fill="#727174"><path d="m1441.11 566.19-45.93-127.85c-.55-1.72-1.4-4.02-1.4-6.14 0-5.45 4.64-10.71 11.41-10.71 5.83 0 9.61 3.76 11.4 9.29l37.95 110.1 38.36-110.45c1.68-5.18 5.16-8.94 10.99-8.94h1.19c6.22 0 10.03 3.76 11.74 8.94l37.95 110.45 38.65-110.68c1.48-4.73 4.64-8.71 10.83-8.71 6.43 0 11.01 4.94 11.01 10.53 0 1.92-.88 4.37-1.37 6.1l-46.16 128.07c-2.42 6.59-7.04 10.13-12.34 10.13h-.81c-5.91 0-10.29-3.54-12.37-10.13l-37.71-108.65-37.95 108.65c-2.07 6.59-6.45 10.13-12.31 10.13h-.62c-5.53 0-10.15-3.54-12.51-10.13"/><path d="m1775.56 432.82c0-6.13 4.98-11.47 11.12-11.47 6.54 0 11.43 4.96 11.43 11.47v25.96c11.13-25.25 35.8-37.04 52.1-37.04 6.79 0 11.17 4.96 11.17 11.35 0 6.09-4.12 10.49-9.98 11.43-29.21 3.46-53.3 25.49-53.3 69.11v51.34c0 6.2-4.71 11.37-11.06 11.37-6.5 0-11.48-4.98-11.48-11.37z"/><path d="m1933.78 576.32c-40.77 0-74.05-31.56-74.05-77.94v-.57c0-43.15 30.12-78.02 71.17-78.02 43.87 0 68.82 36.24 68.82 75.91 0 6.06-4.9 10.51-10.31 10.51h-107.26c3.14 32.43 25.75 50.68 52.2 50.68 18.38 0 31.81-7.23 42.72-17.4 1.74-1.45 3.71-2.6 6.32-2.6 5.41 0 9.8 4.42 9.8 9.64 0 2.53-1.19 5.19-3.45 7.1-14.13 13.77-30.74 22.69-55.96 22.69zm43.78-86.62c-2.26-27.27-17.74-51-47.23-51-25.89 0-45.36 21.7-48.19 51z"/><path d="m1615.74 529.37v-.59c0-31.83 26.25-48.73 64.43-48.73 19.37 0 33.13 2.67 46.54 6.42v-5.33c0-27.04-16.66-41.13-45-41.13-15.2 0-23.92 1.95-34.99 6.91-1.53.54-3.04.86-4.12.86-5.25 0-10.01-4.33-10.01-9.57 0-4.73 2.02-7.55 6.19-9.41 14.8-6.49 26.03-8.56 45.23-8.56 21.31 0 37.74 5.45 48.83 16.61 10.19 10.2 15.43 24.89 15.43 44.11v83.29c0 6.34-4.59 11.1-10.86 11.1-6.4 0-10.7-4.77-10.7-10.53v-14.5c-10.47 13.81-28.06 26.02-54.56 26.02-28.03-.02-56.41-16-56.41-46.97m111.25-11.64v-14.66c-11.13-3.19-26.03-6.41-44.4-6.41-28.29 0-44.04 12.28-44.04 31.2v.66c0 18.88 17.58 30.04 37.97 30.04 27.66 0 50.47-16.95 50.47-40.83"/><path d="m1038.26 431.94c-4.82-10.7-16.79-15.53-28.01-10.51-11.25 4.99-15.33 17.5-10.32 28.13l47.12 102.31c7.39 16.04 15.16 24.45 29.83 24.45 15.58 0 22.5-9.14 29.91-24.45 0 0 41.06-89.45 41.42-90.38.42-.9 1.79-3.82 5.94-3.75 3.48 0 6.58 2.81 6.58 6.61v87.45c0 13.4 7.39 24.52 21.77 24.52s22.19-11.11 22.19-24.52v-71.64c0-13.79 9.83-22.68 23.33-22.68s22.47 9.27 22.47 22.68v71.64c0 13.4 7.49 24.52 21.83 24.52 14.44 0 22.14-11.11 22.14-24.52v-71.64c0-13.79 9.92-22.68 23.48-22.68 13.39 0 22.37 9.27 22.37 22.68v71.64c0 13.4 7.47 24.52 21.88 24.52 14.39 0 22.19-11.11 22.19-24.52v-81.47c0-29.9-23.98-50.92-53.04-50.92-28.98 0-47.01 20.09-47.01 20.09-9.65-12.53-23.02-20.03-45.47-20.03-23.63 0-44.43 20.03-44.43 20.03-9.54-12.53-26.11-20.03-39.61-20.03-20.94 0-37.69 9.17-47.82 32.41l-30.12 70.98z"/><path d="m1999.72 439.14v-.07c0-10.06 8.09-18.56 18.33-18.56 10.36 0 18.32 8.42 18.32 18.43v.13c0 9.97-8.14 18.41-18.32 18.41-10.34 0-18.33-8.27-18.33-18.34m33.15-.07v-.07c0-8.27-6.35-15.05-14.83-15.05-8.43 0-14.88 6.89-14.88 15.12v.07c0 8.19 6.4 14.96 14.88 14.96 8.43-.01 14.83-6.91 14.83-15.03"/><path d="m2011.05 431.7c0-1.04.8-1.98 1.95-1.98h6.11c2.34 0 4.09.7 5.19 1.84 1.08 1 1.61 2.38 1.61 4.11 0 2.84-1.4 4.53-3.6 5.38l2.77 3.33c.39.59.63.95.63 1.51 0 1.06-.97 1.77-1.89 1.77-.89 0-1.43-.4-1.87-1.01l-3.78-4.71h-3.27v3.8c0 .99-.72 1.92-1.89 1.92-1.15 0-1.95-.93-1.95-1.92v-14.04zm7.93 6.71c1.84 0 2.95-.99 2.95-2.5v-.09c0-1.66-1.16-2.59-3.09-2.59h-3.96v5.17h4.1z"/><g transform="translate(766 448)"><path d="m87.6 76.91c0 27.53-17.66 46.93-41.22 46.93-14.37 0-25.8-7.1-32.56-18.88v16.8h-12.99v-121.05h12.99v48.32c6.75-11.78 18.18-18.88 32.56-18.88 23.55 0 41.22 19.39 41.22 46.76zm-13.68 0c0-20.61-12.47-35.15-29.96-35.15-17.66 0-30.13 14.55-30.13 35.15 0 20.61 12.47 35.33 30.13 35.33 17.49-.01 29.96-14.73 29.96-35.33z"/><path d="m109.24 149.99 3.12-11.08c3.12 1.56 6.75 2.25 10.56 2.25 5.71 0 9.52-1.9 12.99-7.97l5.2-11.08-38.96-89.88h14.37l31.34 74.47 29.61-74.47h14.03l-40.87 99.58c-6.23 15.24-14.89 20.95-27.19 21.13-5.2-.01-10.05-1.05-14.2-2.95z"/></g></g></g></svg>