<?xml version="1.0" encoding="UTF-8"?>
<svg viewBox="0 0 854 151" version="1.1" xmlns="http://www.w3.org/2000/svg" xmlns:xlink="http://www.w3.org/1999/xlink">
  <path fill="#525252" d="M282.7,32.8 C271.1,32.8 263,37.8 259.8,40.2 L259.8,34.7 L251.5,34.7 L251.5,151 L259.8,151 L259.8,112.3 C262.5,113.9 269.1,117.2 278.4,117.2 C301.6,117.2 317.8,99.2 317.8,73.5 C317.8,49.1 303.7,32.8 282.7,32.8 L282.7,32.8 Z M278.9,109.3 C272.2,109.3 265.7,107.5 259.9,103.8 L259.9,103.8 L259.9,48.6 C259.9,48.6 260,48.5 260.1,48.4 C266.5,43.1 273.9,40.5 282.1,40.5 C298.3,40.5 309.2,53.5 309.2,72.9 C309.1,95.1 297.2,109.3 278.9,109.3 L278.9,109.3 Z M364.7,32.8 C342.3,32.8 328.3,49.3 328.3,75.7 C328.3,100.9 342.7,117.1 365,117.1 C381.6,117.1 392,110.2 393.7,108.9 L389.4,101.6 C387,103.3 377.7,108.8 365.5,108.8 C348.1,108.8 337.2,96.4 336.9,76.3 L395.2,76.3 C395.4,74.6 395.6,71.9 395.6,70.6 C395.6,47.6 383.5,32.8 364.7,32.8 L364.7,32.8 Z M364.7,40.3 C379.9,40.3 386.9,54.3 387.1,68.5 L337.3,68.5 C338.5,51.9 349.7,40.3 364.7,40.3 L364.7,40.3 Z M122.9,32.8 C99.6,32.8 87,49.1 87,75.1 C87,101.3 99.7,117.4 122.9,117.4 C146.4,117.4 158.6,100.5 158.6,75.1 C158.6,48 145,32.8 122.9,32.8 L122.9,32.8 Z M122.9,110 C106,110 95.7,94.2 95.7,75.2 C95.7,56 106,40.3 122.9,40.3 C138.6,40.3 149.9,54.7 149.9,75.2 C149.9,95.3 139,110 122.9,110 L122.9,110 Z M204.6,32.8 C181.3,32.8 168.7,49.1 168.7,75.1 C168.7,101.3 181.4,117.4 204.6,117.4 C228.1,117.4 240.3,100.5 240.3,75.1 C240.2,48 226.6,32.8 204.6,32.8 L204.6,32.8 Z M204.6,110 C187.6,110 177.4,94.2 177.4,75.2 C177.4,56 187.8,40.3 204.6,40.3 C220.3,40.3 231.6,54.7 231.6,75.2 C231.6,95.3 220.7,110 204.6,110 L204.6,110 Z M445.7,41 C444.3,40.8 442.5,40.7 440.3,40.7 C433.2,40.7 423.6,43.5 416.4,56.3 L416.4,115.7 L408,115.7 L408,34.7 L416.3,34.7 L416.3,45.2 C424,34.8 433.7,32.5 440.5,32.5 C443.4,32.5 446,33 447.6,33.4 L445.7,41 Z M82,107.3 C79.9,109 70.5,117.400306 50.7,117.400306 C19.6,117.5 0.6,93.1 0.6,58.9 C0.6,24 20.9,0.9 50.7,0.9 C68.9,0.9 79.1,8.8 80.5,9.9 L76.5,17.2 C73.4,15 64.2,9.6 51.5,9.6 C26.2,9.6 9.9,28.8 9.3,57.8 C8.7,88.2 25.4,108.8 51.5,108.8 C58.4,108.8 67.7,107.6 77.7,100.4 L82,107.3 Z M529.6,3 L538.6,3 L499.1,115.7 L487.5,115.7 L447.9,3 L457.8,3 L493.7,107.6 L529.6,3 Z M551.8,22.3 C548.5,22.3 545.9,19.6 545.9,16.4 C545.9,13.2 548.5,10.7 551.8,10.7 C555,10.7 557.5,13.2 557.5,16.4 C557.6,19.7 555,22.3 551.8,22.3 L551.8,22.3 Z M547.7,34.7 L556,34.7 L556,75.2 L556,115.7 L547.7,115.7 L547.7,75.2 L547.7,34.7 Z M807.2,64.1 L807.2,115.7 L798.9,115.7 L798.9,67.3 C798.9,56.8 798.9,49.9 794.1,45.1 C791.2,42.2 786.5,40.6 780.5,40.6 C773,40.6 764.8,43.6 755.8,49.1 L755.8,115.6 L747.5,115.6 L747.5,34.6 L755.8,34.6 L755.8,40.8 C759.2,38.6 769,32.8 781.2,32.8 C789.6,32.8 795.8,35 800.2,39.3 C806.2,45.5 807.2,51.6 807.2,64.1 L807.2,64.1 Z M697.4,32.8 C674.1,32.8 661.6,49.1 661.6,75.1 C661.6,101.3 674.2,117.4 697.4,117.4 C720.9,117.4 733.1,100.5 733.1,75.1 C733.1,48 719.5,32.8 697.4,32.8 L697.4,32.8 Z M697.4,110 C680.5,110 670.2,94.3 670.2,75.2 C670.2,56 680.5,40.3 697.4,40.3 C713.1,40.3 724.4,54.7 724.4,75.2 C724.4,95.3 713.5,110 697.4,110 L697.4,110 Z M623.4,93.7 C623.4,108.4 612.4,117.5 594.7,117.5 C578.4,117.5 569.2,110.6 568.2,109.9 L572.3,102.9 C574.9,104.7 583.4,109.9 594.1,109.9 C607.1,109.9 614.8,104.2 614.8,94.5 C614.8,88.7 611.2,82.9 600.9,79.1 C599.1,78.4 590.3,75.2 588.1,74.5 C575.3,69.8 571.6,62.5 571.6,53.7 C571.6,41.5 582.3,33 597.5,33 C612.2,33 619.9,38.8 621.2,39.6 L617.1,46.5 C616,45.7 608.1,40.5 598.2,40.5 C589.5,40.5 580.1,44.6 580.1,53.6 C580.1,61.2 585.9,65.1 592.4,67.4 C594.8,68.3 599.9,70.1 602.5,71.1 C617.8,76.4 623.4,83.5 623.4,93.7 L623.4,93.7 Z M642.6,22.3 C639.3,22.3 636.7,19.6 636.7,16.4 C636.7,13.2 639.3,10.7 642.6,10.7 C645.8,10.7 648.3,13.2 648.3,16.4 C648.4,19.7 645.8,22.3 642.6,22.3 L642.6,22.3 Z M638.5,34.7 L646.8,34.7 L646.8,75.2 L646.8,115.7 L638.5,115.7 L638.5,75.2 L638.5,34.7 Z" id="Shape"></path>
  <path fill="#525252" d="M834.8,42.6 C824.5,42.6 816.1,34.4 816.1,24 C816.1,13.7 824.4,5.3 834.8,5.3 C845.2,5.3 853.5,13.6 853.5,24 C853.5,34.4 845.2,42.6 834.8,42.6 L834.8,42.6 Z M834.8,9.3 C826.5,9.3 819.9,15.7 819.9,24.1 C819.9,32.4 826.4,38.8 834.8,38.8 C843.1,38.8 849.7,32.4 849.7,24.1 C849.7,15.7 843.1,9.3 834.8,9.3 L834.8,9.3 Z M839.9,34.1 L837.4,28.8 C836,25.8 835.7,25.7 832.8,25.7 L831.9,25.7 L831.9,34 L828.3,34 L828.3,13.6 L833.3,13.6 C836,13.6 838.2,13.7 840,15.3 C841.2,16.4 841.8,17.9 841.8,19.6 C841.8,21.8 840.6,24.1 837.6,24.4 C839.1,24.4 840,26.1 840.4,27 L843.6,34 L839.9,34 L839.9,34.1 Z M833.5,16.8 L831.9,16.8 L831.9,22.5 C834.3,22.5 838.3,22.8 838.3,19.4 C838.3,16.8 835.4,16.8 833.5,16.8 L833.5,16.8 Z" id="Shape"></path>
</svg>
