<?xml version="1.0" encoding="utf-8"?>
<!-- Generator: Adobe Illustrator 23.0.4, SVG Export Plug-In . SVG Version: 6.00 Build 0)  -->
<svg version="1.1" id="Layer_1" xmlns="http://www.w3.org/2000/svg" xmlns:xlink="http://www.w3.org/1999/xlink" x="0px" y="0px"
	 viewBox="0 0 950 230" style="enable-background:new 0 0 950 230;" xml:space="preserve">
<style type="text/css">
	.st0{fill:#626366;}
</style>
<g>
	<g>
		<path class="st0" d="M330.7,71.8c-11.6,0-19.7,5-22.9,7.4v-5.5h-8.3V190h8.3v-38.7c2.7,1.6,9.3,4.9,18.6,4.9
			c23.2,0,39.4-18,39.4-43.7C365.8,88.1,351.7,71.8,330.7,71.8 M326.9,148.3c-6.7,0-13.2-1.8-19-5.5l0,0V87.6c0,0,0.1-0.1,0.2-0.2
			c6.4-5.3,13.8-7.9,22-7.9c16.2,0,27.1,13,27.1,32.4C357.1,134.1,345.2,148.3,326.9,148.3 M412.7,71.8c-22.4,0-36.4,16.5-36.4,42.9
			c0,25.2,14.4,41.4,36.7,41.4c16.6,0,27-6.9,28.7-8.2l-4.3-7.3c-2.4,1.7-11.7,7.2-23.9,7.2c-17.4,0-28.3-12.4-28.6-32.5h58.3
			c0.2-1.7,0.4-4.4,0.4-5.7C443.6,86.6,431.5,71.8,412.7,71.8 M412.7,79.3c15.2,0,22.2,14,22.4,28.2h-49.8
			C386.5,90.9,397.7,79.3,412.7,79.3 M170.9,71.8c-23.3,0-35.9,16.3-35.9,42.3c0,26.2,12.7,42.3,35.9,42.3
			c23.5,0,35.7-16.9,35.7-42.3C206.6,87,193,71.8,170.9,71.8 M170.9,149c-16.9,0-27.2-15.8-27.2-34.8c0-19.2,10.3-34.9,27.2-34.9
			c15.7,0,27,14.4,27,34.9C197.9,134.3,187,149,170.9,149 M252.6,71.8c-23.3,0-35.9,16.3-35.9,42.3c0,26.2,12.7,42.3,35.9,42.3
			c23.5,0,35.7-16.9,35.7-42.3C288.2,87,274.6,71.8,252.6,71.8 M252.6,149c-17,0-27.2-15.8-27.2-34.8c0-19.2,10.4-34.9,27.2-34.9
			c15.7,0,27,14.4,27,34.9C279.6,134.3,268.7,149,252.6,149 M493.7,80c-1.4-0.2-3.2-0.3-5.4-0.3c-7.1,0-16.7,2.8-23.9,15.6v59.4H456
			v-81h8.3v10.5c7.7-10.4,17.4-12.7,24.2-12.7c2.9,0,5.5,0.5,7.1,0.9L493.7,80z M130,146.3c-2.1,1.7-11.5,10.1-31.3,10.1
			c-31.1,0.1-50.1-24.3-50.1-58.5c0-34.9,20.3-58,50.1-58c18.2,0,28.4,7.9,29.8,9l-4,7.3c-3.1-2.2-12.3-7.6-25-7.6
			c-25.3,0-41.6,19.2-42.2,48.2c-0.6,30.4,16.1,51,42.2,51c6.9,0,16.2-1.2,26.2-8.4L130,146.3z M577.6,42h9l-39.5,112.7h-11.6
			L495.9,42h9.9l35.9,104.6L577.6,42z M599.8,61.3c-3.3,0-5.9-2.7-5.9-5.9c0-3.2,2.6-5.7,5.9-5.7c3.2,0,5.7,2.5,5.7,5.7
			C605.6,58.7,603,61.3,599.8,61.3 M595.7,73.7h8.3v40.5v40.5h-8.3v-40.5V73.7z M855.2,103.1v51.6h-8.3v-48.4
			c0-10.5,0-17.4-4.8-22.2c-2.9-2.9-7.6-4.5-13.6-4.5c-7.5,0-15.7,3-24.7,8.5v66.5h-8.3v-81h8.3v6.2c3.4-2.2,13.2-8,25.4-8
			c8.4,0,14.6,2.2,19,6.5C854.2,84.5,855.2,90.6,855.2,103.1 M745.4,71.8c-23.3,0-35.8,16.3-35.8,42.3c0,26.2,12.6,42.3,35.8,42.3
			c23.5,0,35.7-16.9,35.7-42.3C781.1,87,767.5,71.8,745.4,71.8 M745.4,149c-16.9,0-27.2-15.7-27.2-34.8c0-19.2,10.3-34.9,27.2-34.9
			c15.7,0,27,14.4,27,34.9C772.4,134.3,761.5,149,745.4,149 M671.4,132.7c0,14.7-11,23.8-28.7,23.8c-16.3,0-25.5-6.9-26.5-7.6l4.1-7
			c2.6,1.8,11.1,7,21.8,7c13,0,20.7-5.7,20.7-15.4c0-5.8-3.6-11.6-13.9-15.4c-1.8-0.7-10.6-3.9-12.8-4.6
			c-12.8-4.7-16.5-12-16.5-20.8c0-12.2,10.7-20.7,25.9-20.7c14.7,0,22.4,5.8,23.7,6.6l-4.1,6.9c-1.1-0.8-9-6-18.9-6
			c-8.7,0-18.1,4.1-18.1,13.1c0,7.6,5.8,11.5,12.3,13.8c2.4,0.9,7.5,2.7,10.1,3.7C665.8,115.4,671.4,122.5,671.4,132.7 M690.6,61.3
			c-3.3,0-5.9-2.7-5.9-5.9c0-3.2,2.6-5.7,5.9-5.7c3.2,0,5.7,2.5,5.7,5.7C696.4,58.7,693.8,61.3,690.6,61.3 M686.5,73.7h8.3v40.5
			v40.5h-8.3v-40.5V73.7z"/>
		<path class="st0" d="M882.8,81.6c-10.3,0-18.7-8.2-18.7-18.6c0-10.3,8.3-18.7,18.7-18.7s18.7,8.3,18.7,18.7
			C901.5,73.4,893.2,81.6,882.8,81.6 M882.8,48.3c-8.3,0-14.9,6.4-14.9,14.8c0,8.3,6.5,14.7,14.9,14.7c8.3,0,14.9-6.4,14.9-14.7
			C897.7,54.7,891.1,48.3,882.8,48.3 M887.9,73.1l-2.5-5.3c-1.4-3-1.7-3.1-4.6-3.1h-0.9v8.3h-3.6V52.6h5c2.7,0,4.9,0.1,6.7,1.7
			c1.2,1.1,1.8,2.6,1.8,4.3c0,2.2-1.2,4.5-4.2,4.8c1.5,0,2.4,1.7,2.8,2.6l3.2,7H887.9z M881.5,55.8h-1.6v5.7c2.4,0,6.4,0.3,6.4-3.1
			C886.3,55.8,883.4,55.8,881.5,55.8"/>
	</g>
</g>
</svg>
