<?xml version="1.0" encoding="UTF-8"?><svg id="a" xmlns="http://www.w3.org/2000/svg" viewBox="0 0 768.82 301.86"><line x1="568.66" y1="301.49" x2="768.82" y2="301.49" fill="none" stroke="#fff" stroke-width=".75"/><path d="M14.45,87.53h13.82c1.32-.12,2.01-.29,2.01-2.27v-13.37c0-1.64-.28-1.91-2.04-1.91H14.85c-1.18,0-2.36-.12-2.36,2.13v13.45c.03,.16-.31,1.97,1.96,1.97m15.81-37.48c0-2.59-.54-5.43-.54-5.43h4.4s.63,3.15,.63,6.19,.13,37.21,.13,37.68c0,.74,.67,1.21,.67,1.21h-4.16c-.64,0-.74-1.58-.74-1.58,0,0-.6,1.58-2.92,1.58H13.69c-5.99,0-5.38-4.04-5.57-5.57v-11.4c0-2.68,.94-5.1,6.44-5.1h12.81c1.12,0,2.43,.13,2.95,1.74,0,0-.07-16.73-.07-19.32"/><path d="M42.22,87.39h13.36c.49-.14,2.07,.34,2.07-2.16v-7.68c0-.75-.29-.63-.67-.63h-14.22c-3.01,0-2.79,1-2.91,2.33v5.86c0,2.8,1.54,2.07,2.37,2.28m-5.96-19.84h20.73c.1,0,4.93,0,4.93,4.43v14.76c0,1.72,.77,2.99,.77,2.99,0,0-3.86-.03-4.21-.03s-.65-1.21-.65-1.21c0,0-.81,1.21-1.54,1.21h-15.5c-3.96,0-5.2-2.35-5.17-4.16v-6.71s-.27-4.03,5.37-4.03,13.42-.07,13.42-.07c.1,0,3.09,.36,3.09-1.48v-1.88c0-1.54-1.97-1.63-2.82-1.68h-14.02c-1.81,0-4.7,.6-4.7,.6l.3-2.75Z"/><path d="M62.81,89.7c.3-1.14,.39-1.11,.39-3.15v-16.24c0-2.01-.57-2.75-.57-2.75h5.13l-.03,1.31c.29-.71,.76-1.31,2.48-1.31h15.23c4.49,0,4.46,3.86,4.46,4.83v13.75c0,1.74,.5,3.56,.5,3.56h-5.42s.64-1.88,.64-3.56v-13.95c0-2.47-.81-2.48-3.64-2.48h-11.94c-.99,0-2.35,.23-2.35,1.88v14.83c0,1.61,.57,3.29,.57,3.29h-5.45Z"/><path d="M115.97,70.44l-.51-2.91h-18.85c-5.83,0-5.95,4.37-5.9,4.16v3.22c0,3.04,1.06,5.03,5.57,5.03,5.7,0,13.42,.07,13.42,.07,.96,0,2.35-.19,2.35,2.15v3.29c0,.93-.15,1.95-1.92,1.95h-16.86c-1.43,0-2.7-.52-2.7-.52l.62,2.87h19.66c1.19,0,5.03-.23,5.03-3.29v-6.04c.05-1.03-.35-4.23-4.85-4.23h-13.33c-1.19,0-2.62,.23-2.62-2.15v-2.08c0-1.39,.32-1.95,2.42-1.95h14.96c2.06,0,3.53,.42,3.53,.42"/><path d="M116.06,89.72h5.81s-.58-.85-.58-1.61-.04-7.38-.04-7.38l5.01-3.22s9.95,9.91,13.24,13.19c3.52,3.52,8.81,4.12,14.18,4.7,0,0-6.62-2.33-10.38-6.22-3.27-3.39-13.28-13.96-13.28-13.96l12.21-7.65h-5.5s.09,.36-1.21,1.21c-1.3,.85-14.31,9.04-14.31,9.04l-.14-37.61h-5.23s.63,1.48,.63,3.89,.54,41.51,.54,42.94-.94,2.68-.94,2.68"/><path d="M147.68,87.51h14.04c2.45,0,2.51-.88,2.51-1.97v-13.6c0-1.86-.72-1.97-2.15-1.97h-13.86c-2.15,0-2.24,1.25-2.24,1.79v13.42c0,2.42,1.7,2.33,1.7,2.33m-5.99-3.02v-12.07s-.4-4.7,5.9-4.7h15.03c6.26,0,6.04,3.51,6.04,5.77v11c0,5.32-2.91,5.23-6.44,5.23h-14.76c-5.96,0-5.77-3.38-5.77-5.23"/><path d="M0,58.23c10.03-.37,36.68,.23,69.95-13.77,9.74-4.1,12.16-5.19,22.99-10.91,4.74-2.51,18.54-10.39,24.6-13.95,3.76-2.21,5.63-1.52,5.63-1.52,10.88,.57,13.71,1.38,27.37-1.9,9.61-2.31,27.8-11.13,30.86-16.17,0,0,.67,4.02-5.37,7.78-6.04,3.76-17.44,8.05-24.29,9.79-5.48,1.4-12.56,2.42-18.92,2.42-5.37,0-11.05-.83-11.67-.6-2.25,.8-7.74,4.23-20.8,11.74-7.08,4.07-16.04,8.89-27.55,13.6C33.8,60.68,7.27,58.33,0,58.23"/><path d="M5.19,60.6s10.41-.09,23.66-2.1c12.55-1.91,27.53-5.58,40.83-11.18,9.74-4.1,13.14-5.46,23.97-11.18,4.74-2.5,16.21-8.54,23.88-11.99,1.69-.76,3.82-1.54,3.82-1.54l1.81,.02c8.37,.2,18.65,.89,27.1,.18,11.16-.94,15.37-1.1,22-3.31,1.15-.38,5.54-2.24,5.82-2.86-.15,.34-1.43,2.46-1.97,3.04-1.45,1.57-2.58,3.59-5.81,4.2-5.46,1.04-10.06,1.7-16.46,1.7s-13.87-.16-20.22-.45c-5.99-.27-11-.85-12.17-.54-4.63,1.25-10.56,4.65-23.62,11.27-5.6,2.84-14.58,7.16-26.39,11.99C32.79,63.68,1.22,60.55,5.19,60.6"/><path d="M27.91,60.65c4.24-.35,22-2.86,45.26-11.72,20.12-7.66,40.26-17.94,43.56-19.59,1.25-.63,4.92-1.88,4.92-1.88,0,0,3.31,.45,4.92,.72,1.61,.27,15.21,2.33,18.16,2.68,2.95,.36,12.79,1.97,17.8,1.43,2.58-.28,2.34-.13,3.85-.71,1.61-.63,3.31-1.34,3.31-1.34,0,0-3.12,5.94-10.2,5.73-8.77-.27-11-1.25-16.01-2.06-3.7-.59-17.02-3.2-19.95-3.49-1.79-.18-3.49,.18-5.28,.8-2.17,.76-39.06,17-47.23,19.77-15.83,5.37-27.91,8.41-43.11,9.66"/><path d="M53.8,57.29c4.85-.89,12.32-2.48,22.74-6.04,2.75-.94,4.57-1.44,10-3.62,11.72-4.71,29.76-12.02,31.13-12.75,.76-.4,3.71-1.52,3.71-1.52,0,0,2.67,.68,4.29,1.25,3.06,1.07,11.03,2.91,14.67,3.94,3.26,.92,9.35,1.56,11.45,1.79,3.44,.38,6.73,.05,6.73,.05,0,0-2.75,2.68-6.31,3.09-2.07,.23-3.04,.31-5.57,0-2.53-.31-8.74-2.08-11.85-2.95-3.11-.87-7.8-2.64-10.22-3.15-2.41-.51-5.01-.67-7.24,.2-1.47,.57-13.91,5.42-22.88,8.79-4.68,1.76-7.98,2.88-9.21,3.29-21.51,7.11-31.44,7.65-31.44,7.65"/><path d="M172.42,69.79h.34c.32,0,.48-.08,.48-.32,0-.26-.16-.36-.5-.36h-.32v.68Zm.34-1.05c.69,0,1.01,.22,1.01,.68,0,.3-.16,.55-.5,.65l.52,1.05h-.56l-.46-.97h-.34v.97h-.52v-2.38h.87Zm-1.85,1.19c0,1.01,.85,1.87,1.87,1.87s1.89-.81,1.89-1.87-.85-1.87-1.89-1.87-1.87,.87-1.87,1.87m4.09,0c0,1.23-1.01,2.22-2.26,2.22-1.13,0-2.18-.99-2.18-2.26,0-1.11,.97-2.18,2.22-2.18s2.22,1.01,2.22,2.22"/></svg>