<?xml version="1.0" encoding="UTF-8"?>
<svg width="185px" height="56px" viewBox="0 0 185 56" version="1.1" xmlns="http://www.w3.org/2000/svg" xmlns:xlink="http://www.w3.org/1999/xlink">
    <!-- Generator: Sketch 57.1 (83088) - https://sketch.com -->
    <title>dassault-systems-logo</title>
    <desc>Created with Sketch.</desc>
    <g id="Page-1" stroke="none" stroke-width="1" fill="none" fill-rule="evenodd">
        <g id="dassault-systems-logo" fill="#525252" fill-rule="nonzero">
            <path d="M12.8434015,29.4773006 C11.1412639,29.4773006 9.73141264,29.5803681 8.32156134,29.4773006 C7.78856877,29.4429448 7.25557621,29.3570552 6.79135688,29.0822086 C6.20678439,28.7386503 6.18959108,28.2920245 6.72258364,27.8797546 C7.11802974,27.5877301 7.56505576,27.3815951 8.01208178,27.2269939 C13.2216543,25.595092 18.5,25.0625767 23.8643123,26.4196319 C25.2741636,26.7803681 26.6324349,27.3300613 27.8359665,28.1717791 C29.6240706,29.4429448 30.3805762,31.5042945 29.8303903,33.6171779 C28.7815985,37.6883436 26.4776952,41.003681 23.572026,43.9411043 C19.5831784,47.9607362 14.8378253,50.8466258 9.73141264,53.2171779 C7.20399628,54.3852761 4.625,55.4503067 1.83968401,55.8969325 C0.189126394,56.1717791 -0.171933086,55.793865 0.412639405,54.2134969 C1.68494424,50.7779141 3.4214684,47.5484663 5.19237918,44.3361963 C6.89451673,41.2613497 8.80297398,38.3067485 10.7114312,35.3521472 C11.1068773,34.7337423 11.53671,34.1496933 12.035316,33.6171779 C12.3276022,33.3079755 12.6198885,33.0331288 13.0153346,32.8785276 C13.3076208,32.7411043 13.6342937,32.6895706 13.9265799,32.8785276 C14.2360595,33.0846626 14.2016729,33.4282209 14.1328996,33.7546012 C13.9437732,34.6822086 13.5311338,35.5411043 13.1013011,36.3828221 C11.5023234,39.4576687 9.83457249,42.4981595 8.54507435,45.7276074 C8.2355948,46.5006135 7.94330855,47.2736196 7.85734201,48.0981595 C7.77137546,48.9055215 7.97769517,49.0944785 8.78578067,49.0601227 C9.31877323,49.0257669 9.8517658,48.9055215 10.3331784,48.6650307 C15.6459108,46.1398773 19.9614312,42.4981595 23.0046468,37.4478528 C23.572026,36.5030675 23.9158922,35.4723926 24.0018587,34.3558282 C24.1394052,32.7239264 23.572026,31.6588957 22.1105948,30.9202454 C20.4084572,30.0441718 18.5515799,29.8208589 16.6947026,29.6490798 C15.3192379,29.5116564 13.9437732,29.4257669 12.8434015,29.4773006 Z" id="Path"></path>
            <path d="M37.945632,49.8846626 C34.3866171,49.8846626 30.8791822,49.4380368 27.3717472,48.802454 C26.9247212,48.7165644 26.4605019,48.6134969 26.0650558,48.3730061 C25.7039963,48.1496933 25.3429368,47.8920245 25.4460967,47.393865 C25.5492565,46.9472393 25.8931227,46.7239264 26.3401487,46.6380368 C27.3889405,46.4490798 28.472119,46.4147239 29.5381041,46.3631902 C32.8564126,46.191411 36.1919145,46.1742331 39.510223,45.7619632 C40.455855,45.6417178 41.3842937,45.4699387 42.2611524,45.0748466 C43.2755576,44.6110429 43.6710037,43.8723926 43.4474907,42.790184 C43.2583643,41.793865 42.794145,40.9177914 42.2439591,40.0760736 C40.7997212,37.8257669 39.063197,35.798773 37.4642193,33.6515337 C35.8996283,31.5558282 34.2490706,29.4944785 33.2346654,27.0552147 C31.8935874,23.791411 32.822026,21.2834356 36.0027881,19.6687117 C37.6877323,18.8269939 39.4930297,18.5006135 41.3499071,18.3803681 C44.5478625,18.1742331 47.6942379,18.6208589 50.8062268,19.3766871 C51.4595725,19.5312883 52.1301115,19.7374233 52.6287175,20.2184049 C53.1960967,20.7680982 53.1101301,21.2662577 52.3708178,21.5411043 C51.7518587,21.7815951 51.098513,21.8159509 50.4451673,21.8503067 C47.7114312,21.9877301 44.9433086,21.9018405 42.2267658,22.2797546 C41.4530669,22.3828221 40.6965613,22.5202454 39.9744424,22.8638037 C38.9772305,23.3447853 38.6333643,23.997546 38.7709108,25.0969325 C38.9256506,26.3165644 39.4758364,27.3644172 40.1463755,28.3435583 C41.7281599,30.6453988 43.5850372,32.7411043 45.2355948,34.991411 C46.4563197,36.6576687 47.7630112,38.2552147 48.6914498,40.1104294 C49.482342,41.6736196 49.9981413,43.3055215 49.3963755,45.0748466 C48.7086431,47.1533742 47.1096654,48.2527607 45.1496283,48.9398773 C42.8113383,49.798773 40.3870818,49.9190184 37.945632,49.8846626 Z" id="Path"></path>
            <path d="M22.1621747,3.41840491 C21.061803,3.48711656 19.9958178,3.50429448 18.9298327,3.36687117 C18.3280669,3.2809816 17.5371747,3.24662577 17.4512082,2.54233129 C17.3652416,1.90674847 18.1389405,1.73496933 18.6375465,1.54601227 C21.1993494,0.601226994 23.8643123,0.29202454 26.5636617,0.171779141 C29.0223048,0.0687116564 31.4637546,0.257668712 33.8364312,1.04785276 C37.8252788,2.37055215 39.0288104,5.1190184 37.3266729,8.94969325 C36.5873606,10.598773 35.5385688,12.0588957 34.3178439,13.398773 C30.8104089,17.2638037 26.6840149,20.2699387 21.9902416,22.5202454 C21.3540892,22.8294479 20.7007435,23.0699387 19.9958178,23.1730061 C19.7035316,23.207362 19.394052,23.2417178 19.222119,22.9325153 C19.0501859,22.6233129 19.1877323,22.3656442 19.3768587,22.1251534 C19.9614312,21.3349693 20.6835502,20.6993865 21.4400558,20.0809816 C24.2769517,17.7791411 27.1310409,15.5288344 29.5209108,12.7460123 C30.6556691,11.4404908 31.704461,10.0834356 32.3234201,8.43435583 C33.0627323,6.49325153 32.598513,5.39386503 30.6728625,4.63803681 C28.8675651,3.93374233 26.9591078,3.69325153 25.0506506,3.52147239 C24.0878253,3.46993865 23.1078067,3.45276074 22.1621747,3.41840491 Z" id="Path"></path>
            <path d="M147.810874,39.1312883 C146.349442,40.4711656 144.991171,41.6392638 143.718866,42.9104294 C142.927974,43.7006135 142.016729,43.4773006 141.122677,43.4257669 C140.847584,43.408589 140.710037,43.0993865 140.572491,42.8932515 C139.730019,41.6907975 138.870353,40.4883436 137.924721,39.1484663 C137.546468,41.0895706 137.185409,42.8760736 136.841543,44.6625767 C136.635223,45.7104294 136.428903,46.7582822 136.239777,47.806135 C136.119424,48.4245399 135.809944,48.7509202 135.156599,48.7165644 C134.43448,48.6822086 133.420074,48.9570552 133.059015,48.596319 C132.663569,48.2184049 133.196561,47.2564417 133.316914,46.5521472 C133.901487,43.4257669 134.520446,40.3165644 135.105019,37.207362 C135.294145,36.2110429 135.500465,36.1766871 136.51487,36.0392638 C138.268587,35.7815951 139.437732,36.3828221 140.280204,37.9460123 C140.77881,38.8736196 141.535316,39.6638037 142.137082,40.5398773 C142.429368,40.9521472 142.601301,40.9177914 142.962361,40.608589 C144.475372,39.2343558 146.005576,37.8944785 147.518587,36.5374233 C147.879647,36.2110429 148.2579,36.0392638 148.756506,36.0736196 C149.341078,36.1079755 149.925651,36.0736196 150.510223,36.0907975 C151.421468,36.0907975 151.559015,36.2625767 151.387082,37.190184 C151.060409,38.9079755 150.716543,40.608589 150.38987,42.3263804 C150.011617,44.2846626 149.616171,46.2257669 149.255112,48.1840491 C149.169145,48.6306748 148.997212,48.7852761 148.550186,48.7509202 C148,48.7165644 147.432621,48.7509202 146.882435,48.7337423 C146.177509,48.7165644 146.02277,48.5447853 146.143123,47.8576687 C146.676115,44.9889571 147.226301,42.1546012 147.810874,39.1312883 Z" id="Path"></path>
            <path d="M68.7732342,18.5349693 C70.2346654,18.6208589 72.0399628,18.3803681 73.8280669,18.6552147 C76.4242565,19.0674847 77.8856877,20.8883436 77.730948,23.4993865 C77.6621747,24.5128834 77.455855,25.5092025 77.1291822,26.4883436 C76.2007435,29.1852761 74.2578996,30.7141104 71.4553903,31.0404908 C68.480948,31.3840491 65.4893123,31.1263804 62.4976766,31.195092 C61.8959108,31.2122699 62.1538104,30.7828221 62.188197,30.5423313 C62.635223,28.206135 63.0822491,25.8871166 63.5464684,23.5509202 C63.580855,23.4134969 63.5980483,23.2588957 63.6324349,23.1214724 C63.8215613,22.1079755 63.8731413,22.0392638 64.9047398,22.0564417 C65.5752788,22.0564417 66.5724907,21.8331288 66.864777,22.1595092 C67.2258364,22.606135 66.7444238,23.4650307 66.6240706,24.1521472 C66.3489777,25.6809816 66.0394981,27.192638 65.7300186,28.7214724 C65.6612454,29.0993865 65.7128253,29.2368098 66.142658,29.2368098 C67.4837361,29.2196319 68.8076208,29.2539877 70.1486989,29.2196319 C71.6445167,29.1680982 72.7964684,28.4638037 73.4670074,27.1067485 C74.1031599,25.8355828 74.4642193,24.4785276 74.4642193,23.0527607 C74.4814126,21.5754601 73.776487,20.802454 72.3322491,20.596319 C71.8680297,20.5447853 71.4210037,20.5104294 70.9567844,20.5104294 C69.0139405,20.4932515 67.0710967,20.5104294 65.1282528,20.5104294 C64.8187732,20.5104294 64.4921004,20.5104294 64.1826208,20.4588957 C63.5120818,20.3558282 63.2026022,19.8404908 63.2369888,19.1190184 C63.2713755,18.3631902 63.804368,18.5693252 64.2170074,18.5693252 C65.6268587,18.5349693 67.03671,18.5349693 68.7732342,18.5349693 Z" id="Path"></path>
            <path d="M137.873141,18.6723926 C136.36013,18.2773006 134.829926,18.2944785 133.316914,18.4490798 C129.929833,18.792638 128.227695,20.1496933 127.436803,23.2588957 C126.835037,25.6466258 126.439591,28.1030675 125.940985,30.5251534 C125.855019,30.9717791 126.061338,31.1779141 126.473978,31.1779141 C127.075743,31.195092 127.694703,31.1607362 128.296468,31.195092 C128.709108,31.2294479 128.829461,31.0404908 128.898234,30.6797546 C129.052974,29.803681 129.259294,28.9276074 129.379647,28.0343558 C129.44842,27.604908 129.60316,27.4674847 130.032993,27.4674847 C131.081784,27.5018405 132.130576,27.4846626 133.162175,27.4846626 C134.210967,27.4846626 135.259758,27.5190184 136.291357,27.4674847 C136.875929,27.4331288 136.927509,27.6564417 136.824349,28.1374233 C136.635223,28.996319 136.51487,29.8552147 136.325743,30.6969325 C136.222584,31.1263804 136.377323,31.195092 136.738383,31.1779141 C137.219796,31.1607362 137.701208,31.1779141 138.199814,31.1779141 C139.145446,31.1779141 139.248606,31.0748466 139.437732,30.1300613 C139.626859,29.1509202 139.833178,28.1889571 140.005112,27.209816 C140.280204,25.5779141 140.77881,23.997546 140.761617,22.3312883 C140.72723,20.3730061 139.781599,19.1877301 137.873141,18.6723926 Z M137.804368,22.8122699 C137.769981,23.4650307 137.632435,24.1006135 137.512082,24.7361963 C137.408922,25.2858896 137.065056,25.5607362 136.480483,25.5435583 C135.483271,25.5263804 134.486059,25.5435583 133.506041,25.5435583 C132.457249,25.5435583 131.425651,25.5263804 130.376859,25.5607362 C129.998606,25.5779141 129.912639,25.4576687 129.998606,25.1141104 C130.136152,24.5300613 130.222119,23.9288344 130.376859,23.3447853 C130.841078,21.6269939 131.924257,20.7680982 133.695167,20.5791411 C134.451673,20.4932515 135.190985,20.4932515 135.947491,20.6134969 C137.219796,20.7852761 137.873141,21.5411043 137.804368,22.8122699 Z" id="Shape"></path>
            <path d="M90.5227695,18.5006135 C89.1473048,18.2944785 87.7546468,18.3116564 86.3791822,18.5006135 C83.2671933,18.9300613 81.6166357,20.3386503 80.8945167,23.396319 C80.3271375,25.7496933 79.9316914,28.1546012 79.4502788,30.5251534 C79.3643123,30.9717791 79.5534387,31.1779141 79.9660781,31.195092 C80.5678439,31.2122699 81.186803,31.1779141 81.7885688,31.2122699 C82.2012082,31.2294479 82.3387546,31.0748466 82.4075279,30.6969325 C82.5622677,29.8208589 82.7513941,28.9276074 82.8889405,28.0515337 C82.9577138,27.6392638 83.1124535,27.4674847 83.5422862,27.4846626 C84.6082714,27.5190184 85.6742565,27.5018405 86.7574349,27.5018405 C87.8234201,27.5018405 88.8894052,27.5190184 89.9725836,27.5018405 C90.3508364,27.5018405 90.4883829,27.5705521 90.385223,28 C90.1789033,28.8932515 90.0585502,29.8208589 89.8694238,30.7141104 C89.7834572,31.0920245 89.8350372,31.2466258 90.2648699,31.2294479 C90.8150558,31.195092 91.3824349,31.2122699 91.9326208,31.2294479 C92.5171933,31.2466258 92.8266729,30.9717791 92.9298327,30.404908 C93.3424721,28.1374233 93.8066914,25.8871166 94.2021375,23.6196319 C94.7007435,20.6650307 93.445632,18.9472393 90.5227695,18.5006135 Z M91.3136617,22.795092 C91.2792751,23.4650307 91.1417286,24.1349693 91.0041822,24.804908 C90.9010223,25.3202454 90.5571561,25.5607362 90.0069703,25.5435583 C89.0097584,25.5263804 88.0125465,25.5435583 87.0153346,25.5435583 C86.0009294,25.5435583 84.9693309,25.5263804 83.9549257,25.5607362 C83.5078996,25.5779141 83.4219331,25.406135 83.5078996,25.0110429 C83.6626394,24.392638 83.7486059,23.7742331 83.920539,23.1730061 C84.3159851,21.8159509 85.1928439,20.9742331 86.5855019,20.6650307 C87.5999071,20.4417178 88.6143123,20.4245399 89.6287175,20.6306748 C90.7978625,20.8539877 91.3652416,21.592638 91.3136617,22.795092 Z" id="Shape"></path>
            <path d="M149.306691,31.4871166 C148.343866,31.401227 147.570167,31.3840491 146.813662,31.2122699 C144.458178,30.7312883 143.32342,29.2539877 143.512546,26.8490798 C143.667286,24.9251534 144.183086,23.0871166 144.492565,21.197546 C144.595725,20.5791411 144.767658,19.9607362 144.853625,19.3423313 C144.939591,18.7239264 145.266264,18.5177914 145.850836,18.5521472 C146.401022,18.5693252 146.968401,18.603681 147.518587,18.5521472 C148.10316,18.5006135 148.137546,18.7411043 148.034387,19.2220859 C147.570167,21.5067485 147.140335,23.791411 146.710502,26.0760736 C146.641729,26.402454 146.607342,26.7460123 146.607342,27.0895706 C146.607342,28.2404908 147.123141,28.9276074 148.240706,29.1852761 C149.341078,29.4429448 150.458643,29.4257669 151.559015,29.1509202 C153.140799,28.7386503 154.034851,27.6736196 154.344331,26.1104294 C154.80855,23.8601227 155.238383,21.592638 155.651022,19.3251534 C155.754182,18.7754601 155.908922,18.4662577 156.562268,18.5521472 C157.129647,18.6208589 157.731413,18.5693252 158.315985,18.5693252 C158.763011,18.5693252 158.934944,18.809816 158.848978,19.2220859 C158.367565,21.6441718 157.972119,24.0834356 157.387546,26.4883436 C156.648234,29.5460123 154.739777,31.0748466 151.541822,31.3668712 C150.733736,31.4184049 149.925651,31.4527607 149.306691,31.4871166 Z" id="Path"></path>
            <path d="M158.848978,48.6993865 C157.09526,48.6993865 155.341543,48.6822086 153.605019,48.6993865 C153.175186,48.6993865 153.020446,48.6650307 153.123606,48.1496933 C153.862918,44.4907975 154.550651,40.8147239 155.255576,37.1558282 C155.444703,36.2282209 155.668216,36.0392638 156.648234,36.0392638 C159.811803,36.0392638 162.975372,36.0564417 166.121747,36.0220859 C166.689126,36.0220859 166.878253,36.1079755 166.740706,36.7263804 C166.465613,38.0147239 166.5,38.0147239 165.141729,38.0147239 C163.044145,38.0147239 160.963755,38.0319018 158.866171,37.997546 C158.419145,37.997546 158.212825,38.1006135 158.144052,38.5644172 C158.040892,39.3030675 157.886152,40.0417178 157.714219,40.7803681 C157.611059,41.2441718 157.714219,41.398773 158.230019,41.398773 C160.155669,41.3644172 162.064126,41.4159509 163.989777,41.3815951 C164.608736,41.3644172 164.832249,41.5190184 164.660316,42.1546012 C164.333643,43.3570552 164.711896,43.3226994 163.233271,43.3055215 C161.427974,43.3055215 159.63987,43.3226994 157.834572,43.2883436 C157.387546,43.2883436 157.181227,43.391411 157.112454,43.8552147 C157.009294,44.5423313 156.871747,45.2466258 156.699814,45.9165644 C156.562268,46.4834356 156.631041,46.7239264 157.318773,46.7067485 C159.502323,46.6552147 161.685874,46.6895706 163.886617,46.7067485 C164.247677,46.7067485 164.780669,46.5349693 164.918216,46.9815951 C165.072955,47.4969325 164.849442,48.0294479 164.677509,48.5276074 C164.608736,48.7509202 164.333643,48.6306748 164.144517,48.6306748 C162.390799,48.6993865 160.619888,48.6993865 158.848978,48.6993865 Z" id="Path"></path>
            <path d="M118.307156,48.6993865 C118.771375,46.2601227 119.235595,43.8895706 119.699814,41.5190184 C119.974907,40.0932515 120.25,38.6674847 120.525093,37.2417178 C120.714219,36.2453988 120.920539,36.0736196 121.934944,36.0736196 C125.115706,36.0736196 128.296468,36.0907975 131.494424,36.0564417 C132.04461,36.0564417 132.130576,36.2282209 132.04461,36.7092025 C131.803903,38.0490798 131.821097,38.0490798 130.411245,38.0490798 C128.313662,38.0490798 126.233271,38.0662577 124.135688,38.0319018 C123.671468,38.0319018 123.499535,38.1865031 123.430762,38.6331288 C123.327602,39.3546012 123.172862,40.0588957 123.018123,40.7803681 C122.914963,41.2613497 122.966543,41.4503067 123.551115,41.4503067 C125.476766,41.4159509 127.385223,41.4674847 129.310874,41.4159509 C129.981413,41.398773 130.101766,41.6220859 129.947026,42.2233129 C129.65474,43.391411 129.981413,43.3570552 128.571561,43.3570552 C126.766264,43.3570552 124.97816,43.3742331 123.172862,43.3398773 C122.63987,43.3226994 122.450743,43.5116564 122.399164,44.009816 C122.313197,44.7312883 122.141264,45.4355828 121.986524,46.1570552 C121.883364,46.6208589 121.986524,46.792638 122.502323,46.7754601 C124.737454,46.7411043 126.972584,46.7582822 129.207714,46.7754601 C129.568773,46.7754601 130.101766,46.603681 130.239312,47.0674847 C130.394052,47.5656442 130.153346,48.1153374 129.998606,48.6306748 C129.964219,48.7680982 129.792286,48.7337423 129.689126,48.7337423 C125.889405,48.6993865 122.141264,48.6993865 118.307156,48.6993865 Z" id="Path"></path>
            <path d="M100.391729,31.195092 C98.9131041,31.195092 97.4344796,31.195092 95.955855,31.195092 C95.5947955,31.195092 95.4572491,31.1607362 95.5432156,30.7141104 C95.7839219,29.391411 95.955855,29.202454 97.2797398,29.202454 C99.2053903,29.202454 101.113848,29.202454 103.039498,29.1852761 C103.434944,29.1852761 103.813197,29.1852761 104.174257,28.996319 C104.827602,28.6699387 104.982342,27.8625767 104.449349,27.3815951 C104.105483,27.0723926 103.710037,26.8319018 103.331784,26.5742331 C101.732807,25.5779141 100.065056,24.6674847 98.5692379,23.5165644 C97.3657063,22.5717791 97.0734201,21.6613497 97.5204461,20.407362 C97.8643123,19.4110429 98.6208178,18.8957055 99.6180297,18.6895706 C100.082249,18.5865031 100.580855,18.5177914 101.062268,18.5177914 C103.555297,18.5006135 106.06552,18.5006135 108.55855,18.4662577 C109.039963,18.4662577 109.125929,18.5865031 109.039963,19.0331288 C108.81645,20.2699387 108.644517,20.4245399 107.372212,20.4417178 C105.618494,20.4588957 103.88197,20.4588957 102.128253,20.4932515 C101.681227,20.4932515 101.234201,20.5276074 101.096654,21.0944785 C100.941914,21.6441718 101.234201,21.9877301 101.629647,22.2625767 C102.764405,23.0699387 104.019517,23.6539877 105.223048,24.3411043 C105.962361,24.7533742 106.718866,25.1484663 107.372212,25.6981595 C108.214684,26.402454 108.730483,27.2613497 108.489777,28.4294479 C108.249071,29.6319018 107.561338,30.4220859 106.375,30.7828221 C105.343401,31.1092025 104.260223,31.1092025 103.211431,31.1435583 C102.231413,31.2122699 101.302974,31.1779141 100.391729,31.195092 C100.391729,31.1779141 100.391729,31.195092 100.391729,31.195092 Z" id="Path"></path>
            <path d="M63.3401487,48.6993865 C62.0334572,48.6993865 60.7095725,48.6822086 59.402881,48.7165644 C58.9042751,48.7337423 58.7151487,48.6306748 58.8355019,48.0809816 C59.0762082,46.9300613 59.2481413,46.7754601 60.4344796,46.7754601 C62.2569703,46.7754601 64.079461,46.7754601 65.9019517,46.7582822 C66.3145911,46.7582822 66.7272305,46.7239264 67.1398699,46.6552147 C67.5697026,46.5865031 67.8963755,46.3288344 67.9995353,45.8650307 C68.1198885,45.4184049 67.9651487,45.0404908 67.5868959,44.7828221 C66.8303903,44.2846626 66.0738848,43.803681 65.3173792,43.3398773 C64.1654275,42.6184049 62.9790892,41.9484663 61.8959108,41.1239264 C60.9330855,40.3852761 60.2969331,39.5092025 60.6923792,38.1865031 C61.070632,36.8809816 62.0162639,36.3141104 63.2713755,36.1766871 C66.1770446,35.8674847 69.0999071,36.0907975 72.0055762,36.0220859 C72.2978625,36.0220859 72.3494424,36.1079755 72.3150558,36.4 C72.1087361,37.8429448 71.9024164,38.0319018 70.4581784,38.0319018 C68.8076208,38.0319018 67.1570632,38.0319018 65.5065056,38.0490798 C65.0422862,38.0490798 64.5436803,38.0147239 64.3717472,38.598773 C64.1998141,39.1828221 64.5092937,39.5779141 64.9563197,39.8871166 C66.2114312,40.7288344 67.5697026,41.3815951 68.8763941,42.1202454 C69.598513,42.5325153 70.320632,42.9276074 70.9052045,43.5116564 C72.4010223,45.006135 71.936803,47.3595092 69.9767658,48.201227 C69.0827138,48.5791411 68.1370818,48.6478528 67.1914498,48.6822086 C65.9019517,48.7165644 64.6124535,48.6993865 63.3229554,48.6993865 C63.3401487,48.6822086 63.3401487,48.6993865 63.3401487,48.6993865 Z" id="Path"></path>
            <path d="M94.0473978,48.6993865 C92.6547398,48.6993865 91.2792751,48.6822086 89.8866171,48.7165644 C89.4739777,48.7165644 89.4052045,48.596319 89.4567844,48.2184049 C89.6631041,46.9644172 89.8522305,46.7754601 91.1589219,46.7754601 C92.8094796,46.7754601 94.4600372,46.7754601 96.1105948,46.7754601 C96.6263941,46.7754601 97.125,46.7411043 97.6407993,46.6895706 C98.1394052,46.6380368 98.5004647,46.397546 98.6380112,45.8650307 C98.7583643,45.3668712 98.5520446,45.006135 98.1565985,44.7484663 C97.348513,44.2159509 96.5232342,43.7177914 95.6979554,43.202454 C94.5975836,42.5325153 93.4972119,41.8797546 92.4828067,41.0895706 C91.5715613,40.3680982 90.9869888,39.5263804 91.330855,38.2723926 C91.6919145,37.001227 92.5687732,36.4 93.7894981,36.2282209 C94.4600372,36.1251534 95.1477695,36.0907975 95.8183086,36.0736196 C98.0018587,36.0564417 100.185409,36.0736196 102.386152,36.0564417 C102.867565,36.0564417 103.073885,36.0907975 102.919145,36.6748466 C102.609665,37.9288344 102.506506,38.0662577 101.234201,38.0662577 C99.5148699,38.0662577 97.7783457,38.0662577 96.0590149,38.0834356 C95.6119888,38.0834356 95.1477695,38.1177914 95.010223,38.6503067 C94.8726766,39.1656442 95.0961896,39.5435583 95.508829,39.8355828 C96.7639405,40.7116564 98.1565985,41.3644172 99.4804833,42.1202454 C100.219796,42.5496933 100.976301,42.9447853 101.578067,43.5460123 C103.039498,45.006135 102.592472,47.3595092 100.684015,48.1840491 C99.7727695,48.5791411 98.7927509,48.6478528 97.8299257,48.6822086 C96.5748141,48.7165644 95.3025093,48.6993865 94.0302045,48.6993865 C94.0473978,48.6822086 94.0473978,48.6993865 94.0473978,48.6993865 Z" id="Path"></path>
            <path d="M115.246747,31.195092 C113.785316,31.195092 112.323885,31.1779141 110.879647,31.2122699 C110.398234,31.2294479 110.243494,31.1092025 110.346654,30.6110429 C110.604554,29.408589 110.776487,29.2368098 112.048792,29.2368098 C113.974442,29.2368098 115.8829,29.2368098 117.80855,29.2196319 C118.16961,29.2196319 118.530669,29.2196319 118.874535,29.0650307 C119.613848,28.7386503 119.785781,27.8969325 119.166822,27.3644172 C118.547862,26.8147239 117.80855,26.4368098 117.103625,26.007362 C115.865706,25.2515337 114.593401,24.5300613 113.44145,23.6368098 C112.478625,22.9153374 111.808086,22.0564417 112.186338,20.7165644 C112.530204,19.5141104 113.33829,18.9300613 114.507435,18.6895706 C115.453067,18.5006135 116.398699,18.5349693 117.344331,18.5177914 C119.338755,18.5177914 121.333178,18.5349693 123.327602,18.5006135 C123.791822,18.5006135 123.912175,18.5865031 123.791822,19.0674847 C123.499535,20.407362 123.447955,20.4760736 122.072491,20.4760736 C120.35316,20.4932515 118.616636,20.4932515 116.897305,20.5276074 C116.467472,20.5276074 115.986059,20.5619632 115.865706,21.1288344 C115.745353,21.6441718 115.986059,22.0220859 116.398699,22.2969325 C117.516264,23.0699387 118.754182,23.6539877 119.923327,24.3411043 C120.576673,24.7190184 121.230019,25.0797546 121.848978,25.5092025 C122.89777,26.2478528 123.533922,27.192638 123.241636,28.5496933 C122.932156,29.9411043 122.003717,30.6797546 120.628253,30.9374233 C119.493494,31.1435583 118.358736,31.1779141 117.223978,31.195092 C116.553439,31.195092 115.900093,31.195092 115.246747,31.195092 Z" id="Path"></path>
            <path d="M167.101766,48.6650307 C167.101766,48.6134969 167.084572,48.596319 167.084572,48.5791411 C167.376859,46.792638 167.394052,46.7754601 169.199349,46.7754601 C170.8671,46.7754601 172.552045,46.7754601 174.219796,46.7582822 C174.580855,46.7582822 174.941914,46.7239264 175.302974,46.6723926 C175.80158,46.6208589 176.145446,46.3631902 176.300186,45.8478528 C176.454926,45.3325153 176.197026,44.9889571 175.818773,44.7312883 C174.580855,43.9239264 173.30855,43.1680982 172.053439,42.3779141 C171.210967,41.8453988 170.351301,41.3472393 169.646375,40.6257669 C168.305297,39.2687117 168.803903,37.1042945 170.574814,36.4171779 C171.27974,36.1423313 172.036245,36.0564417 172.792751,36.0564417 C175.251394,36.0220859 177.692844,36.0392638 180.151487,36.0220859 C180.495353,36.0220859 180.667286,36.0392638 180.598513,36.4858896 C180.392193,37.808589 180.16868,38.0319018 178.810409,38.0319018 C177.142658,38.0319018 175.457714,38.0319018 173.789963,38.0490798 C173.325743,38.0490798 172.844331,38.0319018 172.655204,38.598773 C172.448885,39.2171779 172.809944,39.5607362 173.25697,39.8699387 C174.494888,40.7288344 175.870353,41.3644172 177.159851,42.1202454 C177.813197,42.4981595 178.466543,42.8588957 179.033922,43.3570552 C180.770446,44.9030675 180.27184,47.4797546 178.08829,48.2699387 C177.228625,48.5791411 176.334572,48.6650307 175.44052,48.6650307 C172.741171,48.6993865 170.041822,48.6822086 167.359665,48.6822086 C167.273699,48.6993865 167.187732,48.6650307 167.101766,48.6650307 Z" id="Path"></path>
            <path d="M83.5938662,44.4564417 C82.080855,44.8515337 80.6194238,45.2466258 79.072026,45.2638037 C78.5218401,45.2638037 77.954461,45.2638037 77.4042751,45.1779141 C75.4786245,44.8687117 74.4126394,43.5803681 74.4642193,41.5533742 C74.5157993,39.8527607 74.9972119,38.203681 75.3066914,36.5374233 C75.3754647,36.1251534 75.7365242,36.0564417 76.0975836,36.0564417 C76.7337361,36.0564417 77.3698885,36.0907975 77.9888476,36.0392638 C78.4702602,36.004908 78.5734201,36.1766871 78.4702602,36.6233129 C78.2467472,37.6711656 78.0576208,38.7190184 77.8513011,39.7668712 C77.4730483,41.6736196 78.177974,42.6527607 80.1208178,42.8245399 C81.3759294,42.9276074 82.579461,42.6355828 83.7829926,42.3263804 C84.144052,42.2404908 84.144052,41.9828221 84.195632,41.7251534 C84.5051115,40.1619632 84.8145911,38.5815951 85.089684,37.0184049 C85.2100372,36.3312883 85.4851301,35.9877301 86.2416357,36.0392638 C86.8262082,36.0907975 87.4107807,36.0736196 87.9953532,36.0392638 C88.4251859,36.0220859 88.4595725,36.1766871 88.3907993,36.5546012 C87.6686803,40.2306748 86.9637546,43.9239264 86.2416357,47.6171779 C86.0868959,48.4417178 85.7946097,48.6822086 84.9521375,48.6993865 C84.4707249,48.6993865 83.972119,48.6478528 83.4907063,48.7165644 C82.8373606,48.802454 82.8545539,48.4932515 82.9577138,48.0122699 C83.1984201,46.9472393 83.3875465,45.8822086 83.5938662,44.8 C83.6110595,44.7141104 83.5938662,44.6110429 83.5938662,44.4564417 Z" id="Path"></path>
            <path d="M112.495818,36.0564417 C114.387082,36.0564417 116.278346,36.0736196 118.186803,36.0392638 C118.736989,36.0392638 118.840149,36.1766871 118.736989,36.7092025 C118.461896,37.9803681 118.410316,38.0319018 117.103625,38.0319018 C116.123606,38.0319018 115.160781,38.0662577 114.180762,38.0147239 C113.630576,37.9803681 113.49303,38.203681 113.38987,38.6846626 C112.856877,41.5190184 112.289498,44.3533742 111.756506,47.1877301 C111.498606,48.5791411 111.361059,48.7165644 109.968401,48.7165644 C108.249071,48.7165644 108.266264,48.7165644 108.592937,47.0503067 C109.160316,44.2503067 109.676115,41.4331288 110.260688,38.6331288 C110.363848,38.1177914 110.209108,38.0147239 109.727695,38.0319018 C108.472584,38.0662577 107.200279,38.0319018 105.945167,38.0490798 C105.515335,38.0490798 105.412175,37.9116564 105.480948,37.4993865 C105.670074,36.2453988 105.859201,36.0564417 107.097119,36.0564417 C108.902416,36.0564417 110.69052,36.0564417 112.495818,36.0564417 Z" id="Path"></path>
            <path d="M178.724442,18.5349693 C180.650093,18.5349693 182.55855,18.5521472 184.484201,18.5177914 C184.965613,18.5177914 185.05158,18.6552147 184.965613,19.1018405 C184.707714,20.4417178 184.656134,20.4932515 183.246283,20.4932515 C182.300651,20.4932515 181.355019,20.5276074 180.409387,20.4760736 C179.859201,20.4417178 179.704461,20.6650307 179.618494,21.1460123 C179.085502,23.9803681 178.518123,26.797546 177.98513,29.6319018 C177.710037,31.0404908 177.572491,31.1779141 176.128253,31.1779141 C174.494888,31.1779141 174.477695,31.1779141 174.787175,29.597546 C175.337361,26.7631902 175.870353,23.9460123 176.454926,21.1116564 C176.575279,20.5447853 176.403346,20.4588957 175.887546,20.4760736 C174.649628,20.5104294 173.41171,20.4760736 172.173792,20.4932515 C171.743959,20.4932515 171.572026,20.4417178 171.675186,19.9435583 C171.898699,18.6895706 172.036245,18.5349693 173.30855,18.5349693 C175.131041,18.5349693 176.919145,18.5349693 178.724442,18.5349693 Z" id="Path"></path>
            <path d="M160.207249,31.1607362 C160.705855,28.5668712 161.204461,25.990184 161.703067,23.4306748 C161.97816,22.004908 162.270446,20.5791411 162.528346,19.1533742 C162.614312,18.6895706 162.786245,18.5006135 163.267658,18.5349693 C163.85223,18.5865031 164.436803,18.5693252 165.021375,18.5349693 C165.674721,18.5006135 165.812268,18.7754601 165.691914,19.3595092 C165.090149,22.4 164.505576,25.4576687 163.886617,28.4809816 C163.766264,29.0478528 163.869424,29.2196319 164.488383,29.2196319 C166.414033,29.1852761 168.322491,29.202454 170.248141,29.202454 C170.677974,29.202454 171.159387,29.1337423 171.159387,29.8208589 C171.142193,30.8515337 170.953067,31.1779141 170.248141,31.1779141 C167.118959,31.1779141 163.972584,31.1779141 160.843401,31.1779141 C160.654275,31.195092 160.447955,31.1779141 160.207249,31.1607362 Z" id="Path"></path>
        </g>
    </g>
</svg>