<?xml version="1.0" encoding="utf-8"?>
<!-- Generator: Adobe Illustrator 23.0.4, SVG Export Plug-In . SVG Version: 6.00 Build 0)  -->
<svg version="1.1" id="Layer_1" xmlns="http://www.w3.org/2000/svg" xmlns:xlink="http://www.w3.org/1999/xlink" x="0px" y="0px"
	 viewBox="0 0 1440 800" style="enable-background:new 0 0 1440 800;" xml:space="preserve">
<style type="text/css">
	.st0{fill:#525252;}
</style>
<g>
	<path class="st0" d="M256.7,410.6c-9.9,0-18.1,0.6-26.3,0c-3.1-0.2-6.2-0.7-8.9-2.3c-3.4-2-3.5-4.6-0.4-7c2.3-1.7,4.9-2.9,7.5-3.8
		c30.3-9.5,61-12.6,92.2-4.7c8.2,2.1,16.1,5.3,23.1,10.2c10.4,7.4,14.8,19.4,11.6,31.7c-6.1,23.7-19.5,43-36.4,60.1
		c-23.2,23.4-50.8,40.2-80.5,54c-14.7,6.8-29.7,13-45.9,15.6c-9.6,1.6-11.7-0.6-8.3-9.8c7.4-20,17.5-38.8,27.8-57.5
		c9.9-17.9,21-35.1,32.1-52.3c2.3-3.6,4.8-7,7.7-10.1c1.7-1.8,3.4-3.4,5.7-4.3c1.7-0.8,3.6-1.1,5.3,0c1.8,1.2,1.6,3.2,1.2,5.1
		c-1.1,5.4-3.5,10.4-6,15.3c-9.3,17.9-19,35.6-26.5,54.4c-1.8,4.5-3.5,9-4,13.8c-0.5,4.7,0.7,5.8,5.4,5.6c3.1-0.2,6.2-0.9,9-2.3
		c30.9-14.7,56-35.9,73.7-65.3c3.3-5.5,5.3-11.5,5.8-18c0.8-9.5-2.5-15.7-11-20c-9.9-5.1-20.7-6.4-31.5-7.4
		C271.1,410.8,263.1,410.3,256.7,410.6z"/>
	<path class="st0" d="M402.7,529.4c-20.7,0-41.1-2.6-61.5-6.3c-2.6-0.5-5.3-1.1-7.6-2.5c-2.1-1.3-4.2-2.8-3.6-5.7
		c0.6-2.6,2.6-3.9,5.2-4.4c6.1-1.1,12.4-1.3,18.6-1.6c19.3-1,38.7-1.1,58-3.5c5.5-0.7,10.9-1.7,16-4c5.9-2.7,8.2-7,6.9-13.3
		c-1.1-5.8-3.8-10.9-7-15.8c-8.4-13.1-18.5-24.9-27.8-37.4c-9.1-12.2-18.7-24.2-24.6-38.4c-7.8-19-2.4-33.6,16.1-43
		c9.8-4.9,20.3-6.8,31.1-7.5c18.6-1.2,36.9,1.4,55,5.8c3.8,0.9,7.7,2.1,10.6,4.9c3.3,3.2,2.8,6.1-1.5,7.7c-3.6,1.4-7.4,1.6-11.2,1.8
		c-15.9,0.8-32,0.3-47.8,2.5c-4.5,0.6-8.9,1.4-13.1,3.4c-5.8,2.8-7.8,6.6-7,13c0.9,7.1,4.1,13.2,8,18.9c9.2,13.4,20,25.6,29.6,38.7
		c7.1,9.7,14.7,19,20.1,29.8c4.6,9.1,7.6,18.6,4.1,28.9c-4,12.1-13.3,18.5-24.7,22.5C431,528.9,416.9,529.6,402.7,529.4z"/>
	<path class="st0" d="M310.9,258.9c-6.4,0.4-12.6,0.5-18.8-0.3c-3.5-0.5-8.1-0.7-8.6-4.8c-0.5-3.7,4-4.7,6.9-5.8
		c14.9-5.5,30.4-7.3,46.1-8c14.3-0.6,28.5,0.5,42.3,5.1c23.2,7.7,30.2,23.7,20.3,46c-4.3,9.6-10.4,18.1-17.5,25.9
		c-20.4,22.5-44.4,40-71.7,53.1c-3.7,1.8-7.5,3.2-11.6,3.8c-1.7,0.2-3.5,0.4-4.5-1.4c-1-1.8-0.2-3.3,0.9-4.7
		c3.4-4.6,7.6-8.3,12-11.9c16.5-13.4,33.1-26.5,47-42.7c6.6-7.6,12.7-15.5,16.3-25.1c4.3-11.3,1.6-17.7-9.6-22.1
		c-10.5-4.1-21.6-5.5-32.7-6.5C322.1,259.2,316.4,259.1,310.9,258.9z"/>
	<path class="st0" d="M1041.7,466.8c-8.5,7.8-16.4,14.6-23.8,22c-4.6,4.6-9.9,3.3-15.1,3c-1.6-0.1-2.4-1.9-3.2-3.1
		c-4.9-7-9.9-14-15.4-21.8c-2.2,11.3-4.3,21.7-6.3,32.1c-1.2,6.1-2.4,12.2-3.5,18.3c-0.7,3.6-2.5,5.5-6.3,5.3
		c-4.2-0.2-10.1,1.4-12.2-0.7c-2.3-2.2,0.8-7.8,1.5-11.9c3.4-18.2,7-36.3,10.4-54.4c1.1-5.8,2.3-6,8.2-6.8c10.2-1.5,17,2,21.9,11.1
		c2.9,5.4,7.3,10,10.8,15.1c1.7,2.4,2.7,2.2,4.8,0.4c8.8-8,17.7-15.8,26.5-23.7c2.1-1.9,4.3-2.9,7.2-2.7c3.4,0.2,6.8,0,10.2,0.1
		c5.3,0,6.1,1,5.1,6.4c-1.9,10-3.9,19.9-5.8,29.9c-2.2,11.4-4.5,22.7-6.6,34.1c-0.5,2.6-1.5,3.5-4.1,3.3c-3.2-0.2-6.5,0-9.7-0.1
		c-4.1-0.1-5-1.1-4.3-5.1C1035.1,500.9,1038.3,484.4,1041.7,466.8z"/>
	<path class="st0" d="M582,346.9c8.5,0.5,19-0.9,29.4,0.7c15.1,2.4,23.6,13,22.7,28.2c-0.4,5.9-1.6,11.7-3.5,17.4
		c-5.4,15.7-16.7,24.6-33,26.5c-17.3,2-34.7,0.5-52.1,0.9c-3.5,0.1-2-2.4-1.8-3.8c2.6-13.6,5.2-27.1,7.9-40.7
		c0.2-0.8,0.3-1.7,0.5-2.5c1.1-5.9,1.4-6.3,7.4-6.2c3.9,0,9.7-1.3,11.4,0.6c2.1,2.6-0.7,7.6-1.4,11.6c-1.6,8.9-3.4,17.7-5.2,26.6
		c-0.4,2.2-0.1,3,2.4,3c7.8-0.1,15.5,0.1,23.3-0.1c8.7-0.3,15.4-4.4,19.3-12.3c3.7-7.4,5.8-15.3,5.8-23.6c0.1-8.6-4-13.1-12.4-14.3
		c-2.7-0.3-5.3-0.5-8-0.5c-11.3-0.1-22.6,0-33.9,0c-1.8,0-3.7,0-5.5-0.3c-3.9-0.6-5.7-3.6-5.5-7.8c0.2-4.4,3.3-3.2,5.7-3.2
		C563.7,346.9,571.9,346.9,582,346.9z"/>
	<path class="st0" d="M983.9,347.7c-8.8-2.3-17.7-2.2-26.5-1.3c-19.7,2-29.6,9.9-34.2,28c-3.5,13.9-5.8,28.2-8.7,42.3
		c-0.5,2.6,0.7,3.8,3.1,3.8c3.5,0.1,7.1-0.1,10.6,0.1c2.4,0.2,3.1-0.9,3.5-3c0.9-5.1,2.1-10.2,2.8-15.4c0.4-2.5,1.3-3.3,3.8-3.3
		c6.1,0.2,12.2,0.1,18.2,0.1c6.1,0,12.2,0.2,18.2-0.1c3.4-0.2,3.7,1.1,3.1,3.9c-1.1,5-1.8,10-2.9,14.9c-0.6,2.5,0.3,2.9,2.4,2.8
		c2.8-0.1,5.6,0,8.5,0c5.5,0,6.1-0.6,7.2-6.1c1.1-5.7,2.3-11.3,3.3-17c1.6-9.5,4.5-18.7,4.4-28.4
		C1000.5,357.6,995,350.7,983.9,347.7z M983.5,371.8c-0.2,3.8-1,7.5-1.7,11.2c-0.6,3.2-2.6,4.8-6,4.7c-5.8-0.1-11.6,0-17.3,0
		c-6.1,0-12.1-0.1-18.2,0.1c-2.2,0.1-2.7-0.6-2.2-2.6c0.8-3.4,1.3-6.9,2.2-10.3c2.7-10,9-15,19.3-16.1c4.4-0.5,8.7-0.5,13.1,0.2
		C980.1,360,983.9,364.4,983.5,371.8z"/>
	<path class="st0" d="M708.5,346.7c-8-1.2-16.1-1.1-24.1,0c-18.1,2.5-27.7,10.7-31.9,28.5c-3.3,13.7-5.6,27.7-8.4,41.5
		c-0.5,2.6,0.6,3.8,3,3.9c3.5,0.1,7.1-0.1,10.6,0.1c2.4,0.1,3.2-0.8,3.6-3c0.9-5.1,2-10.3,2.8-15.4c0.4-2.4,1.3-3.4,3.8-3.3
		c6.2,0.2,12.4,0.1,18.7,0.1c6.2,0,12.4,0.1,18.7,0c2.2,0,3,0.4,2.4,2.9c-1.2,5.2-1.9,10.6-3,15.8c-0.5,2.2-0.2,3.1,2.3,3
		c3.2-0.2,6.5-0.1,9.7,0c3.4,0.1,5.2-1.5,5.8-4.8c2.4-13.2,5.1-26.3,7.4-39.5C732.8,359.3,725.5,349.3,708.5,346.7z M713.1,371.7
		c-0.2,3.9-1,7.8-1.8,11.7c-0.6,3-2.6,4.4-5.8,4.3c-5.8-0.1-11.6,0-17.4,0c-5.9,0-11.9-0.1-17.8,0.1c-2.6,0.1-3.1-0.9-2.6-3.2
		c0.9-3.6,1.4-7.2,2.4-10.7c2.3-7.9,7.4-12.8,15.5-14.6c5.9-1.3,11.8-1.4,17.7-0.2C710.1,360.4,713.4,364.7,713.1,371.7z"/>
	<path class="st0" d="M1050.4,422.3c-5.6-0.5-10.1-0.6-14.5-1.6c-13.7-2.8-20.3-11.4-19.2-25.4c0.9-11.2,3.9-21.9,5.7-32.9
		c0.6-3.6,1.6-7.2,2.1-10.8c0.5-3.6,2.4-4.8,5.8-4.6c3.2,0.1,6.5,0.3,9.7,0c3.4-0.3,3.6,1.1,3,3.9c-2.7,13.3-5.2,26.6-7.7,39.9
		c-0.4,1.9-0.6,3.9-0.6,5.9c0,6.7,3,10.7,9.5,12.2c6.4,1.5,12.9,1.4,19.3-0.2c9.2-2.4,14.4-8.6,16.2-17.7
		c2.7-13.1,5.2-26.3,7.6-39.5c0.6-3.2,1.5-5,5.3-4.5c3.3,0.4,6.8,0.1,10.2,0.1c2.6,0,3.6,1.4,3.1,3.8c-2.8,14.1-5.1,28.3-8.5,42.3
		c-4.3,17.8-15.4,26.7-34,28.4C1058.7,421.9,1054,422.1,1050.4,422.3z"/>
	<path class="st0" d="M1105.9,522.5c-10.2,0-20.4-0.1-30.5,0c-2.5,0-3.4-0.2-2.8-3.2c4.3-21.3,8.3-42.7,12.4-64
		c1.1-5.4,2.4-6.5,8.1-6.5c18.4,0,36.8,0.1,55.1-0.1c3.3,0,4.4,0.5,3.6,4.1c-1.6,7.5-1.4,7.5-9.3,7.5c-12.2,0-24.3,0.1-36.5-0.1
		c-2.6,0-3.8,0.6-4.2,3.3c-0.6,4.3-1.5,8.6-2.5,12.9c-0.6,2.7,0,3.6,3,3.6c11.2-0.2,22.3,0.1,33.5-0.1c3.6-0.1,4.9,0.8,3.9,4.5
		c-1.9,7,0.3,6.8-8.3,6.7c-10.5,0-20.9,0.1-31.4-0.1c-2.6,0-3.8,0.6-4.2,3.3c-0.6,4-1.4,8.1-2.4,12c-0.8,3.3-0.4,4.7,3.6,4.6
		c12.7-0.3,25.4-0.1,38.2,0c2.1,0,5.2-1,6,1.6c0.9,3-0.4,6.1-1.4,9c-0.4,1.3-2,0.6-3.1,0.6C1126.5,522.5,1116.2,522.5,1105.9,522.5z
		"/>
	<path class="st0" d="M870.1,522.5c2.7-14.2,5.4-28,8.1-41.8c1.6-8.3,3.2-16.6,4.8-24.9c1.1-5.8,2.3-6.8,8.2-6.8
		c18.5,0,37,0.1,55.6-0.1c3.2,0,3.7,1,3.2,3.8c-1.4,7.8-1.3,7.8-9.5,7.8c-12.2,0-24.3,0.1-36.5-0.1c-2.7,0-3.7,0.9-4.1,3.5
		c-0.6,4.2-1.5,8.3-2.4,12.5c-0.6,2.8-0.3,3.9,3.1,3.9c11.2-0.2,22.3,0.1,33.5-0.2c3.9-0.1,4.6,1.2,3.7,4.7c-1.7,6.8,0.2,6.6-8,6.6
		c-10.5,0-20.9,0.1-31.4-0.1c-3.1-0.1-4.2,1-4.5,3.9c-0.5,4.2-1.5,8.3-2.4,12.5c-0.6,2.7,0,3.7,3,3.6c13-0.2,26-0.1,39,0
		c2.1,0,5.2-1,6,1.7c0.9,2.9-0.5,6.1-1.4,9.1c-0.2,0.8-1.2,0.6-1.8,0.6C914.2,522.5,892.4,522.5,870.1,522.5z"/>
	<path class="st0" d="M765.9,420.6c-8.6,0-17.2,0-25.8,0c-2.1,0-2.9-0.2-2.4-2.8c1.4-7.7,2.4-8.8,10.1-8.8c11.2,0,22.3,0,33.5-0.1
		c2.3,0,4.5,0,6.6-1.1c3.8-1.9,4.7-6.6,1.6-9.4c-2-1.8-4.3-3.2-6.5-4.7c-9.3-5.8-19-11.1-27.7-17.8c-7-5.5-8.7-10.8-6.1-18.1
		c2-5.8,6.4-8.8,12.2-10c2.7-0.6,5.6-1,8.4-1c14.5-0.1,29.1-0.1,43.6-0.3c2.8,0,3.3,0.7,2.8,3.3c-1.3,7.2-2.3,8.1-9.7,8.2
		c-10.2,0.1-20.3,0.1-30.5,0.3c-2.6,0-5.2,0.2-6,3.5c-0.9,3.2,0.8,5.2,3.1,6.8c6.6,4.7,13.9,8.1,20.9,12.1c4.3,2.4,8.7,4.7,12.5,7.9
		c4.9,4.1,7.9,9.1,6.5,15.9c-1.4,7-5.4,11.6-12.3,13.7c-6,1.9-12.3,1.9-18.4,2.1C776.6,420.7,771.2,420.5,765.9,420.6
		C765.9,420.5,765.9,420.6,765.9,420.6z"/>
	<path class="st0" d="M550.4,522.5c-7.6,0-15.3-0.1-22.9,0.1c-2.9,0.1-4-0.5-3.3-3.7c1.4-6.7,2.4-7.6,9.3-7.6
		c10.6,0,21.2,0,31.8-0.1c2.4,0,4.8-0.2,7.2-0.6c2.5-0.4,4.4-1.9,5-4.6c0.7-2.6-0.2-4.8-2.4-6.3c-4.4-2.9-8.8-5.7-13.2-8.4
		c-6.7-4.2-13.6-8.1-19.9-12.9c-5.6-4.3-9.3-9.4-7-17.1c2.2-7.6,7.7-10.9,15-11.7c16.9-1.8,33.9-0.5,50.8-0.9c1.7,0,2,0.5,1.8,2.2
		c-1.2,8.4-2.4,9.5-10.8,9.5c-9.6,0-19.2,0-28.8,0.1c-2.7,0-5.6-0.2-6.6,3.2c-1,3.4,0.8,5.7,3.4,7.5c7.3,4.9,15.2,8.7,22.8,13
		c4.2,2.4,8.4,4.7,11.8,8.1c8.7,8.7,6,22.4-5.4,27.3c-5.2,2.2-10.7,2.6-16.2,2.8c-7.5,0.2-15,0.1-22.5,0.1
		C550.4,522.4,550.4,522.5,550.4,522.5z"/>
	<path class="st0" d="M729,522.5c-8.1,0-16.1-0.1-24.2,0.1c-2.4,0-2.8-0.7-2.5-2.9c1.2-7.3,2.3-8.4,9.9-8.4c9.6,0,19.2,0,28.8,0
		c3,0,5.9-0.2,8.9-0.5c2.9-0.3,5-1.7,5.8-4.8c0.7-2.9-0.5-5-2.8-6.5c-4.7-3.1-9.5-6-14.3-9c-6.4-3.9-12.8-7.7-18.7-12.3
		c-5.3-4.2-8.7-9.1-6.7-16.4c2.1-7.4,7.2-10.9,14.3-11.9c3.9-0.6,7.9-0.8,11.8-0.9c12.7-0.1,25.4,0,38.2-0.1c2.8,0,4,0.2,3.1,3.6
		c-1.8,7.3-2.4,8.1-9.8,8.1c-10,0-20.1,0-30.1,0.1c-2.6,0-5.3,0.2-6.1,3.3c-0.8,3,0.5,5.2,2.9,6.9c7.3,5.1,15.4,8.9,23.1,13.3
		c4.3,2.5,8.7,4.8,12.2,8.3c8.5,8.5,5.9,22.2-5.2,27c-5.3,2.3-11,2.7-16.6,2.9c-7.3,0.2-14.7,0.1-22.1,0.1
		C729,522.4,729,522.5,729,522.5z"/>
	<path class="st0" d="M852.3,420.6c-8.5,0-17-0.1-25.4,0.1c-2.8,0.1-3.7-0.6-3.1-3.5c1.5-7,2.5-8,9.9-8c11.2,0,22.3,0,33.5-0.1
		c2.1,0,4.2,0,6.2-0.9c4.3-1.9,5.3-6.8,1.7-9.9c-3.6-3.2-7.9-5.4-12-7.9c-7.2-4.4-14.6-8.6-21.3-13.8c-5.6-4.2-9.5-9.2-7.3-17
		c2-7,6.7-10.4,13.5-11.8c5.5-1.1,11-0.9,16.5-1c11.6,0,23.2,0.1,34.8-0.1c2.7,0,3.4,0.5,2.7,3.3c-1.7,7.8-2,8.2-10,8.2
		c-10,0.1-20.1,0.1-30.1,0.3c-2.5,0-5.3,0.2-6,3.5c-0.7,3,0.7,5.2,3.1,6.8c6.5,4.5,13.7,7.9,20.5,11.9c3.8,2.2,7.6,4.3,11.2,6.8
		c6.1,4.3,9.8,9.8,8.1,17.7c-1.8,8.1-7.2,12.4-15.2,13.9c-6.6,1.2-13.2,1.4-19.8,1.5C859.9,420.6,856.1,420.6,852.3,420.6z"/>
	<path class="st0" d="M1153.9,522.3c0-0.3-0.1-0.4-0.1-0.5c1.7-10.4,1.8-10.5,12.3-10.5c9.7,0,19.5,0,29.2-0.1
		c2.1,0,4.2-0.2,6.3-0.5c2.9-0.3,4.9-1.8,5.8-4.8c0.9-3-0.6-5-2.8-6.5c-7.2-4.7-14.6-9.1-21.9-13.7c-4.9-3.1-9.9-6-14-10.2
		c-7.8-7.9-4.9-20.5,5.4-24.5c4.1-1.6,8.5-2.1,12.9-2.1c14.3-0.2,28.5-0.1,42.8-0.2c2,0,3,0.1,2.6,2.7c-1.2,7.7-2.5,9-10.4,9
		c-9.7,0-19.5,0-29.2,0.1c-2.7,0-5.5-0.1-6.6,3.2c-1.2,3.6,0.9,5.6,3.5,7.4c7.2,5,15.2,8.7,22.7,13.1c3.8,2.2,7.6,4.3,10.9,7.2
		c10.1,9,7.2,24-5.5,28.6c-5,1.8-10.2,2.3-15.4,2.3c-15.7,0.2-31.4,0.1-47,0.1C1154.9,522.5,1154.4,522.3,1153.9,522.3z"/>
	<path class="st0" d="M668.2,497.8c-8.8,2.3-17.3,4.6-26.3,4.7c-3.2,0-6.5,0-9.7-0.5c-11.2-1.8-17.4-9.3-17.1-21.1
		c0.3-9.9,3.1-19.5,4.9-29.2c0.4-2.4,2.5-2.8,4.6-2.8c3.7,0,7.4,0.2,11-0.1c2.8-0.2,3.4,0.8,2.8,3.4c-1.3,6.1-2.4,12.2-3.6,18.3
		c-2.2,11.1,1.9,16.8,13.2,17.8c7.3,0.6,14.3-1.1,21.3-2.9c2.1-0.5,2.1-2,2.4-3.5c1.8-9.1,3.6-18.3,5.2-27.4c0.7-4,2.3-6,6.7-5.7
		c3.4,0.3,6.8,0.2,10.2,0c2.5-0.1,2.7,0.8,2.3,3c-4.2,21.4-8.3,42.9-12.5,64.4c-0.9,4.8-2.6,6.2-7.5,6.3c-2.8,0-5.7-0.3-8.5,0.1
		c-3.8,0.5-3.7-1.3-3.1-4.1c1.4-6.2,2.5-12.4,3.7-18.7C668.3,499.3,668.2,498.7,668.2,497.8z"/>
	<path class="st0" d="M836.3,448.9c11,0,22,0.1,33.1-0.1c3.2,0,3.8,0.8,3.2,3.9c-1.6,7.4-1.9,7.7-9.5,7.7c-5.7,0-11.3,0.2-17-0.1
		c-3.2-0.2-4,1.1-4.6,3.9c-3.1,16.5-6.4,33-9.5,49.5c-1.5,8.1-2.3,8.9-10.4,8.9c-10,0-9.9,0-8-9.7c3.3-16.3,6.3-32.7,9.7-49
		c0.6-3-0.3-3.6-3.1-3.5c-7.3,0.2-14.7,0-22,0.1c-2.5,0-3.1-0.8-2.7-3.2c1.1-7.3,2.2-8.4,9.4-8.4
		C815.4,448.9,825.8,448.9,836.3,448.9z"/>
	<path class="st0" d="M1221.5,346.9c11.2,0,22.3,0.1,33.5-0.1c2.8,0,3.3,0.8,2.8,3.4c-1.5,7.8-1.8,8.1-10,8.1
		c-5.5,0-11,0.2-16.5-0.1c-3.2-0.2-4.1,1.1-4.6,3.9c-3.1,16.5-6.4,32.9-9.5,49.4c-1.6,8.2-2.4,9-10.8,9c-9.5,0-9.6,0-7.8-9.2
		c3.2-16.5,6.3-32.9,9.7-49.4c0.7-3.3-0.3-3.8-3.3-3.7c-7.2,0.2-14.4,0-21.6,0.1c-2.5,0-3.5-0.3-2.9-3.2c1.3-7.3,2.1-8.2,9.5-8.2
		C1200.6,346.9,1211,346.9,1221.5,346.9z"/>
	<path class="st0" d="M1113.8,420.4c2.9-15.1,5.8-30.1,8.7-45c1.6-8.3,3.3-16.6,4.8-24.9c0.5-2.7,1.5-3.8,4.3-3.6
		c3.4,0.3,6.8,0.2,10.2,0c3.8-0.2,4.6,1.4,3.9,4.8c-3.5,17.7-6.9,35.5-10.5,53.1c-0.7,3.3-0.1,4.3,3.5,4.3
		c11.2-0.2,22.3-0.1,33.5-0.1c2.5,0,5.3-0.4,5.3,3.6c-0.1,6-1.2,7.9-5.3,7.9c-18.2,0-36.5,0-54.7,0
		C1116.4,420.6,1115.2,420.5,1113.8,420.4z"/>
</g>
</svg>
