<?xml version="1.0" encoding="UTF-8"?>
<!DOCTYPE svg PUBLIC "-//W3C//DTD SVG 1.1//EN" "http://www.w3.org/Graphics/SVG/1.1/DTD/svg11.dtd">
<svg id="Layer_1" xmlns="http://www.w3.org/2000/svg" viewBox="0 0 120 45.4"><path fill="#525252" id="XMLID_1_" class="st0" d="M100.6.5v40.4l3.5 3.6h4V.5h-7.5zM64.4 12.3l-4.8 22.5-5.1-22.5h-7.3l1.6 5.6-4.8 17-5.1-22.6h-7.3l9 32.1h6.3l4.8-16.1 4.5 16.1H63l8.7-32.1h-7.3zm33.4 27.5c-2.4 2.8-6.3 5.2-11.4 5.2-9 0-15.6-6.3-15.6-16.7 0-10 5.9-16.7 13.8-16.7 8.6 0 14.2 7 13.1 17.8H78.5v.3c0 5.3 3.2 8.9 8 8.9 2.6 0 5.1-1 7.1-2.9l4.2 4.1zM78.5 24.7H91c-.2-4.5-2.6-7.3-6.1-7.3-3.5 0-6 2.9-6.4 7.3zM119.8.5v44h-4l-3.5-3.6V.5h7.5zm-98 0V15c-2-2-4.5-3.3-7.6-3.3-7.5 0-14 6.6-14 17.2 0 9 5.2 16.1 13.6 16.1 3.2 0 6.1-1.4 8.5-4l2.6 3.4h4.4V.4h-7.5zm-6.3 38.4c-4.4 0-7.6-4.1-7.6-10.4 0-6.7 3.4-10.5 7.5-10.5 2.2 0 4.8 1.4 6.4 3.9v13.4c-1.5 2.2-3.9 3.6-6.3 3.6z"></path></svg>
