<?xml version="1.0" encoding="utf-8"?>
<!-- Generator: Adobe Illustrator 23.0.4, SVG Export Plug-In . SVG Version: 6.00 Build 0)  -->
<svg version="1.1" id="Layer_1" xmlns="http://www.w3.org/2000/svg" xmlns:xlink="http://www.w3.org/1999/xlink" x="0px" y="0px"
	 viewBox="0 0 250 250" style="enable-background:new 0 0 250 250;" xml:space="preserve">
<style type="text/css">
	.st0{fill:#525252;}
</style>
<g id="_x39_qX0Qc.tif">
	<g>
		<path class="st0" d="M25,128.4c0.3,0,0.7,0,1,0c63.9,0,127.8,0,191.6,0c1.1,0,1.1,0,1.1,1.1s0,2.3,0,3.4c0,0.6-0.2,0.8-0.7,0.7
			c-0.1,0-0.3,0-0.4,0c-63.9,0-127.8,0-191.6,0c-0.3,0-0.7,0-1,0C25,132,25,130.2,25,128.4z"/>
		<path class="st0" d="M65.2,90.6c0.8,0.4,1.6,0.3,2.4,0.5c9.1,2,13.6,12,9,20.1c-0.3,0.6-0.3,0.9,0.1,1.4c1.2,1.7,2.3,3.4,3.6,5.2
			c-2.3,0-4.5,0-6.6,0c-0.6,0-0.7-0.6-0.9-1c-0.4-0.6-0.7-0.7-1.4-0.3c-7,4-16.2,1.5-19.8-5.5c-4.4-8.4,0.8-18.6,10.1-20
			c0.4-0.1,0.8,0,1.2-0.3C63.6,90.6,64.4,90.6,65.2,90.6z M65.5,106c2,0,4,0,5.9,0c0.6,0,0.8-0.2,0.8-0.7c0.5-5.9-4.5-10.3-10.1-8.9
			c-4.1,1.1-6.5,5.1-5.8,9.6c0.9,5.7,7.2,8.7,12.1,5.7c0.5-0.3,0.7-0.5,0.3-1.1C67.6,109.2,66.6,107.7,65.5,106z"/>
		<path class="st0" d="M25,91.2c3.9,0,7.7,0,11.6,0c2.6,0,5.2,0,7.8,0c0.6,0,0.8,0.2,0.8,0.8c0,1.2,0,2.5,0,3.7
			c0,0.6-0.1,0.8-0.8,0.8c-4.2,0-8.4,0-12.6,0c-0.7,0-0.9,0.2-0.9,0.9c0.1,1.3,0.1,2.5,0,3.8c0,0.6,0.2,0.8,0.8,0.7
			c3.7,0,7.3,0,11,0c0.7,0,0.9,0.2,0.8,0.9c-0.1,1.2,0,2.5,0,3.7c0,0.6-0.2,0.7-0.7,0.7c-3.6,0-7.3,0-10.9,0c-0.8,0-1,0.2-1,1
			c0.1,1.3,0,2.6,0,3.9c0,0.6,0.1,0.8,0.8,0.8c4.3,0,8.6,0,12.9,0c0.6,0,0.9,0.1,0.9,0.8c-0.1,1.3,0,2.6,0,3.9
			c0,0.4-0.1,0.6-0.5,0.6c-6.6,0-13.1,0-19.7,0c-0.1,0-0.1,0-0.2-0.1C25,108.9,25,100,25,91.2z"/>
		<path class="st0" d="M46.3,159.4c-0.1-0.3-0.4-0.3-0.6-0.3c-3.5-1-5.4-4.3-4.7-8c0.6-3.3,3.8-5.7,7.3-5.4s6.1,2.8,6.4,6.2
			c0.3,3.5-1.8,6.4-5.1,7.3c-0.3,0.1-0.7-0.1-0.9,0.2C47.8,159.4,47.1,159.4,46.3,159.4z M52.2,152.5c0-2.7-2-4.7-4.5-4.7
			s-4.4,2-4.4,4.6c0,2.7,2,4.7,4.5,4.7C50.3,157.2,52.2,155.2,52.2,152.5z"/>
		<path class="st0" d="M143.6,159.4c-0.1-0.3-0.5-0.2-0.7-0.3c-1.6-0.5-2.6-1.5-2.8-3.2s0.5-2.9,2-3.7c0.7-0.4,0.7-0.6,0.3-1.2
			c-0.8-1.2-0.9-2.6,0-3.8c0.9-1.3,2.3-1.7,3.9-1.5c1.4,0.2,2.4,0.9,2.8,2.3c0.4,1.5-0.3,2.9-1.9,3.8c-0.3,0.1-0.6,0.3-1,0.5
			c0.7,0.7,1.4,1.3,2.1,1.9c0.2,0.2,0.4,0.2,0.5,0c0.2-0.2,0.3-0.4,0.5-0.6c0.9-1,0.9-1,1.9,0c0.4,0.4,0.4,0.7,0,1.1
			c-1.2,1.3-1.2,1.3,0,2.6c0.5,0.5,1,1,1.6,1.7c-1.5-0.1-2.9,0.4-3.8-1c-0.3-0.5-0.7-0.5-1.1-0.1c-0.8,0.8-1.9,1-2.9,1.3
			C144.5,159.4,144,159.4,143.6,159.4z M144.5,157.4c0.8,0,1.5-0.5,2.1-1.1c0.3-0.3,0.1-0.4-0.1-0.6c-0.7-0.7-1.4-1.4-2.1-2.1
			c-0.2-0.2-0.3-0.3-0.6-0.2c-0.9,0.3-1.8,1.5-1.7,2.4C142.3,156.7,143.2,157.4,144.5,157.4z M147,149c0-0.9-0.6-1.5-1.5-1.5
			s-1.5,0.6-1.6,1.6c0,0.7,0.7,1.9,1.1,1.9C145.8,151,147,149.8,147,149z"/>
		<path class="st0" d="M122.1,159.4c-0.1-0.3-0.5-0.3-0.7-0.3c-1.2-0.3-2.2-0.8-3.1-1.6c-0.3-0.2-0.3-0.4-0.1-0.7
			c0.9-1.3,0.9-1.3,2.3-0.4c1.2,0.7,2.4,1,3.8,0.8c0.8-0.1,1.4-0.5,1.5-1.4s-0.4-1.4-1.2-1.7c-0.6-0.2-1.1-0.4-1.7-0.5
			c-0.6-0.2-1.2-0.3-1.7-0.5c-2-0.7-2.8-1.8-2.7-3.6c0.1-1.8,1.3-3.2,3.2-3.5c2-0.4,3.9,0,5.6,1.2c0.3,0.2,0.5,0.4,0.2,0.8l-0.1,0.1
			c-0.8,1.1-0.8,1.1-1.9,0.5c-1-0.5-2-0.8-3.1-0.6c-0.8,0.1-1.4,0.5-1.5,1.3s0.3,1.4,1.1,1.6c0.7,0.2,1.4,0.4,2,0.6
			c0.6,0.2,1.2,0.3,1.8,0.6c1.8,0.7,2.5,1.8,2.4,3.5s-1.1,2.9-2.8,3.5c-0.4,0.1-0.9,0.1-1.3,0.3
			C123.3,159.4,122.7,159.4,122.1,159.4z"/>
		<path class="st0" d="M212.8,159.4c-0.2-0.3-0.5-0.3-0.8-0.3c-1.1-0.3-2.1-0.8-3-1.5c-0.3-0.2-0.3-0.4-0.1-0.7
			c0.9-1.3,0.9-1.3,2.3-0.4c1.2,0.7,2.4,1,3.8,0.8c0.8-0.1,1.4-0.5,1.5-1.4s-0.4-1.4-1.2-1.7c-0.7-0.2-1.4-0.4-2.1-0.6
			c-0.5-0.1-0.9-0.3-1.4-0.4c-2-0.7-2.8-1.9-2.6-3.8c0.2-1.8,1.4-3.1,3.3-3.4c1.9-0.3,3.7,0.1,5.4,1.2c0.4,0.3,0.6,0.5,0.2,0.9
			c0,0,0,0-0.1,0.1c-0.8,1.1-0.8,1.1-1.9,0.5c-1-0.5-2-0.8-3.1-0.6c-0.8,0.1-1.4,0.5-1.5,1.3c-0.1,0.9,0.4,1.4,1.1,1.6
			c0.7,0.2,1.4,0.4,2,0.6c0.6,0.2,1.3,0.4,1.9,0.6c1.7,0.7,2.4,1.8,2.3,3.5c-0.1,1.6-1.1,2.9-2.7,3.4c-0.5,0.2-1,0.1-1.4,0.4
			C214.1,159.4,213.4,159.4,212.8,159.4z"/>
		<path class="st0" d="M25,151.5c0.3-0.3,0.2-0.7,0.3-1c1.6-5.4,8.1-6,11.3-3.1c0.3,0.3,0.4,0.4,0.1,0.7c-0.4,0.4-0.7,1-1.1,1.2
			c-0.5,0.2-0.8-0.5-1.2-0.7c-2-1.2-4.4-0.9-5.8,0.8c-1.5,1.8-1.4,4.7,0.1,6.4c1.5,1.6,3.9,1.9,5.9,0.6c1.2-0.8,1.2-0.8,2.2,0.3
			c0.3,0.3,0.3,0.5,0,0.7c-1,0.9-2.1,1.6-3.4,1.8c-0.1,0-0.4-0.1-0.4,0.2c-0.8,0-1.6,0-2.4,0c-0.1-0.2-0.3-0.2-0.4-0.2
			c-2.5-0.7-4.1-2.3-4.8-4.8c0-0.2,0-0.4-0.3-0.5C25,153.1,25,152.3,25,151.5z"/>
		<path class="st0" d="M225,147.9c-0.5-0.1-0.5-0.1-0.5-1.1c-0.3,0-0.3,0.4-0.6,0.5c-0.1-0.2-0.3-0.4-0.5-0.6
			c-0.3,0.4,0.1,0.8-0.3,1.2c-0.3-0.6-0.1-1.2-0.1-1.8c0-0.4,0.3-0.3,0.5-0.1s0.3,0.4,0.4,0.6c0.5,0.1,0.4-1.2,1.2-0.5
			C225,146.7,225,147.3,225,147.9z"/>
		<path class="st0" d="M176,90.7c7.3,0,12.8,4.6,14,11.5c1.3,7.5-4,14.9-11.7,15.9c-5.5,0.7-10.3-0.7-13.7-5.2
			c-6.3-8.2-1.4-20.3,8.8-21.9C174.3,90.8,175.2,90.8,176,90.7z M184.1,104.6c0-4.8-3.5-8.4-8.1-8.4c-4.5,0-8,3.6-8,8.3
			c0,4.8,3.5,8.4,8.1,8.4C180.7,112.9,184.1,109.3,184.1,104.6z"/>
		<path class="st0" d="M218.7,117.8c-2.3,0-4.4,0-6.5,0c-0.4,0-0.5-0.3-0.7-0.6c-1.6-2.4-3.3-4.9-4.9-7.3c-0.3-0.4-0.6-0.6-1.1-0.6
			c-1.1,0-2.1,0.1-3.2,0c-0.6,0-0.7,0.2-0.7,0.8c0,2.3,0,4.7,0,7c0,0.5-0.1,0.7-0.7,0.7c-1.5,0-3,0-4.6,0c-0.6,0-0.6-0.2-0.6-0.7
			c0-8.4,0-16.9,0-25.3c0-0.3-0.1-0.7,0.5-0.7c4.5,0.1,9.1-0.3,13.6,0.2c3.6,0.3,6.5,2,7.6,5.7c1.2,3.9,0.4,8.9-4.7,11.1
			c-0.6,0.2-0.4,0.4-0.2,0.8c1.9,2.8,3.9,5.6,5.8,8.4C218.5,117.4,218.6,117.6,218.7,117.8z M201.6,100.3c0,1.1,0,2.2,0,3.3
			c0,0.3,0,0.6,0.4,0.6c2.2-0.1,4.4,0.1,6.6-0.1c2.1-0.3,3.4-1.7,3.4-3.6c0-2.1-1.1-3.5-3.3-3.8s-4.5-0.1-6.8-0.1
			c-0.4,0-0.4,0.2-0.4,0.5C201.6,98.1,201.6,99.2,201.6,100.3z"/>
		<path class="st0" d="M84,100c0-2.7,0-5.3,0-8c0-0.6,0.1-0.9,0.8-0.8c1.4,0.1,2.9,0.1,4.3,0c0.7,0,0.8,0.2,0.8,0.9
			c0,4.6,0,9.3,0,13.9c0,0.8,0,1.7,0.2,2.5c0.6,3,2.7,4.5,5.9,4.4c3-0.1,4.9-1.9,5.3-4.9c0.1-0.9,0.1-1.9,0.1-2.8
			c0-4.4,0-8.8,0-13.1c0-0.7,0.2-0.9,0.9-0.8c1.5,0,2.9,0,4.4,0c0.4,0,0.7,0,0.7,0.5c-0.1,5.4,0.2,10.8-0.1,16.2
			c-0.4,6.4-4.3,10-10.7,10.3c-2.1,0.1-4.2-0.1-6.2-0.9c-4.1-1.7-5.8-5-6.1-9.2C84,105.4,84.1,102.7,84,100
			C84.1,100,84.1,100,84,100z"/>
		<path class="st0" d="M137.9,117.8c-2,0-3.9,0-5.8,0c-0.4,0-0.4-0.3-0.5-0.6c-0.7-1.6-1.3-3.2-2-4.8c-0.2-0.4-0.4-0.6-0.8-0.6
			c-3.4,0-6.8,0-10.1,0c-0.5,0-0.6,0.2-0.8,0.6c-0.6,1.6-1.3,3.2-1.9,4.8c-0.2,0.5-0.4,0.7-0.9,0.6c-1.5,0-3,0-4.6,0
			c-0.7,0-0.7-0.2-0.5-0.8c3-7.1,6.1-14.2,9.1-21.3c0.6-1.3,1.2-2.7,1.7-4c0.2-0.6,0.5-0.8,1.2-0.8c1.2,0.1,2.5,0.1,3.7,0
			c0.7,0,1,0.2,1.3,0.8c3.4,8,6.8,15.9,10.1,23.9C137.3,116.4,137.6,117.1,137.9,117.8z M123.7,98.1c-1.1,2.8-2.2,5.4-3.3,8
			c-0.2,0.5-0.1,0.6,0.4,0.6c1.9,0,3.9,0,5.8,0c0.3,0,0.6,0.1,0.4-0.4C126,103.6,124.9,100.9,123.7,98.1z"/>
		<path class="st0" d="M148.4,91.2c3.4,0,6.8,0,10.2,0c0.7,0,0.9,0.2,0.8,0.9c0,1.3,0,2.5,0,3.8c0,0.6-0.1,0.8-0.8,0.8
			c-2.2,0-4.4,0-6.5,0c-0.7,0-0.9,0.2-0.8,0.8c0,6.5,0,13,0,19.5c0,0.8-0.2,0.9-0.9,0.9c-1.4-0.1-2.8,0-4.2,0
			c-0.6,0-0.8-0.2-0.8-0.8c0-6.5,0-13.1,0-19.6c0-0.8-0.2-0.9-0.9-0.9c-2.1,0-4.3,0-6.4,0c-0.6,0-0.8-0.2-0.7-0.8c0-1.3,0-2.6,0-3.9
			c0-0.6,0.2-0.7,0.8-0.7C141.6,91.2,145,91.2,148.4,91.2z"/>
		<path class="st0" d="M178.2,152.4c0-1.9,0-3.9,0-5.8c0-0.5,0.1-0.7,0.7-0.7c2.8,0,5.7,0,8.5,0c0.6,0,0.7,0.2,0.7,0.7
			c0,1.4,0,1.4-1.4,1.4c-1.8,0-3.7,0-5.5,0c-0.5,0-0.6,0.1-0.6,0.6c0,0.7,0,1.4,0,2.1c0,0.5,0.2,0.7,0.7,0.7c1.7,0,3.5,0,5.2,0
			c0.6,0,0.8,0.2,0.7,0.8c0,0.2,0,0.3,0,0.5c0.1,0.6-0.1,0.8-0.8,0.8c-1.7-0.1-3.4,0-5.2,0c-0.6,0-0.8,0.1-0.7,0.7
			c0.1,0.7,0.1,1.4,0,2.1c-0.1,0.7,0.2,0.8,0.8,0.8c2,0,4,0,6,0c0.6,0,0.8,0.2,0.7,0.8c0,0.2,0,0.5,0,0.7c0.1,0.5-0.1,0.7-0.7,0.7
			c-2.9,0-5.7,0-8.6,0c-0.6,0-0.7-0.2-0.7-0.7C178.2,156.4,178.2,154.4,178.2,152.4z"/>
		<path class="st0" d="M89,152.4c0-2,0-3.9,0-5.9c0-0.5,0.1-0.6,0.6-0.6c2.9,0,5.7,0,8.6,0c0.5,0,0.6,0.2,0.6,0.6
			c0,1.5,0,1.5-1.4,1.5c-1.8,0-3.6,0-5.4,0c-0.5,0-0.7,0.2-0.7,0.7c0.1,0.9-0.3,2,0.1,2.6c0.5,0.6,1.7,0.1,2.5,0.2
			c1.1,0,2.2,0,3.3,0c0.5,0,0.7,0.1,0.7,0.7c0,1.4,0,1.4-1.4,1.4c-1.5,0-3,0-4.5,0c-0.5,0-0.7,0.1-0.6,0.6c0,0.8,0,1.5,0,2.3
			c0,0.5,0.2,0.6,0.6,0.6c2,0,4.1,0,6.1,0c0.7,0,1,0.1,0.8,0.8c0,0.3,0,0.5,0,0.8c0,0.4-0.1,0.5-0.5,0.5c-3,0-6,0-8.9,0
			c-0.5,0-0.5-0.3-0.5-0.6C89,156.5,89,154.5,89,152.4z"/>
		<path class="st0" d="M103.9,152.5c0-2,0-4,0-5.9c0-0.5,0.2-0.7,0.7-0.7c2.8,0,5.7,0,8.5,0c0.6,0,0.7,0.2,0.7,0.7
			c0,1.4,0,1.4-1.4,1.4c-1.8,0-3.7,0-5.5,0c-0.5,0-0.7,0.1-0.6,0.6c0,0.7,0,1.4,0,2.1c0,0.5,0.2,0.7,0.7,0.7c1.7,0,3.5,0,5.2,0
			c0.5,0,0.7,0.1,0.7,0.7c0,1.4,0,1.4-1.4,1.4c-1.5,0-3.1,0-4.6,0c-0.5,0-0.6,0.1-0.6,0.6c0,0.7,0,1.5,0,2.2c0,0.5,0.1,0.7,0.7,0.7
			c2,0,4.1,0,6.1,0c0.6,0,0.9,0.1,0.8,0.8c0,0.2,0,0.5,0,0.7c0.1,0.5-0.1,0.7-0.6,0.6c-2.9,0-5.8,0-8.7,0c-0.5,0-0.6-0.1-0.6-0.6
			C103.9,156.5,103.9,154.5,103.9,152.5z"/>
		<path class="st0" d="M205.6,159.1c-0.8,0-1.4,0-2.1,0c-0.3,0-0.4-0.2-0.5-0.5c-0.3-0.7-0.6-1.4-0.9-2.1c-0.2-0.5-0.4-0.6-0.9-0.6
			c-1.7,0-3.3,0-5,0c-0.5,0-0.7,0.2-0.9,0.6c-0.1,0.4-0.3,0.7-0.4,1c-0.7,1.7-0.9,1.8-3,1.4c0.9-2,1.7-4,2.6-6
			c1-2.2,1.9-4.4,2.9-6.6c0.2-0.5,0.4-0.7,0.9-0.6c1.5,0,1.5,0,2.1,1.4c1.6,3.7,3.2,7.4,4.8,11.1
			C205.3,158.5,205.4,158.7,205.6,159.1z M198.7,148.6c-0.8,1.8-1.5,3.5-2.2,5.2c1.5,0,3,0,4.5,0
			C200.2,152.1,199.5,150.4,198.7,148.6z"/>
		<path class="st0" d="M59.2,152.5c0-2,0-4,0-5.9c0-0.5,0.1-0.7,0.7-0.7c2.8,0,5.7,0,8.5,0c0.5,0,0.7,0.1,0.7,0.6
			c0,1.5,0,1.5-1.5,1.5c-1.8,0-3.6,0-5.4,0c-0.5,0-0.6,0.1-0.6,0.6c0,0.7,0,1.5,0,2.2c0,0.6,0.1,0.8,0.7,0.8c1.7,0,3.4,0,5.2,0
			c0.6,0,0.8,0.1,0.8,0.7c0,1.4,0,1.4-1.4,1.4c-1.5,0-3.1,0-4.6,0c-0.5,0-0.6,0.1-0.6,0.6c0,1.3,0,2.7,0,4c0,0.5-0.1,0.7-0.7,0.7
			c-1.7,0-1.7,0-1.7-1.6C59.2,155.8,59.2,154.2,59.2,152.5z"/>
		<path class="st0" d="M74.1,152.5c0-2,0-4,0-6c0-0.5,0.1-0.6,0.6-0.6c2.9,0,5.7,0,8.6,0c0.5,0,0.7,0.1,0.7,0.7c0,1.5,0,1.5-1.4,1.5
			c-1.8,0-3.7,0-5.5,0c-0.5,0-0.7,0.1-0.6,0.6c0,0.7,0.1,1.5,0,2.2s0.2,0.8,0.8,0.8c1.7,0,3.4,0,5.1,0c0.6,0,0.7,0.1,0.7,0.7
			c0,1.4,0,1.4-1.4,1.4c-1.5,0-3,0-4.5,0c-0.6,0-0.8,0.1-0.8,0.7c0,1.3,0,2.6,0,3.9c0,0.5,0,0.7-0.6,0.7c-1.7,0-1.7,0-1.7-1.7
			C74.1,155.8,74.1,154.2,74.1,152.5z"/>
		<path class="st0" d="M168.8,153.5c0,1.6,0,3.2,0,4.8c0,0.6-0.1,0.8-0.7,0.8c-1.6,0-1.6,0-1.6-1.6c0-2.9,0-5.8,0-8.7
			c0-0.7-0.2-0.9-0.9-0.8c-0.9,0.1-1.8,0-2.7,0c-0.4,0-0.6-0.1-0.6-0.6c0-1.6-0.1-1.6,1.5-1.6c2.8,0,5.6,0,8.4,0
			c0.6,0,0.8,0.1,0.8,0.8c-0.1,1.4,0,1.4-1.4,1.4c-0.7,0-1.4,0-2.1,0c-0.6,0-0.7,0.2-0.7,0.7C168.8,150.3,168.8,151.9,168.8,153.5z"
			/>
		<path class="st0" d="M220.9,146c0.6-0.1,1.1-0.2,1.8,0c-1.3,0.2-0.5,1.3-1,1.8C221.1,147.4,222.1,146.2,220.9,146z"/>
	</g>
</g>
</svg>
