<?xml version="1.0" encoding="UTF-8"?>
<svg width="1830px" height="790px" viewBox="0 0 1830 790" version="1.1" xmlns="http://www.w3.org/2000/svg" xmlns:xlink="http://www.w3.org/1999/xlink">
    <!-- Generator: Sketch 55.2 (78181) - https://sketchapp.com -->
    <title>fox</title>
    <desc>Created with Sketch.</desc>
    <g id="Page-1" stroke="none" stroke-width="1" fill="#525252" fill-rule="evenodd">
        <g id="fox" fill="#525252" fill-rule="nonzero">
            <path d="M1829.4885,787.89959 C1746.2885,787.89959 1661.5885,787.89959 1579.3885,787.89959 C1577.0885,787.89959 1572.8885,777.79959 1571.6885,775.69959 C1537.2885,713.59959 1502.8885,651.19959 1468.6885,589.19959 C1432.0885,655.19959 1396.4885,722.29959 1359.9885,788.39959 C1278.0885,788.59959 1196.8885,787.99959 1115.6885,788.19959 C1124.8885,770.99959 1134.6885,754.19959 1144.4885,737.29959 C1212.7885,619.29959 1280.0885,499.69959 1348.4885,381.59959 C1275.7885,254.59959 1201.9885,128.59959 1128.8885,1.8995918 C1128.6885,1.8995918 1128.1885,1.0995918 1128.6885,1.1995918 C1212.4885,1.1995918 1296.1885,1.1995918 1379.9885,1.1995918 C1410.8885,57.399592 1440.9885,114.29959 1471.3885,170.89959 C1502.9885,114.79959 1533.4885,57.599592 1564.7885,1.1995918 C1645.7885,1.1995918 1726.6885,1.1995918 1807.6885,1.1995918 C1807.8885,2.1995918 1807.1885,3.2995918 1806.6885,4.0995918 C1735.7885,128.69959 1663.1885,253.69959 1592.3885,378.49959 C1671.0885,515.09959 1751.2885,651.59959 1829.4885,787.89959 L1829.4885,787.89959 Z" id="path1371_1_"></path>
            <path d="M1222.2885,306.49959 C1228.6885,332.49959 1232.3885,361.09959 1232.3885,391.19959 C1232.3885,485.09959 1205.1885,554.69959 1167.3885,611.29959 C1160.9885,620.89959 1154.4885,630.09959 1147.4885,638.89959 C1126.9885,664.89959 1102.1885,688.59959 1074.4885,708.29959 C1055.8885,721.49959 1036.4885,733.49959 1014.9885,743.59959 C972.18854,763.69959 920.48854,779.39959 860.88854,779.39959 C767.68854,779.39959 698.88854,750.99959 643.18854,711.99959 C587.48854,672.89959 544.08854,621.19959 514.58854,555.99959 C494.78854,512.29959 481.78854,461.89959 480.28854,400.49959 C479.58854,370.09959 483.38854,340.09959 488.88854,314.09959 C502.88854,248.49959 530.38854,197.09959 565.18854,152.79959 C599.98854,108.59959 644.08854,73.999592 697.38854,47.899592 C718.28854,37.699592 741.68854,28.999592 767.18854,22.699592 C792.68854,16.399592 820.88854,12.099592 851.38854,12.099592 C851.58854,12.099592 851.68854,12.099592 851.88854,12.099592 C881.68854,10.699592 913.28854,15.499592 938.08854,20.999592 C963.88854,26.699592 987.78854,35.399592 1009.0885,44.999592 C1075.0885,74.799592 1124.2885,119.39959 1163.8885,175.09959 C1189.9885,211.59959 1209.5885,255.39959 1222.2885,306.49959 Z M922.28854,567.09959 C924.68854,557.49959 923.98854,545.19959 923.98854,532.49959 C923.98854,435.59959 923.98854,340.69959 923.98854,243.49959 C923.98854,231.09959 922.58854,221.49959 918.98854,212.49959 C915.68854,204.29959 910.58854,196.79959 904.58854,190.69959 C892.88854,178.79959 875.28854,168.09959 853.18854,169.79959 C842.48854,170.59959 833.58854,173.99959 825.78854,178.89959 C811.28854,188.09959 800.28854,202.19959 795.78854,220.89959 C793.48854,230.39959 793.58854,242.49959 793.58854,254.99959 C793.58854,350.59959 793.58854,447.49959 793.58854,543.99959 C793.58854,550.19959 793.28854,556.19959 794.08854,561.49959 C796.18854,576.69959 802.98854,588.89959 811.88854,597.99959 C823.38854,609.69959 841.18854,619.49959 864.18854,616.99959 C893.88854,613.79959 915.68854,594.09959 922.28854,567.09959 Z" id="path1373_1_"></path>
            <path d="M490.48854,215.79959 C401.88854,215.79959 313.38854,215.79959 224.78854,215.79959 C223.68854,248.79959 224.58854,285.29959 224.28854,318.499592 C296.08854,319.09959 368.98854,318.59959 441.28854,318.69959 C441.28854,390.499592 441.28854,462.19959 441.28854,533.999592 C368.48854,534.19959 295.08854,533.69959 222.68854,534.19959 C222.78854,619.59959 223.18854,703.39959 223.18854,788.79959 C223.18854,789.09959 223.08854,789.19959 222.98854,789.29959 C149.18854,789.29959 75.288544,789.29959 1.4885438,789.29959 C1.0885438,789.39959 1.0885438,789.09959 0.78854383,789.09959 C0.28854383,526.89959 0.28854383,262.999592 0.68854383,0.6995918 C0.68854383,0.3995918 0.68854383,-0.0004082 0.88854383,-0.0004082 C159.08854,-0.0004082 317.28854,-0.0004082 475.38854,-0.0004082 C475.68854,-0.0004082 475.78854,-0.0004082 475.88854,0.1995918 C480.88854,71.9995918 485.68854,143.89959 490.48854,215.79959 Z" id="path1377_1_"></path>
        </g>
    </g>
</svg>
