<?xml version="1.0" encoding="UTF-8" standalone="no"?>
<!-- Created with Inkscape (http://www.inkscape.org/) -->
<svg xmlns:dc="http://purl.org/dc/elements/1.1/" xmlns:cc="http://creativecommons.org/ns#" xmlns:rdf="http://www.w3.org/1999/02/22-rdf-syntax-ns#" xmlns:svg="http://www.w3.org/2000/svg" xmlns="http://www.w3.org/2000/svg" xmlns:sodipodi="http://sodipodi.sourceforge.net/DTD/sodipodi-0.dtd" xmlns:inkscape="http://www.inkscape.org/namespaces/inkscape" version="1.0" width="1829.088" height="789.32001" viewBox="0.4 -4 1829.088 789.32001" id="svg2" xml:space="preserve" inkscape:version="0.92.3 (2405546, 2018-03-11)" sodipodi:docname="Fox (2nd Blue).svg"><metadata id="metadata9"><rdf:RDF><cc:Work rdf:about=""><dc:format>image/svg+xml</dc:format><dc:type rdf:resource="http://purl.org/dc/dcmitype/StillImage"/><dc:title/></cc:Work></rdf:RDF></metadata><sodipodi:namedview pagecolor="#ffffff" bordercolor="#666666" borderopacity="1" objecttolerance="10" gridtolerance="10" guidetolerance="10" inkscape:pageopacity="0" inkscape:pageshadow="2" inkscape:window-width="1360" inkscape:window-height="706" id="namedview7" showgrid="false" inkscape:zoom="0.33842794" inkscape:cx="559.20749" inkscape:cy="333.13277" inkscape:window-x="-8" inkscape:window-y="-8" inkscape:window-maximized="1" inkscape:current-layer="svg2"/><defs id="defs4"/><path d="m 1829.4885,783.89959 c -83.2,0 -167.9,0 -250.1,0 -2.3,0 -6.5,-10.1 -7.7,-12.2 -34.4,-62.1 -68.8,-124.5 -103,-186.5 -36.6,66 -72.2,133.1 -108.7,199.2 -81.9,0.2 -163.1,-0.4 -244.3,-0.2 9.2,-17.2 19,-34 28.8,-50.9 68.3,-118 135.6,-237.6 204,-355.7 -72.7,-127 -146.5,-253 -219.6,-379.6999982 -0.2,0 -0.7,-0.8 -0.2,-0.7 83.8,0 167.5,0 251.3,0 30.9,56.2000002 61,113.0999982 91.4,169.6999982 31.6,-56.1 62.1,-113.299998 93.4,-169.6999982 81,0 161.9,0 242.9,0 0.2,1 -0.5,2.1 -1,2.9 -70.9,124.5999982 -143.5,249.5999982 -214.3,374.3999982 78.7,136.6 158.9,273.1 237.1,409.4 z" style="fill:#002885;fill-opacity:1" id="path1371_1_" inkscape:connector-curvature="0"/><path d="m 1222.2885,302.49959 c 6.4,26 10.1,54.6 10.1,84.7 0,93.9 -27.2,163.5 -65,220.1 -6.4,9.6 -12.9,18.8 -19.9,27.6 -20.5,26 -45.3,49.7 -73,69.4 -18.6,13.2 -38,25.2 -59.5,35.3 -42.79996,20.1 -94.49996,35.8 -154.09996,35.8 -93.2,0 -162,-28.4 -217.7,-67.4 -55.7,-39.1 -99.1,-90.8 -128.6,-156 -19.8,-43.7 -32.8,-94.1 -34.3,-155.5 -0.7,-30.4 3.1,-60.4 8.6,-86.4 14,-65.6 41.5,-117 76.3,-161.3 34.8,-44.2 78.9,-78.799998 132.2,-104.899998 20.9,-10.2 44.3,-18.9 69.8,-25.2 25.5,-6.3 53.7,-10.6 84.2,-10.6 0.2,0 0.3,0 0.5,0 29.8,-1.4 61.4,3.4 86.2,8.9 25.8,5.7 49.7,14.4 70.99996,24 66,29.8 115.2,74.399998 154.8,130.099998 26.1,36.5 45.7,80.3 58.4,131.4 z m -299.99996,260.6 c 2.4,-9.6 1.7,-21.9 1.7,-34.6 0,-96.9 0,-191.8 0,-289 0,-12.4 -1.4,-22 -5,-31 -3.3,-8.2 -8.4,-15.7 -14.4,-21.8 -11.7,-11.9 -29.3,-22.6 -51.4,-20.9 -10.7,0.8 -19.6,4.2 -27.4,9.1 -14.5,9.2 -25.5,23.3 -30,42 -2.3,9.5 -2.2,21.6 -2.2,34.1 0,95.6 0,192.5 0,289 0,6.2 -0.3,12.2 0.5,17.5 2.1,15.2 8.9,27.4 17.8,36.5 11.5,11.7 29.3,21.5 52.3,19 29.7,-3.2 51.5,-22.9 58.1,-49.9 z" style="fill:#002885;fill-opacity:1" id="path1373_1_" inkscape:connector-curvature="0"/><path d="m 490.48854,211.79959 c -88.6,0 -177.1,0 -265.7,0 -1.1,33 -0.2,69.5 -0.5,102.7 71.8,0.6 144.7,0.1 217,0.2 0,71.8 0,143.5 0,215.3 -72.8,0.2 -146.2,-0.3 -218.6,0.2 0.1,85.4 0.5,169.2 0.5,254.6 0,0.3 -0.1,0.4 -0.2,0.5 -73.8,0 -147.699996,0 -221.4999962,0 -0.4,0.1 -0.4,-0.2 -0.69999997,-0.2 -0.5,-262.2 -0.5,-526.1 -0.1,-788.3999982 0,-0.3 0,-0.7 0.2,-0.7 158.19999617,0 316.39999617,0 474.49999617,0 0.3,0 0.4,0 0.5,0.2 5,71.8000002 9.8,143.6999982 14.6,215.5999982 z" style="fill:#002885;fill-opacity:1" id="path1377_1_" inkscape:connector-curvature="0"/></svg>