<?xml version="1.0" encoding="utf-8"?>
<!-- Generator: Adobe Illustrator 23.0.4, SVG Export Plug-In . SVG Version: 6.00 Build 0)  -->
<svg version="1.1" id="Layer_1" xmlns="http://www.w3.org/2000/svg" xmlns:xlink="http://www.w3.org/1999/xlink" x="0px" y="0px"
	 viewBox="0 0 250 250" style="enable-background:new 0 0 250 250;" xml:space="preserve">
<style type="text/css">
	.st0{fill:#525252;}
</style>
<g id="TJmhMQ.tif">
	<g>
		<path class="st0" d="M123.5,25c41.2-0.2,74.5,32.4,74.7,73.2c0.2,41.1-32.6,74.2-73.7,74.4c-40.3,0.2-73.6-32.8-73.9-73
			C50.2,58.5,83.1,25.5,123.5,25z M67.4,62c8.9,0.8,17.3,2.4,25.4,5.4c8.3,3,15.2,8.1,21.6,14.3c-5-17.7-1.4-34.3,6.1-50.4
			c-6.6-0.2-18.4,2.3-28.3,7.8C82.1,44.6,73.9,52.1,67.4,62z M134.4,116c5,17.7,1.3,34.3-6.3,50.5c11.3-0.7,21.7-3.9,31.2-9.6
			c8.9-5.3,16.1-12.3,21.9-21.2C163.5,134,147.1,129.5,134.4,116z M67.7,135.9c6.4,9.7,14.5,17.1,24.4,22.5
			c8.9,4.8,18.3,7.5,28.6,8.1c-7.3-16.2-11.5-32.6-6.3-50.3C101.5,129.4,85.4,134.4,67.7,135.9z M134.1,81.2
			c0.9-0.1,1.1-0.5,1.5-0.8c3.9-3.7,8.1-7.1,12.9-9.7c9.6-5.3,20.1-7.8,30.9-8.9c1.8-0.2,1.8-0.2,0.8-1.7
			c-11.1-15.6-26.1-25-44.9-28.3c-2.3-0.4-4.6-0.8-7-0.6C135.4,47.3,139.6,63.6,134.1,81.2z M64,129.4
			c10.3-14.3,22.3-26.1,40.2-30.5C86.4,94.4,74,83,63.9,68.6C54.3,82.2,54.4,115.9,64,129.4z M184.8,68.2
			c-10.3,14.4-22.4,26.2-40.3,30.5c17.8,4.5,30.2,15.9,40.4,30.3C194.3,111.8,194.8,86.9,184.8,68.2z M124.5,106.2
			c-8.5,18-8.4,35.8,0,53.7c3.4-8.2,5.8-16.5,6.1-25.3C131,124.7,128.3,115.3,124.5,106.2z M124.3,37.8c-8.1,17.9-8.2,35.6,0,53.4
			C132.6,73.5,132.7,55.7,124.3,37.8z M118.1,95.2c-6-7.5-12.2-14.3-20.3-18.9s-17-6.6-26.5-7.9C82.9,84.6,98.3,93.4,118.1,95.2z
			 M130.7,95.2c9.3-1.4,18.3-3.3,26.4-8c8.1-4.7,14.4-11.4,20.3-19C157.5,70.1,142.1,79.1,130.7,95.2z M131,102.6
			c5.2,6.9,11,13.2,18.3,17.8c8.5,5.4,18.1,7.5,28.3,8.9c-6.1-7.9-12.7-14.7-21.2-19.4C148.5,105.6,140,103.5,131,102.6z
			 M71.5,129.6c10.1-1.4,19.6-3.8,28.1-9.2c7.3-4.6,13.2-10.8,18.5-17.7C98.3,104.3,82.9,113.2,71.5,129.6z"/>
		<path class="st0" d="M207.3,205.6c-3.1,6.6-6.1,12.9-9.2,19.4c-3-6.5-5.8-12.9-8.6-19.2c-0.7,0.4-0.6,1-0.7,1.4
			c-1,4.9-2,9.7-2.9,14.6c-0.2,0.9-0.4,1.2-1.3,1.2c-0.9-0.1-1.8-0.1-2.7,0s-1.3-0.2-1.1-1.2c2.1-10.6,4.2-21.2,6.3-31.8
			c0-0.2,0.1-0.4,0.3-0.9c3.6,8.1,7.1,16,10.7,24.3c3.7-8.1,7.3-15.9,10.9-23.8c1.1,1.7,1.1,3.7,1.4,5.5c1.7,8.7,3.3,17.5,5,26.2
			c0.3,1.7,0.3,1.7-1.4,1.7c-3.5,0-3.5,0-4.1-3.4c-0.7-4.2-1.5-8.5-2.3-12.7C207.6,206.6,207.5,206.3,207.3,205.6z"/>
		<path class="st0" d="M60,205.2c2.2,0,4.3,0,6.5,0c0.5,0,1,0,1,0.8c0.3,5.9-1.5,10.9-6.7,14.3c-6.5,4.2-15,3.6-20.7-1.5
			c-5.8-5.1-7.3-13.2-3.9-20.2c3.4-6.9,10.8-10.6,18.5-9.1c4.4,0.8,8,3,10.9,6.5c0.6,0.8,0.6,1.3-0.2,2c-0.9,0.7-1.7,2-2.6,2.2
			c-1.1,0.2-1.6-1.4-2.4-2.2c-4.7-4.3-10.7-4.9-15.4-1.6c-5.1,3.6-6.6,10.8-3.3,16.1s10.1,7.2,15.5,4.3c2.1-1.2,3.6-3,4.5-5.2
			c0.4-0.9,0.4-1.4-0.9-1.4c-2.4,0.1-4.8,0-7.2,0.1c-0.9,0-1.2-0.2-1.2-1.2c0-3.8,0-3.8,3.7-3.8C57.4,205.2,58.7,205.2,60,205.2z"/>
		<path class="st0" d="M93.3,189.4c2.3,5,4.5,9.8,6.7,14.6c2.7,5.9,5.4,11.7,8.1,17.6c0.7,1.5,0.7,1.5-1,1.5c-0.8,0-1.7-0.1-2.5,0
			c-1.4,0.2-2-0.4-2.5-1.6c-0.9-2.2-1.9-4.2-2.9-6.3c-0.2,0.1-0.3,0.1-0.4,0.1c-0.6,1.7-1.9,1.9-3.6,1.8c-2.5-0.1-5.1,0-7.6-0.1
			c-1,0-1.5,0.3-1.9,1.2c-0.5,1.3-1.2,2.6-1.8,4c-0.3,0.6-0.6,0.9-1.3,0.8c-1.2,0-2.3-0.1-3.5,0c-1.1,0.1-1.5-0.1-0.9-1.3
			c3.2-6.8,6.3-13.7,9.4-20.5c1.6-3.5,3.2-7.1,4.9-10.6C92.8,190.3,93,189.9,93.3,189.4z M93.2,201.7c-1.5,3.4-2.9,6.6-4.3,9.7
			c-0.2,0.5-0.1,0.8,0.5,0.8c2.5,0,5,0,7.6,0c0.6,0,0.8-0.3,0.5-0.8C96.2,208.3,94.8,205.1,93.2,201.7z"/>
		<path class="st0" d="M155.1,189.3c2,4.3,3.8,8.4,5.7,12.4c3.1,6.7,6.1,13.3,9.2,20c0.5,1,0.5,1.5-0.8,1.4
			c-1.4-0.1-3.1,0.4-4.3-0.2c-1.2-0.7-1.4-2.5-2-3.9c-0.6-1.3-1.2-2.5-1.7-3.8c-0.2,0-0.3,0-0.3,0c-0.7,1.9-2.2,2-4,1.9
			c-2.5-0.1-5,0-7.4,0c-0.8,0-1.3,0.3-1.6,1c-0.6,1.3-1.3,2.6-1.8,4c-0.3,0.9-0.8,1.1-1.7,1.1c-1.1-0.1-2.2-0.1-3.4,0
			c-1.1,0.1-1.3-0.2-0.8-1.2c2.7-5.8,5.3-11.5,8-17.3C150.4,199.6,152.6,194.6,155.1,189.3z M155.1,201.7c-1.5,3.4-2.9,6.6-4.3,9.7
			c-0.2,0.5-0.1,0.8,0.5,0.8c2.5,0,5,0,7.6,0c0.6,0,0.8-0.3,0.5-0.8C158,208.3,156.6,205.1,155.1,201.7z"/>
		<path class="st0" d="M126.8,206.1c0,5.2,0,10.4,0,15.6c0,0.9-0.2,1.4-1.2,1.3c-0.8-0.1-1.7-0.1-2.5,0c-1.1,0.1-1.4-0.3-1.4-1.4
			c0-6.9,0-13.9,0-20.8c0-3.4,0-6.8,0-10.2c0-1,0.3-1.3,1.3-1.3c0.9,0.1,1.8,0.1,2.7,0c1-0.1,1.3,0.3,1.2,1.3
			C126.7,195.8,126.8,201,126.8,206.1z"/>
	</g>
</g>
</svg>
