<?xml version="1.0" encoding="UTF-8"?>
<svg viewBox="0 0 182 200" version="1.1" xmlns="http://www.w3.org/2000/svg" xmlns:xlink="http://www.w3.org/1999/xlink">
    <path fill="#525252" d="M89.5,0.999084668 C130.7,0.8 164,33.4 164.20091,74.2 C164.4,115.3 131.6,148.4 90.5,148.600904 C50.2,148.8 16.9,115.8 16.6,75.6 C16.2,34.5 49.1,1.5 89.5,0.999084668 Z M33.4,38 C42.3,38.8 50.7,40.4 58.8,43.4 C67.1,46.4 74,51.5 80.4,57.7 C75.4,40 79,23.4 86.5,7.3 C79.9,7.1 68.1,9.6 58.2,15.1 C48.1,20.6 39.9,28.1 33.4,38 Z M100.4,92 C105.4,109.7 101.7,126.3 94.1,142.5 C105.4,141.8 115.8,138.6 125.3,132.9 C134.2,127.6 141.4,120.6 147.2,111.7 C129.5,110 113.1,105.5 100.4,92 Z M33.7,111.9 C40.1,121.6 48.2,129 58.1,134.4 C67,139.2 76.4,141.9 86.7,142.5 C79.4,126.3 75.2,109.9 80.4,92.2 C67.5,105.4 51.4,110.4 33.7,111.9 Z M100.1,57.2 C101,57.1 101.2,56.7 101.6,56.4 C105.5,52.7 109.7,49.3 114.5,46.7 C124.1,41.4 134.6,38.9 145.4,37.8 C147.2,37.6 147.2,37.6 146.2,36.1 C135.1,20.5 120.1,11.1 101.3,7.8 C99,7.4 96.7,7 94.3,7.2 C101.4,23.3 105.6,39.6 100.1,57.2 Z M30,105.4 C40.3,91.1 52.3,79.3 70.2,74.9 C52.4,70.4 40,59 29.9,44.6 C20.3,58.2 20.4,91.9 30,105.4 Z M150.8,44.2 C140.5,58.6 128.4,70.4 110.5,74.7 C128.3,79.2 140.7,90.6 150.9,105 C160.3,87.8 160.8,62.9 150.8,44.2 Z M90.5,82.2 C82,100.2 82.1,118 90.5,135.9 C93.9,127.7 96.3,119.4 96.6,110.6 C97,100.7 94.3,91.3 90.5,82.2 Z M90.3,13.8 C82.2,31.7 82.1,49.4 90.3,67.2 C98.6,49.5 98.7,31.7 90.3,13.8 Z M84.1,71.2 C78.1,63.7 71.9,56.9 63.8,52.3 C55.7,47.7 46.8,45.7 37.3,44.4 C48.9,60.6 64.3,69.4 84.1,71.2 Z M96.7,71.2 C106,69.8 115,67.9 123.1,63.2 C131.2,58.5 137.5,51.8 143.4,44.2 C123.5,46.1 108.1,55.1 96.7,71.2 Z M97,78.6 C102.2,85.5 108,91.8 115.3,96.4 C123.8,101.8 133.4,103.9 143.6,105.3 C137.5,97.4 130.9,90.6 122.4,85.9 C114.5,81.6 106,79.5 97,78.6 Z M37.5,105.6 C47.6,104.2 57.1,101.8 65.6,96.4 C72.9,91.8 78.8,85.6 84.1,78.7 C64.3,80.3 48.9,89.2 37.5,105.6 Z" id="Shape"></path>
    <path fill="#525252" d="M173.3,181.6 C170.2,188.2 167.2,194.5 164.1,201 C161.1,194.5 158.3,188.1 155.5,181.8 C154.8,182.2 154.9,182.8 154.8,183.2 C153.8,188.1 152.8,192.9 151.9,197.8 C151.7,198.7 151.5,199 150.6,199 C149.7,198.9 148.8,198.9 147.9,199 C147,199.1 146.6,198.8 146.8,197.8 C148.9,187.2 151,176.6 153.1,166 C153.1,165.8 153.2,165.6 153.4,165.1 C157,173.2 160.5,181.1 164.1,189.4 C167.8,181.3 171.4,173.5 175,165.6 C176.1,167.3 176.1,169.3 176.4,171.1 C178.1,179.8 179.7,188.6 181.4,197.3 C181.7,199 181.7,199 180,199 C176.5,199 176.5,199 175.9,195.6 C175.2,191.4 174.4,187.1 173.6,182.9 C173.6,182.6 173.5,182.3 173.3,181.6 Z" id="Path"></path>
    <path fill="#525252" d="M26,181.2 C28.2,181.2 30.3,181.2 32.5,181.2 C33,181.2 33.5,181.2 33.5,182 C33.8,187.9 32,192.9 26.8,196.3 C20.3,200.5 11.8,199.9 6.1,194.8 C0.3,189.7 -1.2,181.6 2.2,174.6 C5.6,167.7 13,164 20.7,165.5 C25.1,166.3 28.7,168.5 31.6,172 C32.2,172.8 32.2,173.3 31.4,174 C30.5,174.7 29.7,176 28.8,176.2 C27.7,176.4 27.2,174.8 26.4,174 C21.7,169.7 15.7,169.1 11,172.4 C5.9,176 4.4,183.2 7.7,188.5 C11,193.8 17.8,195.7 23.2,192.8 C25.3,191.6 26.8,189.8 27.7,187.6 C28.1,186.7 28.1,186.2 26.8,186.2 C24.4,186.3 22,186.2 19.6,186.3 C18.7,186.3 18.4,186.1 18.4,185.1 C18.4,181.3 18.4,181.3 22.1,181.3 C23.4,181.2 24.7,181.2 26,181.2 Z" id="Path"></path>
    <path fill="#525252" d="M59.3,165.4 C61.6,170.4 63.8,175.2 66,180 C68.7,185.9 71.4,191.7 74.1,197.6 C74.8,199.1 74.8,199.1 73.1,199.1 C72.3,199.1 71.4,199 70.6,199.1 C69.2,199.3 68.6,198.7 68.1,197.5 C67.2,195.3 66.2,193.3 65.2,191.2 C65,191.3 64.9,191.3 64.8,191.3 C64.2,193 62.9,193.2 61.2,193.1 C58.7,193 56.1,193.1 53.6,193 C52.6,193 52.1,193.3 51.7,194.2 C51.2,195.5 50.5,196.8 49.9,198.2 C49.6,198.8 49.3,199.1 48.6,199 C47.4,199 46.3,198.9 45.1,199 C44,199.1 43.6,198.9 44.2,197.7 C47.4,190.9 50.5,184 53.6,177.2 C55.2,173.7 56.8,170.1 58.5,166.6 C58.8,166.3 59,165.9 59.3,165.4 Z M59.2,177.7 C57.7,181.1 56.3,184.3 54.9,187.4 C54.7,187.9 54.8,188.2 55.4,188.2 C57.9,188.2 60.4,188.2 63,188.2 C63.6,188.2 63.8,187.9 63.5,187.4 C62.2,184.3 60.8,181.1 59.2,177.7 Z" id="Shape"></path>
    <path fill="#525252" d="M121.1,165.3 C123.1,169.6 124.9,173.7 126.8,177.7 C129.9,184.4 132.9,191 136,197.7 C136.5,198.7 136.5,199.2 135.2,199.1 C133.8,199 132.1,199.5 130.9,198.9 C129.7,198.2 129.5,196.4 128.9,195 C128.3,193.7 127.7,192.5 127.2,191.2 C127,191.2 126.9,191.2 126.9,191.2 C126.2,193.1 124.7,193.2 122.9,193.1 C120.4,193 117.9,193.1 115.5,193.1 C114.7,193.1 114.2,193.4 113.9,194.1 C113.3,195.4 112.6,196.7 112.1,198.1 C111.8,199 111.3,199.2 110.4,199.2 C109.3,199.1 108.2,199.1 107,199.2 C105.9,199.3 105.7,199 106.2,198 C108.9,192.2 111.5,186.5 114.2,180.7 C116.4,175.6 118.6,170.6 121.1,165.3 Z M121.1,177.7 C119.6,181.1 118.2,184.3 116.8,187.4 C116.6,187.9 116.7,188.2 117.3,188.2 C119.8,188.2 122.3,188.2 124.9,188.2 C125.5,188.2 125.7,187.9 125.4,187.4 C124,184.3 122.6,181.1 121.1,177.7 Z" id="Shape"></path>
    <path fill="#525252" d="M92.8,182.1 C92.8,187.3 92.8,192.5 92.8,197.7 C92.8,198.6 92.6,199.1 91.6,199 C90.8,198.9 89.9,198.9 89.1,199 C88,199.1 87.7,198.7 87.7,197.6 C87.7,190.7 87.7,183.7 87.7,176.8 C87.7,173.4 87.7,170 87.7,166.6 C87.7,165.6 88,165.3 89,165.3 C89.9,165.4 90.8,165.4 91.7,165.3 C92.7,165.2 93,165.6 92.9,166.6 C92.7,171.8 92.8,177 92.8,182.1 Z" id="Path"></path>
</svg>
