<?xml version="1.0" encoding="UTF-8"?>
<!-- Generator: Adobe Illustrator 16.0.4, SVG Export Plug-In . SVG Version: 6.00 Build 0)  -->
<!DOCTYPE svg PUBLIC "-//W3C//DTD SVG 1.1//EN" "http://www.w3.org/Graphics/SVG/1.1/DTD/svg11.dtd">
<svg version="1.1" id="Layer_1" xmlns="http://www.w3.org/2000/svg" xmlns:xlink="http://www.w3.org/1999/xlink" x="0px" y="0px" viewBox="0 0 43.234 43.232" xml:space="preserve">
<path fill="#525252" d="M21.618,43.233C9.7,43.233,0,33.591,0,21.615C0,9.7,9.7,0,21.618,0c11.914,0,21.616,9.7,21.616,21.615  C43.234,33.591,33.532,43.233,21.618,43.233z M21.618,1.016c-11.378,0-20.601,9.224-20.601,20.6  c0,11.377,9.223,20.599,20.601,20.599c11.376,0,20.597-9.222,20.597-20.599C42.215,10.299,32.995,1.016,21.618,1.016z   M39.936,27.778l-0.112,0.023l-0.062-0.078c0.004-0.034,0.726-2.165,0.72-4.611c-0.009-2.635-1.079-4.251-2.456-4.251  c-0.838,0-1.437,0.601-1.437,1.497c0,1.617,1.977,1.737,1.977,5.271c0,1.438-0.299,2.812-0.778,4.311  c-2.216,7.483-9.283,10.956-16.167,10.956c-3.175,0-5.43-0.651-6.102-0.953c-0.027-0.014-0.051-0.066-0.029-0.119l0.087-0.062  c0.272,0.108,2.209,0.716,4.605,0.716c2.635,0,4.191-1.077,4.191-2.396c0-0.835-0.659-1.494-1.498-1.494  c-1.617,0-1.736,2.035-5.209,2.035c-1.497,0-2.812-0.299-4.372-0.778C5.868,35.569,2.329,28.561,2.335,21.615  c0.003-3.383,0.95-6.075,0.966-6.103l0.107-0.018l0.063,0.078c-0.088,0.279-0.717,2.212-0.717,4.605  c0,2.635,1.077,4.191,2.454,4.191c0.779,0,1.439-0.599,1.439-1.438c0-1.617-1.978-1.796-1.978-5.27c0-1.497,0.3-2.814,0.778-4.371  C7.725,5.868,14.731,2.387,21.618,2.334c3.2-0.024,6.001,0.934,6.106,1.018l0.019,0.108l-0.079,0.06  c-0.033-0.004-1.854-0.766-4.609-0.766c-2.575-0.001-4.191,1.077-4.191,2.455c0,0.778,0.599,1.438,1.497,1.438  c1.617,0,1.737-1.977,5.209-1.977c1.497,0,2.813,0.299,4.372,0.779c7.484,2.274,10.896,9.342,10.957,16.167  C40.932,25.113,39.946,27.759,39.936,27.778z M29.641,22.635c-2.035,0-3.594,1.498-3.594,3.293c0,1.497,0.897,2.693,2.097,2.693  c0.42,0,0.838-0.24,0.838-0.778c0-0.777-1.032-0.968-0.952-2.132c0.051-0.769,0.774-1.281,1.491-1.281  c1.438,0,2.109,1.394,2.109,2.829c-0.061,2.216-1.689,3.758-3.605,3.758c-2.518,0-4.131-2.396-4.131-4.97  c0-3.833,2.514-5.33,3.831-5.688c0.014-0.001,3.443,0.612,3.337-0.899c-0.047-0.664-1.036-0.92-1.754-0.949  c-0.794-0.031-1.595,0.255-1.595,0.255c-0.419-0.211-0.708-0.623-0.886-1.101c2.455-1.856,4.19-3.652,4.19-5.688  c0-1.078-0.72-2.037-2.097-2.037c-2.455,0-4.312,3.114-4.312,5.929c0,0.479,0,0.958,0.121,1.379  c-1.559,1.137-2.715,1.843-4.812,3.101c0-0.263,0.056-0.938,0.23-1.815c0.719-0.779,1.705-1.944,1.705-2.843  c0-0.419-0.238-0.778-0.72-0.778c-1.196,0-2.096,1.797-2.334,3.054c-0.54,0.659-1.616,1.499-2.516,1.499  c-0.719,0-0.957-0.66-1.019-0.898c2.275-0.779,5.091-3.894,5.091-6.708c0-0.599-0.239-1.916-2.036-1.916  c-2.695,0-4.971,4.013-4.971,7.125c-0.958,0-1.317-1.018-1.317-1.795c0-0.778,0.299-1.558,0.299-1.796c0-0.241-0.12-0.54-0.479-0.54  c-0.899,0-1.438,1.197-1.438,2.575c0.062,1.917,1.318,3.114,2.995,3.234c0.238,1.138,1.257,2.215,2.514,2.215  c0.779,0,1.737-0.239,2.396-0.837c-0.062,0.419-0.12,0.777-0.18,1.137c-2.636,1.378-4.552,2.336-6.288,3.892  c-1.373,1.257-2.152,2.933-2.152,4.25c0,1.796,1.139,3.473,3.474,3.473c2.755,0,4.852-2.216,5.868-5.27  c0.481-1.437,0.672-3.527,0.792-5.444c2.754-1.557,4.061-2.458,5.496-3.478c0.179,0.299,0.361,0.54,0.601,0.719  c-1.259,0.659-4.251,2.516-4.251,6.887c0,3.114,2.097,6.586,6.227,6.586c3.414,0,5.749-2.813,5.749-5.507  C33.653,24.91,32.275,22.635,29.641,22.635z M13.174,31.017c-0.897,0.041-1.495-0.533-1.495-1.49c0-2.574,3.568-5.031,6.264-6.351  C17.463,26.77,16.25,30.876,13.174,31.017z M15.15,16.886c0-1.977,1.95-5.733,3.143-5.336C19.7,12.019,17.126,15.808,15.15,16.886z   M26.468,15.987c0-2.454,1.662-4.843,2.57-4.389C30.072,12.116,28.265,14.43,26.468,15.987z"/>
</svg>
