<?xml version="1.0" encoding="utf-8"?>
<!-- Generator: Adobe Illustrator 23.0.4, SVG Export Plug-In . SVG Version: 6.00 Build 0)  -->
<svg version="1.1" id="Layer_1" xmlns="http://www.w3.org/2000/svg" xmlns:xlink="http://www.w3.org/1999/xlink" x="0px" y="0px"
	 viewBox="0 0 250 140" style="enable-background:new 0 0 250 140;" xml:space="preserve">
<style type="text/css">
	.st0{fill-rule:evenodd;clip-rule:evenodd;fill:#525252;}
</style>
<g>
	<path class="st0" d="M38.73,102.41c0.64,0.79,1.05,1.3,1.5,1.74c1.18,1.03,3.17,2.05,5.72,2.09c3.12,0.06,4.77-1.27,5.45-1.87
		c2.23-1.94,2.19-4.73,2.15-7.18c-0.36,0.4-0.73,0.75-1.14,1.07c-1.45,1.19-3.86,2.13-6.36,2.13c-4.59,0-9.55-3.36-9.55-9.96
		c0-6.28,4.32-10.36,10.05-10.36c4.23,0,6.05,2.02,7,3.04v-2.21h6.09v17.35c-0.05,2.61-0.04,5.86-2.82,8.18
		c-2.8,2.34-5.88,3.02-9.65,3.02c-3.59,0-6.03-1.28-7.71-2.74c-1.5-1.3-1.91-2.77-2.18-3.72L38.73,102.41L38.73,102.41z
		 M53.55,85.93c-0.91-1.15-2.14-2.69-4.91-2.69c-3.36,0-5.68,2.61-5.68,7.19c0,4.55,2.68,6.76,5.5,6.76c2.64,0,4.27-1.5,5.09-2.29
		V85.93L53.55,85.93z"/>
	<path class="st0" d="M96.29,101.22h-5.86v-2.29c-1,0.91-3.27,2.89-7.59,2.89c-4.73,0-7.73-2.85-7.73-6.48
		c0-4.66,4.41-7.27,9.82-7.27c2.23,0,3.68,0.4,5.5,0.87c-0.05-1.03-0.14-2.1-0.64-3.08c-1.09-2.13-3.68-2.65-5.41-2.65
		c-3.86,0-5.5,1.94-6.41,3l-1.55-0.67c1-1.94,2.82-5.42,9.73-5.42c3.95,0,6.5,1.15,7.82,2.33c2.27,2.02,2.32,4.7,2.32,6.56V101.22
		L96.29,101.22z M90.43,91.94c-1.18-0.4-2.36-0.75-3.91-0.75c-2.68,0-5.05,1.23-5.05,3.79c0,1.74,1.14,3.6,4.18,3.6
		c2.14,0,3.59-0.79,4.77-1.46V91.94L90.43,91.94z"/>
	<path class="st0" d="M122.64,101.22h-6.09V88.1c0-0.67,0-1.38-0.23-2.06c-0.36-1.15-1.5-2.37-3.68-2.37c-2.5,0-4,1.46-5.05,2.49
		v15.06h-6.05V80.99h6.05v2.65c1.18-1.19,3.18-3.24,7.59-3.24c2.41,0,4.36,0.75,5.59,1.86c1.73,1.58,1.86,3.6,1.86,5.3V101.22
		L122.64,101.22z"/>
	<path class="st0" d="M128.04,73.32h6.09v9.96c0.91-1.03,2.77-3.12,7.18-3.12c6.23,0,9.91,4.47,9.91,10.75
		c0,8.14-5.77,11.23-10.32,11.23c-3.95,0-6-2.17-6.77-3v2.09h-6.09V73.32L128.04,73.32z M134.13,96.56
		c0.86,0.91,2.23,2.33,4.82,2.33c2.36,0,5.91-1.38,5.91-8.02c0-1.3-0.14-3.12-1.05-4.7c-0.91-1.62-2.41-2.77-4.73-2.77
		c-3.5,0-4.95,2.61-4.95,2.65V96.56L134.13,96.56z"/>
	<polygon class="st0" points="155.49,80.99 161.53,80.99 161.53,101.22 155.49,101.22 155.49,80.99 	"/>
	<path class="st0" d="M187.12,101.22h-5.86v-2.29c-1,0.91-3.27,2.89-7.59,2.89c-4.73,0-7.73-2.85-7.73-6.48
		c0-4.66,4.41-7.27,9.82-7.27c2.23,0,3.68,0.4,5.5,0.87c-0.05-1.03-0.14-2.1-0.64-3.08c-1.09-2.13-3.68-2.65-5.41-2.65
		c-3.86,0-5.5,1.94-6.41,3l-1.55-0.67c1-1.94,2.82-5.42,9.73-5.42c3.95,0,6.5,1.15,7.82,2.33c2.27,2.02,2.32,4.7,2.32,6.56V101.22
		L187.12,101.22z M181.26,91.94c-1.18-0.4-2.36-0.75-3.91-0.75c-2.68,0-5.05,1.23-5.05,3.79c0,1.74,1.14,3.6,4.18,3.6
		c2.14,0,3.59-0.79,4.77-1.46V91.94L181.26,91.94z"/>
	<path class="st0" d="M70.67,91.77v2.49c0.03,1.99-0.1,3.62,0.43,4.54c0.2,0.36,0.82,0.71,2.36,0.77v-0.01v1.64l-0.06,0.01
		c-2.96,0-5.03,0.16-6.31-0.48c-1.33-0.67-2.23-1.65-2.38-3.76c-0.1-1.46-0.06-5.16-0.06-5.16V73.32l6.02,0V91.77L70.67,91.77z"/>
	<path class="st0" d="M158.49,78.8c1.88,0,3.4-1.52,3.4-3.4s-1.52-3.4-3.4-3.4c-1.88,0-3.4,1.52-3.4,3.4S156.61,78.8,158.49,78.8
		L158.49,78.8z"/>
	<path class="st0" d="M198.01,24.68l0.08-0.11l0.01,0c-3.21-1.52-6.79-2.37-10.57-2.37c-13.66,0-24.74,11.08-24.74,24.74
		s11.08,24.74,24.74,24.74s24.74-11.08,24.74-24.74c0-4.49-1.23-9.56-3.31-12.34c1.26,2.61,2,5.54,2,8.63
		c0,10.93-8.86,19.79-19.79,19.79c-10.93,0-19.79-8.86-19.79-19.79c0-10.93,8.86-19.79,19.79-19.79c2.42,0,4.73,0.44,6.88,1.23
		H198.01L198.01,24.68z"/>
	<path class="st0" d="M201.34,50.29c5.35,0,9.69-4.34,9.69-9.69c0-5.35-4.34-9.69-9.69-9.69c-5.35,0-9.69,4.34-9.69,9.69
		C191.65,45.96,195.99,50.29,201.34,50.29L201.34,50.29z"/>
</g>
</svg>
