<?xml version="1.0" encoding="UTF-8"?>
<svg viewBox="0 0 177 88" version="1.1" xmlns="http://www.w3.org/2000/svg" xmlns:xlink="http://www.w3.org/1999/xlink">
    <path fill="#525252" d="M2.73,80.41 C3.37,81.2 3.78,81.71 4.23,82.15 C5.41,83.18 7.4,84.2 9.95,84.24 C13.07,84.3 14.72,82.97 15.4,82.37 C17.63,80.43 17.59,77.64 17.55,75.19 C17.19,75.59 16.82,75.94 16.41,76.26 C14.96,77.45 12.55,78.39 10.05,78.39 C5.46,78.39 0.5,75.03 0.5,68.43 C0.5,62.15 4.82,58.07 10.55,58.07 C14.78,58.07 16.6,60.09 17.55,61.11 L17.55,58.9 L23.64,58.9 L23.64,76.25 C23.59,78.86 23.6,82.11 20.82,84.43 C18.02,86.77 14.94,87.45 11.17,87.45 C7.58,87.45 5.14,86.17 3.46,84.71 C1.96,83.41 1.55,81.94 1.28,80.99 L2.73,80.41 L2.73,80.41 Z M17.55,63.93 C16.64,62.78 15.41,61.24 12.64,61.24 C9.28,61.24 6.96,63.85 6.96,68.43 C6.96,72.98 9.64,75.19 12.46,75.19 C15.1,75.19 16.73,73.69 17.55,72.9 L17.55,63.93 L17.55,63.93 Z" id="Shape"></path>
    <path fill="#525252" d="M60.29,79.22 L54.43,79.22 L54.43,76.93 C53.43,77.84 51.16,79.82 46.84,79.82 C42.11,79.82 39.11,76.97 39.11,73.34 C39.11,68.68 43.52,66.07 48.93,66.07 C51.16,66.07 52.61,66.47 54.43,66.94 C54.38,65.91 54.29,64.84 53.79,63.86 C52.7,61.73 50.11,61.21 48.38,61.21 C44.52,61.21 42.88,63.15 41.97,64.21 L40.42,63.54 C41.42,61.6 43.24,58.12 50.15,58.12 C54.1,58.12 56.65,59.27 57.97,60.45 C60.24,62.47 60.29,65.15 60.29,67.01 L60.29,79.22 L60.29,79.22 Z M54.43,69.94 C53.25,69.54 52.07,69.19 50.52,69.19 C47.84,69.19 45.47,70.42 45.47,72.98 C45.47,74.72 46.61,76.58 49.65,76.58 C51.79,76.58 53.24,75.79 54.42,75.12 L54.42,69.94 L54.43,69.94 Z" id="Shape"></path>
    <path fill="#525252" d="M86.64,79.22 L80.55,79.22 L80.55,66.1 C80.55,65.43 80.55,64.72 80.32,64.04 C79.96,62.89 78.82,61.67 76.64,61.67 C74.14,61.67 72.64,63.13 71.59,64.16 L71.59,79.22 L65.54,79.22 L65.54,58.99 L71.59,58.99 L71.59,61.64 C72.77,60.45 74.77,58.4 79.18,58.4 C81.59,58.4 83.54,59.15 84.77,60.26 C86.5,61.84 86.63,63.86 86.63,65.56 L86.63,79.22 L86.64,79.22 Z" id="Path"></path>
    <path fill="#525252" d="M92.04,51.32 L98.13,51.32 L98.13,61.28 C99.04,60.25 100.9,58.16 105.31,58.16 C111.54,58.16 115.22,62.63 115.22,68.91 C115.22,77.05 109.45,80.14 104.9,80.14 C100.95,80.14 98.9,77.97 98.13,77.14 L98.13,79.23 L92.04,79.23 L92.04,51.32 L92.04,51.32 Z M98.13,74.56 C98.99,75.47 100.36,76.89 102.95,76.89 C105.31,76.89 108.86,75.51 108.86,68.87 C108.86,67.57 108.72,65.75 107.81,64.17 C106.9,62.55 105.4,61.4 103.08,61.4 C99.58,61.4 98.13,64.01 98.13,64.05 L98.13,74.56 L98.13,74.56 Z" id="Shape"></path>
    <polygon fill="#525252" id="Path" points="119.49 58.99 125.53 58.99 125.53 79.22 119.49 79.22"></polygon>
    <path fill="#525252" d="M151.12,79.22 L145.26,79.22 L145.26,76.93 C144.26,77.84 141.99,79.82 137.67,79.82 C132.94,79.82 129.94,76.97 129.94,73.34 C129.94,68.68 134.35,66.07 139.76,66.07 C141.99,66.07 143.44,66.47 145.26,66.94 C145.21,65.91 145.12,64.84 144.62,63.86 C143.53,61.73 140.94,61.21 139.21,61.21 C135.35,61.21 133.71,63.15 132.8,64.21 L131.25,63.54 C132.25,61.6 134.07,58.12 140.98,58.12 C144.93,58.12 147.48,59.27 148.8,60.45 C151.07,62.47 151.12,65.15 151.12,67.01 L151.12,79.22 L151.12,79.22 Z M145.26,69.94 C144.08,69.54 142.9,69.19 141.35,69.19 C138.67,69.19 136.3,70.42 136.3,72.98 C136.3,74.72 137.44,76.58 140.48,76.58 C142.62,76.58 144.07,75.79 145.25,75.12 L145.25,69.94 L145.26,69.94 Z" id="Shape"></path>
    <path fill="#525252" d="M34.67,69.77 L34.67,72.26 C34.7,74.25 34.57,75.88 35.1,76.8 C35.3,77.16 35.92,77.51 37.46,77.57 L37.46,77.56 L37.46,79.2 L37.4,79.21 C34.44,79.21 32.37,79.37 31.09,78.73 C29.76,78.06 28.86,77.08 28.71,74.97 C28.61,73.51 28.65,69.81 28.65,69.81 L28.65,51.32 L34.67,51.32 L34.67,69.77 L34.67,69.77 Z" id="Path"></path>
    <path fill="#525252" d="M122.49,56.8 C124.37,56.8 125.89,55.28 125.89,53.4 C125.89,51.52 124.37,50 122.49,50 C120.61,50 119.09,51.52 119.09,53.4 C119.09,55.28 120.61,56.8 122.49,56.8 L122.49,56.8 Z" id="Path"></path>
    <path fill="#525252" d="M162.01,2.68 L162.09,2.57 L162.1,2.57 C158.89,1.05 155.31,0.2 151.53,0.2 C137.87,0.2 126.79,11.28 126.79,24.94 C126.79,38.6 137.87,49.68 151.53,49.68 C165.19,49.68 176.27,38.6 176.27,24.94 C176.27,20.45 175.04,15.38 172.96,12.6 C174.22,15.21 174.96,18.14 174.96,21.23 C174.96,32.16 166.1,41.02 155.17,41.02 C144.24,41.02 135.38,32.16 135.38,21.23 C135.38,10.3 144.24,1.44 155.17,1.44 C157.59,1.44 159.9,1.88 162.05,2.67 L162.01,2.67 L162.01,2.68 Z" id="Path"></path>
    <path fill="#525252" d="M165.34,28.29 C170.69,28.29 175.03,23.95 175.03,18.6 C175.03,13.25 170.69,8.91 165.34,8.91 C159.99,8.91 155.65,13.25 155.65,18.6 C155.65,23.96 159.99,28.29 165.34,28.29 L165.34,28.29 Z" id="Path"></path>
</svg>
