<?xml version="1.0" standalone="no"?>
<!DOCTYPE svg PUBLIC "-//W3C//DTD SVG 20010904//EN"
 "http://www.w3.org/TR/2001/REC-SVG-20010904/DTD/svg10.dtd">
<svg version="1.0" xmlns="http://www.w3.org/2000/svg"
 width="870.000000pt" height="490.000000pt" viewBox="0 0 870.000000 490.000000"
 preserveAspectRatio="xMidYMid meet">

<g transform="translate(0.000000,490.000000) scale(0.100000,-0.100000)"
fill="#000000" stroke="none">
<path d="M7332 4590 c-339 -43 -640 -219 -843 -492 -154 -207 -233 -453 -233
-723 1 -338 118 -619 359 -860 230 -231 531 -355 860 -355 581 0 1073 398
1197 969 30 138 30 354 -1 510 -12 63 -28 128 -36 145 l-14 31 7 -30 c4 -16 6
-102 6 -190 -2 -199 -24 -305 -94 -450 -66 -138 -122 -213 -240 -318 -198
-177 -483 -269 -738 -239 -254 30 -446 124 -615 302 -130 137 -219 304 -254
479 -20 102 -20 276 0 381 71 366 356 666 723 761 125 32 352 33 469 1 43 -11
81 -20 83 -18 7 7 -140 55 -229 75 -111 24 -303 34 -407 21z"/>
<path d="M8138 4163 c7 -3 16 -2 19 1 4 3 -2 6 -13 5 -11 0 -14 -3 -6 -6z"/>
<path d="M5970 2129 c-81 -34 -122 -139 -86 -222 48 -113 192 -136 278 -46 72
75 59 187 -29 253 -29 21 -126 31 -163 15z"/>
<path d="M1397 2073 c-11 -10 -8 -1131 3 -1197 12 -72 47 -121 112 -154 40
-21 61 -24 179 -25 l134 -2 3 41 3 42 -44 6 c-65 10 -77 23 -87 96 -5 36 -10
320 -10 633 l0 567 -143 0 c-79 0 -147 -3 -150 -7z"/>
<path d="M4532 1388 l3 -693 148 -3 147 -3 0 51 c0 27 3 50 6 50 4 0 24 -16
45 -35 214 -193 609 -103 738 168 48 101 64 184 58 312 -13 297 -176 478 -448
502 -131 11 -264 -29 -352 -107 l-48 -42 1 243 1 244 -150 3 -151 3 2 -693z
m665 160 c57 -27 105 -83 134 -154 21 -52 24 -75 23 -194 0 -152 -17 -219 -74
-290 -91 -115 -286 -126 -401 -22 l-50 44 1 256 c1 291 1 288 87 339 95 55
191 63 280 21z"/>
<path d="M328 1715 c-219 -72 -344 -275 -325 -529 7 -92 26 -161 59 -215 39
-63 120 -141 183 -176 83 -45 148 -58 266 -53 90 5 105 8 181 46 46 23 98 54
117 69 l34 28 -6 -97 c-7 -120 -30 -176 -98 -240 -72 -67 -140 -92 -259 -92
-67 0 -111 5 -150 18 -53 18 -160 81 -160 94 0 4 -14 21 -30 39 -29 32 -30 32
-65 18 -40 -17 -42 -24 -15 -83 31 -68 68 -109 142 -158 94 -63 168 -85 303
-91 282 -13 512 91 596 271 42 89 48 186 49 699 l0 437 -155 0 -155 0 0 -51 0
-51 -50 46 c-74 65 -141 88 -275 93 -97 3 -119 0 -187 -22z m390 -157 c25 -12
63 -39 84 -61 l38 -39 0 -227 0 -226 -34 -27 c-61 -49 -114 -71 -184 -76 -98
-6 -145 10 -208 72 -69 70 -89 131 -88 271 2 160 54 263 158 311 69 32 171 33
234 2z"/>
<path d="M2275 1720 c-90 -23 -143 -51 -199 -106 -38 -37 -96 -119 -96 -136 0
-5 16 -16 36 -24 l36 -15 49 46 c57 54 116 81 205 95 156 25 304 -40 338 -149
17 -53 29 -121 22 -121 -3 0 -35 7 -73 17 -82 20 -284 23 -360 5 -77 -17 -180
-70 -227 -117 -85 -82 -118 -214 -81 -324 23 -71 91 -143 173 -183 61 -30 76
-33 178 -37 84 -2 126 1 170 14 73 21 163 66 188 94 29 32 36 26 36 -34 l0
-55 146 0 145 0 -3 383 -3 382 -27 57 c-69 148 -208 217 -448 224 -101 3 -140
0 -205 -16z m348 -550 l47 -12 0 -130 0 -129 -62 -29 c-116 -54 -259 -50 -321
8 -41 38 -57 74 -57 127 0 86 56 150 155 176 40 11 178 4 238 -11z"/>
<path d="M6793 1725 c-81 -18 -147 -47 -199 -90 -47 -39 -129 -155 -117 -165
4 -4 23 -13 40 -20 32 -12 34 -11 75 30 148 149 455 137 535 -20 22 -42 43
-150 30 -150 -3 0 -34 8 -69 17 -90 24 -302 23 -383 -1 -135 -41 -216 -102
-265 -198 -26 -52 -30 -72 -30 -138 0 -66 4 -86 31 -138 34 -69 74 -106 157
-148 49 -24 72 -28 167 -32 82 -3 127 0 175 12 67 17 177 73 201 102 12 15 15
11 19 -37 l5 -54 145 0 145 0 3 315 c3 346 -5 445 -42 518 -31 60 -102 127
-169 157 -114 52 -318 69 -454 40z m325 -555 l42 -13 0 -128 0 -127 -33 -21
c-43 -26 -138 -51 -197 -51 -104 0 -178 48 -200 129 -27 100 34 192 146 220
49 13 186 7 242 -9z"/>
<path d="M3790 1719 c-75 -13 -169 -59 -224 -109 l-46 -43 0 67 0 66 -150 0
-150 0 0 -505 0 -505 150 0 150 0 0 374 0 374 49 44 c116 105 302 103 366 -4
19 -31 20 -54 23 -411 l3 -378 152 3 152 3 3 315 c3 352 -6 487 -36 547 -67
130 -243 194 -442 162z"/>
<path d="M5890 1195 l0 -505 150 0 150 0 0 505 0 505 -150 0 -150 0 0 -505z"/>
</g>
</svg>
