<?xml version="1.0" encoding="UTF-8"?>
<svg viewBox="0 0 202 58" version="1.1" xmlns="http://www.w3.org/2000/svg" xmlns:xlink="http://www.w3.org/1999/xlink">
  <path fill="#525252" d="M1,22 C1.6,21.9 2,21.6 2.4,21.3 C2.8,21.1 3.1,21.1 3.4,21.3 C8.2,24.1 13,26.8 17.8,29.6 C18,29.7 18.3,29.9 18.6,30.1 C18.6,29.2 18.6,28.4 18.6,27.6 C18.6,27.2 18.3,27.2 18.1,27.1 C14.1,24.8 10.1,22.5 6.1,20.2 C5.8,20 5.5,19.9 5.1,19.6 C5.8,19.2 6.4,18.9 7,18.5 C7.4,18.3 7.6,18.6 7.8,18.7 C11.1,20.6 14.4,22.5 17.7,24.5 C18.3,24.9 18.2,24.9 18.4,24.1 C18.6,22.6 18.1,21.8 16.7,21.1 C14.5,20 12.4,18.7 10.3,17.4 C10.1,17.3 9.8,17.2 9.6,16.9 C10.2,16.6 10.8,16.2 11.4,15.9 C11.7,15.7 11.9,15.9 12.1,16 C13.9,17.1 15.8,18.1 17.6,19.2 C17.8,19.3 18,19.5 18.3,19.5 C18.3,13.1 18.3,6.7 18.3,0.1 C19.1,0.5 19.7,0.9 20.3,1.3 C20.6,1.5 20.4,1.8 20.4,2 C20.4,8 20.4,14 20.4,20 C20.4,20.6 20.6,21 21.1,21.3 C21.5,21.5 21.9,21.8 22.3,22 C22.7,22.2 22.7,22.1 22.7,21.7 C22.7,20.7 22.7,19.7 22.7,18.7 C22.7,13.7 22.7,8.6 22.7,3.6 C22.7,3.4 22.7,3.1 22.7,2.8 C23.4,3.1 24,3.5 24.6,3.8 C24.9,4 24.8,4.3 24.8,4.6 C24.8,10.3 24.8,16.1 24.8,21.8 C24.8,23 25,23.9 26.2,24.3 C26.5,24.4 26.8,24.9 27.1,24.7 C27.4,24.5 27.2,24.1 27.2,23.7 C27.2,17.8 27.2,12 27.2,6.1 C27.2,5.9 27.1,5.6 27.3,5.5 C27.5,5.4 27.7,5.7 27.9,5.7 C29,6.2 29.3,6.9 29.3,8.2 C29.2,14.1 29.3,20 29.3,25.9 C29.3,26.3 29.3,26.7 28.9,26.8 C28.3,27 27.9,27.7 27.1,27.2 C26.5,26.8 25.9,26.5 25.3,26.1 C24.9,25.9 24.8,25.9 24.8,26.4 C24.8,27.1 24.8,27.8 24.8,28.5 C24.8,28.9 24.7,29.1 24.3,29.4 C23.5,30 22.7,30 21.9,29.4 C21.4,29 20.9,28.8 20.2,28.4 C20.2,29.4 20.2,30.2 20.2,31.1 C20.2,31.5 20.1,31.7 19.8,31.9 C18.9,32.5 18.3,32.5 17.3,31.9 C11.9,28.7 6.5,25.7 1.1,22.6 C0.9,22.5 0.8,22.3 0.5,22.4 C1,22.3 1,22.1 1,22 Z M23.2,27.5 C23.2,26.6 23.2,25.9 23.2,25.1 C23.2,24.9 23.2,24.7 22.9,24.6 C22.3,24.3 21.7,24 21.1,23.7 C20.8,23.5 20.7,23.6 20.7,23.9 C20.7,24.5 20.7,25.2 20.7,25.8 C20.7,26.1 20.8,26.2 21,26.3 C21.7,26.6 22.4,27 23.2,27.5 Z" id="Shape"></path>
  <path fill="#525252" d="M201,42.4 C199.8,42.3 198.7,42.3 197.5,42.4 C196.9,42.4 196.8,42.2 196.8,41.7 C196.8,38.7 196.8,35.7 196.8,32.7 C196.8,31.3 196.5,30 195.5,29 C194.3,27.8 192.2,27.5 190.5,28.2 C189.5,28.6 188.7,29.3 188,30.1 C187.8,30.4 187.8,30.6 187.8,31 C187.8,34.6 187.8,38.1 187.8,41.7 C187.8,42.2 187.7,42.4 187.1,42.4 C186,42.4 185,42.4 183.9,42.4 C183.5,42.4 183.4,42.3 183.4,41.9 C183.4,36.2 183.4,30.6 183.4,24.9 C183.4,24.6 183.5,24.4 183.8,24.4 C185,24.4 186.1,24.4 187.3,24.4 C187.6,24.4 187.8,24.5 187.8,24.8 C187.8,25.1 187.8,25.4 187.8,25.8 C189,24.9 190.1,24.3 191.5,24 C195.8,23.1 199.4,25.1 200.8,29.2 C200.8,29.3 200.8,29.5 201.1,29.6 C201,33.9 201,38.2 201,42.4 Z" id="Path"></path>
  <path fill="#525252" d="M84.6,31.3 C85.4,29.9 86.2,28.6 86.9,27.3 C87,27 87.3,27 87.5,27 C90.6,27 93.6,27 96.7,27 C97.1,27 97.2,27.1 97.2,27.5 C97.2,30.6 97.2,33.7 97.2,36.9 C97.2,37.2 97.1,37.4 96.9,37.6 C90.3,45.9 77.6,44.4 73.2,34.7 C69.8,27.3 74.1,18.1 82,15.9 C86.1,14.8 90,15.4 93.6,17.7 C94,18 94.1,18.2 93.8,18.6 C93.2,19.5 92.7,20.5 92.2,21.4 C92,21.8 91.8,21.9 91.4,21.6 C87.6,18.9 82.6,19.3 79.2,22.5 C75.4,26.1 75.4,32.1 79.1,35.9 C82.7,39.6 88.8,39.6 92.4,36.1 C92.7,35.8 92.8,35.6 92.8,35.2 C92.8,34.1 92.8,33.1 92.8,32 C92.8,31.6 92.7,31.4 92.2,31.4 C89.8,31.4 87.4,31.4 85,31.4 C85,31.3 84.9,31.3 84.6,31.3 Z" id="Path"></path>
  <path fill="#525252" d="M29.8,53.4 C29.1,53 28.6,52.7 28,52.5 C27.6,52.3 27.7,52.1 27.7,51.8 C27.7,49.4 27.7,47 27.7,44.7 C27.7,43.9 27.7,43.9 27,44.3 C21.9,47.3 16.8,50.2 11.6,53.2 C11.4,53.3 11.2,53.5 10.8,53.5 C10.8,52.8 10.8,52.2 10.8,51.5 C10.8,51.1 11.1,51 11.4,50.9 C16.6,47.9 21.8,44.8 27,41.8 C27.5,41.5 27.7,41.3 27.6,40.7 C27.6,40.2 27.6,39.7 27.6,39.2 C27.6,38.7 27.5,38.7 27.1,38.9 C25,40.2 22.8,41.4 20.7,42.6 C17.6,44.4 14.4,46.2 11.3,48 C11.2,48.1 11.1,48.1 10.8,48.2 C10.8,47.4 10.8,46.7 10.8,46 C10.8,45.7 11.1,45.6 11.3,45.5 C16.5,42.5 21.7,39.4 26.9,36.4 C27.4,36.1 27.6,35.8 27.5,35.3 C27.4,34.9 27.5,34.4 27.5,33.9 C27.5,33.3 27.4,33.3 26.9,33.6 C24.3,35.1 21.6,36.7 19,38.2 C16.5,39.7 14,41.1 11.5,42.6 C11.3,42.7 11.1,42.9 10.7,42.9 C10.7,42.2 10.7,41.5 10.7,40.8 C10.7,40.5 10.9,40.4 11.1,40.3 C16.6,37.1 22.1,34 27.6,30.8 C27.9,30.6 28.1,30.7 28.4,30.8 C29.4,31.2 29.9,31.8 29.7,32.9 C29.6,33.3 29.7,33.8 29.7,34.3 C29.7,34.7 29.8,34.8 30.1,34.6 C30.7,34.2 31.4,33.9 32,33.5 C32.4,33.3 32.6,33.3 33,33.5 C33.9,33.9 34.3,34.4 34.2,35.4 C34.1,36 34.2,36.6 34.2,37.4 C35.1,36.9 35.8,36.5 36.6,36 C37,35.8 37.2,35.8 37.6,36 C38.6,36.4 38.8,37 38.8,38 C38.7,44.3 38.8,50.6 38.8,56.9 C38.8,57.2 38.8,57.4 38.8,57.8 C38.1,57.5 37.5,57.3 36.8,57 C36.4,56.9 36.5,56.5 36.5,56.3 C36.5,52.1 36.5,47.9 36.5,43.7 C36.5,42.2 36.5,40.7 36.5,39.3 C36.5,38.9 36.5,38.6 35.9,38.9 C34.1,39.9 34,39.9 34,42 C34,46.3 34,50.5 34,54.8 C34,55.1 34.1,55.3 33.9,55.6 C33.3,55.3 32.7,55 32.1,54.7 C31.8,54.5 31.9,54.2 31.9,53.9 C31.9,50 31.9,46 31.9,42.1 C31.9,41.8 31.9,41.6 31.9,41.2 C31.1,41.7 30.4,42.1 29.7,42.5 C29.4,42.7 29.5,43 29.5,43.2 C29.5,46.3 29.5,49.3 29.5,52.4 C29.8,52.7 29.8,53 29.8,53.4 Z M29.8,40.2 C30.6,39.7 31.3,39.4 32,39 C32.2,38.9 32.3,38.7 32.3,38.5 C32.3,37.7 32.3,36.9 32.3,36.1 C30.1,36.9 29.9,37.2 29.9,39.3 C29.8,39.6 29.8,39.8 29.8,40.2 Z" id="Shape"></path>
  <path fill="#525252" d="M35.3,26.7 C34.4,26.2 33.6,25.7 32.9,25.3 C32.6,25.1 32.5,24.9 32.4,24.6 C32.2,23.6 32.6,22.9 33.6,22.5 C34.2,22.3 34.7,21.9 35.3,21.5 C34.5,21.1 33.9,20.6 33.1,20.2 C32.6,19.9 32.4,19.6 32.4,19 C32.4,18.2 32.6,17.8 33.3,17.4 C38.9,14.2 44.5,10.9 50.1,7.7 C50.3,7.6 50.5,7.5 50.9,7.3 C50.8,8.2 50.8,8.9 50.7,9.7 C50.7,10 50.3,10.1 50,10.2 C45.2,13 40.3,15.8 35.5,18.6 C35.4,18.7 35.3,18.7 35,18.9 C35.8,19.4 36.5,19.8 37.3,20.2 C37.6,20.3 37.7,20.1 37.9,20 C41.9,17.7 45.8,15.4 49.7,13.1 C49.9,13 50.1,12.9 50.4,12.7 C50.3,13.5 50.3,14.3 50.2,15 C50.2,15.3 49.9,15.4 49.6,15.5 C46.4,17.3 43.2,19.1 40.1,21 C39.9,21.1 39.7,21.3 39.4,21.5 C40.2,21.9 40.9,22.3 41.6,22.8 C41.9,23 42.1,22.8 42.3,22.6 C44.6,21.3 46.9,19.9 49.3,18.5 C49.5,18.4 49.7,18.2 50.1,18 C50,18.9 50,19.6 49.9,20.3 C49.9,20.6 49.6,20.7 49.4,20.8 C47.7,21.8 46.1,22.7 44.4,23.7 C44.3,23.8 44.1,23.8 44,24.1 C49.5,27.3 55.1,30.5 60.7,33.7 C60.1,34.2 59.4,34.5 58.8,34.8 C58.5,35 58.2,34.7 58,34.5 C52.8,31.6 47.7,28.6 42.5,25.7 C42,25.4 41.7,25.4 41.2,25.7 C40.7,26.1 40.1,26.4 39.4,26.7 C45,30 50.6,33.2 56.3,36.4 C55.6,36.8 55,37.1 54.4,37.5 C54,37.7 53.8,37.4 53.6,37.3 C48.4,34.3 43.2,31.2 37.9,28.2 C37.4,27.9 37.1,27.9 36.6,28.2 C36.1,28.6 35.5,28.9 34.8,29.2 C40.4,32.5 46,35.7 51.6,38.9 C51,39.3 50.4,39.6 49.8,40 C49.5,40.2 49.3,40 49,39.9 C45.1,37.7 41.2,35.4 37.3,33.2 C35.8,32.3 34.3,31.5 32.8,30.6 C32.4,30.4 32.3,30.1 32.2,29.6 C32.1,28.7 32.4,28.1 33.3,27.8 C34.1,27.4 34.7,27 35.3,26.7 Z M39.9,24 C39.1,23.5 38.4,23.2 37.8,22.8 C37.7,22.7 37.5,22.7 37.3,22.8 C36.6,23.2 35.9,23.6 35.1,24.1 C35.9,24.6 36.6,24.9 37.2,25.3 C37.4,25.4 37.6,25.4 37.8,25.3 C38.4,24.8 39.1,24.4 39.9,24 Z" id="Shape"></path>
  <path fill="#525252" d="M141.3,25.6 C141.3,23.1 141.3,20.8 141.3,18.4 C141.3,17.9 141.4,17.6 141.9,17.3 C143.1,16.7 144.4,16 145.7,15.2 C145.7,15.5 145.7,15.7 145.7,15.9 C145.7,24.5 145.7,33 145.7,41.6 C145.7,42.1 145.6,42.4 145,42.3 C144,42.2 143,42.2 142.1,42.3 C141.5,42.3 141.2,42.2 141.3,41.5 C141.3,41.4 141.3,41.2 141.3,41.1 C135.9,44.3 131,42 128.8,39.1 C126.2,35.5 126.3,30.4 129.1,27.1 C131.8,23.9 136.7,22.8 141.3,25.6 Z M141.4,33.3 C141.4,32.5 141.4,31.7 141.4,30.9 C141.4,30.4 141.3,30.1 141,29.7 C139.5,27.9 137.6,27.4 135.4,27.9 C133.1,28.4 131.5,30.4 131.3,32.9 C131.1,35.2 132.5,37.6 134.5,38.5 C136.7,39.4 139.2,38.9 140.9,37 C141.3,36.6 141.4,36.2 141.4,35.7 C141.4,34.9 141.4,34.1 141.4,33.3 Z" id="Shape"></path>
  <path fill="#525252" d="M155.4,35.2 C156.3,32.6 157,30.2 157.8,27.7 C158.1,26.7 158.5,25.8 158.7,24.8 C158.8,24.4 159,24.3 159.4,24.3 C160.3,24.3 161.2,24.3 162.1,24.3 C162.6,24.3 162.7,24.5 162.9,24.9 C163.9,28 164.9,31.1 165.9,34.3 C166,34.5 166.1,34.7 166.1,35 C166.4,34.8 166.4,34.6 166.4,34.4 C167.5,31.2 168.5,28.1 169.5,24.9 C169.6,24.5 169.8,24.3 170.3,24.3 C171.5,24.3 172.7,24.3 174,24.3 C173.5,25.7 173.1,27 172.7,28.3 C171.2,32.7 169.7,37.1 168.2,41.6 C168,42.1 167.9,42.3 167.3,42.3 C166.6,42.2 165.9,42.3 165.2,42.3 C164.7,42.3 164.5,42.2 164.4,41.7 C163.3,38.3 162.3,35 161.2,31.6 C161.1,31.3 161,31 160.8,30.5 C160.6,31.2 160.4,31.8 160.2,32.4 C159.2,35.5 158.1,38.6 157.1,41.7 C157,42.1 156.8,42.3 156.3,42.3 C155.6,42.3 154.8,42.3 154.1,42.3 C153.6,42.3 153.4,42.2 153.2,41.7 C151.8,37.5 150.4,33.3 149,29.1 C148.5,27.7 148.1,26.3 147.6,24.9 C147.4,24.4 147.5,24.3 148,24.3 C149,24.3 150,24.3 150.9,24.3 C151.4,24.3 151.6,24.4 151.8,24.9 C152.9,28.1 153.9,31.2 155,34.4 C155.2,34.6 155.3,34.8 155.4,35.2 Z" id="Path"></path>
  <path fill="#525252" d="M109.1,24.1 C114.6,24.2 118.5,28.1 118.5,33.5 C118.5,39 114.4,43.1 108.9,43 C103.5,42.9 99.4,38.8 99.5,33.4 C99.5,27.9 103.7,24 109.1,24.1 Z M114.1,33.5 C114.1,31.9 113.6,30.5 112.6,29.5 C111.1,28 108.7,27.6 106.8,28.5 C104.9,29.3 103.7,31.3 103.8,33.6 C103.8,35.9 105.1,38 107.1,38.7 C110.6,40 114.1,37.4 114.1,33.5 Z" id="Shape"></path>
  <path fill="#525252" d="M124.9,28.8 C124.9,33.1 124.9,37.3 124.9,41.6 C124.9,42.2 124.7,42.4 124.2,42.3 C123.2,42.3 122.1,42.3 121.1,42.3 C120.7,42.3 120.5,42.2 120.5,41.8 C120.5,33.9 120.5,26 120.5,18.1 C120.5,17.8 120.6,17.6 120.9,17.4 C122.1,16.8 123.3,16.2 124.4,15.5 C124.9,15.2 125,15.4 125,15.9 C124.9,20.2 124.9,24.5 124.9,28.8 Z" id="Path"></path>
  <path fill="#525252" d="M180.2,33.4 C180.2,36.2 180.2,39 180.2,41.7 C180.2,42.2 180.1,42.3 179.6,42.3 C178.5,42.3 177.5,42.3 176.4,42.3 C176,42.3 175.8,42.2 175.8,41.8 C175.8,36.2 175.8,30.5 175.8,24.9 C175.8,24.5 175.9,24.4 176.3,24.4 C177.4,24.4 178.5,24.4 179.6,24.4 C180.1,24.4 180.2,24.6 180.2,25 C180.2,27.8 180.2,30.6 180.2,33.4 Z" id="Path"></path>
  <path fill="#525252" d="M180.1,15.2 C180.1,16.7 180.1,18 180.1,19.3 C180.1,19.6 179.9,19.7 179.7,19.8 C178.5,20.4 177.3,21.1 176.2,21.8 C175.8,22 175.7,21.9 175.7,21.5 C175.7,20.3 175.7,19.2 175.7,18 C175.7,17.8 175.7,17.6 176,17.4 C177.4,16.8 178.7,16 180.1,15.2 Z" id="Path"></path>
</svg>
