<?xml version="1.0" encoding="utf-8"?>
<!-- Generator: Adobe Illustrator 23.0.4, SVG Export Plug-In . SVG Version: 6.00 Build 0)  -->
<svg version="1.1" id="Layer_1" xmlns="http://www.w3.org/2000/svg" xmlns:xlink="http://www.w3.org/1999/xlink" x="0px" y="0px"
	 viewBox="0 0 250 250" style="enable-background:new 0 0 250 250;" xml:space="preserve">
<style type="text/css">
	.st0{fill:#525252;}
</style>
<g id="_x36_nbmAY.tif">
	<g>
		<path class="st0" d="M25,118c0.6-0.1,1-0.4,1.4-0.7c0.4-0.2,0.7-0.2,1,0c4.8,2.8,9.6,5.5,14.4,8.3c0.2,0.1,0.5,0.3,0.8,0.5
			c0-0.9,0-1.7,0-2.5c0-0.4-0.3-0.4-0.5-0.5c-4-2.3-8-4.6-12-6.9c-0.3-0.2-0.6-0.3-1-0.6c0.7-0.4,1.3-0.7,1.9-1.1
			c0.4-0.2,0.6,0.1,0.8,0.2c3.3,1.9,6.6,3.8,9.9,5.8c0.6,0.4,0.5,0.4,0.7-0.4c0.2-1.5-0.3-2.3-1.7-3c-2.2-1.1-4.3-2.4-6.4-3.7
			c-0.2-0.1-0.5-0.2-0.7-0.5c0.6-0.3,1.2-0.7,1.8-1c0.3-0.2,0.5,0,0.7,0.1c1.8,1.1,3.7,2.1,5.5,3.2c0.2,0.1,0.4,0.3,0.7,0.3
			c0-6.4,0-12.8,0-19.4c0.8,0.4,1.4,0.8,2,1.2c0.3,0.2,0.1,0.5,0.1,0.7c0,6,0,12,0,18c0,0.6,0.2,1,0.7,1.3c0.4,0.2,0.8,0.5,1.2,0.7
			c0.4,0.2,0.4,0.1,0.4-0.3c0-1,0-2,0-3c0-5,0-10.1,0-15.1c0-0.2,0-0.5,0-0.8c0.7,0.3,1.3,0.7,1.9,1c0.3,0.2,0.2,0.5,0.2,0.8
			c0,5.7,0,11.5,0,17.2c0,1.2,0.2,2.1,1.4,2.5c0.3,0.1,0.6,0.6,0.9,0.4c0.3-0.2,0.1-0.6,0.1-1c0-5.9,0-11.7,0-17.6
			c0-0.2-0.1-0.5,0.1-0.6c0.2-0.1,0.4,0.2,0.6,0.2c1.1,0.5,1.4,1.2,1.4,2.5c-0.1,5.9,0,11.8,0,17.7c0,0.4,0,0.8-0.4,0.9
			c-0.6,0.2-1,0.9-1.8,0.4c-0.6-0.4-1.2-0.7-1.8-1.1c-0.4-0.2-0.5-0.2-0.5,0.3c0,0.7,0,1.4,0,2.1c0,0.4-0.1,0.6-0.5,0.9
			c-0.8,0.6-1.6,0.6-2.4,0c-0.5-0.4-1-0.6-1.7-1c0,1,0,1.8,0,2.7c0,0.4-0.1,0.6-0.4,0.8c-0.9,0.6-1.5,0.6-2.5,0
			c-5.4-3.2-10.8-6.2-16.2-9.3c-0.2-0.1-0.3-0.3-0.6-0.2C25,118.3,25,118.1,25,118z M47.2,123.5c0-0.9,0-1.6,0-2.4
			c0-0.2,0-0.4-0.3-0.5c-0.6-0.3-1.2-0.6-1.8-0.9c-0.3-0.2-0.4-0.1-0.4,0.2c0,0.6,0,1.3,0,1.9c0,0.3,0.1,0.4,0.3,0.5
			C45.7,122.6,46.4,123,47.2,123.5z"/>
		<path class="st0" d="M225,138.4c-1.2-0.1-2.3-0.1-3.5,0c-0.6,0-0.7-0.2-0.7-0.7c0-3,0-6,0-9c0-1.4-0.3-2.7-1.3-3.7
			c-1.2-1.2-3.3-1.5-5-0.8c-1,0.4-1.8,1.1-2.5,1.9c-0.2,0.3-0.2,0.5-0.2,0.9c0,3.6,0,7.1,0,10.7c0,0.5-0.1,0.7-0.7,0.7
			c-1.1,0-2.1,0-3.2,0c-0.4,0-0.5-0.1-0.5-0.5c0-5.7,0-11.3,0-17c0-0.3,0.1-0.5,0.4-0.5c1.2,0,2.3,0,3.5,0c0.3,0,0.5,0.1,0.5,0.4
			c0,0.3,0,0.6,0,1c1.2-0.9,2.3-1.5,3.7-1.8c4.3-0.9,7.9,1.1,9.3,5.2c0,0.1,0,0.3,0.3,0.4C225,129.9,225,134.2,225,138.4z"/>
		<path class="st0" d="M108.6,127.3c0.8-1.4,1.6-2.7,2.3-4c0.1-0.3,0.4-0.3,0.6-0.3c3.1,0,6.1,0,9.2,0c0.4,0,0.5,0.1,0.5,0.5
			c0,3.1,0,6.2,0,9.4c0,0.3-0.1,0.5-0.3,0.7c-6.6,8.3-19.3,6.8-23.7-2.9c-3.4-7.4,0.9-16.6,8.8-18.8c4.1-1.1,8-0.5,11.6,1.8
			c0.4,0.3,0.5,0.5,0.2,0.9c-0.6,0.9-1.1,1.9-1.6,2.8c-0.2,0.4-0.4,0.5-0.8,0.2c-3.8-2.7-8.8-2.3-12.2,0.9
			c-3.8,3.6-3.8,9.6-0.1,13.4c3.6,3.7,9.7,3.7,13.3,0.2c0.3-0.3,0.4-0.5,0.4-0.9c0-1.1,0-2.1,0-3.2c0-0.4-0.1-0.6-0.6-0.6
			c-2.4,0-4.8,0-7.2,0C109,127.3,108.9,127.3,108.6,127.3z"/>
		<path class="st0" d="M53.8,149.4c-0.7-0.4-1.2-0.7-1.8-0.9c-0.4-0.2-0.3-0.4-0.3-0.7c0-2.4,0-4.8,0-7.1c0-0.8,0-0.8-0.7-0.4
			c-5.1,3-10.2,5.9-15.4,8.9c-0.2,0.1-0.4,0.3-0.8,0.3c0-0.7,0-1.3,0-2c0-0.4,0.3-0.5,0.6-0.6c5.2-3,10.4-6.1,15.6-9.1
			c0.5-0.3,0.7-0.5,0.6-1.1c0-0.5,0-1,0-1.5c0-0.5-0.1-0.5-0.5-0.3c-2.1,1.3-4.3,2.5-6.4,3.7c-3.1,1.8-6.3,3.6-9.4,5.4
			c-0.1,0.1-0.2,0.1-0.5,0.2c0-0.8,0-1.5,0-2.2c0-0.3,0.3-0.4,0.5-0.5c5.2-3,10.4-6.1,15.6-9.1c0.5-0.3,0.7-0.6,0.6-1.1
			c-0.1-0.4,0-0.9,0-1.4c0-0.6-0.1-0.6-0.6-0.3c-2.6,1.5-5.3,3.1-7.9,4.6c-2.5,1.5-5,2.9-7.5,4.4c-0.2,0.1-0.4,0.3-0.8,0.3
			c0-0.7,0-1.4,0-2.1c0-0.3,0.2-0.4,0.4-0.5c5.5-3.2,11-6.3,16.5-9.5c0.3-0.2,0.5-0.1,0.8,0c1,0.4,1.5,1,1.3,2.1
			c-0.1,0.4,0,0.9,0,1.4c0,0.4,0.1,0.5,0.4,0.3c0.6-0.4,1.3-0.7,1.9-1.1c0.4-0.2,0.6-0.2,1,0c0.9,0.4,1.3,0.9,1.2,1.9
			c-0.1,0.6,0,1.2,0,2c0.9-0.5,1.6-0.9,2.4-1.4c0.4-0.2,0.6-0.2,1,0c1,0.4,1.2,1,1.2,2c-0.1,6.3,0,12.6,0,18.9c0,0.3,0,0.5,0,0.9
			c-0.7-0.3-1.3-0.5-2-0.8c-0.4-0.1-0.3-0.5-0.3-0.7c0-4.2,0-8.4,0-12.6c0-1.5,0-3,0-4.4c0-0.4,0-0.7-0.6-0.4c-1.8,1-1.9,1-1.9,3.1
			c0,4.3,0,8.5,0,12.8c0,0.3,0.1,0.5-0.1,0.8c-0.6-0.3-1.2-0.6-1.8-0.9c-0.3-0.2-0.2-0.5-0.2-0.8c0-3.9,0-7.9,0-11.8
			c0-0.3,0-0.5,0-0.9c-0.8,0.5-1.5,0.9-2.2,1.3c-0.3,0.2-0.2,0.5-0.2,0.7c0,3.1,0,6.1,0,9.2C53.8,148.7,53.8,149,53.8,149.4z
			 M53.8,136.2c0.8-0.5,1.5-0.8,2.2-1.2c0.2-0.1,0.3-0.3,0.3-0.5c0-0.8,0-1.6,0-2.4c-2.2,0.8-2.4,1.1-2.4,3.2
			C53.8,135.6,53.8,135.8,53.8,136.2z"/>
		<path class="st0" d="M59.3,122.7c-0.9-0.5-1.7-1-2.4-1.4c-0.3-0.2-0.4-0.4-0.5-0.7c-0.2-1,0.2-1.7,1.2-2.1c0.6-0.2,1.1-0.6,1.7-1
			c-0.8-0.4-1.4-0.9-2.2-1.3c-0.5-0.3-0.7-0.6-0.7-1.2c0-0.8,0.2-1.2,0.9-1.6c5.6-3.2,11.2-6.5,16.8-9.7c0.2-0.1,0.4-0.2,0.8-0.4
			c-0.1,0.9-0.1,1.6-0.2,2.4c0,0.3-0.4,0.4-0.7,0.5c-4.8,2.8-9.7,5.6-14.5,8.4c-0.1,0.1-0.2,0.1-0.5,0.3c0.8,0.5,1.5,0.9,2.3,1.3
			c0.3,0.1,0.4-0.1,0.6-0.2c4-2.3,7.9-4.6,11.8-6.9c0.2-0.1,0.4-0.2,0.7-0.4c-0.1,0.8-0.1,1.6-0.2,2.3c0,0.3-0.3,0.4-0.6,0.5
			c-3.2,1.8-6.4,3.6-9.5,5.5c-0.2,0.1-0.4,0.3-0.7,0.5c0.8,0.4,1.5,0.8,2.2,1.3c0.3,0.2,0.5,0,0.7-0.2c2.3-1.3,4.6-2.7,7-4.1
			c0.2-0.1,0.4-0.3,0.8-0.5c-0.1,0.9-0.1,1.6-0.2,2.3c0,0.3-0.3,0.4-0.5,0.5c-1.7,1-3.3,1.9-5,2.9c-0.1,0.1-0.3,0.1-0.4,0.4
			c5.5,3.2,11.1,6.4,16.7,9.6c-0.6,0.5-1.3,0.8-1.9,1.1c-0.3,0.2-0.6-0.1-0.8-0.3c-5.2-2.9-10.3-5.9-15.5-8.8
			c-0.5-0.3-0.8-0.3-1.3,0c-0.5,0.4-1.1,0.7-1.8,1c5.6,3.3,11.2,6.5,16.9,9.7c-0.7,0.4-1.3,0.7-1.9,1.1c-0.4,0.2-0.6-0.1-0.8-0.2
			c-5.2-3-10.4-6.1-15.7-9.1c-0.5-0.3-0.8-0.3-1.3,0c-0.5,0.4-1.1,0.7-1.8,1c5.6,3.3,11.2,6.5,16.8,9.7c-0.6,0.4-1.2,0.7-1.8,1.1
			c-0.3,0.2-0.5,0-0.8-0.1c-3.9-2.2-7.8-4.5-11.7-6.7c-1.5-0.9-3-1.7-4.5-2.6c-0.4-0.2-0.5-0.5-0.6-1c-0.1-0.9,0.2-1.5,1.1-1.8
			C58.1,123.4,58.7,123,59.3,122.7z M63.9,120c-0.8-0.5-1.5-0.8-2.1-1.2c-0.1-0.1-0.3-0.1-0.5,0c-0.7,0.4-1.4,0.8-2.2,1.3
			c0.8,0.5,1.5,0.8,2.1,1.2c0.2,0.1,0.4,0.1,0.6,0C62.4,120.8,63.1,120.4,63.9,120z"/>
		<path class="st0" d="M165.3,121.6c0-2.5,0-4.8,0-7.2c0-0.5,0.1-0.8,0.6-1.1c1.2-0.6,2.5-1.3,3.8-2.1c0,0.3,0,0.5,0,0.7
			c0,8.6,0,17.1,0,25.7c0,0.5-0.1,0.8-0.7,0.7c-1-0.1-2-0.1-2.9,0c-0.6,0-0.9-0.1-0.8-0.8c0-0.1,0-0.3,0-0.4
			c-5.4,3.2-10.3,0.9-12.5-2c-2.6-3.6-2.5-8.7,0.3-12C155.8,119.9,160.7,118.8,165.3,121.6z M165.4,129.3c0-0.8,0-1.6,0-2.4
			c0-0.5-0.1-0.8-0.4-1.2c-1.5-1.8-3.4-2.3-5.6-1.8c-2.3,0.5-3.9,2.5-4.1,5c-0.2,2.3,1.2,4.7,3.2,5.6c2.2,0.9,4.7,0.4,6.4-1.5
			c0.4-0.4,0.5-0.8,0.5-1.3C165.4,130.9,165.4,130.1,165.4,129.3z"/>
		<path class="st0" d="M179.4,131.2c0.9-2.6,1.6-5,2.4-7.5c0.3-1,0.7-1.9,0.9-2.9c0.1-0.4,0.3-0.5,0.7-0.5c0.9,0,1.8,0,2.7,0
			c0.5,0,0.6,0.2,0.8,0.6c1,3.1,2,6.2,3,9.4c0.1,0.2,0.2,0.4,0.2,0.7c0.3-0.2,0.3-0.4,0.3-0.6c1.1-3.2,2.1-6.3,3.1-9.5
			c0.1-0.4,0.3-0.6,0.8-0.6c1.2,0,2.4,0,3.7,0c-0.5,1.4-0.9,2.7-1.3,4c-1.5,4.4-3,8.8-4.5,13.3c-0.2,0.5-0.3,0.7-0.9,0.7
			c-0.7-0.1-1.4,0-2.1,0c-0.5,0-0.7-0.1-0.8-0.6c-1.1-3.4-2.1-6.7-3.2-10.1c-0.1-0.3-0.2-0.6-0.4-1.1c-0.2,0.7-0.4,1.3-0.6,1.9
			c-1,3.1-2.1,6.2-3.1,9.3c-0.1,0.4-0.3,0.6-0.8,0.6c-0.7,0-1.5,0-2.2,0c-0.5,0-0.7-0.1-0.9-0.6c-1.4-4.2-2.8-8.4-4.2-12.6
			c-0.5-1.4-0.9-2.8-1.4-4.2c-0.2-0.5-0.1-0.6,0.4-0.6c1,0,2,0,2.9,0c0.5,0,0.7,0.1,0.9,0.6c1.1,3.2,2.1,6.3,3.2,9.5
			C179.2,130.6,179.3,130.8,179.4,131.2z"/>
		<path class="st0" d="M133.1,120.1c5.5,0.1,9.4,4,9.4,9.4c0,5.5-4.1,9.6-9.6,9.5c-5.4-0.1-9.5-4.2-9.4-9.6
			C123.5,123.9,127.7,120,133.1,120.1z M138.1,129.5c0-1.6-0.5-3-1.5-4c-1.5-1.5-3.9-1.9-5.8-1c-1.9,0.8-3.1,2.8-3,5.1
			c0,2.3,1.3,4.4,3.3,5.1C134.6,136,138.1,133.4,138.1,129.5z"/>
		<path class="st0" d="M148.9,124.8c0,4.3,0,8.5,0,12.8c0,0.6-0.2,0.8-0.7,0.7c-1,0-2.1,0-3.1,0c-0.4,0-0.6-0.1-0.6-0.5
			c0-7.9,0-15.8,0-23.7c0-0.3,0.1-0.5,0.4-0.7c1.2-0.6,2.4-1.2,3.5-1.9c0.5-0.3,0.6-0.1,0.6,0.4
			C148.9,116.2,148.9,120.5,148.9,124.8z"/>
		<path class="st0" d="M204.2,129.4c0,2.8,0,5.6,0,8.3c0,0.5-0.1,0.6-0.6,0.6c-1.1,0-2.1,0-3.2,0c-0.4,0-0.6-0.1-0.6-0.5
			c0-5.6,0-11.3,0-16.9c0-0.4,0.1-0.5,0.5-0.5c1.1,0,2.2,0,3.3,0c0.5,0,0.6,0.2,0.6,0.6C204.2,123.8,204.2,126.6,204.2,129.4z"/>
		<path class="st0" d="M204.1,111.2c0,1.5,0,2.8,0,4.1c0,0.3-0.2,0.4-0.4,0.5c-1.2,0.6-2.4,1.3-3.5,2c-0.4,0.2-0.5,0.1-0.5-0.3
			c0-1.2,0-2.3,0-3.5c0-0.2,0-0.4,0.3-0.6C201.4,112.8,202.7,112,204.1,111.2z"/>
	</g>
</g>
</svg>
