<?xml version="1.0" encoding="utf-8"?>
<!-- Generator: Adobe Illustrator 23.0.4, SVG Export Plug-In . SVG Version: 6.00 Build 0)  -->
<svg version="1.1" id="Layer_1" xmlns="http://www.w3.org/2000/svg" xmlns:xlink="http://www.w3.org/1999/xlink" x="0px" y="0px"
	 viewBox="0 0 120 60" style="enable-background:new 0 0 120 60;" xml:space="preserve">
<style type="text/css">
	.st0{fill:#525252;}
	.st1{fill-rule:evenodd;clip-rule:evenodd;fill:#525252;}
</style>
<g>
	<path class="st0" d="M48.1,36.2l2.4,6.3h-4.6L48.1,36.2L48.1,36.2z M47.2,34.1L42,47.9h1.9l1.3-3.7h5.8l1.3,3.7h1.9l-5.2-13.7H47.2
		L47.2,34.1z M75.4,47.9h1.8V34.1h-1.8V47.9L75.4,47.9z M57,39.8c0.6-0.9,1.8-1.6,3-1.6c2.4,0,3.6,1.6,3.6,4V48h-1.8v-5.5
		c0-1.9-1-2.7-2.4-2.7c-1.5,0-2.5,1.5-2.5,2.8v5.2h-1.8v-9.5h1.8L57,39.8L57,39.8z M65.1,45c0-2.1,1.9-3.3,4.2-3.3
		c1.3,0,2.2,0.3,2.5,0.6V42c0-1.5-1.2-2.2-2.4-2.2c-1,0-1.9,0.4-2.2,1.3l-1.6-0.7c0.3-0.9,1.5-2.2,3.9-2.2c2.2,0,4.2,1.3,4.2,4v5.7
		H72v-1.3h-0.2c-0.4,0.7-1.5,1.6-3.1,1.6C66.7,48.2,65.1,47,65.1,45 M71.8,43.8c0,0-0.7-0.6-2.2-0.6c-1.8,0-2.5,1-2.5,1.8
		c0,1,1,1.5,1.9,1.5C70.3,46.5,71.8,45.3,71.8,43.8"/>
	<path class="st1" d="M79.7,52l2.1-4.9l-3.7-8.7h1.8l2.8,6.6l2.8-6.6h1.8L81.6,52H79.7L79.7,52z M106,41.6c-0.4-1.2-1.5-1.9-2.5-1.9
		c-1.5,0-2.8,1.3-2.8,3.3s1.3,3.3,2.8,3.3c1,0,2.1-0.7,2.5-1.8l1.5,0.9c-0.7,1.6-2.2,2.7-4,2.7c-2.5,0-4.6-2.2-4.6-5.1
		c0-3,2.1-5.1,4.6-5.1c1.8,0,3.3,1,4,2.7L106,41.6L106,41.6z"/>
	<path class="st0" d="M112.4,48.2c2.4,0,3.6-1.3,3.6-3c0-3.6-5.2-2.2-5.2-4.3c0-0.7,0.6-1.2,1.6-1.2s2.1,0.4,2.5,1.2l1-1
		c-0.6-0.7-2.2-1.8-3.7-1.8c-2.2,0-3.4,1.3-3.4,3c0,3.4,5.4,2.2,5.4,4c0,0.9-0.6,1.5-1.8,1.5s-1.8-0.7-2.4-1.5l-1.3,1.1
		C109.6,47,110.9,48.2,112.4,48.2L112.4,48.2z M95.4,47.9h1.8v-9.6h-1.8V47.9z"/>
	<path class="st1" d="M96.2,33.7c0.7,0,1.2,0.6,1.2,1.2c0,0.7-0.6,1.2-1.2,1.2S95,35.5,95,34.9S95.6,33.7,96.2,33.7z M93.6,46.4
		l0.3,1.3h-1.8c-1.6,0-2.4-1.2-2.4-3v-4.6h-1.8v-1.8h1.8v-2.8h1.8v2.8h2.1v1.8h-2.1V45C91.5,46.4,92.6,46.4,93.6,46.4L93.6,46.4z"/>
	<path class="st0" d="M51,19v2.2h5.2c-0.2,1.2-0.6,2.1-1.2,2.7c-0.7,0.7-1.9,1.6-4,1.6c-3.1,0-5.7-2.5-5.7-5.8
		c0-3.1,2.5-5.8,5.7-5.8c1.8,0,3,0.7,3.9,1.5l1.5-1.5c-1.3-1.2-3-2.2-5.4-2.2c-4.3,0-8.1,3.6-8.1,7.9s3.7,7.9,8.1,7.9
		c2.4,0,4.2-0.7,5.5-2.2c1.5-1.5,1.9-3.4,1.9-5.1c0-0.4,0-1-0.2-1.3H51L51,19z M64.3,17.2c-2.8,0-5.1,2.1-5.1,5.1s2.2,5.1,5.1,5.1
		c2.8,0,5.1-2.2,5.1-5c0,0,0-0.1,0-0.1C69.4,19.2,67.2,17.2,64.3,17.2z M64.3,25.4c-1.5,0-2.8-1.3-2.8-3.1c0-1.8,1.3-3.1,2.8-3.1
		s2.8,1.2,2.8,3.1S65.8,25.4,64.3,25.4L64.3,25.4z M88.8,18.2C88.2,17.6,87.3,17,86,17c-2.5,0-4.8,2.2-4.8,5.1s2.2,5.1,4.8,5.1
		c1.2,0,2.2-0.6,2.7-1.2h0.2v0.7c0,1.9-1,3-2.7,3c-1.3,0-2.2-1-2.5-1.8l-1.9,0.7c0.6,1.3,2.1,3,4.5,3c2.7,0,4.9-1.5,4.9-5.4V17h-2.1
		v1.2L88.8,18.2z M86.3,25.4c-1.5,0-2.7-1.3-2.7-3.1s1.2-3.1,2.7-3.1s2.7,1.3,2.7,3.1C88.9,24,87.8,25.4,86.3,25.4z M75.4,17.2
		c-2.8,0-5.1,2.1-5.1,5.1s2.2,5.1,5.1,5.1c2.8,0,5.1-2.2,5.1-5c0,0,0-0.1,0-0.1C80.6,19.3,78.2,17.2,75.4,17.2z M75.4,25.4
		c-1.5,0-2.8-1.3-2.8-3.1s1.3-3.1,2.8-3.1s2.8,1.2,2.8,3.1S76.9,25.4,75.4,25.4z M92.7,11.8h2.2v15.5h-2.2V11.8z M101.1,25.4
		c-1.2,0-1.9-0.6-2.5-1.5l6.9-2.8l-0.3-0.6c-0.4-1.2-1.8-3.3-4.3-3.3c-2.7,0-4.8,2.1-4.8,5.1c0,2.8,2.2,5.1,5,5.1c0,0,0.1,0,0.1,0
		c2.4,0,3.7-1.5,4.3-2.2l-1.8-1.2C103,24.8,102.2,25.4,101.1,25.4L101.1,25.4z M100.9,19.1c0.9,0,1.6,0.4,1.9,1.2l-4.6,1.9
		C98.2,20,99.7,19.1,100.9,19.1z"/>
</g>
<g transform="matrix(.198617 0 0 .198616 29.128442 -18.08775)">
	<path class="st0" d="M-0.9,175v132c0,14.8,10.2,23,21,23c10,0,21-7,21-23V176c0-13.5-10-22-21-22S-0.9,163.3-0.9,175z"/>
	<g>
		<path class="st0" d="M-55.9,242v65c0,14.8,10.2,23,21,23c10,0,21-7,21-23v-64c0-13.5-10-22-21-22S-55.9,230.3-55.9,242z"/>
		<circle class="st0" cx="-89.9" cy="309" r="21"/>
	</g>
</g>
</svg>
