<svg width="129" height="34" xmlns="http://www.w3.org/2000/svg"><g fill="#525252" fill-rule="evenodd"><path d="M22.502 25.839c0-.38-.246-.662-.749-.772v-.246c.279 0 1.206.038 1.467.038.225 0 1.123-.038 1.403-.038v.246c-.467.092-.712.37-.712.772v4.827c0 1.529.833 2.393 2.576 2.393 1.502 0 2.67-.68 2.67-2.28v-4.96c0-.358-.223-.642-.786-.752v-.246c.205 0 .971.038 1.233.038.224 0 1.028-.038 1.234-.038v.246c-.543.13-.784.376-.784.753v4.694c0 2.106-1.216 3.316-3.842 3.316-2.443 0-3.71-1.119-3.71-3.098v-4.893zM32.985 33.452c.569-.107.793-.397.793-.753v-6.672c0-.566-.299-.82-.809-.96v-.246c.289.021.773.034 1.02.034.224 0 .573-.004.809-.034l5.744 6.804V25.82c0-.358-.225-.642-.786-.753v-.246c.206 0 .945.038 1.208.038.228 0 1.02-.038 1.229-.038v.246c-.548.13-.813.377-.813.753v8.01h-.346c-.218-.05-.63-.286-1.256-.98l-5.14-6.03v5.88c0 .357.205.64.766.752v.247c-.206 0-.945-.04-1.208-.04-.227 0-1.002.04-1.21.04v-.247zM78.313 31.653h.243c.129.498.412.953.809 1.215.413.293 1.06.434 1.584.434 1.155 0 1.888-.577 1.888-1.49 0-.945-.938-1.435-2.062-2.001-.837-.422-2.48-1.118-2.48-2.718 0-1.49 1.129-2.418 2.933-2.418 1.191 0 1.75.294 2.554.256l-.016 1.808h-.245c-.321-1.065-1.282-1.437-2.334-1.437-1.176 0-1.616.678-1.616 1.367 0 .987.958 1.484 2.044 1.973 1.222.548 2.547 1.24 2.547 2.781 0 1.46-1.133 2.517-3.204 2.517-1.233 0-1.972-.355-2.62-.435l-.025-1.852zM103 30.026l-2.34-3.78c-.399-.664-.705-1.014-1.15-1.18v-.245c.32 0 1.187.039 1.432.039.223 0 1.157-.039 1.494-.039v.245c-.299.054-.439.205-.439.432 0 .2.136.458.272.682l1.724 2.881 1.662-2.88c.167-.288.286-.574.286-.763 0-.172-.12-.314-.404-.352v-.245c.281 0 .872.039 1.06.039.189 0 .868-.039 1.148-.039v.229c-.64.263-1.038.828-1.426 1.483l-2.126 3.58m.145-.451v3.02c0 .299.227.675.738.77v.247c-.285 0-1.216-.04-1.486-.04-.226 0-1.12.04-1.442.04v-.247c.514-.095.76-.471.76-.77v-2.888M59.539 24.821h5.484c.17 0 .467-.02.636-.093h.246l-.039 1.795h-.243c-.208-.565-.425-1.017-1.487-1.017h-2.381v3.129h1.835c.268 0 .592-.023.733-.057.412-.09.594-.322.677-.676h.245c-.018.27-.018.888-.018 1.07 0 .184.018.834.018 1.128H65c-.118-.353-.278-.622-.677-.72a3.66 3.66 0 00-.733-.069h-1.835v3.67h2.59c1.131 0 1.46-.475 1.74-1.147l.243.057-.242 1.844c-.841-.075-1.346-.075-2.3-.075h-2.738c-.263 0-1.23.039-1.512.039v-.246c.494-.095.782-.34.782-.818v-6.787c0-.421-.224-.684-.78-.778v-.249zM45.53 25.896c0-.455-.269-.706-.797-.82v-.245c.294 0 1.246.038 1.523.038.232 0 1.21-.038 1.509-.038v.244c-.526.115-.801.342-.801.82v6.741c0 .455.27.703.8.816v.247c-.296 0-1.235-.039-1.508-.039-.236 0-1.23.039-1.524.039v-.247c.54-.102.799-.34.799-.816v-6.74zM87.136 25.896c0-.455-.272-.706-.8-.82v-.245c.295 0 1.247.038 1.523.038.234 0 1.212-.038 1.51-.038v.244c-.526.115-.8.342-.8.82v6.741c0 .455.27.703.8.816v.247c-.296 0-1.233-.039-1.51-.039-.233 0-1.228.039-1.523.039v-.247c.54-.102.8-.34.8-.816v-6.74zM94.76 24.859c-3.007 0-3.488-.056-4.103-.095l.005 1.83h.245c.225-.812.673-1 1.253-1h1.886v7.042c0 .476-.258.714-.8.816v.247c.297 0 1.3-.039 1.53-.039.276 0 1.217.039 1.51.039v-.247c-.531-.113-.8-.36-.8-.816v-7.042h1.87c.602 0 1.033.206 1.257 1h.242l.004-1.83c-.61.039-1.092.095-4.1.095M70.769 32.636c0 .455.287.702.817.816v.247c-.294 0-1.255-.039-1.53-.039-.235 0-1.174.039-1.47.039v-.247c.492-.095.782-.34.782-.816v-6.809c0-.419-.226-.682-.78-.777v-.245c.294 0 1.224.037 1.487.037.43 0 1.653-.073 2.135-.073 2.107 0 3.28.878 3.28 2.383 0 1.183-.873 1.983-2.218 2.31 0 0 .307.18.613.538.372.442 1.375 1.893 1.792 2.4.416.509.948 1.077 1.518 1.102v.199c-.273.06-.711.112-1.047.112-.715 0-1.287-.254-1.841-.93-.48-.59-1.295-1.811-1.775-2.428-.306-.393-.678-.7-1.358-.813a7.53 7.53 0 00-.405-.06v3.054zm0-3.618c.28.038.693.056 1.1.056 1.65 0 2.17-.956 2.17-1.802 0-1.197-.793-1.939-2.237-1.939-.299 0-.732.038-1.033.095v3.59zM49.878 25.925c-.192-.429-.487-.743-.99-.854v-.25c.313 0 1.396.039 1.634.039.219 0 1.166-.04 1.487-.04v.243c-.285.056-.61.215-.61.509 0 .21.126.497.368 1.036l2.27 5.204 2.15-5.213c.169-.42.291-.746.291-.995 0-.276-.252-.467-.609-.54v-.244c.286 0 .986.04 1.203.04.2 0 1.02-.04 1.335-.04v.25c-.537.147-.863.444-1.164 1.148L54.08 33.73h-.716l-3.487-7.805zM57.986 2.233C57.621 1.42 57.06.827 56.11.615V.142c.59 0 2.553.071 3.004.071.416 0 2.317-.071 2.922-.071v.461c-.537.106-1.154.408-1.154.966 0 .394.243.938.694 1.958l4.306 9.863 4.075-9.88c.318-.8.555-1.41.555-1.884 0-.525-.482-.881-1.158-1.023V.142c.54 0 1.85.071 2.266.071.379 0 1.936-.071 2.528-.071v.447c-1.016.277-1.637.865-2.203 2.199l-5.99 14.24h-1.356L57.986 2.233zM0 16.485c.782-.18 1.332-.538 1.332-1.43V2C1.332 1.143.82.787 0 .572V.108c.41 0 2.18.07 2.61.07.496 0 2.351-.07 2.759-.07v.464C4.588.75 4.009 1.108 4.009 2v5.453h9.653V2c0-.892-.515-1.25-1.33-1.428V.108c.407 0 2.229.07 2.724.07.427 0 2.238-.07 2.642-.07v.464c-.782.178-1.362.536-1.362 1.428v13.055c0 .857.544 1.216 1.362 1.43v.428c-.404 0-2.215-.035-2.642-.035-.495 0-2.317.035-2.724.035v-.428c.776-.18 1.33-.538 1.33-1.43v-6.17H4.008v6.17c0 .892.543 1.216 1.36 1.43v.428c-.407 0-2.262-.035-2.758-.035-.43 0-2.2.035-2.61.035v-.428zM111.663 16.485c1.002-.18 1.554-.58 1.554-1.502V2c0-.895-.545-1.25-1.513-1.428V.108c.558 0 2.373.07 2.876.07.812 0 3.076-.178 4.839-.178 5.938 0 9.544 3.34 9.544 8.421 0 4.938-3.752 8.597-9.875 8.597-1.765 0-3.859-.14-4.678-.14-.498 0-2.191.07-2.747.07v-.463zm4.228-.86c.605.11 1.722.18 2.603.18 4.989 0 7.586-3.025 7.586-7.244 0-4.374-2.74-7.451-7.404-7.451-.953 0-2.144.072-2.785.177v14.338zM44.444 14.936c0 .865.544 1.335 1.545 1.55v.463c-.557 0-2.374-.071-2.896-.071-.441 0-2.224.07-2.78.07v-.463c.929-.18 1.477-.645 1.477-1.549V2.046c0-.794-.426-1.295-1.476-1.474V.108c.558 0 2.319.07 2.813.07.817 0 3.132-.137 4.046-.137 3.993 0 6.216 1.664 6.216 4.51 0 2.244-1.658 3.754-4.204 4.377 0 0 .578.34 1.159 1.022.705.834 2.65 3.639 3.436 4.6.786.962 1.794 2.036 2.873 2.086v.378a10.64 10.64 0 01-1.976.208c-1.362 0-2.443-.48-3.495-1.764-.907-1.114-2.493-3.482-3.402-4.651-.58-.745-1.28-1.325-2.565-1.54a12.897 12.897 0 00-.77-.108v5.777zm0-6.847c.529.07 1.31.106 2.085.106 3.123 0 4.104-1.811 4.104-3.411 0-2.273-1.502-3.674-4.238-3.674-.564 0-1.385.072-1.95.177v6.802zM97.081 14.936c0 .865.546 1.335 1.548 1.55v.463c-.557 0-2.371-.071-2.894-.071-.449 0-2.225.07-2.784.07v-.463c.928-.18 1.477-.645 1.477-1.549V2.046c0-.794-.43-1.295-1.474-1.474V.108c.56 0 2.315.07 2.813.07.818 0 3.132-.137 4.04-.137 4 0 6.217 1.664 6.217 4.51 0 2.244-1.654 3.754-4.202 4.377 0 0 .58.34 1.157 1.022.711.834 2.656 3.639 3.44 4.6.788.962 1.797 2.036 2.87 2.086v.378c-.51.112-1.342.208-1.968.208-1.364 0-2.45-.48-3.5-1.764-.906-1.114-2.487-3.482-3.404-4.651-.58-.745-1.278-1.325-2.56-1.54a13.067 13.067 0 00-.776-.108v5.777zm0-6.847c.535.07 1.312.106 2.087.106 3.124 0 4.103-1.811 4.103-3.411 0-2.273-1.503-3.674-4.234-3.674-.569 0-1.386.072-1.956.177v6.802zM20.238 16.482c1.056-.248 1.637-.938 2.022-1.86l5.346-12.96c.228-.536.492-1.638.492-1.638h1.496s.268 1.105.49 1.642l5.65 12.991c.404.895.84 1.541 1.963 1.825l-.003.432c-.611 0-2.513-.035-2.946-.035-.43 0-2.246.035-2.857.035l.002-.432c.823-.203 1.082-.625 1.082-1.033 0-.346-.142-.737-.314-1.143l-1.215-2.791H25.22l-1.112 2.807c-.125.318-.273.767-.273 1.07 0 .468.243.842 1.177 1.09l-.002.432c-.553 0-2.013-.035-2.355-.035l-2.418.035v-.432zm10.644-6.29l-2.658-6.24-2.476 6.24h5.134zM73.205 16.482c1.056-.248 1.638-.938 2.021-1.86l5.348-12.96c.228-.536.495-1.638.495-1.638h1.496s.265 1.105.487 1.642l5.652 12.991c.4.895.84 1.541 1.958 1.825l-.002.432c-.61 0-2.513-.035-2.948-.035-.427 0-2.242.035-2.854.035v-.432c.828-.203 1.083-.625 1.083-1.033 0-.346-.14-.737-.31-1.143l-1.219-2.791h-6.226l-1.113 2.807c-.125.318-.272.767-.272 1.07 0 .468.243.842 1.177 1.09v.432c-.555 0-2.013-.035-2.357-.035l-2.418.035.002-.432zm10.644-6.29l-2.66-6.24-2.474 6.24h5.134z"/></g></svg>