<?xml version="1.0" encoding="UTF-8"?>
<svg viewBox="0 0 466 150" version="1.1" xmlns="http://www.w3.org/2000/svg" xmlns:xlink="http://www.w3.org/1999/xlink">
  <g id="Group" transform="translate(179.000000, 55.000000)">
      <path fill="#525252" d="M280.6,75.8 C281.88,75.58 282.53,74.83 282.56,73.55 C282.56,71.76 281,71.12 279.48,71.12 L276.59,71.12 L276.59,79.43 L278.07,79.43 L278.07,75.88 L279.11,75.88 L281.07,79.43 L282.85,79.43 L280.6,75.8 Z M278.07,74.77 L278.07,72.33 L279.38,72.33 C280.13,72.33 281.07,72.33 281.07,73.55 C281.07,74.77 280.05,74.77 279.22,74.77 L278.07,74.77 Z M284.61,70.09 C283.18,68.66 281.43,67.95 279.38,67.95 C277.34,67.95 275.62,68.66 274.16,70.09 C272.73,71.54 272,73.28 272,75.33 C272,77.36 272.73,79.11 274.16,80.54 C275.62,81.99 277.34,82.7 279.38,82.7 C281.43,82.7 283.18,81.99 284.61,80.54 C286.05,79.1 286.78,77.36 286.78,75.33 C286.78,73.28 286.05,71.54 284.61,70.09 Z M279.38,81.4 L279.38,81.49 C275.2,81.49 273.12,79.41 273.12,75.23 C273.12,71.05 275.2,68.96 279.38,68.96 C283.55,68.96 285.66,71.05 285.66,75.23 C285.58,79.34 283.49,81.4 279.38,81.4 Z M282.56,73.55 C282.56,71.76 281,71.12 279.48,71.12 L276.59,71.12 L276.59,79.43 L278.07,79.43 L278.07,75.88 L279.11,75.88 L281.07,79.43 L282.85,79.43 L280.6,75.8 C281.88,75.58 282.53,74.83 282.56,73.55 Z M278.07,74.77 L278.07,72.33 L279.38,72.33 C280.13,72.33 281.07,72.33 281.07,73.55 C281.07,74.77 280.05,74.77 279.22,74.77 L278.07,74.77 Z M280.6,75.8 C281.88,75.58 282.53,74.83 282.56,73.55 C282.56,71.76 281,71.12 279.48,71.12 L276.59,71.12 L276.59,79.43 L278.07,79.43 L278.07,75.88 L279.11,75.88 L281.07,79.43 L282.85,79.43 L280.6,75.8 Z M278.07,74.77 L278.07,72.33 L279.38,72.33 C280.13,72.33 281.07,72.33 281.07,73.55 C281.07,74.77 280.05,74.77 279.22,74.77 L278.07,74.77 Z" id="Shape"></path>
      <path fill="#525252" d="M117.91,18.31 L117.91,82.52 L135.66,82.52 L135.66,18.31 L117.91,18.31 Z M263.79,32.51 L263.79,18.31 L248.24,18.31 L248.24,0.36 L230.78,0.36 L230.78,18.31 L219.93,18.31 L219.93,32.51 L230.78,32.51 L230.78,60.55 C230.78,70.46 233.2,83.73 252.26,83.73 C256.12,83.7 259.84,83.12 263.5,81.96 L263.5,68.12 C260.97,68.97 258.38,69.42 255.73,69.43 C250.59,69.43 248.71,65.79 248.71,60.08 L248.71,32.05 L263.79,32.51 Z M96.06,25.1 C92.02,20.04 86.75,17.16 80.34,16.44 L77.31,16.53 C68.46,16.65 61.76,20.51 57.23,28.13 C52.79,20.4 46.12,16.54 37.21,16.53 C28.74,17.32 22.15,21.29 17.5,28.4 L17.5,19.06 L0.28,19.06 L0.28,83.26 L18.05,83.26 L18.05,47.1 C18.05,39.35 22.17,31.5 30.76,31.5 C33.83,31.54 36.43,32.66 38.58,34.83 C40.72,37.02 41.8,39.64 41.8,42.71 C41.8,42.71 41.8,43.36 41.8,43.74 L41.8,82.34 L59.56,82.34 L59.56,47.1 C59.1,43.16 60.11,39.66 62.57,36.57 C65.04,33.48 68.26,31.72 72.19,31.3 L72.75,31.3 C81.07,31.3 83.31,38.59 83.31,46.73 L83.31,82.15 L101.1,82.15 L101.1,42.33 C101.8,35.89 100.11,30.14 96.06,25.1 Z M209.32,32.82 C208.39,29.64 206.82,26.79 204.65,24.3 C202.46,21.79 199.86,19.87 196.84,18.52 C193.82,17.16 190.69,16.51 187.39,16.5198864 L187.39,16.53 C178.89,17.13 172.38,21 167.74,28.13 L167.74,18.31 L149.9,18.31 L149.9,82.52 L167.65,82.52 L167.65,47.1 C167.31,43.14 168.44,39.64 170.99,36.6 C173.55,33.56 176.81,31.86 180.75,31.5 L181.39,31.5 C190,31.5 192.24,39.16 192.24,46.9 L192.24,82.33 L210.03,82.33 L210.03,42.52 C210.49,39.24 210.25,36 209.32,32.82 Z" id="Shape"></path>
  </g>
  <g id="Group" transform="translate(176.000000, 7.000000)">
      <path fill="#525252" d="M164.94,46.02 C165.44,45.98 165.67,45.71 165.62,45.22 L165.46,45.22 C165.46,44.65 164.94,44.42 164.44,44.42 L163.48,44.42 L163.48,47.21 L164.11,47.21 L164.11,46.05 L164.44,46.05 L165.08,47.21 L165.68,47.21 L164.94,46.02 Z M164.37,45.64 L163.99,45.61 L163.99,44.84 L164.44,44.84 C164.69,44.84 164.98,44.84 164.98,45.22 C164.98,45.61 164.66,45.64 164.37,45.64 Z M166.14,44.07 C165.68,43.6 165.1,43.37 164.44,43.37 C163.77,43.37 163.21,43.62 162.75,44.09 C162.28,44.56 162.06,45.13 162.07,45.79 C162.07,46.45 162.31,47.01 162.79,47.47 C163.25,47.94 163.83,48.17 164.48,48.17 C165.14,48.17 165.7,47.93 166.17,47.46 C166.65,46.99 166.87,46.43 166.87,45.77 C166.86,45.1 166.62,44.54 166.14,44.07 Z M164.44,47.81 C163.07,47.81 162.39,47.14 162.39,45.77 C162.39,44.4 163.07,43.72 164.44,43.72 C165.8,43.72 166.48,44.4 166.48,45.77 C166.48,47.13 165.8,47.81 164.44,47.81 Z M165.62,45.22 L165.46,45.22 C165.46,44.65 164.94,44.42 164.44,44.42 L163.48,44.42 L163.48,47.21 L164.11,47.21 L164.11,46.05 L164.44,46.05 L165.08,47.21 L165.68,47.21 L164.94,46.02 C165.44,45.98 165.67,45.71 165.62,45.22 Z M164.37,45.64 L163.99,45.61 L163.99,44.84 L164.44,44.84 C164.69,44.84 164.98,44.84 164.98,45.22 C164.98,45.61 164.66,45.64 164.37,45.64 Z M164.94,46.02 C165.44,45.98 165.67,45.71 165.62,45.22 L165.46,45.22 C165.46,44.65 164.94,44.42 164.44,44.42 L163.48,44.42 L163.48,47.21 L164.11,47.21 L164.11,46.05 L164.44,46.05 L165.08,47.21 L165.68,47.21 L164.94,46.02 Z M164.37,45.64 L163.99,45.61 L163.99,44.84 L164.44,44.84 C164.69,44.84 164.98,44.84 164.98,45.22 C164.98,45.61 164.66,45.64 164.37,45.64 Z" id="Shape"></path>
      <path fill="#525252" d="M0.75,14.88 L0.75,47.72 L8.95,47.72 L8.95,14.88 L0.75,14.88 Z M35.37,13.92 C33.27,13.9 31.3,14.44 29.5,15.54 C27.67,16.67 26.27,18.2 25.32,20.13 L25.32,14.88 L17.4,14.88 L17.4,47.72 L25.6,47.72 L25.6,29.67 C25.37,27.45 25.95,25.48 27.35,23.75 C28.75,22.02 30.56,21.04 32.78,20.8 L33.32,20.8 C38.6,20.8 39.47,25.67 39.47,29.57 L39.47,47.72 L47.67,47.72 L47.67,27.2 C47.67,20.51 43.95,13.92 35.37,13.92 Z M106.06,14.88 L106.43,32.93 C106.68,35.13 106.11,37.1 104.72,38.84 C103.32,40.57 101.54,41.55 99.32,41.8 L98.78,41.8 C93.5,41.8 92.63,36.93 92.63,33.02 L92.63,14.88 L84.02,14.88 L84.02,35.4 C84.02,42.09 87.57,48.68 96.13,48.68 C98.31,48.74 100.33,48.21 102.19,47.09 C104.06,45.97 105.47,44.42 106.43,42.47 L106.43,47.72 L114.26,47.72 L114.26,14.88 L106.06,14.88 Z M123.06,14.88 L123.06,47.72 L131.26,47.72 L131.26,14.88 L123.06,14.88 Z M51.99,14.88 L51.99,22.11 L61.22,22.11 L61.22,47.72 L69.41,47.72 L69.41,22.11 L78.64,22.11 L78.64,14.88 L51.99,14.88 Z M68.82,2.12 C67.85,1.15 66.69,0.67 65.32,0.67 C63.94,0.67 62.77,1.15 61.81,2.12 C60.84,3.09 60.35,4.26 60.35,5.63 C60.34,6.96 60.8,8.11 61.73,9.08 C62.65,10.04 63.79,10.54 65.12,10.59 L65.32,10.59 C66.68,10.59 67.85,10.11 68.82,9.14 C69.79,8.17 70.28,7 70.28,5.63 C70.28,4.26 69.79,3.09 68.82,2.12 Z M136.99,14.88 L136.99,22.14 L146.21,22.14 L146.21,47.75 L154.48,47.75 L154.48,22.14 L163.69,22.14 L163.69,14.88 L136.99,14.88 Z M153.69,2.12 C152.73,1.15 151.55,0.67 150.18,0.67 C148.82,0.67 147.64,1.15 146.67,2.12 C145.71,3.09 145.22,4.26 145.23,5.63 C145.23,6.98 145.71,8.15 146.67,9.11 C147.63,10.08 148.79,10.57 150.15,10.59 L150.18,10.59 C151.55,10.59 152.73,10.11 153.69,9.14 C154.66,8.17 155.15,7 155.15,5.63 C155.15,4.26 154.66,3.09 153.69,2.12 Z" id="Shape"></path>
  </g>
  <g id="Icon-5-2">
      <path fill="#525252" d="M47.1,88.12 C47.1,73.12 62.09,51.56 74.28,37.5 L74.28,115.31 L70.53,112.5 C51.78,101.25 47.1,97.5 47.1,88.12 Z" id="Path"></path>
      <path fill="#525252" d="M75.22,0 C33.8,0 0.22,33.58 0.22,75 C0.22,116.42 33.8,150 75.22,150 C116.64,150 150.22,116.42 150.22,75 C150.22,33.58 116.64,0 75.22,0 Z M75.22,129.37 C51.78,113.43 36.78,107.81 36.78,88.12 C36.78,60.94 70.53,25.31 75.22,20.62 C79.91,25.31 113.66,60.94 113.650002,88.12 C113.650002,106.87 98.66,113.43 75.22,129.37 Z" id="Shape"></path>
  </g>
</svg>
