<?xml version="1.0" encoding="utf-8"?>
<!-- Generator: Adobe Illustrator 23.0.4, SVG Export Plug-In . SVG Version: 6.00 Build 0)  -->
<svg version="1.1" id="Layer_1" xmlns="http://www.w3.org/2000/svg" xmlns:xlink="http://www.w3.org/1999/xlink" x="0px" y="0px"
	 viewBox="0 0 600 250" style="enable-background:new 0 0 600 250;" xml:space="preserve">
<style type="text/css">
	.st0{fill:#525252;}
</style>
<g>
	<g>
		<path class="st0" d="M526.6,180.8c1.28-0.22,1.93-0.97,1.96-2.25c0-1.79-1.56-2.43-3.08-2.43h-2.89v8.31h1.48v-3.55h1.04
			l1.96,3.55h1.78L526.6,180.8z M524.07,179.77v-2.44h1.31c0.75,0,1.69,0,1.69,1.22c0,1.22-1.02,1.22-1.85,1.22H524.07z
			 M530.61,175.09c-1.43-1.43-3.18-2.14-5.23-2.14c-2.04,0-3.76,0.71-5.22,2.14c-1.43,1.45-2.16,3.19-2.16,5.24
			c0,2.03,0.73,3.78,2.16,5.21c1.46,1.45,3.18,2.16,5.22,2.16c2.05,0,3.8-0.71,5.23-2.16c1.44-1.44,2.17-3.18,2.17-5.21
			C532.78,178.28,532.05,176.54,530.61,175.09z M525.38,186.4v0.09c-4.18,0-6.26-2.08-6.26-6.26s2.08-6.27,6.26-6.27
			c4.17,0,6.28,2.09,6.28,6.27C531.58,184.34,529.49,186.4,525.38,186.4z M528.56,178.55c0-1.79-1.56-2.43-3.08-2.43h-2.89v8.31
			h1.48v-3.55h1.04l1.96,3.55h1.78l-2.25-3.63C527.88,180.58,528.53,179.83,528.56,178.55z M524.07,179.77v-2.44h1.31
			c0.75,0,1.69,0,1.69,1.22c0,1.22-1.02,1.22-1.85,1.22H524.07z M526.6,180.8c1.28-0.22,1.93-0.97,1.96-2.25
			c0-1.79-1.56-2.43-3.08-2.43h-2.89v8.31h1.48v-3.55h1.04l1.96,3.55h1.78L526.6,180.8z M524.07,179.77v-2.44h1.31
			c0.75,0,1.69,0,1.69,1.22c0,1.22-1.02,1.22-1.85,1.22H524.07z"/>
		<path class="st0" d="M363.91,123.31v64.21h17.75v-64.21H363.91z M509.79,137.51v-14.2h-15.55v-17.95h-17.46v17.95h-10.85v14.2
			h10.85v28.04c0,9.91,2.42,23.18,21.48,23.18c3.86-0.03,7.58-0.61,11.24-1.77v-13.84c-2.53,0.85-5.12,1.3-7.77,1.31
			c-5.14,0-7.02-3.64-7.02-9.35v-28.03L509.79,137.51z M342.06,130.1c-4.04-5.06-9.31-7.94-15.72-8.66l-3.03,0.09
			c-8.85,0.12-15.55,3.98-20.08,11.6c-4.44-7.73-11.11-11.59-20.02-11.6c-8.47,0.79-15.06,4.76-19.71,11.87v-9.34h-17.22v64.2h17.77
			V152.1c0-7.75,4.12-15.6,12.71-15.6c3.07,0.04,5.67,1.16,7.82,3.33c2.14,2.19,3.22,4.81,3.22,7.88c0,0,0,0.65,0,1.03v38.6h17.76
			V152.1c-0.46-3.94,0.55-7.44,3.01-10.53c2.47-3.09,5.69-4.85,9.62-5.27h0.56c8.32,0,10.56,7.29,10.56,15.43v35.42h17.79v-39.82
			C347.8,140.89,346.11,135.14,342.06,130.1z M455.32,137.82c-0.93-3.18-2.5-6.03-4.67-8.52c-2.19-2.51-4.79-4.43-7.81-5.78
			c-3.02-1.36-6.15-2.01-9.45-2v0.01c-8.5,0.6-15.01,4.47-19.65,11.6v-9.82H395.9v64.21h17.75V152.1c-0.34-3.96,0.79-7.46,3.34-10.5
			c2.56-3.04,5.82-4.74,9.76-5.1h0.64c8.61,0,10.85,7.66,10.85,15.4v35.43h17.79v-39.81C456.49,144.24,456.25,141,455.32,137.82z"/>
	</g>
	<g>
		<path class="st0" d="M407.94,103.02c0.5-0.04,0.73-0.31,0.68-0.8h-0.16c0-0.57-0.52-0.8-1.02-0.8h-0.96v2.79h0.63v-1.16h0.33
			l0.64,1.16h0.6L407.94,103.02z M407.37,102.64l-0.38-0.03v-0.77h0.45c0.25,0,0.54,0,0.54,0.38
			C407.98,102.61,407.66,102.64,407.37,102.64z M409.14,101.07c-0.46-0.47-1.04-0.7-1.7-0.7c-0.67,0-1.23,0.25-1.69,0.72
			c-0.47,0.47-0.69,1.04-0.68,1.7c0,0.66,0.24,1.22,0.72,1.68c0.46,0.47,1.04,0.7,1.69,0.7c0.66,0,1.22-0.24,1.69-0.71
			c0.48-0.47,0.7-1.03,0.7-1.69C409.86,102.1,409.62,101.54,409.14,101.07z M407.44,104.81c-1.37,0-2.05-0.67-2.05-2.04
			s0.68-2.05,2.05-2.05c1.36,0,2.04,0.68,2.04,2.05C409.48,104.13,408.8,104.81,407.44,104.81z M408.62,102.22h-0.16
			c0-0.57-0.52-0.8-1.02-0.8h-0.96v2.79h0.63v-1.16h0.33l0.64,1.16h0.6l-0.74-1.19C408.44,102.98,408.67,102.71,408.62,102.22z
			 M407.37,102.64l-0.38-0.03v-0.77h0.45c0.25,0,0.54,0,0.54,0.38C407.98,102.61,407.66,102.64,407.37,102.64z M407.94,103.02
			c0.5-0.04,0.73-0.31,0.68-0.8h-0.16c0-0.57-0.52-0.8-1.02-0.8h-0.96v2.79h0.63v-1.16h0.33l0.64,1.16h0.6L407.94,103.02z
			 M407.37,102.64l-0.38-0.03v-0.77h0.45c0.25,0,0.54,0,0.54,0.38C407.98,102.61,407.66,102.64,407.37,102.64z"/>
		<path class="st0" d="M243.75,71.88v32.84h8.2V71.88H243.75z M278.37,70.92c-2.1-0.02-4.07,0.52-5.87,1.62
			c-1.83,1.13-3.23,2.66-4.18,4.59v-5.25h-7.92v32.84h8.2V86.67c-0.23-2.22,0.35-4.19,1.75-5.92s3.21-2.71,5.43-2.95h0.54
			c5.28,0,6.15,4.87,6.15,8.77v18.15h8.2V84.2C290.67,77.51,286.95,70.92,278.37,70.92z M349.06,71.88l0.37,18.05
			c0.25,2.2-0.32,4.17-1.71,5.91c-1.4,1.73-3.18,2.71-5.4,2.96h-0.54c-5.28,0-6.15-4.87-6.15-8.78V71.88h-8.61V92.4
			c0,6.69,3.55,13.28,12.11,13.28c2.18,0.06,4.2-0.47,6.06-1.59c1.87-1.12,3.28-2.67,4.24-4.62v5.25h7.83V71.88H349.06z
			 M366.06,71.88v32.84h8.2V71.88H366.06z M294.99,71.88v7.23h9.23v25.61h8.19V79.11h9.23v-7.23H294.99z M311.82,59.12
			c-0.97-0.97-2.13-1.45-3.5-1.45c-1.38,0-2.55,0.48-3.51,1.45c-0.97,0.97-1.46,2.14-1.46,3.51c-0.01,1.33,0.45,2.48,1.38,3.45
			c0.92,0.96,2.06,1.46,3.39,1.51h0.2c1.36,0,2.53-0.48,3.5-1.45c0.97-0.97,1.46-2.14,1.46-3.51
			C313.28,61.26,312.79,60.09,311.82,59.12z M379.99,71.88v7.26h9.22v25.61h8.27V79.14h9.21v-7.26H379.99z M396.69,59.12
			c-0.96-0.97-2.14-1.45-3.51-1.45c-1.36,0-2.54,0.48-3.51,1.45c-0.96,0.97-1.45,2.14-1.44,3.51c0,1.35,0.48,2.52,1.44,3.48
			c0.96,0.97,2.12,1.46,3.48,1.48h0.03c1.37,0,2.55-0.48,3.51-1.45c0.97-0.97,1.46-2.14,1.46-3.51
			C398.15,61.26,397.66,60.09,396.69,59.12z"/>
	</g>
	<g id="Icon-5-2">
		<path class="st0" d="M114.1,138.12c0-15,14.99-36.56,27.18-50.62v77.81l-3.75-2.81C118.78,151.25,114.1,147.5,114.1,138.12z"/>
		<path class="st0" d="M142.22,50c-41.42,0-75,33.58-75,75s33.58,75,75,75c41.42,0,75-33.58,75-75S183.64,50,142.22,50z
			 M142.22,179.37c-23.44-15.94-38.44-21.56-38.44-41.25c0-27.18,33.75-62.81,38.44-67.5c4.69,4.69,38.44,40.32,38.43,67.5
			C180.65,156.87,165.66,163.43,142.22,179.37z"/>
	</g>
</g>
</svg>
