<svg class="logo__svg" height="85" preserveAspectRatio="xMinYMin meet" width="170" xmlns="http://www.w3.org/2000/svg"><g fill="#525252"><path d="M50.56 24.06v.28s.71.06 1.11.25c.44.2.54.72.56 1.56.02.64.02 1.53.02 2.12 0 .5-.02 1.59-.04 2.05-.02.54-.04 1.2-.45 1.53-.28.22-1.26.32-1.26.32v.28h5.06v-.28s-1.04-.14-1.3-.32c-.39-.28-.41-.92-.43-1.48-.02-.48-.02-1.45-.02-2.09 0-.68 0-1.6.04-2.08l.02-.26c.04-.6.08-1 .41-1.25.31-.24 1.28-.34 1.28-.34v-.28l-5-.01zM58.36 26.08c0 1.51 1.08 2.05 2.13 2.57l.48.25.22.12c.78.41 1.23.65 1.23 1.5 0 1.06-.9 1.54-1.78 1.54-1.02 0-1.55-.59-1.73-.84-.27-.4-.51-.95-.63-1.48l-.3.04.19 2.65h.25s.21-.35.23-.38c.1.06.9.51 2.02.51 1.98 0 3.36-1.07 3.36-2.6 0-1.42-1.12-1.96-2.2-2.49l-.62-.31c-.72-.38-1.34-.71-1.34-1.47 0-.96.77-1.3 1.42-1.3.51 0 1.06.09 1.52.65.32.38.4.88.5 1.25l.3-.02-.1-2.28h-.24l-.01.01c0 .01-.08.2-.29.18-.09-.01-.22-.05-.36-.09-.33-.09-.77-.22-1.48-.22-1.57.03-2.77.96-2.77 2.21M12.03 40.85c0 1.51 1.08 2.05 2.13 2.57l.48.25.22.12c.78.41 1.23.65 1.23 1.5 0 1.07-.9 1.54-1.78 1.54-1.02 0-1.55-.59-1.73-.84-.28-.4-.51-.95-.63-1.48l-.3.04.19 2.65h.25s.21-.35.23-.38c.1.06.9.51 2.02.51 1.98 0 3.36-1.07 3.36-2.59 0-1.42-1.12-1.96-2.2-2.49l-.62-.31c-.72-.38-1.34-.71-1.34-1.47 0-.96.76-1.3 1.42-1.3.51 0 1.06.09 1.52.65.32.38.4.88.5 1.25l.3-.02-.1-2.28h-.24l-.01.01c0 .01-.08.2-.29.18-.09-.01-.22-.05-.36-.09-.33-.09-.77-.22-1.48-.22-1.57.02-2.77.96-2.77 2.2M77.46 55.63c0 1.51 1.08 2.05 2.13 2.57l.48.25.22.11c.78.41 1.23.65 1.23 1.5 0 1.06-.9 1.54-1.78 1.54-1.02 0-1.55-.59-1.73-.84-.28-.4-.51-.95-.63-1.48l-.3.04.19 2.65h.25s.21-.35.23-.38c.1.06.9.51 2.02.51 1.98 0 3.36-1.07 3.36-2.6 0-1.42-1.12-1.96-2.2-2.49l-.62-.31c-.72-.38-1.34-.71-1.34-1.47 0-.96.77-1.3 1.42-1.3.51 0 1.06.09 1.52.65.31.38.4.88.49 1.25l.3-.02-.1-2.28h-.24l-.01.01c0 .01-.08.2-.29.18-.09-.01-.22-.05-.36-.09-.33-.09-.77-.22-1.48-.22-1.56.03-2.76.97-2.76 2.22M82.1 27.85v-.02c1.67-.47 2.05-1.34 2.04-1.98-.02-1.18-1.2-1.84-3.3-1.84l-4.12.02v.28c.02 0 .93.12 1.2.32.14.1.37.28.41 1.19.02.46.04 1.84.04 2.33v.36c0 .59.01 1.2-.06 2.12-.07.85-.26 1.1-.48 1.22-.39.22-1.1.29-1.23.29v.28h2.56l2.18.04c1.65 0 3.43-.76 3.43-2.41.01-1.22-.99-2.02-2.67-2.2zM81.29 32c-.75 0-1.27-.4-1.34-1.13-.04-.4-.04-.88-.04-1.46v-1.32c0-2.11.07-3.44.08-3.61.61 0 2.42.02 2.42 1.78 0 1.29-1.1 1.61-2.05 1.66v.33c1.65 0 2.62.71 2.62 1.9 0 1.53-.92 1.85-1.69 1.85zM93.46 23.8c-.11.16-.21.25-.96.25h-3.3l-2.43-.02v.28c.61.08 1.02.21 1.22.38.37.28.39.86.41 1.43.02.64.02 1.31.02 1.9s0 1.69-.02 2.33c-.02.53-.04 1.03-.28 1.3-.18.24-.61.38-1.35.48v.28h6.97c.39-1.08.69-2.86.69-2.87l-.26-.04c-.24.75-.49 1.32-1 1.79-.48.44-1.22.6-1.75.6-.71 0-1.04-.12-1.23-.44-.14-.25-.15-.64-.16-1.08l-.01-.26c-.02-.33-.02-1.54-.02-1.65h1.18c.5 0 .84.07.97.2.28.22.36.82.4 1.11h.26v-3.03h-.26c-.07.32-.19.82-.37.94-.17.11-.54.13-.9.15 0 0-1.03.03-1.27.02l.04-3.25c.65 0 1.16 0 1.44.02.7.04 1.13.17 1.41.41.35.29.43.86.47 1.21h.28l.04-2.44h-.23zM90.11 57.39s-1.03.03-1.27.02l.04-3.25c.65 0 1.16 0 1.44.02.7.04 1.13.18 1.41.41.35.29.43.86.47 1.21h.28l.04-2.45h-.22c-.11.16-.21.25-.96.25h-3.3l-2.43-.02v.28c.61.08 1.02.21 1.22.38.37.28.39.86.41 1.43.02.64.02 1.31.02 1.9s0 1.69-.02 2.33c-.02.53-.04 1.03-.28 1.3-.18.23-.61.38-1.35.49v.28h6.98c.39-1.08.69-2.85.69-2.87l-.26-.04c-.24.75-.49 1.32-1.01 1.79-.48.44-1.22.6-1.75.6-.71 0-1.04-.12-1.23-.44-.14-.25-.15-.63-.16-1.08l-.01-.26c-.02-.32-.02-1.52-.02-1.63h1.17c.5 0 .84.07.97.2.28.22.36.82.4 1.12h.26V56.3h-.26c-.07.32-.19.82-.38.94-.16.12-.53.14-.89.15M96.07 24.02v.28c.02 0 .83.14 1.11.3.49.31.5.81.52 1.45v.06c.02.49.02 1.24.02 1.9 0 .58 0 1.67-.02 2.31-.02.71-.1 1.07-.32 1.32-.34.4-1.55.48-1.56.49v.28h7.22l.01-.01c.41-1.1.79-2.99.79-3.03l-.26-.09c-.23.76-.69 1.61-1.06 1.99-.38.4-.92.6-1.58.6-.93 0-1.27-.16-1.5-.34-.14-.14-.14-2.6-.14-3.52 0-.64 0-1.2.04-1.86l.01-.12c.03-.66.05-1.09.42-1.39.29-.24 1.25-.34 1.28-.34v-.28h-4.98zM119.6 31.85c-.32-.2-.53-.48-1.02-1.64-.45-1.03-2.2-5.51-2.2-5.51.15-.31.86-.39.87-.39v-.28h-3.77v.28c.27.02.91-.05 1.26.54 0 0-1.63 3.99-2.19 5.24-.26.58-.48.99-.67 1.27-.41.31-.95.42-1.83.48-1.07.07-2.03-.37-2.03-.37-.06-.58-.11-2.52-.11-3.45 0-.65.01-1.19.04-1.86l.01-.15c.04-.77-.02-1.05.4-1.38.29-.24 1.03-.31 1.1-.31v-.28h-4.48v.28c.02 0 .58.1.86.27.49.3.46.85.48 1.49v.06c.02.49.02 1.24.02 1.9 0 .58 0 1.67-.02 2.31-.02.71-.11 1.13-.32 1.38-.33.4-1.26.43-1.27.43v.28h8.1s.03-.27.13-.8c.07-.36.24-.95.32-1.22.08-.28.25-.77.43-1.26h2.84c.04.07.34.83.52 1.36.13.39.19.6.19.93 0 .62-.8.68-1.27.71v.29h4.51v-.32a1.92 1.92 0 01-.9-.28zm-5.65-3.39l1.13-3.02h.05l1.18 3.02h-2.36zM41.14 38.8v.28l.15.02c.36.04.85.1.85.66 0 .2-.05.58-.28 1.27-.31.92-1.38 3.51-1.53 3.88-.14-.35-1.14-2.81-1.54-3.93-.22-.63-.26-.96-.26-1.12 0-.61.73-.7 1.12-.75l.17-.02v-.29h-4.55v.28c.76.1 1.22.15 1.65 1.25-.36.91-1.71 3.95-1.9 4.38-.66-1.79-1.09-2.99-1.33-3.75-.19-.6-.26-.93-.27-1.17-.01-.54.55-.64.88-.69l.11-.02v-.28h-4.48v.28c.01 0 .78.07 1.17.32.26.19.48.41.98 1.7.27.7 1.37 3.86 1.84 5.36l.23.77.54-.04c.95-2.49 1.8-4.38 2.3-5.5 0 0 .22-.5.25-.58.03.07.18.47.18.47.49 1.24 1.39 3.54 1.83 4.86l.25.79.52-.04c.36-.87 2.22-5.26 2.62-6.16.44-.98.71-1.46 1.15-1.69.46-.24 1.06-.26 1.09-.26v-.28h-3.74zM65.23 46.9c-.24-.02-.87-.08-1.49-.37-.57-.26-1.18-.67-1.55-1.07-1.13-1.25-1.49-2.27-1.57-2.44.78-.31 1.68-.92 1.68-2.06 0-1.4-1.38-2.2-3.77-2.2-1.1 0-3.74.04-3.74.04v.28c.02 0 .74.06 1.17.32.21.13.43.34.48 1.25.04.58.04 1.62.04 2.46 0 .62-.02 1.47-.04 2.03-.04 1.05-.14 1.22-.43 1.43-.31.24-1.17.34-1.2.34v.28h4.91v-.28c-.02 0-.81-.1-1.15-.28-.47-.26-.53-.98-.54-1.37-.05-.82-.03-1.38-.03-1.46.03-.01 1.23-.29 1.26-.29.01.03.08.18.08.18.19.47.51 1.23 1.01 1.91.78 1.07 1.96 1.66 3.52 1.66.4 0 1.22-.05 1.44-.08v-.28h-.08zm-6.09-3.8l-1.13-.12v-3.71c1.67.01 2.56.64 2.56 1.88-.01 1.11-.75 1.79-1.43 1.95zM64.82 40.88l.28.07c.03-.05.22-.58.46-.92.24-.31.63-.46 1.2-.48.95-.03 1.69-.04 1.78-.04l.04 3.12c0 .65 0 1.39-.02 2.2-.04 1.31-.17 1.6-.5 1.79-.35.19-1.19.28-1.22.28v.28h5.05v-.28c-.03 0-.9-.12-1.18-.28-.36-.22-.5-.44-.52-1.75l-.02-2.28c0-.75.04-2.89.04-3.08.1 0 .9 0 1.76.04 1.15.04 1.15.24 1.15.66 0 .22-.08.78-.08.79l.26.04.77-2.56-.24-.04c-.26.43-.62.44-1.57.45l-.87.02-1.67.02-1.81-.02-.96-.02c-1.06-.01-1.13-.24-1.17-.39l-.01-.06-.24-.02-.71 2.46zM76.84 42.39c0 3.67 3.23 5.49 6.53 5.51 1.56.01 2.4-.19 3.11-.32.47-.09 1.54-.31 1.99-.39v-.31s-.72-.05-.76-.05c0-.09-.02-.6-.02-1.23v-1.25c.04-1.05.51-1.12 1.07-1.19l.19-.03v-.35h-5.24v.35c.01 0 .72.03 1.23.19.53.17.8.39.84 1.13.02.21.04.61.04 1.02 0 .44-.04 1.04-.08 1.61-.27.1-.98.19-1.44.19-3.75 0-5.06-2.85-5.06-5.06 0-3.27 2.18-4.8 4.31-4.8 1.33 0 2.24.32 2.78.98.57.69.69 2 .7 2.06h.33l.22-3.44h-.27s-.14.26-.36.23c-.18-.02-.36-.07-.62-.13-.56-.13-1.46-.34-2.92-.34-3.77 0-6.57 2.46-6.57 5.62M128.57 38.8v.28c.01 0 .65.06 1.09.26.36.17.49.47.54 1.56.06 1.39.11 3.61.11 3.95-.33-.33-3.24-3.26-5.19-5.43.07-.34.71-.35.74-.35v-.27h-4.23v.28l.17.03c.61.1 1.04.16 1.83 1.08 0 .02-.06 3.72-.1 4.71-.04 1.05-.12 1.54-.5 1.73-.39.21-1.12.29-1.15.29v.28h4.06v-.28c-.02 0-.7-.06-1.22-.3-.34-.16-.4-.61-.42-1.98-.02-1.05-.02-3.65-.02-3.79 0 0 .01 0 .01-.01 1.73 1.85 6.21 6.56 6.21 6.56l.5-.06-.04-1.37c0-2.22 0-3.97.04-5.02.04-1.26.18-1.45.56-1.64.41-.2.98-.23 1-.23v-.28h-3.99zM58.83 53.58v.28c.03 0 1.12.07 1.19.66-.75 1.52-1.55 2.91-2.24 4.14 0 0-.47.82-.5.89-.49-1.13-1.18-2.53-1.69-3.56-.39-.79-.7-1.42-.74-1.55v-.01c0-.49 1.09-.57 1.12-.57v-.28H51.7v.28c.85.12 1.2.34 1.58 1.04-.06.68-.49 3.89-.59 4.51-.16 1.06-.37 1.77-.86 2.02-.33.17-1.03.26-1.04.26h-.02v.28h4.08v-.26c-.06 0-.76-.1-1.03-.26-.33-.19-.45-.24-.45-.9 0-1.38.41-4.64.43-4.83h.01c.12.35.48 1.09.9 1.95.48.98 1.03 2.1 1.42 3.04.21.46.51 1.28.52 1.31h.24c0-.01.29-.88.74-1.74.44-.83.88-1.62 1.28-2.31.56-1 1.04-1.85 1.29-2.45h.02c.01.68.08 1.55.15 2.39.08.89.15 1.74.15 2.35 0 .61-.04.8-.37 1.11-.31.29-1.24.34-1.29.34v.28h5.03v-.28c-.53-.08-.75-.14-.9-.19-.39-.12-.69-.23-.86-1.66-.13-1.08-.36-3.7-.36-4.64 0-.86.2-1.08.56-1.19.35-.12.75-.15.75-.15v-.28h-4.25v-.02zM114.65 53.58v.28c.03 0 1.12.07 1.2.66-.75 1.52-1.55 2.91-2.25 4.14l-.5.89c-.49-1.13-1.18-2.53-1.69-3.56-.39-.79-.7-1.42-.74-1.55v-.01c0-.49 1.09-.57 1.12-.57v-.28h-4.27v.28c.85.12 1.19.34 1.58 1.04-.06.68-.49 3.89-.59 4.51-.16 1.06-.36 1.77-.86 2.02-.34.17-1.03.26-1.04.26h-.02v.28h4.08v-.26c-.06 0-.76-.1-1.03-.26-.33-.19-.45-.24-.45-.9 0-1.38.41-4.64.43-4.83h.01c.12.35.48 1.09.9 1.95.48.98 1.02 2.1 1.42 3.04.2.46.51 1.28.52 1.31h.24c0-.01.29-.88.74-1.74.44-.83.88-1.62 1.28-2.31.56-1 1.04-1.85 1.29-2.45h.02c.01.68.08 1.55.15 2.39.08.89.15 1.74.15 2.35 0 .61-.04.8-.37 1.11-.31.29-1.24.34-1.3.34v.28h5.03v-.28c-.53-.08-.75-.14-.9-.19-.38-.12-.69-.23-.86-1.66-.13-1.08-.36-3.7-.36-4.64 0-.86.2-1.08.56-1.19.35-.12.75-.15.75-.15v-.28h-4.24v-.02zM71.48 53.58v.28c.02 0 .67.04 1.02.17.65.25.8.62.84 2v1.9c0 1.07.01 2.09-.62 2.76-.37.39-1.02.63-1.65.63-2.87 0-2.88-1.82-2.9-3.03v-.04c-.02-.34-.02-.93-.02-1.5l.01-.95.01-.39c.04-.69.09-1.04.43-1.24.37-.24 1.24-.32 1.28-.32v-.28H64.9v.28c.03 0 .76.08 1.13.3.25.14.41.37.44 1.09.05.79.04 1.97.04 3.02v.75c0 1.41.67 3.14 3.87 3.14 3.17 0 3.66-2.16 3.66-3.46 0-1.04.02-2.3.04-2.78l.01-.22c.03-.82.05-1.28.44-1.55.39-.26 1.13-.3 1.15-.3v-.28h-4.2v.02zM158.55 45.19c-.68.79-1.38 1.38-2.94 1.3-.93-.05-1.65-.34-2.64-.86-1.19-.65-3.27-2.3-3.75-2.67.74-.32 1.56-.91 1.56-2 0-1.4-1.38-2.2-3.78-2.2-1.11 0-3.69.04-3.72.04h-.02v.28h.02c.01 0 .72.06 1.15.32.21.13.43.34.48 1.25.04.58.04 1.62.04 2.46 0 .64-.02 1.5-.04 2.03-.04 1.05-.14 1.22-.43 1.43-.31.24-1.17.34-1.18.34h-.02v.28h4.91v-.28h-.02c-.01 0-.8-.1-1.13-.28-.47-.26-.53-1-.55-1.4-.04-.79-.03-1.35-.03-1.43.03-.01 1.15-.27 1.17-.27 1 .83 2.6 2.06 3.72 2.82.45.31 1.66 1.04 3.06 1.12 2.29.12 3.47-.99 4.34-2.09l-.2-.19zm-10.94-2.09s-1.04-.17-1.13-.18v-3.65c1.67.01 2.55.62 2.55 1.88.01 1.11-.74 1.79-1.42 1.95zM19.1 40.88l.28.06.01-.02c0-.01.21-.57.45-.9.24-.31.63-.46 1.2-.48.95-.03 1.68-.04 1.78-.04l.04 3.12c0 .65 0 1.39-.02 2.2-.04 1.29-.16 1.6-.5 1.79-.35.18-1.18.28-1.23.29v.28h7.12c.39-1.08.67-2.72.69-2.88l-.26-.04c-.23.73-.5 1.33-1.01 1.79-.48.44-1.22.6-1.75.6-.71 0-1.04-.12-1.23-.44-.14-.25-.15-.63-.16-1.08l-.01-.26c-.02-.32-.02-1.53-.02-1.63h1.18c.5 0 .84.07.97.2.27.22.36.82.39 1.11h.27v-3.03h-.26c-.08.3-.18.8-.38.94-.17.11-.52.13-.9.15 0 0-1.16.02-1.27.02l.04-3.12c.65 0 1.16 0 1.44.02.69.04 1.2.01 1.49.28.38.35.36.81.38 1.01h.26l.01-2.36h-.26s-.15.37-.69.39c-.81.03-2.33.06-3.28.08l-1.75-.02-.91-.02c-1.1-.03-1.12-.22-1.18-.45l-.24-.02-.69 2.46zM75.55 32.41v-.28c-.22-.01-.7-.06-1.03-.28-.32-.21-.53-.48-1.02-1.65-.45-1.03-2.18-5.49-2.18-5.49.19-.37.94-.41.94-.41v-.28H68.2v.28c.15.01 1.04-.05 1.38.54 0 0-1.63 3.96-2.19 5.21-.39.86-.72 1.41-1 1.67-.36.34-.81.4-1.17.41v.28h3.91v-.28c-.41-.01-1.23-.04-1.23-.75 0-.29.13-.71.21-.99.08-.28.25-.77.43-1.26h2.84c.03.07.34.83.52 1.36.13.39.19.6.19.93 0 .63-.88.68-1.35.71v.28h4.81zm-6.76-3.95l1.13-3.02h.05l1.18 3.02h-2.36zM115.11 38.78l-4.16.02v.28c.02 0 .8.06 1.23.32l.02.01c.15.09.35.21.41 1.23.04.52.06 1.52.06 2.2 0 .79-.02 1.91-.08 2.46v.01c-.07.71-.12 1.06-.46 1.29-.27.17-.71.24-1.06.27-.38.02-1.12-.04-1.72-.32-.59-.29-1.15-.68-1.51-1.08-1.13-1.21-1.48-2.28-1.56-2.45.78-.31 1.68-.92 1.68-2.06 0-1.4-1.38-2.2-3.77-2.2-1.11 0-3.74.04-3.74.04v.28c.02 0 .74.06 1.17.32.21.13.43.34.48 1.25.04.58.04 1.62.04 2.46 0 .62-.02 1.47-.04 2.03-.04 1.05-.14 1.22-.43 1.43-.32.24-1.17.34-1.2.34v.28h4.91v-.28c-.02 0-.81-.1-1.15-.28-.47-.26-.53-.98-.54-1.37-.05-.81-.03-1.37-.03-1.45.03-.01 1.23-.29 1.26-.29.01.03.08.19.08.19.19.47.49 1.17.98 1.89.8 1.1 1.99 1.63 3.54 1.63.38 0 1.68-.01 2.14-.03l1.62-.01c.43 0 .88.02 1.33.05.41.02.8.04 1.13.04 2.91 0 5.1-1.86 5.1-4.32 0-3.09-3.09-4.18-5.73-4.18zm-10.32 4.32l-1.13-.12v-3.71c1.67.01 2.56.64 2.56 1.88-.01 1.11-.75 1.79-1.43 1.95zm13.11 2.96c-.52.46-1.34.75-2.13.75-.67 0-1.48-.2-1.52-1.13-.02-.64-.04-1.73-.04-2.9 0-1.06.05-3.32.06-3.52 1.16 0 1.95.05 2.98.77 1.07.74 1.72 1.89 1.72 3.07.01.93-.12 2.1-1.07 2.96zM140.7 38.57c-.11.16-.21.24-.96.24h-3.3l-2.43-.02v.28c.61.08 1.02.21 1.22.38.37.28.39.87.41 1.43.02.64.02 1.31.02 1.9 0 .59 0 1.69-.02 2.33-.02.53-.04 1.02-.28 1.3-.18.24-.61.38-1.35.48v.28h6.98c.39-1.08.68-2.85.69-2.87l-.26-.04c-.24.75-.5 1.33-1.01 1.79-.48.44-1.22.6-1.75.6-.71 0-1.04-.12-1.24-.44-.14-.25-.15-.63-.16-1.08l-.01-.26c-.02-.32-.02-1.53-.02-1.63h1.18c.5 0 .84.07.97.2.27.22.36.82.4 1.12h.26v-3.03h-.26c-.07.32-.2.82-.38.94-.17.11-.54.13-.9.15 0 0-1.03.03-1.27.02l.04-3.25c.65 0 1.16 0 1.44.02.7.04 1.13.18 1.41.41.35.29.43.86.47 1.21h.28l.04-2.45h-.21v-.01zM101.68 53.58v.28c.02 0 .67.04 1.02.17.65.25.81.62.84 2v1.9c0 1.07.01 2.09-.62 2.76-.37.39-1.02.63-1.65.63-2.87 0-2.88-1.82-2.9-3.03v-.04c-.02-.34-.02-.93-.02-1.5l.01-.95.01-.39c.04-.69.09-1.04.43-1.24.37-.24 1.24-.32 1.28-.32v-.28H95.1v.28c.03 0 .76.08 1.13.3.25.14.41.37.45 1.09.04.79.04 1.97.04 3.02v.75c0 1.41.67 3.14 3.87 3.14 3.17 0 3.66-2.16 3.66-3.46 0-1.04.02-2.3.04-2.78l.01-.22c.03-.82.05-1.28.44-1.55.39-.26 1.13-.3 1.15-.3v-.28h-4.21v.02zM53.03 46.63c-.32-.21-.53-.48-1.02-1.65-.45-1.03-2.18-5.49-2.18-5.49.19-.37.94-.42.94-.41v-.28h-4.06v.28c.15.01 1.04-.05 1.38.54 0 0-1.63 3.96-2.19 5.21-.39.86-.72 1.41-1 1.67-.36.34-.81.4-1.16.41v.28h3.91v-.28c-.41-.01-1.23-.04-1.23-.75 0-.29.13-.72.21-.99.08-.28.25-.76.43-1.26h2.84c.04.07.34.83.52 1.36.13.39.19.6.19.94 0 .62-.88.68-1.35.71v.28h4.8v-.29c-.22-.01-.7-.06-1.03-.28zm-5.73-3.39l1.13-3.02h.05l1.18 3.02H47.3zM98.68 46.63c-.32-.21-.53-.48-1.02-1.65-.45-1.03-2.18-5.49-2.18-5.49.19-.37.94-.42.94-.41v-.28h-4.06v.28c.15.01 1.03-.05 1.38.54 0 0-1.63 3.96-2.19 5.21-.39.86-.72 1.41-1 1.67-.37.34-.81.4-1.16.41v.28h3.91v-.29c-.41-.01-1.23-.04-1.23-.75 0-.29.12-.72.21-.99.08-.28.25-.76.43-1.26h2.84c.04.07.34.83.52 1.36.13.39.19.6.19.94 0 .62-.88.68-1.35.71v.28h4.8v-.28c-.22-.01-.7-.06-1.03-.28zm-5.74-3.39l1.13-3.02h.05l1.18 3.02h-2.36z"/></g></svg>