<?xml version="1.0" encoding="UTF-8"?>
<svg viewBox="0 0 201 102" version="1.1" xmlns="http://www.w3.org/2000/svg" xmlns:xlink="http://www.w3.org/1999/xlink">
  <path fill="#525252" d="M98.2,48.2 C113,48.2 125,60.2 124.9,74.9 C124.9,89.5 112.9,101.5 98.3,101.6 C83.4,101.6 71.5,89.8 71.5,75 C71.5,60.1 83.3,48.2 98.2,48.2 Z M84.6,56 C85.5,56.3 86.4,56.5 87.3,56.8 C87.6,56.9 87.9,56.9 88.1,56.7 C88.4,56.4 88.1,56.2 88,55.9 C87.5,55.1 86.9,54.2 86.3,53.4 C86.1,53.2 86,52.8 85.6,53.1 C85.2,53.4 85.5,53.6 85.6,53.8 C85.9,54.4 86.3,54.9 86.8,55.7 C85.6,55.3 84.6,55.1 83.7,54.8 C83.3,54.7 83,54.7 82.8,55 C82.5,55.4 82.8,55.6 83,55.9 C83.5,56.7 84,57.4 84.5,58.2 C84.7,58.4 84.8,58.9 85.2,58.6 C85.5,58.4 85.3,58.1 85.2,57.9 C84.9,57.4 84.6,56.9 84.3,56.4 C84.5,56.2 84.6,56.1 84.6,56 Z M120.3,70.1 C120.2,70 120.1,69.9 120,69.8 C120.5,69 121,68.3 121.5,67.5 C121.7,67.2 121.8,66.9 121.6,66.6 C121.4,66.3 121.1,66.5 120.8,66.5 C119.9,66.7 119,67 118,67.2 C117.7,67.3 117.4,67.3 117.5,67.7 C117.6,68.2 118,68 118.3,67.9 C118.9,67.8 119.5,67.4 120.3,67.6 C119.7,68.4 119.2,69.2 118.7,69.9 C118.5,70.2 118.1,70.6 118.4,71 C118.7,71.5 119.1,71.1 119.4,71 C120.3,70.8 121.1,70.6 121.9,70.3 C122.2,70.2 122.5,70.2 122.4,69.8 C122.3,69.4 122,69.5 121.7,69.5 C121.3,69.8 120.8,69.9 120.3,70.1 Z M104.5,76.2 C104.5,78 104.5,79.5 104.5,81 C105.7,80.6 105.7,80.6 107.4,81.1 C109.8,81.8 112.3,80.6 113.2,78.3 C114.1,76 113.4,74 111,72.7 C110.2,72.3 109.4,71.9 108.6,71.4 C107.9,71 107.5,70.3 107.9,69.5 C108.2,68.7 108.9,68.3 109.8,68.4 C110.6,68.5 111.3,68.9 111.9,69.4 C112.3,69.7 112.6,70.1 113.2,70.8 C113.2,69.5 113.2,68.4 113.2,67.4 C113.2,67 113.1,66.8 112.7,66.9 C111.9,67 111.2,66.7 110.5,66.5 C108.1,65.9 105.7,67.1 104.9,69.3 C104.1,71.3 104.9,73.3 107.2,74.6 C107.8,75 108.5,75.3 109.1,75.7 C110.3,76.5 110.6,77.4 110.1,78.3 C109.5,79.3 108.3,79.5 107.1,78.8 C106.1,78.3 105.3,77.4 104.5,76.2 Z M115.7,74 C115.8,76.1 115.4,78.1 114.7,80 C112.1,86.9 107.1,91.1 99.8,91.9 C92.4,92.7 86.6,89.7 82.5,83.4 C82.3,83.1 82.2,82.2 81.5,82.6 C81,82.9 81.6,83.5 81.8,83.8 C85.3,89.9 90.6,93.2 97.6,93.4 C104.7,93.6 110.3,90.4 114,84.3 C116.6,80 117.2,75.3 116.1,70.4 C116,70.1 116.1,69.6 115.6,69.7 C115,69.8 115.3,70.2 115.3,70.6 C115.6,71.7 115.8,72.9 115.7,74 Z M84,66.7 C84.9,67.5 84.8,68.5 84.8,69.4 C84.8,70.1 84.9,70.8 84.9,71.5 C84.9,73.4 85,75.4 84.9,77.3 C84.9,78.3 84.5,79.1 83.4,79.3 C82.9,79.4 82.5,79.2 82.1,78.9 C81.7,78.5 82.1,78.2 82.3,77.9 C82.7,76.9 82.3,76 81.4,75.6 C80.4,75.3 79.4,75.9 79.2,77 C78.8,78.6 79.8,80.2 81.6,80.9 C84.2,81.8 87,80.5 88.2,77.9 C88.3,77.7 88.3,77.6 88.2,77.5 C87.2,73.9 87.8,70.2 87.9,66.6 C86.9,66.7 85.5,66.7 84,66.7 Z M93.8,66.7 C94.7,67.5 94.7,68.5 94.7,69.4 C94.7,72.1 94.8,74.7 94.7,77.4 C94.7,78.9 93.6,79.7 92.5,79.3 C92,79.1 91.6,78.9 92,78.2 C92.5,77.5 92.4,76.8 91.9,76.1 C91.5,75.6 90.9,75.5 90.3,75.7 C89.5,76 89.1,76.6 89,77.4 C88.8,78.8 89.6,80.1 91,80.8 C93.6,82.1 97,80.7 98,77.9 C98.1,77.7 98,77.6 98,77.5 C97.1,73.9 97.5,70.3 97.8,66.6 C96.6,66.7 95.3,66.7 93.8,66.7 Z M99,56.2 C93.9,56.2 90.1,57.4 86.8,60 C82.4,63.4 80,67.9 79.5,73.5 C79.5,73.8 79.2,74.3 79.7,74.4 C80.2,74.5 80.2,73.9 80.2,73.6 C80.3,72.9 80.4,72.3 80.6,71.6 C82.5,64.3 87.1,59.6 94.4,57.9 C101.7,56.3 107.7,58.7 112.5,64.4 C112.8,64.7 113,65.4 113.5,65.1 C114,64.7 113.4,64.3 113.2,64 C109.5,58.9 104.4,56.3 99,56.2 Z M103.1,74 C102.8,73.2 101.7,73 102.6,72.2 C103.1,71.7 103.2,71.1 102.7,70.5 C102.1,69.9 101.4,69.9 100.6,70.3 C100,70.6 99.7,71.3 100,71.9 C100.3,72.5 100.1,72.8 99.8,73.3 C99,74.3 99.5,75.6 100.7,75.7 C101.9,75.8 103.1,75.5 104.4,75.5 C103.5,74.9 103.6,74.3 104.1,73.5 C104.2,73.3 104.6,72.7 103.9,72.5 C103.3,72.4 103.2,72.8 103.3,73.2 C103.3,73.3 103.2,73.5 103.1,74 Z M102.8,52.4 C103.3,53 103.1,53.7 103.2,54.3 C103.2,54.6 103.2,54.9 103.6,55 C104,55.1 104.1,54.8 104.3,54.6 C104.6,54.1 105,53.7 105.4,53.2 C105.6,53.9 105.3,54.4 105.2,54.9 C105.2,55.1 105,55.4 105.4,55.5 C105.8,55.6 105.9,55.3 106,55 C106.3,54.1 106.5,53.2 106.8,52.2 C106.9,51.9 107.1,51.5 106.6,51.3 C106.2,51.1 105.9,51.3 105.7,51.6 C105.3,52.2 104.8,52.8 104.2,53.7 C104.1,52.6 104,51.8 103.9,51.1 C103.9,50.6 103.6,50.5 103.2,50.4 C102.7,50.3 102.7,50.7 102.6,51 C102.3,51.9 102.1,52.8 101.8,53.8 C101.7,54 101.4,54.4 101.9,54.5 C102.4,54.7 102.4,54.2 102.5,53.9 C102.6,53.5 102.7,53 102.8,52.4 Z M107,96.1 C106.3,95.5 105.7,95 105.1,94.4 C104.8,94.1 104.5,94.2 104.2,94.4 C103.8,94.6 103.9,94.9 104,95.1 C104.4,96.1 104.8,97 105.2,98 C105.3,98.2 105.4,98.5 105.7,98.4 C106.1,98.3 105.9,97.9 105.8,97.7 C105.7,97.2 105.3,96.8 105.4,96 C105.9,96.6 106.3,97 106.6,97.4 C106.8,97.6 107,97.9 107.3,97.7 C107.7,97.6 107.6,97.2 107.6,97 C107.6,96.4 107.4,95.7 107.7,94.9 C108,95.6 108.2,96.1 108.5,96.7 C108.6,97 108.8,97.2 109.1,97.1 C109.4,96.9 109.3,96.7 109.2,96.5 C108.8,95.6 108.5,94.7 108.1,93.7 C108,93.4 107.9,93 107.4,93.2 C107,93.3 106.8,93.6 106.8,94 C107,94.6 107,95.3 107,96.1 Z M74,80.9 C74.1,81.7 75.1,82.5 74.9,83.8 C74.9,84.1 75.5,84 75.5,83.7 C75.6,82.9 76,83.1 76.4,83.3 C76.6,83.4 76.8,83.4 76.9,83.2 C77,82.9 77,82.8 76.7,82.6 C76.4,82.4 75.8,82.5 76.1,81.8 C76.4,81.2 76.8,81.6 77.1,81.7 C77.6,81.8 78,81.8 78.3,81.3 C78.6,80.8 78.5,80.3 78.2,79.9 C77.9,79.5 77.4,79.3 77,79.6 C76.5,79.9 76.2,79.6 75.8,79.4 C74.9,78.8 74,79.4 74,80.9 Z M89,94.6 C89.5,95.9 89.8,96.9 90.2,97.9 C90.3,98.2 90.5,98.4 90.8,98.5 C91.2,98.5 91.2,98.2 91.3,97.9 C91.7,97 92,96 92.4,95.1 C92.5,94.9 92.6,94.6 92.3,94.5 C91.9,94.3 91.8,94.5 91.7,94.8 C91.5,95.4 91.2,96 90.8,97 C90.4,95.7 90.1,94.9 89.8,94 C89.7,93.6 89.5,93.3 89.1,93.3 C88.6,93.2 88.7,93.7 88.5,94 C88.2,94.8 87.8,95.7 87.5,96.5 C87.4,96.8 87.1,97.1 87.6,97.3 C88.1,97.5 88.1,97 88.2,96.7 C88.5,96.1 88.7,95.5 89,94.6 Z M82.8,88.9 C82.8,88.7 82.7,88.5 82.7,88.2 C82.3,87.1 81.1,86.3 80.3,86.7 C79.5,87 79.5,87.8 80.2,89.2 C80.4,89.6 80.9,90.1 80.4,90.4 C79.9,90.7 79.6,90.1 79.3,89.7 C79.1,89.4 79,89.1 79.1,88.8 C79.2,88.5 79,88.2 78.7,88.2 C78.2,88.2 78.3,88.6 78.2,88.9 C78.2,89.2 78.3,89.5 78.4,89.7 C78.9,90.9 80,91.6 80.9,91.2 C81.8,90.8 81.8,90.1 81,88.6 C80.8,88.3 80.2,87.8 80.8,87.5 C81.2,87.3 81.6,87.8 81.8,88.2 C81.9,88.4 82.1,88.7 82,89 C81.9,89.4 82.1,89.6 82.4,89.6 C82.9,89.7 82.7,89.2 82.8,88.9 Z M116.3,58.4 C116.3,57.5 115.7,56.9 115,56.5 C114.5,56.2 113.9,56.1 113.4,56.6 C112.9,57.1 112.9,57.6 113.3,58.2 C113.6,58.7 113.9,59.1 114.2,59.5 C114.3,59.7 114.4,59.9 114.2,60.1 C114,60.3 113.8,60.2 113.6,60.1 C113,59.8 112.5,59.3 112.5,58.5 C112.5,58.2 112.4,58 112.1,58 C111.8,57.9 111.8,58.1 111.7,58.4 C111.4,59.6 113,61.3 114.2,61 C115,60.8 115.4,60.2 115.1,59.4 C114.9,59 114.7,58.7 114.5,58.3 C114.3,57.9 113.7,57.5 114.1,57.2 C114.5,56.9 114.9,57.5 115.2,57.9 C115.4,58.1 115.5,58.4 115.5,58.7 C115.5,59.1 115.8,59.2 116.1,59.2 C116.3,59 116.2,58.7 116.3,58.4 Z M121.7,81.9 C121.7,80.7 121.2,80.1 120.4,79.7 C119.6,79.4 118.7,79.3 118.1,80 C117.4,80.8 117.2,81.7 117.1,82.7 C117.1,82.8 117.3,82.9 117.5,83 C118.5,83.3 119.5,83.7 120.6,84 C120.9,84.1 121.2,84.1 121.3,83.7 C121.3,83.1 121.6,82.4 121.7,81.9 Z M119.9,63.3 C119.9,62 118.8,60.8 117.6,60.8 C116.4,60.8 115.2,61.9 115.2,63.1 C115.2,64.3 116.3,65.5 117.4,65.5 C118.8,65.5 119.9,64.5 119.9,63.3 Z M79.8,64.9 C79.8,63.7 78.6,62.7 77.4,62.7 C76.2,62.7 75.2,64 75.2,65.3 C75.2,66.4 76.3,67.4 77.6,67.4 C78.8,67.5 79.8,66.3 79.8,64.9 Z M116.9,84.7 C116.9,84.3 116.8,84.3 116.6,84.2 C116.3,84.1 116.2,84.3 116.1,84.4 C114.4,86.2 114.5,86.9 116.5,88.2 C116.9,88.4 117.3,88.7 117.7,88.9 C118,89.1 118.2,89.2 118.4,88.8 C118.8,88.1 119.3,87.3 119.8,86.6 C120,86.3 120,86.1 119.7,86 C119.4,85.8 119.2,86 119.1,86.2 C118.8,86.7 118.5,87.1 118.2,87.6 C118,88 117.8,88 117.4,87.8 C117,87.6 117.3,87.4 117.3,87.1 C117.4,86.5 118.6,86 117.8,85.5 C117.2,85.1 117,86.2 116.7,86.6 C116.5,86.9 116.3,87.1 115.9,86.9 C115.5,86.6 115.8,86.4 115.9,86.2 C116.3,85.6 116.6,85.1 116.9,84.7 Z M84.5,90.6 C83.3,90.6 82.3,91.8 82.3,93 C82.3,94.1 83.6,95.2 84.7,95.3 C85.8,95.3 87,94.1 87,92.9 C87,91.7 85.7,90.6 84.5,90.6 Z M112.2,54.6 C112.3,54.4 112.1,54.3 112,54.2 C111.2,53.7 110.4,53 109.5,52.9 C108.8,52.8 108.6,54.1 108.2,54.7 C107.9,55.1 107.7,55.5 107.5,55.9 C107.3,56.2 107.3,56.5 107.7,56.7 C108.4,57.1 109.1,57.5 109.8,58 C110,58.2 110.3,58.2 110.4,57.9 C110.6,57.6 110.5,57.4 110.2,57.3 C109.8,57.1 109.3,56.8 108.9,56.5 C108.6,56.3 108.2,56.1 108.5,55.6 C108.8,55.2 109,55.4 109.3,55.6 C109.6,55.8 109.9,55.9 110.2,56.1 C110.5,56.3 110.7,56.4 110.9,56 C111.1,55.6 110.8,55.5 110.6,55.3 C110.3,55.1 110,55 109.7,54.8 C109.4,54.6 109.1,54.5 109.4,54.1 C109.7,53.7 109.9,53.9 110.1,54.1 C110.6,54.4 111,54.6 111.5,54.9 C111.9,55.1 112.1,54.8 112.2,54.6 Z M78.5,59.6 C78.4,59.7 78.3,59.8 78.2,59.9 C78,60.2 78.2,60.3 78.4,60.5 C79.1,61.1 79.8,61.7 80.5,62.3 C80.8,62.5 81,63.1 81.5,62.7 C82,62.2 81.3,62 81.1,61.8 C80.9,61.5 80.3,61.4 80.7,60.9 C81.1,60.5 81.4,59.9 81.9,59.6 C82.4,59.3 82.6,60 83,60.2 C83.3,60.4 83.5,60.5 83.7,60.2 C83.9,59.9 83.7,59.7 83.5,59.6 C82.7,58.9 81.9,58.2 81.2,57.6 C81,57.4 80.8,57.2 80.5,57.5 C80.1,57.9 80.4,58.1 80.7,58.3 C81.5,58.8 81.3,59.2 80.7,59.8 C80.1,60.4 79.7,61 78.9,60 C78.8,59.7 78.6,59.7 78.5,59.6 Z M95.8,54.1 C96.2,54.2 96.5,54.3 96.7,54 C97.6,53 98.6,52.9 99.4,53.9 C99.6,54.2 99.9,54.2 100.1,54.1 C100.4,53.9 100.2,53.7 100.1,53.5 C99.7,52.5 99.2,51.5 98.8,50.6 C98.6,50.2 98.5,50 98,50 C97.6,50 97.5,50.3 97.3,50.6 C96.8,51.8 96.3,52.9 95.8,54.1 Z M98.2,99.5 C98.8,99.5 99.3,99.5 99.7,99.5 C100,99.5 100.3,99.4 100.2,99 C100.2,98.7 99.9,98.7 99.7,98.6 C99,98.5 98,99 97.6,98.4 C97.2,97.8 97.5,96.9 97.5,96.1 C97.5,96 97.5,95.9 97.5,95.7 C97.5,95.4 97.5,95.2 97.1,95.2 C96.8,95.2 96.7,95.4 96.7,95.7 C96.7,96.4 96.8,97.2 96.7,97.9 C96.6,99.3 97,99.9 98.2,99.5 Z M115.7,92 C115.1,91.5 114.6,90.9 114.1,90.4 C113.5,89.9 113.2,89.4 114,88.9 C114.2,88.7 114.5,88.5 114.2,88.2 C113.8,87.8 113.6,88.2 113.4,88.4 C112.7,89 112.1,89.7 111.5,90.3 C111.3,90.5 110.9,90.7 111.3,91.1 C111.7,91.5 111.9,91.1 112.1,90.9 C112.6,90.2 113,90.4 113.5,91 C113.9,91.5 114.4,91.9 114.9,92.4 C115.1,92.6 115.3,92.8 115.5,92.5 C115.5,92.3 115.5,92.2 115.7,92 Z M77.9,70.6 C77.9,70.1 77.8,69.7 77.4,69.4 C76.4,68.9 75.4,68.8 74.3,68.6 C74.1,68.6 73.9,68.7 73.9,68.9 C73.9,69.2 74,69.3 74.3,69.4 C74.9,69.5 75.4,69.7 76,69.8 C76.9,70 77.4,70.4 77,71.3 C76.9,71.5 76.7,71.8 77.1,71.9 C77.4,72 77.7,71.9 77.8,71.6 C77.8,71.3 77.8,70.9 77.9,70.6 Z M94.5,53.1 C94.4,52.8 94.4,52.3 94.2,51.9 C94,51.4 94.3,50.3 93.5,50.5 C92.7,50.7 93.3,51.5 93.4,52.1 C93.6,53.1 94,54.2 92.3,54.3 C92,54.3 92,54.5 92,54.7 C92.1,54.9 92.2,55 92.4,55 C93.6,55.2 94.5,54.4 94.5,53.1 Z M109.9,91.5 C109.6,91.7 109.5,91.7 109.4,91.9 C109.2,92.1 109.4,92.3 109.5,92.4 C110.1,93.3 110.7,94.2 111.3,95.1 C111.5,95.4 111.7,95.5 112,95.3 C112.3,95.1 112.1,94.9 112,94.7 C111.4,93.8 110.8,92.9 110.2,92 C110.1,91.8 110,91.7 109.9,91.5 Z M103,98.3 C102.8,97.4 102.6,96.3 102.4,95.3 C102.3,95 102.1,94.8 101.8,94.9 C101.4,95 101.5,95.3 101.6,95.5 C101.8,96.5 102,97.6 102.2,98.6 C102.2,98.8 102.3,99.1 102.6,99.1 C103,99.1 103,98.8 103,98.3 Z M75.5,74 C75,74.1 74.6,74.3 74.6,74.9 C74.6,75.5 75,75.8 75.5,75.8 C76.1,75.8 76.4,75.4 76.4,74.9 C76.4,74.3 76.1,74 75.5,74 Z M121.9,74.8 C121.8,74.3 121.5,73.9 120.9,74 C120.3,74 120,74.4 120,75 C120,75.6 120.4,75.9 121,75.9 C121.5,75.9 121.9,75.5 121.9,74.8 Z" id="Shape"></path>
  <path fill="#525252" d="M48.4,5 C51.6,4.5 54.4,4 57.1,3.5 C57.9,3.4 58.2,3.5 58.6,4.2 C61.2,9 63.9,13.7 66.5,18.4 C66.7,18.8 67,19.2 67.3,19.8 C68.1,17.2 68.8,14.8 69.5,12.4 C70.5,9.1 71.4,5.8 72.4,2.5 C72.5,2.1 72.5,1.7 73.2,1.6 C76.1,1.4 79.1,1.1 82.1,1 C80,2.3 80.1,4.3 80.2,6.3 C80.6,12.9 81,19.6 81.5,26.2 C81.7,28.3 81.9,30.5 83.7,32.1 C80.1,32.4 76.7,32.7 73.1,33 C74.9,30.9 75.1,28.6 74.9,26.1 C74.6,21.8 74.3,17.5 73.8,13.1 C71.7,20.1 69.6,27 67.5,34.3 C64.3,28.3 61.1,22.6 58,16.9 C57.9,16.9 57.8,17 57.7,17 C57.9,18.4 58.1,19.8 58.3,21.2 C58.7,23.7 59,26.3 59.4,28.8 C59.8,31 60.6,32.9 62.7,34.3 C59.8,34.8 57.1,35.2 54.3,35.7 C55.7,33.4 55.2,31.1 54.9,28.8 C54.1,23 53.4,17.2 52.6,11.4 C52.2,8.7 51.2,6.4 48.4,5 Z" id="Path"></path>
  <path fill="#525252" d="M164.9,18.3 C164.7,24 163.2,29.3 159.3,33.6 C153.7,39.9 143.5,39 139.6,31.8 C137.8,28.5 137.6,25 138.1,21.4 C138.8,16.5 140.4,12 144,8.5 C149.2,3.5 158.3,4 162.4,9.5 C164.4,12.1 165,15.1 164.9,18.3 Z M157.7,17 C157.7,15.2 157.7,13.7 157.1,12.3 C156,9.7 152.9,8.9 150.7,10.7 C149.7,11.4 149,12.4 148.5,13.5 C147,16.2 146.3,19.2 145.8,22.2 C145.4,24.8 145.1,27.5 146.1,30.1 C147.2,33.2 150.5,33.9 152.9,31.6 C154,30.6 154.7,29.4 155.3,28 C156.8,24.4 157.5,20.6 157.7,17 Z" id="Shape"></path>
  <path fill="#525252" d="M183.4,32.3 C184.8,28.1 186.1,24.2 187.4,20.3 C188,18.6 188,16.9 186.6,15 C189.7,16.2 192.5,17.2 195.5,18.3 C193,19.3 192,21.1 191.3,23.2 C188.7,30.9 186.1,38.5 183.6,46.2 C183.3,47 183.1,47.4 182.1,47 C178.8,45.7 178.8,45.7 178.1,42.1 C176.9,36.2 175.7,30.3 174.6,24.5 C174.1,24.6 174.2,24.9 174.1,25.2 C172.9,28.8 171.7,32.4 170.5,36 C169.8,38.2 169.4,40.3 170.9,42.7 C167.7,41.8 164.7,40.9 161.5,39.9 C164.2,39 165.4,37.2 166.1,34.9 C167.9,29.1 169.8,23.3 171.6,17.5 C172.4,15 172.6,12.5 170.6,10 C173.5,10.8 176.2,11.6 178.8,12.4 C179.3,12.6 179.3,13.1 179.3,13.4 C180.6,19.2 181.9,25.1 183.1,30.9 C183.1,31.3 183.2,31.6 183.4,32.3 Z" id="Path"></path>
  <path fill="#525252" d="M37.4,7.3 C36.5,8.9 36.8,10.1 37.5,11.4 C41.3,18.4 45.1,25.4 49,32.5 C49.8,33.9 50.7,35.2 52.4,36 C48.5,36.9 44.9,37.7 40.9,38.6 C43,36.3 41.9,34.3 40.9,32.3 C39.6,29.7 39.6,29.7 36.8,30.5 C35.4,30.9 33.9,31.3 32.5,31.7 C32.1,31.8 31.6,31.9 31.6,32.5 C31.6,33.9 31.3,35.4 31.4,36.8 C31.4,38.4 32.1,39.8 34,40.6 C32.3,41.1 30.8,41.6 29.3,42 C27.8,42.4 26.4,42.9 24.7,43.4 C26.7,40.5 26.5,37.4 26.8,34.3 C27.2,27.8 27.6,21.4 28.3,14.9 C28.5,13.2 28.5,11.3 26.3,10.1 C30,9.2 33.6,8.2 37.4,7.3 Z M31.9,27.1 C33.6,26.6 35.3,26.2 36.9,25.7 C37.5,25.5 37.4,25.3 37.2,24.8 C36.5,23.4 35.8,22 35.1,20.6 C34.4,19.1 33.6,17.6 32.7,15.8 C32.4,19.8 32.1,23.4 31.9,27.1 Z" id="Shape"></path>
  <path fill="#525252" d="M87.6,31.7 C88.9,30.5 89.4,29 89.5,27.3 C89.8,22.4 89.6,17.6 89.7,12.7 C89.7,10.3 89.8,7.9 89.8,5.5 C89.8,3.7 89.7,1.8 87.6,0.6 C93.3,0.4 98.6,0.3 103.9,0.4 C105.3,0.4 106.6,0.5 108,0.5 C108.6,0.5 108.8,0.7 108.8,1.3 C108.8,3.3 108.8,5.3 108.6,7.4 C107,4.9 104.7,4.5 102.1,4.5 C100.6,4.5 99.1,4.5 97.6,4.5 C96.9,4.5 96.6,4.7 96.6,5.4 C96.6,7.6 96.6,9.8 96.5,12 C96.5,12.6 96.7,12.8 97.3,12.7 C98.5,12.7 99.6,12.7 100.8,12.7 C102.7,12.7 104.2,12.1 105.2,10 C105.4,13.5 104.9,16.7 105,20.3 C103,17 100,17.5 97.1,17.4 C96.5,17.4 96.4,17.7 96.4,18.2 C96.3,20.7 96.3,23.2 96.2,25.7 C96.2,26.1 96.1,26.5 96.8,26.5 C98.8,26.5 100.9,26.6 102.9,26.6 C105.2,26.6 107.1,25.8 108.5,23.8 C108.2,26.3 107.9,28.7 107.6,31.2 C107.5,31.9 107,31.7 106.6,31.7 C103.2,31.7 99.9,31.6 96.5,31.6 C93.8,31.7 90.8,31.7 87.6,31.7 Z" id="Path"></path>
  <path fill="#525252" d="M133.5,10.9 C132.5,9.3 131.4,7.9 129.9,6.9 C128.6,5.9 127.1,5.3 125.4,5.3 C123.7,5.3 122.5,6.2 122,7.7 C121.6,9 122.1,10.3 123.4,11.2 C124.5,12 125.8,12.7 127,13.4 C127.6,13.8 128.3,14.2 128.9,14.5 C132.7,16.8 134.4,20.1 133.7,24.5 C133,28.8 130.3,31.5 126.2,32.8 C123.5,33.7 120.8,33.4 118.2,32.1 C116.5,31.3 114.8,30.9 113,32.5 C113.2,28.7 113.3,25.1 113.5,21.3 C114.2,22.5 114.7,23.5 115.4,24.3 C116.7,26 118.2,27.5 120.3,28.3 C123.2,29.5 126,27.9 126.4,25 C126.6,23.6 126.1,22.5 125.2,21.5 C124.2,20.5 123,19.8 121.8,19 C120.7,18.2 119.5,17.6 118.4,16.7 C115.3,14.3 114,10.8 115,7.4 C116,4 119.1,1.5 122.8,1 C125.1,0.7 127.3,1 129.5,1.9 C130.9,2.5 132.3,2.8 134,2.3 C134,5.3 133.8,8.1 133.5,10.9 Z" id="Path"></path>
  <path fill="#525252" d="M21.5,37.7 C20.6,39.1 20.1,40.6 19.4,42.1 C16.8,48 9.4,49.4 5.1,47.5 C2.1,46.2 0.4,43.3 1.1,40.6 C1.5,39 2.5,38 4.1,37.6 C5.4,37.3 6.6,37.6 7.5,38.7 C8.5,40 8.6,41.4 7.7,42.8 C7.3,43.4 7.8,43.5 8.1,43.7 C9.5,44.5 10.9,44.2 12.2,43.4 C13.6,42.6 14,41.3 13.8,39.8 C13.4,36.8 12.4,33.9 11.6,31 C10.7,27.4 9.6,23.8 8.6,20.2 C8.2,18.6 7.3,17.4 5.4,16.9 C8.8,15.5 12,14.5 15.5,13.4 C14.3,15.2 14.7,16.9 15.1,18.6 C16.5,23.8 17.8,29 19.1,34.2 C19.5,35.6 19.9,37 21.5,37.7 Z" id="Path"></path>
  <path fill="#525252" d="M198.1,28.6 C196.5,28.6 195.2,27.3 195.2,25.7 C195.2,24.1 196.5,22.8 198.2,22.8 C199.8,22.8 201,24.1 201.1,25.6 C201,27.2 199.7,28.6 198.1,28.6 Z M197.4,23.7 C197.5,23.8 197.6,24 197.7,24 C199.3,24.6 199.3,24.6 198.8,26.1 C198.7,26.5 198.9,27 199.2,27.2 C199.7,27.5 199.8,26.9 199.9,26.6 C200.3,25.8 200.2,25.1 199.7,24.4 C199.2,23.7 198.4,23.4 197.4,23.7 Z M196,25.9 C196,26 196,26.2 196.1,26.5 C196.1,26.5 196.5,26.5 196.5,26.4 C197,25.8 197.1,25.1 197.1,24.3 C197.1,24.2 196.9,23.8 196.7,24 C196.2,24.4 196,25 196,25.9 Z M196.3,26.8 C197,27.7 197.8,27.9 199.1,27.6 C198.2,27.3 198.1,26.6 197.8,25.9 C197.6,27.1 197.6,27.1 196.3,26.8 Z" id="Shape"></path>
  <path fill="#525252" d="M101.1,73.4 C101.2,73.5 101.4,73.6 101.4,73.7 C101.6,74.1 102.2,74.3 102,74.8 C101.9,75 101.5,75 101.3,74.8 C100.8,74.5 100.5,74.1 101.1,73.4 Z" id="Path"></path>
  <path fill="#525252" d="M75.3,81.7 C74.9,81.1 74.5,80.6 75,80 C75.2,79.8 75.5,79.9 75.7,80.1 C76.4,80.8 75.5,81.1 75.3,81.7 Z" id="Path"></path>
  <path fill="#525252" d="M120.3,70.1 C120.2,70.1 120,70.2 119.9,70.2 C119.7,70.1 120,70 120,69.9 C120.1,69.9 120.2,70 120.3,70.1 Z" id="Path"></path>
  <path fill="#525252" d="M84.4,56.3 C84.4,56.2 84.3,56.1 84.3,56 C84.4,56 84.5,56 84.6,56 C84.6,56.1 84.5,56.2 84.4,56.3 Z" id="Path"></path>
  <path fill="#525252" d="M120.9,81.9 C120.6,82.2 121,83.2 120.1,83 C119.4,82.8 118.3,82.9 118.1,82 C117.9,81.2 118.9,80.3 119.6,80.4 C120.3,80.5 120.9,80.9 120.9,81.9 Z" id="Path"></path>
  <path fill="#525252" d="M116.1,63.2 C116.2,62.3 116.8,61.8 117.6,61.8 C118.6,61.8 119,62.5 119,63.4 C119,64.3 118.3,64.8 117.5,64.8 C116.7,64.7 116.3,64 116.1,63.2 Z" id="Path"></path>
  <path fill="#525252" d="M79,65.1 C78.8,65.9 78.5,66.7 77.5,66.6 C76.7,66.6 75.9,66.1 76,65.1 C76.1,64.2 76.5,63.6 77.5,63.6 C78.4,63.7 78.9,64.2 79,65.1 Z" id="Path"></path>
  <path fill="#525252" d="M84.6,94.5 C83.8,94.3 83.1,93.9 83.1,93 C83.1,92.2 83.7,91.5 84.6,91.5 C85.4,91.6 86,92 86,92.9 C86.1,93.8 85.5,94.3 84.6,94.5 Z" id="Path"></path>
  <path fill="#525252" d="M97.4,52.4 C97.6,51.9 97.8,51.5 98,51 C98.4,51.5 98.5,51.9 98.6,52.4 C98.3,52.5 97.9,52.5 97.4,52.4 Z" id="Path"></path>
</svg>
