<?xml version="1.0" encoding="utf-8"?>
<!-- Generator: Adobe Illustrator 23.0.4, SVG Export Plug-In . SVG Version: 6.00 Build 0)  -->
<svg version="1.1" id="Layer_1" xmlns="http://www.w3.org/2000/svg" xmlns:xlink="http://www.w3.org/1999/xlink" x="0px" y="0px"
	 viewBox="0 0 250 250" style="enable-background:new 0 0 250 250;" xml:space="preserve">
<style type="text/css">
	.st0{fill:#525252;}
</style>
<g id="nMfqLX.tif">
	<g>
		<path class="st0" d="M122.2,122.2c14.8,0,26.8,12,26.7,26.7c0,14.6-12,26.6-26.6,26.7c-14.9,0-26.8-11.8-26.8-26.6
			C95.5,134.1,107.3,122.2,122.2,122.2z M108.6,130c0.9,0.3,1.8,0.5,2.7,0.8c0.3,0.1,0.6,0.1,0.8-0.1c0.3-0.3,0-0.5-0.1-0.8
			c-0.5-0.8-1.1-1.7-1.7-2.5c-0.2-0.2-0.3-0.6-0.7-0.3c-0.4,0.3-0.1,0.5,0,0.7c0.3,0.6,0.7,1.1,1.2,1.9c-1.2-0.4-2.2-0.6-3.1-0.9
			c-0.4-0.1-0.7-0.1-0.9,0.2c-0.3,0.4,0,0.6,0.2,0.9c0.5,0.8,1,1.5,1.5,2.3c0.2,0.2,0.3,0.7,0.7,0.4c0.3-0.2,0.1-0.5,0-0.7
			c-0.3-0.5-0.6-1-0.9-1.5C108.5,130.2,108.6,130.1,108.6,130z M144.3,144.1c-0.1-0.1-0.2-0.2-0.3-0.3c0.5-0.8,1-1.5,1.5-2.3
			c0.2-0.3,0.3-0.6,0.1-0.9c-0.2-0.3-0.5-0.1-0.8-0.1c-0.9,0.2-1.8,0.5-2.8,0.7c-0.3,0.1-0.6,0.1-0.5,0.5c0.1,0.5,0.5,0.3,0.8,0.2
			c0.6-0.1,1.2-0.5,2-0.3c-0.6,0.8-1.1,1.6-1.6,2.3c-0.2,0.3-0.6,0.7-0.3,1.1c0.3,0.5,0.7,0.1,1,0c0.9-0.2,1.7-0.4,2.5-0.7
			c0.3-0.1,0.6-0.1,0.5-0.5c-0.1-0.4-0.4-0.3-0.7-0.3C145.3,143.8,144.8,143.9,144.3,144.1z M128.5,150.2c0,1.8,0,3.3,0,4.8
			c1.2-0.4,1.2-0.4,2.9,0.1c2.4,0.7,4.9-0.5,5.8-2.8c0.9-2.3,0.2-4.3-2.2-5.6c-0.8-0.4-1.6-0.8-2.4-1.3c-0.7-0.4-1.1-1.1-0.7-1.9
			c0.3-0.8,1-1.2,1.9-1.1c0.8,0.1,1.5,0.5,2.1,1c0.4,0.3,0.7,0.7,1.3,1.4c0-1.3,0-2.4,0-3.4c0-0.4-0.1-0.6-0.5-0.5
			c-0.8,0.1-1.5-0.2-2.2-0.4c-2.4-0.6-4.8,0.6-5.6,2.8c-0.8,2,0,4,2.3,5.3c0.6,0.4,1.3,0.7,1.9,1.1c1.2,0.8,1.5,1.7,1,2.6
			c-0.6,1-1.8,1.2-3,0.5C130.1,152.3,129.3,151.4,128.5,150.2z M139.7,148c0.1,2.1-0.3,4.1-1,6c-2.6,6.9-7.6,11.1-14.9,11.9
			c-7.4,0.8-13.2-2.2-17.3-8.5c-0.2-0.3-0.3-1.2-1-0.8c-0.5,0.3,0.1,0.9,0.3,1.2c3.5,6.1,8.8,9.4,15.8,9.6c7.1,0.2,12.7-3,16.4-9.1
			c2.6-4.3,3.2-9,2.1-13.9c-0.1-0.3,0-0.8-0.5-0.7c-0.6,0.1-0.3,0.5-0.3,0.9C139.6,145.7,139.8,146.9,139.7,148z M108,140.7
			c0.9,0.8,0.8,1.8,0.8,2.7c0,0.7,0.1,1.4,0.1,2.1c0,1.9,0.1,3.9,0,5.8c0,1-0.4,1.8-1.5,2c-0.5,0.1-0.9-0.1-1.3-0.4
			c-0.4-0.4,0-0.7,0.2-1c0.4-1,0-1.9-0.9-2.3c-1-0.3-2,0.3-2.2,1.4c-0.4,1.6,0.6,3.2,2.4,3.9c2.6,0.9,5.4-0.4,6.6-3
			c0.1-0.2,0.1-0.3,0-0.4c-1-3.6-0.4-7.3-0.3-10.9C110.9,140.7,109.5,140.7,108,140.7z M117.8,140.7c0.9,0.8,0.9,1.8,0.9,2.7
			c0,2.7,0.1,5.3,0,8c0,1.5-1.1,2.3-2.2,1.9c-0.5-0.2-0.9-0.4-0.5-1.1c0.5-0.7,0.4-1.4-0.1-2.1c-0.4-0.5-1-0.6-1.6-0.4
			c-0.8,0.3-1.2,0.9-1.3,1.7c-0.2,1.4,0.6,2.7,2,3.4c2.6,1.3,6-0.1,7-2.9c0.1-0.2,0-0.3,0-0.4c-0.9-3.6-0.5-7.2-0.2-10.9
			C120.6,140.7,119.3,140.7,117.8,140.7z M123,130.2c-5.1,0-8.9,1.2-12.2,3.8c-4.4,3.4-6.8,7.9-7.3,13.5c0,0.3-0.3,0.8,0.2,0.9
			c0.5,0.1,0.5-0.5,0.5-0.8c0.1-0.7,0.2-1.3,0.4-2c1.9-7.3,6.5-12,13.8-13.7c7.3-1.6,13.3,0.8,18.1,6.5c0.3,0.3,0.5,1,1,0.7
			c0.5-0.4-0.1-0.8-0.3-1.1C133.5,132.9,128.4,130.3,123,130.2z M127.1,148c-0.3-0.8-1.4-1-0.5-1.8c0.5-0.5,0.6-1.1,0.1-1.7
			c-0.6-0.6-1.3-0.6-2.1-0.2c-0.6,0.3-0.9,1-0.6,1.6c0.3,0.6,0.1,0.9-0.2,1.4c-0.8,1-0.3,2.3,0.9,2.4c1.2,0.1,2.4-0.2,3.7-0.2
			c-0.9-0.6-0.8-1.2-0.3-2c0.1-0.2,0.5-0.8-0.2-1c-0.6-0.1-0.7,0.3-0.6,0.7C127.3,147.3,127.2,147.5,127.1,148z M126.8,126.4
			c0.5,0.6,0.3,1.3,0.4,1.9c0,0.3,0,0.6,0.4,0.7c0.4,0.1,0.5-0.2,0.7-0.4c0.3-0.5,0.7-0.9,1.1-1.4c0.2,0.7-0.1,1.2-0.2,1.7
			c0,0.2-0.2,0.5,0.2,0.6c0.4,0.1,0.5-0.2,0.6-0.5c0.3-0.9,0.5-1.8,0.8-2.8c0.1-0.3,0.3-0.7-0.2-0.9c-0.4-0.2-0.7,0-0.9,0.3
			c-0.4,0.6-0.9,1.2-1.5,2.1c-0.1-1.1-0.2-1.9-0.3-2.6c0-0.5-0.3-0.6-0.7-0.7c-0.5-0.1-0.5,0.3-0.6,0.6c-0.3,0.9-0.5,1.8-0.8,2.8
			c-0.1,0.2-0.4,0.6,0.1,0.7c0.5,0.2,0.5-0.3,0.6-0.6C126.6,127.5,126.7,127,126.8,126.4z M131,170.1c-0.7-0.6-1.3-1.1-1.9-1.7
			c-0.3-0.3-0.6-0.2-0.9,0c-0.4,0.2-0.3,0.5-0.2,0.7c0.4,1,0.8,1.9,1.2,2.9c0.1,0.2,0.2,0.5,0.5,0.4c0.4-0.1,0.2-0.5,0.1-0.7
			c-0.1-0.5-0.5-0.9-0.4-1.7c0.5,0.6,0.9,1,1.2,1.4c0.2,0.2,0.4,0.5,0.7,0.3c0.4-0.1,0.3-0.5,0.3-0.7c0-0.6-0.2-1.3,0.1-2.1
			c0.3,0.7,0.5,1.2,0.8,1.8c0.1,0.3,0.3,0.5,0.6,0.4c0.3-0.2,0.2-0.4,0.1-0.6c-0.4-0.9-0.7-1.8-1.1-2.8c-0.1-0.3-0.2-0.7-0.7-0.5
			c-0.4,0.1-0.6,0.4-0.6,0.8C131,168.6,131,169.3,131,170.1z M98,154.9c0.1,0.8,1.1,1.6,0.9,2.9c0,0.3,0.6,0.2,0.6-0.1
			c0.1-0.8,0.5-0.6,0.9-0.4c0.2,0.1,0.4,0.1,0.5-0.1c0.1-0.3,0.1-0.4-0.2-0.6c-0.3-0.2-0.9-0.1-0.6-0.8c0.3-0.6,0.7-0.2,1-0.1
			c0.5,0.1,0.9,0.1,1.2-0.4c0.3-0.5,0.2-1-0.1-1.4c-0.3-0.4-0.8-0.6-1.2-0.3c-0.5,0.3-0.8,0-1.2-0.2C98.9,152.8,98,153.4,98,154.9z
			 M113,168.6c0.5,1.3,0.8,2.3,1.2,3.3c0.1,0.3,0.3,0.5,0.6,0.6c0.4,0,0.4-0.3,0.5-0.6c0.4-0.9,0.7-1.9,1.1-2.8
			c0.1-0.2,0.2-0.5-0.1-0.6c-0.4-0.2-0.5,0-0.6,0.3c-0.2,0.6-0.5,1.2-0.9,2.2c-0.4-1.3-0.7-2.1-1-3c-0.1-0.4-0.3-0.7-0.7-0.7
			c-0.5-0.1-0.4,0.4-0.6,0.7c-0.3,0.8-0.7,1.7-1,2.5c-0.1,0.3-0.4,0.6,0.1,0.8c0.5,0.2,0.5-0.3,0.6-0.6
			C112.5,170.1,112.7,169.5,113,168.6z M106.8,162.9c0-0.2-0.1-0.4-0.1-0.7c-0.4-1.1-1.6-1.9-2.4-1.5c-0.8,0.3-0.8,1.1-0.1,2.5
			c0.2,0.4,0.7,0.9,0.2,1.2c-0.5,0.3-0.8-0.3-1.1-0.7c-0.2-0.3-0.3-0.6-0.2-0.9c0.1-0.3-0.1-0.6-0.4-0.6c-0.5,0-0.4,0.4-0.5,0.7
			c0,0.3,0.1,0.6,0.2,0.8c0.5,1.2,1.6,1.9,2.5,1.5c0.9-0.4,0.9-1.1,0.1-2.6c-0.2-0.3-0.8-0.8-0.2-1.1c0.4-0.2,0.8,0.3,1,0.7
			c0.1,0.2,0.3,0.5,0.2,0.8c-0.1,0.4,0.1,0.6,0.4,0.6C106.9,163.7,106.7,163.2,106.8,162.9z M140.3,132.4c0-0.9-0.6-1.5-1.3-1.9
			c-0.5-0.3-1.1-0.4-1.6,0.1c-0.5,0.5-0.5,1-0.1,1.6c0.3,0.5,0.6,0.9,0.9,1.3c0.1,0.2,0.2,0.4,0,0.6c-0.2,0.2-0.4,0.1-0.6,0
			c-0.6-0.3-1.1-0.8-1.1-1.6c0-0.3-0.1-0.5-0.4-0.5c-0.3-0.1-0.3,0.1-0.4,0.4c-0.3,1.2,1.3,2.9,2.5,2.6c0.8-0.2,1.2-0.8,0.9-1.6
			c-0.2-0.4-0.4-0.7-0.6-1.1c-0.2-0.4-0.8-0.8-0.4-1.1c0.4-0.3,0.8,0.3,1.1,0.7c0.2,0.2,0.3,0.5,0.3,0.8c0,0.4,0.3,0.5,0.6,0.5
			C140.3,133,140.2,132.7,140.3,132.4z M145.7,155.9c0-1.2-0.5-1.8-1.3-2.2c-0.8-0.3-1.7-0.4-2.3,0.3c-0.7,0.8-0.9,1.7-1,2.7
			c0,0.1,0.2,0.2,0.4,0.3c1,0.3,2,0.7,3.1,1c0.3,0.1,0.6,0.1,0.7-0.3C145.3,157.1,145.6,156.4,145.7,155.9z M143.9,137.3
			c0-1.3-1.1-2.5-2.3-2.5c-1.2,0-2.4,1.1-2.4,2.3c0,1.2,1.1,2.4,2.2,2.4C142.8,139.5,143.9,138.5,143.9,137.3z M103.8,138.9
			c0-1.2-1.2-2.2-2.4-2.2c-1.2,0-2.2,1.3-2.2,2.6c0,1.1,1.1,2.1,2.4,2.1C102.8,141.5,103.8,140.3,103.8,138.9z M140.9,158.7
			c0-0.4-0.1-0.4-0.3-0.5c-0.3-0.1-0.4,0.1-0.5,0.2c-1.7,1.8-1.6,2.5,0.4,3.8c0.4,0.2,0.8,0.5,1.2,0.7c0.3,0.2,0.5,0.3,0.7-0.1
			c0.4-0.7,0.9-1.5,1.4-2.2c0.2-0.3,0.2-0.5-0.1-0.6c-0.3-0.2-0.5,0-0.6,0.2c-0.3,0.5-0.6,0.9-0.9,1.4c-0.2,0.4-0.4,0.4-0.8,0.2
			c-0.4-0.2-0.1-0.4-0.1-0.7c0.1-0.6,1.3-1.1,0.5-1.6c-0.6-0.4-0.8,0.7-1.1,1.1c-0.2,0.3-0.4,0.5-0.8,0.3c-0.4-0.3-0.1-0.5,0-0.7
			C140.3,159.6,140.6,159.1,140.9,158.7z M108.5,164.6c-1.2,0-2.2,1.2-2.2,2.4c0,1.1,1.3,2.2,2.4,2.3c1.1,0,2.3-1.2,2.3-2.4
			C111,165.7,109.7,164.6,108.5,164.6z M136.2,128.6c0.1-0.2-0.1-0.3-0.2-0.4c-0.8-0.5-1.6-1.2-2.5-1.3c-0.7-0.1-0.9,1.2-1.3,1.8
			c-0.3,0.4-0.5,0.8-0.7,1.2c-0.2,0.3-0.2,0.6,0.2,0.8c0.7,0.4,1.4,0.8,2.1,1.3c0.2,0.2,0.5,0.2,0.6-0.1c0.2-0.3,0.1-0.5-0.2-0.6
			c-0.4-0.2-0.9-0.5-1.3-0.8c-0.3-0.2-0.7-0.4-0.4-0.9c0.3-0.4,0.5-0.2,0.8,0c0.3,0.2,0.6,0.3,0.9,0.5c0.3,0.2,0.5,0.3,0.7-0.1
			c0.2-0.4-0.1-0.5-0.3-0.7c-0.3-0.2-0.6-0.3-0.9-0.5c-0.3-0.2-0.6-0.3-0.3-0.7c0.3-0.4,0.5-0.2,0.7,0c0.5,0.3,0.9,0.5,1.4,0.8
			C135.9,129.1,136.1,128.8,136.2,128.6z M102.5,133.6c-0.1,0.1-0.2,0.2-0.3,0.3c-0.2,0.3,0,0.4,0.2,0.6c0.7,0.6,1.4,1.2,2.1,1.8
			c0.3,0.2,0.5,0.8,1,0.4c0.5-0.5-0.2-0.7-0.4-0.9c-0.2-0.3-0.8-0.4-0.4-0.9c0.4-0.4,0.7-1,1.2-1.3c0.5-0.3,0.7,0.4,1.1,0.6
			c0.3,0.2,0.5,0.3,0.7,0c0.2-0.3,0-0.5-0.2-0.6c-0.8-0.7-1.6-1.4-2.3-2c-0.2-0.2-0.4-0.4-0.7-0.1c-0.4,0.4-0.1,0.6,0.2,0.8
			c0.8,0.5,0.6,0.9,0,1.5c-0.6,0.6-1,1.2-1.8,0.2C102.8,133.7,102.6,133.7,102.5,133.6z M119.8,128.1c0.4,0.1,0.7,0.2,0.9-0.1
			c0.9-1,1.9-1.1,2.7-0.1c0.2,0.3,0.5,0.3,0.7,0.2c0.3-0.2,0.1-0.4,0-0.6c-0.4-1-0.9-2-1.3-2.9c-0.2-0.4-0.3-0.6-0.8-0.6
			c-0.4,0-0.5,0.3-0.7,0.6C120.8,125.8,120.3,126.9,119.8,128.1z M122.2,173.5c0.6,0,1.1,0,1.5,0c0.3,0,0.6-0.1,0.5-0.5
			c0-0.3-0.3-0.3-0.5-0.4c-0.7-0.1-1.7,0.4-2.1-0.2c-0.4-0.6-0.1-1.5-0.1-2.3c0-0.1,0-0.2,0-0.4c0-0.3,0-0.5-0.4-0.5
			c-0.3,0-0.4,0.2-0.4,0.5c0,0.7,0.1,1.5,0,2.2C120.6,173.3,121,173.9,122.2,173.5z M139.7,166c-0.6-0.5-1.1-1.1-1.6-1.6
			c-0.6-0.5-0.9-1-0.1-1.5c0.2-0.2,0.5-0.4,0.2-0.7c-0.4-0.4-0.6,0-0.8,0.2c-0.7,0.6-1.3,1.3-1.9,1.9c-0.2,0.2-0.6,0.4-0.2,0.8
			c0.4,0.4,0.6,0,0.8-0.2c0.5-0.7,0.9-0.5,1.4,0.1c0.4,0.5,0.9,0.9,1.4,1.4c0.2,0.2,0.4,0.4,0.6,0.1
			C139.5,166.3,139.5,166.2,139.7,166z M101.9,144.6c0-0.5-0.1-0.9-0.5-1.2c-1-0.5-2-0.6-3.1-0.8c-0.2,0-0.4,0.1-0.4,0.3
			c0,0.3,0.1,0.4,0.4,0.5c0.6,0.1,1.1,0.3,1.7,0.4c0.9,0.2,1.4,0.6,1,1.5c-0.1,0.2-0.3,0.5,0.1,0.6c0.3,0.1,0.6,0,0.7-0.3
			C101.8,145.3,101.8,144.9,101.9,144.6z M118.5,127.1c-0.1-0.3-0.1-0.8-0.3-1.2c-0.2-0.5,0.1-1.6-0.7-1.4c-0.8,0.2-0.2,1-0.1,1.6
			c0.2,1,0.6,2.1-1.1,2.2c-0.3,0-0.3,0.2-0.3,0.4c0.1,0.2,0.2,0.3,0.4,0.3C117.6,129.2,118.5,128.4,118.5,127.1z M133.9,165.5
			c-0.3,0.2-0.4,0.2-0.5,0.4c-0.2,0.2,0,0.4,0.1,0.5c0.6,0.9,1.2,1.8,1.8,2.7c0.2,0.3,0.4,0.4,0.7,0.2c0.3-0.2,0.1-0.4,0-0.6
			c-0.6-0.9-1.2-1.8-1.8-2.7C134.1,165.8,134,165.7,133.9,165.5z M127,172.3c-0.2-0.9-0.4-2-0.6-3c-0.1-0.3-0.3-0.5-0.6-0.4
			c-0.4,0.1-0.3,0.4-0.2,0.6c0.2,1,0.4,2.1,0.6,3.1c0,0.2,0.1,0.5,0.4,0.5C127,173.1,127,172.8,127,172.3z M99.5,148
			c-0.5,0.1-0.9,0.3-0.9,0.9c0,0.6,0.4,0.9,0.9,0.9c0.6,0,0.9-0.4,0.9-0.9C100.4,148.3,100.1,148,99.5,148z M145.9,148.8
			c-0.1-0.5-0.4-0.9-1-0.8c-0.6,0-0.9,0.4-0.9,1c0,0.6,0.4,0.9,1,0.9C145.5,149.9,145.9,149.5,145.9,148.8z"/>
		<path class="st0" d="M72.4,79c3.2-0.5,6-1,8.7-1.5c0.8-0.1,1.1,0,1.5,0.7c2.6,4.8,5.3,9.5,7.9,14.2c0.2,0.4,0.5,0.8,0.8,1.4
			c0.8-2.6,1.5-5,2.2-7.4c1-3.3,1.9-6.6,2.9-9.9c0.1-0.4,0.1-0.8,0.8-0.9c2.9-0.2,5.9-0.5,8.9-0.6c-2.1,1.3-2,3.3-1.9,5.3
			c0.4,6.6,0.8,13.3,1.3,19.9c0.2,2.1,0.4,4.3,2.2,5.9c-3.6,0.3-7,0.6-10.6,0.9c1.8-2.1,2-4.4,1.8-6.9c-0.3-4.3-0.6-8.6-1.1-13
			c-2.1,7-4.2,13.9-6.3,21.2c-3.2-6-6.4-11.7-9.5-17.4c-0.1,0-0.2,0.1-0.3,0.1c0.2,1.4,0.4,2.8,0.6,4.2c0.4,2.5,0.7,5.1,1.1,7.6
			c0.4,2.2,1.2,4.1,3.3,5.5c-2.9,0.5-5.6,0.9-8.4,1.4c1.4-2.3,0.9-4.6,0.6-6.9c-0.8-5.8-1.5-11.6-2.3-17.4
			C76.2,82.7,75.2,80.4,72.4,79z"/>
		<path class="st0" d="M188.9,92.3c-0.2,5.7-1.7,11-5.6,15.3c-5.6,6.3-15.8,5.4-19.7-1.8c-1.8-3.3-2-6.8-1.5-10.4
			c0.7-4.9,2.3-9.4,5.9-12.9c5.2-5,14.3-4.5,18.4,1C188.4,86.1,189,89.1,188.9,92.3z M181.7,91c0-1.8,0-3.3-0.6-4.7
			c-1.1-2.6-4.2-3.4-6.4-1.6c-1,0.7-1.7,1.7-2.2,2.8c-1.5,2.7-2.2,5.7-2.7,8.7c-0.4,2.6-0.7,5.3,0.3,7.9c1.1,3.1,4.4,3.8,6.8,1.5
			c1.1-1,1.8-2.2,2.4-3.6C180.8,98.4,181.5,94.6,181.7,91z"/>
		<path class="st0" d="M207.4,106.3c1.4-4.2,2.7-8.1,4-12c0.6-1.7,0.6-3.4-0.8-5.3c3.1,1.2,5.9,2.2,8.9,3.3c-2.5,1-3.5,2.8-4.2,4.9
			c-2.6,7.7-5.2,15.3-7.7,23c-0.3,0.8-0.5,1.2-1.5,0.8c-3.3-1.3-3.3-1.3-4-4.9c-1.2-5.9-2.4-11.8-3.5-17.6c-0.5,0.1-0.4,0.4-0.5,0.7
			c-1.2,3.6-2.4,7.2-3.6,10.8c-0.7,2.2-1.1,4.3,0.4,6.7c-3.2-0.9-6.2-1.8-9.4-2.8c2.7-0.9,3.9-2.7,4.6-5c1.8-5.8,3.7-11.6,5.5-17.4
			c0.8-2.5,1-5-1-7.5c2.9,0.8,5.6,1.6,8.2,2.4c0.5,0.2,0.5,0.7,0.5,1c1.3,5.8,2.6,11.7,3.8,17.5
			C207.1,105.3,207.2,105.6,207.4,106.3z"/>
		<path class="st0" d="M61.4,81.3c-0.9,1.6-0.6,2.8,0.1,4.1c3.8,7,7.6,14,11.5,21.1c0.8,1.4,1.7,2.7,3.4,3.5
			c-3.9,0.9-7.5,1.7-11.5,2.6c2.1-2.3,1-4.3,0-6.3c-1.3-2.6-1.3-2.6-4.1-1.8c-1.4,0.4-2.9,0.8-4.3,1.2c-0.4,0.1-0.9,0.2-0.9,0.8
			c0,1.4-0.3,2.9-0.2,4.3c0,1.6,0.7,3,2.6,3.8c-1.7,0.5-3.2,1-4.7,1.4c-1.5,0.4-2.9,0.9-4.6,1.4c2-2.9,1.8-6,2.1-9.1
			c0.4-6.5,0.8-12.9,1.5-19.4c0.2-1.7,0.2-3.6-2-4.8C54,83.2,57.6,82.2,61.4,81.3z M55.9,101.1c1.7-0.5,3.4-0.9,5-1.4
			c0.6-0.2,0.5-0.4,0.3-0.9c-0.7-1.4-1.4-2.8-2.1-4.2c-0.7-1.5-1.5-3-2.4-4.8C56.4,93.8,56.1,97.4,55.9,101.1z"/>
		<path class="st0" d="M111.6,105.7c1.3-1.2,1.8-2.7,1.9-4.4c0.3-4.9,0.1-9.7,0.2-14.6c0-2.4,0.1-4.8,0.1-7.2c0-1.8-0.1-3.7-2.2-4.9
			c5.7-0.2,11-0.3,16.3-0.2c1.4,0,2.7,0.1,4.1,0.1c0.6,0,0.8,0.2,0.8,0.8c0,2,0,4-0.2,6.1c-1.6-2.5-3.9-2.9-6.5-2.9
			c-1.5,0-3,0-4.5,0c-0.7,0-1,0.2-1,0.9c0,2.2,0,4.4-0.1,6.6c0,0.6,0.2,0.8,0.8,0.7c1.2,0,2.3,0,3.5,0c1.9,0,3.4-0.6,4.4-2.7
			c0.2,3.5-0.3,6.7-0.2,10.3c-2-3.3-5-2.8-7.9-2.9c-0.6,0-0.7,0.3-0.7,0.8c-0.1,2.5-0.1,5-0.2,7.5c0,0.4-0.1,0.8,0.6,0.8
			c2,0,4.1,0.1,6.1,0.1c2.3,0,4.2-0.8,5.6-2.8c-0.3,2.5-0.6,4.9-0.9,7.4c-0.1,0.7-0.6,0.5-1,0.5c-3.4,0-6.7-0.1-10.1-0.1
			C117.8,105.7,114.8,105.7,111.6,105.7z"/>
		<path class="st0" d="M157.5,84.9c-1-1.6-2.1-3-3.6-4c-1.3-1-2.8-1.6-4.5-1.6c-1.7,0-2.9,0.9-3.4,2.4c-0.4,1.3,0.1,2.6,1.4,3.5
			c1.1,0.8,2.4,1.5,3.6,2.2c0.6,0.4,1.3,0.8,1.9,1.1c3.8,2.3,5.5,5.6,4.8,10c-0.7,4.3-3.4,7-7.5,8.3c-2.7,0.9-5.4,0.6-8-0.7
			c-1.7-0.8-3.4-1.2-5.2,0.4c0.2-3.8,0.3-7.4,0.5-11.2c0.7,1.2,1.2,2.2,1.9,3c1.3,1.7,2.8,3.2,4.9,4c2.9,1.2,5.7-0.4,6.1-3.3
			c0.2-1.4-0.3-2.5-1.2-3.5c-1-1-2.2-1.7-3.4-2.5c-1.1-0.8-2.3-1.4-3.4-2.3c-3.1-2.4-4.4-5.9-3.4-9.3c1-3.4,4.1-5.9,7.8-6.4
			c2.3-0.3,4.5,0,6.7,0.9c1.4,0.6,2.8,0.9,4.5,0.4C158,79.3,157.8,82.1,157.5,84.9z"/>
		<path class="st0" d="M45.5,111.7c-0.9,1.4-1.4,2.9-2.1,4.4c-2.6,5.9-10,7.3-14.3,5.4c-3-1.3-4.7-4.2-4-6.9c0.4-1.6,1.4-2.6,3-3
			c1.3-0.3,2.5,0,3.4,1.1c1,1.3,1.1,2.7,0.2,4.1c-0.4,0.6,0.1,0.7,0.4,0.9c1.4,0.8,2.8,0.5,4.1-0.3c1.4-0.8,1.8-2.1,1.6-3.6
			c-0.4-3-1.4-5.9-2.2-8.8c-0.9-3.6-2-7.2-3-10.8c-0.4-1.6-1.3-2.8-3.2-3.3c3.4-1.4,6.6-2.4,10.1-3.5c-1.2,1.8-0.8,3.5-0.4,5.2
			c1.4,5.2,2.7,10.4,4,15.6C43.5,109.6,43.9,111,45.5,111.7z"/>
		<path class="st0" d="M222.1,102.6c-1.6,0-2.9-1.3-2.9-2.9c0-1.6,1.3-2.9,3-2.9c1.6,0,2.8,1.3,2.9,2.8
			C225,101.2,223.7,102.6,222.1,102.6z M221.4,97.7c0.1,0.1,0.2,0.3,0.3,0.3c1.6,0.6,1.6,0.6,1.1,2.1c-0.1,0.4,0.1,0.9,0.4,1.1
			c0.5,0.3,0.6-0.3,0.7-0.6c0.4-0.8,0.3-1.5-0.2-2.2C223.2,97.7,222.4,97.4,221.4,97.7z M220,99.9c0,0.1,0,0.3,0.1,0.6
			c0,0,0.4,0,0.4-0.1c0.5-0.6,0.6-1.3,0.6-2.1c0-0.1-0.2-0.5-0.4-0.3C220.2,98.4,220,99,220,99.9z M220.3,100.8
			c0.7,0.9,1.5,1.1,2.8,0.8c-0.9-0.3-1-1-1.3-1.7C221.6,101.1,221.6,101.1,220.3,100.8z"/>
		<path class="st0" d="M125.1,147.4c0.1,0.1,0.3,0.2,0.3,0.3c0.2,0.4,0.8,0.6,0.6,1.1c-0.1,0.2-0.5,0.2-0.7,0
			C124.8,148.5,124.5,148.1,125.1,147.4z"/>
		<path class="st0" d="M99.3,155.7c-0.4-0.6-0.8-1.1-0.3-1.7c0.2-0.2,0.5-0.1,0.7,0.1C100.4,154.8,99.5,155.1,99.3,155.7z"/>
		<path class="st0" d="M144.3,144.1c-0.1,0-0.3,0.1-0.4,0.1c-0.2-0.1,0.1-0.2,0.1-0.3C144.1,143.9,144.2,144,144.3,144.1z"/>
		<path class="st0" d="M108.4,130.3c0-0.1-0.1-0.2-0.1-0.3c0.1,0,0.2,0,0.3,0C108.6,130.1,108.5,130.2,108.4,130.3z"/>
		<path class="st0" d="M144.9,155.9c-0.3,0.3,0.1,1.3-0.8,1.1c-0.7-0.2-1.8-0.1-2-1c-0.2-0.8,0.8-1.7,1.5-1.6
			C144.3,154.5,144.9,154.9,144.9,155.9z"/>
		<path class="st0" d="M140.1,137.2c0.1-0.9,0.7-1.4,1.5-1.4c1,0,1.4,0.7,1.4,1.6c0,0.9-0.7,1.4-1.5,1.4
			C140.7,138.7,140.3,138,140.1,137.2z"/>
		<path class="st0" d="M103,139.1c-0.2,0.8-0.5,1.6-1.5,1.5c-0.8,0-1.6-0.5-1.5-1.5c0.1-0.9,0.5-1.5,1.5-1.5
			C102.4,137.7,102.9,138.2,103,139.1z"/>
		<path class="st0" d="M108.6,168.5c-0.8-0.2-1.5-0.6-1.5-1.5c0-0.8,0.6-1.5,1.5-1.5c0.8,0.1,1.4,0.5,1.4,1.4
			C110.1,167.8,109.5,168.3,108.6,168.5z"/>
		<path class="st0" d="M121.4,126.4c0.2-0.5,0.4-0.9,0.6-1.4c0.4,0.5,0.5,0.9,0.6,1.4C122.3,126.5,121.9,126.5,121.4,126.4z"/>
	</g>
</g>
</svg>
