<?xml version="1.0" encoding="UTF-8"?>
<svg viewBox="0 0 142 142" version="1.1" xmlns="http://www.w3.org/2000/svg" xmlns:xlink="http://www.w3.org/1999/xlink">
    <path fill="#525252" d="M70.7540223,137.829407 C33.6131066,137.829407 3.39461036,107.608952 3.39461036,70.4680367 C3.39461036,33.3251621 33.6131066,3.10862472 70.7540223,3.10862472 C107.892979,3.10862472 138.111475,33.3251621 138.111475,70.4680367 C138.111475,107.608952 107.892979,137.829407 70.7540223,137.829407 M70.7540223,2.41128987 C33.225263,2.41128987 2.6953167,32.9412362 2.6953167,70.4680367 C2.6953167,107.992878 33.225263,138.526742 70.7540223,138.526742 C108.278864,138.526742 138.806851,107.992878 138.806851,70.4680367 C138.806851,32.9412362 108.278864,2.41128987 70.7540223,2.41128987 M70.515048,139.637385 C32.4045234,139.637385 1.3985873,108.633408 1.3985873,70.5189656 C1.3985873,32.4045234 32.4045234,1.3985873 70.515048,1.3985873 C108.631449,1.3985873 139.637385,32.4045234 139.637385,70.5189656 C139.637385,108.633408 108.631449,139.637385 70.515048,139.637385 M70.515048,2.84217094e-14 C31.632754,2.84217094e-14 2.84217094e-14,31.6347128 2.84217094e-14,70.5189656 C2.84217094e-14,109.403218 31.632754,141.034014 70.515048,141.034014 C109.403218,141.034014 141.034014,109.403218 141.034014,70.5189656 C141.034014,31.6347128 109.403218,2.84217094e-14 70.515048,2.84217094e-14" id="Circles"></path>
    <path fill="#525252" d="M70.9980564,113.570188 C46.9915722,113.570188 27.4637066,94.0406317 27.4637066,70.0359576 C27.4637066,46.0293395 46.9915722,26.4978396 70.9980564,26.4978396 C95.0045405,26.4978396 114.53435,46.0293395 114.53435,70.0359576 C114.53435,94.0406317 95.0045405,113.570188 70.9980564,113.570188 M70.9980564,25.1156463 C46.2276411,25.1156463 26.0816329,45.2653423 26.0816329,70.0359576 C26.0816329,94.8026849 46.2276411,114.952381 70.9980564,114.952381 C95.7684716,114.952381 115.918368,94.8026849 115.918368,70.0359576 C115.918368,45.2653423 95.7684716,25.1156463 70.9980564,25.1156463" id="Circles"></path>
    <path fill="#525252" d="M120.124864,43.9031182 C122.123193,42.7575001 123.327664,40.666698 122.418445,39.5132198 C121.499448,38.3558114 119.55978,38.3774269 117.569273,39.5289401 C115.5729,40.6804533 114.464238,42.3939678 115.19748,43.6751736 C115.924856,44.9524494 118.130447,45.0585615 120.124864,43.9031182 M113.617588,45.8563676 C112.166747,44.3511473 112.000546,42.3723524 112.972336,40.6765232 C114.088818,39.1202119 115.610051,37.7525443 117.55363,36.9370529 C120.629335,35.655847 124.289678,36.298415 125.105042,40.0850463 C125.302529,42.2092541 123.875152,43.7085793 122.371517,45.0389111 C117.608379,48.7980319 114.204182,46.6129078 113.617588,45.8563676 M129.496672,58.8570696 C128.346949,59.0535736 126.184374,59.3011685 126.233257,60.5312833 C126.465939,61.5924047 126.778789,63.6360459 128.19639,63.142821 C128.661754,62.9227365 131.397234,62.6397708 129.496672,58.8570696 M130.959245,64.5989153 C130.075444,65.3868962 129.177956,65.8093797 127.961752,65.9940934 C125.760072,65.8958414 125.509792,63.7637735 124.326829,64.5262088 C124.326829,64.5262088 120.122909,68.010224 119.682964,71.2034134 C119.505031,72.4846192 117.760893,69.0438349 118.896929,67.3263903 C119.46788,66.4637379 120.860062,64.2039423 123.830179,62.0404337 C124.037442,61.7417477 123.728503,60.5411085 123.470402,60.1716811 C121.76146,60.4114159 120.877659,60.5921996 118.96732,61.1640261 C119.010337,60.3780102 118.932125,59.4033506 118.679889,58.3854601 C118.679889,58.3854601 129.731309,57.0256527 130.249467,55.4320056 C133.989977,60.9576969 131.723771,64.08997 130.959245,64.5989153 M18.9453246,59.0476784 C18.9453246,59.0476784 14.9115174,59.9928625 12.9972676,60.1107649 C8.6682083,54.8189132 8.27714604,52.8047476 8.7718398,51.5589125 C8.961505,51.085338 8.53720244,50.5704976 8.53720244,50.5704976 C8.53720244,50.5704976 7.51652993,51.9892562 7.46373653,53.0012516 C6.93384716,56.493127 11.7693321,63.1329958 11.7693321,63.1329958 L8.94781782,62.1878117 C8.94781782,62.1878117 7.17043983,61.456817 5.55730798,60.7435076 C5.58859296,60.7494027 4.86317246,64.433852 4.82993217,65.1255459 C5.31680469,65.1766369 5.51429113,65.0980354 5.73719663,64.7561185 C6.10675047,64.1901871 8.43943688,64.7207478 9.966535,65.2375532 C11.4994991,65.7563236 12.6140266,65.8938764 12.5534119,66.7624239 C12.4517357,68.4130572 11.423242,70.1187115 10.0701665,70.8300559 C10.3126251,71.0422801 10.588324,71.0638956 10.946146,70.9892241 C12.6062053,70.0676205 13.9260405,68.3934068 14.9799533,66.7840393 C17.0604045,67.0198441 17.4045393,67.1672221 19.3794037,67.5405796 C21.7511964,67.9748533 22.5958909,69.0182894 22.5958909,69.0182894 C22.5958909,69.0182894 23.2352777,66.9471376 24.3419839,65.5735749 C24.4319282,65.4654978 24.4201963,65.4301271 24.4201963,65.4301271 C24.4201963,65.4301271 15.0894507,64.7993493 14.9955958,63.1565762 C18.88471,61.5825795 24.0525978,61.6022299 26.704,57.837214 C27.1419897,57.0747787 27.3922696,56.2199864 26.9445033,55.2885577 C24.952041,57.6682206 18.9453246,59.0476784 18.9453246,59.0476784 M22.5391868,57.1514152 C22.5391868,57.1514152 23.5090213,54.5045069 23.5930997,53.8894495 C21.9134872,53.9798413 12.635535,49.9298947 12.635535,49.9298947 L11.7106727,49.397369 C11.7106727,49.397369 11.3684932,50.7552113 10.7916764,52.4117397 C10.9793863,52.478551 11.7008962,52.5139218 12.3050874,52.7006005 C14.7531371,53.5711131 21.4754975,55.8564541 22.5391868,57.1514152 M130.036338,53.5003716 C129.61008,52.4647958 129.561197,52.0069415 129.410638,50.7100154 C128.798626,51.8968993 119.612573,54.9545009 118.893018,52.5925233 C118.194972,50.7650365 127.171807,47.7231552 128.599184,48.1888696 C127.676277,46.9332093 127.089683,45.2354151 127.089683,45.2354151 C125.963424,46.3043966 118.932125,48.0670371 117.307261,49.8532581 C116.247482,50.9104494 115.977649,51.6846751 116.253348,53.0071467 C116.444969,54.2411916 117.639664,55.2001309 118.74637,55.5911738 C121.380174,56.5147424 126.086609,54.6400946 130.036338,53.5003716 M15.8774412,40.1538227 C15.8774412,40.1538227 16.4503474,40.3385364 16.868784,40.4308933 C19.2171129,40.9359084 21.0394631,42.4764995 21.9897444,42.8518221 C21.9897444,42.8518221 15.27325,45.3140167 13.7090009,44.1821539 C13.4157042,45.2177297 13.1302287,45.9782001 12.7450324,46.8290622 C13.4430786,46.5736071 24.6685209,51.8399132 24.7076271,51.7200458 C25.1495275,50.3641684 25.8221546,49.3384178 25.8221546,49.3384178 C25.8221546,49.3384178 20.6699092,47.5561269 19.7978404,46.671859 C21.786392,45.4574646 24.5081854,44.6950292 26.3911502,45.1528834 C26.5671282,45.1921842 27.7051194,45.4869402 27.7051194,45.4869402 C27.7051194,45.4869402 28.4774673,43.9581393 29.0660161,43.2350048 C25.8847245,42.403793 18.4916924,38.4678187 17.1210192,37.4125924 C16.8179459,38.2398741 16.3740902,39.4326531 15.8774412,40.1538227 M30.1864094,32.5805601 C29.5802629,32.0421392 29.4140615,31.6078655 29.2048432,31.3838509 C28.5537245,32.3192098 27.2534425,33.9875284 27.2182468,33.9816333 C27.8322146,33.9069618 31.3009369,35.7698193 30.2998175,37.3280957 C29.6604307,37.9392231 28.8665743,38.1121465 27.9808183,38.0492653 C25.9394732,37.7152085 24.6157275,36.8171854 23.4933788,35.0368596 C21.8998,32.4960634 25.0243875,30.0260086 25.9844454,30.0004631 C25.1182425,29.3225244 24.4456154,28.7821385 23.7749436,27.8664301 C19.6414155,31.7729288 20.3531488,34.2213681 20.480244,34.808915 C21.4578997,37.8645515 23.9431004,39.52501 26.9875201,40.564516 C28.0433882,40.8985727 29.5587545,40.8808873 31.1894842,39.9455285 C33.0001024,38.9158477 34.2202167,36.7032131 32.6070849,34.5809704 C31.9051281,33.7458285 31.1347354,33.3685409 30.1864094,32.5805601 M109.757804,36.1412118 C113.230437,33.6868774 116.268991,31.0556893 118.607543,28.9079011 C118.627096,28.8921807 118.6838,28.8607401 118.658381,28.8509149 C117.035473,28.2515778 116.351114,27.7269123 116.351114,27.7269123 C115.666755,28.6603061 115.762565,28.5640191 106.494389,35.6342316 C106.932379,36.0547501 109.581826,38.9531835 111.063952,41.7730153 C111.343561,41.3387416 111.380712,40.5134249 112.487418,39.4346182 C111.7444,38.3204407 110.256408,36.7248286 109.757804,36.1412118 M110.629873,28.6465508 C110.629873,28.6465508 111.789372,27.9764723 112.755296,28.1552909 C113.271498,28.2476477 111.386578,25.282403 110.453895,24.3706246 C110.952499,23.8538192 111.943842,22.9538311 112.391608,22.6630052 C113.410325,24.5828489 116.446924,24.6457302 116.847763,27.1825963 C116.847763,27.1825963 116.812567,27.1865264 116.896645,27.2022467 C117.667038,27.3496246 119.035789,28.0255983 119.035789,28.0255983 C119.035789,28.0255983 119.084639,24.9738918 115.400832,22.1186892 C112.739654,20.4130349 111.300544,18.3674286 111.208645,18.0824979 C110.909482,18.0844629 110.449984,18.5207017 110.559481,18.6012684 C110.342442,18.8586885 110.784342,19.375494 110.070654,20.2833422 C108.848584,21.859304 107.773163,22.90274 107.773163,22.90274 C106.042712,21.9123601 104.406117,22.7239214 103.67483,23.7477071 C105.241035,23.4863568 106.472881,24.3824149 106.472881,24.3824149 C106.472881,24.3824149 101.807508,29.2085521 99.3848773,31.7218378 C100.988233,32.7318681 100.994098,33.1661419 101.400803,33.6004156 C103.8293,31.0930251 106.496345,28.2731933 108.832942,25.9642717 C109.523166,26.4987625 109.908363,26.9998476 110.629873,28.6465508 M43.88141,20.6056087 C43.9361587,20.6232941 39.7498371,16.0388567 39.6950884,15.9425698 C39.6950884,15.9425698 40.1154804,21.165645 40.5788891,22.2955428 C41.0911807,21.513457 42.5029155,21.0084419 43.88141,20.6056087 M52.9032164,25.4926622 L52.8152274,25.5378581 C52.8113168,25.5398232 52.8093615,25.5437533 52.8015402,25.5437533 C51.2939952,26.4948324 50.2615908,27.713157 50.2615908,27.713157 C48.4959447,24.9169056 47.2269476,23.8204135 46.8828129,23.496182 C42.9545924,21.7807024 42.4266583,25.6596906 42.4266583,25.6596906 C42.4266583,25.6596906 41.419673,24.5769538 40.7196716,24.9974722 C40.9445324,27.4223311 41.890903,33.5257441 38.5610078,34.5711452 C37.9001126,34.7794394 36.6799984,35.06044 36.2967573,34.0897105 C37.7417324,33.4667929 38.699835,29.499378 38.2070965,26.4850072 C37.1707815,27.5618489 30.6380864,27.563814 34.5545749,21.9791714 C34.6034577,23.8322038 35.7570914,25.1762909 37.9098892,23.7162664 C37.8023471,22.6079841 37.1883793,17.3397129 36.6799984,15.1349385 C36.4375397,10.3146964 41.0110129,12.3052815 41.0110129,12.3052815 C41.0110129,12.3052815 40.6746994,12.9930453 40.9406217,13.22492 C41.2006781,13.4548296 51.7182978,25.1939762 52.9032164,25.4926622 M97.2281689,17.6757347 C98.3544282,16.6244385 98.4834787,14.4727202 94.4262077,13.4076687 C94.1270451,14.2074398 93.806374,15.2921417 93.5072114,16.2137452 C93.7438041,16.9781456 95.7812385,18.5737578 97.2281689,17.6757347 M97.4412978,27.7956886 C97.4217447,28.2869485 96.6806817,28.4795224 95.7049813,27.9057309 C92.4278796,25.5083825 95.4938077,22.9734815 92.7896122,18.6857651 C92.1932422,19.1495144 90.9164239,23.8223786 90.8812283,23.7850428 C90.6837419,23.5865738 89.4245214,22.8811246 88.6228437,22.7239214 C88.2650217,22.6492499 91.6692188,14.3508877 92.0231301,12.9046186 C92.3222927,11.6823639 92.4904495,10.6212425 92.392684,10.3539972 C92.355533,10.2596752 102.777342,11.9928402 100.249125,18.0530223 C99.0114128,21.4446807 95.9337528,20.4464405 95.9337528,20.4464405 C97.4041469,22.6394247 94.8524656,25.8679848 97.4412978,27.7956886 M50.2029315,12.036071 C50.5157813,13.1816891 50.777793,13.9048237 51.311593,15.1192182 C52.3107571,15.0170361 53.7400897,14.863763 54.395119,13.6395434 C54.9034999,12.8142267 53.9082464,9.34003672 50.2029315,12.036071 M61.115524,21.1007987 C61.9621738,21.3935896 59.9873094,22.456676 58.4875856,22.1108291 C58.0104896,22.0007869 57.5118852,21.8553739 53.3157871,17.593203 C52.9051717,17.4694055 52.5473498,17.5283567 52.2403659,17.8093574 C52.8386911,19.6152288 54.125286,21.8946747 54.2152303,22.1127941 C54.2367387,22.1501299 52.4534948,22.7691173 52.0057285,23.5040422 C51.8219293,23.6533852 51.4386882,22.9106002 51.3604758,22.6924808 C50.6995806,20.7333363 48.6699674,14.8991337 48.6582355,14.859833 C48.2925923,13.6395434 47.0842099,11.73542 47.0529249,11.7138046 C51.1962296,7.88394237 55.456853,8.14725768 56.9507109,11.4976502 C58.1082552,15.8384227 55.4764061,15.5770724 55.5018252,16.4416898 C55.632831,16.6283686 57.0054596,18.0569524 57.4884215,18.4460302 C58.2568588,19.2909972 59.3576991,20.4896714 61.115524,21.1007987 M67.2473803,6.76190476 C65.3389965,7.39464751 60.6306068,6.44749843 57.5275277,8.11778209 C57.8403775,8.71515412 58.2764119,9.73304464 58.5208259,10.4129483 C59.1230618,9.80968118 60.022505,9.46186917 61.354072,9.65247801 C61.4459716,11.2657755 62.5448566,17.6757347 62.5057503,19.9040896 C62.4940185,20.4660909 62.6465328,21.1184841 62.6465328,21.1184841 C64.2362009,20.4032097 65.1571525,20.5270072 65.3585496,20.4582308 C64.695699,17.9469102 64.0367591,12.926234 63.8001664,9.8902478 C63.628099,8.88611257 66.064417,9.701604 67.4311796,9.18086851 C67.2806206,7.99791467 67.1535254,7.13133221 67.2473803,6.76190476 M87.0468628,8.907728 C86.5071969,15.4768554 85.3125016,18.186645 84.3876394,18.5717928 C83.5253471,18.9726608 82.2074673,18.5128416 81.9826065,17.1098033 C81.6208739,14.8421476 83.0697596,8.19834871 83.0697596,8.19834871 C81.9552321,8.19834871 81.2591413,7.89180253 80.2814856,7.64617258 C80.2267369,11.3424121 79.1454497,16.5595922 79.8102556,19.2182908 C80.095731,20.3776641 80.9345596,21.2285263 82.4401493,21.6352895 C89.0197719,23.5551332 89.2407221,10.4836898 89.6904437,9.6171073 C89.6904437,9.6171073 87.8817807,9.2103441 87.0468628,8.907728 M77.5460051,12.4899952 C77.4717032,15.256771 77.162764,20.5329023 77.162764,20.5329023 C77.162764,20.5329023 75.5300791,20.0986285 74.7108036,20.2440415 C74.8789604,18.1414491 74.9278432,15.8973739 74.8848263,14.1976146 C73.7800754,13.7535157 72.7320286,13.7535157 71.4943165,14.067922 C71.4512997,16.3729134 71.6937583,20.0888033 71.6937583,20.0888033 C71.6937583,20.0888033 69.8792294,19.8078027 69.0677752,20.0495025 C69.022803,16.5910328 69.3239209,8.38699251 68.7001766,6.92893313 C70.1568836,7.06059078 70.2116323,6.99377943 71.6077246,6.80710067 C71.6077246,6.80710067 71.572529,9.90400308 71.6350989,11.1341179 C72.3311898,11.6646786 73.5317509,11.5900071 75.0060556,11.48586 C75.4831516,11.1498382 75.2856652,6.83854131 75.2856652,6.83854131 C75.2856652,6.83854131 76.7306402,7.14312244 77.9175142,7.16473788 C78.2127662,7.170633 77.5929325,10.6742986 77.5460051,12.4899952" id="Text"></path>
    <path fill="#525252" d="M99.4965988,90.174248 C97.7345046,90.174248 96.2636307,88.7564805 96.2636307,86.9366594 C96.2636307,85.1083741 97.7345046,83.703303 99.4965988,83.703303 C101.260803,83.703303 102.729567,85.1083741 102.729567,86.9366594 C102.729567,88.7564805 101.260803,90.174248 99.4965988,90.174248 M99.4965988,83.0748299 C97.3398799,83.0748299 95.6326533,84.7846153 95.6326533,86.9366594 C95.6326533,89.0908197 97.3398799,90.8027211 99.4965988,90.8027211 C101.653318,90.8027211 103.360544,89.0908197 103.360544,86.9366594 C103.360544,84.7846153 101.653318,83.0748299 99.4965988,83.0748299 M99.2982313,86.504981 L98.6313789,86.504981 L98.6313789,85.4215526 L99.711849,85.4215526 C100.233091,85.4215526 100.688914,85.463874 100.688914,86.0140525 C100.688914,86.6044363 99.889113,86.504981 99.2982313,86.504981 M101.317781,85.9463382 C101.317781,85.0300795 100.610833,84.7951956 99.827915,84.7951956 L98.0067323,84.7951956 L98.0067323,89.1394893 L98.6313789,89.1394893 L98.6313789,87.1355701 L99.4375106,87.1355701 L100.545414,89.1394893 L101.260803,89.1394893 L100.161341,87.1355701 C100.741671,87.1144094 101.317781,86.7991148 101.317781,85.9463382" id="R"></path>
    <path fill="#525252" d="M70.30959,54.1695167 C70.4736098,54.7735538 71.340921,55.460688 71.5067356,55.460688 C71.6900985,55.460688 72.1179452,55.117422 72.1179452,55.117422 C72.1179452,55.117422 71.5481401,54.0640857 71.3982951,53.3814767 C71.195537,52.4589385 71.0203097,51.3345294 70.9378752,50.7756995 C71.0002678,50.6215596 71.0531066,50.4837214 71.0896226,50.3758403 C71.3021682,49.7523119 71.1209451,48.7652422 71.1209451,48.7652422 C71.1209451,48.7652422 70.9934177,48.8974391 70.93301,48.9238784 C70.8166693,48.9767572 70.4139513,48.9965867 70.4139513,48.9965867 C70.4139513,48.9965867 71.1209451,48.7123635 70.7763975,48.8203243 C70.4318498,48.9326916 70.0805902,48.85778 70.0805902,48.85778 L70.0805902,49.0979376 C70.0805902,49.0979376 70.1052008,49.2521673 70.1365233,49.4680887 C70.1365233,49.4680887 70.5235801,50.0475515 70.5638519,50.2722862 C70.599649,50.4551584 70.4765963,51.0147917 70.4765963,51.0147917 L70.1052008,52.2794748 L70.0157079,51.755094 L70.127574,51.2725755 C70.127574,51.2725755 69.6331258,51.3849429 69.4653266,51.3849429 C69.259493,51.3849429 68.6196188,51.2615591 68.6196188,51.2615591 L67.8813024,51.1315656 L67.8589292,51.2461362 L67.9260489,51.6956054 C67.9260489,51.6956054 67.7828602,51.5281561 67.760487,51.4686675 C67.7403511,51.4157888 67.7112659,51.2769821 67.7716736,51.0588573 C67.7895722,50.9927589 67.9551341,50.8319194 67.9551341,50.8319194 L67.9238115,50.9883523 C67.9238115,50.9883523 68.8679616,50.8583588 69.183424,50.8870014 C69.2662049,50.891408 69.4228175,50.9707261 69.5055984,50.9707261 C69.5950913,50.9707261 69.7628905,50.8781883 69.8523834,50.8870014 C69.9553002,50.891408 70.2349655,51.0412311 70.2349655,51.0412311 L70.2327282,51.0214016 C70.1163874,50.7944637 69.9441136,50.2722862 69.9441136,50.2722862 L69.1431522,50.2414402 C69.1431522,50.2414402 69.523497,50.1224631 69.6666856,50.0145023 C69.8613327,49.8668825 69.8143489,49.7567185 69.8143489,49.7567185 C69.8143489,49.7567185 69.4116309,48.7057537 69.5190223,48.30035 C69.6085152,47.9852809 70.8323305,47.6503823 71.2618964,47.5997068 C71.4945779,47.5710642 71.5616976,47.0576998 71.3581013,46.9343161 C70.0447931,46.1631679 67.1720713,46.4165451 67.1720713,46.4165451 C66.3800592,46.6148404 66.6731484,48.1284942 66.010901,48.3598386 C65.5522499,48.5228814 65.8408645,50.1268696 65.8408645,50.1268696 C65.8408645,50.1268696 65.3755014,51.0698737 66.0444608,51.9005105 C66.1117237,51.9841068 66.2018865,52.0752202 66.3080416,52.168852 C66.1004685,52.1028851 65.9328152,52.1114399 65.9077461,52.2955226 C65.8623301,52.658013 66.1407501,52.7524919 66.1407501,53.0243597 C66.1407501,53.2942994 66.1881407,53.6567898 65.8623301,53.6567898 C65.5365196,53.6567898 64.3715,53.4311974 64.0476641,53.1612577 C63.7218535,52.8874617 62.8846192,52.3880733 62.8846192,52.3880733 C62.8846192,52.3880733 63.0208672,52.9761562 62.8352539,53.3868501 C62.6496406,53.7936878 62.3238301,54.3393516 62.4186113,54.5688003 C62.5094434,54.7924646 63.2045059,55.1009671 63.8186094,55.7372535 C64.6894121,56.6280544 65.1751661,56.7861619 65.6391993,57.5149991 C66.1052071,58.2399799 67.1991407,59.4392833 67.384754,59.5781095 C67.4626771,59.6347717 67.532596,59.6119153 67.6181788,59.5325089 C67.3064002,59.9271421 67.0214892,60.2058993 66.7775836,60.0238649 C66.41108,59.7488769 65.262832,58.4726999 64.8924295,57.7891029 C64.5278753,57.1035693 63.0014268,55.6027542 62.1748443,55.0082378 C61.3443627,54.4175944 61.4028473,54.3749906 61.4944732,53.9644451 C61.5841496,53.5538995 62.4107322,52.4616935 61.5841496,51.9581942 C60.761466,51.454695 60.8862332,51.1758338 59.5703293,51.0402763 L59.1083008,51.0964359 C59.1083008,51.0964359 59.3071485,52.0763229 59.7184903,52.4829954 C60.1278827,52.8916044 59.9641257,54.2665446 59.9641257,54.2665446 L59.7184903,53.3738017 L58.9425944,52.2331823 L59.0673616,53.2944038 C59.0673616,53.2944038 59.0673616,54.9191571 58.9016552,55.6511676 C58.7378983,56.3812415 58.164749,57.1113154 58.164749,57.1113154 C58.4922629,56.1314284 58.4123339,55.56596 58.4922629,54.5938191 C58.5936362,53.4338343 58.4981113,52.1654035 58.5215052,51.7935887 C58.5721919,51.1080551 58.3655462,50.7904633 58.2875667,50.695573 L57.8937703,50.5987462 C57.9249621,50.695573 57.9542044,50.833067 57.9795477,51.0770705 C58.0633757,51.8904155 57.9990426,53.2634192 57.8820734,54.3265772 C57.7261144,55.7402482 57.4161459,56.5497201 56.9092792,57.3998592 C56.5427756,58.013741 55.5426887,58.993628 54.9656405,56.9680118 C54.6445397,56.543351 54.3123284,55.8409295 53.9780302,54.7460092 C54.8837244,55.2692499 55.5311738,55.5656489 55.5311738,55.5656489 L56.2736269,54.2969325 C56.2736269,54.2969325 56.1729218,55.5058766 56.2736269,55.9339238 L56.4592402,56.0226183 C56.8304667,55.5656489 57.2984492,54.8406681 57.2984492,54.8406681 C57.2984492,54.8406681 56.9469687,55.5540801 56.7870253,56.1479474 C57.0378007,56.2019353 57.3616367,56.1710851 57.5057831,55.7025469 C57.7545839,54.894656 57.946121,53.6028019 57.9283496,52.6406597 C57.9125527,51.9908764 57.8493652,51.341093 57.8078984,50.9689619 L57.4208749,50.9361835 L56.2736269,50.9323272 C56.3170683,51.2967458 56.7396347,52.2068281 56.7396347,52.2068281 C56.7396347,52.2068281 55.7128378,50.7973573 55.2942206,50.7973573 C54.877578,50.7973573 54.4135448,51.2523985 54.4135448,51.2523985 C54.4135448,51.2523985 54.7847714,50.7491538 54.2693983,50.5679086 C53.7579745,50.3885915 52.5969042,50.1147956 51.8978925,49.4765811 C51.8978925,49.4765811 50.4228592,47.6641289 50.2885858,48.5549299 C50.1345663,49.613479 49.5678534,50.6566031 49.5678534,50.6566031 C49.5678534,50.6566031 50.5946503,52.4786959 52.269119,53.6567898 C52.8670172,54.0785194 53.4528879,54.442016 53.9594281,54.7352514 C54.0022137,55.1591255 54.2207463,57.2425838 54.4392789,57.8278336 C54.6868638,58.4726999 55.0962561,59.6927173 55.7532333,59.6927173 C56.3302815,59.6927173 56.5310787,59.5436041 56.8527441,59.0594702 C56.8312998,59.2918545 56.8196028,59.5726521 56.8118049,59.8708786 C57.0535413,60.6067621 57.5760039,61.9971947 58.3421524,62.8628261 L59.4085219,64.0770339 C59.4085219,64.0770339 57.8820734,62.8628261 57.2679849,61.9526544 C57.1139754,61.7260797 56.9716628,61.52468 56.8429967,61.3542649 C56.8956328,62.0765926 57.0106526,62.7233955 57.2211972,63.0041932 C57.7729021,63.7362036 57.3128231,64.0983358 57.3128231,64.8303462 C57.3128231,65.5584836 57.40055,66.1045867 57.9542044,66.5616091 C58.5039598,67.0186315 58.320708,68.5736695 59.3285929,68.6646867 C59.3285929,68.6646867 59.6989955,68.4787793 60.4826893,68.4787793 C61.2624842,68.4787793 66.5007564,68.709227 68.1090834,69.0306919 C68.1090834,69.0306919 68.9824537,68.1166471 69.3509067,67.9791531 C69.7174103,67.8416591 70.4543165,67.7971188 70.8208201,67.1561255 C71.1892732,66.5170687 72.2907335,64.6463754 72.4271976,64.5553582 C72.5675607,64.4682141 72.7040248,64.6947888 72.6123989,64.9697768 C72.520773,65.2389553 72.2010571,66.0174426 72.6591866,65.7424545 C73.1212151,65.469403 74.0355246,64.3733239 74.0355246,64.0537955 C74.0355246,63.7478229 74.0686658,63.6490595 73.7080107,63.5599789 L74.1388474,63.2617524 C74.1388474,63.2617524 74.3844828,62.858953 74.3844828,62.6149495 C74.3844828,62.3709461 74.4663612,61.0715307 74.4663612,61.0715307 L74.7899761,62.3709461 L75.2831964,61.9681467 L75.0356115,60.9921327 L74.8699051,59.9367208 C74.8699051,59.9367208 74.6281687,58.7999744 74.4663612,58.0718371 C74.2987053,57.3398266 73.2381843,54.9830628 73.2381843,54.9830628 L72.5383184,54.7835996 C72.5383184,54.7835996 73.2927699,55.3413219 73.2381843,57.0106156 C73.2167399,57.6729107 73.1972451,58.4494615 73.1758007,59.2415046 C73.1602048,59.2143931 73.1426594,59.1969642 73.1231645,59.1950277 C72.8853271,59.1621066 72.8872766,58.8038475 72.7040248,58.8038475 C72.520773,58.8038475 72.980852,58.3022848 72.8872766,57.934343 C72.7976002,57.5702743 72.980852,56.8828042 72.7508125,57.0261078 C72.520773,57.1597288 72.5675607,56.7511198 72.520773,56.4277183 C72.4759348,56.112063 72.4271976,55.7925347 72.4271976,55.7925347 C72.4271976,55.7925347 71.5557768,55.837075 71.4173632,56.383178 C71.4054573,56.430485 71.3949073,56.4726483 71.3849526,56.5106389 C71.3945818,56.4234952 71.4011095,56.33363 71.4011095,56.2501388 C71.4011095,55.9339238 71.0259337,55.428751 70.8403204,55.1144641 C70.6566818,54.7924646 70.3762872,54.9293626 69.4896876,55.0662605 C68.6070372,55.2012304 68.6998438,54.7924646 69.1658517,54.6112194 C69.6318595,54.4338304 70.281506,54.2043817 70.281506,54.2043817 C70.281506,54.2043817 70.2935636,54.1911825 70.30959,54.1695167 Z M70.2900287,53.8395968 C70.2304641,53.8114543 70.1390272,53.7936878 70.003086,53.7936878 C69.3514649,53.7936878 67.3966016,53.8843104 67.0234005,53.6567898 C66.6541485,53.4311974 66.5593672,53.4755446 67.3966016,53.4311974 C68.233836,53.3868501 68.8439903,53.4311974 68.9782638,53.2942994 C69.0677218,53.2094072 69.1193932,53.0475798 69.1091667,52.9190224 C69.6194885,52.7726612 70.127574,52.6121701 70.127574,52.6121701 C70.127574,52.6121701 70.2395374,52.371633 70.3891334,52.0405045 C70.3232471,52.7352597 70.3082302,53.4703938 70.2900287,53.8395968 Z M44.824757,46.0588979 C44.9496191,45.8313676 44.7199808,45.5197042 44.7199808,45.5197042 L44.3493117,44.874364 C44.3493117,44.874364 44.6292851,44.4134068 44.5346462,44.044641 C44.4639541,43.7587376 43.6601846,44.2164477 43.3090711,44.4322568 C43.2884874,44.3706094 43.2700664,44.3070637 43.254069,44.2415814 C43.6641009,44.0839197 44.4791587,43.7504719 44.5760507,43.5562225 C44.7061792,43.3012249 44.962493,42.8500753 44.6391434,42.7186534 C44.3157937,42.5931162 43.6710662,42.9775741 43.6710662,42.9775741 L44.5760507,42.2066967 C44.5760507,42.2066967 44.4459222,41.4318963 44.1876369,41.5613566 C43.9273799,41.6888554 42.8252309,42.7186534 42.8252309,42.7186534 C42.8252309,42.7186534 42.7844215,42.7666554 42.7316993,42.8364902 C42.6726285,42.5068633 42.7120655,42.1462937 42.9922198,41.8397485 C43.5138773,41.2628003 43.7366477,41.0232268 43.8278453,40.9298826 L43.8613612,41.0942296 L44.428662,40.7669551 L42.2471858,29.1206301 L41.6746975,29.5696736 L41.5769054,29.0665139 C41.5769054,29.0665139 39.7148577,28.5051387 40.246589,27.0880562 C40.4403052,26.5734623 40.6478583,26.5052396 40.7763435,26.4233724 C40.8257609,26.0666653 41.013547,25.2830791 41.6994606,25.1466337 C42.6324611,24.9634071 42.8182706,26.0042902 42.8182706,26.0042902 C42.8182706,26.0042902 44.0023115,25.9009816 44.0596357,26.9847476 C44.0991696,27.7098572 43.6306926,27.9320682 43.6306926,27.9320682 C43.6306926,27.9320682 44.8008967,27.4213727 47.8529154,28.2127558 C49.8928658,28.7409943 51.2686462,28.8228615 57.1730374,28.3959824 C63.0734751,27.9671542 65.8052691,27.9028299 69.2229766,28.2731816 C72.6387074,28.6396348 73.6329855,29.6200922 74.4394775,29.7409438 C75.2499229,29.8637446 76.17897,30.2301979 76.4280337,31.1502294 C76.6790741,32.0702609 76.6158198,33.4171715 76.6158198,33.4171715 C76.6158198,33.4171715 85.0009645,34.0896522 92.7733335,41.5025335 C100.539772,48.917364 99.2470131,48.5840475 101.035923,51.0576069 C103.026456,53.8157523 104.265844,55.4102138 104.265844,55.4102138 C104.265844,55.4102138 103.502564,55.4334074 101.710415,54.6060359 L96.2616285,47.4615586 C88.237539,37.7207846 80.8587299,35.3698304 78.1274983,34.9205541 C78.1274983,34.9205541 77.1586031,34.6881699 76.3066772,34.5506758 C75.4547513,37.3857639 75.6399526,42.4362487 75.6399526,42.4362487 C74.8757536,39.5837318 75.34558,34.3763876 75.34558,34.3763876 L75.3475295,34.3763876 C75.3221861,34.0723515 75.3650749,32.761317 75.3221861,32.4069309 C75.1681766,31.1249444 74.3630384,30.9564658 74.3630384,30.9564658 C72.4252481,30.8170352 69.6004411,29.2600606 66.2063838,29.2232664 C60.3910634,29.1632338 58.6384744,29.3491413 52.9732645,29.7112734 C47.0877626,30.0869613 45.8829795,28.9889456 44.8380543,28.9889456 C43.8154855,28.9889456 43.4755416,28.9889456 43.2840752,29.225369 C43.2447359,29.1628266 43.2234932,29.1308381 43.2234932,29.1308381 L45.4591365,40.6156387 C45.9236601,40.7988653 47.0444467,41.4440569 47.0444467,41.4440569 C46.7056662,36.1500918 44.8287113,32.0287127 43.8373799,30.1853721 C44.6356768,31.354134 46.0902673,33.7303142 47.0741162,38.098409 C47.5244477,40.1027234 47.6726088,42.3336124 47.6882046,44.2875768 L51.4877553,48.298142 C55.0689633,47.3105088 60.2584983,46.0149665 63.7773228,45.7322323 C64.1379779,45.7051208 64.4810876,45.5947383 64.4810876,45.5947383 C64.4810876,45.5947383 65.2589331,43.702743 65.7014667,43.3870877 C66.4052315,42.885525 67.2786018,42.7344752 67.2786018,42.7344752 L68.3820116,42.0082744 L69.1150188,43.0094633 C69.1150188,43.0094633 70.6785076,43.4703587 70.9572842,44.2875768 C71.1522329,44.8840297 71.304293,45.3274964 71.372525,45.5327691 C71.6296301,45.5313296 71.8816575,45.5302177 72.1267865,45.52938 C72.1278189,45.7362195 72.149791,49.2630059 72.4528979,50.6307279 C72.7612625,52.0419627 73.1368348,53.8157523 73.1368348,53.8157523 C73.1368348,53.8157523 74.4394775,53.7553265 76.0544382,55.0418113 C77.6713755,56.3282961 79.5334232,57.6771559 79.5334232,57.6771559 C79.5334232,57.6771559 82.0220836,57.0144213 81.2491954,56.5992376 C80.5000276,56.1976984 81.3934942,53.1042873 81.381634,54.727987 C81.3697739,56.3497375 83.0776393,56.1976984 83.0776393,56.1976984 C83.0776393,56.1976984 85.6868781,55.5330146 86.5546476,55.0418113 C87.4263706,54.550608 87.9877523,53.9405024 87.9877523,53.9405024 L89.0413313,54.186104 C89.0413313,54.186104 90.415135,54.0009282 90.8460548,53.6949007 C91.2789512,53.3869241 92.4036913,52.1667127 92.5222931,53.1471701 C92.6448482,54.123729 92.5222931,56.8175502 93.706334,58.0455584 C94.8883982,59.2696681 96.8710244,59.3339924 97.3058975,62.8835209 L100.539772,66.6825494 C100.539772,66.6825494 102.152756,66.9924753 101.968923,68.3998117 L101.783114,69.8032497 C101.783114,69.8032497 101.783114,70.2983514 101.160455,70.8480313 C100.539772,71.3996603 98.9880659,72.1929926 98.6124936,71.5244104 C98.2408748,70.8480313 97.9918111,70.7856562 97.7447241,71.1521095 C97.4936837,71.5244104 97.4936837,72.0760395 97.8060016,72.5029185 C98.1183196,72.9297975 98.057042,72.9921726 97.8060016,73.5457509 C97.5589146,74.09738 96.6891684,75.6275172 95.3212947,75.8107438 C93.953421,75.9939704 94.3902708,75.9939704 94.0779529,76.3019471 C93.7676116,76.6060253 92.028119,77.1576544 91.0931418,77.278506 L91.9035872,81.321187 C91.9035872,81.321187 94.759913,82.1788435 94.2024847,86.1630479 C94.2024847,86.1630479 95.5051274,88.0635368 95.5051274,89.1063692 C95.5051274,90.1472523 95.7541911,92.6558977 95.7541911,92.6558977 L104.886527,90.6345572 C104.886527,90.6345572 108.553298,89.3500216 110.605108,91.2505105 C112.650989,93.1471009 113.459457,93.636355 113.459457,93.636355 C113.459457,93.636355 118.679912,97.7433602 118.865721,98.9089934 C119.055484,100.068779 118.926999,99.5190991 119.549658,100.068779 C120.170341,100.620408 120.854277,101.051186 120.729746,102.275295 C120.603237,103.501354 120.170341,105.462269 119.921277,105.645496 C119.921277,105.645496 116.628101,103.314229 116.381014,102.768448 C116.131951,102.21487 116.566824,101.294838 116.31776,101.234412 C116.07265,101.170088 115.570569,100.928385 115.570569,100.559982 C115.570569,100.19158 114.951863,99.7647007 114.639545,99.3962983 C114.33118,99.029845 112.96726,96.8233287 112.465179,96.4568754 C111.972982,96.0865238 110.541854,94.6772381 110.294767,94.4355349 C110.043727,94.1899333 108.428766,93.8195816 106.938337,94.5563865 C105.443955,95.2931915 98.6124936,98.4177901 96.7484692,98.5990675 C94.8883982,98.7822942 94.9457224,99.2130716 94.9457224,99.2130716 C94.9457224,99.2130716 94.0146986,99.9459781 92.8365877,99.2754467 C91.6545235,98.5990675 90.7847772,97.8642118 90.7847772,97.8642118 C90.7847772,97.8642118 88.483903,100.867959 86.6772028,101.480014 C84.8784094,102.092069 85.5010686,102.21487 85.5010686,102.21487 C85.5010686,102.21487 86.3688382,107.914387 85.9359418,109.625802 C85.9359418,109.625802 87.3018388,110.914236 87.6181101,113.298131 C87.9284514,115.695671 87.9877523,117.652687 88.7942443,119.794879 C89.6046897,121.94097 92.275206,127.088858 92.5222931,127.761339 C92.7733335,128.43382 93.0836747,127.702862 93.3327384,128.252542 C93.5798254,128.802222 94.8883982,130.702711 93.7676116,131.191965 C92.6448482,131.685117 89.3892298,131.215356 88.4206487,129.90548 C87.9284514,129.229101 88.236816,127.819815 88.236816,127.819815 C88.236816,127.819815 87.3018388,127.702862 87.3018388,126.53528 C87.3018388,125.373545 87.0567284,124.393088 86.8669656,123.410681 C86.6772028,122.430224 85.8726875,119.058074 84.7558542,117.590312 C83.6350676,116.120601 79.9702731,108.524493 78.8514631,105.462269 C77.7366065,102.396147 76.9894154,101.786041 76.4280337,101.846467 C76.2980079,101.860512 75.7720972,101.960805 75.0069827,102.093374 C73.6046496,101.536462 69.9232366,99.9343855 68.5974916,97.989361 C66.9474829,95.5637469 67.4849708,92.5077471 67.4849708,92.5077471 L65.9258607,94.7787015 C65.9258607,94.7787015 65.6729253,95.5304656 65.6729253,97.6428447 C65.6729253,100.341023 70.3144208,101.946579 72.3115049,102.512518 C69.7756252,102.853905 66.7404248,103.090062 65.2438874,102.518948 L63.1940536,105.095816 C63.1940536,105.095816 63.1940536,105.766347 63.6289267,106.748754 C64.0211156,107.630725 64.7622122,108.954159 63.0688376,109.036416 C63.2194481,108.623616 62.7110517,107.841528 62.3669797,107.249373 C62.0172174,106.650311 61.4757774,104.853125 60.8691275,104.600579 C60.8691275,104.600579 62.2108711,104.353906 61.730689,103.218429 C61.730689,103.218429 59.9640928,103.786168 58.9978003,105.105671 C58.2330657,106.143262 59.4760064,106.556341 59.4760064,106.556341 C59.4760064,106.556341 59.9818774,106.838252 60.3612805,107.817112 C60.6084823,108.444529 61.5951911,108.942513 62.3078112,109.107391 C62.14968,109.323332 61.8955522,109.915631 62.7611571,110.914236 C63.8799671,112.200721 66.3646741,114.956917 69.968191,117.590312 C73.5697312,120.225657 73.5084536,121.206114 73.5084536,121.206114 C73.5084536,121.206114 74.7517954,121.26654 75.2499229,122.551075 C75.7460736,123.841459 76.6158198,124.76149 75.0621367,125.065568 C73.5084536,125.373545 70.7134054,125.309221 70.6521278,123.901884 C70.6046871,122.775236 70.7509626,122.551075 70.8102635,122.508193 C70.6521278,122.588111 69.746801,122.962361 68.7861267,121.576466 C67.7325477,120.04243 64.9355228,116.181027 61.7649023,114.771741 C58.5982352,113.364405 56.9872279,111.651041 57.0445521,110.302181 C57.1117598,108.95527 57.4201244,104.419437 57.4201244,104.419437 C57.4201244,104.419437 57.3023267,104.26796 57.1413786,104.021477 C58.6357235,102.594335 61.1733496,101.683909 61.1733496,101.683909 C61.85751,99.22024 63.4643999,96.3838819 64.7065356,94.5930141 C65.9466996,92.8060693 66.8122513,91.6350418 67.5555611,90.0305183 C68.2988708,88.4299179 68.2416932,88.0572291 68.2416932,88.0572291 L67.4964118,84.2381494 C65.7613651,83.4966948 62.9714889,86.0878629 62.5377272,86.5802044 C62.1059372,87.072546 62.3267613,87.3765816 62.3267613,87.3765816 L63.0365531,89.6009454 C63.0365531,89.6009454 62.1059372,91.2054688 60.7415596,92.1293448 C59.3791536,93.0551823 59.2529684,97.5549094 58.8803277,98.7887056 C58.5228887,99.9848268 57.051754,101.409549 56.3424551,102.337244 C56.2235835,101.888694 56.1980498,101.434617 56.3665454,101.051186 L54.996695,100.745158 C54.996695,100.745158 53.2789461,102.943878 52.2490875,103.419487 C51.2172521,103.889249 49.8493784,104.160191 49.8493784,104.160191 C49.8493784,104.160191 49.0290496,106.119156 47.4516461,106.253652 C45.8762194,106.393996 41.9010836,106.253652 41.6282995,107.271145 C41.3515621,108.28084 41.2843544,109.699872 41.8299225,111.660787 C42.379444,113.619752 44.3640469,118.081515 44.3640469,118.081515 L44.1604472,118.691621 C44.1604472,118.691621 44.9867061,119.570719 45.0539138,120.24125 C45.1211215,120.91763 45.3939055,122.06572 45.3939055,122.06572 C45.3939055,122.06572 45.670643,123.219658 43.8916165,122.880494 C42.1046833,122.543279 40.8712249,122.679724 40.9404093,121.120348 C41.0056403,119.570719 41.1459857,118.826117 41.1459857,118.826117 C41.1459857,118.826117 39.5033513,118.214062 39.5725356,116.461714 C39.6377666,114.701569 39.7049743,114.227909 39.1594061,112.808877 C38.6118613,111.393744 34.9095096,104.228413 36.8308582,103.419487 C38.7482534,102.604714 40.1892648,102.267499 40.6676252,101.996557 C41.1459857,101.727565 42.5830437,100.645748 42.2450287,100.103865 C42.0624849,99.8209977 41.6324491,99.4256244 41.1567128,99.0726935 C43.3919935,98.5282433 48.0550984,97.6642067 55.1377604,97.6642067 C55.2327553,97.6642067 54.1561466,92.4879687 54.1561466,92.4879687 C54.1561466,92.4879687 49.0561087,93.165856 47.6272273,93.2285508 C46.1963669,93.2932048 47.0038234,91.5690982 47.0038234,91.5690982 C48.9215326,85.1722712 51.9791805,82.1472479 51.9791805,82.1472479 L51.3577556,78.8929968 C51.3577556,78.8929968 50.2811469,78.5403387 47.4392166,81.4066658 C41.4703714,87.4234057 39.1410176,95.3640918 37.9575397,97.454571 C37.0011278,99.1531374 38.6785729,99.4459757 39.3524241,99.4959052 C39.3444523,99.5071746 39.3361246,99.5188012 39.3274253,99.5307944 C39.1218489,99.8134312 38.9162725,100.174037 38.5070964,100.213021 C38.477916,100.216109 38.4523129,100.21855 38.4298627,100.220588 C38.4702813,100.164714 38.4922432,100.127191 38.4922432,100.127191 C37.6741551,99.9842769 37.1327151,98.9877978 37.1327151,98.9877978 C35.8700139,99.3401873 36.4885201,99.7630546 37.1880447,100.460003 C37.6348538,100.903912 38.0415801,100.647324 38.2780205,100.402491 C38.2729025,100.455749 38.2585832,100.526352 38.2244289,100.620408 C38.0603631,101.062881 37.651187,101.949776 37.0779452,102.230463 C36.8620293,102.33692 36.5809987,102.431882 36.27303,102.502266 C36.6695329,102.221474 36.8022206,101.758156 36.9805586,101.309653 C37.2710392,100.604874 36.2197762,101.090388 35.7889955,99.6749573 C35.7889955,99.6749573 35.0479736,99.5986062 34.0559923,99.5477055 C33.0462265,99.4968048 33.0422744,99.4419887 32.5759247,99.3010329 C32.8209559,99.6847459 33.2062873,99.8472366 33.2062873,99.8472366 C33.2062873,99.8472366 31.6096321,100.430637 31.2974149,100.826096 C31.2025641,100.945517 31.1413063,101.417328 31.1413063,101.417328 C31.1413063,101.417328 31.0107221,101.593131 30.9448698,101.783396 C30.9290852,101.757253 30.9182091,101.731185 30.9126302,101.706123 C30.8730962,101.546287 30.5844986,101.66519 30.542988,101.46442 C30.5034541,101.2656 30.4619435,101.062881 30.6655432,100.942029 C30.8730962,100.821178 30.8968166,100.055135 31.0766959,99.8134312 C31.3791304,99.4079936 32.8675826,98.8914504 32.8675826,98.8914504 C32.8675826,98.8914504 31.7665629,98.0065048 32.5473578,98.1215088 C33.3993138,98.248208 35.9354149,98.4041456 35.9354149,98.4041456 C35.9354149,98.4041456 36.5501673,98.078626 36.8328349,98.2423604 C37.0641083,98.3729581 37.3072419,97.6342039 37.7322316,97.3963992 C37.4871213,96.9578248 37.4831679,96.2775473 37.9931555,95.1742891 C39.4341669,92.063335 38.8174377,92.4005499 38.8174377,90.7086275 C38.8174377,89.0206035 39.0902218,84.2937465 43.1305885,80.9781244 C43.1305885,80.9781244 42.4486284,77.9373421 41.1459857,78.3408305 C39.8472964,78.7521158 38.7482534,80.6409094 39.2246371,82.7363202 L38.3351239,81.7889996 C38.3351239,81.7889996 38.2698929,83.7518635 37.1056189,84.2917973 C37.1056189,84.2917973 37.7223481,80.6409094 37.3072419,80.3699679 C36.9000425,80.1029249 36.0737836,80.1691983 36.0737836,81.6564527 C36.0737836,83.1437071 37.2380576,86.7926458 35.049855,88.1434548 C32.8557224,89.4942638 34.0199964,90.0341976 32.715377,90.5078579 C31.414711,90.9815182 29.7681231,90.7768502 29.1533707,91.3167839 C28.5346648,91.8586669 26.4136699,93.2776986 22.6460872,92.7397141 C18.8745511,92.1978311 18.394214,91.7923935 18.394214,91.7923935 C18.394214,91.7923935 17.9158536,91.3206824 20.1060328,89.0206035 C22.2981887,86.7244231 20.521139,87.8023414 19.6276723,88.6132167 C18.7361824,89.4279904 18.8745511,88.2116775 20.7919463,86.3170362 C22.7113182,84.4282427 22.8477102,85.0325007 22.8477102,83.8161878 C22.8477102,82.6018241 22.2981887,80.9099017 25.2493959,78.4129517 C25.2493959,78.4129517 26.1408859,72.3333364 33.1957141,71.7232308 C40.2564725,71.1150743 42.8617579,75.2357241 42.8617579,75.2357241 C42.8617579,75.2357241 45.6014586,75.9764274 46.2181878,77.465631 C46.2181878,77.465631 49.5111143,76.6511396 51.2283296,76.8309639 L55.9130913,99.5059524 L56.5544726,99.0779781 L46.6140372,51.4217739 C46.5207476,51.4770991 46.3936457,51.5531697 46.2419653,51.644341 L46.2003975,51.4532984 C46.1845839,51.4630445 46.1687704,51.4727906 46.1509801,51.4825367 C46.0316808,51.5536873 45.9378891,51.4962214 45.8641562,51.3604283 L46.2416851,51.1196743 L46.0077467,49.3651731 L45.6031777,49.6883072 C45.5948673,49.4650357 45.5936116,49.289398 45.5935004,49.2159402 C45.7486916,49.0776208 45.9215796,48.9504247 46.0837767,48.873293 L45.504779,46.0982375 L45.1087132,46.4118447 L45.0539138,46.1592186 C45.0539138,46.1592186 44.9644987,46.1276855 44.824757,46.0588979 Z M48.0603163,50.4399526 C48.2835875,50.2995643 48.5254148,50.0664828 48.7756524,49.7153957 C49.3454575,48.9131339 49.3691172,47.5891079 49.3691172,47.5891079 C49.3691172,47.5891079 49.3691172,47.2203421 48.8150853,46.9418062 C48.2551384,46.6632704 48.4385013,46.1709288 47.880526,45.9826229 C47.3225508,45.79824 46.6758516,44.6919427 46.6758516,44.6919427 C45.0945931,45.3353213 46.6758516,49.407437 46.8592145,50.0547386 C46.9683622,50.434794 47.2935986,50.6985157 47.731022,50.5866818 L47.8805892,51.9172127 C48.8135897,51.5507594 49.6536855,49.6229814 49.1852086,50.2642746 C48.9005708,50.6601071 48.4018513,50.5687721 48.0603163,50.4399526 Z M70.7072179,73.4771161 C70.7117329,73.4777792 70.7160149,73.4784767 70.7200496,73.4792117 L70.9152424,73.1575224 L70.6490704,72.9809856 L70.7634258,72.7495262 L71.6802402,72.5396436 L71.9779585,72.4082217 C72.1396333,72.1296859 72.218499,71.8766498 72.2993364,71.5510374 C72.5181889,70.6918916 71.8675464,68.7617558 71.0808605,68.6185649 C71.0808605,68.6185649 69.7145112,68.9049468 69.2827212,69.3325582 C69.2137136,69.4031729 69.1525927,69.4757492 69.0914717,69.5463639 L69.7854904,71.4784612 L70.3612104,72.4788364 L69.5705812,71.7648431 L69.0756986,70.5761619 L68.7267176,71.1410797 C68.7661505,71.3313472 68.807555,71.5255377 68.8509312,71.6942284 C68.8647327,71.7452279 68.8883924,71.8040735 68.9041655,71.8589961 L69.2827212,71.2646555 L68.9771164,72.0826094 C69.0461239,72.2807229 69.1131598,72.439606 69.2255435,72.6337965 L69.5705812,72.194416 L69.328069,72.7769875 C69.5055169,73.0457157 69.7223978,73.2850212 70.0023712,73.408597 C70.0781665,73.4436448 70.241242,73.4539657 70.3970827,73.4601091 C70.3777232,73.4784794 70.3567545,73.5018879 70.3334483,73.5312006 C70.0839139,73.8391098 69.3509067,74.8693467 69.3509067,74.8693467 C69.5965421,74.5072146 69.7778445,73.8391098 69.8421775,73.4692315 C69.9006621,73.1070993 69.1072208,73.1671319 68.6744347,72.7430307 C68.2513959,72.3189294 67.9414275,72.3750889 68.1246793,71.890955 C68.3079311,71.399075 68.1246793,70.9749737 68.1246793,70.9749737 C68.1246793,70.9749737 67.3877731,70.9188141 66.8380177,70.8549085 C66.2882623,70.7910028 65.9821928,71.3429154 65.9821928,71.3429154 C66.2258787,70.7910028 65.7969915,70.7910028 65.0016007,70.610905 C64.2042605,70.4308072 63.7714743,70.610905 62.4302271,70.610905 C61.0772829,70.610905 60.7107793,70.5508724 59.5469355,70.1868037 C58.3811421,69.8188619 57.8313867,70.6728741 57.40055,70.8549085 C56.9736123,71.0369428 55.6908497,72.9850976 56.176272,72.2530871 C56.6675428,71.5230132 56.176272,71.2209137 56.176272,71.2209137 C56.176272,71.2209137 55.8058695,71.157008 54.6420256,71.157008 C53.4801312,71.157008 52.2578027,73.3491663 52.2578027,73.3491663 C51.4604624,74.9313159 52.6847404,76.1513333 53.9733515,78.3396185 C55.2580636,80.5317768 56.0534544,81.7498577 56.9736123,82.4179624 C57.8918208,83.0880037 57.5857513,83.211942 57.7729021,83.3300707 C57.9542044,83.454009 60.221458,84.9761259 60.9583642,85.2782255 C61.6933209,85.5841981 62.7947812,84.9761259 64.5707641,83.6341068 C66.3506459,82.2959607 68.2513959,82.5419007 68.2513959,82.5419007 C68.2513959,82.5419007 71.6181604,75.9673624 71.8014122,75.3612268 C71.984664,74.7492815 72.0334012,74.4103878 71.9749166,73.9262539 C71.912533,73.4363104 71.6688471,73.5583121 71.1171422,73.5583121 C70.9225363,73.5583121 70.7977877,73.5171099 70.7072179,73.4771161 Z M71.2259058,56.8498315 C71.1289963,56.9511247 70.9628439,57.053884 70.6296232,57.283027 C70.484699,57.2510504 70.2160361,57.2124368 69.9556954,56.9307725 C69.5370782,56.4757313 69.1658517,56.2944861 69.7720567,56.0226183 C70.3762872,55.7468942 70.3762872,55.7468942 70.7494884,56.2019353 C70.9796359,56.4840449 71.1384417,56.7150191 71.2259058,56.8498315 Z M50.9875668,75.6656337 C49.9567256,75.5493535 45.5324107,74.9196697 42.6957154,72.4444419 C39.465794,69.6219723 39.3432389,66.9924753 39.0269675,64.785959 C38.7186029,62.5794427 38.099897,61.4157587 38.9676666,60.6165787 C39.8354362,59.8232465 40.9562229,57.4276558 41.0155237,56.5738977 C41.0798635,55.7260359 41.0807425,53.7498619 46.2058574,52.5214025 L50.9875668,75.6656337 Z M85.0497662,48.3921956 C83.2765549,48.5695831 82.0234751,48.886941 81.1503606,49.0382156 C80.5189869,49.1476066 79.490939,49.5627 78.5125239,49.4232 C78.8487641,49.3853666 79.2318744,49.3161994 79.6675932,49.2102502 C81.6977139,48.7179115 83.4736467,48.4625903 85.0497662,48.3921956 Z M76.3815603,47.4514738 C75.5867048,45.8995681 75.6828193,45.6075895 75.6828193,45.6075895 C75.6828193,45.6075895 75.3297186,45.564829 74.7681137,45.529567 C75.3905994,45.5317649 75.7647197,45.5347057 75.7647197,45.5347057 C76.9889977,45.6567074 76.8681295,46.396464 76.8681295,46.396464 L76.79015,46.559133 C76.8199634,46.4716033 76.5464961,46.899379 76.3815603,47.4514738 Z M90.0079357,73.235825 C90.0079357,73.235825 92.340437,73.1422625 93.0836747,73.0525984 C93.8308658,72.9629343 94.2973661,71.3996603 94.2973661,71.3996603 L90.2886265,68.6454134 L89.1678398,70.6648046 L90.0079357,73.235825 Z M63.3482359,49.8042589 L65.1233089,45.5783512 C59.3434496,46.3151562 52.2767612,48.02852 52.7254712,48.2409849 C56.5464247,50.0829972 63.3482359,49.8042589 63.3482359,49.8042589 Z M58.4922629,62.4077402 C58.4922629,62.4077402 58.0341334,61.8016046 57.7280639,61.195469 C57.4200449,60.5854602 57.1100764,58.9820088 57.1100764,58.9820088 L57.4200449,57.7038953 L57.7280639,59.8263383 L58.4922629,62.4077402 Z M62.1163596,69.8188619 C62.978033,69.7627024 67.6977416,70.2468363 67.6977416,70.2468363 L67.9414275,69.7568928 C67.9414275,69.7568928 64.3270782,69.3928241 63.0404166,69.3327915 C61.753755,69.2746954 60.221458,69.4547932 60.221458,69.4547932 C59.7945203,69.7007332 60.3423263,69.7568928 60.3423263,69.7568928 C60.3423263,69.7568928 61.2624842,69.8788945 62.1163596,69.8188619 Z M59.4085219,82.2920876 C58.3421524,81.6820789 56.8098554,80.0147218 56.0476059,78.7985774 C55.2814574,77.5882427 53.9051194,75.918949 53.9051194,75.918949 C53.9051194,75.918949 55.2814574,76.6741979 55.8916469,77.4333198 C56.5037859,78.1924418 56.9638649,78.6475277 57.4200449,79.8617355 C57.8820734,81.0759433 59.4085219,82.2920876 59.4085219,82.2920876 Z M42.1214821,28.2650004 C43.2871485,27.8143817 43.2416301,27.2520879 42.8695669,26.9738798 C42.4975036,26.6995901 42.0304454,26.7897138 42.0304454,26.7897138 C42.0304454,26.7897138 41.7494188,25.8649658 41.2843397,26.1431739 C40.8172815,26.4194228 40.9102974,27.1580457 40.9102974,27.1580457 C40.9102974,27.1580457 40.3462652,27.4440906 40.4412601,27.8986278 C40.5283388,28.31594 40.9736273,28.7097416 42.1214821,28.2650004 Z M57.0515115,97.5897566 C57.2395222,97.5897566 58.9652626,97.5584092 58.9652626,97.5584092 C59.1493152,96.9471351 59.3195144,94.3374648 59.505546,93.3558996 C59.6935567,92.3684567 60.4396624,91.6886102 60.4396624,91.6886102 L55.8363686,92.1842908 L57.0515115,97.5897566 Z M74.7462878,98.0325479 C74.7462878,98.0325479 77.6238412,98.073682 77.2399035,94.284566 C76.8163847,90.0703011 76.6659761,84.0535612 72.6959816,77.1590942 L72.1952794,78.2680082 C72.1952794,78.2680082 74.5622352,84.0261322 74.7502459,87.8446363 C74.7502459,87.8446363 75.3261524,91.0655808 72.3239183,90.6933305 C70.6298428,90.4817356 69.0248251,90.7619029 69.0248251,90.7619029 C69.0248251,90.7619029 69.7076008,92.0589012 69.2108567,93.0443849 C68.7160917,94.0318277 68.7081755,93.8790092 68.5261019,94.3982003 C68.0234207,95.8382211 69.2009614,97.6642067 69.2009614,97.6642067 L74.7462878,98.0325479 Z M69.0245741,50.0211122 C68.8836228,50.0034859 68.8097912,50.0806007 68.711349,50.0651778 C68.6129068,50.043145 68.6643652,49.9153547 68.9037587,49.9065416 C69.1476268,49.9043383 69.2773915,49.988063 69.2773915,49.988063 C69.2773915,49.988063 69.1700001,50.043145 69.0245741,50.0211122 Z M68.1117466,50.3119452 C68.1117466,50.3119452 68.3421908,49.7611251 68.5614484,49.5540167 C68.7829433,49.3380952 68.6733145,49.6421479 68.6733145,49.6421479 C68.6733145,49.6421479 68.1967649,50.1202598 68.1117466,50.3119452 Z M67.7985215,48.8489669 C67.5479414,48.818121 67.4427873,48.5757601 67.4427873,48.5757601 L66.8677954,48.4854256 L67.2033938,48.386278 C67.2033938,48.386278 67.8074708,48.2584877 68.0423896,48.245268 C68.2795458,48.2276418 68.5077527,48.3025533 68.5077527,48.3025533 L68.6442293,48.6682979 L68.2258501,48.6594848 C68.2258501,48.6594848 68.1475438,48.8952358 67.7985215,48.8489669 Z M67.4808217,47.7803758 L68.163205,47.6503823 L68.6889758,47.868507 L68.7337222,48.1681532 L68.2683592,48.0315498 L67.6128237,47.9852809 L66.8812194,47.9015563 L67.4808217,47.7803758 Z M69.9866227,48.3598386 C71.0605374,48.245268 71.1321317,48.4611895 71.1321317,48.4611895 L71.2484725,48.0910384 C71.2484725,48.0910384 70.8949756,48.0293465 70.4229006,48.1306974 C69.9441136,48.2342516 69.9866227,48.3598386 69.9866227,48.3598386 Z M62.6060828,88.7273913 C62.6060828,88.7273913 62.4835672,88.1753145 62.2345838,87.376565 C61.9875765,86.5739001 60.7426598,86.1432019 59.0057045,85.1604268 C57.2647972,84.1776518 53.3522017,80.9728654 53.3522017,80.9728654 C53.3522017,80.9728654 55.3104755,89.2657641 55.5574828,90.1858921 C55.8064661,91.1079779 56.3400019,91.2156524 56.6522191,91.2156524 C56.9585081,91.2156524 61.1062545,90.7340535 61.4164957,90.4893386 C61.7247608,90.2407083 62.6060828,88.7273913 62.6060828,88.7273913 Z M98.5268707,66.4035188 L97.7028544,65.5127566 L96.129912,68.8154289 C96.129912,68.8154289 95.3394887,67.4391523 94.6281077,65.9199622 C93.9167267,64.3988144 92.1896517,62.0573821 92.1896517,62.0573821 L91.7351583,63.2457177 C92.978099,64.7316266 95.450148,69.7061912 95.450148,69.7061912 C95.416555,70.0409612 94.331699,70.4501245 94.2131355,70.4892789 C94.1024762,70.5264756 95.1537392,71.0472289 95.1537392,71.0472289 L96.0153006,70.8945268 L95.5588312,73.5296169 C86.0856076,77.5507722 74.6600385,73.2672825 72.5792491,72.4293787 L71.5813396,72.6506009 L71.5813396,72.7524023 L71.7196637,72.8679078 C88.7453821,80.9141338 96.5429082,74.0523279 96.5429082,74.0523279 L96.3136854,73.1615657 C96.3136854,73.1615657 96.5429082,72.3823934 96.8017718,71.6032211 C97.0665637,70.8240489 96.9894974,69.8921745 96.9894974,69.8921745 C97.892556,68.8154289 98.5268707,66.4035188 98.5268707,66.4035188 Z M47.9990598,91.2156524 C47.6848665,92.327637 47.4220507,92.5136203 49.7557756,92.0829221 C52.379981,91.6032809 53.8620248,91.5034372 53.8620248,91.5034372 L52.0914765,83.1381029 C52.0914765,83.1381029 49.0740355,87.4000577 47.9990598,91.2156524 Z M62.8728507,99.9431648 C62.6218913,101.072769 63.5130936,102.836674 64.0505814,102.903236 C64.5939974,102.965883 64.3054929,101.953743 64.1474083,101.32923 C63.9873475,100.698845 64.0209405,100.197668 64.3054929,99.9725306 C64.5939974,99.753266 64.6216623,99.1874852 64.5939974,98.8390111 C64.5604045,98.4944526 64.9398077,98.1459785 64.9398077,98.1459785 C64.9398077,98.1459785 65.2935221,98.1459785 65.1947192,97.6428447 C65.1018444,97.1397109 65.2263361,95.6929563 65.2263361,95.6929563 C64.4359128,96.3194265 63.1317143,98.8096454 62.8728507,99.9431648 Z M62.7127899,102.212162 C62.8412337,102.020305 62.8096168,101.767759 62.2681768,101.607226 C61.730689,101.454524 58.6164211,103.308484 58.0137233,103.813576 C57.4050973,104.318667 57.7884526,104.729789 57.7884526,104.729789 C57.7884526,104.729789 57.9188725,105.295569 58.5848041,104.696507 C59.2507358,104.101361 60.6517611,103.185148 61.157632,102.807308 C61.6694311,102.431426 62.5882983,102.396187 62.7127899,102.212162 Z M88.4766382,70.4148856 C88.4766382,70.4148856 89.0042457,69.2989856 89.6029914,67.8522311 C90.2037131,66.4035188 91.1028197,63.3220688 91.1028197,63.3220688 L90.3934147,62.6466556 C89.6761056,65.9199622 87.5755556,69.6689945 87.5755556,69.6689945 L88.4766382,70.4148856 Z M92.5631268,59.1188456 L91.4782708,58.1204088 L90.877549,60.3815745 L92.0019262,61.0902688 C92.264742,60.5323189 92.5631268,59.1188456 92.5631268,59.1188456 Z M91.7746795,61.6834578 L90.8004828,60.8710043 L90.3934147,62.1317755 L91.3676115,62.8365544 L91.7746795,61.6834578 Z M90.2807794,60.4951222 L86.0757273,57.0025511 L85.5856649,57.6348944 L89.9804186,61.7186967 L90.2807794,60.4951222 Z M68.9393497,89.8276295 C68.9393497,89.8276295 70.7612754,89.5320139 71.7394243,89.6866737 C72.7649986,89.8472067 73.8024292,89.5222253 73.8953039,88.5883932 C74.10279,86.5543229 71.9212217,79.3166349 71.9212217,79.3166349 C71.4864888,78.5766171 68.8168341,84.0504 68.8168341,84.0504 C68.8168341,84.0504 69.2515669,87.0692031 69.3740825,87.7407008 C69.5025263,88.4219871 68.9393497,89.8276295 68.9393497,89.8276295 Z M54.0067753,68.3125862 C52.6798378,67.5316893 51.420037,68.8293279 51.420037,68.8293279 L52.2849159,73.2370572 C52.8772987,71.8102332 53.4756054,70.834594 54.2733476,70.5781513 C55.0691152,70.3178524 56.5974628,70.3178524 56.5974628,70.3178524 C54.5379452,69.9322243 55.337662,69.0876987 54.0067753,68.3125862 Z M77.0939084,57.3858136 C76.4422873,56.6569765 74.3926427,55.4596012 74.3926427,55.4596012 C75.3029377,57.0773111 75.8834728,59.2580381 75.8834728,59.2580381 C75.8834728,59.2580381 76.094756,61.8725967 76.2961662,61.5236033 C77.3861506,59.5973909 78.2411565,58.9321824 78.2411565,58.9321824 C78.2411565,58.9321824 77.7475041,58.1146508 77.0939084,57.3858136 Z M42.9134197,67.7977727 C42.9134197,67.7977727 43.4287927,63.8682222 43.948115,62.863661 C44.4595388,61.8571716 43.3241384,62.863661 42.7080603,64.1709403 C42.7080603,64.1709403 42.1926873,66.4904934 42.1926873,67.4969827 C42.1926873,68.5034721 42.9134197,67.7977727 42.9134197,67.7977727 Z M40.6445935,64.2731317 C40.3365544,66.183919 41.0533376,66.183919 41.0533376,66.183919 L41.1579919,65.0790945 C41.2626462,63.9723418 41.3653259,63.1644509 41.3653259,63.1644509 C41.5706853,61.9535786 40.9546072,62.35656 40.6445935,64.2731317 Z M49.0011405,70.3178524 C48.90241,71.5229402 47.9684197,71.4265332 46.420326,71.2221503 C44.8742068,71.0235518 43.948115,70.7208337 43.0160994,69.914871 C42.0900076,69.1069801 41.6773142,69.4116263 41.6773142,69.4116263 C42.396072,71.0235518 43.7388064,71.6289879 45.5949393,72.1303045 C47.4530467,72.6374055 49.0011405,73.9446848 48.5864725,74.3476661 C48.1757537,74.7525757 47.6623553,74.4517857 46.0096072,73.9446848 C44.3588338,73.4395119 44.3588338,73.2389853 44.3588338,73.2389853 C44.3588338,73.2389853 43.4287927,73.0365306 46.212992,74.2474028 C49.0011405,75.456347 50.5512088,75.3541555 50.5512088,75.3541555 L49.4158084,70.0151343 C49.4158084,70.0151343 49.1038202,69.1069801 49.0011405,70.3178524 Z M51.7853397,65.991105 C51.9946483,67.1981209 51.1554393,67.4294978 51.17716,67.4217852 C53.1379472,66.6620979 54.3641796,67.9038204 54.3641796,67.9038204 C54.3641796,67.9038204 53.7619237,66.4962778 55.4126972,66.1897034 C56.1275058,66.060518 55.7128378,65.0096814 54.4688339,64.2789161 C53.280119,63.577073 52.304662,63.9723418 52.7173554,61.2555917 C53.1300487,58.5311291 53.5170722,59.3274512 52.1348456,60.8236883 C51.2265253,61.8070399 50.959953,61.9612912 51.6866092,62.8655891 C52.4053671,63.7737433 52.0479628,65.1350105 51.3765956,64.4775146 C50.0318866,63.166379 51.581955,64.7821608 51.7853397,65.991105 Z M68.7976968,69.9112066 C68.6517951,70.1132432 68.5630711,70.2642802 68.5630711,70.2642802 C68.5630711,70.2642802 68.6064473,70.5428161 68.6872847,70.9468892 L69.0697836,70.5624313 L68.7976968,69.9112066 Z M72.3742589,68.1183772 L71.5836297,68.5479502 C72.2993364,68.8343321 72.4452381,70.9390432 72.4452381,69.6189401 C72.4452381,69.1893672 72.3742589,68.1183772 72.3742589,68.1183772 Z M46.4037647,43.8171047 C46.4037647,43.8171047 46.3268706,43.067804 46.2066003,42.8500753 C46.092245,42.6421542 45.5204682,42.1910045 45.5204682,42.1910045 L45.6289086,42.8500753 C45.6289086,42.8500753 45.5618727,43.4954154 45.6289086,43.8171047 C45.6939729,44.1407555 46.0804151,44.3977147 46.0804151,44.3977147 L46.4037647,43.8171047 Z M65.6391231,46.5848096 C65.7751666,45.8453165 66.3784896,45.753125 66.6959243,45.6373954 C66.8714006,45.5746267 67.5299297,45.7668557 67.7684986,45.4314357 C67.9952377,45.1254386 68.3915381,44.8880947 68.9968328,45.0273626 C69.5981842,45.1685921 69.6652201,45.990469 69.6652201,45.990469 L70.7023048,46.3553117 L70.9803066,46.1258139 C71.0276261,45.2450913 70.6076659,44.2741389 70.2369969,44.044641 C69.8623845,43.8112201 69.0283791,43.6268373 69.0283791,43.6268373 L68.746434,43.505223 L68.5334965,43.2659176 L68.6931996,43.1089959 L68.3107007,42.6382311 L67.7093493,43.0089584 L67.9893227,43.2659176 L67.9124286,43.3031864 L67.6344268,43.4404928 C66.05514,43.3502629 65.5425126,44.5036367 65.0318568,45.9394695 C64.521201,47.3733406 62.5653302,51.9024906 62.5653302,51.9024906 L63.9632258,52.5949072 C63.9632258,52.5949072 65.4971648,47.3262642 65.6391231,46.5848096 Z" id="Combined-Shape"></path>
    <path fill="#525252" d="M69.0301011,63.0281807 C68.7286774,63.1460343 67.7505475,63.1146067 67.7505475,63.1146067 C67.7505475,63.1146067 67.6647117,61.8830361 67.6487422,61.4273353 C67.6367651,60.975563 68.2176544,60.2016573 68.2176544,60.2016573 C68.2176544,60.2016573 67.1277383,60.5532541 66.6426658,60.5336118 C66.1536009,60.5198622 65.4010397,59.973807 65.4010397,59.973807 C66.0338299,61.0698459 66.2514138,63.0203238 66.2514138,63.0203238 C64.4269023,63.0596083 63.5026694,61.3880507 63.5026694,61.3880507 C63.5026694,61.3880507 63.5186388,62.0499954 63.662364,62.8356864 C63.8060892,63.6213774 63.804093,65.4382878 63.804093,65.4382878 C63.804093,65.4382878 64.1554213,64.9924082 64.6943908,64.6918813 C65.2333603,64.3834976 66.2114902,64.4149253 66.2114902,64.4149253 L66.1775551,65.3243626 C66.1456161,66.2318357 65.6944787,67.4516209 65.6944787,67.4516209 C65.6944787,67.4516209 66.1815474,67.3376958 67.0977956,67.3710876 C68.0100514,67.4025153 68.8724026,67.6284014 68.8724026,67.6284014 C68.8724026,67.6284014 68.4811506,66.9036015 68.1617613,66.3673674 C67.8403758,65.8409544 67.7425628,64.6034911 67.7425628,64.6034911 C67.7425628,64.6034911 68.4731659,64.5622423 69.0221163,64.5779562 C69.5730629,64.5975984 70.1339905,65.155439 70.1339905,65.155439 C70.0581355,64.6329545 70.0441622,62.1639206 70.0441622,62.1639206 C70.0441622,62.1639206 69.3315248,62.9122913 69.0301011,63.0281807" id="Path"></path>
    <path fill="#525252" d="M63.4567571,42.0443386 L63.8060892,37.2693016 L59.2827378,38.0824918 C59.2827378,38.0824918 59.6240851,36.8607423 59.536253,36.0514806 C59.4544095,35.2873961 58.9214286,34.1442157 58.9214286,34.1442157 L63.5865091,35.2579327 L62.3648449,30.9798453 C62.3648449,30.9798453 63.6443984,31.4296533 64.4628336,31.4021542 C65.1854519,31.3766192 66.2254635,30.9209184 66.2254635,30.9209184 L65.8382039,35.3443587 L70.1319943,34.4525994 C70.1319943,34.4525994 69.7527194,35.6291717 69.8445439,36.4109342 C69.9383645,37.1376984 70.5132653,38.2121308 70.5132653,38.2121308 L65.9300283,37.4087618 L67.2534979,41.3882866 C67.2534979,41.3882866 66.3592077,41.5198899 65.3112115,41.4354281 C64.2332725,41.3450736 63.4567571,42.0443386 63.4567571,42.0443386" id="Path"></path>
</svg>
