<svg height="141" viewBox="0 0 142 141" width="142" xmlns="http://www.w3.org/2000/svg" xmlns:xlink="http://www.w3.org/1999/xlink"><mask id="a" fill="#fff"><path d="m0 0h141.034014v140.916485h-141.034014z" fill="#fff" fill-rule="evenodd"/></mask><g fill="none" fill-rule="evenodd"><g transform="translate(.482993)"><path d="m140.336679 70.5189656c0 38.5649674-31.258622 69.8157544-69.821631 69.8157544-38.5571323 0-69.81575435-31.250787-69.81575435-69.8157544 0-38.5610499 31.25862205-69.81967195 69.81575435-69.81967195 38.563009 0 69.821631 31.25862205 69.821631 69.81967195" fill="#fffffe" mask="url(#a)"/><path d="m70.7540223 137.829407c-37.1409157 0-67.35941194-30.220455-67.35941194-67.3613703 0-37.1428746 30.21849624-67.35941198 67.35941194-67.35941198 37.1389567 0 67.3574527 30.21653738 67.3574527 67.35941198 0 37.1409153-30.218496 67.3613703-67.3574527 67.3613703m0-135.41811713c-37.5287593 0-68.0587056 30.52994633-68.0587056 68.05674683 0 37.5248413 30.5299463 68.0587053 68.0587056 68.0587053 37.5248417 0 68.0528287-30.533864 68.0528287-68.0587053 0-37.5268005-30.527987-68.05674683-68.0528287-68.05674683m-.2389743 137.22609513c-38.1105246 0-69.1164607-31.003977-69.1164607-69.1184194 0-38.1144422 31.0059361-69.1203783 69.1164607-69.1203783 38.116401 0 69.122337 31.0059361 69.122337 69.1203783 0 38.1144424-31.005936 69.1184194-69.122337 69.1184194m0-139.637385c-38.882294 0-70.515048 31.6347128-70.515048 70.5189656 0 38.8842524 31.632754 70.5150484 70.515048 70.5150484 38.88817 0 70.518966-31.630796 70.518966-70.5150484 0-38.8842528-31.630796-70.5189656-70.518966-70.5189656" fill="#1b1a19" mask="url(#a)"/></g><path d="m26.5646259 70.5179834c0-24.5414596 19.8946581-44.4363507 44.4334212-44.4363507 24.5426689 0 44.4373269 19.8948911 44.4373269 44.4363507 0 24.5395064-19.894658 44.4343976-44.4373269 44.4343976-24.5387631 0-44.4334212-19.8948912-44.4334212-44.4343976" fill="#d07a2e"/><g fill="#1b1a19"><path d="m71.4810494 113.570188c-24.0064842 0-43.5343498-19.5295563-43.5343498-43.5342304 0-24.0066181 19.5278656-43.538118 43.5343498-43.538118 24.0064841 0 43.5362936 19.5314999 43.5362936 43.538118 0 24.0046741-19.5298095 43.5342304-43.5362936 43.5342304m0-88.4545417c-24.7704153 0-44.9164235 20.149696-44.9164235 44.9203113 0 24.7667273 20.1460082 44.9164234 44.9164235 44.9164234 24.7704152 0 44.9203116-20.1496961 44.9203116-44.9164234 0-24.7706153-20.1498964-44.9203113-44.9203116-44.9203113"/><path d="m120.607857 43.9031182c1.998329-1.1456181 3.2028-3.2364202 2.293581-4.3898984-.918997-1.1574084-2.858665-1.1357929-4.849172.0157203-1.996373 1.1515132-3.105035 2.8650277-2.371793 4.1462335.727376 1.2772758 2.932967 1.3833879 4.927384.2279446m-6.507276 1.9532494c-1.450841-1.5052203-1.617042-3.4840152-.645252-5.1798444 1.116482-1.5563113 2.637715-2.9239789 4.581294-3.7394703 3.075705-1.2812059 6.736048-.6386379 7.551412 3.1479934.197487 2.1242078-1.22989 3.623533-2.733525 4.9538648-4.763138 3.7591208-8.167335 1.5739967-8.753929.8174565m15.879084 13.000702c-1.149723.196504-3.312298.4440989-3.263415 1.6742137.232682 1.0611214.545532 3.1047626 1.963133 2.6115377.465364-.2200845 3.200844-.5030502 1.300282-4.2857514m1.462573 5.7418457c-.883801.7879809-1.781289 1.2104644-2.997493 1.3951781-2.20168-.098252-2.45196-2.2303199-3.634923-1.4678846 0 0-4.20392 3.4840152-4.643865 6.6772046-.177933 1.2812058-1.922071-2.1595785-.786035-3.8770231.570951-.8626524 1.963133-3.122448 4.93325-5.2859566.207263-.298686-.101676-1.4993252-.359777-1.8687526-1.708942.2397348-2.592743.4205185-4.503082.992345.043017-.7860159-.035195-1.7606755-.287431-2.778566 0 0 11.05142-1.3598074 11.569578-2.9534545 3.74051 5.5256913 1.474304 8.6579644.709778 9.1669097m-112.0139204-5.5512369s-4.0338072.9451841-5.948057 1.0630865c-4.3290593-5.2918517-4.72012156-7.3060173-4.2254278-8.5518524.1896652-.4735745-.23463736-.9884149-.23463736-.9884149s-1.02067251 1.4187586-1.07346591 2.430754c-.52988937 3.4918754 4.30559557 10.1317442 4.30559557 10.1317442l-2.82151428-.9451841s-1.77737799-.7309947-3.39050984-1.4443041c.03128498.0058951-.69413552 3.6903444-.72737581 4.3820383.48687252.051091.68435896-.0275105.90726446-.3694274.36955384-.5659314 2.70224025-.0353707 4.22933837.4814347 1.5329641.5187704 2.6474916.6563232 2.5868769 1.5248707-.1016762 1.6506333-1.1301699 3.3562876-2.4832454 4.067632.2424586.2122242.5181575.2338397.8759795.1591682 1.6600593-.9216036 2.9798945-2.5958173 4.0338073-4.2051848 2.0804512.2358048 2.424586.3831828 4.3994504.7565403 2.3717927.4342737 3.2164872 1.4777098 3.2164872 1.4777098s.6393868-2.0711518 1.746093-3.4447145c.0899443-.1080771.0782124-.1434478.0782124-.1434478s-9.3307456-.6307778-9.4246005-2.2735509c3.8891142-1.5739967 9.057002-1.5543463 11.7084042-5.3193622.4379897-.7624353.6882696-1.6172276.2405033-2.5486563-1.9924623 2.3796629-7.9991787 3.7591207-7.9991787 3.7591207m3.5938622-1.8962632s.9698345-2.6469083 1.0539129-3.2619657c-1.6796125.0903918-10.9575647-3.9595548-10.9575647-3.9595548l-.9248623-.5325257s-.3421795 1.3578423-.9189963 3.0143707c.1877099.0668113.9092198.1021821 1.513411.2888608 2.4480497.8705126 9.1704101 3.1558536 10.2340994 4.4508147m107.4971512-3.6510436c-.426258-1.0355758-.475141-1.4934301-.6257-2.7903562-.612012 1.1868839-9.798065 4.2444855-10.51762 1.8825079-.698046-1.8274868 8.278789-4.8693681 9.706166-4.4036537-.922907-1.2556603-1.509501-2.9534545-1.509501-2.9534545-1.126259 1.0689815-8.157558 2.831622-9.782422 4.617843-1.059779 1.0571913-1.329612 1.831417-1.053913 3.1538886.191621 1.2340449 1.386316 2.1929842 2.493022 2.5840271 2.633804.9235686 7.340239-.9510792 11.289968-2.0908022m-114.1588968-13.3465489s.5729062.1847137.9913428.2770706c2.3483289.5050151 4.1706791 2.0456062 5.1209604 2.4209288 0 0-6.7164944 2.4621946-8.2807435 1.3303318-.2932967 1.0355758-.5787722 1.7960462-.9639685 2.6469083.6980462-.2554551 11.9234885 5.010851 11.9625947 4.8909836.4419004-1.3558774 1.1145275-2.381628 1.1145275-2.381628s-5.1522454-1.7822909-6.0243142-2.6665588c1.9885516-1.2143944 4.710345-1.9768298 6.5933098-1.5189756.175978.0393008 1.3139692.3340568 1.3139692.3340568s.7723479-1.5288009 1.3608967-2.2519354c-3.1812916-.8312118-10.5743237-4.7671861-11.9449969-5.8224124-.3030733.8272817-.746929 2.0200607-1.243578 2.7412303m14.3089682-7.5732626c-.6061465-.5384209-.7723479-.9726946-.9815662-1.1967092-.6511187.9353589-1.9514007 2.6036775-1.9865964 2.5977824.6139678-.0746715 4.0826901 1.788186 3.0815707 3.3464624-.6393868.6111274-1.4332432.7840508-2.3189992.7211696-2.0413451-.3340568-3.3650908-1.2320799-4.4874395-3.0124057-1.5935788-2.5407962 1.5310087-5.010851 2.4910666-5.0363965-.8662029-.6779387-1.53883-1.2183246-2.2095018-2.134033-4.1335281 3.9064987-3.4217948 6.354938-3.2946996 6.9424849.9776557 3.0556365 3.4628564 4.716095 6.5072761 5.755601 1.0558681.3340567 2.5712344.3163713 4.2019641-.6189875 1.8106182-1.0296808 3.0307325-3.2423154 1.4176007-5.3645581-.7019568-.8351419-1.4723495-1.2124295-2.4206755-2.0004103m79.5713946 3.5606517c3.472633-2.4543344 6.511187-5.0855225 8.849739-7.2333107.019553-.0157204.076257-.047161.050838-.0569862-1.622908-.5993371-2.307267-1.1240026-2.307267-1.1240026-.684359.9333938-.588549.8371068-9.856725 7.9073193.43799.4205185 3.087437 3.3189519 4.569563 6.1387837.279609-.4342737.31676-1.2595904 1.423466-2.3383971-.743018-1.1141775-2.23101-2.7097896-2.729614-3.2934064m.872069-7.494661s1.159499-.6700785 2.125423-.4912599c.516202.0923568-1.368718-2.8728879-2.301401-3.7846663.498604-.5168054 1.489947-1.4167935 1.937713-1.7076194 1.018717 1.9198437 4.055316 1.982725 4.456155 4.5195911 0 0-.035196.0039301.048882.0196504.770393.1473779 2.139111.8233516 2.139111.8233516s.048883-3.0517065-3.634924-5.9069091c-2.661178-1.7056543-4.100288-3.7512606-4.192187-4.0361913-.299163.001965-.758661.4382038-.649164.5187705-.217039.2574201.224861.7742256-.488827 1.6820738-1.22207 1.5759618-2.297491 2.6193978-2.297491 2.6193978-1.730451-.9903799-3.367046-.1788186-4.098333.8449671 1.566205-.2613503 2.798051.6347078 2.798051.6347078s-4.665373 4.8261372-7.0880037 7.3394229c1.6033557 1.0100303 1.6092207 1.4443041 2.0159257 1.8785778 2.428497-2.5073905 5.095542-5.3272223 7.432139-7.6361439.690224.5344908 1.075421 1.0355759 1.796931 2.6822791m-66.748463-8.0409421c.0547487.0176854-4.1315729-4.566752-4.1863216-4.6630389 0 0 .420392 5.2230752.8838007 6.352973.5122916-.7820858 1.9240264-1.2871009 3.3025209-1.6899341m9.0218064 4.8870535-.087989.0451959c-.0039106.0019651-.0058659.0058952-.0136872.0058952-1.507545.9510791-2.5399494 2.1694037-2.5399494 2.1694037-1.7656461-2.7962514-3.0346432-3.8927435-3.3787779-4.216975-3.9282205-1.7154796-4.4561546 2.1635086-4.4561546 2.1635086s-1.0069853-1.0827368-1.7069867-.6622184c.2248608 2.4248589 1.1712314 8.5282719-2.1586638 9.573673-.6608952.2082942-1.8810094.4892948-2.2642505-.4814347 1.4449751-.6229176 2.4030777-4.5903325 1.9103392-7.6047033-1.036315 1.0768417-7.5690101 1.0788068-3.6525216-4.5058358.0488828 1.8530324 1.2025165 3.1971195 3.3553143 1.737095-.1075421-1.1082823-.7215099-6.3765535-1.2298908-8.5813279-.2424587-4.8202421 4.3310145-2.829657 4.3310145-2.829657s-.3363135.6877638-.0703912.9196385c.2600564.2299096 10.7776761 11.9690562 11.9625947 12.2677422m44.3249525-7.8169275c1.1262593-1.0512962 1.2553098-3.2030145-2.8019612-4.268066-.2991626.7997711-.6198337 1.884473-.9189963 2.8060765.2365927.7644004 2.2740271 2.3600126 3.7209575 1.4619895m.2131289 10.1199539c-.0195531.4912599-.7606161.6838338-1.7363165.1100423-3.2771017-2.3973484-.2111736-4.9322494-2.9153691-9.2199658-.59637.4637493-1.8731883 5.1366135-1.9083839 5.0992777-.1974864-.198469-1.4567069-.9039182-2.2583846-1.0611214-.357822-.0746715 3.0463751-8.3730337 3.4002864-9.8193028.2991626-1.2222547.4673194-2.2833761.3695539-2.5506214-.037151-.094322 10.384658 1.638843 7.856441 7.6990251-1.2377122 3.3916584-4.3153722 2.3934182-4.3153722 2.3934182 1.4703941 2.1929842-1.0812872 5.4215443 1.507545 7.3492481m-47.2383663-15.7596176c.3128498 1.1456181.5748615 1.8687527 1.1086615 3.0831472.9991641-.1021821 2.4284967-.2554552 3.083526-1.4796748.5083809-.8253167-.4868726-4.29950668-4.1921875-1.6034724m10.9125925 9.0647277c.8466498.2927909-1.1282146 1.3558773-2.6279384 1.0100304-.477096-.1100422-.9757004-.2554552-5.1717985-4.5176261-.4106154-.1237975-.7684373-.0648463-1.0754212.2161544.5983252 1.8058714 1.8849201 4.0853173 1.9748644 4.3034367.0215084.0373358-1.7617355.6563232-2.2095018 1.3912481-.1837992.149343-.5670403-.593442-.6452527-.8115614-.6608952-1.9591445-2.6905084-7.7933471-2.7022403-7.8326478-.3656432-1.2202896-1.5740256-3.124413-1.6053106-3.1460284 4.1433047-3.82986223 8.4039281-3.56654692 9.897786-.2161544 1.1575443 4.3407725-1.4743048 4.0794222-1.4488857 4.9440396.1310058.1866788 1.5036344 1.6152626 1.9865963 2.0043404.7684373.844967 1.8692776 2.0436412 3.6271025 2.6547685m6.1318563-14.33889394c-1.9083838.63274275-6.6167735-.31440633-9.7198526 1.35587733.3128498.59737203.7488842 1.61526255.9932982 2.29516621.6022359-.60326712 1.5016791-.95107913 2.8332461-.76047029.0918996 1.61329749 1.1907846 8.02325669 1.1516783 10.25161159-.0117318.5620013.1407825 1.2143945.1407825 1.2143945 1.5896681-.7152744 2.5106197-.5914769 2.7120168-.6602533-.6628506-2.5113206-1.3217905-7.5319968-1.5583832-10.567983-.1720674-1.00413523 2.2642506-.1886438 3.6310132-.70937929-.150559-1.18295384-.2776542-2.0495363-.1837993-2.41896375m19.7994825 2.14582324c-.5396659 6.5691274-1.7343612 9.278917-2.6592234 9.6640648-.8622923.400868-2.1801721-.0589512-2.4050329-1.4619895-.3617326-2.2676557 1.0871531-8.91145459 1.0871531-8.91145459-1.1145275 0-1.8106183-.30654618-2.788274-.55217613-.0547487 3.69623952-1.1360359 8.91341962-.47123 11.57211822.2854754 1.1593733 1.124304 2.0102355 2.6298937 2.4169987 6.5796226 1.9198437 6.8005728-11.1515997 7.2502944-12.0181822 0 0-1.808663-.4067632-2.6435809-.7093793m-9.5008577 3.5822672c-.0743019 2.7667758-.3832411 8.0429071-.3832411 8.0429071s-1.6326849-.4342738-2.4519604-.2888608c.1681568-2.1025924.2170396-4.3466676.1740227-6.0464269-1.1047509-.4440989-2.1527977-.4440989-3.3905098-.1296926-.0430168 2.3049914.1994418 6.0208813.1994418 6.0208813s-1.8145289-.2810006-2.6259831-.0393008c-.0449722-3.4584697.2561457-11.66250999-.3675986-13.12056937 1.456707.13165765 1.5114557.0648463 2.907548-.12183246 0 0-.0351956 3.09690241.0273743 4.32701723.6960909.5305607 1.896652.4558892 3.3709567.3517421.477096-.3360218.2796096-4.64731869.2796096-4.64731869s1.444975.30458113 2.631849.32619657c.295252.00589512-.3245817 3.50956072-.3715091 5.32525732"/><path d="m90.4946704 73.2264712-.8400959-2.5710204 1.1207867-2.0193912 4.0087396 2.7542469s-.4665003 1.563274-1.2136914 1.6529381c-.7432377.0896641-3.075739.1832266-3.075739.1832266zm-26.6596998-23.4315661s-6.8018112.2787383-10.6227647-1.563274c-.44871-.2124649 6.6179784-1.9258287 12.3978377-2.6626337zm-15.4676467 2.1129538-.1858095-1.6529381s1.027882.6432424 1.4904289 0c.4684769-.6412932-.3716189 1.2864848-1.3046194 1.6529381zm-4.657096-22.7863746s3.35643 5.0543259 3.8209535 12.3132188c0 0-1.1207866-.6451916-1.5853102-.8284182zm76.3261651 70.9379407c-.622659-.5496797-.494174 0-.683937-1.1597854-.185809-1.1656332-5.406264-5.2726384-5.406264-5.2726384s-.808468-.4892541-2.854349-2.3858445c-2.05181-1.9004889-5.718581-.6159533-5.718581-.6159533l-9.1323362 2.0213405s-.2490637-2.5086454-.2490637-3.5495285c0-1.0428324-1.3026427-2.9433213-1.3026427-2.9433213.5574283-3.9842044-2.2988975-4.8418609-2.2988975-4.8418609l-.8104454-4.042681c.9349772-.1208516 2.6744698-.6724807 2.9848111-.9765589.3123179-.3079767-.1245319-.3079767 1.2433418-.4912033s2.2376199-1.7133638 2.4847069-2.2649929c.2510404-.5535783.312318-.6159534 0-1.0428324-.3123179-.426879-.3123179-.9785081-.0612775-1.350809.247087-.3664533.4961507-.3040782.8677695.3723009.3755723.6685822 1.9272787-.1247501 2.5479617-.6763791.622659-.5496799.622659-1.0447816.622659-1.0447816l.185809-1.403438c.183833-1.4073364-1.429151-1.7172623-1.429151-1.7172623l-3.2338748-3.7990285c-.4348731-3.5495285-2.4174993-3.6138528-3.5995635-4.8379625-1.1840409-1.2280082-1.0614858-3.9218294-1.1840409-4.8983883-.1186018-.9804574-1.2433419.239754-1.6762383.5477306-.4309198.3060275-1.8047235.4912033-1.8047235.4912033l-1.053579-.2456016s-.5613817.6101056-1.4331047 1.1013089c-.8677695.4912033-3.4770083 1.1558871-3.4770083 1.1558871s-1.7078654.1520391-1.6960053-1.4697114c.0118602-1.6236997-.8816064 1.4697114-.1324386 1.8712506.7728882.4151837-1.7157722 1.0779183-1.7157722 1.0779183s-1.8620477-1.3488598-3.478985-2.6353446c-1.6149607-1.2864848-2.9176034-1.226059-2.9176034-1.226059s-.3755723-1.7737896-.6839369-3.1850244c-.312318-1.4092856-.3261548-5.1108532-.3261548-5.1108532 1.8660011-.1169532 3.5560762.0877148 3.5560762.0877148s-.1225552.3723009 1.053579 2.5105946c1.1860176 2.1441413 3.3564299 1.1032582 4.4139623.9200315 1.0575324-.1832266 2.6724931-.6101056 5.0939458-.7368049 2.425406-.1169532 5.8490436.0643242 10.939036 3.615802 5.0939459 3.5534269 7.0825019 3.4930011 7.0825019 3.4930011s-1.239388-1.5944615-3.229921-4.3526069c-1.7889102-2.4735594-.496151-2.1402429-8.2625898-9.5550734-7.772369-7.4128813-16.1575137-8.085362-16.1575137-8.085362s.0632543-1.3469106-.1877861-2.2669421c-.2490637-.9200315-1.1781108-1.2864848-1.9885562-1.4092856-.806492-.1208516-1.8007701-1.101309-5.2165009-1.4677622-3.4177075-.3703517-6.1495015-.3060274-12.0499392.1228008-5.9043912.4268791-7.2801716.3450119-9.320122-.1832266-3.0520187-.7913831-4.2222228-.2806876-4.2222228-.2806876s.468477-.222211.4289431-.9473206c-.0573242-1.083766-1.2413651-.9804574-1.2413651-.9804574s-.1858095-1.0408831-1.11881-.8576565c-.6859136.1364454-.8736997.9200316-.9231171 1.2767387-.1284852.0818672-.3360383.1500899-.5297545.6646838-.5317313 1.4170825 1.3303164 1.9784577 1.3303164 1.9784577l2.2969208 11.8181171c-.045464.0409336-.2312734.2358555-.8816064.9551175-.7392843.808926.1976696 1.9940514.1976696 1.9940514.1284853 1.7133638 1.8640244 2.3254187 1.8640244 2.3254187l.6325427 2.9160322c-.0533708.0584766-.0929047.1033086-.0929047.1033086s-.0177902 2.6470399.5574283 2.3039773c.0177903-.0097461.0336038-.0194922.0494174-.0292383l.22139 1.0174926c-5.3410328 1.2241097-5.3410328 3.243501-5.4062638 4.1031067-.0593008.8537581-1.1800875 3.2493488-2.0478571 4.042681-.8677696.79918-.2490637 1.962864.0593009 4.1693803.3162714 2.2065163.4388265 4.8360133 3.6687479 7.6584829 3.2279447 2.816622 8.5116532 3.2435011 8.5116532 3.2435011l.2194133 1.1695316c-1.6465878-.2728907-5.2085941.6081564-5.2085941.6081564-.6167292-1.4892036-3.3564299-2.2299069-3.3564299-2.2299069s-2.6052854-4.1206498-9.6660438-3.5124933c-7.0548282.6101056-7.9463182 6.6897209-7.9463182 6.6897209-2.9512072 2.49695-2.4016857 4.1888724-2.4016857 5.4032361 0 1.2163129-.136392.6120549-2.0557639 2.5008484-1.9173952 1.8946413-2.0557639 3.1109542-1.164274 2.2961805.8934667-.8108753 2.6705164-1.8887936.4783605.4073868-2.1901792 2.3000789-1.7118188 2.77179-1.7118188 2.77179s.4803371.4054376 4.2518732.9473206c3.7675827.5379845 5.8885776-.8810472 6.5072835-1.4229302.6147524-.5399337 2.2613403-.3352657 3.5620063-.808926 1.3046194-.4736603.1403454-1.0135941 2.334478-2.3644031 2.1882026-1.350809 1.0239286-4.9997477 1.0239286-6.4870021s.8262589-1.5535278 1.2334583-1.2864848c.4151062.2709415-.201623 3.9218294-.201623 3.9218294 1.164274-.5399338 1.229505-2.5027977 1.229505-2.5027977l.8895132.9473206c-.4763837-2.0954108.6226593-3.9842044 1.9213486-4.3954897 1.3026427-.4034884 1.9846028 2.6372939 1.9846028 2.6372939-4.0403667 3.3156221-4.3131508 8.0424791-4.3131508 9.7305031 0 1.6919224.6167292 1.3547075-.8242822 4.4656616-.5099876 1.1032582-.5060342 1.7835357-.2609239 2.2221101-.4249897.2378047-.6681233.9765589-.8993967.8459612-.2826676-.1637344-.89742.1617852-.89742.1617852s-2.5361011-.1559376-3.3880571-.2826368c-.7807949-.115004.3202248.7699416.3202248.7699416s-1.4884522.5165432-1.7908867.9219808c-.1798793.2417036-.2035997 1.0077466-.4111527 1.1285976-.2035997.120852-.1620891.323571-.1225552.522391.0415106.20077.3301082.081867.3696422.241703.0355805.159836.2866209.360606.6523097.360606.3676654 0 .8993967-.038984 1.6722848 0 .7768416.040934.695797.405438 1.4746153.526289.7748649.118903 1.7968167-.081867 2.3661052-.362555.5732418-.280687.9824179-1.167582 1.1464837-1.610055.1620891-.446371-.1225552-.364504.2826675-.407387.4091761-.038984.6147525-.3995896.8203289-.6822264.2035997-.2806876.2035997-.3606056.2035997-.3606056s.5001041.1052579.6187059.0643243c.0810445-.0272891.5771952-.1442423.9191636-.2261095.5099876.3684025.982418.7952815 1.1761342 1.0954612.338015.541883-1.099043 1.6237-1.5774035 1.892692-.4783604.270942-1.9193718.608157-3.836767 1.42293-1.9213486.808926 1.7810031 7.974257 2.3285479 9.38939.5455682 1.419032.4783605 1.892692.4131295 3.652837-.0691843 1.752348 1.5734501 2.364403 1.5734501 2.364403s-.1403454.744602-.2055764 2.294231c-.0691844 1.559376 1.164274 1.422931 2.9512072 1.760146 1.7790265.339164 1.502289-.814774 1.502289-.814774s-.272784-1.14809-.3399917-1.82447c-.0672077-.670531-.8934666-1.549629-.8934666-1.549629l.2035997-.610106s-1.9846029-4.461763-2.5341244-6.420728c-.5455681-1.960915-.4783604-3.379947-.201623-4.389642.2727841-1.017493 4.2479199-.877149 5.8233466-1.017493 1.5774035-.134496 2.3977323-2.093461 2.3977323-2.093461s1.3678737-.270942 2.3997091-.740704c1.0298586-.475609 2.7476075-2.674329 2.7476075-2.674329l1.3698504.306028c-.5653351 1.286485 1.053579 3.368251 1.053579 3.368251s-.3083646 4.535833-.3755723 5.882744c-.0573242 1.34886 1.5536831 3.062224 4.7203502 4.46956 3.1706205 1.409286 5.9676454 5.270689 7.0212244 6.804725.9606743 1.385895 1.8660011 1.011645 2.0241368.931727-.0593009.042882-.2055764.267043-.1581357 1.393691.0612776 1.407337 2.8563258 1.471661 4.4100089 1.163684 1.5536831-.304078.6839369-1.224109.1877862-2.514493-.4981275-1.284535-1.7414693-1.344961-1.7414693-1.344961s.0612776-.980457-3.5402626-3.615802c-3.6035169-2.633395-6.0882239-5.389591-7.2070339-6.676076-1.1168332-1.288434-.3696421-1.900489-.3696421-1.900489 2.5440078.247551 1.6742615-1.282586 1.2374117-2.264993-.4348731-.982407-.4348731-1.652938-.4348731-1.652938l2.0498338-2.576868c2.737724 1.044781 10.6247413-.612055 11.1841463-.672481.5613817-.060426 1.3085728.54968 2.4234294 3.615802 1.11881 3.062224 4.7836045 10.658332 5.9043911 12.128043 1.1168333 1.467762 1.9213486 4.839912 2.1111114 5.820369.1897628.982407.4348732 1.962864.4348732 3.124599 0 1.167582.9349772 1.284535.9349772 1.284535s-.3083646 1.409286.1838327 2.085665c.9685811 1.309876 4.2241995 1.779637 5.3469629 1.286485 1.1207866-.489254-.1877862-2.389743-.4348732-2.939423-.2490637-.54968-.5594049.181278-.8104453-.491203-.2470871-.672481-2.9176034-5.820369-3.7280488-7.96646-.806492-2.142192-.8657929-4.099208-1.1761342-6.496748-.3162713-2.383895-1.6821683-3.672329-1.6821683-3.672329.4328964-1.711415-.4348732-7.410932-.4348732-7.410932s-.6226592-.122801 1.1761342-.734856c1.8067002-.612055 4.1075744-3.615802 4.1075744-3.615802s.8697463.7348557 2.0518105 1.4112349c1.1781109.6705314 2.1091347-.0623751 2.1091347-.0623751s-.0573242-.4307774 1.8027468-.6140041c1.8640244-.1812774 8.6954861-3.305876 10.1898681-4.042681 1.490429-.7368049 3.10539-.3664532 3.35643-.1208516.247087.2417032 1.678215 1.6509889 2.170412 2.0213405.502081.3664533 1.866001 2.5729696 2.174366 2.9394229.312318.3684024.931024.7952815.931024 1.1636835 0 .368403.502081.610106.747191.67443.249064.060426-.185809.980458.063254 1.534036.247087.545781 3.540263 2.877048 3.540263 2.877048.249064-.183227.68196-2.144142.808469-3.370201.124531-1.224109-.559405-1.654887-1.180088-2.206516z"/></g><path d="m58.9789976 62.3983864-.764199-2.5814019-.308019-2.122443-.3099685 1.2781135s.3099685 1.6034514.6179875 2.2134602c.3060695.6061356.764199 1.2122712.764199 1.2122712zm16.5433486-1.4156075.2475849.976014-.4932203.4027994-.3236149-1.2994154s-.0818784 1.2994154-.0818784 1.5434188c0 .2440035-.2456354.6468029-.2456354.6468029l-.4308367.2982265c.3606551.0890806.3275139.187844.3275139.4938166 0 .3195284-.9143095 1.4156075-1.376338 1.688659-.4581295.2749881-.1384136-.5034992-.0467877-.7726777.0916259-.274988-.0448382-.5015627-.1852013-.4144186-.1364641.0910172-1.2379244 1.9617105-1.6063775 2.6007673-.3665036.6409933-1.1034098.6855336-1.4699134.8230276-.368453.137494-1.2418233 1.0515388-1.2418233 1.0515388-1.608327-.3214649-6.8465992-.5519126-7.6263941-.5519126-.7836938 0-1.1540964.1859074-1.1540964.1859074-1.0078849-.0910172-.8246331-1.6460552-1.3743885-2.1030776-.5536544-.4570224-.6413813-1.0031255-.6413813-1.7312629 0-.7320104.460079-1.0941426-.0916259-1.826153-.2105446-.2807977-.3255644-.9276006-.3782005-1.6499283.1286661.1704151.2709787.3718148.4249882.5983895.6140885.9101717 2.140537 2.1243795 2.140537 2.1243795l-1.0663695-1.2142078c-.7661485-.8656314-1.2886111-2.256064-1.5303475-2.9919475.0077979-.2982265.0194949-.5790241.0409392-.8114084-.3216654.4841339-.5224626.6332471-1.0995108.6332471-.6569772 0-1.0663695-1.2200174-1.3139544-1.8648837-.2436859-.6526125-.4873718-3.1681722-.4873718-3.1681722.3431098 1.1444925.68427 1.8726299 1.0137334 2.3083504.5770482 2.0256162 1.5771351 1.0457292 1.9436387.4318474.5068667-.8501391.8168352-1.659611.9727942-3.073282.1169692-1.063158.1813023-2.4361617.0974743-3.2495067-.0253433-.2440035-.0545856-.3814975-.0857774-.4783243l.3937964.0968268c.0779795.0948903.2846252.4124821.2339385 1.0980157-.0233939.3718148.072131 1.6402456-.0292423 2.8002304-.079929.9721409 0 1.5376093-.3275139 2.5174963 0 0 .5731493-.7300739.7369062-1.4601478.1657064-.7320105.1657064-2.3567638.1657064-2.3567638l-.1247672-1.0612215.7758959 1.1406194.2456354.8927429s.163757-1.3749402-.2456354-1.7835492c-.4113418-.4066725-.6101895-1.3865595-.6101895-1.3865595l.4620285-.0561596c1.3159039.1355575 1.1911367.4144187 2.0138203.9179179.8265826.5034993 0 1.5957053-.0896764 2.0062509-.0916259.4105455-.1501105.4531493.6803711 1.0437927.8265825.5945164 2.353031 2.0953315 2.7175852 2.7808651.3704025.683597 1.5186505 1.959774 1.8851541 2.234762.3684531.2749881.8304816-.5015627 1.3373482-1.1406194.5049172-.6371202 1.2769142-.7262009 2.2419104-1.4097979.9669456-.6855336.9221074-.5402935 1.060521-1.0902696.1384136-.546103 1.0098344-.5906433 1.0098344-.5906433s.0487372.3195283.0935754.6351836c.0467877.3234015 0 .7320105.2300395.5983895.2300395-.1433036.0467877.5441665.1364641.9082352.0935754.3679418-.3665036.8695045-.1832518.8695045s.1813023.3582591.4191397.3911802c.0194949.0019365.0370403.0193654.0526362.0464769.0214444-.7920431.0409392-1.5685939.0623836-2.230889.0545856-1.6692937-.6998659-2.227016-.6998659-2.227016l.6998659.1994632s1.060521 2.3567638 1.2281769 3.0887743c.1618075.7281373.4035439 1.8648837.4035439 1.8648837zm-12.9192519 8.8267292c.8616734-.0561595 5.581382.4279744 5.581382.4279744l.2436859-.4899435s-3.6143493-.3640687-4.9010109-.4241013c-1.2866616-.0580961-2.8189586.1220017-2.8189586.1220017-.4269377.24594.1208683.3020996.1208683.3020996s.9201579.1220017 1.7740333.0619691zm-2.7078377 12.4732257s-1.5264485-1.2161443-1.988477-2.4303521c-.45618-1.2142078-.916259-1.6692937-1.528398-2.4284157-.6101895-.7591219-1.9865275-1.5143708-1.9865275-1.5143708s1.376338 1.6692937 2.1424865 2.8796284c.7622495 1.2161444 2.2945465 2.8835015 3.360916 3.4935102zm12.5663947-8.3658337c.0584846.4841339.0097474.8230276-.1735044 1.4349729-.1832518.6061356-3.5500163 7.1806739-3.5500163 7.1806739s-1.90075-.24594-3.6806318 1.0922061c-1.7759829 1.3420191-2.8774432 1.9500913-3.6123999 1.6441187-.7369062-.3020996-3.0041598-1.8242165-3.1854621-1.9481548-.1871508-.1181287.1189187-.242067-.7992898-.9121083-.9201579-.6681047-1.7155487-1.8861856-3.0002608-4.0783439-1.2886111-2.1882852-2.5128891-3.4083026-1.7155488-4.9904522 0 0 1.2223285-2.1921583 2.3842229-2.1921583 1.1638439 0 1.5342464.0639057 1.5342464.0639057s.4912708.3020995 0 1.0321734c-.4854223.7320105.7973403-1.2161443 1.224278-1.3981786.4308367-.1820344.9805921-1.0360466 2.1463855-.6681048 1.1638438.3640687 1.5303474.4241013 2.8832916.4241013 1.3412472 0 1.7740334-.1800978 2.5713736 0 .7953908.1800978 1.224278.1800978.9805921.7320104 0 0 .3060695-.5519126.8558249-.4880069.5497554.0639056 1.2866616.1200652 1.2866616.1200652s.1832518.4241013 0 .9159813c-.1832518.4841339.1267166.4279744.5497554.8520757.4327861.4241012 1.2262274.3640686 1.1677428.7262008-.064333.3698783-.2456354 1.0379831-.4912708 1.4001152 0 0 .7330072-1.0302369.9825416-1.3381461.2417364-.3040361.231989.0271115.7836939.0271115s.7953908-.1220017.8577744.3679418zm-25.9671699-24.5610808-.5770483.4608954c-.1072218 1.8706934.3372613 1.5957054.3372613 1.5957054l.4737254-.3020996zm.07603-.4918801-.5789977-2.7750555-.5380585.4260379.5673008 2.7460074c.1696053-.1587959.3665036-.3098457.5497554-.3969898zm-.0350908 2.8873746 9.8644054 47.7452848.6413813-.4279743-9.9404354-47.6562042c-.1306157.0774614-.3275139.1955901-.5653513.3388937zm-4.5150124-22.0803788 2.3276877 11.4139408.5673008-.3272745-2.1814762-11.646325zm60.8571428 25.8178925c-6.9733158-2.3858119-9.2522664-9.5548666-22.7232231-6.2879311-5.3279486 1.2955423-2.7897163-2.9086764-2.8774432-2.6511172l.0779795-.162669s.1208682-.7397566-1.1034098-.8617583c0 0-1.9709316-.0154923-4.3921947-.0019366-.068232-.2052727-.2202921-.6487394-.4152408-1.2451923-.2787766-.8172181-1.8422654-1.2781135-1.8422654-1.2781135l-.7330072-1.0011889-1.1034098.7262008s-.8733703.1510498-1.5771351.6526125c-.4425336.3156553-1.2203791 2.2076506-1.2203791 2.2076506s-.3431097.1103825-.7037648.137494c-3.5188245.2827342-8.7083595 1.5782765-12.2895675 2.5659097l-3.7995507-4.0105652c-.0155958-1.9539644-.1637569-4.1848534-.6140884-6.1891678-1.4699134-6.5261249-3.9906004-8.6059641-3.8034496-8.8557772.1891002-.2536862.5205131-.2536862 1.5673877-.2536862 1.0449252 0 2.2497083 1.0980157 8.1352102.7223278 5.6652099-.3621321 7.4177989-.5480396 13.2331193-.488007 3.3940573.0367942 6.2188643 1.5937688 8.1566546 1.7331994 0 0 .8051382.1684786.9591477 1.4504651.0428888.3543861 0 1.6654206.0253434 1.9694567h-.0019495s-.4698264 5.2073442.2943726 8.0598611c0 0-.1852013-5.0504848.6667246-7.8855729.8519259.1374941 1.8208211.3698783 1.8208211.3698783 2.7312316.4492763 10.1100407 2.8002305 18.1341302 12.5410045z" fill="#fffffe"/><path d="m42.6082168 28.2556466c1.1656664-.4506187 1.120148-1.0129125.7480848-1.2911206-.3720633-.2742897-.8391215-.184166-.8391215-.184166s-.2810266-.924748-.7461057-.6465399c-.4670582.2762489-.3740423 1.0148718-.3740423 1.0148718s-.5640322.2860449-.4690373.7405821c.0870787.4173122.5323672.8111138 1.680222.3663726zm5.5057452 64.9635504c-1.4308604.064654-.6234039-1.6594526-.6234039-1.6594526 1.9177092-6.396827 4.9753571-9.4218503 4.9753571-9.4218503l-.6214249-3.2542511s-1.0766087-.3526581-3.918539 2.513669c-5.9688452 6.0167399-8.298199 13.957426-9.4816769 16.0479052-1.1814989 2.098316 1.6564733 2.0512949 1.6564733 2.0512949s5.1831584-1.8416592 15.5237474-1.8416592c.0949949 0-.9816138-5.176238-.9816138-5.176238s-5.1000379.6778873-6.5289193.7405821zm9.4242842 4.3612058c.1880107 0 1.9137511-.0313474 1.9137511-.0313474.1840526-.6112741.3542518-3.2209444.5402834-4.2025096.1880107-.9874429.9341164-1.6672894.9341164-1.6672894l-4.6032938.4956806zm17.6947763.4427819-5.5453264-.3683318s-1.1775407-1.8259856-.6748595-3.2660064c.1820736-.5191911.1899898-.3663726.6847548-1.3538154.4967441-.9854837-.1860316-2.282482-.1860316-2.282482s1.6050177-.2801673 3.2990932-.0685724c3.0022341.3722503 2.4263276-2.8486942 2.4263276-2.8486942-.1880107-3.8185041-2.5549665-9.5766281-2.5549665-9.5766281l.5007022-1.108914c3.9699945 6.894467 4.1204031 12.9112069 4.5439219 17.1254718.3839377 3.789116-2.4936157 3.7479725-2.4936157 3.7479725z" fill="#e5b37e"/><path d="m54.49351 68.3032324c-1.3269375-.7808969-2.5867383.5167417-2.5867383.5167417l.8648789 4.4077293c.5923828-1.426824 1.1906895-2.4024632 1.9884317-2.6589059.7957676-.2602989 2.3241152-.2602989 2.3241152-.2602989-2.0595176-.3856281-1.2598008-1.2301537-2.5906875-2.0052662zm3.4140996-17.3764027-1.147248-.0038563c.0434414.3644186.4660078 1.2745009.4660078 1.2745009s-1.0267969-1.4094708-1.4454141-1.4094708c-.4166426 0-.8806758.4550412-.8806758.4550412s.3712266-.5032447-.1441465-.6844899c-.5114238-.1793171-1.6724941-.453113-2.3715058-1.0913275 0 0-1.4750333-1.8124522-1.6093067-.9216512-.1540195 1.0585491-.7207324 2.1016732-.7207324 2.1016732s1.0267969 1.8220928 2.7012656 3.0001867c1.678418 1.1838783 3.2620548 1.9088591 3.2620548 1.9088591l.7424531-1.2687164s-.1007051 1.2089441 0 1.6369913l.1856133.0886945c.3712265-.4569694.839209-1.1819502.839209-1.1819502s-.3514805.713412-.5114239 1.3072793c.2507754.0539879.5746114.0231377.7187578-.4454005.2488008-.8078909.4403379-2.099745.4225665-3.0618872-.0157969-.6497833-.0789844-1.2995667-.1204512-1.6716978zm19.6730335 6.4496301c-.6516211-.7288371-2.7012657-1.9262124-2.7012657-1.9262124.910295 1.6177099 1.4908301 3.7984369 1.4908301 3.7984369s.2112832 2.6145586.4126934 2.2655652c1.0899844-1.9262124 1.9449903-2.5914209 1.9449903-2.5914209s-.4936524-.8175316-1.1472481-1.5463688zm-7.6042208-2.3195531c-.8826504.1349699-.7898438-.2737959-.3238359-.4550411.4660078-.177389 1.1156543-.4068377 1.1156543-.4068377s.3751758-.4106939-.27842-.4106939c-.6516211 0-2.6064844.0906226-2.9796855-.136898-.369252-.2255924-.4640333-.1812452.3732011-.2255924.8372344-.0443473 1.4473887 0 1.5816622-.136898.1401972-.1330417.1875879-.4550412.0493652-.5418075-.1421719-.0944789-1.7218594-.0443473-2.0970352-.273796-.3712266-.2275206-.9734824-.5456638-1.0228477-.1831733-.045416.3624904.233004.4569693.233004.7288371 0 .2699397.0473906.6324301-.27842.6324301-.3258105 0-1.4908301-.2255924-1.814666-.4955321-.3258106-.273796-1.1630449-.7731844-1.1630449-.7731844s.136248.5880829-.0493653.9987768c-.1856133.4068377-.5114238.9525015-.4166426 1.1819502.0908321.2236643.7858946.5321668 1.3999981 1.1684532.8708027.8908009 1.3565567 1.0489084 1.8205899 1.7777456.4660078.7249808 1.5599414 1.9242842 1.7455547 2.0631104.1856133.1349698.3258105-.1812453.7404785-.6382146.4205918-.4550411.8174883-.4087658 1.471084-.8156034.6516211-.4087658 1.0366699-.5514482 1.1294766-.7346216.0928066-.1831733-.3495059-.0038563-.7700977-.4588974-.4186172-.4550412-.7898437-.6362864-.1836387-.9081542.6042305-.2757241.6042305-.2757241.9774317.179317.3712266.4550412.5568398.7770407.5568398.7770407s.0947813-.410694.0947813-.7288372c0-.316215-.3751758-.8213878-.5607891-1.1356747-.1836386-.3219995-.4640332-.1851015-1.3506328-.0482036zm-26.5762679 12.7315122s.515373-3.9295505 1.0346953-4.9341117c.5114238-1.0064894-.6239766 0-1.2400547 1.3072793 0 0-.515373 2.3195531-.515373 3.3260424 0 1.0064894.7207324.30079.7207324.30079zm-2.2688262-3.524641c-.3080391 1.9107873.4087441 1.9107873.4087441 1.9107873l.1046543-1.1048245c.1046543-1.1067527.207334-1.9146436.207334-1.9146436.2053594-1.2108723-.4107187-.8078909-.7207324 1.1086808zm8.356547 6.0447207c-.0987305 1.2050878-1.0327208 1.1086808-2.5808145.9042979-1.5461192-.1985985-2.472211-.5013166-3.4042266-1.3072793-.9260918-.8078909-1.3387852-.5032447-1.3387852-.5032447.7187578 1.6119255 2.0614922 2.2173616 3.9176251 2.7186782 1.8581074.507101 3.4062012 1.8143803 2.9915332 2.2173616-.4107188.4049096-.9241172.1041196-2.5768653-.4029813-1.6507734-.5051729-1.6507734-.7056995-1.6507734-.7056995s-.9300411-.2024547 1.8541582 1.0084175c2.7881485 1.2089442 4.3382168 1.1067527 4.3382168 1.1067527l-1.1354004-5.3390212s-.3119882-.9081542-.4146679.3027181zm2.7841992-4.3267474c-.2033847-1.2089442-1.7534531-2.824726-.4087441-1.5135904.6713672.6574959 1.0287715-.7037713.3100136-1.6119255-.7266562-.9042979-.4600839-1.0585492.4482364-2.0419008 1.3822266-1.4962371.9952031-2.2925592.5825098.4319034-.4126934 2.7167501.5627636 2.3214813 1.7514785 3.0233244 1.2440039.7307653 1.6586719 1.7816019.9438633 1.9107873-1.6507735.3065744-1.0485176 1.714117-1.0485176 1.714117s-1.2262324-1.2417225-3.1870196-.4820352c-.0217207.0077126.8174883-.2236643.6081797-1.4306802z" fill="#8b8e8d"/><path d="m69.5113088 50.0117584c-.1409513-.0176263-.2147829.0594885-.3132251.0440656-.0984422-.0220328-.0469838-.1498231.1924097-.1586362.2438681-.0022033.3736328.0815214.3736328.0815214s-.1073914.055082-.2528174.0330492zm-.9128275.290833s.2304442-.5508201.4497018-.7579285c.2214949-.2159215.1118661.0881312.1118661.0881312s-.4765496.4781119-.5615679.6697973zm-.3132251-1.4629783c-.2505801-.0308459-.3557342-.2732068-.3557342-.2732068l-.5749919-.0903345.3355984-.0991476s.604077-.1277903.8389958-.14101c.2371562-.0176262.4653631.0572853.4653631.0572853l.1364766.3657446-.4183792-.0088131s-.0783063.235751-.4273286.1894821zm-.3176998-1.0685911.6823833-.1299935.5257708.2181247.0447464.2996462-.465363-.1366034-.6555355-.0462689-.7316043-.0837246zm3.8772796-.8460597c-1.3133082-.7711482-4.18603-.517771-4.18603-.517771-.7920121.1982953-.4989229 1.7119491-1.1611703 1.9432935-.4586511.1630428-.1700365 1.767031-.1700365 1.767031s-.4653631.9430041.2035963 1.7736409c.4183793.5199742 1.7227382 1.3307815 2.2507462 1.2294306.5280081-.1057575 1.832367-.517771 1.832367-.517771s.7517403-1.6150046.9620486-2.2363298c.2125456-.6235284.0313225-1.6105981.0313225-1.6105981s-.1275274.1321969-.1879351.1586362c-.1163407.0528788-.5190587.0727083-.5190587.0727083s.7069938-.2842232.3624462-.1762624c-.3445477.1123673-.6958073.0374557-.6958073.0374557v.2401576s.0246106.1542297.0559331.3701511c0 0 .3870568.5794628.4273286.8041975.0357971.1828722-.0872556.7425055-.0872556.7425055l-.3713955 1.2646831-.0894929-.5243808.1118661-.4825185s-.4944482.1123674-.6622474.1123674c-.2058336 0-.8457078-.1233838-.8457078-.1233838l-.7383164-.1299935-.0223732.1145706.0671197.4494692s-.1431887-.1674493-.1655619-.2269379c-.0201359-.0528787-.0492211-.1916854.0111866-.4098102.0178986-.0660984.1834605-.2269379.1834605-.2269379l-.0313226.1564329s.9441501-.1299935 1.2596125-.1013509c.0827809.0044066.2393935.0837247.3221744.0837247.0894929 0 .2572921-.0925378.346785-.0837247.1029168.0044066.3825821.1542297.3825821.1542297l-.0022373-.0198295c-.1163408-.2269379-.2886146-.7491154-.2886146-.7491154l-.8009614-.030846s.3803448-.1189771.5235334-.2269379c.1946471-.1476198.1476633-.2577838.1476633-.2577838s-.402718-1.0509648-.2953266-1.4563685c.0894929-.3150691 1.3133082-.6499677 1.7428741-.7006432.2326815-.0286426.2998012-.542007.0962049-.6653907zm-1.3714786 1.4255225c1.0739147-.1145706 1.145509.1013509 1.145509.1013509l.1163408-.3701511s-.3534969-.0616919-.8255719.039659c-.478787.1035542-.4362779.2291412-.4362779.2291412z" fill="#efc89d"/><path d="m99.9795918 90.174248c-1.7620942 0-3.2329681-1.4177675-3.2329681-3.2375886 0-1.8282853 1.4708739-3.2333564 3.2329681-3.2333564 1.7642042 0 3.2329682 1.4050711 3.2329682 3.2333564 0 1.8198211-1.468764 3.2375886-3.2329682 3.2375886m0-7.0994181c-2.1567189 0-3.8639455 1.7097854-3.8639455 3.8618295 0 2.1541603 1.7072266 3.8660617 3.8639455 3.8660617 2.1567192 0 3.8639452-1.7119014 3.8639452-3.8660617 0-2.1520441-1.707226-3.8618295-3.8639452-3.8618295m-.1983675 3.4301511h-.6668524v-1.0834284h1.0804701c.521242 0 .977065.0423214.977065.5924999 0 .5903838-.799801.4909285-1.3906827.4909285m2.0195497-.5586428c0-.9162587-.706948-1.1511426-1.489866-1.1511426h-1.8211827v4.3442937h.6246466v-2.0039192h.8061317l1.1079034 2.0039192h.715389l-1.099462-2.0039192c.58033-.0211607 1.15644-.3364553 1.15644-1.1892319" fill="#aca3bc"/><path d="m49.30182 46.9324524c-.5599469-.2785358-.376584-.7708774-.9345593-.9591833-.5579752-.1843829-1.2046744-1.2906802-1.2046744-1.2906802-1.5812585.6433786 0 4.7154943.1833629 5.3627959.1853345.6453401.9937085.9552603 1.9164379-.3393429.5698051-.8022618.5934648-2.1262878.5934648-2.1262878s0-.3687658-.5540319-.6473017zm19.9826115 22.9694004c-.1459017.2020366-.2346257.3530736-.2346257.3530736s.0433762.2785359.1242136.682609l.3824989-.3844579zm3.5765621-1.7928294-.7906292.429573c.7157067.2863819.8616084 2.391093.8616084 1.0709899 0-.4295729-.0709792-1.5005629-.0709792-1.5005629zm-1.2933984.5001877s-1.3663493.2863819-1.7981393.7139933c-.0690076.0706147-.1301285.143191-.1912495.2138057l.6940187 1.9320973.57572 1.0003752-.7906292-.7139933-.4948826-1.1886812-.348981.5649178c.0394329.1902675.0808374.384458.1242136.5531487.0138015.0509995.0374612.1098451.0532343.1647677l.3785557-.5943406-.3056048.8179539c.0690075.1981135.1360434.3569966.2484271.5511871l.3450377-.4393805-.2425122.5825715c.1774479.2687282.3943288.5080337.6743022.6316095.1399867.0647301.5776917.0451149.7176784.0706147l.1951928-.3216893-.266172-.1765368.1143554-.2314594.9168144-.2098826.2977183-.1314219c.1616748-.2785358.2405405-.5315719.3213779-.8571843.2188525-.8591458-.43179-2.7892816-1.2184759-2.9324725zm-24.6770958-24.8014602s-.0768941-.7493007-.1971644-.9670294c-.1143553-.2079211-.6861321-.6590708-.6861321-.6590708l.1084404.6590708s-.0670359.6453401 0 .9670294c.0650643.3236508.4515065.58061.4515065.58061zm-1.7646213-1.0984513c-.3233497-.1255372-.9680772.2589207-.9680772.2589207l.9049845-.7708774s-.1301285-.7748004-.3884138-.6453401c-.260257.1274988-1.362406 1.1572968-1.362406 1.1572968s-.3568675.4197653-.3233496.5825715c.0197164.1000375.3233496.2549976.3233496.2549976s-.3884138.388381.1951928.772839c0 0 1.4254985-.5119568 1.555627-.772839.1301285-.2549976.3864423-.7061472.0630927-.8375691zm25.6451729 11.2218566c-.0473194.6433785 1.0351131 1.520178 1.2224193 1.520178.1833629 0 .6112096-.343266.6112096-.343266s-.5698051-1.0533363-.7196501-1.7359453c-.281945-1.2828341-.5106557-2.9560108-.5106557-2.9560108-.5599469.1824214-.5599469 2.8657809-.6033231 3.5150441zm-4.6451932-7.3557004c.1360435-.7394931.7393665-.8316846 1.0568012-.9474142.1754763-.0627687.8340054.1294603 1.0725743-.2059597.2267391-.3059971.6230395-.543341 1.2283342-.4040731.6013514.1412295.6683873.9631064.6683873.9631064l1.0370847.3648427.2780018-.2294978c.0473195-.8807226-.3726407-1.851675-.7433097-2.0811729-.3746124-.2334209-1.2086178-.4178037-1.2086178-.4178037l-.2819451-.1216143-.2129375-.2393054.1597031-.1569217-.3824989-.4707648-.6013514.3707273.2799734.2569592-.0768941.0372688-.2780018.1373064c-1.5792868-.0902299-2.0919142 1.0631439-2.60257 2.4989767-.5106558 1.4338711-2.4665266 5.9630211-2.4665266 5.9630211l1.3978956.6924166s1.533939-5.268643 1.6758973-6.0100976zm-21.2898114-1.7104456s.2799734-.4609572.1853345-.829723c-.0906956-.3668042-1.3880373.4903801-1.3880373.4903801.0926672 1.2887187.8556935 2.1262878 1.5733719 1.6359077.3194063-.2177287 0-.6512246 0-.6512246zm23.1471001 39.3637854.7452814 3.8190797s.0571776.3726888-.6861321 1.9732892c-.7433098 1.6045235-1.6088615 2.775551-2.8490255 4.5624958-1.2421357 1.7908678-2.8490256 4.6272259-3.533186 7.0908947 0 0-2.9140898 1.045491-4.3356451 2.651976 0 0-1.2362207-.986645-.5599469-1.912482.6802172-.923876 2.2338726-2.400901 2.6025701-3.6346972.3726407-1.2337962.4988259-5.7335233 1.8612319-6.6593608 1.3643776-.923876 2.2949935-2.5283994 2.2949935-2.5283994l-.7097918-2.2243638s-.2208241-.3040356.2109659-.7963772c.4337617-.4923415 3.2236379-3.0835096 4.9586846-2.342055z" fill="#d9dad6"/><path d="m63.0928175 88.7180375s-.1225156-.5520768-.371499-1.3508263c-.2470073-.8026649-1.491924-1.2333631-3.2288793-2.2161382-1.7409073-.982775-5.6535028-4.1875614-5.6535028-4.1875614s1.9582738 8.2928987 2.2052811 9.2130267c.2489833.9220858.7825191 1.0297603 1.0947363 1.0297603.306289 0 4.4540354-.4815989 4.7642766-.7263138.3082651-.2486303 1.1895871-1.7619473 1.1895871-1.7619473zm35.9207879-22.3238725-.8240163-.8907622-1.5729424 3.3026723s-.7904233-1.3762766-1.5018043-2.8954667c-.711381-1.5211478-2.438456-3.8625801-2.438456-3.8625801l-.4544934 1.1883356c1.2429407 1.4859089 3.7149897 6.4604735 3.7149897 6.4604735-.033593.33477-1.118449.7439333-1.2370125.7830877-.1106593.0371967.9406037.55795.9406037.55795l.8615614-.1527021-.4564694 2.6350901c-9.4732236 4.0211553-20.8987927-.2623344-22.9795821-1.1002382l-.9979095.2212222v.1018014l.1383241.1155055c17.0257184 8.046226 24.8232445 1.1844201 24.8232445 1.1844201l-.2292228-.8907622s.2292228-.7791723.4880864-1.5583446c.2647919-.7791722.1877256-1.7110466.1877256-1.7110466.9030586-1.0767456 1.5373733-3.4886557 1.5373733-3.4886557zm-29.9293791 31.5858422c-1.6500087-2.4256141-1.1125208-5.4816139-1.1125208-5.4816139l-1.5591101 2.2709544s-.2529354.7517641-.2529354 2.8641432c0 3.4377551 7.5347103 5.1018161 7.5347103 5.1018161l2.3515094-.440487s-5.3096687-1.891156-6.9616534-4.3148128zm-20.5984318-6.7737086c-.3141933 1.1119846-.5770091 1.2979679 1.7567158.8672697 2.6242054-.4796412 4.1062492-.5794849 4.1062492-.5794849l-1.7705483-8.3653343s-3.017441 4.2619548-4.0924167 8.0775495zm14.8737909 8.7275124c-.2509594 1.129604.6402429 2.893509 1.1777307 2.960071.543416.062647.2549115-.949493.0968269-1.574006-.1600608-.630385-.1264678-1.131562.1580846-1.3566992.2885045-.2192646.3161694-.7850454.2885045-1.1335195-.0335929-.3445585.3458103-.6930326.3458103-.6930326s.3537144 0 .2549115-.5031338c-.0928748-.5031338.0316169-1.9498884.0316169-1.9498884-.7904233.6264702-2.0946218 3.1166891-2.3534854 4.2502085zm-2.0037232 4.657414s1.3417436-.246673.8615615-1.38215c0 0-1.7665962.567739-2.7328887 1.887242-.7647346 1.037591.4782061 1.45067.4782061 1.45067s.505871.281911.8852741 1.260771c.3833554.972986 2.5451632 1.634695 2.7052239 1.225532.1580846-.411121-.3537145-1.198124-.6995247-1.793271-.3497623-.599062-.8912023-2.396248-1.4978522-2.648794zm1.8436624-2.388417c.1284438-.191857.0968269-.444403-.4446131-.604936-.5374878-.152702-3.6517557 1.701258-4.2544535 2.20635-.608626.505091-.2252707.916213-.2252707.916213s.1304199.56578.7963515-.033282c.6659317-.595146 2.066957-1.511359 2.5728279-1.889199.5117991-.375882 1.4306663-.411121 1.5551579-.595146zm-25.5800748-3.224364c-1.2627012.3523895-.644195.7752568.0553296 1.472205.7015007.696948 1.3041985-.332812 1.3041985-.332812-.8180881-.1429139-1.3595281-1.139393-1.3595281-1.139393zm51.3439231-28.5729122s.5276075-1.1159 1.1263532-2.5626545c.6007217-1.4487123 1.4998283-4.5301623 1.4998283-4.5301623l-.709405-.6754132c-.7173091 3.2733066-2.8178591 7.0223389-2.8178591 7.0223389zm4.0864886-11.29604-1.084856-.9984368-.6007218 2.2611657 1.1243772.7086943c.2628158-.5579499.5612006-1.9714232.5612006-1.9714232zm-.7884473 2.5646122-.9741967-.8124535-.4070681 1.2607712.9741968.7047789zm-1.4939001-1.1883356-4.2050521-3.4925711-.4900624.6323433 4.3947537 4.0838023zm-54.4917839 39.1798351s-.7410219-.0763511-1.7330032-.1272518c-1.0097658-.0509007-1.0137179-.1057168-1.4800676-.2466726.2450312.383713.6303626.5462037.6303626.5462037s-1.5966552.5834002-1.9088724.9788592c-.0948508.119421-.1561086.591232-.1561086.591232s-.644195.867269.2074861.833988c1.2883901-.050901.6441951-.205561 1.7863568.076351 1.1461138.285827.8240163.440487 2.1104302.440487 1.2844379 0 1.4524029-.747849 1.7349792-1.458501.2904806-.704779-.7607824-.219265-1.1915631-1.6346955zm33.1503542-9.8473278s.5631766-1.4056424.4347328-2.0869287c-.1225156-.6714977-.5572484-3.6903008-.5572484-3.6903008s2.6696547-5.4737829 3.1043876-4.7337651c0 0 2.1815683 7.237688 1.9740822 9.2717583-.0928747.9338321-1.1303053 1.2588135-2.1558796 1.0982805-.9781489-.1546598-2.8000746.1409558-2.8000746.1409558z" fill="#d07a2e"/><path d="m69.5168358 63.0188269c-.3014237.1178536-1.2795536.086426-1.2795536.086426s-.0858358-1.2315706-.1018053-1.6872714c-.0119771-.4517723.5689122-1.225678.5689122-1.225678s-1.0899161.3515968-1.5749886.3319545c-.4890649-.0137496-1.2416261-.5598048-1.2416261-.5598048.6327902 1.0960389.8503741 3.0465168.8503741 3.0465168-1.8245115.0392845-2.7487444-1.6322731-2.7487444-1.6322731s.0159694.6619447.1596946 1.4476357.141729 2.6026014.141729 2.6026014.3513283-.4458796.8902978-.7464065c.5389695-.3083837 1.5170994-.276956 1.5170994-.276956l-.0339351.9094373c-.031939.9074731-.4830764 2.1272583-.4830764 2.1272583s.4870687-.1139251 1.4033169-.0805333c.9122558.0314277 1.774607.2573138 1.774607.2573138s-.391252-.7247999-.7106413-1.261034c-.3213855-.526413-.4191985-1.7638763-.4191985-1.7638763s.7306031-.0412488 1.2795535-.0255349c.5509466.0196422 1.1118742.5774828 1.1118742.5774828-.075855-.5224845-.0898283-2.9915184-.0898283-2.9915184s-.7126374.7483707-1.0140611.8642601m-5.573344-20.9838421.3493321-4.775037-4.5233514.8131902s.3413473-1.2217495.2535152-2.0310112c-.0818435-.7640845-.6148244-1.9072649-.6148244-1.9072649l4.6650805 1.113717-1.2216642-4.2780874s1.2795535.449808 2.0979887.4223089c.7226183-.025535 1.7626299-.4812358 1.7626299-.4812358l-.3872596 4.4234403 4.2937904-.8917593s-.3792749 1.1765723-.2874504 1.9583348c.0938206.7267642.6687214 1.8011966.6687214 1.8011966l-4.583237-.803369 1.3234696 3.9795248s-.8942902.1316033-1.9422864.0471415c-1.077939-.0903545-1.8544544.6089105-1.8544544.6089105" fill="#c72535"/></g></svg>