<?xml version="1.0" encoding="UTF-8"?><svg id="a" xmlns="http://www.w3.org/2000/svg" viewBox="0 0 1764.72 290.64"><path d="M1385.57,290.64c.05-.3-.13-.47-.38-.47-1.2-.02-2.4,.03-3.6-.02-.67-.03-1.45,.3-1.98-.42-.47-.01-.96,.02-1.42-.05-.98-.16-2.08,.48-2.93-.46h-2.87c-.68-.88-1.62-.44-2.44-.46-.65-.02-.98-.76-1.73-.54-.51,.15-1.1,0-1.65-.01-.5-.88-1.5-.1-2.13-.66-.59-.52-1.36-.16-2.05-.25-.57-.99-1.91,.03-2.49-.95-.43-.06-.98,.07-1.42-.03-.27-.06-.38-.56-.76-.45-.76,.21-1.19-.67-1.97-.51-.77,.17-1.36-.68-2.16-.54-.38-.75-1.44-.06-1.81-.85-.84,.28-1.37-.72-2.19-.52-.08,.02-.2,.04-.23,0-.48-.52-1.2-.6-1.77-.95-.71,.24-1.03-.64-1.69-.56-.3-.52-.93-.22-1.25-.44-.44-.3-.99-.36-1.39-.74-.32-.3-.89-.23-1.16-.66-1.07,.15-1.81-.65-2.71-.98-.83-.31-1.56-.86-2.37-1.24-.6-.29-1.29-.46-1.78-.88-.86-.72-1.9-1.26-2.92-1.67-.54-.13-.69-.63-1.1-.84-.45-.24-.97-.37-1.41-.63-.39-.24-.68-.79-1.08-.86-.63-.11-.9-.57-1.33-.88-.36-.26-.91-.22-1.15-.69-.24-.47-.82-.36-1.17-.67-.33-.3-.58-.65-1.12-.78-.47-.11-.84-.69-1.21-1.1-.38-.4-1.02-.32-1.35-.83-.38-.6-1.08-.83-1.64-1.22-.52-.36-.84-1.04-1.39-1.3-1.17-.57-1.82-1.74-2.86-2.37-1.66-1-2.78-2.53-4.19-3.77-.36-.32-.75-.63-1-1.03-.26-.41-.77-.17-1-.5-.34-.5-1.11-.7-1.03-1.49-1.53-1.68-3.46-3.15-4.75-4.99-.44-.81-1.29-1.19-1.66-1.95-.5-1.02-1.36-1.68-2.04-2.52-.32-.4-.38-.99-.87-1.31-.54-.35-.67-1.01-1.05-1.47-.35-.43-.57-.88-.84-1.34-.26-.45-.77-.7-.87-1.33-.07-.39-.75-.68-.83-1.08-.14-.64-.88-.81-.94-1.28-.07-.57-.54-.76-.71-1.16-.47-1.1-1.56-1.86-1.75-3.11-.55-.36-.39-1.17-.98-1.52-.36-.21-.37-.64-.54-.97-1.92-3.84-3.96-7.64-5.74-11.53-.8-.36-.05-1.45-.85-1.81-.07-.67-.78-1.15-.56-1.95,.06-.22-.44-.36-.47-.75-.04-.51-.59-.85-.49-1.49,.07-.42-.61-.68-.52-1.21-.66-.32-.17-1.1-.53-1.44-.43-.41-.18-.95-.4-1.28-.32-.49-.53-.93-.44-1.5-.56-.36-.31-1.04-.55-1.44-.25-.43-.36-.8-.44-1.27-.09-.5-.57-.87-.47-1.49,.05-.36-.56-.52-.47-1,.19-.67-.47-.83-.46-1.48-.03-.54,.04-1.05-.44-1.52-.26-.26,.16-.94-.37-1.27-.06-.04-.14-.11-.15-.17-.1-.53,.24-1.15-.2-1.59-.43-.42-.3-.89-.26-1.33,.06-.6-.71-.83-.52-1.49,.12-.43,.04-.88-.36-1.29-.21-.21,.03-.8-.12-1.13-.35-.79-.56-1.59-.46-2.45,.06-.51-.61-.67-.51-1.25,.07-.42,.21-.94-.29-1.31-.14-.1-.13-.42-.16-.64-.09-.83,.27-1.74-.48-2.44-.08-.69,.22-1.43-.23-2.06-.47-.65-.24-1.38-.23-2.05,.01-.72-.73-1.17-.53-1.97,.15-.6,.03-1.27,.03-1.91-.91-.94-.42-2.11-.44-3.16-.01-.61-.47-.96-.51-1.48-.06-1.19,.01-2.4-.01-3.6-.93-.76-.31-1.79-.47-2.68-.19-1.05,.38-2.2-.47-3.17-.1-1.61,.1-3.38-.04-5.02-.08-1.22,.45-2.5-.43-3.66-.19-.25-.03-.78-.03-1.18,0-5.04,0-10.07,0-15.11,0-.6-.23-1.25,.39-1.77,.17-.14,.08-.6,.08-.91,0-1.84-.03-3.68,.02-5.51,.02-.75-.3-1.57,.41-2.24,.16-.15,.05-.61,.05-.92,0-1.2,.02-2.4,0-3.6-.01-.5,.63-.67,.51-1.24-.13-1.01,.04-2.08-.03-3.11-.01-.49,.65-.67,.5-1.24-.07-.84-.05-1.78,0-2.63,.09-.51,.6-.86,.48-1.49-.09-.46-.2-1.08,.02-1.41,.63-.95,.38-1.95,.44-2.94,.78-.78,.44-1.77,.46-2.68,0-.51,.63-.68,.52-1.24-.09-.46-.02-.96-.02-1.44,.98-.57,0-1.89,.95-2.5,.11-.07,.01-.46,.02-.7,0-.61,.02-1.17,.43-1.75,.31-.43-.23-1.25,.43-1.73,.09-.06,.11-.29,.08-.43-.19-1.03,.84-1.86,.49-2.92,.79-.38,.16-1.37,.79-1.84,.33-.42,.12-1.09,.18-1.6,.84-.34,.17-1.35,.83-1.83,.38-.27-.12-.94,.35-1.28,.4-.29,.2-.72,.25-1.09,.03-.23-.02-.59,.1-.66,.65-.36,.11-1.13,.52-1.47,.4-.34,.22-.89,.65-1.19,.38-.27-.03-.86,.2-1.09,.39-.39,.49-.78,.45-1.27,.61-.62,.43-1.56,.92-2.27,.31-.45,.81-.99,.52-1.69,.52-.38,.39-1.17,.96-1.52-.13-1.07,.62-1.82,.98-2.71,.2-.49,.46-.91,.51-1.48,.04-.47,.49-.9,.73-1.36,.98-1.93,1.79-3.91,2.88-5.76,.59-1.42,1.47-2.79,2.07-4.17,.12-.65,.91-.82,.93-1.28,.03-.54,.51-.75,.56-1.23,.08-.7,1.07-.92,1.02-1.73,.55-.45,.49-1.32,1.19-1.67,.16-.62,.73-1.01,.97-1.52,.27-.59,.86-.97,1.01-1.49,.2-.68,.71-1,1.06-1.49,.12-.17,.06-.51,.2-.63,1.05-.85,1.46-2.22,2.53-3.04,.22-1,1.06-1.52,1.71-2.16,.45-.44,.44-1.13,.99-1.53,.51-.36,.9-.91,1.38-1.33,.47-.42,.49-1.11,1-1.52,1.97-1.86,3.84-3.86,5.78-5.75,.79-.79,1.6-1.56,2.37-2.38,.59-.63,1.47-.82,2.03-1.51,.5-.62,1.11-1.15,1.68-1.71,.38-.37,.98-.37,1.35-.83,.32-.4,.62-.96,1.31-.87,.4-.39,.74-.87,1.2-1.16,.52-.32,1.13-.51,1.48-1.04,.32-.49,.93-.54,1.31-.87,.47-.4,.98-.7,1.5-1.02,.44-.28,.77-.74,1.35-.82,.41-.73,1.33-.76,1.84-1.36,.1-.12,.21-.29,.34-.33,.65-.19,1.33-.47,1.77-.9,.98-.9,2.26-1.14,3.33-1.85,.37-.28,.89-.2,1.19-.65,.2-.31,.47-.66,.96-.56,.31-.51,.95-.41,1.36-.79,.31-.29,.86-.27,1.16-.65,1.22,.09,2.31-1.15,3.49-1.4,.45-.12,.67-.73,1.23-.52,.56,.21,.79-.39,1.23-.51,.7-.2,1.32-.78,2.02-.88,.69-.1,1.19-.84,1.95-.53,.41-.41,.9-.58,1.48-.48,.29-.52,.98-.38,1.35-.81,.37-.42,1.08,.12,1.48-.5,.26-.4,.94,.12,1.28-.35,.29-.4,.72-.26,1.09-.25,.43,.02,.71-.17,1.05-.4,.28-.2,.74-.11,1.11-.21,.21-.06,.37-.3,.57-.34,.51-.12,1.09,.2,1.56-.31,.37-.41,.9-.13,1.36-.17,.48-.03,.67-.63,1.25-.52,.43,.09,.97,.19,1.29-.34,.03-.06,.12-.1,.19-.11,.6-.09,1.29,.28,1.75-.4,.55-.03,1.11,0,1.64-.1,.43-.08,.82-.37,1.25-.44,.47-.08,.96-.02,1.44-.02,.7-.75,1.61-.47,2.44-.46,.72,0,1.15-.76,1.97-.53,.59,.17,1.27,.03,1.91,.03,.76-.92,1.79-.4,2.68-.44,.72-.03,1.31-.35,1.97-.48,1.48-.17,3.04,.03,4.55-.03,.24,0,.55,.1,.71-.02,1.3-.89,2.76-.38,4.13-.44,2.16-.09,4.32-.1,6.48,0,1.53,.08,3.15-.52,4.6,.45,1.75,0,3.49-.04,5.23,.12,.49,.63,1.17,.31,1.77,.35,.64,.04,1.28,0,1.92,0,.68,.85,1.62,.44,2.44,.45,.65,.01,1,.71,1.73,.53,.52-.13,1.1,0,1.66,0,.53,.74,1.31,.42,1.98,.42,.59,0,.83,.72,1.49,.53,.44-.13,.86,.04,1.29,.37,.3,.24,1.06-.11,1.36,.13,.64,.51,1.3,.42,1.99,.44,.43,.67,1.14,.35,1.71,.51,.57,.16,1.06,.6,1.71,.49,.33,.62,1.08,.23,1.44,.54,.42,.37,.9,.24,1.28,.42,.49,.23,.92,.55,1.5,.44,.39,.47,.91,.56,1.48,.48,.4,.6,.88,.46,1.47,.5,.45,.27,.86,.65,1.34,.82,.55,.2,1.17,.16,1.69,.58,.39,.31,1.01,.34,1.39,.66,.35,.3,.7,.27,1.07,.34,1.96,.82,3.8,2.02,5.78,2.82,.65,.28,.88,1.16,1.73,1.05,.57,.66,1.58,.59,2.13,1.2,.9,.85,2.61,1.58,3.52,2.53,.74-.02,1.02,.64,1.51,1,.1,.08,.4-.05,.46,.02,.87,1.15,2.35,1.56,3.2,2.71,.48,.65,1.38,.65,1.86,1.34,.41,.58,.91,1.24,1.52,1.5,1.24,.52,1.91,1.6,2.83,2.43,.95,.86,1.81,1.81,2.73,2.7,.62,.59,.82,1.47,1.51,2.02,.62,.5,1.31,1.03,1.66,1.7,.41,.79,1.16,1.28,1.52,2.01,.37,.72,.87,1.27,1.41,1.81,.33,.33,.22,.88,.67,1.17,.32,.21,.48,.53,.58,.96,.09,.4,.59,.71,.91,1.05-.14,.84,1.09,.93,.96,1.76,.32,.35,.81,.65,.91,1.05,.1,.42,.49,.69,.49,.99,.01,.6,.52,.76,.73,1.15,1.45,2.84,2.91,5.67,4.25,8.55,.66,.43,.03,1.45,.82,1.82-.11,.65,.76,.97,.52,1.73-.1,.33,.52,.68,.47,1.23-.03,.32,.38,.65,.42,1,.06,.48,0,.95,.48,1.25-.31,.84,.66,1.36,.53,2.2-.05,.3,.32,.65,.44,1,.09,.28-.1,.63,.21,.87,.12,.09,.29,.27,.26,.36-.35,1.07,.74,1.88,.5,2.92,.28,.61,.53,1.23,.62,1.91,.02,.13,.3,.22,.31,.34,.04,.47-.07,.98,.06,1.42,.1,.33,.49,.54,.47,1.01-.04,.68-.08,1.34,.42,1.99,.32,.42-.24,1.25,.42,1.73,.36,.67-.22,1.57,.35,2.25,.44,.57,.13,1.22,.24,1.82,.1,.59,.69,1,.51,1.73-.13,.53-.02,1.11-.03,1.67,0,.42-.13,.53-.56,.54-14.08,0-28.15-.01-42.23,.03-.82,0-1.49-.3-2.15-.62-.38-.18-.83-.56-.64-1.14,.27-.84-.64-1.38-.5-2.2,.13-.77-.65-1.36-.56-2.15-.53-.31-.22-.9-.42-1.26-.22-.41-.52-.74-.45-1.26,.07-.49-.67-.68-.48-1.24,.16-.47-.45-.68-.44-1,.02-.59-.69-.82-.56-1.49,.1-.95-1.18-1.69-.92-2.71-.54-.37-.4-1.17-.96-1.52,.16-.61-.69-.85-.53-1.46-.66-.57-.59-1.58-1.2-2.13-.6-.53-.67-1.4-1.34-1.85-.4-1.07-1.22-1.82-2.05-2.49-.76-.61-.99-1.56-1.67-2.2-.7-.66-1.45-1.29-2.02-2.05-.55-.73-1.45-.88-2.03-1.5-.6-.64-1.24-1.25-1.86-1.87-.78,.11-.96-.9-1.52-.92-.83-.03-.93-1.13-1.76-1-.39-.51-1.18-.38-1.52-.96-.56,.21-.76-.43-1.23-.51-.49-.09-.97-.38-1.38-.69-.37-.28-.93-.18-1.17-.66-.55,.14-.75-.53-1.22-.52-.5,.01-.85-.25-1.27-.43-.45-.2-1-.14-1.48-.5-.31-.23-.87,.05-1.28-.39-.34-.37-1.13,.14-1.45-.53-.77-.31-1.66,.21-2.45-.47-.48-.39-1.43,.23-1.92-.55-.72,0-1.45,.09-2.15-.05-.57-.11-1.04-.56-1.73-.47-.79,.1-1.6,.02-2.4,.03-.7,.01-1.17-.68-1.97-.52-.77,.15-1.59,.03-2.39,.03-3.68,.03-7.37-.05-11.04,.02-1.14,.13-2.36-.45-3.42,.45-.14,.12-.47,0-.71,.02-1.22,.14-2.52-.39-3.65,.47-.1,.08-.31,0-.47,.01-.68,.1-1.4-.22-2.06,.25-.63,.45-1.38,.14-2.06,.22-.62,.7-1.44,.45-2.2,.47-.49,0-.67,.63-1.25,.52-.34-.07-.82-.23-1.11,.16-.36,.49-.99,.07-1.28,.36-.4,.39-.82,.35-1.28,.43-.42,.08-.71,.61-1.25,.46-.07-.02-.2-.04-.23,0-.42,.46-1.17,.39-1.53,.94-.67-.19-1.18,.22-1.72,.49-1.13,.56-2.26,1.12-3.36,1.72-.39,.21-.93,.18-1.17,.67-.24,.48-.85,.36-1.15,.69-.43,.47-.93,.78-1.51,1.01-.34,.14-.81,.25-.96,.52-.4,.69-1.29,.55-1.7,1.17-.53,.8-1.56,.98-2.18,1.69-.58,.66-1.13,1.44-1.88,1.84-1.73,.93-2.77,2.55-4.19,3.77-.65,.56-.83,1.46-1.52,2.02-.62,.5-1.31,1.03-1.67,1.7-.53,1-1.37,1.67-2.06,2.51-.27,.33-.26,.88-.7,1.14-.38,.22-.35,.66-.52,.98-.22,.4-.81,.55-.85,1.09-.06,.75-1.15,.89-1.01,1.74-1.3,1.05-1.44,2.8-2.52,4-.97,1.1-1.12,2.78-2.07,3.92-.25,.31-.08,.75-.47,1.03-.17,.12-.09,.58-.18,.86-.47,.65-.54,1.4-.97,1.98-.45,.52-.36,1.14-.58,1.69-.2,.48-.61,.87-.81,1.34-.17,.4,.15,.93-.35,1.3-.43,.31,.05,.89-.33,1.3-.34,.38-.62,.87-.76,1.35-.12,.43,.05,.94-.44,1.27-.08,.06-.1,.31-.06,.44,.32,.92-.79,1.54-.49,2.44-.81,.32-.2,1.21-.66,1.64-.51,.47-.22,1.04-.3,1.56-.07,.45-.61,.68-.5,1.24,.08,.44,.14,.96-.37,1.28-.05,.03-.08,.13-.08,.2-.03,.47,.08,1.01-.13,1.38-.2,.35-.39,.64-.36,1.06,.04,.48,.04,.95-.45,1.26-.21,.72,.26,1.55-.33,2.26-.45,.53-.06,1.23-.18,1.84-.1,.51-.64,.85-.5,1.48,.1,.46,.09,.97,0,1.43-.1,.5-.59,.87-.48,1.49,.09,.46-.02,.96,.02,1.43,.07,.79-.69,1.35-.52,2.21,.14,.69,.03,1.43,.03,2.15-.91,1.03-.48,2.28-.42,3.4,.04,.85-.63,1.39-.55,2.2,.08,.87,.09,1.76,0,2.63-.1,.98,.46,2.05-.44,2.94-.08,8.39,0,16.95-.02,25.39-.36,.78,.54,1.24,.49,1.96-.07,1.51,.01,3.04-.01,4.55,.87,1.2,.4,2.58,.46,3.88,.03,.78,.71,1.35,.53,2.2-.14,.69-.03,1.43-.03,2.15,.78,.78,.41,1.77,.47,2.68,.04,.54,.66,.84,.51,1.48-.12,.53-.02,1.11-.02,1.67,.81,.59,.4,1.45,.47,2.2,.05,.47,.63,.67,.51,1.24-.09,.45,0,.94,.02,1.42,.7,.44,.23,1.21,.48,1.72,.29,.57,.37,1.13,.48,1.73,.14,.73,.62,1.4,.44,2.21,.64,.54,.46,1.27,.48,1.96,.82,.31,.24,1.17,.65,1.65,.14,.16,.25,.38,.3,.59,.1,.51-.16,1.07,.37,1.54,.37,.33-.13,1.13,.53,1.44-.16,.81,.63,1.38,.56,2.17-.01,.14,.03,.34,.13,.42,.44,.35,.29,1.06,.82,1.34-.08,.57,.01,1.09,.48,1.48-.29,.7,.3,1.16,.5,1.71,.2,.55,.78,1.01,.85,1.55,.82,3,2.72,5.6,3.9,8.47,.29,.63,1.11,.9,1.06,1.72,.55,.45,.54,1.26,1.17,1.69,.34,.23,.22,.89,.7,1.13,.48,.24,.37,.81,.67,1.16,.3,.34,.7,.56,.77,1.13,.08,.58,1.03,.75,.93,1.52,1.22,.9,1.67,2.46,2.88,3.36,.9,.66,1.14,1.83,2.02,2.53,1.67,1.47,3.14,3.19,4.77,4.73,.39,.39,.75,.94,1.23,1.08,.69,.2,.96,.77,1.46,1.13,.43,.31,.65,.94,1.33,.85,.68,.63,1.22,1.42,2.18,1.7,.31,.49,.84,.62,1.32,.86,.4,.2,.59,.67,1.1,.83,.48,.15,.83,.77,1.3,.88,.47,.11,.68,.71,1.23,.53,.3,.52,.95,.41,1.36,.79,.31,.28,.79,.37,1.17,.63,.42,.28,.97,.36,1.43,.59,.47,.24,.89,.78,1.33,.78,.63,0,.84,.8,1.47,.57,.44,.8,1.56,.17,2,.96,.7-.3,1.16,.3,1.71,.51,.49,.19,.91,.57,1.49,.45,.15-.03,.42-.06,.46,0,.4,.68,1.16,.31,1.68,.62,.13,.08,.21,.29,.35,.32,.53,.11,1.16-.23,1.59,.2,.42,.43,.9,.33,1.33,.27,.62-.09,.83,.7,1.49,.53,.53-.13,1.11-.03,1.67-.03,.96,.78,2.1,.38,3.16,.48,1.47,.8,3.06,.43,4.6,.45,.66,.01,1.02,.66,1.72,.53,5.65-.07,11.38-.04,17.03,0,.58,.13,.76-.51,1.25-.5,1.68,.03,3.36-.02,5.04,0,.57,.03,1.07,0,1.5-.47,.11-.12,.46,.01,.7-.02,1.05-.16,2.22,.44,3.16-.47,.56,0,1.12,.02,1.68,0,.53-.03,1.13,.21,1.53-.38,.06-.09,.28-.08,.43-.09,.91-.05,1.81,.09,2.71-.44,.6-.35,1.58,.28,2.18-.5,.66-.12,1.45,.26,1.96-.5,.02-.04,.16,0,.23,0,.45-.08,1,.24,1.35-.19,.39-.47,1-.08,1.29-.36,.4-.38,.84-.32,1.27-.45,.49-.14,.91-.46,1.49-.49,.39-.02,.71-.48,1.24-.46,.91-.13,1.68-1.21,2.72-.94,.36-.55,1.06-.55,1.54-.93,.4-.3,1.05-.29,1.4-.63,.51-.49,1.21-.71,1.67-1.18,.55-.57,1.39-.64,1.88-1.32,1.02-1.2,2.26-2.27,3.38-3.4,.53-.47,.5-1.31,1.17-1.69,.14-.08,.19-.4,.22-.61,.03-17.34,0-34.69,0-52.03,0-.4,.02-.8-.01-1.2-.01-.11-.19-.29-.3-.3-.56-.03-1.12-.01-1.68-.01-15.43,.02-30.88-.03-46.31,.01-.6,.07-.84-.76-1.49-.5-.12,.05-.39,0-.43-.07-.34-.66-1.12-.14-1.46-.52-.35-.39-.89-.23-1.2-.64-.15-.2-.65-.07-.8-.35-.39-.5-.97-.72-1.48-1.04-.64-.4-1.02-1.18-1.85-1.33-.06-.01-.11-.11-.17-.16-.5-.39-.48-1.11-1.01-1.51-.44-.33-.88-.73-1.18-1.19-.49-.99-.84-2.07-1.55-2.95,.25-.9-.76-1.5-.53-2.43,.17-.7-.7-1.15-.5-1.96,.13-8.66-.02-17.43,.04-26.13,0-.3-.15-.83,.18-.84,.54-.02,.75-.54,1.22-.57,.4-.02,.8,0,1.2,0,6.64,0,13.28,0,19.92,0,.36-.09,.51,.31,.76,.47,.39,.03,.8,0,1.2,0,26.63,0,53.27,0,79.9,0,.24,0,.48,.02,.72,0,.3-.03,.46,.13,.48,.38,.03,.56,0,1.12,0,1.68-.37,36.89,.72,74.17-.39,110.87-.4,.49,.24,1.43-.54,1.93-.04,.03-.02,.15-.03,.22-.08,.52,.18,1.08-.3,1.56-.3,.3-.47,.79-.61,1.17-.32,.84-.88,1.55-1.1,2.42-.49,.23-.26,.88-.68,1.16-.67,.45-.7,1.36-1.35,1.85-.44,.33-1.02,.72-1.14,1.19-.4,1.1-1.35,1.68-2.09,2.5-.4,.38-.75,.95-1.22,1.08-.69,.2-.98,.75-1.45,1.13-.43,.35-.73,.95-1.21,1.14-.69,.27-1.15,.76-1.65,1.22-.56,.52-1.39,.67-1.84,1.35-.87-.2-.97,.92-1.76,1-.65,.07-.93,.94-1.7,1.09-.46,.09-.67,.77-1.33,.85-.47,.06-.99,.44-1.31,.82-.38,.46-.93,.5-1.37,.81-.6,.43-1.3,.75-1.98,1-.88,.32-1.45,1.05-2.29,1.42-1.02,.44-1.99,1.01-2.99,1.46-.73,.33-1.6,.4-2.26,.89-.67,.5-1.59,.51-2.16,1.18-.53,.04-1.13-.09-1.47,.51-.65-.11-1.01,.61-1.73,.52-.46-.06-.86,.52-1.48,.47-.4-.03-.71,.51-1.2,.55-.2,.02-.4,.38-.55,.35-.62-.14-.98,.43-1.49,.48-.49,.05-.86,.15-1.27,.47-.31,.24-.95-.16-1.27,.38-.04,.06-.12,.13-.18,.13-.47,.02-1-.1-1.41,.08-.34,.15-.61,.37-1.03,.43-.74,.12-1.39,.68-2.2,.45-.54,.64-1.27,.46-1.96,.48-.54,.64-1.27,.46-1.96,.48-.43,.67-1.11,.46-1.72,.48-.47,.02-.67,.62-1.25,.5-.43-.09-.97-.17-1.28,.35-.03,.05-.12,.09-.19,.1-.68,.1-1.42-.22-2.06,.24-.64,.46-1.37,.15-2.06,.24-.16,.02-.41-.06-.47,.01-.77,1.04-2.23-.13-2.99,.93-.03,.04-.15,.02-.23,.02-.72,0-1.44,.05-2.16-.01-.66-.06-1.03,.63-1.73,.52-.7-.11-1.45,.05-2.15-.05-.57-.08-.73,.55-1.25,.51-1.03-.03-2.08-.02-3.12,0-.68,.05-1.19,.65-1.97,.5-1.33-.13-2.73,0-4.07-.02-.25,0-.43,.17-.38,.47h-24.48Z"/><path d="M1764.72,286.32c-60.47,0-120.94,0-181.4,0-.39,0-.49-.12-.49-.61,0-.64,0-1.28,0-1.92,0-92.08,0-184.16,0-276.23,0-.48-.02-.96,0-1.44,.02-.25,.18-.39,.48-.38,.64,.02,1.28,0,1.92,0,59.83,0,119.66,0,179.48,0v2.4c-.14,.06-.38,.1-.39,.17-.06,.47,.07,1-.12,1.39-.24,.49-.56,.92-.45,1.5-.77,.45-.19,1.55-.96,2,.35,.85-.67,1.37-.51,2.2,.04,.22-.35,.48-.43,.76-.11,.35,.12,.78-.25,1.1-.5,.42,.04,1.29-.68,1.63,.12,.66-.22,1.17-.52,1.7,.23,.82-.82,1.35-.5,2.19-.82,.43-.16,1.56-.94,2.01,.19,.81-.69,1.38-.48,2.2-.67,.38-.27,1.2-.64,1.64-.3,.36-.26,.7-.34,1.07-.07,.35-.43,.67-.43,1,0,.52-.39,.86-.46,1.25-.09,.55-.31,.99-.5,1.48-.21,.54-.81,1-.51,1.71-.49,.4-.39,1.16-.95,1.54-.07,.05-.01,.3-.01,.46l-.68,1.64c-.95,.92-1.12,2.3-2.19,3.18-.8,.66-1.55,1.4-2.2,2.2-.61,.75-1.63,.9-2.21,1.67-.15,.2-.54,.22-.8,.36-.79,.41-1.53,1.06-2.36,1.21-.89,.17-1.69,.88-2.67,.54-.78,.79-1.78,.47-2.68,.47-36.55,.04-73.1-.02-109.65,.03-.86,23.41,0,47.61-.3,71.28,.11,.49-.31,1.6,.45,1.61,39.19,0,78.38,0,117.57,0,.73-.07,.48,.82,.52,1.3,0,13.03,0,26.05,0,39.08-.02,.46,.22,1.35-.47,1.35-.64-.02-1.28,0-1.92,0h-113.73c-.64,0-1.28,0-1.92,0-.39,0-.5,.12-.5,.6,0,26.29,0,52.59,0,78.88q0,1.57,1.69,1.57c34.72,.19,69.67-.36,104.28,.19,.85,.55,1.7,.11,2.53,.29,.14,.03,.31,.09,.39,.19,.3,.39,.72,.22,1.09,.29,.43,.09,.7,.64,1.24,.47,1.98,.78,4.12,1.43,5.77,2.87,.09,.09,.33,.02,.43,.1,1.28,1.2,2.45,2.53,3.75,3.71,.48,.43,.73,.96,1.01,1.51,.82,1.82,1.78,3.59,2.6,5.4,.15,.34,.63,.53,.47,1-.19,.56,.44,.77,.51,1.24,.06,.62,.9,1.42,.91,1.76-.07,.84,.45,1.43,.78,2.09,.37,.74,.58,1.52,.86,2.28,.49,1.47,1.73,2.68,1.83,4.28,.61,.77,1.1,1.67,1.29,2.57,.23,1.07,.95,1.86,1.26,2.85,.04,.14,.25,.27,.22,.38-.14,.61,.27,1.01,.49,1.48,.22,.47,.31,1.08,.66,1.38,.53,.45,.14,1.04,.46,1.52,.44,.68,.94,1.38,.89,2.27,0,.05,.26,.11,.39,.17v1.92Z"/><path d="M355.63,0c0,.48,.66,.69,.51,1.23,.49,.29,.41,.78,.47,1.25,.06,.43,.56,.71,.54,1.21,.52,.31,.32,.83,.41,1.27,.05,.27,.42,.5,.43,.77,.03,.49,.72,.68,.51,1.24-.24,.63,.73,.84,.51,1.47,.49,.3,.41,.78,.47,1.25,.03,.27,.42,.5,.43,.76,.03,.56,.72,.84,.52,1.48-.15,.49,.66,.68,.47,1.24,.53,.29,.46,.93,.8,1.36,.36,.45-.01,1.25,.64,1.65,.02,.61,.78,1.01,.5,1.73,.24,.48,.92,1.21,.89,1.75-.04,.64,.44,.96,.54,1.48,.09,.51,.67,.87,.49,1.49-.03,.1,.1,.29,.2,.38,.37,.31,.26,.85,.65,1.19,.32,.28-.11,.91,.35,1.29,.35,.28,.2,.91,.69,1.15-.19,.67,.19,1.2,.5,1.71,.31,.51,.38,1.15,.85,1.57-.08,1.27,1.17,2.11,1.07,3.4-.02,.27,.5,.36,.46,.76-.05,.49,.66,.67,.48,1.24-.19,.6,.68,.85,.52,1.46,.5,.3,.4,.79,.45,1.26,.02,.19,.4,.38,.38,.54-.08,.61,.73,.87,.55,1.46-.17,.57,.47,.76,.5,1.24,.04,.52,.66,.85,.49,1.49-.04,.15,.25,.36,.34,.56,.21,.47,.29,1.05,.62,1.41,.48,.51,.26,1.23,.61,1.67,.34,.43,.24,1.09,.81,1.36-.22,.68,.26,1.16,.48,1.72,.19,.48,.48,.89,.54,1.47,.05,.54,.71,1,.81,1.55,.11,1.27,1.07,2.11,1.11,3.41,0,.45,.59,.86,.78,1.34,.22,.55,.14,1.17,.58,1.69,.32,.38,.3,1.09,.66,1.37,.56,.45,.06,1.12,.49,1.49,.43,.37,.29,1.05,.8,1.35-.11,.58,.25,1,.44,1.5,.21,.54,.83,1,.52,1.7,.26,.45,.46,.95,.79,1.34,.38,.45-.08,1.08,.47,1.51,.31,.24,.28,.84,.66,1.15-.13,1.28,1.11,2.13,1.1,3.4,0,.2,.41,.44,.34,.8,.54,.37,.4,1.17,.96,1.52-.09,.57,.23,1,.43,1.5,.21,.53,.84,.98,.56,1.71-.04,.11,.39,.37,.37,.53-.08,.61,.73,.87,.56,1.46-.17,.57,.46,.77,.5,1.24,.04,.52,.64,.85,.5,1.49-.05,.21,.44,.51,.42,.75-.05,.6,.69,.82,.55,1.49-.1,.96,1.17,1.68,.93,2.71-.01,.1,.25,.22,.29,.35,.25,.94,1.01,1.65,1.15,2.65,.13,.96,1.07,1.64,.98,2.72-.02,.24,.41,.5,.43,.76,.03,.49,.72,.68,.51,1.24-.23,.63,.73,.84,.51,1.46,.5,.3,.43,.78,.46,1.25,.01,.19,.34,.36,.37,.56,.09,.68,.86,1.15,.57,1.93,.52,.38,.39,1.17,.96,1.52-.13,1.07,.65,1.81,.97,2.72,.15,.42,.5,.71,.51,1.24,.01,.48,.26,1.06,.59,1.4,.42,.43,.11,1.03,.36,1.29,.45,.47,.4,1.18,.92,1.56-.11,.58,.3,1.01,.43,1.49,.14,.51,.76,.82,.54,1.47-.17,.5,.65,.69,.47,1.24,.5,.38,.55,.91,.48,1.48,.52,.48,.61,1.19,.96,1.76-.24,.7,.63,1.04,.56,1.69,.52,.3,.29,.84,.43,1.26,.15,.49,.49,.91,.76,1.36,.23,.38,.22,.9,.65,1.17-.11,.91,.62,1.53,.82,2.29,.21,.81,.49,1.58,.93,2.26,.34,.53-.16,1.35,.65,1.65-.11,.65,.68,1.02,.51,1.73-.05,.2,.44,.51,.42,.75-.04,.6,.69,.82,.55,1.49-.1,.96,1.17,1.68,.93,2.71-.01,.11,.25,.21,.29,.35,.17,.57,.66,1.01,.69,1.63,.62,.33,.25,1.06,.54,1.45,.37,.5,.59,1.05,.84,1.58,.15,.32-.09,.78,.31,1.07,.34,.24,.1,.75,.5,1,.46,.29-.12,.96,.35,1.28,.42,.29,.18,.93,.67,1.16-.07,1.27,1.16,2.11,1.09,3.4-.01,.24,.37,.49,.44,.76,.12,.51,.67,.84,.52,1.48-.1,.45,.5,.68,.55,1.21,.04,.47,.75,.89,.75,1.33,0,1.28,1.28,2.11,1.07,3.41,.51,.48,.61,1.19,.96,1.76-.24,.7,.62,1.04,.56,1.69,.75,.38,.06,1.44,.85,1.81-.06,.64,.72,1.01,.52,1.71-.11,.39,.49,.51,.44,.75-.12,.63,.66,.83,.56,1.49-.07,.44,.29,.98,.52,1.43,.24,.47,.76,.88,.79,1.34,.04,.65,.35,1.15,.54,1.71,.17,.49,.72,.86,.5,1.47,.38,.47,.38,1.15,.88,1.56-.12,1.28,1.19,2.11,1.07,3.41-.03,.26,.5,.36,.47,.76-.04,.48,.65,.67,.48,1.24-.17,.59,.67,.85,.53,1.45,.51,.3,.37,.81,.44,1.26,.04,.27,.32,.5,.45,.77,.23,.46,.32,1.05,.66,1.39,.43,.43,.16,.91,.33,1.32,.2,.48,.77,.88,.79,1.34,.05,1.26,1.2,2.11,1.13,3.4-.01,.24,.41,.5,.43,.76,.04,.49,.71,.67,.51,1.24-.22,.61,.71,.84,.52,1.46,.5,.3,.4,.79,.46,1.25,.04,.27,.41,.5,.43,.77,.04,.55,.71,.84,.52,1.48-.15,.48,.67,.68,.47,1.24,.54,.28,.47,.93,.81,1.36,.35,.45,.02,1.24,.63,1.65,.04,.61,.77,1.01,.5,1.73,.24,.44,.94,1.24,.89,1.75-.05,.64,.44,.96,.54,1.48,.1,.51,.63,.87,.49,1.49-.03,.15,.26,.36,.36,.55,.59,1.11,.62,2.47,1.53,3.44-.21,.68,.23,1.17,.48,1.72,.22,.47,.38,1.01,.72,1.37,.4,.42,0,.99,.34,1.3,.32,.3,.24,.77,.51,.99,.47,.39,.27,.86,.36,1.31,.06,.29,.51,.36,.47,.76-.04,.48,.65,.67,.48,1.24-.17,.59,.67,.85,.53,1.45,.51,.3,.38,.8,.44,1.26,.02,.19,.41,.39,.38,.54-.1,.62,.74,.86,.55,1.46-.18,.57,.46,.76,.5,1.24,.04,.51,.65,.86,.49,1.49-.04,.15,.25,.36,.35,.56,.21,.47,.28,1.07,.62,1.41,.51,.51,.26,1.22,.61,1.67,.33,.43,.27,1.07,.81,1.36-.24,.68,.27,1.16,.48,1.72,.19,.48,.47,.9,.53,1.48,.06,.54,.74,1,.82,1.55,.09,.62,.28,1.16,.56,1.7,.28,.53,.67,1.04,.5,1.71,1.02,1.15,.95,2.82,1.9,4.01-.07,.5,.7,.69,.48,1.24-.26,.65,.76,.84,.5,1.47,.49,.29,.46,.76,.48,1.25,.91,1.17,.86,2.86,1.9,4-.21,.68,.26,1.16,.48,1.72,.55,.98,.51,2.13,1.36,3.04,.21,.25,0,.88,.23,1.07,.39,.35,.21,.91,.64,1.2,.33,.22,.11,.72,.5,1,.44,.32-.07,1.03,.5,1.48,.73,.54,.35,1.87,1.05,2.42-.16,.61,.72,.86,.52,1.46-.18,.57,.46,.76,.5,1.24,.04,.52,.63,.85,.5,1.49-.04,.21,.43,.51,.42,.75-.04,.59,.75,.83,.52,1.49-.18,.5,.64,.7,.47,1.24,.46,.4,.56,.91,.49,1.48,0,.05,.1,.11,.14,.18,.53,.99,1.11,1.92,1.34,3.06,.06,.54,.77,1.01,.82,1.55,.08,.89,.5,1.57,.91,2.28,.3,.53-.13,1.32,.62,1.66-.06,.64,.78,.99,.51,1.73-.06,.17,.35,.48,.42,.75,.04,.16-.12,.47-.27,.55-.19,.1-.47,.02-.71,.02-11.68,0-23.36,0-35.03,0-.62,0-1.17-.02-1.75-.43-.43-.31-1.26,.23-1.72-.44-.61-.04-1.16-.21-1.7-.53-.5-.29-1.01-.77-1.7-.51-.29-.53-.99-.38-1.34-.82-.29-.37-.63-.69-1.15-.68-.44-.56-1.33-.49-1.67-1.19-.61-.17-1.05-.58-1.51-1-1.44-1.1-3.11-2.18-3.89-3.87-.32-.53-1.06-.87-1.21-1.41-.18-.62-.75-.81-.95-1.29-.4-.96-.95-1.85-1.33-2.8-.38-.96-1.27-1.72-1.15-2.89,.02-.16-.36-.34-.4-.54-.11-.67-.83-1.16-.54-1.94-.57-.35-.43-1.15-.96-1.52,.36-.78-.57-1.24-.5-1.96,.02-.2-.17-.41-.22-.62-.13-.59-.76-.99-.71-1.62,.06-.67-.74-1.04-.5-1.72,.02-.07,.03-.21,0-.23-.57-.36-.43-1.15-.96-1.53,.11-.58-.3-1-.43-1.49-.14-.51-.73-.82-.55-1.47,.14-.53-.7-.84-.47-1.48,.04-.11-.03-.33-.13-.41-.44-.35-.29-1.06-.82-1.35,.09-.57-.03-1.08-.48-1.48,.29-.7-.23-1.24-.52-1.69-.37-.56-.25-1.24-.58-1.67-.34-.43-.29-1.03-.78-1.39-.23-.17,.19-.82-.2-1.08-.64-.41,0-1.22-.64-1.69-.36-.26-.62-.93-.58-1.39,.06-.7-.78-1.03-.54-1.73,.04-.12-.02-.37-.11-.42-.48-.26-.23-.89-.67-1.18-.47-.31,.12-.97-.35-1.28-.43-.29-.34-.81-.63-1.2-.33-.44-.08-1.21-.63-1.64,.33-.71-.51-1.09-.48-1.72-.72-.36-.29-1.16-.63-1.66-.34-.5-.5-1.07-.81-1.58,.25-.69-.64-1.05-.49-1.72,.03-.14,.02-.39-.07-.44-.46-.27-.29-.88-.67-1.17-.46-.35,.05-.99-.35-1.28-.43-.31-.23-.89-.66-1.19-.38-.27-.04-.76-.19-1.11-.12-.27-.53-.38-.45-.77,.11-.53-.39-.85-.44-1.25-.07-.56-.76-.83-.54-1.48,.17-.5-.64-.69-.47-1.24-.48-.39-.56-.91-.48-1.48-.57-.36-.39-.96-.53-1.46-.14-.48-.76-.89-.77-1.34-.05-1.26-1.24-2.11-1.1-3.4-.4-.29-.34-.9-.66-1.15-.55-.43-.01-1.13-.49-1.49-.49-.36-.07-.97-.35-1.29-.92-1.06-.8-2.58-1.69-3.62-.38-.44,.08-1.07-.47-1.51-.3-.24-.3-.83-.65-1.15,.14-.83-.36-1.49-.77-2.07-.35-.49,.09-1.1-.46-1.51-.51-.38,.12-1.32-.69-1.62,.11-.65-.68-1.02-.51-1.73,.05-.2-.44-.51-.42-.75,.04-.6-.69-.82-.55-1.49,.1-.96-1.19-1.68-.93-2.71-.42-.49-.62-1.19-.95-1.76,.25-.69-.64-1.05-.48-1.72,.09-.36-.32-.55-.37-.8-.13-.66-.87-1.14-.59-1.92-.52-.38-.38-1.18-.96-1.52,.1-.91-.39-1.59-.86-2.28,.07-1.27-1.16-2.11-1.09-3.4,.01-.24-.41-.5-.43-.76-.04-.48-.7-.67-.51-1.24,.21-.61-.7-.84-.52-1.46-.5-.3-.42-.78-.46-1.26-.02-.19-.35-.35-.38-.55-.1-.67-.86-1.15-.56-1.93-.54-.37-.49-1.08-.92-1.55-.25-.27,.02-.84-.36-1.29-.36-.42-.03-1.23-.63-1.64-.04-.61-.73-1-.51-1.73,.06-.19-.41-.49-.42-.75-.02-.5-.73-.69-.5-1.24,.26-.64-.75-.84-.51-1.47-.49-.29-.45-.77-.48-1.25-.92-1.17-.87-2.86-1.9-4,.22-.68-.25-1.16-.48-1.72-.19-.48-.46-.9-.55-1.47-.07-.52-.57-1.06-.78-1.58-.21-.53-.28-1.14-.58-1.68-.29-.52-.7-1.04-.49-1.71-.91-.97-.94-2.33-1.53-3.44-.68-.31-.14-1.09-.52-1.45-.41-.39-.28-1.07-.82-1.35,.23-.68-.26-1.16-.48-1.72-.19-.48-.47-.9-.53-1.48-.06-.54-.73-1-.82-1.55-.11-1.27-1.06-2.12-1.11-3.41-.01-.45-.52-.88-.79-1.33-.27-.45,.15-1.15-.51-1.47,.14-.61-.67-.85-.55-1.45-.77-.34-.22-1.21-.65-1.64-.39-.4-.29-1.05-.79-1.36,.11-.58-.25-1-.44-1.49-.21-.54-.82-1-.52-1.71-.26-.45-.47-.95-.8-1.34-.37-.45,.09-1.08-.47-1.51-.31-.24-.29-.84-.65-1.15,.12-.58-.26-1-.44-1.49-.21-.54-.82-1-.52-1.71-.31-.5-.58-1.1-.95-1.52-.02-.4,.05-.81-.03-1.19-.07-.35-.36-.66-.45-1.01-.16-.6,.27-1.31-.22-1.82-.48-.5-.11-1.08-.29-1.57-.18-.49-.6-.89-.48-1.49,.02-.1-.16-.34-.25-.34-.8-.02-1.6-.02-2.39,.02-.44,.34-.15,1.49-.23,2.05-.97,.57,.01,1.91-.96,2.48-.05,.56,.09,1.66-.01,1.89-.78,.35-.3,1.15-.64,1.68-.44,.68-.71,1.45-.93,2.26-.2,.76-.89,1.38-.84,2.29,.01,.26-.49,.36-.47,.76,.04,.47-.64,.67-.48,1.24,.17,.59-.67,.85-.53,1.45-.51,.3-.38,.8-.43,1.26-.03,.2-.42,.39-.39,.54,.12,.62-.75,.86-.55,1.46,.19,.57-.46,.76-.5,1.24-.05,.51-.66,.86-.48,1.49,.03,.1-.11,.27-.2,.39-.81,1.09-.7,2.61-1.69,3.62,.18,.67-.27,1.16-.48,1.72-.66,1.07-.39,2.18-1.38,3.02,.13,1.28-1.24,2.11-1.03,3.41-.52,.48-.61,1.19-.96,1.76,.24,.7-.63,1.04-.56,1.69-.75,.38-.06,1.44-.85,1.81,.06,.64-.74,1.02-.52,1.71,.02,.07,.03,.21,0,.23-.57,.35-.45,1.14-.96,1.53,.12,.58-.3,1-.43,1.49-.13,.51-.75,.83-.54,1.47,.16,.49-.66,.69-.47,1.24-.53,.37-.53,.92-.48,1.48-.6,.34-.37,.97-.54,1.46-.16,.48-.78,.89-.78,1.34,0,1.28-1.24,2.11-1.11,3.41,.03,.26-.5,.36-.47,.76,.04,.47-.65,.67-.48,1.24,.17,.59-.67,.85-.53,1.45-.51,.3-.38,.8-.44,1.26-.02,.2-.41,.39-.39,.54,.11,.62-.75,.86-.55,1.46,.19,.57-.46,.76-.5,1.24-.04,.51-.66,.86-.48,1.49,.03,.1-.11,.27-.2,.39-.81,1.09-.71,2.61-1.69,3.62,0,.55,.07,1.12-.49,1.47,.12,.65-.81,1.01-.48,1.72-.22,.47-.61,.87-.5,1.48,.03,.15-.38,.38-.36,.54,.08,.61-.73,.87-.56,1.45,.16,.57-.46,.77-.5,1.24-.04,.53-.65,.85-.51,1.49,.05,.21-.44,.51-.42,.75,.05,.6-.68,.83-.55,1.49,.1,.95-1.19,1.69-.92,2.71-.41,.28-.34,.9-.66,1.15-.55,.43,0,1.13-.49,1.49-.49,.36-.06,.99-.36,1.28-.37,.35-.28,.89-.66,1.18-.47,.35,.03,1-.35,1.28-.43,.32-.24,.88-.65,1.19-.46,.35,.07,1.05-.49,1.49-.3,.24-.3,.83-.65,1.15,.14,.83-.37,1.48-.77,2.07-.34,.49,.09,1.1-.46,1.51-.51,.38,.13,1.32-.69,1.62,.12,.65-.74,1.02-.49,1.72,.03,.1-.1,.27-.19,.39-.81,1.09-.74,2.58-1.68,3.63-.23,.26,.17,.82-.2,1.1-.62,.48-.02,1.45-.8,1.83,.09,.64-.82,.99-.5,1.73,.05,.11-.34,.34-.36,.54-.09,.68-.86,1.15-.57,1.93-.52,.38-.48,1.09-.92,1.55-.25,.26,.04,.85-.36,1.29-.38,.41,0,1.24-.64,1.64-.03,.61-.78,1.01-.5,1.73,.03,.08-.18,.23-.25,.36-.24,.46-.58,.91-.66,1.4-.08,.48-.08,.93-.51,1.23,.1,.91-.59,1.53-.81,2.29-.21,.72-.5,1.4-.74,2.1-.07,.21-.38,.41-.34,.56,.16,.63-.47,.97-.48,1.49-.01,.5-.08,.93-.5,1.24,.21,.61-.66,.82-.52,1.49,.08,.36-.23,.85-.45,1.22-.28,.47-.38,.96-.53,1.47-.14,.49-.52,.92-.42,1.5-.53,.29-.39,.97-.81,1.35-.41,.37,.16,1.14-.52,1.46,0,.63-.73,.98-.6,1.67,.11,.56-.59,.83-.52,1.48,.05,.45-.25,1.09-.6,1.38-.54,.45-.01,1.16-.49,1.49-.58,.4-.1,1.04-.48,1.5-.88,1.04-.76,2.56-1.69,3.62-.21,.24,0,.92-.22,1.07-.63,.45,0,1.24-.63,1.71-.36,.27-.65,.94-.59,1.38,.1,.72-.77,1.03-.55,1.73,.05,.16-.15,.4-.25,.6-.23,.47-.58,.91-.66,1.4-.08,.48-.06,.93-.51,1.23,.1,.91-.58,1.53-.81,2.3-.25,.93-.7,1.85-1.1,2.66,.18,.62-.44,.98-.47,1.49-.03,.5-.06,.93-.5,1.24,.2,.55-.55,.73-.48,1.24,.06,.41,0,.79-.38,1.04-.14,1.54-1.15,2.72-1.74,4.08-.2,.45-.27,1.05-.76,1.37,.09,.7-.75,.84-.86,1.32-.13,.6-.52,.93-.89,1.32-1.58,1.59-3.16,3.17-4.76,4.73-.86-.02-1.07,.86-1.67,1.2-1.23,.68-2.52,1.26-3.78,1.87-.53,.26-1.07,.73-1.6,.71-.69-.02-1.01,.73-1.73,.57-.28-.06-.64,.34-1,.43-.37,.09-.79-.09-1.07,.32-.23,.34-.59,.16-.89,.16-11.76,.02-23.52,0-35.27,0-.42-.04-1.11,.21-1.19-.38-.08-1.39,1.29-2.36,1.42-3.72,.1-.99,1.12-1.64,.99-2.72-.02-.16,.39-.38,.37-.54-.08-.61,.73-.87,.56-1.45-.16-.57,.46-.77,.5-1.24,.04-.53,.65-.85,.51-1.49-.05-.21,.44-.51,.42-.75-.05-.6,.68-.83,.55-1.49-.07-.95,1.12-1.68,.94-2.71-.01-.28,.4-.39,.49-.75,.11-.49,.33-1.03,.67-1.38,.41-.43,.11-.92,.32-1.32,.25-.46,.56-.89,.84-1.33-.16-1.29,1.25-2.11,1.02-3.41,.91-.97,.94-2.33,1.53-3.44,.73-.39,.05-1.44,.85-1.81-.08-.64,.72-1.02,.52-1.71-.03-.11,.1-.27,.16-.4,.26-.53,.75-1.07,.73-1.59-.02-.64,.47-.94,.58-1.47,.12-.55,.79-1.01,.84-1.54,.06-.65,.33-1.15,.54-1.71,.18-.48,.71-.86,.49-1.47,.36-.48,.39-1.15,.89-1.55-.1-1.27,1.19-2.11,1.06-3.41-.02-.25,.49-.36,.47-.76-.02-.47,.64-.68,.48-1.24-.16-.59,.68-.84,.54-1.45,.51-.3,.35-.81,.43-1.27,.05-.27,.4-.5,.44-.77,.08-.53,.7-.84,.52-1.48-.13-.46,.49-.69,.53-1.22,.04-.46,.74-.88,.75-1.33,.05-1.26,1.21-2.11,1.12-3.4-.02-.27,.5-.37,.46-.76-.05-.49,.67-.67,.48-1.24-.19-.6,.69-.85,.52-1.46,.5-.3,.4-.79,.45-1.26,.02-.19,.4-.38,.38-.54-.08-.61,.73-.87,.56-1.46-.17-.57,.46-.77,.5-1.24,.04-.52,.67-.85,.49-1.49-.04-.15,.24-.36,.34-.56,.21-.47,.57-.95,.56-1.43,0-.69,.64-1.04,.63-1.67,.51-.3,.28-1.07,.85-1.33-.22-.68,.26-1.16,.48-1.72,.58-.96,.44-2.21,1.39-3.02-.19-1.31,1.31-2.11,1.02-3.42,.91-.97,.86-2.38,1.56-3.42,.31-.45,.26-.86,.37-1.3,.09-.34,.59-.53,.46-1.01,.45-.26,.36-.85,.68-1.15,.35-.34,.25-.71,.29-1.09,.02-.14,.12-.27,.2-.39,.81-1.09,.7-2.61,1.69-3.62-.18-.67,.27-1.16,.48-1.72,.66-1.07,.39-2.18,1.38-3.02-.13-1.28,1.23-2.11,1.03-3.41,.58-.34,.44-1.14,.96-1.52-.29-.7,.31-1.16,.5-1.71,.2-.55,.79-1.01,.85-1.55,.08-.64,.38-1.14,.53-1.71,.12-.45,.7-.66,.52-1.23-.19-.59,.68-.85,.53-1.45,.5-.3,.4-.79,.45-1.26,.02-.19,.4-.38,.38-.54-.09-.61,.73-.87,.55-1.46-.17-.57,.47-.76,.5-1.24,.04-.52,.64-.85,.5-1.49-.04-.21,.44-.51,.42-.75-.04-.6,.69-.82,.55-1.49-.08-.36,.2-.88,.46-1.22,.36-.46,.53-.92,.48-1.5-.01-.11,.25-.21,.29-.35,.17-.57,.66-1.01,.69-1.63,.62-.33,.25-1.06,.54-1.45,.37-.5,.59-1.05,.84-1.58,.15-.32-.09-.78,.31-1.07,.34-.24,.1-.75,.5-1,.46-.29-.12-.96,.35-1.28,.42-.29,.18-.93,.67-1.16-.07-1.27,1.16-2.11,1.09-3.4-.01-.24,.37-.49,.44-.76,.12-.51,.67-.84,.52-1.48-.1-.45,.5-.68,.55-1.21,.04-.47,.75-.89,.75-1.33,0-1.28,1.28-2.11,1.07-3.41,.51-.48,.61-1.19,.96-1.76-.24-.7,.63-1.04,.56-1.69,.75-.38,.06-1.44,.85-1.81-.06-.64,.74-1.02,.52-1.71-.02-.07-.04-.2,0-.23,.52-.48,.6-1.2,.95-1.77-.24-.71,.64-1.03,.56-1.69,.52-.3,.22-.93,.44-1.25,.3-.44,.36-.99,.74-1.39,.3-.32,.23-.89,.66-1.16-.11-.91,.62-1.53,.82-2.29,.21-.82,.5-1.57,.93-2.26,.33-.53-.16-1.35,.65-1.65-.12-.65,.7-1.01,.51-1.73-.05-.2,.43-.51,.42-.75-.04-.59,.69-.82,.55-1.49-.09-.97,1.14-1.64,.94-2.71,0-.17,.46-.4,.43-.51-.19-.64,.75-.83,.52-1.49-.2-.57,.52-.86,.58-1.44,.05-.47,.7-.87,.76-1.34,.08-.63,.27-1.16,.56-1.7,.29-.53,.68-1.04,.5-1.71,.99-1.01,.86-2.55,1.71-3.61,.4-.5-.11-1.33,.67-1.65-.1-.65,.66-1.02,.52-1.72-.04-.21,.44-.51,.42-.75-.05-.6,.68-.83,.55-1.49-.07-.37,.21-.87,.46-1.22,.33-.47,.52-.91,.48-1.49-.01-.28,.4-.39,.49-.75,.11-.49,.33-1.03,.67-1.38,.41-.43,.11-.92,.32-1.32,.25-.46,.56-.89,.84-1.33-.16-1.29,1.25-2.11,1.02-3.41,.58-.34,.46-1.13,.96-1.52-.12-.59,.31-1,.43-1.49,.13-.51,.75-.83,.54-1.47-.16-.49,.66-.69,.47-1.24,.53-.37,.53-.92,.48-1.48,.58-.35,.47-1.12,.96-1.52-.13-.59,.66-.82,.52-1.49-.08-.97,1.12-1.63,.94-2.71,0-.27,.49-.36,.46-.76-.03-.47,.64-.67,.48-1.24-.17-.59,.67-.85,.54-1.45,.51-.3,.37-.8,.43-1.26,.03-.2,.42-.39,.39-.54-.12-.62,.75-.86,.55-1.46-.19-.57,.46-.76,.5-1.24,.05-.51,.64-.86,.49-1.49-.04-.15,.24-.36,.35-.56,.65-1.48,.97-3.14,2.02-4.44-.1-.91,.6-1.53,.81-2.29,.23-.8,.48-1.58,.92-2.26,.34-.52-.13-1.34,.66-1.65-.1-.65,.66-1.03,.52-1.72-.04-.21,.44-.51,.42-.75-.05-.6,.69-.82,.55-1.49-.07-.37,.2-.87,.46-1.22,.34-.46,.52-.91,.49-1.49,0-.16,.46-.4,.42-.51-.22-.65,.77-.83,.52-1.49-.21-.58,.52-.86,.57-1.45,.04-.46,.67-.86,.76-1.34,.11-.61,.26-1.16,.56-1.7,.29-.52,.71-1.03,.49-1.71,.9-.97,.94-2.33,1.53-3.44,.73-.39,.05-1.45,.85-1.81-.09-.65,.73-1.02,.51-1.71-.02-.07-.03-.17,0-.23,.27-.45,.63-.86,.83-1.34,.22-.55,.14-1.17,.58-1.69,.32-.37,.3-1.09,.65-1.37,.56-.45,.06-1.12,.49-1.49,.43-.37,.29-1.05,.8-1.35-.11-.58,.25-1,.44-1.5,.21-.54,.83-1,.52-1.7,.26-.45,.46-.95,.79-1.34,.38-.45-.08-1.08,.47-1.51,.31-.24,.27-.85,.66-1.15-.29-.7,.22-1.23,.52-1.69,.35-.55,.35-1.15,.56-1.7,.19-.48,.77-.89,.78-1.34,.01-.67,.24-1.2,.55-1.71,.32-.51,.38-1.15,.86-1.57-.08-1.27,1.17-2.11,1.07-3.4-.02-.27,.5-.36,.46-.76-.05-.48,.66-.67,.48-1.24-.19-.6,.68-.85,.53-1.46,.5-.3,.33-.82,.45-1.25,.13-.49,.41-.98,.75-1.35,.38-.42-.08-.99,.33-1.3,.39-.3,.34-.68,.33-1.07h12.48Z"/><path d="M538.97,144.36c.38-47-.72-94.9,.38-141.48,3.2-.01,6.4-.01,9.6,0,.93,.18,1.39,1.27,2.15,1.77,.57,.46,.75,1.15,1.19,1.67,.47,.55,1.23,.94,1.46,1.56,.27,.72,.74,1.22,1.27,1.62,.66,.51,.74,1.33,1.31,1.89,.54,.52,1.39,.85,1.4,1.81,0,.11,.23,.21,.32,.34,.48,.7,1.48,.98,1.57,1.99,.55,.57,1.26,1.06,1.62,1.73,.53,1,1.51,1.61,2.02,2.52,.47,.85,1.13,1.46,1.75,2.14,.46,.51,.56,1.25,1.17,1.69,.51,.37,1.09,.81,1.33,1.36,.47,1.05,1.54,1.6,2.02,2.53,.49,.95,1.45,1.47,1.87,2.34,.43,.89,1.11,1.48,1.75,2.15,.48,.5,.56,1.24,1.16,1.7,.53,.41,1.11,.85,1.24,1.64,.04,.26,.42,.46,.65,.68,.34,.34,.76,.63,1,1.03,.27,.46,.4,.97,.86,1.32,.38,.29,.84,.61,1,1.02,.43,1.08,1.35,1.7,2.07,2.5,.19,1.12,1.41,1.48,1.82,2.37,.42,.9,1.13,1.47,1.74,2.15,.46,.51,.59,1.23,1.17,1.69,.53,.42,1.15,.85,1.21,1.65,.58,.61,1.23,1.25,1.82,1.88,.05,.92,.86,1.29,1.42,1.8,.54,.49,.51,1.28,1.15,1.71,.58,.4,1.21,.91,1.5,1.52,.49,1.04,1.36,1.69,2.08,2.5,.2,1.12,1.41,1.48,1.82,2.37,.42,.9,1.12,1.47,1.74,2.15,.47,.51,.58,1.23,1.17,1.69,.53,.42,1.12,.85,1.23,1.64,.02,.19,.34,.33,.48,.51,.47,.6,1.31,.92,1.36,1.83,.57,.57,1.31,1.04,1.65,1.72,.48,.95,1.39,1.5,1.87,2.35,.52,.91,1.19,1.62,1.92,2.31,.4,.38,.32,1.01,.83,1.35,.46,.31,.83,.75,1.19,1.17,.29,.34,.25,.86,.67,1.17,.45,.32,.97,.71,1.17,1.18,.46,1.15,1.67,1.69,2.15,2.71,.5,1.07,1.5,1.59,2.12,2.48,.6,1.28,1.81,2.01,2.43,3.3,.3,.61,1.14,.96,1.44,1.57,.51,1.02,1.55,1.6,2.01,2.53,.49,.96,1.44,1.46,1.89,2.34,.48,.94,1.39,1.5,1.86,2.35,.51,.92,1.2,1.61,1.92,2.31,.39,.39,.32,1.01,.83,1.35,.46,.31,.86,.73,1.18,1.18,.31,.42,.38,.98,.86,1.33,.38,.28,.71,.65,1.02,1.01,.35,.4,.36,.99,.84,1.34,.39,.27,.82,.61,1,1.02,.47,1.03,1.33,1.71,2.05,2.51,.3,.33,.24,.86,.68,1.16,.39,.27,.67,.68,1.03,1,.52,.47,.54,1.26,1.17,1.69,.52,.35,1.08,.81,1.34,1.35,.48,1.04,1.55,1.6,2.01,2.53,.49,.97,1.45,1.46,1.88,2.34,.47,.96,1.4,1.49,1.87,2.35,.51,.92,1.2,1.61,1.92,2.32,.39,.39,.32,1.01,.83,1.35,.45,.31,.86,.73,1.18,1.18,.3,.42,.38,.98,.86,1.33,.38,.28,.71,.65,1.02,1.01,.34,.4,.36,.99,.85,1.34,.39,.27,.82,.61,1,1.02,.47,1.03,1.33,1.71,2.05,2.51,.29,.33,.25,.86,.68,1.16,.39,.27,.68,.68,1.03,1,.51,.48,.57,1.24,1.17,1.69,.53,.41,1.11,.85,1.24,1.64,.04,.26,.42,.46,.65,.68,.34,.34,.76,.63,1,1.03,.27,.45,.4,.97,.86,1.32,.38,.29,.83,.61,1,1.02,.46,1.15,1.43,1.84,2.25,2.66,.49,.5,.55,1.25,1.15,1.71,.53,.4,1.1,.84,1.25,1.63,.06,.32,.53,.57,.81,.85,.34,.34,.68,.68,1.02,1.02-.15,.61,.39,.82,.68,1.15,.32,.36,.82,.62,.98,1.03,.43,1.07,1.53,1.6,2.01,2.53,.49,.95,1.45,1.47,1.87,2.34,.43,.89,1.12,1.48,1.75,2.15,.48,.5,.57,1.24,1.16,1.7,.53,.41,1.13,.85,1.23,1.64,.02,.19,.34,.32,.48,.51,.45,.61,1.36,.88,1.36,1.83,.57,.57,1.32,1.04,1.65,1.72,.51,1.03,1.36,1.68,2.08,2.49,.19,1.13,1.44,1.48,1.82,2.36,.47,1.08,1.35,1.71,2.1,2.47,.35,.36,.38,.83,.67,1.17,.61,.8,1.64,1.31,1.87,2.35,.05,.14,.23,.22,.33,.34,.53,.65,1.42,1.03,1.53,2,.57,.57,1.35,1.03,1.65,1.72,.5,1.15,1.52,1.76,2.26,2.66,.03,.04,.12,.06,.16,.05,.07-.03,.16-.11,.17-.16,.05-59.87,0-119.73,.02-179.6-.08-.71,.84-.45,1.32-.5,13.84,0,27.67,0,41.51,0,.32,0,.64-.03,.96,0,.25,.03,.38,.19,.37,.49-.02,.64,0,1.28,0,1.92V283.45c0,.56,0,1.12,0,1.68,0,.66-.51,1.19-1.14,1.2-2.06,.09-4.2-.14-6.23,.03-.87,.21-1.39-.64-2.21-.53-.71,.1-1.44,.02-2.16,.02-.43-.67-1.12-.41-1.72-.49-.51-.07-.89-.47-1.48-.53-.52-.05-1.15-.35-1.56-.83-.61,.14-.85-.65-1.46-.56-.1,.01-.27-.16-.35-.29-.31-.5-.95-.51-1.32-.86-1.39-1.32-2.72-2.71-4.09-4.05-.39-.39-.32-1.01-.83-1.35-.46-.31-.97-.7-1.17-1.18-.48-1.14-1.46-1.81-2.24-2.67-.46-.51-.58-1.23-1.17-1.69-.53-.41-1.14-.85-1.22-1.64-.65-.81-1.8-1.48-2.25-2.43-.44-.91-1.42-1.31-1.77-2.14-.49-1.16-1.51-1.78-2.25-2.67-.44-.53-.6-1.22-1.17-1.69-.52-.43-1.12-.85-1.22-1.64-.58-.82-1.86-1.65-2.33-2.62-.36-.75-1.33-1.2-1.67-1.95-.48-1.06-1.35-1.7-2.1-2.48-.54-.56-.67-1.37-1.33-1.87-.54-.4-1.12-.86-1.22-1.64-.65-.8-1.77-1.5-2.22-2.44-.41-.84-1.21-1.22-1.66-1.95-.36-.59-.65-1.2-1.19-1.67-.48-.42-1.1-.82-1.32-1.37-.37-.93-1.11-1.49-1.75-2.15-.48-.5-.55-1.26-1.17-1.69-.52-.36-1.1-.81-1.33-1.35-.49-1.13-1.67-1.68-2.15-2.71-.5-1.06-1.47-1.61-2.13-2.47-.37-.48-.43-1.13-1-1.52-.46-.31-.8-.77-1.2-1.17,.06-.77-.63-1.04-1.02-1.49-.37-.42-.96-.73-1.15-1.21-.45-1.16-1.66-1.68-2.14-2.71-.5-1.06-1.44-1.64-2.15-2.46-.36-.41-.32-1.01-.82-1.36-.52-.36-.92-.88-1.37-1.34,.09-.68-.51-.93-.85-1.32-.37-.42-.78-.8-1.18-1.19-.5-.48-.58-1.23-1.17-1.69-.53-.41-1.14-.84-1.22-1.64-.66-.81-1.8-1.48-2.25-2.42-.44-.91-1.41-1.32-1.76-2.14-.49-1.15-1.5-1.78-2.25-2.66-.44-.52-.59-1.23-1.17-1.69-.53-.42-1.12-.85-1.23-1.64-.02-.19-.34-.33-.48-.51-.57-.74-1.41-1.2-1.85-2.11-.36-.75-1.34-1.2-1.67-1.95-.51-1.15-1.53-1.76-2.25-2.66-.43-.53-.61-1.22-1.17-1.68-.52-.43-1.13-.85-1.22-1.65-.01-.12-.21-.23-.32-.34-.65-.69-1.51-1.28-1.9-2.09-.41-.84-1.21-1.23-1.65-1.95-.36-.58-.65-1.21-1.19-1.67-.49-.41-.94-.87-1.35-1.36-.29-.34-.25-.86-.68-1.16-.39-.27-.68-.68-1.03-1-.52-.47-.56-1.24-1.17-1.69-.53-.4-1.13-.84-1.23-1.64-.67-.91-1.76-1.55-2.35-2.61-.39-.74-1.29-1.21-1.66-1.96-.54-1.11-1.47-1.8-2.25-2.66-.47-.51-.58-1.23-1.17-1.69-.53-.41-1.14-.85-1.22-1.64-.01-.12-.21-.23-.32-.34-.66-.69-1.53-1.27-1.92-2.08-.44-.91-1.42-1.31-1.77-2.14-.49-1.16-1.5-1.78-2.25-2.67-.44-.53-.6-1.22-1.17-1.69-.52-.42-1.12-.85-1.22-1.64-.02-.19-.34-.33-.48-.51-.56-.74-1.41-1.2-1.85-2.11-.36-.75-1.33-1.2-1.67-1.95-.48-1.06-1.35-1.7-2.1-2.48-.54-.56-.67-1.37-1.33-1.87-.54-.4-1.12-.86-1.22-1.64-.65-.8-1.77-1.5-2.22-2.44-.41-.84-1.21-1.23-1.66-1.95-.36-.59-.65-1.2-1.19-1.67-.48-.42-1.1-.82-1.32-1.37-.37-.93-1.11-1.49-1.75-2.15-.48-.5-.54-1.26-1.17-1.69-.52-.36-.93-.87-1.37-1.34-.36-.39-.37-.98-.84-1.34-.49-.38-.89-.9-1.32-1.36,.09-.7-.57-.9-.9-1.3-.36-.43-.8-.78-1.17-1.2-.4-.45-.44-1.13-1.01-1.51-.46-.31-.8-.77-1.2-1.17,.06-.77-.63-1.04-1.02-1.49-.37-.42-.96-.73-1.15-1.21-.45-1.15-1.66-1.68-2.14-2.71-.5-1.06-1.44-1.64-2.15-2.46-.36-.41-.3-1.03-.82-1.36-.35-.11-.86-1.02-1.2-1.06-.55,56.11,0,112.7-.19,168.97,0,.56,0,1.12,0,1.68,.07,.61-.61,.51-1.07,.51-14.56,0-29.12,.01-43.67,0-1.1-46.77,0-94.78-.38-141.95Z"/><path d="M847.09,145.97c.04-46.67-.08-93.35,.05-140.02,60.34-.55,120.91,0,181.33-.2,.86-.05,1.43,.03,.73,1.43-.2,.39-.12,.75-.23,1.11-.09,.28-.48,.54-.43,.76,.16,.83-.87,1.36-.51,2.2-.77,.45-.19,1.55-.96,2,.29,.7-.53,1.15-.44,1.71,.12,.72-.67,1.01-.56,1.73,.09,.55-.72,1.02-.44,1.71-.5,.38-.55,.91-.48,1.48-.58,.35-.3,1.04-.55,1.44-.27,.43-.34,.82-.44,1.27-.11,.5-.5,.89-.49,1.49,0,.39-.51,.7-.47,1.24,.02,.32-.39,.65-.42,1-.05,.48-.02,.95-.5,1.24,.35,.78-.61,1.24-.48,1.96,.11,.66-.86,1-.48,1.72-.63,.61-.33,1.63-.96,2.24,.02,.55-.64,.84-.51,1.49,.11,.5-.47,.87-.51,1.47-.05,.69-.57,1.34-.9,2-.23,.46-.39,1.03-.76,1.35-.66,.58-.78,1.5-1.49,2.05-1.15,.97-2.13,2.16-3.24,3.2-.77-.08-.97,.76-1.52,.97-.71,.26-1.34,.65-2.01,.95-.53,.23-1,.81-1.71,.51-.45,.6-1.11,.49-1.72,.47-.5-.02-.67,.63-1.25,.51-37.02,.31-74.96-.72-111.57,.36-.02,23.98,0,47.96,0,71.94,0,.46,.11,.58,.52,.58,.64,0,1.28,0,1.92,0h113.5c.72,0,1.44,0,2.16,0,.72,0,.38,.92,.45,1.37,0,13.03,0,26.06,0,39.09,0,.42,.16,1.1-.31,1.26-12.48,.04-24.96,0-37.43,.01-26.08,0-52.15,0-78.23,0-.72,0-1.44,0-2.16,0-.27,0-.42,.15-.42,.44,0,.4,0,.8,0,1.2,.34,26.35-.65,53.39,.34,79.4,36,.44,72.55-.81,108.26,.49,.4,.62,1.28,.24,1.63,.64,.54,.6,1.53-.09,1.85,.8,1.23-.11,2.06,.83,3.1,1.21,.35,.13,.76,.25,.97,.52,.5,.64,1.34,.73,1.87,1.33,.79,.9,1.68,1.71,2.53,2.56,.28,.28,.79,.55,.8,.85,.04,.77,.91,.96,.97,1.52,.06,.52,.47,.76,.57,1.22,.14,.63,.71,1.15,.88,1.78,.12,.45,.73,.68,.52,1.23-.21,.56,.39,.79,.51,1.23,.2,.7,.61,1.34,.93,2.01,.19,.4,.62,.7,.48,1.24-.13,.51,.66,.69,.48,1.24,.4,.29,.35,.87,.66,1.15,.38,.34,.17,.95,.66,1.18,.15,1.31,.88,2.35,1.51,3.45,.18,.31,0,.89,.22,1.09,.39,.35,.19,.91,.64,1.21,.3,.2,.08,.78,.52,.97,.15,1.31,.85,2.37,1.53,3.44-.28,.77,.56,1.24,.51,1.95,.54,.46,.64,1.17,.95,1.77,.2,.39,.55,.69,.52,1.24-.02,.41,.21,.88,.46,1.22,.27,.38,.34,.89,.63,1.17,.38,.35,.18,.92,.64,1.21,.13,.08,.12,.42,.14,.64,.05,.49-.07,.66-.43,.67-60.54-.32-121.7,.62-181.93-.32-.04-46.68,0-93.36-.01-140.04Z"/><path d="M0,145.7C0,99.42,0,53.14,0,6.86c0-1.11,0-1.11,1.19-1.11,15.68,0,31.35,0,47.03,0,.64,0,.73,.07,.73,.61,0,77.13,0,154.26,0,231.39,0,.64,0,1.28,0,1.92,0,.54,.09,.61,.73,.61,.56,0,1.12,0,1.68,0,41.91,0,83.82,0,125.73,0,.39,0,.48,.11,.48,.62,0,.53,.17,1.13-.43,1.5,.17,.55-.53,.75-.52,1.22,.01,.49-.68,.68-.5,1.23-.49,.23-.33,.88-.69,1.14-.54,.4-.02,1.05-.48,1.5-.35,.34-.62,.88-.7,1.36-.08,.48-.72,.68-.51,1.23-.55,.27-.41,.96-.82,1.35-.39,.36,.05,1.02-.49,1.49-.4,.35-.45,1.07-.72,1.59-.24,.47-.56,.89-.84,1.33,.26,.64-.75,.84-.51,1.47-.61,.34-.33,.99-.53,1.46-.2,.48-.74,.87-.78,1.34-.05,.59-.72,.85-.59,1.45-.53,.29-.53,.91-.78,1.36-.3,.56-.33,1.28-.66,1.88-.32,.58-.63,1.18-.96,1.76-.34,.58-.43,1.29-.96,1.76,.11,.99-.57,1.67-.93,2.49-.24,.54-.48,1.11-.81,1.57-.31,.44-.5,.99-.85,1.32-.54,.5-.66,1.22-1.15,1.7-1.58,1.57-3.13,3.17-4.79,4.66-.82-.1-.9,1.14-1.76,.96-1.25,1.34-3.18,1.64-4.63,2.71-.52,.35-1.35-.17-1.66,.65-.65-.12-.99,.71-1.73,.51-.39-.1-.68,.6-1.23,.45-.58-.16-1,.28-1.49,.44-.43,.15-.97-.06-1.42,.05-46.35,1.31-93.19,.02-139.7,.46-1.17-.07-2.68,.42-2.95-1.07,0-46.52,0-93.04,0-139.55Z"/><path d="M1126.41,145.81c0-46.84,0-93.68,0-140.51,0-.32,.58-.96,.88-.97,.32-.02,.64,0,.96,0,14.64,0,29.27,.01,43.91-.02,1.34,0,1.92,.58,1.77,1.8,0,93.02-.03,186.09,0,279.11,.2,1-.57,1.4-1.1,1.95-14.93,.37-30.06,.03-45.05,.12-.44-.05-.7-.51-1.21-.58-.35-.05-.17-.56-.17-.85-.02-46.68,0-93.36,0-140.03Z"/></svg>