<?xml version="1.0" encoding="utf-8"?>
<!-- Generator: Adobe Illustrator 23.0.4, SVG Export Plug-In . SVG Version: 6.00 Build 0)  -->
<svg version="1.1" id="图层_1" xmlns="http://www.w3.org/2000/svg" xmlns:xlink="http://www.w3.org/1999/xlink" x="0px" y="0px"
	 viewBox="0 0 652 297.6" style="enable-background:new 0 0 652 297.6;" xml:space="preserve">
<style type="text/css">
	.st0{fill:#525252;}
</style>
<path class="st0" d="M631.3,13.3h-20.9c-5.1,0-10.2,4-11.3,8.9l-26.9,114.8c14.4,4.4,26.3,9.3,36.1,14l30.2-128.9
	C639.6,17.3,636.4,13.3,631.3,13.3 M574.5,49.2h-20.9c-5.1,0-10.2,4-11.3,8.9l-16.1,68.6c13.9,2.2,26.3,4.9,37.5,7.9l17.9-76.5
	C582.8,53.3,579.6,49.2,574.5,49.2 M468.1,93.6h-20.9c-5.1,0-10.2,4-11.3,9l-4.5,19c3.3-0.3,6.6-0.4,10.2-0.4
	c10.2-0.1,19.9,0,29.2,0.4l4.5-18.9C476.4,97.6,473.2,93.6,468.1,93.6 M522.7,69.8h-20.9c-5.1,0-10.2,4-11.4,9l-10.1,43.2
	c13.8,0.8,26.7,2,38.5,3.7l11-46.9C531,73.8,527.8,69.8,522.7,69.8"/>
<path id="XMLID_160_" class="st0" d="M38.9,168.5c1.3-5.4,6.8-9.8,12.3-9.8h20.7c5.5,0,9.9,4.5,9.7,10l-0.5,14.3
	c-0.2,5.5-0.5,14.5-0.6,20c0,0-0.2,8.1-0.2,11.6c-0.5,10.4-1,18.8-1.7,30c2.4-5.7,5.4-12.8,8.6-20.4c2.6-6.2,6.2-14.8,7.9-18.8
	l16.6-37.6c2.2-5,8.6-9.2,14.1-9.2h20.5c5.5,0,9,4.4,7.8,9.8l-23.6,102.3c-1.3,5.4-6.8,9.8-12.3,9.8h-7.4c-5.5,0-8.9-4.4-7.5-9.7
	l18-71c1.4-5.3,0.6-5.6-1.6-0.6l-32.4,72.2c-2.3,5-8.6,9.1-14.1,9.1h-4.6c-5.5,0-10-4.5-9.9-10l0.7-70.4c0.1-5.5-0.8-5.6-1.9-0.2
	l-14.7,70.8c-1.1,5.4-6.6,9.8-12.1,9.8h-7.4c-5.5,0-9-4.4-7.8-9.8L38.9,168.5z"/>
<path class="st0" d="M215.6,270.1c-0.2,1.4-0.5,2.8-0.5,4.1c0,4.1,1.2,5,2.6,6.4h-21.4c-5.5,0-9.5-2.2-8.8-4.9
	c0.7-2.6-2.2-1.9-6.4,1.7c0,0-6.4,5.5-17.3,5.5c-1.9,0-18.3,0-18.3-16.7c0-5.7,3.6-21.9,9.3-28.5c5.7-6.6,14-9,46.3-18.3
	c0.9-3.6,2.1-9.5,2.1-10.9c0-4.8-4.5-5.2-7.4-5.2c-7.8,0-9.1,4.1-11.8,13.5h-16.2c-5.5,0-8.8-4.4-7.3-9.7c0,0,3.3-11.8,11.8-16.1
	c6.4-3.3,15.2-4.8,24.9-4.8c15.9,0,32.3,4,32.3,20.2v3.5c-0.9,3.8-2.6,11.3-3.8,16.7L215.6,270.1z M197.1,237.3
	c-6.2,1.9-14.1,4.3-17.4,6.9c-4.5,3.6-5.7,13.5-5.7,15.2c0,3.1,1.4,5.7,6,5.7h4.9c3.6-3,7.7-9.9,9-15.2L197.1,237.3z"/>
<path id="XMLID_78_" class="st0" d="M272.9,206.6c7.6-14.5,13.3-17.8,27.8-20l-4.3,16c-1.4,5.3-4.3,9.6-6.4,9.5h-1.9
	c-15.2,0-18,6.6-21.9,23.5l-8.1,35.3c-1.2,5.4-6.8,9.8-12.3,9.8h-7.2c-5.5,0-9-4.4-7.8-9.8l16.9-73c1.3-5.4,6.8-9.8,12.3-9.8h7.2
	c5.5,0,9,4.4,7.8,9.8L272.9,206.6z"/>
<path id="XMLID_77_" class="st0" d="M331.5,158.8c5.5,0,9,4.4,7.8,9.8L329,213.2c-1.2,5.4,0.6,6.3,4.1,2l15.9-19.4
	c3.5-4.3,10.9-7.8,16.4-7.8h10.9c5.5,0,7,3.4,3.3,7.4l-22.5,25c-3.7,4.1-5.4,11.8-3.8,17l10.1,33.5c1.6,5.3-1.6,9.6-7.1,9.6H348
	c-5.5,0-11.2-4.4-12.6-9.7l-8-30.3c-1.4-5.3-3.6-5.3-4.8,0.1l-6.9,30.2c-1.2,5.4-6.8,9.8-12.3,9.8H296c-5.5,0-9-4.4-7.8-9.8
	l23.6-102.3c1.2-5.4,6.8-9.8,12.3-9.8H331.5z"/>
<path class="st0" d="M451.7,250.8c-1.8,6.9-3.6,15-9.3,21.2c-5.5,6.4-14.7,11-30.9,11c-4.7,0-17.6-0.7-25.7-7.1
	c-4-3.1-7.6-8-7.6-17.8c0-12.3,8.8-46.3,11.7-53.2c3.1-7.4,10.4-19.2,35.6-19.2c11,0,32.6,2.1,32.6,22.6c0,3.8-0.7,7.8-1.6,11.8
	c-1.4,6.7-2.8,12.9-4.5,20.7h-34.2c-5.5,0-11.1,4.4-12.4,9.8c0,0-0.8,3.2-0.8,7.2c0,0.9,0.2,1.9,0.5,2.8c1.2,2.1,4,3.4,7.6,3.4
	c7.8,0,8.5-3.5,8.5-3.5c1.2-5.4,6.7-9.8,12.2-9.8H451.7z M429.4,224c0.7-2.9,2.4-10.2,2.4-12.6c0-1.7-0.4-3.4-1.4-4.7
	c-1.7-2.1-4.8-2.4-6.5-2.4c-8.5,0-10.4,9.9-10.4,9.9c-1.1,5.4,2.6,9.8,8.1,9.8H429.4z"/>
<path id="XMLID_9_" class="st0" d="M486.1,168.4c1.2-5.4,6.8-9.8,12.3-9.8h7c5.5,0,9,4.4,7.8,9.8l-2.3,10c-1.3,5.4,0.5,9.8,3.9,9.8
	c3.4,0,5.2,3.7,4.1,8.3c-1.1,4.6-4.7,8.3-8,8.3c-3.3,0-7.1,4.4-8.3,9.8l-6.7,28.7c-1.3,5.4-2.6,11.5-3,13.6v1.5
	c0,4.8,3.5,4.8,11.2,4.8l-1.8,7.8c-1.2,5.4-6.7,9.8-12.2,9.8c0,0-26.7,0-26.7-13.8c0-2.9,0.5-5.2,1.5-9l10.4-43.4
	c1.3-5.4-0.1-9.7-3.2-9.7c-3,0-4.6-3.7-3.6-8.3c1-4.6,4.4-8.3,7.5-8.3c3.1,0,6.6-4.4,7.9-9.8L486.1,168.4z"/>
<path class="st0" d="M596.2,211.1c0,9.7-7.4,40.4-10,48.3c-3.3,9.6-8.6,23.3-36.3,23.3c-20.7,0-34-6.9-34-25c0-10,7.8-40.6,9.3-45.4
	c2.9-9.8,8.8-26.6,35.4-26.6C574.4,185.7,596.2,187.9,596.2,211.1 M568.9,214.7c0.4-1.2,0.5-2.4,0.5-3.6c0.2-4.5-3.3-6.9-7.4-6.9
	c-7.4,0-9,6.4-9.9,10.5l-6.4,27.2c-1.2,5.4-2.6,11.3-3,13.2v1.9c0,3.6,2.1,7.1,7.4,7.1c7.4,0,8.1-2.7,8.1-2.7
	c1.3-5.4,3.3-14.1,4.5-19.5L568.9,214.7z"/>
<path class="st0" d="M615.7,185.8c6.4,0,11.7,5.4,11.7,11.9c0,6.7-5.2,12-11.7,12c-6.6,0-11.9-5.3-11.9-12
	C603.8,191.1,609.1,185.8,615.7,185.8L615.7,185.8z M615.6,188.1c-5,0-9,4.3-9,9.5c0,5.3,4,9.5,9.1,9.5c5,0,9-4.2,9-9.5
	C624.7,192.4,620.7,188.1,615.6,188.1L615.6,188.1z M613.6,204.5h-2.8v-13.2c1-0.1,2.2-0.4,4.2-0.4c2.3,0,3.7,0.4,4.6,1.1
	c0.7,0.5,1.2,1.5,1.2,2.8c0,1.5-1.1,2.7-2.5,3.1v0.1c1.2,0.3,1.9,1.3,2.1,3.3c0.3,2,0.5,2.8,0.7,3.3h-2.9c-0.3-0.5-0.5-1.6-0.8-3.4
	c-0.2-1.4-1.1-2-2.6-2h-1.2V204.5z M613.6,196.9h1.3c1.7,0,3-0.5,3-1.9c0-1-0.8-1.9-2.7-1.9c-0.7,0-1.1,0-1.5,0.1V196.9z"/>
</svg>
