<?xml version="1.0" encoding="UTF-8"?>
<svg viewBox="0 0 151 22" version="1.1" xmlns="http://www.w3.org/2000/svg" xmlns:xlink="http://www.w3.org/1999/xlink">
  <path fill="#525252" d="M11.3,11.8 C12.1,10.7 12.9,9.6 13.7,8.6 C15.4,6.3 17.1,4 18.7,1.7 C19,1.3 19.2,1.2 19.7,1.2 C20.2,1.2 20.8,1.2 21.3,1.2 C21.5,1.2 21.6,1.3 21.6,1.5 C21.6,1.6 21.6,1.7 21.6,1.8 C21.6,7.9 21.6,13.9 21.6,20 C21.6,20.2 21.6,20.5 21.6,20.8 C21.3,20.9 21,20.8 20.7,20.8 C19.8,20.8 19,20.8 18.1,20.8 C17.4,20.8 17.4,20.9 17.4,20.2 C17.4,18.3 17.4,16.5 17.4,14.6 C17.4,13.3 17.4,11.9 17.4,10.6 C17.1,10.5 17.1,10.8 17,10.9 C15.6,12.8 14.1,14.7 12.7,16.7 C12.5,17 12.2,17.2 11.8,17.1 C11.4,17.1 10.9,17.1 10.5,17.1 C10.2,17.1 10,17 9.8,16.7 C8.4,14.8 7,12.8 5.5,10.9 C5.4,10.8 5.3,10.6 5.2,10.5 C5,10.7 5.1,10.9 5.1,11.1 C5.1,14.1 5.1,17.1 5.1,20.1 C5.1,20.2 5.1,20.4 5.1,20.5 C5.1,20.8 5,20.9 4.7,20.9 C3.6,20.9 2.5,20.9 1.4,20.9 C1.1,20.9 1,20.8 1,20.5 C1,20.4 1,20.3 1,20.2 C1,14.1 1,8 1,2 C1,1.3 0.9,1.3 1.7,1.3 C2.2,1.3 2.6,1.3 3.1,1.3 C3.5,1.3 3.7,1.4 3.9,1.7 C6,4.6 8.2,7.6 10.4,10.5 C10.6,10.8 10.9,11.3 11.3,11.8 Z" id="Path"></path>
  <path fill="#525252" d="M63,10.4 C62.8,10.7 62.7,10.8 62.6,11 C61.2,12.9 59.8,14.8 58.4,16.7 C58.2,17 57.9,17.1 57.6,17.1 C57.2,17.1 56.7,17.1 56.3,17.1 C55.9,17.1 55.7,17 55.5,16.7 C54.1,14.8 52.7,12.8 51.2,10.9 C51.1,10.8 51,10.6 50.9,10.5 C50.8,10.7 50.8,10.9 50.8,11.1 C50.8,14.1 50.8,17.1 50.8,20.1 C50.8,20.2 50.8,20.4 50.8,20.5 C50.8,20.7 50.7,20.8 50.5,20.8 C50.2,20.8 49.8,20.8 49.5,20.8 C48.7,20.8 47.9,20.8 47,20.8 C46.7,20.8 46.6,20.7 46.6,20.4 C46.6,20.3 46.6,20.2 46.6,20.1 C46.6,14 46.6,8 46.6,1.9 C46.6,1.7 46.6,1.5 46.7,1.2 C47.4,1.2 48.2,1.2 48.9,1.2 C49.2,1.2 49.3,1.4 49.4,1.6 C50.5,3.1 51.7,4.7 52.8,6.2 C54.1,7.9 55.3,9.6 56.6,11.3 C56.7,11.4 56.8,11.6 57,11.7 C57.2,11.4 57.5,11.1 57.7,10.7 C59.9,7.7 62.1,4.7 64.3,1.7 C64.6,1.2 65,1.1 65.5,1.1 C66,1.1 66.4,1.1 66.9,1.1 C67.2,1.1 67.3,1.2 67.3,1.5 C67.3,1.6 67.3,1.7 67.3,1.8 C67.3,7.9 67.3,13.9 67.3,20 C67.3,20.1 67.3,20.1 67.3,20.2 C67.3,20.8 67.3,20.7 66.8,20.7 C65.8,20.7 64.7,20.7 63.7,20.7 C63.2,20.7 63.2,20.7 63.2,20.2 C63.2,18 63.2,15.8 63.2,13.6 C63.2,12.6 63.2,11.7 63.2,10.7 C63,10.7 63,10.6 63,10.4 Z" id="Path"></path>
  <path fill="#525252" d="M108.6,14.9 C108.5,13.3 107.8,12 106.3,11.2 C106,11.1 105.7,11 105.3,10.8 C106.6,10.1 107.4,9 107.7,7.6 C108.3,5.4 107.6,2.9 104.9,1.7 C103.9,1.3 102.8,1.1 101.6,1.1 C98.6,1.1 95.5,1.1 92.5,1.1 C92.1,1.1 92,1.1 92,1.5 C92,7.7 92,13.9 92,20.2 C92,20.7 92,20.7 92.5,20.7 C95.6,20.7 98.7,20.7 101.8,20.7 C102.9,20.7 103.9,20.5 105,20.2 C107.5,19.4 108.8,17.5 108.6,14.9 Z M96.7,5 C98.2,5 99.7,5 101.2,5 C101.7,5 102.3,5.1 102.8,5.3 C103.6,5.6 103.9,6.1 103.9,7 C103.9,7.9 103.6,8.4 102.8,8.7 C102.3,8.9 101.8,9 101.3,9 C100.9,9 100.5,9 100.2,9 C99.9,9 99.7,9 99.4,9 C99.3,9 99.2,9 99,9 C98.8,9 98.6,9 98.4,9 C97.8,9 97.3,9 96.7,9 C96.4,9 96.3,8.9 96.3,8.6 C96.3,7.5 96.3,6.4 96.3,5.3 C96.2,5.1 96.4,5 96.7,5 Z M104.5,15.1 C104.4,16 104,16.6 103.2,16.8 C102.8,16.9 102.3,17 101.8,17 C101,17 100.2,17 99.4,17 C98.9,17 98.4,17 97.9,17 L97.9,17 C97.6,17 97.3,17 97,17 C96.9,17 96.8,17 96.7,17 C96.4,17 96.3,16.9 96.3,16.6 C96.3,15.4 96.3,14.2 96.3,13.1 C96.3,12.8 96.4,12.7 96.7,12.7 C98.5,12.7 100.3,12.7 102.1,12.7 C102.6,12.7 103.1,12.8 103.6,13.1 C104.3,13.5 104.6,14.3 104.5,15.1 Z" id="Shape"></path>
  <path fill="#525252" d="M121.4,0.8 C115.8,0.8 111.1,5.3 111.1,11 C111.1,16.6 115.7,21.2 121.3,21.2 C127,21.2 131.5,16.7 131.5,11 C131.6,5.4 127,0.8 121.4,0.8 Z M121.4,17 C118.3,17 115.4,14.5 115.4,11 C115.4,7.7 118.1,5 121.4,5 C124.6,5 127.4,7.5 127.4,11 C127.4,14.3 124.7,17 121.4,17 Z" id="Shape"></path>
  <path fill="#525252" d="M26.8,11 C26.8,7.9 26.8,4.8 26.8,1.7 C26.8,1.2 26.8,1.2 27.3,1.2 C32,1.2 36.7,1.2 41.4,1.2 C41.5,1.2 41.6,1.2 41.7,1.2 C41.9,1.2 42,1.3 42,1.5 C42,2.6 42,3.6 42,4.7 C42,4.9 41.9,5 41.7,5 C41.6,5 41.4,5 41.3,5 C38.1,5 34.9,5 31.7,5 C31,5 31,4.9 31,5.7 C31,6.6 31,7.5 31,8.3 C31,9 31,9 31.6,9 C33.3,9 35,9 36.6,9 C37.8,9 38.9,9 40.1,9 C40.6,9 40.6,9 40.6,9.5 C40.6,10.4 40.6,11.3 40.6,12.3 C40.6,12.8 40.6,12.8 40.1,12.8 C38.1,12.8 36.2,12.8 34.2,12.8 C33.3,12.8 32.3,12.8 31.4,12.8 C31,12.8 30.9,12.8 30.9,13.3 C30.9,14.4 30.9,15.5 30.9,16.6 C30.9,17.1 30.9,17.1 31.4,17.1 C34,17.1 36.7,17.1 39.3,17.1 C40,17.1 40.8,17.1 41.5,17.1 C41.8,17.1 42,17.1 42,17.5 C42,18.5 42,19.5 42,20.5 C42,20.8 41.9,20.9 41.6,20.9 C41.5,20.9 41.4,20.9 41.3,20.9 C36.7,20.9 32.1,20.9 27.4,20.9 C26.6,20.9 26.7,21 26.7,20.2 C26.8,17.1 26.8,14 26.8,11 Z" id="Path"></path>
  <path fill="#525252" d="M72.4,11 C72.4,8 72.4,4.9 72.4,1.9 C72.4,1.2 72.3,1.3 73.1,1.3 C77.7,1.3 82.4,1.3 87,1.3 C87.7,1.3 87.6,1.3 87.6,1.9 C87.6,2.8 87.6,3.7 87.6,4.5 C87.6,5 87.6,5 87,5 C83.8,5 80.6,5 77.4,5 C76.3,5 76.5,4.9 76.5,5.9 C76.5,6.7 76.5,7.6 76.5,8.4 C76.5,8.9 76.5,8.9 77,8.9 C79.8,8.9 82.5,8.9 85.3,8.9 C86.3,8.9 86.1,8.8 86.1,9.7 C86.1,10.5 86.1,11.4 86.1,12.2 C86.1,12.6 86.1,12.6 85.6,12.6 C83.2,12.6 80.8,12.6 78.5,12.6 C78,12.6 77.4,12.6 76.9,12.6 C76.5,12.6 76.4,12.6 76.4,13.1 C76.4,14.2 76.4,15.3 76.4,16.4 C76.4,16.9 76.4,16.9 76.9,16.9 C79.5,16.9 82.2,16.9 84.8,16.9 C85.5,16.9 86.3,16.9 87,16.9 C87.3,16.9 87.5,17 87.4,17.3 C87.4,18.3 87.4,19.3 87.4,20.3 C87.4,20.6 87.3,20.7 87,20.7 C86.9,20.7 86.8,20.7 86.7,20.7 C82.1,20.7 77.5,20.7 72.9,20.7 C72.8,20.7 72.7,20.7 72.6,20.7 C72.1,20.7 72.1,20.7 72.1,20.2 C72.4,17.2 72.4,14.1 72.4,11 Z" id="Path"></path>
  <path fill="#525252" d="M131.8,1.2 C132.3,1.2 132.6,1.2 133,1.2 C134.1,1.2 135.2,1.2 136.3,1.2 C136.8,1.2 137.1,1.4 137.4,1.8 C138.6,3.6 139.8,5.4 141,7.2 C141.1,7.4 141.2,7.5 141.4,7.7 C141.7,7.6 141.7,7.4 141.9,7.2 C143.1,5.4 144.3,3.6 145.5,1.7 C145.7,1.3 146,1.2 146.4,1.2 C147.7,1.2 149,1.2 150.2,1.2 C150.4,1.2 150.6,1.2 150.8,1.2 C150.8,1.4 150.7,1.5 150.6,1.6 C148.6,4.5 146.6,7.4 144.7,10.3 C144.3,10.8 144.3,10.7 144.7,11.3 C146.8,14.2 148.8,17.2 150.9,20.1 C151,20.3 151.1,20.4 151.2,20.6 C151.1,20.8 150.9,20.7 150.8,20.7 C149.4,20.7 148,20.7 146.6,20.7 C146.2,20.7 146,20.6 145.7,20.2 C144.4,18.3 143.1,16.4 141.9,14.6 C141.8,14.4 141.7,14.2 141.5,14.1 C141.3,14.2 141.2,14.4 141.1,14.6 C139.8,16.5 138.5,18.4 137.2,20.3 C137,20.6 136.8,20.7 136.4,20.7 C135,20.7 133.5,20.7 132.1,20.7 C132,20.7 131.9,20.7 131.7,20.6 C131.7,20.4 131.9,20.2 132,20.1 C134.1,17.2 136.1,14.2 138.2,11.3 C138.6,10.8 138.6,10.8 138.2,10.3 C136.2,7.4 134.2,4.5 132.2,1.6 C132,1.5 132,1.4 131.8,1.2 Z" id="Path"></path>
</svg>
