<?xml version="1.0" encoding="utf-8"?>
<!-- Generator: Adobe Illustrator 23.0.4, SVG Export Plug-In . SVG Version: 6.00 Build 0)  -->
<svg version="1.1" id="Layer_1" xmlns="http://www.w3.org/2000/svg" xmlns:xlink="http://www.w3.org/1999/xlink" x="0px" y="0px"
	 viewBox="0 0 250 250" style="enable-background:new 0 0 250 250;" xml:space="preserve">
<style type="text/css">
	.st0{fill:#525252;}
</style>
<g id="SRntYn.tif">
	<g>
		<path class="st0" d="M199.7,134.2c-2.1-2.9-4.1-5.9-6.2-8.8c-0.4-0.6-0.4-0.4,0-1c2-2.9,4-5.8,5.9-8.7c0.1-0.1,0.2-0.2,0.2-0.4
			c-0.2-0.1-0.4,0-0.6,0c-1.3,0-2.6,0-3.8,0c-0.4,0-0.7,0.1-0.9,0.5c-1.2,1.8-2.4,3.6-3.6,5.5c-0.1,0.2-0.2,0.4-0.5,0.5
			c-0.1-0.2-0.2-0.3-0.4-0.5c-1.2-1.8-2.4-3.6-3.6-5.4c-0.3-0.4-0.5-0.6-1.1-0.6c-1.1,0-2.2,0-3.3,0h-1.2c0.2,0.2,0.2,0.3,0.3,0.4
			c2,2.9,4,5.8,6,8.7c0.3,0.5,0.3,0.5,0,1c-2.1,2.9-4.1,5.9-6.2,8.8c-0.1,0.2-0.3,0.3-0.3,0.5c0.1,0.1,0.2,0.1,0.4,0.1
			c1.4,0,2.9,0,4.3,0c0.4,0,0.6-0.1,0.8-0.4c1.3-1.9,2.6-3.8,3.9-5.7c0.1-0.2,0.2-0.4,0.4-0.5c0.2,0.1,0.3,0.3,0.4,0.5
			c1.3,1.9,2.6,3.7,3.8,5.6c0.2,0.3,0.4,0.5,0.9,0.5c1.4,0,2.8,0,4.2,0c0.1,0,0.3,0.1,0.4-0.1C199.9,134.5,199.8,134.3,199.7,134.2z
			 M136.6,131.4c0-0.3-0.1-0.4-0.4-0.4c-0.7,0-1.5,0-2.2,0c-2.6,0-5.3,0-7.9,0c-0.5,0-0.5,0-0.5-0.5c0-1.1,0-2.2,0-3.3
			c0-0.5,0-0.5,0.5-0.5c0.5,0,1.1,0,1.6,0c2.4,0,4.7,0,7.1,0c0.5,0,0.5,0,0.5-0.4c0-0.8,0-1.7,0-2.5c0-1,0.1-0.8-0.8-0.8
			c-2.8,0-5.5,0-8.3,0c-0.5,0-0.5,0-0.5-0.5c0-0.8,0-1.7,0-2.5c0-1.1-0.1-0.9,0.9-0.9c3.2,0,6.4,0,9.6,0c0.6,0,0.6,0,0.6-0.5
			c0-0.9,0-1.8,0-2.6c0-0.6,0.1-0.6-0.6-0.6c-4.6,0-9.3,0-13.9,0c-0.7,0-0.7,0-0.7,0.6c0,3,0,6.1,0,9.1c0,3.1,0,6.2,0,9.3
			c0,0.5,0,0.5,0.5,0.5c0.1,0,0.2,0,0.3,0c4.6,0,9.2,0,13.8,0c0.1,0,0.2,0,0.3,0c0.3,0,0.4-0.1,0.4-0.4
			C136.6,133.4,136.6,132.4,136.6,131.4z M91.1,131.4c0-0.4-0.2-0.4-0.5-0.4c-0.7,0-1.5,0-2.2,0c-2.6,0-5.3,0-7.9,0
			c-0.5,0-0.5,0-0.5-0.5c0-1.1,0-2.2,0-3.3c0-0.4,0-0.5,0.5-0.5c0.9,0,1.9,0,2.8,0c2,0,3.9,0,5.9,0c0.5,0,0.5,0,0.5-0.5
			c0-0.9,0-1.8,0-2.8c0-0.5,0-0.5-0.5-0.5c-1.2,0-2.3,0-3.5,0c-1.7,0-3.4,0-5,0c-0.7,0-0.6,0.1-0.6-0.7c0-0.9,0-1.8,0-2.6
			c0-0.7,0-0.7,0.7-0.7c3.2,0,6.4,0,9.6,0c0.1,0,0.3,0,0.4,0c0.2,0,0.3-0.1,0.3-0.3c0-1.1,0-2.1,0-3.2c0-0.2-0.1-0.3-0.3-0.3
			c-0.1,0-0.2,0-0.3,0c-4.7,0-9.4,0-14.1,0c-0.5,0-0.5,0-0.5,0.5v3.1c0,2.1,0,4.1,0,6.2c0,1.7,0,3.4,0,5.1c0,1.3,0,2.6,0,3.9
			c0,0.8-0.1,0.7,0.7,0.7c4.6,0,9.2,0,13.9,0c0.1,0,0.2,0,0.3,0c0.3,0,0.4-0.1,0.4-0.4C91,133.4,91,132.4,91.1,131.4z M170.4,114.8
			c-5.6,0-10.3,4.5-10.3,10.2c0,5.6,4.6,10.2,10.2,10.2c5.7,0,10.2-4.5,10.2-10.2C180.6,119.4,176,114.8,170.4,114.8z M170.4,131
			c-3.1,0-6-2.5-6-6c0-3.3,2.7-6,6-6c3.2,0,6,2.5,6,6C176.4,128.3,173.7,131,170.4,131z M157.6,128.9c-0.1-1.6-0.8-2.9-2.3-3.7
			c-0.3-0.1-0.6-0.2-1-0.4c1.3-0.7,2.1-1.8,2.4-3.2c0.6-2.2-0.1-4.7-2.8-5.9c-1-0.4-2.1-0.6-3.3-0.6c-3,0-6.1,0-9.1,0
			c-0.4,0-0.5,0-0.5,0.4c0,6.2,0,12.4,0,18.7c0,0.5,0,0.5,0.5,0.5c3.1,0,6.2,0,9.3,0c1.1,0,2.1-0.2,3.2-0.5
			C156.5,133.4,157.8,131.5,157.6,128.9z M145.7,119c1.5,0,3,0,4.5,0c0.5,0,1.1,0.1,1.6,0.3c0.8,0.3,1.1,0.8,1.1,1.7
			c0,0.9-0.3,1.4-1.1,1.7c-0.5,0.2-1,0.3-1.5,0.3c-0.4,0-0.8,0-1.1,0c-0.3,0-0.5,0-0.8,0c-0.1,0-0.2,0-0.4,0c-0.2,0-0.4,0-0.6,0
			c-0.6,0-1.1,0-1.7,0c-0.3,0-0.4-0.1-0.4-0.4c0-1.1,0-2.2,0-3.3C145.2,119.1,145.4,119,145.7,119z M153.5,129.1
			c-0.1,0.9-0.5,1.5-1.3,1.7c-0.4,0.1-0.9,0.2-1.4,0.2c-0.8,0-1.6,0-2.4,0c-0.5,0-1,0-1.5,0h0c-0.3,0-0.6,0-0.9,0
			c-0.1,0-0.2,0-0.3,0c-0.3,0-0.4-0.1-0.4-0.4c0-1.2,0-2.4,0-3.5c0-0.3,0.1-0.4,0.4-0.4c1.8,0,3.6,0,5.4,0c0.5,0,1,0.1,1.5,0.4
			C153.3,127.5,153.6,128.3,153.5,129.1z M115.8,115.2c-0.5,0-0.9,0-1.4,0c-0.5-0.1-0.9,0.1-1.2,0.6c-2.2,3-4.4,6-6.6,9
			c-0.2,0.3-0.5,0.6-0.7,1c-0.2-0.1-0.3-0.2-0.4-0.4c-1.3-1.7-2.5-3.4-3.8-5.1c-1.1-1.5-2.3-3.1-3.4-4.6c-0.1-0.2-0.2-0.4-0.5-0.4
			c-0.8,0-1.5,0-2.2,0c-0.1,0.3-0.1,0.5-0.1,0.7c0,6.1,0,12.1,0,18.2c0,0.1,0,0.2,0,0.3c0,0.3,0.1,0.4,0.4,0.4c0.8,0,1.6,0,2.5,0
			c0.3,0,0.7,0,1,0c0.2,0,0.3-0.1,0.3-0.3c0-0.1,0-0.3,0-0.4c0-3,0-6,0-9c0-0.2-0.1-0.4,0.1-0.6c0.1,0.2,0.2,0.3,0.3,0.4
			c1.4,1.9,2.9,3.8,4.3,5.8c0.2,0.3,0.4,0.4,0.8,0.4c0.4,0,0.9,0,1.3,0c0.4,0,0.6-0.1,0.8-0.4c1.4-1.9,2.8-3.8,4.2-5.7
			c0.1-0.2,0.2-0.3,0.4-0.6c0,0.2,0,0.3,0,0.4c0,1,0,1.9,0,2.9c0,2.2,0,4.4,0,6.6c0,0.5,0,0.5,0.5,0.5c1,0,2.1,0,3.1,0
			c0.5,0,0.6,0.1,0.5-0.5c0-0.1,0-0.1,0-0.2c0-6.1,0-12.1,0-18.2c0-0.1,0-0.2,0-0.3C116.2,115.3,116.1,115.2,115.8,115.2z
			 M70.6,115.8c0-0.1,0-0.2,0-0.3c0-0.2-0.1-0.3-0.3-0.3c-0.5,0-1.1,0-1.6,0c-0.4,0-0.7,0.1-1,0.5c-1.7,2.3-3.3,4.6-5,6.9
			c-0.8,1.1-1.6,2.1-2.4,3.2c-0.4-0.4-0.7-0.9-1.1-1.4c-2.2-2.9-4.3-5.9-6.5-8.8c-0.2-0.3-0.4-0.4-0.8-0.4c-0.5,0-0.9,0-1.4,0
			c-0.8,0-0.7-0.1-0.7,0.7c0,6.1,0,12.2,0,18.2c0,0.1,0,0.2,0,0.3c0,0.3,0.1,0.4,0.4,0.4c1.1,0,2.2,0,3.3,0c0.3,0,0.5-0.1,0.4-0.4
			c0-0.1,0-0.3,0-0.4c0-3,0-6,0-9c0-0.2-0.1-0.4,0.1-0.6c0.1,0.2,0.2,0.3,0.3,0.4c1.4,1.9,2.9,3.8,4.3,5.8c0.2,0.3,0.4,0.4,0.7,0.4
			c0.4,0,0.9,0,1.3,0c0.4,0,0.6-0.1,0.9-0.4c1.4-1.9,2.8-3.9,4.3-5.8c0.1-0.1,0.1-0.3,0.4-0.3v4c0,1.9,0,3.7,0,5.6
			c0,0.7,0,0.6,0.7,0.6c0.9,0,1.7,0,2.6,0c0.3,0,0.6,0,0.9,0c0.1-0.3,0-0.5,0-0.8C70.6,127.9,70.6,121.9,70.6,115.8z"/>
		<path class="st0" d="M60.3,125.8c0.8-1.1,1.6-2.2,2.4-3.2c1.7-2.3,3.4-4.6,5-6.9c0.3-0.4,0.5-0.5,1-0.5c0.5,0,1.1,0,1.6,0
			c0.2,0,0.3,0.1,0.3,0.3c0,0.1,0,0.2,0,0.3c0,6.1,0,12.1,0,18.2c0,0.2,0,0.5,0,0.8c-0.3,0.1-0.6,0-0.9,0c-0.9,0-1.7,0-2.6,0
			c-0.7,0-0.7,0.1-0.7-0.6c0-1.9,0-3.7,0-5.6c0-1.3,0-2.7,0-4c-0.3-0.1-0.3,0.2-0.4,0.3c-1.4,1.9-2.9,3.8-4.3,5.8
			c-0.2,0.3-0.5,0.5-0.9,0.4c-0.4,0-0.9,0-1.3,0c-0.3,0-0.5-0.1-0.7-0.4c-1.4-1.9-2.8-3.9-4.3-5.8c-0.1-0.1-0.2-0.3-0.3-0.4
			c-0.2,0.2-0.1,0.4-0.1,0.6c0,3,0,6,0,9c0,0.1,0,0.3,0,0.4c0,0.3-0.1,0.4-0.4,0.4c-1.1,0-2.2,0-3.3,0c-0.3,0-0.4-0.1-0.4-0.4
			c0-0.1,0-0.2,0-0.3c0-6.1,0-12.2,0-18.2c0-0.7-0.1-0.7,0.7-0.7c0.5,0,0.9,0,1.4,0c0.4,0,0.6,0.1,0.8,0.4c2.1,2.9,4.3,5.9,6.5,8.8
			C59.6,124.8,59.9,125.3,60.3,125.8z"/>
		<path class="st0" d="M112,124.4c-0.2,0.3-0.3,0.4-0.4,0.6c-1.4,1.9-2.8,3.8-4.2,5.7c-0.2,0.3-0.5,0.4-0.8,0.4c-0.4,0-0.9,0-1.3,0
			c-0.4,0-0.6-0.1-0.8-0.4c-1.4-1.9-2.8-3.9-4.3-5.8c-0.1-0.1-0.2-0.3-0.3-0.4c-0.1,0.2-0.1,0.4-0.1,0.6c0,3,0,6,0,9
			c0,0.1,0,0.3,0,0.4c0,0.2-0.1,0.3-0.3,0.3c-0.3,0-0.7,0-1,0c-0.8,0-1.6,0-2.5,0c-0.3,0-0.4-0.1-0.4-0.4c0-0.1,0-0.2,0-0.3
			c0-6.1,0-12.1,0-18.2c0-0.2,0-0.4,0.1-0.7c0.7,0,1.5,0,2.2,0c0.3,0,0.4,0.2,0.5,0.4c1.1,1.5,2.3,3.1,3.4,4.6
			c1.3,1.7,2.5,3.4,3.8,5.1c0.1,0.1,0.2,0.3,0.4,0.4c0.2-0.3,0.5-0.6,0.7-1c2.2-3,4.4-6,6.6-9c0.3-0.5,0.7-0.6,1.2-0.6
			c0.5,0,0.9,0,1.4,0c0.3,0,0.4,0.1,0.4,0.4c0,0.1,0,0.2,0,0.3c0,6.1,0,12.1,0,18.2c0,0.1,0,0.1,0,0.2c0,0.6,0,0.5-0.5,0.5
			c-1,0-2.1,0-3.1,0c-0.5,0-0.5,0-0.5-0.5c0-2.2,0-4.4,0-6.6c0-1,0-1.9,0-2.9C112,124.7,112,124.6,112,124.4z"/>
		<path class="st0" d="M157.6,128.9c-0.1-1.6-0.8-2.9-2.3-3.7c-0.3-0.1-0.6-0.2-1-0.4c1.3-0.7,2.1-1.8,2.4-3.2
			c0.6-2.2-0.1-4.7-2.8-5.9c-1-0.4-2.1-0.6-3.3-0.6c-3,0-6.1,0-9.1,0c-0.4,0-0.5,0-0.5,0.4c0,6.2,0,12.4,0,18.7c0,0.5,0,0.5,0.5,0.5
			c3.1,0,6.2,0,9.3,0c1.1,0,2.1-0.2,3.2-0.5C156.5,133.4,157.8,131.5,157.6,128.9z M145.7,119c1.5,0,3,0,4.5,0
			c0.5,0,1.1,0.1,1.6,0.3c0.8,0.3,1.1,0.8,1.1,1.7c0,0.9-0.3,1.4-1.1,1.7c-0.5,0.2-1,0.3-1.5,0.3c-0.4,0-0.8,0-1.1,0
			c-0.3,0-0.5,0-0.8,0c-0.1,0-0.2,0-0.4,0c-0.2,0-0.4,0-0.6,0c-0.6,0-1.1,0-1.7,0c-0.3,0-0.4-0.1-0.4-0.4c0-1.1,0-2.2,0-3.3
			C145.2,119.1,145.4,119,145.7,119z M153.5,129.1c-0.1,0.9-0.5,1.5-1.3,1.7c-0.4,0.1-0.9,0.2-1.4,0.2c-0.8,0-1.6,0-2.4,0
			c-0.5,0-1,0-1.5,0h0c-0.3,0-0.6,0-0.9,0c-0.1,0-0.2,0-0.3,0c-0.3,0-0.4-0.1-0.4-0.4c0-1.2,0-2.4,0-3.5c0-0.3,0.1-0.4,0.4-0.4
			c1.8,0,3.6,0,5.4,0c0.5,0,1,0.1,1.5,0.4C153.3,127.5,153.6,128.3,153.5,129.1z"/>
		<path class="st0" d="M170.4,114.8c-5.6,0-10.3,4.5-10.3,10.2c0,5.6,4.6,10.2,10.2,10.2c5.7,0,10.2-4.5,10.2-10.2
			C180.6,119.4,176,114.8,170.4,114.8z M170.4,131c-3.1,0-6-2.5-6-6c0-3.3,2.7-6,6-6c3.2,0,6,2.5,6,6
			C176.4,128.3,173.7,131,170.4,131z"/>
		<path class="st0" d="M75.8,125c0-3.1,0-6.2,0-9.3c0-0.5,0-0.5,0.5-0.5c4.7,0,9.4,0,14.1,0c0.1,0,0.2,0,0.3,0
			c0.2,0,0.3,0.1,0.3,0.3c0,1.1,0,2.1,0,3.2c0,0.2-0.1,0.3-0.3,0.3c-0.1,0-0.3,0-0.4,0c-3.2,0-6.4,0-9.6,0c-0.7,0-0.7-0.1-0.7,0.7
			c0,0.9,0,1.8,0,2.6c0,0.7,0,0.7,0.6,0.7c1.7,0,3.4,0,5,0c1.2,0,2.3,0,3.5,0c0.5,0,0.5,0,0.5,0.5c0,0.9,0,1.8,0,2.8
			c0,0.5,0,0.5-0.5,0.5c-2,0-3.9,0-5.9,0c-0.9,0-1.9,0-2.8,0c-0.4,0-0.5,0-0.5,0.5c0,1.1,0,2.2,0,3.3c0,0.5,0,0.5,0.5,0.5
			c2.6,0,5.3,0,7.9,0c0.7,0,1.5,0,2.2,0c0.3,0,0.5,0,0.5,0.4c0,1,0,2,0,3c0,0.3-0.1,0.4-0.4,0.4c-0.1,0-0.2,0-0.3,0
			c-4.6,0-9.2,0-13.9,0c-0.8,0-0.7,0.1-0.7-0.7C75.8,131.1,75.8,128,75.8,125z"/>
		<path class="st0" d="M121.4,125c0-3,0-6.1,0-9.1c0-0.7-0.1-0.6,0.7-0.6c4.6,0,9.3,0,13.9,0c0.7,0,0.6,0,0.6,0.6c0,0.9,0,1.8,0,2.6
			c0,0.5,0,0.5-0.6,0.5c-3.2,0-6.4,0-9.6,0c-1.1,0-0.9-0.1-0.9,0.9c0,0.8,0,1.7,0,2.5c0,0.5,0,0.5,0.5,0.5c2.8,0,5.5,0,8.3,0
			c1,0,0.8-0.1,0.8,0.8c0,0.8,0,1.7,0,2.5c0,0.4,0,0.4-0.5,0.4c-2.4,0-4.8,0-7.1,0c-0.5,0-1.1,0-1.6,0c-0.4,0-0.5,0-0.5,0.5
			c0,1.1,0,2.2,0,3.3c0,0.5,0,0.5,0.5,0.5c2.6,0,5.3,0,7.9,0c0.7,0,1.5,0,2.2,0c0.3,0,0.5,0.1,0.4,0.4c0,1,0,2,0,3
			c0,0.3-0.1,0.4-0.4,0.4c-0.1,0-0.2,0-0.3,0c-4.6,0-9.2,0-13.8,0c-0.1,0-0.2,0-0.3,0c-0.5,0-0.5,0-0.5-0.5
			C121.4,131.2,121.4,128.1,121.4,125z"/>
		<path class="st0" d="M180.8,115.2c0.5,0,0.8,0,1.2,0c1.1,0,2.2,0,3.3,0c0.5,0,0.8,0.2,1.1,0.6c1.2,1.8,2.4,3.6,3.6,5.4
			c0.1,0.2,0.2,0.3,0.4,0.5c0.3-0.1,0.3-0.3,0.5-0.5c1.2-1.8,2.4-3.6,3.6-5.5c0.2-0.4,0.5-0.5,0.9-0.5c1.3,0,2.6,0,3.8,0
			c0.2,0,0.4,0,0.6,0c0,0.2-0.1,0.3-0.2,0.4c-2,2.9-4,5.8-5.9,8.7c-0.4,0.5-0.4,0.4,0,1c2.1,2.9,4.1,5.9,6.2,8.8
			c0.1,0.2,0.2,0.3,0.3,0.5c-0.1,0.2-0.3,0.1-0.4,0.1c-1.4,0-2.8,0-4.2,0c-0.4,0-0.6-0.1-0.9-0.5c-1.3-1.9-2.6-3.8-3.8-5.6
			c-0.1-0.2-0.2-0.4-0.4-0.5c-0.2,0.1-0.3,0.3-0.4,0.5c-1.3,1.9-2.6,3.8-3.9,5.7c-0.2,0.3-0.4,0.4-0.8,0.4c-1.4,0-2.9,0-4.3,0
			c-0.1,0-0.2,0-0.4-0.1c0-0.2,0.2-0.4,0.3-0.5c2.1-2.9,4.1-5.9,6.2-8.8c0.4-0.5,0.4-0.5,0-1c-2-2.9-4-5.8-6-8.7
			C181,115.5,181,115.4,180.8,115.2z"/>
	</g>
</g>
</svg>
