<?xml version="1.0" encoding="UTF-8"?>
<svg viewBox="0 0 171 63" version="1.1" xmlns="http://www.w3.org/2000/svg" xmlns:xlink="http://www.w3.org/1999/xlink">
    <path d="M71.2484076,18.3177707 C74.553121,19.5781529 76.7425478,21.6744586 76.7425478,21.6744586 C76.7674522,20.6566242 77.0327389,19.6117197 77.4138854,18.7259873 C77.4138854,18.7259873 76.3559873,16.7498726 73.2342675,14.6102548 C69.880828,12.3125478 66.0542038,11.6715287 66.0542038,11.6715287 C65.2735032,13.3661146 64.7201911,15.1852229 64.4310828,17.0898726 C64.4310828,17.0898726 67.2312102,16.7856051 71.2484076,18.3177707" id="Fill-1" fill="#525252"></path>
    <path d="M73.6219108,11.6433758 C76.7750318,14.6925478 77.9152229,17.7579618 77.9152229,17.7579618 C78.4977707,16.8213376 79.2730573,16.0157325 80.1880255,15.3920382 C80.1880255,15.3920382 79.0175159,11.7159236 77.1215287,9.00025478 C75.2255414,6.28566879 72.1536306,4.03127389 72.1536306,4.03127389 C70.653949,5.18770701 69.3199363,6.5466242 68.1927389,8.06471338 C68.1927389,8.06471338 71.3198726,9.41605096 73.6219108,11.6433758" id="Fill-2" fill="#525252"></path>
    <path d="M79.1691083,7.83624204 C80.5929936,11.477707 80.9557325,14.9307643 80.9557325,14.9307643 C81.8901911,14.4370064 83.1061783,14.0547771 84.2171338,13.9649045 C84.2171338,13.9649045 84.2734395,10.4501274 83.4992357,6.83898089 C82.5950955,2.61929936 81.5621019,0 81.5621019,0 C79.6942675,0.286942675 77.9098089,0.825095541 76.2444586,1.57656051 C76.2444586,1.57656051 78.1848408,5.31980892 79.1691083,7.83624204" id="Fill-3" fill="#525252"></path>
    <path d="M98.0033758,18.3177707 C94.6986624,19.5781529 92.5092357,21.6744586 92.5092357,21.6744586 C92.485414,20.6566242 92.2212102,19.6117197 91.8389809,18.7259873 C91.8389809,18.7259873 92.8979618,16.7498726 96.0175159,14.6102548 C99.3709554,12.3125478 103.19758,11.6715287 103.19758,11.6715287 C103.979363,13.3661146 104.532675,15.1852229 104.819618,17.0898726 C104.819618,17.0898726 102.020573,16.7856051 98.0033758,18.3177707" id="Fill-4" fill="#525252"></path>
    <path d="M95.6298726,11.6433758 C92.4778344,14.6925478 91.3376433,17.7579618 91.3376433,17.7579618 C90.7550955,16.8213376 89.9787261,16.0157325 89.0626752,15.3920382 C89.0626752,15.3920382 90.2342675,11.7159236 92.1313376,9.00025478 C94.026242,6.28566879 97.0981529,4.03127389 97.0981529,4.03127389 C98.5978344,5.18770701 99.9329299,6.5466242 101.060127,8.06471338 C101.060127,8.06471338 97.9319108,9.41605096 95.6298726,11.6433758" id="Fill-5" fill="#525252"></path>
    <path d="M90.083758,7.83624204 C88.657707,11.477707 88.296051,14.9307643 88.296051,14.9307643 C87.3615924,14.4370064 86.1466879,14.0547771 85.0346497,13.9649045 C85.0346497,13.9649045 84.9783439,10.4501274 85.751465,6.83898089 C86.6577707,2.61929936 87.6896815,0 87.6896815,0 C89.5585987,0.286942675 91.3430573,0.825095541 93.0084076,1.57656051 C93.0084076,1.57656051 91.0669427,5.31980892 90.083758,7.83624204" id="Fill-6" fill="#525252"></path>
    <path d="M73.9900637,30.7147771 C77.9282166,28.8393631 81.8999363,29.2270064 81.8999363,29.2270064 C80.4912102,28.7029299 79.2719745,27.7966242 78.3721656,26.6347771 C78.3721656,26.6347771 74.8454777,26.2135669 72.1428025,26.7592994 C68.0519745,27.5843949 66.2393631,29.0050318 66.2393631,29.0050318 C67.0709554,30.7126115 68.1342675,32.2880892 69.3903185,33.6892357 C69.3903185,33.6892357 71.0794904,32.1018471 73.9900637,30.7147771" id="Fill-7" fill="#525252"></path>
    <path d="M70.9289809,24.7788535 C74.9440127,24.5850318 77.7138217,25.6342675 77.7138217,25.6342675 C77.2157325,24.7366242 76.8898089,23.733949 76.7804459,22.6663057 C76.7804459,22.6663057 73.5915924,20.8493631 70.6517834,20.4552229 C66.5826115,19.9094904 64.2101911,20.6912739 64.2101911,20.6912739 C64.2621656,22.6186624 64.5826752,24.4789172 65.1359873,26.2373885 C65.1359873,26.2373885 67.7433758,24.9315287 70.9289809,24.7788535" id="Fill-8" fill="#525252"></path>
    <path d="M84.6253503,33.7899363 C90.3728662,33.7899363 92.8882166,38.7643312 92.8882166,38.7643312 C94.6802548,37.9684713 96.3358599,36.9257325 97.8117197,35.6794268 C97.8117197,35.6794268 92.9553503,29.5724204 84.6253503,29.5724204 C76.2964331,29.5724204 71.4411465,35.6794268 71.4411465,35.6794268 C72.9170064,36.9257325 74.5726115,37.9684713 76.3646497,38.7643312 C76.3646497,38.7643312 78.8789172,33.7899363 84.6253503,33.7899363" id="Fill-9" fill="#525252"></path>
    <path d="M95.2617197,30.7147771 C91.3235669,28.8393631 87.3507643,29.2270064 87.3507643,29.2270064 C88.7616561,28.7029299 89.9808917,27.7966242 90.8796178,26.6347771 C90.8796178,26.6347771 94.4063057,26.2135669 97.1089809,26.7592994 C101.199809,27.5843949 103.013503,29.0050318 103.013503,29.0050318 C102.181911,30.7126115 101.117516,32.2880892 99.8603822,33.6892357 C99.8603822,33.6892357 98.1733758,32.1018471 95.2617197,30.7147771" id="Fill-10" fill="#525252"></path>
    <path d="M98.3228025,24.7788535 C94.3066879,24.5850318 91.5390446,25.6342675 91.5390446,25.6342675 C92.0371338,24.7366242 92.3608917,23.733949 92.4713376,22.6663057 C92.4713376,22.6663057 95.6601911,20.8493631 98.6,20.4552229 C102.669172,19.9094904 105.041592,20.6912739 105.041592,20.6912739 C104.989618,22.6186624 104.670191,24.4789172 104.115796,26.2373885 C104.115796,26.2373885 101.508408,24.9315287 98.3228025,24.7788535" id="Fill-11" fill="#525252"></path>
    <path d="M4.00095541,46.4543949 L4.00095541,53.7286624 L7.06961783,53.7286624 C10.3212739,53.7286624 11.7310828,52.4563694 11.7310828,50.0915287 C11.7310828,47.7266879 10.3440127,46.4543949 7.06961783,46.4543949 L4.00095541,46.4543949 Z M4.00095541,60.2092357 L6.11566879,60.2092357 L6.11566879,61.8680892 L1.77635684e-15,61.8680892 L1.77635684e-15,60.2092357 L2.11363057,60.2092357 L2.11363057,46.3861783 L1.77635684e-15,46.3861783 L1.77635684e-15,44.726242 L7.06961783,44.726242 C10.9807006,44.726242 13.6173248,46.4305732 13.6173248,50.0915287 C13.6173248,53.7524841 10.9579618,55.4568153 7.06961783,55.4568153 L4.00095541,55.4568153 L4.00095541,60.2092357 L4.00095541,60.2092357 Z" id="Fill-12" fill="#525252"></path>
    <path d="M25.0105732,55.0702548 C25.0333121,52.7519745 23.2824204,50.9772611 20.9403185,50.9772611 C18.5992994,50.9772611 16.8484076,52.7519745 16.8711465,55.0702548 L25.0105732,55.0702548 Z M26.4658599,58.3673885 C25.9201274,60.503758 23.9191083,62.1409554 20.9403185,62.1409554 C17.257707,62.1409554 15.0065605,59.8215924 15.0065605,55.7296815 C15.0065605,51.8424204 17.3486624,49.3184076 20.9403185,49.3184076 C24.8286624,49.3184076 27.3061146,52.2971975 26.8058599,56.7063694 L16.8938854,56.7063694 C17.0530573,58.5936943 18.3719108,60.4821019 20.9403185,60.4821019 C22.6457325,60.4821019 23.8963694,59.7761146 24.5330573,58.3673885 L26.4658599,58.3673885 L26.4658599,58.3673885 Z" id="Fill-13" fill="#525252"></path>
    <path d="M33.083949,60.2763694 L35.0384076,60.2763694 L35.0384076,61.8680892 L29.3092994,61.8680892 L29.3092994,60.2763694 L31.2648408,60.2763694 L31.2648408,51.1829936 L29.3092994,51.1829936 L29.3092994,49.5912739 L32.9475159,49.5912739 L32.9475159,51.3410828 C33.6751592,50.0233121 35.4704459,48.795414 37.8807643,49.6140127 L37.8807643,51.3876433 C34.9929299,50.5690446 33.083949,52.1596815 33.083949,54.9792994 L33.083949,60.2763694" id="Fill-14" fill="#525252"></path>
    <path d="M52.2278981,60.2763694 L54.1834395,60.2763694 L54.1834395,61.8680892 L48.4543312,61.8680892 L48.4543312,60.2763694 L50.4087898,60.2763694 L50.4087898,55.0929936 C50.4087898,52.206242 48.6817197,51.0010828 46.7943949,51.0010828 C44.9070701,51.0010828 43.2926115,52.3199363 43.2926115,55.2077707 L43.2926115,60.2763694 L45.2481529,60.2763694 L45.2481529,61.8680892 L39.5190446,61.8680892 L39.5190446,60.2763694 L41.474586,60.2763694 L41.474586,51.1829936 L39.5190446,51.1829936 L39.5190446,49.5912739 L43.1561783,49.5912739 L43.1561783,51.3410828 C43.8156051,50.3189172 45.225414,49.3411465 47.1354777,49.3411465 C49.8403185,49.3411465 52.2278981,50.8863057 52.2278981,55.0929936 L52.2278981,60.2763694" id="Fill-15" fill="#525252"></path>
    <path d="M61.8020382,60.4821019 C64.1896178,60.4821019 65.9632484,58.7983439 65.9632484,55.7296815 C65.9632484,52.6610191 64.1896178,50.9772611 61.8020382,50.9772611 C59.4155414,50.9772611 57.6419108,52.6610191 57.6419108,55.7296815 C57.6419108,58.7983439 59.4155414,60.4821019 61.8020382,60.4821019 Z M61.8020382,49.3184076 C65.5766879,49.3184076 67.7812739,52.0243312 67.7812739,55.7296815 C67.7812739,59.4350318 65.5766879,62.1409554 61.8020382,62.1409554 C58.0284713,62.1409554 55.8228025,59.4350318 55.8228025,55.7296815 C55.8228025,52.0243312 58.0284713,49.3184076 61.8020382,49.3184076 L61.8020382,49.3184076 Z" id="Fill-16" fill="#525252"></path>
    <path d="M71.7854777,55.7296815 C71.7854777,58.8449045 73.6273248,60.4821019 75.9001274,60.4821019 C78.1740127,60.4821019 80.0158599,58.8449045 80.0158599,55.7296815 C80.0158599,52.6144586 78.1740127,50.9772611 75.9001274,50.9772611 C73.6273248,50.9772611 71.7854777,52.6144586 71.7854777,55.7296815 Z M81.7656688,60.2763694 L83.7212102,60.2763694 L83.7212102,61.8680892 L80.0158599,61.8680892 L80.0158599,60.1182803 C79.2882166,61.2097452 77.6964968,62.1409554 75.7409554,62.1409554 C72.2402548,62.1409554 69.9663694,59.3906369 69.9663694,55.7296815 C69.9663694,52.0687261 72.2402548,49.3184076 75.7409554,49.3184076 C77.5828025,49.3184076 79.1972611,50.1370064 79.9476433,51.3410828 L79.9476433,46.2952229 L77.9921019,46.2952229 L77.9921019,44.7024204 L81.7656688,44.7024204 L81.7656688,60.2763694 L81.7656688,60.2763694 Z" id="Fill-17" fill="#525252"></path>
    <path d="M95.9330573,46.4543949 L95.9330573,52.8191083 L99.9578344,52.8191083 C102.527325,52.8191083 103.640446,51.5468153 103.640446,49.6367516 C103.640446,47.7266879 102.550064,46.4543949 99.9578344,46.4543949 L95.9330573,46.4543949 Z M91.9093631,44.7024204 L99.9578344,44.7024204 C103.185669,44.7024204 105.55051,46.4305732 105.55051,49.6367516 C105.55051,52.365414 103.822357,54.0253503 101.322166,54.4563057 L104.117962,60.185414 L106.346369,60.185414 L106.346369,61.8680892 L102.777452,61.8680892 L99.2540127,54.5710828 L95.9330573,54.5710828 L95.9330573,60.2092357 L97.8203822,60.2092357 L97.8203822,61.8680892 L91.9093631,61.8680892 L91.9093631,60.2092357 L94.0240764,60.2092357 L94.0240764,46.3634395 L91.9093631,46.3634395 L91.9093631,44.7024204 L91.9093631,44.7024204 Z" id="Fill-18" fill="#525252"></path>
    <path d="M110.305096,46.9990446 L112.374331,46.9990446 L112.374331,44.7024204 L110.305096,44.7024204 L110.305096,46.9990446 Z M112.35051,60.2763694 L114.306051,60.2763694 L114.306051,61.8680892 L108.576943,61.8680892 L108.576943,60.2763694 L110.532484,60.2763694 L110.532484,51.1829936 L108.576943,51.1829936 L108.576943,49.5912739 L112.35051,49.5912739 L112.35051,60.2763694 L112.35051,60.2763694 Z" id="Fill-19" fill="#525252"></path>
    <path d="M127.925541,57.3896178 C127.220637,60.185414 125.334395,62.1409554 121.992866,62.1409554 C118.217134,62.1409554 116.012548,59.4350318 116.012548,55.7296815 C116.012548,52.0243312 118.217134,49.3184076 121.992866,49.3184076 C123.742675,49.3184076 125.334395,50.1586624 126.060955,51.3410828 L126.060955,49.5912739 L127.81293,49.5912739 L127.81293,54.0697452 L125.833567,54.0697452 C125.288917,52.4108917 124.174713,50.9772611 121.992866,50.9772611 C119.605287,50.9772611 117.831656,52.6610191 117.831656,55.7296815 C117.831656,58.7983439 119.605287,60.4821019 121.992866,60.4821019 C124.061019,60.4821019 125.470828,59.2303822 126.038217,57.3896178 L127.925541,57.3896178" id="Fill-20" fill="#525252"></path>
    <path d="M131.928662,55.7296815 C131.928662,58.8449045 133.77051,60.4821019 136.043312,60.4821019 C138.317197,60.4821019 140.159045,58.8449045 140.159045,55.7296815 C140.159045,52.6144586 138.317197,50.9772611 136.043312,50.9772611 C133.77051,50.9772611 131.928662,52.6144586 131.928662,55.7296815 Z M140.090828,49.5912739 L143.796178,49.5912739 L143.796178,51.1829936 L141.84172,51.1829936 L141.84172,60.2763694 L143.796178,60.2763694 L143.796178,61.8680892 L140.090828,61.8680892 L140.090828,60.1182803 C139.340446,61.3223567 137.72707,62.1409554 135.885223,62.1409554 C132.383439,62.1409554 130.110637,59.3906369 130.110637,55.7296815 C130.110637,52.0687261 132.383439,49.3184076 135.885223,49.3184076 C137.72707,49.3184076 139.340446,50.1370064 140.090828,51.3410828 L140.090828,49.5912739 L140.090828,49.5912739 Z" id="Fill-21" fill="#525252"></path>
    <path d="M150.210701,60.2763694 L152.165159,60.2763694 L152.165159,61.8680892 L146.436051,61.8680892 L146.436051,60.2763694 L148.391592,60.2763694 L148.391592,51.1829936 L146.436051,51.1829936 L146.436051,49.5912739 L150.073185,49.5912739 L150.073185,51.3410828 C150.800828,50.0233121 152.597197,48.795414 155.007516,49.6140127 L155.007516,51.3876433 C152.120764,50.5690446 150.210701,52.1596815 150.210701,54.9792994 L150.210701,60.2763694" id="Fill-22" fill="#525252"></path>
    <path d="M157.76,55.7296815 C157.76,58.8449045 159.600764,60.4821019 161.87465,60.4821019 C164.147452,60.4821019 165.989299,58.8449045 165.989299,55.7296815 C165.989299,52.6144586 164.147452,50.9772611 161.87465,50.9772611 C159.600764,50.9772611 157.76,52.6144586 157.76,55.7296815 Z M167.741274,60.2763694 L169.69465,60.2763694 L169.69465,61.8680892 L165.989299,61.8680892 L165.989299,60.1182803 C165.262739,61.2097452 163.671019,62.1409554 161.715478,62.1409554 C158.214777,62.1409554 155.940892,59.3906369 155.940892,55.7296815 C155.940892,52.0687261 158.214777,49.3184076 161.715478,49.3184076 C163.557325,49.3184076 165.171783,50.1370064 165.922166,51.3410828 L165.922166,46.2952229 L163.965541,46.2952229 L163.965541,44.7024204 L167.741274,44.7024204 L167.741274,60.2763694 L167.741274,60.2763694 Z" id="Fill-23" fill="#525252"></path>
</svg>
