<svg class="header-logo pru-logo" viewBox="0 0 170 40" xmlns="http://www.w3.org/2000/svg"><path fill="#525252" d="M57.062 22.73H55.7v5.592c0 .754.15 1.235.475 1.456.263.196.725.288 1.374.288h.638v.741H49.59v-.741h.737c.737 0 1.237-.118 1.512-.34.275-.245.412-.714.412-1.404V14.927c0-.922-.2-1.507-.6-1.73-.25-.116-.75-.18-1.524-.18h-.537V12.3l7.471-.013c2.112 0 3.76.39 4.985 1.17 1.412.898 2.124 2.263 2.124 4.096 0 1.744-.7 3.068-2.111 3.966-1.237.807-2.911 1.21-4.998 1.21zm3.56-5.162c0-2.98-1.186-4.474-3.56-4.474H55.75v8.792h1.312c2.374-.002 3.56-1.445 3.56-4.318zm14.756 1.795c0 .428-.137.792-.437 1.105-.313.325-.712.494-1.225.48-.45-.013-.812-.142-1.1-.389-.299-.261-.424-.519-.424-.806 0-.287.038-.508.125-.715h-.025c-.562.48-1 1.534-1.287 3.198a20.246 20.246 0 00-.312 3.576v1.95c0 1.015.087 1.626.262 1.875.163.244.575.363 1.212.363h1.224v.806h-8.595V30h.812c.812 0 1.312-.157 1.512-.467.187-.314.274-.925.25-1.81v-4.941c0-1.82-.075-2.915-.25-3.279-.175-.376-.6-.546-1.275-.546h-.287v-.82h4.623l.137 3.239h.037c.063-.91.35-1.717.825-2.394.6-.82 1.387-1.22 2.349-1.22 1.237.003 1.849.534 1.849 1.6zM90.32 30.807h-4.81l-.05-1.965c-.037.052-.037.052-.037 0-.187.572-.587 1.094-1.2 1.548-.712.532-1.499.792-2.373.792-1.412 0-2.437-.403-3.024-1.182-.487-.638-.724-1.626-.724-2.94v-5.463c0-1.389-.063-2.185-.175-2.364-.113-.185-.425-.275-.925-.275h-.175v-.819h4.635v9.26c0 1.391.55 2.092 1.65 2.092.974 0 1.611-.623 1.924-1.899.112-.428.175-1.105.175-2.041v-3.954c0-1.364-.075-2.133-.225-2.289-.2-.244-.663-.35-1.362-.35h-.275v-.82h5.172v9.622c0 .95.1 1.56.313 1.86.175.247.5.378 1 .378h.486v.81zm14.206 0h-4.873l-.05-1.965c-.15.535-.524 1.028-1.087 1.484a3.825 3.825 0 01-2.46.857c-1.838 0-3.187-.728-4.049-2.21-.7-1.157-1.037-2.667-1.037-4.512 0-1.705.45-3.2 1.374-4.501 1.037-1.457 2.412-2.195 4.136-2.195 1.45 0 2.399.427 2.836 1.273v-3.942c0-.82-.138-1.364-.425-1.626-.225-.234-.65-.35-1.25-.35h-.224v-.819l5.222-.39v16.464c0 .716.113 1.159.338 1.351.224.184.624.275 1.199.275h.35v.806zm-5.21-5.137v-2.615c0-2.82-.762-4.227-2.274-4.227-1.55 0-2.336 1.886-2.336 5.633 0 3.511.75 5.265 2.261 5.265.862 0 1.462-.413 1.824-1.26.35-.833.525-1.755.525-2.796zm17.266-1.614h-7.908c-.038.948.025 1.912.2 2.861.374 2.107 1.286 3.174 2.748 3.174 1.137 0 2.087-.43 2.811-1.29.6-.714.9-1.493.9-2.327h1.074c0 1.08-.437 2.094-1.324 3.044-1.024 1.106-2.336 1.664-3.923 1.664-1.974 0-3.51-.636-4.598-1.91-1-1.197-1.499-2.798-1.499-4.813 0-1.965.575-3.576 1.737-4.837 1.137-1.236 2.536-1.86 4.248-1.86 1.886 0 3.298.623 4.247 1.86.862 1.106 1.287 2.576 1.287 4.434zm-3.41-.871c.062-3.146-.663-4.72-2.162-4.72-.95 0-1.612.636-1.961 1.884-.188.598-.288 1.548-.338 2.836h4.46zm18.19 7.622h-5.122V21.38c0-1.328-.55-1.989-1.637-1.989-.624 0-1.124.298-1.499.908-.387.625-.575 1.537-.575 2.757v4.67c0 1.117.063 1.756.2 1.897.225.248.625.379 1.225.379h.374v.806h-6.934v-.806h.4c.562 0 .975-.131 1.2-.379.137-.141.2-.78.2-1.897v-6.502c0-1.067-.063-1.691-.225-1.9-.188-.235-.55-.363-1.062-.363h-.513v-.82h4.848l.062 1.989h.013c.6-1.585 1.799-2.364 3.598-2.364 1.387 0 2.374.375 2.924 1.128.487.639.724 1.68.724 3.11v5.761c0 1.029.075 1.653.225 1.86.175.247.512.378 1.05.378h.524v.805zm9.17-4.708c0 1.677-.162 2.848-.462 3.499-.5 1.053-1.549 1.585-3.136 1.585-2.136 0-3.198-1.182-3.198-3.536v-8.663h-2.286v-.844h.212c1.337 0 2.461-.728 3.373-2.196.775-1.223 1.175-2.446 1.175-3.642h.837v5.838h2.561v.844h-2.511v9.066c0 1.145.35 1.717 1.062 1.717.362 0 .65-.17.874-.494.338-.482.488-1.536.488-3.174h1.012zm7.884 4.708h-6.846v-.806h.4c.537 0 .887-.118 1.049-.363.175-.248.262-.887.262-1.925v-6.79c0-.884-.137-1.444-.4-1.664-.212-.17-.65-.275-1.286-.275h-.275v-.844h5.322v9.572c0 1.053.075 1.69.237 1.91.188.248.525.379 1.037.379h.5v.806zm-1.487-16.686c0 .561-.2 1.054-.612 1.443-.4.418-.887.613-1.461.613-.563 0-1.05-.194-1.462-.613a1.92 1.92 0 01-.612-1.443c0-.56.2-1.04.612-1.443.412-.39.9-.585 1.462-.585.574 0 1.061.195 1.461.585.413.403.612.883.612 1.443zm14.03 16.686h-4.584a23.1 23.1 0 00-.05-2.056c-.126.572-.539 1.094-1.237 1.601-.762.56-1.574.831-2.435.831-1.287 0-2.275-.39-2.962-1.144-.538-.623-.8-1.313-.8-2.12 0-1.377.675-2.458 2.038-3.224 1.023-.584 2.747-1.119 5.16-1.587v-2.146c0-1.534-.862-2.303-2.563-2.303-.612 0-1.186.145-1.724.444-.488.26-.775.532-.873.806v.05c.148-.206.41-.324.798-.324 1.063 0 1.6.494 1.6 1.47 0 .39-.176.74-.524 1.066a1.888 1.888 0 01-1.288.48c-.499 0-.937-.155-1.298-.454-.413-.353-.613-.834-.613-1.443 0-.871.461-1.588 1.375-2.16.91-.559 2.061-.83 3.423-.83 3.323 0 4.997 1.453 4.997 4.38v6.217c0 .728.113 1.182.349 1.364.239.184.551.275.937.275h.276v.807h-.001zm-4.87-4.864v-2.017c-1.338.26-2.276.585-2.8 1.015-.636.52-.962 1.365-.962 2.51 0 .69.15 1.222.476 1.625.26.366.636.546 1.062.546.787 0 1.398-.39 1.811-1.156.261-.52.413-1.354.413-2.523zm12.68 4.058v.806h-6.586v-.806h.162c.426 0 .764-.091.989-.275.225-.192.337-.635.337-1.35v-13.28c0-.82-.125-1.351-.389-1.598-.248-.26-.598-.376-1.023-.376h-.487v-.82l5.222-.391v16.464c0 .716.125 1.159.349 1.351.226.184.638.275 1.213.275h.212zM28.25 11.082l-8.763-5.07-3.19-.575v2.319l2.468 2.278-3.406-.313c.026.079 1 1.139 2.95 3.184l12.903 2.148 2.28 1.482-5.914.3-2.418 8.883-7.99 5.332h-5.217l1.748-3.472-.279-.12-4.685 3.592H7.61l4.799-6.762c.05-.458.177-1.965.38-4.505l-.722-1.022-1.925 7.452L6.13 31.05H5.103l2.38-3.367 3.33-10.245-.784.43-1.507 4.036-1.013.566-3.647 8.62C1.279 27.407 0 23.332 0 18.877 0 14.004 1.798 9.72 5.407 5.973 9.269 2.003 14.03 0 19.702 0c5.09 0 9.472 1.716 13.131 5.121 2.9 2.7 4.698 5.583 5.369 8.663l-9.953-2.702zm7.913.88c-1.19-3.027-3.241-5.542-6.166-7.534-3.102-2.123-6.534-3.172-10.295-3.172-5.28 0-9.737 1.862-13.346 5.596-3.33 3.511-4.988 7.506-4.988 12.027 0 3.445.823 6.655 2.481 9.603L8.775 15.29c1.038-.538 1.545-.761 1.545-.681l2.203-5.594 1.405-.76 1.773-3.71 3.862.605 7.787 4.35 8.813 2.462zm-1.658 20.005c-1.697 2.16-3.926 3.864-6.699 5.095a19.617 19.617 0 01-8.205 1.783c-6.217 0-11.193-2.293-14.954-6.878h29.858zm-6.167-6.25L25.49 31.05h-2.71l5.027-6.315.532.983zm7.268-5.672l-1.823 4.243-1.659 1.43-3.292 5.332h-2.165l2.165-3.814 1.697-1.402 2.456-6.85 2.621 1.06zM32.34 18.76l-2.38 4.466-1.279.224.33-2.608-.33-.536.33-2.91 3.33 1.364zm6.585 2.424c-.24 3.55-1.456 6.837-3.634 9.865h-4.343l4.115-6.539 1.266-4.23 2.596.904z"/></svg>