<?xml version="1.0" encoding="UTF-8"?>
<svg viewBox="0 0 304 69" version="1.1" xmlns="http://www.w3.org/2000/svg" xmlns:xlink="http://www.w3.org/1999/xlink">
  <path fill="#525252" d="M25.1089266,45.743 C16.2439266,45.743 18.5639266,35.504 19.7949266,29.185 C20.9889266,23.022 22.7129266,12.869 31.2499266,12.869 C35.4749266,12.869 37.0439266,15.447 37.3119266,19.199 C37.4769266,22.598 36.8219266,27.272 36.1549266,30.685 C34.9919266,36.67 33.1429266,45.743 25.1089266,45.743 M0.697926607,29.592 C-2.29807339,44.988 4.33892661,58.692 20.8549266,58.692 C23.3329266,58.692 25.7869266,58.441 28.3189266,57.779 C28.6489266,65.451 32.6769266,68.203 40.3819266,68.203 L47.3359266,67.785 L49.8629266,54.813 C48.2889266,55.223 46.7479266,55.473 45.1739266,55.473 C43.0999266,55.473 40.1939266,55.062 40.2649266,52.565 C48.6629266,47.746 53.5239266,38.121 55.1679266,29.64 C58.4299266,12.869 51.3969266,-1.42108547e-14 33.8199266,-1.42108547e-14 C25.5169266,-1.42108547e-14 18.4189266,2.329 11.6859266,8.804 C5.70192661,14.532 2.15392661,22.109 0.697926607,29.592" id="Fill-1"></path>
  <path fill="#525252" d="M79.0929266,57.841 L80.4309266,50.938 L80.2669266,50.938 C77.4719266,56.414 71.4279266,58.705 65.9669266,58.705 C62.4789266,58.705 59.2349266,57.902 57.1349266,55.473 C54.7309266,52.479 55.1219266,48.747 55.8979266,44.75 L61.5939266,15.465 L78.0189266,15.465 L73.0389266,41.098 C72.5119266,43.841 71.8519266,46.75 75.5849266,46.75 C77.2319266,46.75 78.9789266,45.83 80.0139266,44.339 C81.0339266,42.926 81.4049266,41.436 81.7089266,39.85 L86.4509266,15.465 L102.878927,15.465 L94.6509266,57.841 L79.0929266,57.841" id="Fill-3"></path>
  <path fill="#525252" d="M115.597927,57.841 L99.1599266,57.841 L107.398927,15.465 L123.824927,15.465 L115.597927,57.841 Z M124.645927,11.248 L108.217927,11.248 L110.401927,3.55271368e-15 L126.831927,3.55271368e-15 L124.645927,11.248 L124.645927,11.248 Z" id="Fill-4"></path>
  <path fill="#525252" d="M164.036927,41.89 C160.407927,52.874 151.469927,58.692 140.672927,58.692 C134.536927,58.692 129.835927,57.282 126.214927,52.874 C122.747927,48.539 121.864927,42.809 123.045927,36.751 C125.531927,23.967 136.140927,14.601 149.168927,14.601 C159.628927,14.601 166.734927,20.733 165.914927,31.348 L151.145927,32.595 L151.142927,32.169 C151.123927,29.271 151.111927,25.953 147.455927,25.953 C142.222927,25.953 140.884927,32.846 140.163927,36.58 C139.385927,40.562 138.208927,47.039 143.604927,47.039 C147.176927,47.039 149.137927,43.798 150.142927,40.729 L164.036927,41.89" id="Fill-5"></path>
  <polyline fill="#525252" id="Fill-6" points="201.153927 30.047 210.031927 57.841 192.846927 57.841 188.171927 40.852 182.988927 46.162 180.717927 57.841 164.294927 57.841 175.366927 0.872 191.796927 0.872 185.814927 31.624 190.301927 26.891 202.485927 15.465 216.772927 15.465 201.153927 30.047"></polyline>
  <path fill="#525252" d="M229.061927,31.587 C229.647927,27.708 232.049927,24.326 236.364927,24.326 C241.019927,24.326 241.735927,27.463 240.932927,31.587 L229.061927,31.587 Z M239.858927,42.636 C238.484927,46.298 236.120927,47.794 232.388927,47.794 C227.402927,47.794 226.388927,44.468 227.524927,39.889 L255.916927,39.889 L256.354927,37.647 C259.054927,23.742 252.198927,14.613 238.087927,14.613 C232.024927,14.613 225.146927,16.688 219.960927,21.167 C215.186927,25.228 211.746927,31.42 210.622927,37.151 C209.450927,43.22 210.724927,49.045 214.498927,53.116 C218.477927,57.361 224.282927,58.692 230.511927,58.692 C240.561927,58.692 250.617927,53.955 255.196927,43.638 L239.858927,42.636 L239.858927,42.636 Z" id="Fill-7"></path>
  <path fill="#525252" d="M280.128927,15.465 L278.985927,21.365 L279.152927,21.365 C282.090927,16.552 287.399927,14.601 292.560927,14.601 C296.543927,14.601 300.886927,15.735 302.732927,19.054 C304.707927,22.549 303.768927,27.376 302.911927,31.766 L297.846927,57.841 L281.421927,57.841 L286.404927,32.188 C286.899927,29.606 287.595927,26.049 284.040927,26.049 C279.469927,26.049 278.300927,29.948 277.636927,33.368 L272.884927,57.841 L256.438927,57.841 L264.683927,15.465 L280.128927,15.465" id="Fill-8"></path>
</svg>
