<?xml version="1.0" encoding="UTF-8"?>
<svg width="169px" height="34px" viewBox="0 0 169 34" version="1.1" xmlns="http://www.w3.org/2000/svg" xmlns:xlink="http://www.w3.org/1999/xlink">
    <!-- Generator: Sketch 57.1 (83088) - https://sketch.com -->
    <title>reebok-logo</title>
    <desc>Created with Sketch.</desc>
    <g id="Page-1" stroke="none" stroke-width="1" fill="none" fill-rule="evenodd">
        <g id="reebok-logo" fill="#525252" fill-rule="nonzero">
            <path d="M12.1035477,22.6353591 C15.2699557,26.1856354 18.2864745,29.5480663 21.4528825,33.079558 C19.2982262,33.079558 17.3496674,33.0983425 15.4011086,33.0607735 C15.1762749,33.0607735 14.9327051,32.760221 14.7453437,32.5535912 C11.7288248,29.1911602 8.71230599,25.8287293 5.69578714,22.4662983 C5.52716186,22.278453 5.33980044,22.0906077 5.04002217,21.7712707 C5.04002217,25.6033149 5.04002217,29.2850829 5.04002217,33.0232044 C3.33503326,33.0232044 1.7424612,33.0232044 0.112416851,33.0232044 C0.112416851,24.5701657 0.112416851,16.1546961 0.112416851,7.64530387 C0.48713969,7.62651934 0.805654102,7.60773481 1.12416851,7.60773481 C4.59035477,7.62651934 8.07527716,7.57016575 11.5414634,7.70165746 C13.0216186,7.75801105 14.5579823,7.98342541 15.9631929,8.43425414 C19.9165188,9.73038674 21.1343681,12.9801105 20.7034368,16.4176796 C20.2350333,20.2121547 17.424612,22.6165746 13.5837029,22.6541436 C13.1715078,22.6353591 12.7780488,22.6353591 12.1035477,22.6353591 Z M5.04002217,19.0475138 C6.89490022,19.0475138 8.71230599,19.0662983 10.5297118,19.0475138 C11.5414634,19.0287293 12.5532151,19.0099448 13.5462306,18.840884 C15.2699557,18.5403315 16.0943459,17.5823204 16.244235,15.8353591 C16.375388,14.2574586 15.6072062,13.0364641 14.0708426,12.4729282 C13.4525499,12.2475138 12.7780488,12.078453 12.14102,12.0596685 C10.0050998,11.9845304 7.8691796,11.9845304 5.73325942,11.9657459 C5.50842572,11.9657459 5.30232816,12.0220994 5.07749446,12.0596685 C5.04002217,14.3701657 5.04002217,16.6618785 5.04002217,19.0475138 Z" id="Shape"></path>
            <path d="M63.8340355,7.75801105 C65.4640798,7.75801105 67.0191796,7.75801105 68.6492239,7.75801105 C68.6492239,9.82430939 68.6492239,11.8718232 68.6492239,13.7878453 C69.9607539,13.4497238 71.1786031,12.9801105 72.4339246,12.8486188 C76.8931264,12.4165746 81.071286,14.7082873 81.727051,19.3292818 C82.0830377,21.9403315 82.0643016,24.6828729 81.727051,27.2939227 C81.2586475,30.9944751 78.2608647,33.4552486 74.5136364,33.7745856 C71.8905765,34 69.3799335,33.7745856 67.1315965,32.1779006 C66.9254989,32.0276243 66.4570953,32.1966851 66.1385809,32.3281768 C65.3891353,32.6287293 64.6771619,33.0044199 63.8152993,33.4176796 C63.8340355,24.6828729 63.8340355,16.2486188 63.8340355,7.75801105 Z M77.0617517,23.2552486 C77.0617517,23.2552486 77.0617517,23.2552486 77.0617517,23.2552486 C77.0617517,22.3348066 77.0992239,21.3955801 77.0430155,20.4751381 C76.9493348,19.0662983 76.2186253,18.0143646 74.9070953,17.4696133 C73.539357,16.8872928 72.1341463,16.9060773 70.7851441,17.4883978 C69.5298226,18.0143646 68.7803769,19.0099448 68.7241685,20.3624309 C68.6304878,22.3348066 68.6304878,24.3071823 68.7054324,26.2607735 C68.7616408,27.6508287 69.5298226,28.6464088 70.8226164,29.1723757 C72.0779379,29.6983425 73.3519956,29.7546961 74.6260532,29.2850829 C76.1436807,28.7403315 76.968071,27.6320442 77.0617517,26.0353591 C77.0992239,25.1149171 77.0617517,24.1944751 77.0617517,23.2552486 Z" id="Shape"></path>
            <path d="M105.390798,7.8519337 C107.002106,7.8519337 108.557206,7.8519337 110.205987,7.8519337 C110.205987,12.3977901 110.205987,16.9060773 110.205987,21.3955801 C110.262195,21.4143646 110.33714,21.4519337 110.393348,21.4707182 C110.599446,21.2453039 110.805543,21.0198895 110.992905,20.7944751 C113.185033,18.2961326 115.395898,15.7790055 117.588027,13.2994475 C117.775388,13.0928177 118.037694,12.8298343 118.262528,12.8110497 C120.136142,12.7734807 122.009756,12.7922652 124.12694,12.7922652 C121.054213,16.2674033 118.150111,19.5546961 115.227273,22.879558 C118.3,26.2983425 121.353991,29.6983425 124.539135,33.2486188 C122.421951,33.2486188 120.529601,33.2674033 118.618514,33.2298343 C118.374945,33.2298343 118.093902,32.9104972 117.887805,32.6850829 C115.583259,30.1303867 113.278714,27.5569061 110.974169,24.9834254 C110.786807,24.7767956 110.618182,24.5325967 110.449557,24.3071823 C110.374612,24.3447514 110.299667,24.3823204 110.224723,24.4198895 C110.224723,27.3314917 110.224723,30.2243094 110.224723,33.1734807 C108.557206,33.1734807 107.002106,33.1734807 105.390798,33.1734807 C105.390798,24.7955801 105.390798,16.3801105 105.390798,7.8519337 Z" id="Path"></path>
            <path d="M27.1111973,24.5513812 C26.7552106,27.4254144 27.9355876,29.1160221 30.6148559,29.4541436 C31.7390244,29.5856354 32.9006652,29.4353591 34.0248337,29.2662983 C34.8117517,29.1348066 35.3925721,28.5712707 35.7110865,27.7823204 C35.8047672,27.5756906 36.0670732,27.3127072 36.2731707,27.2939227 C37.5659645,27.2563536 38.8587583,27.2751381 40.2452328,27.2751381 C40.0953437,29.4541436 39.2709534,31.1823204 37.49102,32.2906077 C36.6104213,32.8353591 35.5611973,33.2298343 34.5494457,33.4552486 C32.3198448,33.9436464 30.0715078,33.9624309 27.8793792,33.2298343 C24.6567627,32.1403315 22.6145233,29.9425414 22.2960089,26.5049724 C22.0899113,24.2883978 22.0711752,22.0342541 22.314745,19.8176796 C22.7269401,15.7226519 25.5748337,13.1303867 29.7342572,12.7359116 C31.5329268,12.5668508 33.3128603,12.641989 35.0365854,13.2430939 C38.0718404,14.2950276 39.9267184,16.398895 40.263969,19.6298343 C40.4325942,21.2265193 40.3014412,22.841989 40.3014412,24.5513812 C35.917184,24.5513812 31.5329268,24.5513812 27.1111973,24.5513812 Z M35.4862528,20.9823204 C35.7298226,19.1977901 34.9054324,17.6950276 33.3128603,17.1314917 C32.0013304,16.6430939 30.6523282,16.6430939 29.3220621,17.0939227 C27.6920177,17.6574586 26.8301552,19.1790055 27.1299335,20.9823204 C29.9028825,20.9823204 32.6945676,20.9823204 35.4862528,20.9823204 Z" id="Shape"></path>
            <path d="M60.9111973,24.6077348 C56.5644124,24.6077348 52.1988914,24.6077348 47.8521064,24.6077348 C47.2900222,26.5801105 48.3392461,28.6651934 50.1941242,29.2662983 C51.5993348,29.7171271 53.0420177,29.7546961 54.4659645,29.3977901 C55.3278271,29.1723757 56.0398004,28.7027624 56.3957871,27.801105 C56.4707317,27.5944751 56.77051,27.3502762 56.9766075,27.3502762 C58.2506652,27.3127072 59.5059867,27.3314917 60.9299335,27.3314917 C60.8362528,27.8574586 60.7987805,28.2895028 60.6863636,28.721547 C60.2741685,30.3745856 59.3186253,31.6143646 57.8946785,32.5348066 C55.3840355,34.1314917 49.1449002,34.5259669 45.9222838,31.9524862 C44.1236142,30.5248619 43.036918,28.6651934 42.905765,26.3922652 C42.774612,24.2508287 42.7184035,22.0906077 42.9245011,19.9679558 C43.3741685,15.7038674 46.3344789,13.0364641 50.6812639,12.7546961 C52.5174058,12.641989 54.3160754,12.7359116 56.0585366,13.4309392 C58.7378049,14.5016575 60.4802661,16.4176796 60.8549889,19.3104972 C61.0798226,21.001105 60.9111973,22.7668508 60.9111973,24.6077348 Z M56.1522173,21.0198895 C56.4519956,19.2729282 55.6276053,17.7701657 54.0162971,17.1690608 C52.7235033,16.6994475 51.3932373,16.680663 50.1004435,17.0939227 C48.4141907,17.6198895 47.5148559,19.1977901 47.795898,21.0198895 C50.568847,21.0198895 53.3605322,21.0198895 56.1522173,21.0198895 Z" id="Shape"></path>
            <path d="M84.4437916,23.2552486 C84.5187361,21.9779006 84.5,20.7005525 84.6686253,19.441989 C85.0808204,16.4928177 86.7670732,14.4640884 89.5400222,13.4497238 C92.1443459,12.4917127 94.8236142,12.4917127 97.4466741,13.3933702 C100.388248,14.4077348 102.261863,16.4740331 102.505432,19.5922652 C102.71153,22.1657459 102.730266,24.8143646 102.46796,27.3878453 C102.093237,30.8441989 99.1329268,33.4364641 95.3482262,33.718232 C93.6994457,33.8497238 91.9757206,33.7558011 90.3831486,33.3801105 C86.8045455,32.5348066 84.6686253,29.7171271 84.5374723,26.0353591 C84.5,25.1149171 84.5374723,24.1756906 84.5374723,23.2552486 C84.5,23.2552486 84.4812639,23.2552486 84.4437916,23.2552486 Z M89.2964523,23.3303867 C89.3151885,23.3303867 89.3339246,23.3303867 89.3526608,23.3303867 C89.3526608,24.0629834 89.3526608,24.7767956 89.3526608,25.5093923 C89.390133,28.0640884 90.9452328,29.5668508 93.605765,29.6044199 C96.1538803,29.6232044 97.7464523,28.1767956 97.8213969,25.678453 C97.8776053,24.119337 97.8588692,22.5414365 97.8213969,20.9823204 C97.7839246,19.3856354 97.1468958,18.1082873 95.591796,17.4696133 C94.3177384,16.9624309 93.0062084,16.9248619 91.6946785,17.4132597 C90.4955654,17.8640884 89.6711752,18.6906077 89.4838137,19.9679558 C89.3526608,21.0574586 89.3526608,22.2033149 89.2964523,23.3303867 Z" id="Shape"></path>
            <path d="M167.538581,32.6099448 C167.295011,33.5867403 166.695455,33.7933702 165.79612,33.7745856 C155.041574,33.718232 144.287029,33.718232 133.532483,33.7370166 C132.57694,33.7370166 131.99612,33.4740331 131.75255,32.440884 C132.689357,31.9712707 133.663636,31.4828729 134.61918,30.9944751 C137.298448,29.641989 139.977716,28.2895028 142.675721,26.9745856 C143.106652,26.7679558 143.612528,26.6364641 144.080931,26.6364641 C147.771951,26.6176796 151.481707,26.6176796 155.172727,26.6364641 C155.528714,26.6364641 155.940909,26.6928177 156.259424,26.8430939 C159.950443,28.7027624 163.622727,30.5812155 167.313747,32.4596685 C167.388692,32.478453 167.463636,32.5348066 167.538581,32.6099448 Z" id="Path"></path>
            <path d="M150.469956,0.131491713 C151.331818,-0.112707182 151.875166,0.0939226519 152.34357,0.939226519 C157.702106,10.3502762 163.079379,19.7425414 168.494124,29.1160221 C169,29.998895 169.018736,30.6187845 168.231818,31.3513812 C166.37694,30.1116022 164.522062,28.8530387 162.648448,27.5944751 C161.880266,27.0685083 161.149557,26.4861878 160.343902,26.0541436 C158.095565,24.8519337 156.577938,23.0486188 155.435033,20.7756906 C154.254656,18.3900552 152.811973,16.1546961 151.500443,13.8254144 C151.27561,13.4121547 151.088248,12.9237569 151.050776,12.4541436 C150.807206,8.43425414 150.601109,4.41436464 150.376275,0.394475138 C150.413747,0.300552486 150.45122,0.206629834 150.469956,0.131491713 Z" id="Path"></path>
            <path d="M148.952328,0.150276243 C148.858647,1.9160221 148.764967,3.70055249 148.65255,5.5038674 C148.502661,7.79558011 148.371508,10.0685083 148.184146,12.360221 C148.146674,12.8298343 148.034257,13.3370166 147.790687,13.7314917 C145.935809,16.9812155 144.062195,20.2121547 142.188581,23.4430939 C142.019956,23.7248619 141.795122,24.0254144 141.51408,24.2132597 C138.141574,26.5049724 134.750333,28.759116 131.359091,31.0320442 C131.26541,31.0883978 131.152993,31.1447514 131.040576,31.201105 C130.384812,30.5812155 130.291131,30.0176796 130.778271,29.1723757 C136.26796,19.761326 141.720177,10.3502762 147.134922,0.901657459 C147.58459,0.112707182 148.071729,-0.0939226519 148.952328,0.150276243 Z" id="Path"></path>
        </g>
    </g>
</svg>
