<?xml version="1.0" encoding="utf-8"?>
<!-- Generator: Adobe Illustrator 23.0.4, SVG Export Plug-In . SVG Version: 6.00 Build 0)  -->
<svg version="1.1" id="Layer_1" xmlns="http://www.w3.org/2000/svg" xmlns:xlink="http://www.w3.org/1999/xlink" x="0px" y="0px"
	 viewBox="0 0 1440 800" style="enable-background:new 0 0 1440 800;" xml:space="preserve">
<style type="text/css">
	.st0{fill:#525252;}
</style>
<g>
	<path class="st0" d="M335.6,431.5c16.9,18.9,33,36.8,49.9,55.6c-11.5,0-21.9,0.1-32.3-0.1c-1.2,0-2.5-1.6-3.5-2.7
		c-16.1-17.9-32.2-35.8-48.3-53.7c-0.9-1-1.9-2-3.5-3.7c0,20.4,0,40,0,59.9c-9.1,0-17.6,0-26.3,0c0-45,0-89.8,0-135.1
		c2-0.1,3.7-0.2,5.4-0.2c18.5,0.1,37.1-0.2,55.6,0.5c7.9,0.3,16.1,1.5,23.6,3.9c21.1,6.9,27.6,24.2,25.3,42.5
		c-2.5,20.2-17.5,33-38,33.2C341.3,431.5,339.2,431.5,335.6,431.5z M297.9,412.4c9.9,0,19.6,0.1,29.3,0c5.4-0.1,10.8-0.2,16.1-1.1
		c9.2-1.6,13.6-6.7,14.4-16c0.7-8.4-3.4-14.9-11.6-17.9c-3.3-1.2-6.9-2.1-10.3-2.2c-11.4-0.4-22.8-0.4-34.2-0.5
		c-1.2,0-2.3,0.3-3.5,0.5C297.9,387.5,297.9,399.7,297.9,412.4z"/>
	<path class="st0" d="M611.7,352.3c8.7,0,17,0,25.7,0c0,11,0,21.9,0,32.1c7-1.8,13.5-4.3,20.2-5c23.8-2.3,46.1,9.9,49.6,34.5
		c1.9,13.9,1.8,28.5,0,42.4c-2.5,19.7-18.5,32.8-38.5,34.5c-14,1.2-27.4,0-39.4-8.5c-1.1-0.8-3.6,0.1-5.3,0.8
		c-4,1.6-7.8,3.6-12.4,5.8C611.7,442.4,611.7,397.5,611.7,352.3z M682.3,434.8C682.3,434.8,682.3,434.8,682.3,434.8
		c0-4.9,0.2-9.9-0.1-14.8c-0.5-7.5-4.4-13.1-11.4-16c-7.3-3.1-14.8-3-22,0.1c-6.7,2.8-10.7,8.1-11,15.3c-0.5,10.5-0.5,21-0.1,31.4
		c0.3,7.4,4.4,12.7,11.3,15.5c6.7,2.8,13.5,3.1,20.3,0.6c8.1-2.9,12.5-8.8,13-17.3C682.5,444.7,682.3,439.8,682.3,434.8z"/>
	<path class="st0" d="M833.5,352.8c8.6,0,16.9,0,25.7,0c0,24.2,0,48.2,0,72.1c0.3,0.1,0.7,0.3,1,0.4c1.1-1.2,2.2-2.4,3.2-3.6
		c11.7-13.3,23.5-26.7,35.2-39.9c1-1.1,2.4-2.5,3.6-2.6c10-0.2,20-0.1,31.3-0.1c-16.4,18.5-31.9,36-47.5,53.7
		c16.4,18.2,32.7,36.3,49.7,55.2c-11.3,0-21.4,0.1-31.6-0.1c-1.3,0-2.8-1.7-3.9-2.9c-12.3-13.6-24.6-27.3-36.9-41
		c-1-1.1-1.9-2.4-2.8-3.6c-0.4,0.2-0.8,0.4-1.2,0.6c0,15.5,0,30.9,0,46.6c-8.9,0-17.2,0-25.8,0C833.5,443,833.5,398.2,833.5,352.8z"
		/>
	<path class="st0" d="M415.7,441.7c-1.9,15.3,4.4,24.3,18.7,26.1c6,0.7,12.2-0.1,18.2-1c4.2-0.7,7.3-3.7,9-7.9
		c0.5-1.1,1.9-2.5,3-2.6c6.9-0.2,13.8-0.1,21.2-0.1c-0.8,11.6-5.2,20.8-14.7,26.7c-4.7,2.9-10.3,5-15.7,6.2
		c-11.9,2.6-23.9,2.7-35.6-1.2c-17.2-5.8-28.1-17.5-29.8-35.8c-1.1-11.8-1.2-23.8,0.1-35.6c2.2-21.8,17.4-35.6,39.6-37.7
		c9.6-0.9,19.1-0.5,28.3,2.7c16.2,5.6,26.1,16.8,27.9,34c0.9,8.5,0.2,17.1,0.2,26.2C462.7,441.7,439.3,441.7,415.7,441.7z
		 M460.4,422.7c1.3-9.5-3.1-17.5-11.6-20.5c-7-2.6-14.2-2.6-21.3-0.2c-8.7,3-13.3,11.1-11.7,20.7
		C430.6,422.7,445.5,422.7,460.4,422.7z"/>
	<path class="st0" d="M596.1,442c-23.2,0-46.5,0-69.7,0c-3,10.5,2.6,21.6,12.5,24.8c7.5,2.4,15.2,2.6,22.8,0.7
		c4.6-1.2,8.4-3.7,10.3-8.5c0.4-1.1,2-2.4,3.1-2.4c6.8-0.2,13.5-0.1,21.1-0.1c-0.5,2.8-0.7,5.1-1.3,7.4c-2.2,8.8-7.3,15.4-14.9,20.3
		c-13.4,8.5-46.7,10.6-63.9-3.1c-9.6-7.6-15.4-17.5-16.1-29.6c-0.7-11.4-1-22.9,0.1-34.2c2.4-22.7,18.2-36.9,41.4-38.4
		c9.8-0.6,19.4-0.1,28.7,3.6c14.3,5.7,23.6,15.9,25.6,31.3C597,422.8,596.1,432.2,596.1,442z M570.7,422.9
		c1.6-9.3-2.8-17.3-11.4-20.5c-6.9-2.5-14-2.6-20.9-0.4c-9,2.8-13.8,11.2-12.3,20.9C540.9,422.9,555.8,422.9,570.7,422.9z"/>
	<path class="st0" d="M721.7,434.8c0.4-6.8,0.3-13.6,1.2-20.3c2.2-15.7,11.2-26.5,26-31.9c13.9-5.1,28.2-5.1,42.2-0.3
		c15.7,5.4,25.7,16.4,27,33c1.1,13.7,1.2,27.8-0.2,41.5c-2,18.4-17.8,32.2-38,33.7c-8.8,0.7-18,0.2-26.5-1.8
		c-19.1-4.5-30.5-19.5-31.2-39.1c-0.2-4.9,0-9.9,0-14.8C722,434.8,721.9,434.8,721.7,434.8z M747.6,435.2c0.1,0,0.2,0,0.3,0
		c0,3.9,0,7.7,0,11.6c0.2,13.6,8.5,21.6,22.7,21.8c13.6,0.1,22.1-7.6,22.5-20.9c0.3-8.3,0.2-16.7,0-25c-0.2-8.5-3.6-15.3-11.9-18.7
		c-6.8-2.7-13.8-2.9-20.8-0.3c-6.4,2.4-10.8,6.8-11.8,13.6C747.9,423.1,747.9,429.2,747.6,435.2z"/>
	<path class="st0" d="M1165.2,484.6c-1.3,5.2-4.5,6.3-9.3,6.2c-57.4-0.3-114.8-0.3-172.2-0.2c-5.1,0-8.2-1.4-9.5-6.9
		c5-2.5,10.2-5.1,15.3-7.7c14.3-7.2,28.6-14.4,43-21.4c2.3-1.1,5-1.8,7.5-1.8c19.7-0.1,39.5-0.1,59.2,0c1.9,0,4.1,0.3,5.8,1.1
		c19.7,9.9,39.3,19.9,59,29.9C1164.4,483.9,1164.8,484.2,1165.2,484.6z"/>
	<path class="st0" d="M1074.1,311.7c4.6-1.3,7.5-0.2,10,4.3c28.6,50.1,57.3,100.1,86.2,150c2.7,4.7,2.8,8-1.4,11.9
		c-9.9-6.6-19.8-13.3-29.8-20c-4.1-2.8-8-5.9-12.3-8.2c-12-6.4-20.1-16-26.2-28.1c-6.3-12.7-14-24.6-21-37c-1.2-2.2-2.2-4.8-2.4-7.3
		c-1.3-21.4-2.4-42.8-3.6-64.2C1073.8,312.6,1074,312.1,1074.1,311.7z"/>
	<path class="st0" d="M1066,311.8c-0.5,9.4-1,18.9-1.6,28.5c-0.8,12.2-1.5,24.3-2.5,36.5c-0.2,2.5-0.8,5.2-2.1,7.3
		c-9.9,17.3-19.9,34.5-29.9,51.7c-0.9,1.5-2.1,3.1-3.6,4.1c-18,12.2-36.1,24.2-54.2,36.3c-0.5,0.3-1.1,0.6-1.7,0.9
		c-3.5-3.3-4-6.3-1.4-10.8c29.3-50.1,58.4-100.2,87.3-150.5C1058.7,311.6,1061.3,310.5,1066,311.8z"/>
</g>
</svg>
