<?xml version="1.0" encoding="UTF-8" standalone="no"?>
<!-- Created with Inkscape (http://www.inkscape.org/) -->

<svg
   xmlns:dc="http://purl.org/dc/elements/1.1/"
   xmlns:cc="http://creativecommons.org/ns#"
   xmlns:rdf="http://www.w3.org/1999/02/22-rdf-syntax-ns#"
   xmlns:svg="http://www.w3.org/2000/svg"
   xmlns="http://www.w3.org/2000/svg"
   xmlns:sodipodi="http://sodipodi.sourceforge.net/DTD/sodipodi-0.dtd"
   xmlns:inkscape="http://www.inkscape.org/namespaces/inkscape"
   width="298.48886"
   height="108.83913"
   viewBox="0 0 78.97518 28.797019"
   version="1.1"
   id="svg8345"
   inkscape:version="0.92.0 r15299"
   sodipodi:docname="rubios coastal grill.svg">
  <defs
     id="defs8339">
    <clipPath
       id="clipPath7774"
       clipPathUnits="userSpaceOnUse">
      <path
         inkscape:connector-curvature="0"
         id="path7772"
         d="M 194.769,687.955 H 417.231 V 768.19 H 194.769 Z" />
    </clipPath>
  </defs>
  <sodipodi:namedview
     id="base"
     pagecolor="#ffffff"
     bordercolor="#525252"
     borderopacity="1.0"
     inkscape:pageopacity="0.0"
     inkscape:pageshadow="2"
     inkscape:zoom="3.0254236"
     inkscape:cx="148.24428"
     inkscape:cy="53.420089"
     inkscape:document-units="mm"
     inkscape:current-layer="layer1"
     showgrid="false"
     fit-margin-top="0"
     fit-margin-left="0"
     fit-margin-right="0"
     fit-margin-bottom="0"
     units="px"
     inkscape:window-width="1280"
     inkscape:window-height="744"
     inkscape:window-x="-4"
     inkscape:window-y="-4"
     inkscape:window-maximized="1" />
  <metadata
     id="metadata8342">
    <rdf:RDF>
      <cc:Work
         rdf:about="">
        <dc:format>image/svg+xml</dc:format>
        <dc:type
           rdf:resource="http://purl.org/dc/dcmitype/StillImage" />
        <dc:title></dc:title>
      </cc:Work>
    </rdf:RDF>
  </metadata>
  <g
     inkscape:label="Layer 1"
     inkscape:groupmode="layer"
     id="layer1"
     transform="translate(-73.413939,-153.06919)">
    <g
       id="g8585"
       transform="translate(0.26458345,-0.26458721)">
      <path
         d="m 77.612133,176.99618 v -6.69184 c 0,-1.08303 3.376436,-1.46473 3.376436,-1.46473 v -3.8862 c -1.465439,-1.27424 -3.631142,0.82796 -3.631142,0.82796 v -0.95567 h -3.503788 v 12.23151 z"
         style="fill:#525252;fill-opacity:1;fill-rule:nonzero;stroke:none;stroke-width:0.35277778"
         id="path7778"
         inkscape:connector-curvature="0" />
      <path
         d="m 139.33512,165.16934 c 0,0 0.23283,-1.54164 -1.03223,-1.69898 -1.5307,0.10866 -2.30681,-1.04246 -1.26047,-2.07186 0.83749,-0.60219 1.88948,-0.18662 2.2359,0.46108 0.72814,1.17757 0.0568,3.30976 0.0568,3.30976"
         style="fill:#525252;fill-opacity:1;fill-rule:nonzero;stroke:none;stroke-width:0.35277778"
         id="path7782"
         inkscape:connector-curvature="0" />
      <path
         d="m 84.726249,164.69842 h 3.779661 v 7.45349 c 0,0 0.191206,1.21073 1.783644,1.21073 1.592792,0 1.465087,-1.40158 1.465087,-1.40158 v -7.26264 h 3.744383 v 12.29501 h -3.553178 v -0.57432 c 0,0 -1.528586,0.63817 -3.121378,0.63817 -1.592791,0 -4.077052,-1.33808 -4.077052,-3.63114 0,-2.29341 -0.02117,-8.72772 -0.02117,-8.72772"
         style="fill:#525252;fill-opacity:1;fill-rule:nonzero;stroke:none;stroke-width:0.35277778"
         id="path7786"
         inkscape:connector-curvature="0" />
      <path
         d="m 100.2913,159.6658 h 3.75885 v 5.54249 c 0,0 1.6637,-0.73025 3.31611,-0.73025 1.65276,0 5.44371,1.50883 5.44371,6.05649 0,4.54801 -3.02648,6.52286 -5.06483,6.77757 -1.77024,0.22119 -3.49285,-0.89288 -3.49285,-0.89288 v 0.51082 h -4.02449 z m 6.27521,8.21796 c -1.49542,0 -2.70757,1.32644 -2.70757,2.96227 0,1.63583 1.21215,2.96228 2.70757,2.96228 1.49507,0 2.70757,-1.32645 2.70757,-2.96228 0,-1.63583 -1.2125,-2.96227 -2.70757,-2.96227"
         style="fill:#525252;fill-opacity:1;fill-rule:nonzero;stroke:none;stroke-width:0.35277778"
         id="path7790"
         inkscape:connector-curvature="0" />
      <path
         inkscape:connector-curvature="0"
         id="path7792"
         style="fill:#525252;fill-opacity:1;fill-rule:nonzero;stroke:none;stroke-width:0.35277778"
         d="m 120.74084,177.12093 h -4.07705 v -12.35887 h 4.07705 z" />
      <path
         d="m 148.96242,165.08076 v 2.93052 c 0,0 -2.38831,-0.24482 -2.9778,-0.0268 -0.58984,0.21767 -0.20743,0.91864 0.49319,1.10984 0.70097,0.19086 3.44028,1.46544 3.44028,4.20441 0,2.73932 -2.36537,3.97898 -5.03696,3.97898 -2.67158,0 -3.81811,-1.0481 -3.81811,-1.0481 v -3.05823 c 0,0 2.42076,0.3182 3.18523,0.3182 0.76447,0 1.41746,-0.35489 1.41746,-0.84631 0,-0.49107 -0.86889,-1.01071 -1.35396,-1.19204 -0.48507,-0.18097 -3.03495,-0.97543 -3.03495,-4.05518 0,-3.07975 4.56424,-3.58916 7.68562,-2.31528"
         style="fill:#525252;fill-opacity:1;fill-rule:nonzero;stroke:none;stroke-width:0.35277778"
         id="path7796"
         inkscape:connector-curvature="0" />
      <path
         d="m 131.15805,177.31841 c -4.50956,0 -6.54509,-2.98309 -6.54509,-6.31331 0,-3.33022 2.03553,-6.29038 6.54509,-6.29038 4.50956,0 6.54509,2.96016 6.54509,6.29038 0,3.33022 -2.03553,6.31331 -6.54509,6.31331 m 0,-9.27382 c -1.73461,0 -1.96568,1.68839 -1.96568,2.96051 0,1.27176 0.23107,2.98309 1.96568,2.98309 1.73461,0 1.96568,-1.71133 1.96568,-2.98309 0,-1.27212 -0.23107,-2.96051 -1.96568,-2.96051"
         style="fill:#525252;fill-opacity:1;fill-rule:nonzero;stroke:none;stroke-width:0.35277778"
         id="path7800"
         inkscape:connector-curvature="0" />
      <path
         d="m 75.106105,181.86621 c -0.376061,0 -0.693208,-0.14005 -0.951442,-0.42051 -0.253294,-0.27023 -0.379941,-0.59584 -0.379941,-0.9772 0,-0.381 0.121708,-0.70802 0.365125,-0.98072 0.250825,-0.28293 0.564444,-0.42439 0.940505,-0.42439 0.223661,0 0.438856,0.0614 0.645231,0.1845 l 0.08502,0.57891 c -0.07373,-0.0589 -0.1905,-0.10936 -0.350308,-0.15099 -0.145345,-0.0392 -0.271639,-0.0593 -0.379942,-0.0593 -0.221191,0 -0.404636,0.0885 -0.549628,0.26564 -0.137583,0.16475 -0.206375,0.36018 -0.206375,0.58631 0,0.2286 0.0755,0.42228 0.226837,0.58103 0.151341,0.1584 0.339725,0.23777 0.566208,0.23777 0.208844,0 0.442383,-0.0751 0.700617,-0.22507 l -0.09948,0.61595 c -0.204258,0.12524 -0.408516,0.18803 -0.612422,0.18803"
         style="fill:#525252;fill-opacity:1;fill-rule:nonzero;stroke:none;stroke-width:0.35277778"
         id="path7804"
         inkscape:connector-curvature="0" />
      <path
         d="m 80.077591,180.42804 c 0,-0.37853 0.130175,-0.70661 0.390878,-0.9846 0.26035,-0.27799 0.578908,-0.41699 0.954969,-0.41699 0.388761,0 0.718609,0.13723 0.990247,0.41134 0.271639,0.27411 0.407811,0.60537 0.407811,0.99378 0,0.38629 -0.136525,0.71578 -0.409574,0.98813 -0.272698,0.27305 -0.602545,0.40957 -0.988484,0.40957 -0.37853,0 -0.699205,-0.1397 -0.962378,-0.42016 -0.255763,-0.27305 -0.383469,-0.60007 -0.383469,-0.98107 m 0.541867,0 c 0,0.23107 0.07691,0.42898 0.230716,0.59372 0.153459,0.16475 0.346075,0.2473 0.577145,0.2473 0.233539,0 0.4318,-0.0815 0.595841,-0.24377 0.163337,-0.16228 0.244828,-0.36018 0.244828,-0.59372 0,-0.23072 -0.0822,-0.42969 -0.246944,-0.59549 -0.164747,-0.16581 -0.362656,-0.24906 -0.593725,-0.24906 -0.2286,0 -0.420511,0.0832 -0.575381,0.24906 -0.154869,0.1658 -0.23248,0.36336 -0.23248,0.59196"
         style="fill:#525252;fill-opacity:1;fill-rule:nonzero;stroke:none;stroke-width:0.35277778"
         id="path7808"
         inkscape:connector-curvature="0" />
      <path
         d="m 88.941168,181.16196 h -1.005769 l -0.301978,0.67098 -0.604309,-0.11042 1.408995,-2.74778 1.390297,2.74778 -0.560211,0.12595 z m -0.776111,-0.51647 h 0.545747 l -0.269169,-0.71931 z"
         style="fill:#525252;fill-opacity:1;fill-rule:nonzero;stroke:none;stroke-width:0.35277778"
         id="path7812"
         inkscape:connector-curvature="0" />
      <path
         d="m 94.050907,181.37955 0.361244,-0.36512 c 0.03951,0.0737 0.109362,0.13511 0.210256,0.1845 0.09349,0.0466 0.185914,0.0699 0.276931,0.0699 0.09807,0 0.180622,-0.0183 0.246944,-0.0554 0.08361,-0.0466 0.125236,-0.11536 0.125236,-0.20637 0,-0.10584 -0.09843,-0.20038 -0.294922,-0.28399 -0.309739,-0.13053 -0.493889,-0.21625 -0.553156,-0.25823 -0.199319,-0.14006 -0.298802,-0.33056 -0.298802,-0.5715 0,-0.23848 0.07937,-0.43392 0.237772,-0.58632 0.15875,-0.1524 0.357364,-0.2286 0.595841,-0.2286 0.162278,0 0.317148,0.0328 0.464609,0.0995 0.162278,0.0713 0.286455,0.16969 0.372533,0.29493 l -0.3429,0.36865 c -0.02963,-0.0737 -0.09843,-0.13511 -0.206728,-0.18415 -0.09349,-0.0395 -0.186972,-0.0593 -0.280105,-0.0593 -0.08608,0 -0.15875,0.0254 -0.217664,0.0759 -0.05891,0.0501 -0.08855,0.11712 -0.08855,0.20108 0,0.10301 0.09701,0.18662 0.291394,0.25083 0.287867,0.0935 0.470606,0.16968 0.549628,0.2286 0.196497,0.14499 0.294922,0.36865 0.294922,0.67098 0,0.22613 -0.08678,0.4131 -0.259997,0.56056 -0.173567,0.14747 -0.374297,0.2212 -0.60325,0.2212 -0.166864,0 -0.331611,-0.0367 -0.493889,-0.11078 -0.172156,-0.0787 -0.301272,-0.18415 -0.38735,-0.31679"
         style="fill:#525252;fill-opacity:1;fill-rule:nonzero;stroke:none;stroke-width:0.35277778"
         id="path7816"
         inkscape:connector-curvature="0" />
      <path
         d="m 101.1834,181.72249 -0.50165,0.0554 v -2.13184 h -0.696736 l 0.117826,-0.51259 h 1.68169 v 0.51259 h -0.60113 z"
         style="fill:#525252;fill-opacity:1;fill-rule:nonzero;stroke:none;stroke-width:0.35277778"
         id="path7820"
         inkscape:connector-curvature="0" />
      <path
         d="m 107.87133,181.16196 h -1.00577 l -0.30198,0.67098 -0.60431,-0.11042 1.40865,-2.74778 1.39065,2.74778 -0.56057,0.12595 z m -0.77611,-0.51647 h 0.54575 l -0.26917,-0.71931 z"
         style="fill:#525252;fill-opacity:1;fill-rule:nonzero;stroke:none;stroke-width:0.35277778"
         id="path7824"
         inkscape:connector-curvature="0" />
      <path
         d="m 112.98474,181.77022 v -2.65889 l 0.54222,-0.0332 v 2.15371 h 0.98107 l -0.15875,0.53834 z"
         style="fill:#525252;fill-opacity:1;fill-rule:nonzero;stroke:none;stroke-width:0.35277778"
         id="path7828"
         inkscape:connector-curvature="0" />
      <path
         d="m 124.87095,180.48329 c 0,-0.381 0.133,-0.70802 0.39829,-0.98107 0.26564,-0.2727 0.58878,-0.40923 0.97013,-0.40923 0.43251,0 0.78564,0.14852 1.05834,0.44627 l -0.32844,0.38735 c -0.0734,-0.0861 -0.18309,-0.15805 -0.32808,-0.2159 -0.14499,-0.0575 -0.27799,-0.0868 -0.39829,-0.0868 -0.23848,0 -0.43321,0.0833 -0.5842,0.24906 -0.15169,0.16616 -0.22719,0.36936 -0.22719,0.61031 0,0.23601 0.0815,0.43215 0.24342,0.58843 0.16228,0.15628 0.3616,0.23389 0.59761,0.23389 0.18697,0 0.35912,-0.055 0.51646,-0.16615 v -0.40535 h -0.75988 l 0.17321,-0.51999 h 1.12501 v 1.22449 c -0.12806,0.12277 -0.2854,0.22119 -0.47202,0.29492 -0.18697,0.0737 -0.37006,0.11078 -0.54962,0.11078 -0.38841,0 -0.72284,-0.12912 -1.00295,-0.38735 -0.28787,-0.26318 -0.4318,-0.58773 -0.4318,-0.97367"
         style="fill:#525252;fill-opacity:1;fill-rule:nonzero;stroke:none;stroke-width:0.35277778"
         id="path7832"
         inkscape:connector-curvature="0" />
      <path
         d="m 132.07718,180.46484 v 1.27247 l -0.50906,0.0628 v -2.63348 l 0.71543,-0.0109 c 0.26565,-0.005 0.48437,0.0593 0.65652,0.19156 0.18698,0.14288 0.28046,0.34431 0.28046,0.60501 0,0.31962 -0.14887,0.5521 -0.44626,0.69674 l 0.70062,1.00365 -0.52741,0.17674 z m 0,-0.14393 0.23812,0.007 c 0.0931,0.002 0.17851,-0.0325 0.25647,-0.10513 0.0783,-0.0723 0.11748,-0.15522 0.11748,-0.24871 0,-0.20426 -0.1136,-0.30233 -0.34078,-0.29492 h -0.27129 z"
         style="fill:#525252;fill-opacity:1;fill-rule:nonzero;stroke:none;stroke-width:0.35277778"
         id="path7836"
         inkscape:connector-curvature="0" />
      <path
         d="m 137.79345,179.15942 0.51647,-0.0554 v 2.62573 l -0.51647,0.0628 z"
         style="fill:#525252;fill-opacity:1;fill-rule:nonzero;stroke:none;stroke-width:0.35277778"
         id="path7840"
         inkscape:connector-curvature="0" />
      <path
         d="m 142.62086,181.77022 v -2.65889 l 0.54222,-0.0332 v 2.15371 h 0.98107 l -0.15875,0.53834 z"
         style="fill:#525252;fill-opacity:1;fill-rule:nonzero;stroke:none;stroke-width:0.35277778"
         id="path7844"
         inkscape:connector-curvature="0" />
      <path
         d="m 148.40355,181.77022 v -2.65889 l 0.54222,-0.0332 v 2.15371 h 0.98107 l -0.15875,0.53834 z"
         style="fill:#525252;fill-opacity:1;fill-rule:nonzero;stroke:none;stroke-width:0.35277778"
         id="path7848"
         inkscape:connector-curvature="0" />
      <path
         d="m 117.03325,159.53587 c 0,0.89606 0.72637,1.62278 1.62278,1.62278 0.8957,0 1.62207,-0.72672 1.62207,-1.62278 0,-0.89606 -0.72637,-1.62242 -1.62207,-1.62242 -0.89641,0 -1.62278,0.72636 -1.62278,1.62242"
         style="fill:#525252;fill-opacity:1;fill-rule:nonzero;stroke:none;stroke-width:0.35277778"
         id="path7852"
         inkscape:connector-curvature="0" />
      <path
         d="m 86.360351,154.15463 c -0.0187,-0.0145 -0.02893,-0.0226 -0.03034,-0.0236 v -3.5e-4 c -0.0025,-0.002 -0.0042,-0.003 -0.0042,-0.003 -0.126647,-0.10513 -0.144639,-0.29175 -0.04127,-0.4191 0.103716,-0.12736 0.289983,-0.14711 0.418747,-0.0448 0,-3.5e-4 0.05821,0.0462 0.183797,0.13582 0.125589,0.0893 0.314325,0.21873 0.564445,0.3743 0.499886,0.3115 1.243189,0.72849 2.208388,1.14653 1.930048,0.83538 4.746273,1.67287 8.284634,1.67287 7.090128,0.007 13.898038,-3.19087 19.173828,-3.20357 5.30966,0.005 8.10119,3.57575 8.12518,3.60538 0.0917,0.11748 0.0825,0.28505 -0.0212,0.39194 -0.10336,0.10689 -0.27093,0.12136 -0.39088,0.0332 -3.5e-4,3.5e-4 -0.0434,-0.0314 -0.13546,-0.0928 -0.0931,-0.0614 -0.23107,-0.14993 -0.4124,-0.25682 -0.36266,-0.21379 -0.895,-0.50059 -1.5688,-0.78775 -1.34726,-0.57433 -3.2572,-1.14794 -5.50087,-1.14759 -2.2292,-0.003 -5.63562,0.81562 -9.18457,1.64183 -3.55353,0.82444 -7.25699,1.65558 -10.180461,1.65735 -5.637389,-0.0131 -11.008078,-4.29684 -11.488561,-4.6796"
         style="fill:#525252;fill-opacity:1;fill-rule:nonzero;stroke:none;stroke-width:0.35277778"
         id="path7856"
         inkscape:connector-curvature="0" />
      <path
         d="m 93.723,162.94829 c -3.458986,-0.56233 -7.685264,-3.15101 -12.284075,-3.87914 -0.690386,-0.11007 -1.344789,-0.15699 -1.958622,-0.15699 -3.014839,-7.1e-4 -5.062714,1.12854 -5.508978,1.39912 -0.04621,0.0279 -0.07302,0.0451 -0.08431,0.0526 -0.0035,0.002 -0.0053,0.004 -0.0053,0.004 -0.0381,0.0261 -0.08043,0.0423 -0.124883,0.0487 -0.0011,3.5e-4 -0.0018,3.5e-4 -0.0025,7.1e-4 -7.05e-4,0 -0.0014,0 -0.0025,0 -0.100895,0.0134 -0.205317,-0.0258 -0.271992,-0.10972 -3.53e-4,-3.5e-4 -0.0011,-0.001 -0.0018,-0.001 -7.05e-4,-0.001 -0.0018,-0.003 -0.0028,-0.004 -7.06e-4,-0.001 -0.0018,-0.002 -0.0025,-0.004 -7.05e-4,-0.001 -0.0014,-0.002 -0.0025,-0.003 -0.0014,-0.002 -0.0032,-0.005 -0.0046,-0.007 -0.08572,-0.12664 -0.06209,-0.29492 0.05045,-0.39299 3.53e-4,0 7.06e-4,-3.5e-4 7.06e-4,-3.5e-4 0.0018,-0.001 0.0032,-0.003 0.0049,-0.004 3.52e-4,-3.5e-4 7.05e-4,-7e-4 7.05e-4,-7e-4 0.0021,-0.001 0.0035,-0.003 0.0049,-0.004 7.06e-4,-3.6e-4 0.0011,-7.1e-4 0.0014,-0.001 0.0014,-10e-4 0.0032,-0.002 0.0046,-0.004 3.53e-4,-3.5e-4 0.0011,-7.1e-4 0.0014,-0.001 0.0014,-0.001 0.0032,-0.002 0.0046,-0.004 7.06e-4,-3.5e-4 0.0011,-3.5e-4 0.0018,-0.001 0.0011,-7.1e-4 0.0025,-0.002 0.0039,-0.002 v 0 c 3.53e-4,-3.6e-4 3.53e-4,-3.6e-4 7.05e-4,-7.1e-4 0.0025,-10e-4 0.01729,-0.0113 0.04445,-0.0286 0.415925,-0.27094 3.626203,-2.33469 6.9469,-2.34315 0.373239,0 0.748947,0.0265 1.121481,0.0864 1.913819,0.30621 4.265436,1.15817 6.51898,1.98931 2.248959,0.83185 4.406195,1.64289 5.845175,1.87078 0.534811,0.085 1.046339,0.11995 1.524706,0.11995 1.849261,7e-4 3.208513,-0.52317 3.50273,-0.64735 0.04198,-0.0176 0.05927,-0.0257 0.05927,-0.0257 0.132644,-0.0614 0.28963,-0.0183 0.372533,0.1023 0.08255,0.12065 0.06597,0.28293 -0.03916,0.38453 -0.02752,0.0243 -1.724378,1.65805 -4.544836,1.66193 -0.373592,0 -0.765881,-0.0293 -1.175103,-0.0945"
         style="fill:#525252;fill-opacity:1;fill-rule:nonzero;stroke:none;stroke-width:0.35277778"
         id="path7860"
         inkscape:connector-curvature="0" />
      <path
         d="m 150.9522,165.5901 h 0.11218 c 0.0406,0 0.0783,-0.005 0.1136,-0.0141 0.0349,-0.009 0.0639,-0.0265 0.0864,-0.0515 0.0226,-0.0247 0.0339,-0.0621 0.0339,-0.11218 0,-0.0388 -0.007,-0.0698 -0.0222,-0.0924 -0.0148,-0.0226 -0.0339,-0.0399 -0.0572,-0.0515 -0.0236,-0.0116 -0.0501,-0.0194 -0.0797,-0.0233 -0.0296,-0.004 -0.0593,-0.006 -0.0885,-0.006 h -0.28328 v 0.35101 z m 0.46531,0.5521 h -0.14499 l -0.28293,-0.45614 h -0.22225 v 0.45614 h -0.1217 v -0.98954 h 0.43285 c 0.13088,0 0.22225,0.0233 0.27376,0.0702 0.0515,0.0469 0.0773,0.11077 0.0773,0.19191 0,0.0483 -0.008,0.0896 -0.0236,0.12382 -0.0155,0.0342 -0.0374,0.0621 -0.0653,0.0833 -0.0282,0.0208 -0.0614,0.0363 -0.0995,0.0466 -0.0384,0.0102 -0.0794,0.0159 -0.12276,0.0176 z m -0.44203,0.27587 c 0.1076,0 0.20708,-0.0198 0.29845,-0.0596 0.091,-0.0395 0.16934,-0.0942 0.23495,-0.16369 0.0656,-0.0695 0.11713,-0.15099 0.15452,-0.24447 0.0374,-0.0935 0.0561,-0.19474 0.0561,-0.3041 0,-0.1076 -0.0187,-0.20814 -0.0561,-0.30162 -0.0374,-0.0938 -0.0889,-0.17463 -0.15452,-0.24342 -0.0656,-0.0688 -0.14393,-0.12277 -0.23495,-0.16263 -0.0914,-0.0395 -0.19085,-0.0596 -0.29845,-0.0596 -0.10759,0 -0.20743,0.0201 -0.29915,0.0596 -0.0921,0.0399 -0.17145,0.0938 -0.23777,0.16263 -0.0663,0.0688 -0.11818,0.14958 -0.15523,0.24342 -0.0377,0.0935 -0.0564,0.19402 -0.0564,0.30162 0,0.10936 0.0187,0.21061 0.0564,0.3041 0.037,0.0935 0.0889,0.17497 0.15523,0.24447 0.0663,0.0695 0.14569,0.12418 0.23777,0.16369 0.0917,0.0399 0.19156,0.0596 0.29915,0.0596 m 0,0.11712 c -0.12312,0 -0.23847,-0.0236 -0.34607,-0.0702 -0.1076,-0.0469 -0.20144,-0.11042 -0.28187,-0.19085 -0.0804,-0.0801 -0.14393,-0.17428 -0.19085,-0.28187 -0.0466,-0.10725 -0.0699,-0.22296 -0.0699,-0.34608 0,-0.12171 0.0233,-0.23636 0.0699,-0.34396 0.0469,-0.10759 0.11042,-0.20108 0.19085,-0.28045 0.0804,-0.0797 0.17427,-0.14288 0.28187,-0.18945 0.1076,-0.0469 0.22295,-0.0702 0.34607,-0.0702 0.12171,0 0.23636,0.0233 0.34396,0.0702 0.1076,0.0466 0.20144,0.10972 0.28187,0.18945 0.0801,0.0794 0.14358,0.17286 0.18944,0.28045 0.0459,0.1076 0.0692,0.22225 0.0692,0.34396 0,0.12312 -0.0233,0.23883 -0.0692,0.34608 -0.0459,0.10759 -0.10936,0.20179 -0.18944,0.28187 -0.0804,0.0804 -0.17427,0.14393 -0.28187,0.19085 -0.1076,0.0466 -0.22225,0.0702 -0.34396,0.0702"
         style="fill:#525252;fill-opacity:1;fill-rule:nonzero;stroke:none;stroke-width:0.35277778"
         id="path7864"
         inkscape:connector-curvature="0" />
    </g>
  </g>
</svg>
