<?xml version="1.0" encoding="utf-8"?>
<!-- Generator: Adobe Illustrator 23.0.4, SVG Export Plug-In . SVG Version: 6.00 Build 0)  -->
<svg version="1.1" id="Layer_1" xmlns="http://www.w3.org/2000/svg" xmlns:xlink="http://www.w3.org/1999/xlink" x="0px" y="0px"
	 viewBox="0 0 256 180" style="enable-background:new 0 0 256 180;" xml:space="preserve">
<style type="text/css">
	.st0{fill:#525252;}
</style>
<g>
	<path class="st0" d="M68,84.7c-3,0-4.3,1.1-4.3,1.1c-0.9,0.6-1.3,1.6-1.3,2.9c0,0.8,0.1,1.5,0.4,1.9c0.2,0.3,0.3,0.4,0.9,0.9
		c0,0,1.3,1,4.3,0.9c1.1-0.1,2.1-0.2,2.8-0.3c0.7-0.1,1.2-0.2,1.2-0.2V85C72,85,70.1,84.7,68,84.7z M68,84.7c-3,0-4.3,1.1-4.3,1.1
		c-0.9,0.6-1.3,1.6-1.3,2.9c0,0.8,0.1,1.5,0.4,1.9c0.2,0.3,0.3,0.4,0.9,0.9c0,0,1.3,1,4.3,0.9c1.1-0.1,2.1-0.2,2.8-0.3
		c0.7-0.1,1.2-0.2,1.2-0.2V85C72,85,70.1,84.7,68,84.7z M68,84.7c-3,0-4.3,1.1-4.3,1.1c-0.9,0.6-1.3,1.6-1.3,2.9
		c0,0.8,0.1,1.5,0.4,1.9c0.2,0.3,0.3,0.4,0.9,0.9c0,0,1.3,1,4.3,0.9c1.1-0.1,2.1-0.2,2.8-0.3c0.7-0.1,1.2-0.2,1.2-0.2V85
		C72,85,70.1,84.7,68,84.7z M105.3,78.2c-0.9-1.4-2.2-2.1-4.2-2.1c-2,0-3.3,0.8-4.2,2.1c-0.6,0.9-1,2.1-1.2,3.5h10.6
		C106.2,80.4,105.9,79.1,105.3,78.2z M105.3,78.2c-0.9-1.4-2.2-2.1-4.2-2.1c-2,0-3.3,0.8-4.2,2.1c-0.6,0.9-1,2.1-1.2,3.5h10.6
		C106.2,80.4,105.9,79.1,105.3,78.2z M68,84.7c-3,0-4.3,1.1-4.3,1.1c-0.9,0.6-1.3,1.6-1.3,2.9c0,0.8,0.1,1.5,0.4,1.9
		c0.2,0.3,0.3,0.4,0.9,0.9c0,0,1.3,1,4.3,0.9c1.1-0.1,2.1-0.2,2.8-0.3c0.7-0.1,1.2-0.2,1.2-0.2V85C72,85,70.1,84.7,68,84.7z
		 M68,84.7c-3,0-4.3,1.1-4.3,1.1c-0.9,0.6-1.3,1.6-1.3,2.9c0,0.8,0.1,1.5,0.4,1.9c0.2,0.3,0.3,0.4,0.9,0.9c0,0,1.3,1,4.3,0.9
		c1.1-0.1,2.1-0.2,2.8-0.3c0.7-0.1,1.2-0.2,1.2-0.2V85C72,85,70.1,84.7,68,84.7z M105.3,78.2c-0.9-1.4-2.2-2.1-4.2-2.1
		c-2,0-3.3,0.8-4.2,2.1c-0.6,0.9-1,2.1-1.2,3.5h10.6C106.2,80.4,105.9,79.1,105.3,78.2z M165,78.2c-0.9-1.4-2.3-2.1-4.3-2.1
		c-1.9,0-3.3,0.7-4.2,2.1c-0.9,1.4-1.4,3.4-1.4,5.9c0,2.5,0.5,4.5,1.4,6c0.9,1.4,2.3,2.1,4.2,2.1c2,0,3.3-0.7,4.3-2.1
		c0.9-1.4,1.4-3.4,1.4-6C166.4,81.6,165.9,79.6,165,78.2z M165,78.2c-0.9-1.4-2.3-2.1-4.3-2.1c-1.9,0-3.3,0.7-4.2,2.1
		c-0.9,1.4-1.4,3.4-1.4,5.9c0,2.5,0.5,4.5,1.4,6c0.9,1.4,2.3,2.1,4.2,2.1c2,0,3.3-0.7,4.3-2.1c0.9-1.4,1.4-3.4,1.4-6
		C166.4,81.6,165.9,79.6,165,78.2z M105.3,78.2c-0.9-1.4-2.2-2.1-4.2-2.1c-2,0-3.3,0.8-4.2,2.1c-0.6,0.9-1,2.1-1.2,3.5h10.6
		C106.2,80.4,105.9,79.1,105.3,78.2z M68,84.7c-3,0-4.3,1.1-4.3,1.1c-0.9,0.6-1.3,1.6-1.3,2.9c0,0.8,0.1,1.5,0.4,1.9
		c0.2,0.3,0.3,0.4,0.9,0.9c0,0,1.3,1,4.3,0.9c1.1-0.1,2.1-0.2,2.8-0.3c0.7-0.1,1.2-0.2,1.2-0.2V85C72,85,70.1,84.7,68,84.7z
		 M68,84.7c-3,0-4.3,1.1-4.3,1.1c-0.9,0.6-1.3,1.6-1.3,2.9c0,0.8,0.1,1.5,0.4,1.9c0.2,0.3,0.3,0.4,0.9,0.9c0,0,1.3,1,4.3,0.9
		c1.1-0.1,2.1-0.2,2.8-0.3c0.7-0.1,1.2-0.2,1.2-0.2V85C72,85,70.1,84.7,68,84.7z M105.3,78.2c-0.9-1.4-2.2-2.1-4.2-2.1
		c-2,0-3.3,0.8-4.2,2.1c-0.6,0.9-1,2.1-1.2,3.5h10.6C106.2,80.4,105.9,79.1,105.3,78.2z M165,78.2c-0.9-1.4-2.3-2.1-4.3-2.1
		c-1.9,0-3.3,0.7-4.2,2.1c-0.9,1.4-1.4,3.4-1.4,5.9c0,2.5,0.5,4.5,1.4,6c0.9,1.4,2.3,2.1,4.2,2.1c2,0,3.3-0.7,4.3-2.1
		c0.9-1.4,1.4-3.4,1.4-6C166.4,81.6,165.9,79.6,165,78.2z M165,78.2c-0.9-1.4-2.3-2.1-4.3-2.1c-1.9,0-3.3,0.7-4.2,2.1
		c-0.9,1.4-1.4,3.4-1.4,5.9c0,2.5,0.5,4.5,1.4,6c0.9,1.4,2.3,2.1,4.2,2.1c2,0,3.3-0.7,4.3-2.1c0.9-1.4,1.4-3.4,1.4-6
		C166.4,81.6,165.9,79.6,165,78.2z M105.3,78.2c-0.9-1.4-2.2-2.1-4.2-2.1c-2,0-3.3,0.8-4.2,2.1c-0.6,0.9-1,2.1-1.2,3.5h10.6
		C106.2,80.4,105.9,79.1,105.3,78.2z M68,84.7c-3,0-4.3,1.1-4.3,1.1c-0.9,0.6-1.3,1.6-1.3,2.9c0,0.8,0.1,1.5,0.4,1.9
		c0.2,0.3,0.3,0.4,0.9,0.9c0,0,1.3,1,4.3,0.9c1.1-0.1,2.1-0.2,2.8-0.3c0.7-0.1,1.2-0.2,1.2-0.2V85C72,85,70.1,84.7,68,84.7z
		 M200.7,24.4c-7.9,0-15.5,1.7-22.3,4.7c-7.8-14-22.6-23.4-39.5-23.4c-12.7,0-24.2,5.3-32.4,13.9C97.5,7.8,83.2,0.1,67.1,0.1
		c-27.4,0-49.7,22.2-49.7,49.6c0,7,1.5,13.7,4.1,19.7C8.7,76.9,0.1,90.9,0.1,106.8c0,23.8,19.1,43.1,42.7,43.1c3,0,6-0.3,8.8-0.9
		c6.5,17.6,23.3,30.1,43.1,30.1c19,0,35.3-11.5,42.3-28c5.3,2.6,11.3,4,17.6,4c15.1,0,28.3-8.3,35.2-20.6c3.5,0.7,7.1,1.1,10.9,1.1
		c30.5,0,55.1-24.9,55.1-55.6C255.9,49.3,231.2,24.4,200.7,24.4z M54.9,88.9c0,4.5-3.3,7.3-8.5,7.3c-2.6,0-5-0.4-7.7-1.8
		c-0.5-0.3-1-0.5-1.5-0.9c-0.1-0.1-0.3-0.2-0.1-0.6l1-2.9c0.2-0.5,0.5-0.3,0.7-0.2c0.3,0.2,0.5,0.3,0.9,0.5c3,1.9,5.9,2,6.8,2
		c2.3,0,3.7-1.2,3.7-2.8v-0.1c0-1.8-2.2-2.5-4.7-3.2L45,86c-3.5-1-7.2-2.4-7.2-6.8v-0.1c0-4.2,3.4-7.1,8.2-7.1h0.5
		c2.8,0,5.6,0.8,7.5,2c0.2,0.1,0.4,0.3,0.2,0.6c-0.1,0.2-1,2.6-1.1,2.9c-0.2,0.5-0.7,0.2-0.7,0.2c-1.7-0.9-4.4-1.7-6.7-1.7
		c-2,0-3.4,1.1-3.4,2.5v0.1c0,1.7,2.2,2.4,4.9,3.3l0.4,0.2C51.2,83.2,54.9,84.7,54.9,88.9L54.9,88.9z M76.4,94.8c0,0-0.5,0.1-1,0.3
		c-0.5,0.1-2.3,0.5-3.7,0.7c-1.5,0.2-3,0.4-4.5,0.4c-1.4,0-2.8-0.1-3.9-0.4c-1.2-0.3-2.2-0.7-3-1.3c-0.8-0.6-1.5-1.4-1.9-2.3
		c-0.4-0.9-0.7-2.1-0.7-3.4c0-1.3,0.3-2.4,0.8-3.4c0.5-1,1.2-1.8,2.1-2.5c0.9-0.6,1.9-1.1,3.1-1.4c1.1-0.3,2.4-0.5,3.6-0.5
		c0.9,0,1.7,0,2.3,0.1c0,0,1.2,0.1,2.4,0.3v-0.6c0-2-0.4-2.9-1.2-3.5c-0.8-0.6-2.1-1-3.7-1c0,0-3.6,0-6.5,1.5
		c-0.1,0.1-0.2,0.1-0.2,0.1s-0.4,0.1-0.5-0.2l-1-2.8c-0.2-0.4,0.1-0.6,0.1-0.6c1.3-1,4.6-1.7,4.6-1.7c1.1-0.2,2.9-0.4,4-0.4
		c3,0,5.2,0.7,6.8,2s2.4,3.6,2.4,6.5l0,13.6C76.7,94.3,76.7,94.7,76.4,94.8z M86.3,95.2c0,0.2-0.2,0.5-0.4,0.5H82
		c-0.2,0-0.4-0.2-0.4-0.5V63.5c0-0.2,0.2-0.4,0.4-0.4h3.9c0.2,0,0.4,0.2,0.4,0.4V95.2z M110.9,85c0,0.4-0.4,0.4-0.4,0.4l-14.8,0
		c0.1,2.2,0.6,3.8,1.7,4.9c1.1,1.1,2.8,1.7,5.1,1.7c3.5,0,5-0.7,6.1-1.1c0,0,0.4-0.2,0.6,0.3l1,2.7c0.2,0.5,0,0.6-0.1,0.7
		c-0.9,0.5-3.2,1.5-7.5,1.5c-2.1,0-3.9-0.3-5.4-0.9c-1.5-0.6-2.8-1.4-3.7-2.5c-1-1.1-1.7-2.3-2.2-3.8c-0.5-1.4-0.7-3-0.7-4.7
		c0-1.7,0.2-3.3,0.7-4.7c0.4-1.5,1.1-2.8,2-3.8c0.9-1.1,2.1-2,3.4-2.6c1.4-0.6,3-0.9,4.9-0.9c1.6,0,3,0.3,4.2,0.9
		c0.9,0.4,1.9,1.1,2.8,2.1c0.6,0.6,1.5,2.1,1.9,3.5C111.4,82,110.9,84.8,110.9,85z M123.2,96.2c-2.6,0-5-0.4-7.7-1.8
		c-0.5-0.3-1-0.5-1.5-0.9c0-0.1-0.3-0.2-0.1-0.6l1-2.9c0.2-0.5,0.6-0.3,0.7-0.2c0.3,0.2,0.5,0.3,0.9,0.5c3,1.9,5.9,2,6.8,2
		c2.3,0,3.7-1.2,3.7-2.8v-0.1c0-1.8-2.2-2.5-4.7-3.2l-0.5-0.2c-3.5-1-7.2-2.4-7.2-6.8v-0.1c0-4.2,3.3-7.1,8.2-7.1h0.5
		c2.8,0,5.5,0.8,7.5,2c0.2,0.1,0.4,0.3,0.2,0.6c-0.1,0.2-1,2.6-1.1,2.9c-0.2,0.5-0.7,0.2-0.7,0.2c-1.7-0.9-4.4-1.7-6.7-1.7
		c-2,0-3.3,1.1-3.3,2.5v0.1c0,1.7,2.2,2.4,4.8,3.3l0.4,0.2c3.5,1.1,7.1,2.6,7.1,6.8v0.1C131.7,93.4,128.4,96.2,123.2,96.2z
		 M149.1,76.2c-0.1,0.4-0.5,0.4-0.5,0.4h-4.9l-3.3,18.9c-0.3,2-0.8,3.6-1.3,5c-0.5,1.4-1.1,2.4-1.9,3.3c-0.8,0.9-1.7,1.5-2.7,1.9
		c-1,0.4-2.3,0.6-3.6,0.6c-0.7,0-1.3,0-2.2-0.2c-0.6-0.1-0.9-0.2-1.4-0.4c-0.2-0.1-0.3-0.3-0.2-0.6c0.1-0.3,1-2.7,1.1-3
		c0.2-0.4,0.5-0.2,0.5-0.2c0.3,0.1,0.5,0.2,0.8,0.3s0.8,0.1,1.2,0.1c0.7,0,1.2-0.1,1.8-0.2c0.6-0.2,1-0.6,1.3-1.1
		c0.4-0.5,0.7-1.2,1-2.1c0.3-0.9,0.6-2.2,0.9-3.6l3.3-18.6h-3.3c-0.4,0-0.5-0.2-0.5-0.5l0.5-3.1c0.1-0.4,0.5-0.4,0.5-0.4h3.4l0.2-1
		c0.5-3,1.5-5.2,3-6.7c1.5-1.5,3.6-2.2,6.3-2.2c0.8,0,1.5,0,2,0.2c0.6,0.1,1,0.2,1.5,0.3c0.1,0,0.4,0.2,0.3,0.5l-1.1,3.1
		c-0.1,0.2-0.2,0.4-0.6,0.2c-0.1,0-0.3-0.1-0.8-0.2c-0.3-0.1-0.8-0.1-1.2-0.1c-0.6,0-1.1,0.1-1.6,0.2c-0.5,0.2-0.9,0.4-1.2,0.8
		c-0.4,0.4-0.8,0.9-1,1.6c-0.5,1.6-0.8,3.2-0.8,3.3h4.7c0.4,0,0.5,0.2,0.5,0.5L149.1,76.2z M170.8,88.9c-0.4,1.5-1.1,2.7-2,3.8
		c-0.9,1.1-2,1.9-3.4,2.5c-1.3,0.6-2.9,0.9-4.7,0.9c-1.8,0-3.4-0.3-4.7-0.9c-1.3-0.6-2.5-1.5-3.4-2.5c-0.9-1.1-1.6-2.4-2-3.8
		c-0.4-1.4-0.6-3-0.6-4.7c0-1.7,0.2-3.3,0.6-4.7s1.1-2.7,2-3.8c0.9-1.1,2-1.9,3.4-2.6c1.3-0.6,2.9-0.9,4.7-0.9
		c1.8,0,3.4,0.3,4.7,0.9c1.3,0.6,2.5,1.5,3.4,2.6c0.9,1.1,1.6,2.3,2,3.8c0.4,1.5,0.6,3,0.6,4.7C171.4,85.8,171.2,87.4,170.8,88.9z
		 M189.1,73.4c-0.1,0.4-0.9,2.4-1.1,3.1c-0.1,0.3-0.2,0.4-0.5,0.4c0,0-0.9-0.2-1.6-0.2c-0.5,0-1.3,0.1-2,0.3
		c-0.7,0.2-1.3,0.6-1.8,1.1c-0.5,0.5-1,1.3-1.3,2.2c-0.3,0.9-0.5,2.4-0.5,3.9v11c0,0.2-0.2,0.5-0.5,0.5h-3.9c-0.2,0-0.5-0.2-0.5-0.5
		V73.1c0-0.2,0.2-0.5,0.4-0.5h3.8c0.2,0,0.4,0.2,0.4,0.5v1.8c0.6-0.8,1.6-1.4,2.5-1.8c0.9-0.4,2-0.7,3.8-0.6c1,0.1,2.2,0.3,2.5,0.4
		C189,72.9,189.2,73,189.1,73.4z M207.6,95c-1.7,0.7-4,1.1-6.2,1.1c-3.8,0-6.7-1.1-8.6-3.2c-1.9-2.1-2.9-5.1-2.9-8.7
		c0-1.7,0.2-3.3,0.7-4.7c0.5-1.5,1.2-2.7,2.1-3.8c0.9-1.1,2.1-1.9,3.5-2.5c1.4-0.6,3-0.9,4.9-0.9c1.2,0,2.3,0.1,3.3,0.2
		c1,0.2,2.4,0.5,2.9,0.7c0.1,0,0.4,0.2,0.3,0.5c-0.4,1.2-0.7,1.9-1.1,3c-0.2,0.5-0.5,0.3-0.5,0.3c-1.4-0.5-2.8-0.7-4.6-0.7
		c-2.2,0-3.8,0.7-4.9,2.1c-1.1,1.4-1.7,3.3-1.7,5.8c0,2.7,0.7,4.7,1.9,6c1.2,1.2,2.9,1.9,5,1.9c0.9,0,1.7-0.1,2.4-0.2
		c0.7-0.1,1.4-0.3,2-0.6c0,0,0.4-0.2,0.6,0.3l1.1,3C208,94.8,207.6,95,207.6,95z M229.6,85c0,0.4-0.4,0.4-0.4,0.4l-14.8,0
		c0.1,2.2,0.6,3.8,1.7,4.9c1.1,1.1,2.8,1.7,5.1,1.7c3.5,0,5-0.7,6.1-1.1c0,0,0.4-0.2,0.6,0.3l1,2.7c0.2,0.5,0,0.6-0.1,0.7
		c-0.9,0.5-3.2,1.5-7.5,1.5c-2.1,0-3.9-0.3-5.4-0.9c-1.5-0.6-2.8-1.4-3.7-2.5c-1-1.1-1.7-2.3-2.1-3.8c-0.5-1.4-0.7-3-0.7-4.7
		c0-1.7,0.2-3.3,0.7-4.7c0.4-1.5,1.1-2.8,2-3.8c0.9-1.1,2-2,3.4-2.6c1.4-0.6,3-0.9,4.9-0.9c1.6,0,3,0.3,4.2,0.9
		c0.9,0.4,1.9,1.1,2.8,2.1c0.6,0.6,1.5,2.1,1.9,3.5C230.1,82,229.6,84.8,229.6,85z M219.8,76.1c-1.9,0-3.3,0.8-4.2,2.1
		c-0.6,0.9-1,2.1-1.2,3.5H225c-0.1-1.3-0.4-2.6-1-3.5C223.1,76.8,221.8,76.1,219.8,76.1z M160.7,76.2c-1.9,0-3.3,0.7-4.2,2.1
		c-0.9,1.4-1.4,3.4-1.4,5.9c0,2.5,0.5,4.5,1.4,6c0.9,1.4,2.3,2.1,4.2,2.1c2,0,3.3-0.7,4.3-2.1c0.9-1.4,1.4-3.4,1.4-6
		c0-2.5-0.5-4.5-1.4-5.9C164.1,76.8,162.7,76.2,160.7,76.2z M101.1,76.1c-2,0-3.3,0.8-4.2,2.1c-0.6,0.9-1,2.1-1.2,3.5h10.6
		c-0.1-1.3-0.4-2.6-1-3.5C104.3,76.8,103.1,76.1,101.1,76.1z M63.7,85.8c-0.9,0.6-1.3,1.6-1.3,2.9c0,0.8,0.1,1.5,0.4,1.9
		c0.2,0.3,0.3,0.4,0.9,0.9c0,0,1.3,1,4.3,0.9c1.1-0.1,2.1-0.2,2.8-0.3c0.7-0.1,1.2-0.2,1.2-0.2V85c0,0-1.9-0.3-4-0.4
		C64.9,84.6,63.7,85.8,63.7,85.8z M68,84.7c-3,0-4.3,1.1-4.3,1.1c-0.9,0.6-1.3,1.6-1.3,2.9c0,0.8,0.1,1.5,0.4,1.9
		c0.2,0.3,0.3,0.4,0.9,0.9c0,0,1.3,1,4.3,0.9c1.1-0.1,2.1-0.2,2.8-0.3c0.7-0.1,1.2-0.2,1.2-0.2V85C72,85,70.1,84.7,68,84.7z
		 M105.3,78.2c-0.9-1.4-2.2-2.1-4.2-2.1c-2,0-3.3,0.8-4.2,2.1c-0.6,0.9-1,2.1-1.2,3.5h10.6C106.2,80.4,105.9,79.1,105.3,78.2z
		 M165,78.2c-0.9-1.4-2.3-2.1-4.3-2.1c-1.9,0-3.3,0.7-4.2,2.1c-0.9,1.4-1.4,3.4-1.4,5.9c0,2.5,0.5,4.5,1.4,6
		c0.9,1.4,2.3,2.1,4.2,2.1c2,0,3.3-0.7,4.3-2.1c0.9-1.4,1.4-3.4,1.4-6C166.4,81.6,165.9,79.6,165,78.2z M165,78.2
		c-0.9-1.4-2.3-2.1-4.3-2.1c-1.9,0-3.3,0.7-4.2,2.1c-0.9,1.4-1.4,3.4-1.4,5.9c0,2.5,0.5,4.5,1.4,6c0.9,1.4,2.3,2.1,4.2,2.1
		c2,0,3.3-0.7,4.3-2.1c0.9-1.4,1.4-3.4,1.4-6C166.4,81.6,165.9,79.6,165,78.2z M105.3,78.2c-0.9-1.4-2.2-2.1-4.2-2.1
		c-2,0-3.3,0.8-4.2,2.1c-0.6,0.9-1,2.1-1.2,3.5h10.6C106.2,80.4,105.9,79.1,105.3,78.2z M68,84.7c-3,0-4.3,1.1-4.3,1.1
		c-0.9,0.6-1.3,1.6-1.3,2.9c0,0.8,0.1,1.5,0.4,1.9c0.2,0.3,0.3,0.4,0.9,0.9c0,0,1.3,1,4.3,0.9c1.1-0.1,2.1-0.2,2.8-0.3
		c0.7-0.1,1.2-0.2,1.2-0.2V85C72,85,70.1,84.7,68,84.7z M68,84.7c-3,0-4.3,1.1-4.3,1.1c-0.9,0.6-1.3,1.6-1.3,2.9
		c0,0.8,0.1,1.5,0.4,1.9c0.2,0.3,0.3,0.4,0.9,0.9c0,0,1.3,1,4.3,0.9c1.1-0.1,2.1-0.2,2.8-0.3c0.7-0.1,1.2-0.2,1.2-0.2V85
		C72,85,70.1,84.7,68,84.7z M105.3,78.2c-0.9-1.4-2.2-2.1-4.2-2.1c-2,0-3.3,0.8-4.2,2.1c-0.6,0.9-1,2.1-1.2,3.5h10.6
		C106.2,80.4,105.9,79.1,105.3,78.2z M105.3,78.2c-0.9-1.4-2.2-2.1-4.2-2.1c-2,0-3.3,0.8-4.2,2.1c-0.6,0.9-1,2.1-1.2,3.5h10.6
		C106.2,80.4,105.9,79.1,105.3,78.2z M68,84.7c-3,0-4.3,1.1-4.3,1.1c-0.9,0.6-1.3,1.6-1.3,2.9c0,0.8,0.1,1.5,0.4,1.9
		c0.2,0.3,0.3,0.4,0.9,0.9c0,0,1.3,1,4.3,0.9c1.1-0.1,2.1-0.2,2.8-0.3c0.7-0.1,1.2-0.2,1.2-0.2V85C72,85,70.1,84.7,68,84.7z
		 M68,84.7c-3,0-4.3,1.1-4.3,1.1c-0.9,0.6-1.3,1.6-1.3,2.9c0,0.8,0.1,1.5,0.4,1.9c0.2,0.3,0.3,0.4,0.9,0.9c0,0,1.3,1,4.3,0.9
		c1.1-0.1,2.1-0.2,2.8-0.3c0.7-0.1,1.2-0.2,1.2-0.2V85C72,85,70.1,84.7,68,84.7z M105.3,78.2c-0.9-1.4-2.2-2.1-4.2-2.1
		c-2,0-3.3,0.8-4.2,2.1c-0.6,0.9-1,2.1-1.2,3.5h10.6C106.2,80.4,105.9,79.1,105.3,78.2z M105.3,78.2c-0.9-1.4-2.2-2.1-4.2-2.1
		c-2,0-3.3,0.8-4.2,2.1c-0.6,0.9-1,2.1-1.2,3.5h10.6C106.2,80.4,105.9,79.1,105.3,78.2z M68,84.7c-3,0-4.3,1.1-4.3,1.1
		c-0.9,0.6-1.3,1.6-1.3,2.9c0,0.8,0.1,1.5,0.4,1.9c0.2,0.3,0.3,0.4,0.9,0.9c0,0,1.3,1,4.3,0.9c1.1-0.1,2.1-0.2,2.8-0.3
		c0.7-0.1,1.2-0.2,1.2-0.2V85C72,85,70.1,84.7,68,84.7z M68,84.7c-3,0-4.3,1.1-4.3,1.1c-0.9,0.6-1.3,1.6-1.3,2.9
		c0,0.8,0.1,1.5,0.4,1.9c0.2,0.3,0.3,0.4,0.9,0.9c0,0,1.3,1,4.3,0.9c1.1-0.1,2.1-0.2,2.8-0.3c0.7-0.1,1.2-0.2,1.2-0.2V85
		C72,85,70.1,84.7,68,84.7z M68,84.7c-3,0-4.3,1.1-4.3,1.1c-0.9,0.6-1.3,1.6-1.3,2.9c0,0.8,0.1,1.5,0.4,1.9c0.2,0.3,0.3,0.4,0.9,0.9
		c0,0,1.3,1,4.3,0.9c1.1-0.1,2.1-0.2,2.8-0.3c0.7-0.1,1.2-0.2,1.2-0.2V85C72,85,70.1,84.7,68,84.7z"/>
</g>
</svg>
