<?xml version="1.0" encoding="utf-8"?>
<!-- Generator: Adobe Illustrator 23.0.1, SVG Export Plug-In . SVG Version: 6.00 Build 0)  -->
<svg version="1.1" id="Layer_1" xmlns="http://www.w3.org/2000/svg" xmlns:xlink="http://www.w3.org/1999/xlink" x="0px" y="0px"
	 viewBox="0 0 3000 3000" style="enable-background:new 0 0 3000 3000;" xml:space="preserve">
<g>
	<path d="M2034.08,1452.33c-24.35,0-44.33,8.48-58.53,24.68l2.75-14.28c0.87-4.52-2.21-8.34-6.73-8.34s-9.08,3.82-9.94,8.34
		l-42.07,218.41c-0.87,4.52,2.21,8.34,6.73,8.34s9.08-3.82,9.95-8.34l15.62-81.12c5.75,10.37,19.09,24.59,49.04,24.59
		c23.43,0,43.08-7.2,58.42-21.42c15.83-14.67,26.63-36.5,32.1-64.9c5.47-28.38,3.06-50.16-7.14-64.73
		C2074.42,1459.48,2057.52,1452.33,2034.08,1452.33z M2003.85,1609.33c-35.63,0-49.73-24.56-40.78-71.02
		c9.04-46.9,31.59-70.68,67.04-70.68c38.74,0,53.11,23.12,43.95,70.68C2064.72,1586.76,2042.41,1609.33,2003.85,1609.33z"/>
	<path d="M2397.08,1529.08c-21.13-7.84-41.1-15.24-37.3-34.94c1.91-9.9,9.94-26.52,42.31-26.52c18.19,0,29.67,5.03,39.62,17.37
		c1.87,2.3,3.99,2.3,4.9,2.3c4.14,0,8.32-3.5,9.12-7.65c0.44-2.25,0.01-3.58-0.98-5.35c-0.04-0.07-0.08-0.14-0.13-0.21
		c-10.1-14.44-26.78-21.76-49.58-21.76c-33.23,0-56.96,16.02-61.94,41.81c-5.94,30.88,21.39,41.21,45.51,50.33
		c20.84,7.88,40.54,15.32,36.89,34.21c-5.14,26.67-33.1,30.65-49.32,30.65c-22.36,0-36.16-6.08-46.17-20.34
		c-0.03-0.04-0.07-0.09-0.1-0.13c-1.24-1.53-2.89-2.3-4.89-2.3c-3.69,0-8.24,3.08-9.12,7.65c-0.44,2.24-0.01,3.56,0.98,5.34
		c6.66,12.47,26.68,25.08,56.36,25.08c37.63,0,63.4-17.18,68.94-45.95C2448.1,1547.99,2420.99,1537.94,2397.08,1529.08z"/>
	<path d="M2346.66,1409.2h-17.6l3.39-17.6c0.87-4.52-2.21-8.34-6.73-8.34c-4.52,0-9.08,3.82-9.95,8.34l-3.39,17.6h-17.6
		c-4.52,0-9.07,3.82-9.94,8.34c-0.87,4.52,2.21,8.34,6.73,8.34h17.6l-3.39,17.6c-0.87,4.52,2.21,8.34,6.73,8.34s9.08-3.82,9.94-8.34
		l3.39-17.6h17.6c4.51,0,9.07-3.82,9.94-8.34C2354.27,1413.03,2351.18,1409.2,2346.66,1409.2z"/>
	<path d="M949.29,1578.71c8.55,4.45,23.94,10.6,38.65,10.26c13.34,0,20.52-7.19,20.52-16.07c0-8.55-5.13-14.36-19.5-22.57
		c-17.78-10.26-31.12-24.63-31.12-43.44c0-33.18,28.39-56.78,69.77-56.78c18.13,0,32.15,3.42,39.67,7.87l-10.94,33.52
		c-6.5-3.08-17.1-6.5-29.41-6.5c-13.34,0-21.89,6.16-21.89,15.73c0,7.52,6.16,13,18.13,19.5c18.47,10.6,33.86,24.97,33.86,45.15
		c0,37.62-30.44,58.83-72.85,58.49c-19.5-0.34-37.63-5.48-46.51-11.63L949.29,1578.71z"/>
	<path d="M1066.61,1622.94l45.83-239.49h47.2l-18.13,92.84l0.68-0.61c12.65-15.05,29.07-25.44,49.93-25.44
		c24.63,0,38.65,15.84,38.65,42.52c0,8.21-1.37,21.48-3.42,31.75l-18.47,98.44h-47.2l17.78-95.49c1.36-6.5,2.06-14.91,2.06-21.4
		c0-10.26-4.1-17.71-14.71-17.71c-15.05,0-31.13,20.1-37.28,51.23l-15.74,83.37H1066.61z"/>
	<path d="M1401.46,1515.78c0,58.49-37.63,108.43-93.38,108.43c-42.41,0-64.98-29.42-64.98-66.02c0-57.12,37.63-108.43,94.4-108.43
		C1381.63,1449.77,1401.46,1481.92,1401.46,1515.78z M1291.33,1557.17c0,17.1,6.84,30.78,22.92,30.78
		c24.96,0,38.99-44.47,38.99-73.54c0-14.02-5.48-28.38-22.23-28.38C1305.35,1486.02,1291.33,1530.14,1291.33,1557.17z"/>
	<path d="M1390.18,1689.46l32.83-172.6c3.77-19.5,7.52-44.72,9.58-62.47h41.73l-2.74,26.61h0.68
		c12.65-17.74,31.13-29.65,49.93-29.65c34.54,0,48.57,27.59,48.57,59.4c0,57.47-36.25,114.07-91.66,114.07
		c-11.63,0-22.23-1.89-27.71-6.32h-1.03l-13,70.96H1390.18z M1457.57,1581.79c5.13,4.1,10.94,6.84,19.5,6.84
		c26.34,0,44.47-43.44,44.47-73.88c0-12.65-4.45-25.99-18.81-25.99c-16.42,0-31.81,19.5-37.28,48.91L1457.57,1581.79z"/>
	<path d="M1572.15,1622.94l31.81-168.53h47.54l-32.15,168.53H1572.15z M1633.38,1436.67c-13.34,0-22.23-11.41-22.23-25.43
		c0-15.39,11.97-28.28,27.02-28.28c14.36,0,23.6,11.3,23.6,24.98c-0.34,17.44-13,28.74-27.7,28.74L1633.38,1436.67L1633.38,1436.67z
		"/>
	<path d="M1660.39,1622.94l24.97-133.05h-21.89l6.84-35.48h21.89l1.37-8.48c3.77-19.84,11.28-39.99,27.36-53.67
		c12.65-10.94,29.41-15.89,46.18-15.89c11.63,0,20.18,1.64,25.65,4.03l-9.23,36.9c-4.1-1.36-8.89-2.41-15.05-2.41
		c-15.74,0-25.32,14.97-28.05,31.05l-1.71,8.47h32.83l-6.5,35.48h-32.49l-24.97,133.05L1660.39,1622.94L1660.39,1622.94z"/>
	<path d="M1830.05,1454.41l7.52,75.44c2.06,16.76,3.42,31,4.1,39.87h0.68c3.77-8.87,7.19-22.09,14.03-40.21l28.73-75.09h49.25
		l-57.8,123.38c-20.52,42.41-40.36,73.32-61.91,93.5c-16.76,15.73-36.6,23.49-46.18,25.54l-13-40.08
		c7.87-2.74,17.78-6.87,26.68-13.36c10.94-7.52,20.18-17.8,25.65-28.4c1.36-2.39,1.71-4.01,1.03-7.43l-28.39-153.14L1830.05,1454.41
		L1830.05,1454.41z"/>
	<path d="M2308.05,1470.26c-4.52,0-9.08,3.82-9.95,8.34l-15.94,82.79c-8.65,42.17-34.55,47.93-58.83,47.93
		c-43.73,0-44.83-24.91-40.14-49.28l18.74-97.3c0.87-4.52-2.21-8.34-6.73-8.34s-9.08,3.82-9.95,8.34l-18.74,97.3
		c-3.77,19.61-2.43,34.25,4.13,44.74c8.22,13.16,24.96,19.83,49.74,19.83c24.78,0,44.08-6.68,57.38-19.83
		c10.6-10.49,17.59-25.13,21.36-44.74l15.68-81.44C2315.65,1474.08,2312.57,1470.26,2308.05,1470.26z"/>
	<path d="M2157.37,1383.72c-4.52,0-9.08,3.82-9.95,8.34l-42.78,222.15c-0.87,4.52,2.21,8.34,6.73,8.34c4.52,0,9.08-3.82,9.95-8.34
		l42.78-222.15C2164.97,1387.54,2161.89,1383.72,2157.37,1383.72z"/>
	<g>
		<path d="M776.15,1348.6c-0.03,0.01-4.3,1.33-11.52,3.57c-1.2-3.91-2.98-8.72-5.51-13.55c-8.16-15.57-20.12-23.82-34.56-23.84
			c-0.02,0-0.03,0-0.05,0c-1,0-2,0.09-3,0.18c-0.42-0.51-0.85-1.02-1.31-1.5c-6.29-6.73-14.37-10.01-24.03-9.73
			c-18.66,0.54-37.24,14.01-52.3,37.94c-10.61,16.84-18.66,38-20.95,54.37c-21.42,6.63-36.41,11.28-36.73,11.38
			c-10.81,3.39-11.15,3.73-12.57,13.92c-1.07,7.71-29.36,226.5-29.36,226.5L779,1688.44v-340.32
			C777.84,1348.2,776.8,1348.41,776.15,1348.6z M721.95,1365.39c-12.42,3.85-25.98,8.05-39.59,12.26
			c3.83-14.65,11.08-29.24,19.99-38.8c3.31-3.55,7.95-7.52,13.44-9.79C720.96,1339.82,722.07,1355.08,721.95,1365.39z
			 M696.53,1316.15c4.38-0.09,8.07,0.87,11.22,2.94c-5.04,2.62-9.92,6.38-14.49,11.28c-11.85,12.71-20.93,32.45-24.55,51.49
			c-11.3,3.5-22.35,6.92-32.51,10.07C642.61,1361.96,667.73,1316.98,696.53,1316.15z M660.23,1486.89
			c1.26,19.97,53.8,24.33,56.75,71.11c2.32,36.8-19.52,61.97-50.99,63.96c-37.77,2.38-58.56-19.9-58.56-19.9l8-34.05
			c0,0,20.93,15.79,37.68,14.73c10.94-0.69,14.85-9.59,14.46-15.89c-1.64-26.05-44.42-24.52-47.13-67.32
			c-2.27-36.02,21.38-72.52,73.58-75.82c20.11-1.27,30.41,3.86,30.41,3.86l-11.94,44.65c0,0-13.31-6.06-29.1-5.07
			C660.24,1468.63,659.99,1483.23,660.23,1486.89z M734.35,1361.54c-0.14-9.45-1.27-22.59-5.67-33.95
			c14.16,2.68,21.13,18.7,24.07,28.25C747.3,1357.54,741.09,1359.46,734.35,1361.54z"/>
		<path d="M786.76,1687.51l97.38-24.21c0,0-41.93-283.48-42.19-285.43c-0.27-1.94-1.97-3.02-3.37-3.14
			c-1.4-0.12-28.82-0.53-28.82-0.53s-16.72-16.23-23-22.38V1687.51z"/>
	</g>
</g>
</svg>
