<?xml version="1.0" encoding="utf-8"?>
<!-- Generator: Adobe Illustrator 23.0.4, SVG Export Plug-In . SVG Version: 6.00 Build 0)  -->
<svg version="1.1" id="Layer_1" xmlns="http://www.w3.org/2000/svg" xmlns:xlink="http://www.w3.org/1999/xlink" x="0px" y="0px"
	 viewBox="0 0 1440 800" style="enable-background:new 0 0 1440 800;" xml:space="preserve">
<style type="text/css">
	.st0{fill:#525252;}
</style>
<g>
	<path class="st0" d="M1047.4,578.1c-51.8-3.3-103.7-6.6-155.5-9.9c-51-3.3-102-6.6-152.9-9.9c-55.7-3.6-111.5-7.1-167.2-10.7
		c-51-3.3-102-6.5-152.9-9.9c-8.5-0.6-16.5,0.6-24.4,3.9c-18.1,7.7-36.4,15.2-54.7,22.6c-1.6,0.7-3.7,0.4-5.5,0.5
		c-0.1-1.8-0.7-3.8-0.2-5.5c2.8-9.8,5.7-19.5,9-29.1c3.2-9.3,3.7-18.5,2.6-28.2c-4.6-42.3-8.9-84.6-13.3-126.8
		c-3.3-31.1-6.5-62.1-9.8-93.2c-0.6-5.8,2-9.1,7.9-9.5c30.8-2.1,61.6-4.1,92.4-6.2c38.7-2.6,77.5-5.3,116.2-7.9
		c42.3-2.8,84.6-5.6,126.9-8.4c49.1-3.3,98.3-6.7,147.4-10c49.6-3.3,99.3-6.6,148.9-9.9c48.4-3.2,96.8-6.5,145.2-9.8
		c0.7,0,1.5-0.1,2.2-0.2c5.6-0.3,8.4,2.4,7.9,7.9c-0.9,10.7-1.8,21.5-2.8,32.2c-3.1,34.2-6.3,68.3-9.4,102.5
		c-3.5,38.4-7.1,76.9-10.6,115.3c-2.8,30.3-5.5,60.5-8.3,90.8c-0.1,1-0.2,2-0.3,2.9c-0.7,6.1-3.7,8.7-9.8,8.4
		C1066.7,579.4,1057,578.8,1047.4,578.1C1047.4,578.1,1047.4,578.1,1047.4,578.1z M516.2,372.7c0.7-11.9-5.4-22.1-16.7-26.4
		c-16.1-6.2-32.7-6.2-49-0.7c-13.1,4.5-18.4,14.1-18.2,30.6c0.1,10.7,6.7,19,18.8,23.2c7.3,2.6,14.6,4.9,21.9,7.4
		c7,2.4,13.9,4.6,20.8,7.2c6.2,2.3,8.4,5.7,8.3,12.3c0,6.8-3.3,11.3-10.8,14c-10.1,3.6-20.5,3.7-30.8,1.2c-8.1-2-14.7-5.9-14.5-15.8
		c-5.8,0-11.3,0-16.9,0c-0.3,13.6,6.2,24.2,19,29.3c17.3,7,35.1,7,52.3-0.2c24-10.1,22.9-40.4,9.4-50.5c-4.5-3.4-9.8-6-15.1-8
		c-12.3-4.5-24.8-8.3-37.3-12.5c-7.2-2.4-9.3-6.1-8.1-13.4c0.9-5.3,4.5-8,9.1-9.6c8.3-2.8,16.9-2.7,25.4-1.5
		c7.9,1.1,14.6,3.8,15.7,13.2C505.3,372.7,510.6,372.7,516.2,372.7z M834.2,344.9c-5.9,0-11.4,0-17.1,0c0,16,0,31.6,0,47.4
		c-17.6,0-34.8,0-52.4,0c0-1.7,0-3.1,0-4.6c0-13.2-0.1-26.5,0.1-39.7c0-2.7-0.8-3.7-3.6-3.5c-3.2,0.2-6.4,0.3-9.5,0
		c-3.3-0.3-4.3,0.8-4.3,4.2c0.1,35.5,0.1,71.1,0.1,106.6c0,1.3,0.1,2.6,0.2,3.9c5.8,0,11.3,0,17.1,0c0-16.7,0-33.2,0-49.8
		c17.7,0,34.9,0,52.4,0c0,1.6,0,2.9,0,4.2c0,14.1,0,28.2,0,42.3c0,1.4-0.8,3.5,1.9,3.6c5,0.1,10,0,15.2,0
		C834.2,421.1,834.2,383.1,834.2,344.9z M927.1,344.9c-0.1,0.9-0.3,1.3-0.3,1.8c0,25.3-0.1,50.5,0,75.8c0.1,9.9,2.6,19.2,9.5,26.7
		c8.3,9,19,11.6,30.7,11.2c17.6-0.6,31.2-11.3,33.9-28.4c1.5-9.5,1.3-19.6,0.3-29.2c-1.4-13-8.4-22.8-21.5-26.6
		c-12.5-3.6-24.9-4.1-36.5,5.7c0-12.8,0-24.8,0-36.9C937.6,344.9,932.5,344.9,927.1,344.9z M659.3,344.9c-0.1,1-0.2,1.6-0.2,2.2
		c0,25.7-0.3,51.5,0.2,77.2c0.1,6.1,1.9,12.8,4.8,18.2c7.3,14,20.2,18.4,35.2,17.9c18-0.6,32.2-12.2,34.3-29.7
		c1.2-10.1,0.9-20.6-0.6-30.7c-2.1-13.8-11.2-22.3-25.1-24.9c-11.4-2.1-22.5-2.1-32.4,7c0-12.9,0-24.9,0-37.1
		C669.8,344.9,664.7,344.9,659.3,344.9z M847.8,376.2c-0.1,1.1-0.3,1.8-0.3,2.6c0,15.1-0.2,30.2,0.1,45.2c0.1,5.5,0.9,11,2.2,16.3
		c2.6,11.1,10,17.6,21.2,19.1c5.9,0.8,12,0.8,17.9,0.2c13.2-1.5,20.5-8.5,23.2-21.4c0.9-4.5,1.5-9.2,1.6-13.8
		c0.2-15,0.1-29.9,0.1-44.9c0-1.1-0.2-2.1-0.2-3.2c-5.4,0-10.5,0-16,0c0,1.6,0,2.9,0,4.2c0,14,0.1,27.9,0,41.9c0,3.5-0.4,7.1-1,10.6
		c-1,5.5-3.9,9.8-9.7,10.6c-4.1,0.6-8.3,0.5-12.4-0.1c-4.3-0.6-7.5-3.4-8.5-7.7c-1-4.5-1.9-9.1-2-13.7c-0.3-14-0.1-27.9-0.1-41.9
		c0-1.3-0.1-2.6-0.2-4C858.1,376.2,853.1,376.2,847.8,376.2z M579.9,376.3c-0.1,0.9-0.3,1.6-0.3,2.3c0,14.6-0.4,29.2,0.1,43.7
		c0.3,7.2,1.6,14.6,3.5,21.6c2.1,7.5,7.7,12.7,15.4,14.3c6.4,1.3,13.1,2.2,19.6,1.7c15.3-1.2,22.8-7.9,25.9-21.6
		c0.5-2,0.9-4.1,1-6.2c0.3-14.9,0.5-29.9,0.7-44.8c0.1-3.7,0-7.3,0-11.1c-5.5,0-10.7,0-16.2,0c0,1.6,0,2.9,0,4.3
		c0,12.9,0.1,25.7,0,38.6c0,4.4-0.3,8.8-1,13.2c-0.9,5.5-3.5,10.3-9.5,11.2c-4.4,0.6-9,0.4-13.4-0.2c-3.9-0.5-6.8-3.3-7.6-7.1
		c-1.1-5-2.1-10.1-2.2-15.2c-0.3-13.6-0.1-27.2-0.1-40.8c0-1.3-0.1-2.6-0.2-3.9C590.2,376.3,585.1,376.3,579.9,376.3z M566.3,376
		c-5.9,0-11.4,0-17.6,0c0-10.6,0-20.8,0-31c-5.8,0-11,0-16.2,0c-0.1,0.8-0.2,1.3-0.2,1.8c0,25.8-0.1,51.7,0,77.5
		c0,8.6,2.5,16.4,7.9,23.2c6.6,8.4,15.4,12.2,26.3,12.8c0-4.6-0.1-8.7,0-12.8c0.1-2.2-0.5-3.2-2.9-3.7c-7.9-1.7-13.2-6.9-14-14.7
		c-1.2-11.9-0.9-23.9-1.3-36.3c6.4,0,12.1,0,17.9,0C566.3,387.2,566.3,381.9,566.3,376z"/>
	<path class="st0" d="M943.6,416.7c0-2.7-0.1-5.4,0-8.1c0.9-14.7,10.1-19.1,22.2-18.6c13.6,0.6,19.5,7.3,19.6,21
		c0,5.7,0.2,11.6-0.7,17.2c-1.7,10.9-9.7,16.3-22.3,15.9c-10.1-0.3-17.5-7.1-18.7-17.2c-0.4-3.4-0.3-6.8-0.5-10.3
		C943.4,416.7,943.5,416.7,943.6,416.7z"/>
	<path class="st0" d="M718.1,417c-0.3,3.9-0.3,7.9-1,11.7c-1.9,10.3-9.6,15.7-21.6,15.5c-10.2-0.1-18.1-6.3-19.2-16.2
		c-0.8-7.5-0.8-15.2,0.1-22.7c1.2-10.5,9.9-16.3,21.8-15.4c12.6,1,18,6.1,19.4,18.6c0.3,2.8,0,5.6,0,8.4
		C717.7,417,717.9,417,718.1,417z"/>
</g>
</svg>
