<svg width="110" height="50" xmlns="http://www.w3.org/2000/svg"><path d="M94.805 21.52l-.255-.674h-.218v.947h.127v-.783l.31.783h.091l.291-.783v.783h.146v-.947h-.236l-.256.674zm-1.33-.565h.292v.838h.146v-.838h.291v-.109h-.728v.11zM32.08 30.24c-.51-.546-.765-1.293-.765-2.239v-4.078h2.46v-2.33h-2.46V17.26H29.02V28c0 1.565.473 2.858 1.402 3.823a4.837 4.837 0 003.133 1.42l.218.018V31.04l-.164-.018a2.642 2.642 0 01-1.53-.783zm-7.831-5.734l-5.519-1.839a2.262 2.262 0 01-.874-.51.883.883 0 01-.31-.618v-.364c0-1.293 1.075-1.948 3.279-1.984h.2c2.204 0 3.333.582 3.46 1.765l.019.182h2.367v-.2c-.109-2.694-2.076-4.077-5.846-4.077h-.237c-3.697.036-5.555 1.492-5.555 4.314v.364c-.006.75.252 1.478.729 2.057.473.564 1.184 1 2.076 1.292l5.464 1.839c.929.31 1.384.819 1.384 1.583v.328c0 .674-.328 1.183-1.002 1.584-.673.4-1.675.619-2.914.619-1.238 0-2.203-.2-2.877-.62-.674-.418-.965-.91-.965-1.583V28.4h-2.35v.237a3.949 3.949 0 001.657 3.313c1.093.8 2.605 1.22 4.535 1.22 1.93 0 3.497-.4 4.572-1.22a3.904 3.904 0 001.657-3.313v-.328a3.7 3.7 0 00-.801-2.384 4.607 4.607 0 00-2.15-1.42zm55.295 3.35c0 1.182-.182 2.02-.528 2.493-.328.437-.911.674-1.749.674h-.11c-.837 0-1.438-.237-1.766-.674-.346-.473-.528-1.31-.528-2.494v-6.261h-2.258v6.261c0 1.912.346 3.313 1.056 4.132.674.801 1.767 1.22 3.26 1.257h.547c1.493-.037 2.586-.456 3.26-1.257.674-.8 1.056-2.22 1.056-4.132v-6.261h-2.258v6.261h.018zm-37.046 0c0 1.182-.182 2.038-.528 2.493-.346.455-.91.674-1.767.674h-.072c-.838 0-1.44-.237-1.767-.674-.346-.473-.528-1.31-.528-2.494v-6.261h-2.259v6.261c0 1.912.346 3.313 1.057 4.132.674.801 1.766 1.22 3.26 1.257h.528c1.494-.037 2.586-.456 3.26-1.257.692-.837 1.056-2.22 1.056-4.132v-6.261h-2.24v6.261zm46.316-4.333c.965 0 1.694.236 2.186.728s.747 1.31.747 2.44v1.292c0 .928-.255 1.692-.783 2.239-.529.546-1.24.819-2.15.819-.91 0-1.639-.273-2.13-.82-.492-.546-.765-1.292-.765-2.238v-1.31c0-1.13.254-1.949.728-2.44.473-.492 1.22-.71 2.167-.71zm0-2.24c-1.22 0-2.185.383-2.895 1.111V17.26h-2.295v10.704c0 1.565.473 2.857 1.402 3.822.929.965 2.204 1.457 3.807 1.457 1.602 0 2.895-.492 3.824-1.457.929-.965 1.402-2.257 1.402-3.822V26.67c-.018-3.568-1.784-5.388-5.245-5.388zm-20.38 2.567h-7.267v-6.625h-2.368v15.891h2.368v-6.954h7.267v6.954h2.386V17.224h-2.386v6.625zm-16.665-.327c.965 0 1.694.236 2.185.728.492.492.747 1.31.747 2.44v1.292c0 .946-.255 1.674-.783 2.239-.528.564-1.22.819-2.15.819-.928 0-1.638-.273-2.13-.82-.492-.546-.765-1.292-.765-2.238v-1.31c0-1.13.255-1.949.728-2.44.474-.492 1.22-.71 2.168-.71zm0-2.24c-1.22 0-2.186.383-2.896 1.111V17.26h-2.295v10.704c0 1.565.474 2.857 1.403 3.822.928.965 2.203 1.457 3.806 1.457 1.603 0 2.896-.492 3.825-1.457.928-.965 1.402-2.257 1.402-3.822V26.67c-.018-3.568-1.766-5.388-5.245-5.388zM2.246 47.678c-.546.219-.856-.054-.673-.619l1.547-5.005c.194-.68.262-1.39.2-2.094L.007 8.395c-.061-.57.35-1.081.92-1.143l.045-.004L109.011.003a.91.91 0 01.984 1.002l-4.39 47.783a1.125 1.125 0 01-1.183 1l-91.794-5.897a5.419 5.419 0 00-2.076.346l-8.306 3.44z" fill="#525252" fill-rule="evenodd"/></svg>