<?xml version="1.0" encoding="UTF-8"?>
<svg width="136px" height="62px" viewBox="0 0 136 62" version="1.1" xmlns="http://www.w3.org/2000/svg" xmlns:xlink="http://www.w3.org/1999/xlink">
    <!-- Generator: Sketch 57.1 (83088) - https://sketch.com -->
    <title>stubhub-logo</title>
    <desc>Created with Sketch.</desc>
    <g id="Page-1" stroke="none" stroke-width="1" fill="none" fill-rule="evenodd">
        <g id="stubhub-logo" fill="#525252" fill-rule="nonzero">
            <path d="M123.937688,61.5033149 C115.087437,60.9381215 106.220101,60.3729282 97.3698492,59.8077348 C88.6562814,59.2425414 79.9427136,58.6773481 71.2462312,58.1121547 C61.7296482,57.4955801 52.1959799,56.8961326 42.679397,56.279558 C33.9658291,55.7143646 25.2522613,55.1662983 16.5557789,54.5839779 C15.1035176,54.4812155 13.7366834,54.6867403 12.3869347,55.2519337 C9.29447236,56.5707182 6.1678392,57.8552486 3.04120603,59.1226519 C2.7678392,59.2425414 2.40904523,59.1911602 2.10150754,59.2082873 C2.08442211,58.9 1.98190955,58.5574586 2.06733668,58.2662983 C2.54572864,56.5878453 3.04120603,54.9265193 3.60502513,53.2823204 C4.15175879,51.6895028 4.23718593,50.1138122 4.04924623,48.4524862 C3.26331658,41.2077348 2.52864322,33.9629834 1.77688442,26.7353591 C1.21306533,21.4088398 0.666331658,16.0994475 0.102512563,10.7729282 C1.4974133e-14,9.77955801 0.444221106,9.21436464 1.45226131,9.14585635 C6.71457286,8.78618785 11.9768844,8.44364641 17.239196,8.0839779 C23.8512563,7.63867403 30.480402,7.17624309 37.0924623,6.73093923 C44.319598,6.25138122 51.5467337,5.7718232 58.7738693,5.29226519 C67.1628141,4.72707182 75.5688442,4.14475138 83.9577889,3.57955801 C92.4321608,3.01436464 100.923618,2.44917127 109.39799,1.8839779 C117.667337,1.3359116 125.936683,0.770718232 134.20603,0.205524862 C134.325628,0.205524862 134.462312,0.18839779 134.58191,0.171270718 C135.538693,0.119889503 136.017085,0.582320442 135.931658,1.52430939 C135.777889,3.35690608 135.624121,5.20662983 135.453266,7.03922652 C134.923618,12.8966851 134.376884,18.7370166 133.847236,24.5944751 C133.249246,31.1712707 132.634171,37.7651934 132.036181,44.341989 C131.557789,49.5314917 131.096482,54.7038674 130.61809,59.8933702 C130.601005,60.0646409 130.58392,60.2359116 130.566834,60.3900552 C130.447236,61.4348066 129.934673,61.8801105 128.892462,61.8287293 C127.235176,61.7259669 125.577889,61.6232044 123.937688,61.5033149 C123.937688,61.5033149 123.937688,61.5033149 123.937688,61.5033149 Z M33.1798995,26.3243094 C33.2994975,24.2861878 32.2572864,22.5392265 30.3266332,21.8027624 C27.5758794,20.740884 24.7396985,20.740884 21.9547739,21.6828729 C19.7165829,22.4535912 18.8110553,24.0977901 18.8452261,26.9237569 C18.8623116,28.7563536 19.9899497,30.1779006 22.0572864,30.8972376 C23.3045226,31.3425414 24.5517588,31.7364641 25.798995,32.1646409 C26.9949749,32.5756906 28.1738693,32.9524862 29.3527638,33.3977901 C30.4120603,33.7917127 30.7879397,34.3740331 30.7708543,35.5044199 C30.7708543,36.6690608 30.2070352,37.439779 28.9256281,37.9022099 C27.2,38.5187845 25.4231156,38.5359116 23.6633166,38.1077348 C22.279397,37.7651934 21.1517588,37.0972376 21.1859296,35.4016575 C20.1949749,35.4016575 19.2552764,35.4016575 18.2984925,35.4016575 C18.2472362,37.7309392 19.3577889,39.5464088 21.5447236,40.4198895 C24.5005025,41.6187845 27.5417085,41.6187845 30.480402,40.3856354 C34.5809045,38.6558011 34.3929648,33.4662983 32.0864322,31.7364641 C31.3175879,31.1541436 30.4120603,30.7088398 29.5065327,30.3662983 C27.4050251,29.5955801 25.2693467,28.9447514 23.1336683,28.2254144 C21.9035176,27.8143646 21.5447236,27.180663 21.7497487,25.9303867 C21.9035176,25.0226519 22.518593,24.560221 23.3045226,24.2861878 C24.7226131,23.8066298 26.1919598,23.8237569 27.6442211,24.0292818 C28.9939698,24.2176796 30.1386935,24.6801105 30.3266332,26.2900552 C31.3175879,26.3243094 32.2231156,26.3243094 33.1798995,26.3243094 Z M87.5115578,21.5629834 C86.5035176,21.5629834 85.5638191,21.5629834 84.5899497,21.5629834 C84.5899497,24.3033149 84.5899497,26.9751381 84.5899497,29.6812155 C81.5829146,29.6812155 78.6442211,29.6812155 75.6371859,29.6812155 C75.6371859,29.3900552 75.6371859,29.1502762 75.6371859,28.8933702 C75.6371859,26.6325967 75.6201005,24.3546961 75.6542714,22.0939227 C75.6542714,21.6314917 75.5175879,21.460221 75.039196,21.4944751 C74.4924623,21.5287293 73.9457286,21.5458564 73.4160804,21.4944751 C72.8522613,21.4430939 72.681407,21.6314917 72.681407,22.2138122 C72.6984925,28.2939227 72.6984925,34.3911602 72.6984925,40.4712707 C72.6984925,40.6939227 72.7155779,40.9165746 72.7326633,41.1392265 C73.7236181,41.1392265 74.6633166,41.1392265 75.6542714,41.1392265 C75.6542714,38.2790055 75.6542714,35.4530387 75.6542714,32.6099448 C78.678392,32.6099448 81.6170854,32.6099448 84.6070352,32.6099448 C84.6070352,32.8839779 84.6070352,33.1066298 84.6070352,33.3292818 C84.6070352,35.7441989 84.6070352,38.159116 84.6070352,40.5740331 C84.6070352,40.8138122 84.4703518,41.1734807 84.9316583,41.1906077 C85.7859296,41.2077348 86.640201,41.1906077 87.5286432,41.1906077 C87.5115578,34.6138122 87.5115578,28.1055249 87.5115578,21.5629834 Z M103.38392,21.5629834 C103.366834,21.7171271 103.332663,21.7856354 103.332663,21.8712707 C103.332663,26.2044199 103.315578,30.520442 103.332663,34.8535912 C103.349749,36.5491713 103.776884,38.141989 104.955779,39.4265193 C106.373869,40.9679558 108.20201,41.4132597 110.201005,41.3447514 C113.20804,41.241989 115.531658,39.4093923 115.992965,36.480663 C116.249246,34.8535912 116.215075,33.1237569 116.044221,31.479558 C115.805025,29.2530387 114.609045,27.5745856 112.370854,26.9237569 C110.235176,26.3071823 108.116583,26.221547 106.134673,27.9 C106.134673,25.7077348 106.134673,23.6524862 106.134673,21.5801105 C105.177889,21.5629834 104.306533,21.5629834 103.38392,21.5629834 Z M57.6291457,21.5629834 C57.6120603,21.7342541 57.5949749,21.8370166 57.5949749,21.939779 C57.5949749,26.3414365 57.5437186,30.760221 57.6291457,35.1618785 C57.6462312,36.2066298 57.9537688,37.3541436 58.4492462,38.2790055 C59.6964824,40.6767956 61.9005025,41.4303867 64.4633166,41.3447514 C67.5386935,41.241989 69.9648241,39.2552486 70.3236181,36.258011 C70.5286432,34.5281768 70.4773869,32.7298343 70.2211055,31 C69.8623116,28.6364641 68.3075377,27.180663 65.9326633,26.7353591 C63.9849246,26.3756906 62.0884422,26.3756906 60.3969849,27.9342541 C60.3969849,25.7248619 60.3969849,23.6696133 60.3969849,21.5801105 C59.4231156,21.5629834 58.5517588,21.5629834 57.6291457,21.5629834 Z M89.8351759,26.9237569 C89.8180905,27.1121547 89.7839196,27.2320442 89.7839196,27.3690608 C89.7839196,29.9552486 89.7497487,32.5414365 89.801005,35.1104972 C89.8180905,36.0524862 89.9547739,36.9944751 90.1768844,37.9022099 C90.6211055,39.8033149 91.8854271,40.9165746 93.798995,41.1734807 C94.8070352,41.3104972 95.8492462,41.3104972 96.8572864,41.2077348 C99.1125628,40.9508287 100.359799,39.7519337 100.821106,37.5425414 C100.974874,36.7718232 101.077387,35.9668508 101.094472,35.1790055 C101.128643,32.6099448 101.111558,30.058011 101.111558,27.4889503 C101.111558,27.3005525 101.077387,27.1292818 101.077387,26.940884 C100.154774,26.940884 99.2834171,26.940884 98.3437186,26.940884 C98.3437186,27.2149171 98.3437186,27.4375691 98.3437186,27.660221 C98.3437186,30.058011 98.360804,32.438674 98.3437186,34.8364641 C98.3437186,35.4359116 98.2753769,36.0524862 98.1728643,36.6519337 C98.0020101,37.5939227 97.5065327,38.3303867 96.5155779,38.4674033 C95.8150754,38.5701657 95.0974874,38.5530387 94.3969849,38.4502762 C93.6623116,38.3475138 93.1155779,37.8679558 92.9447236,37.1314917 C92.7738693,36.3607735 92.6201005,35.5729282 92.6030151,34.7850829 C92.5517588,32.3872928 92.5859296,30.0066298 92.5859296,27.6088398 C92.5859296,27.3861878 92.5688442,27.1635359 92.5517588,26.9237569 C91.5949749,26.9237569 90.7407035,26.9237569 89.8351759,26.9237569 Z M44.0633166,26.940884 C44.0462312,27.0950276 44.0120603,27.2149171 44.0120603,27.3348066 C44.0120603,29.8353591 43.9437186,32.3359116 44.0291457,34.819337 C44.080402,36.0524862 44.3025126,37.3198895 44.6271357,38.5187845 C44.9859296,39.8033149 45.9427136,40.6939227 47.2582915,40.9679558 C48.3517588,41.1906077 49.4964824,41.3447514 50.6070352,41.259116 C53.2211055,41.0535912 54.5025126,39.9060773 55.0321608,37.5596685 C55.1175879,37.2171271 55.1859296,36.8574586 55.2030151,36.4977901 C55.2542714,33.9458564 55.2884422,31.3767956 55.3226131,28.8248619 C55.3396985,28.1911602 55.3226131,27.5745856 55.3226131,26.9237569 C54.3829146,26.9237569 53.4944724,26.9237569 52.5547739,26.9237569 C52.5547739,27.1977901 52.5547739,27.420442 52.5547739,27.660221 C52.5547739,29.8696133 52.5718593,32.0618785 52.5547739,34.2712707 C52.5547739,35.0248619 52.5035176,35.778453 52.3839196,36.5320442 C52.2301508,37.4740331 51.7859296,38.2961326 50.760804,38.4502762 C50.0090452,38.5530387 49.2231156,38.5187845 48.4713568,38.4160221 C47.8050251,38.3303867 47.3095477,37.8508287 47.1728643,37.2 C46.9849246,36.3436464 46.8140704,35.4701657 46.7969849,34.5966851 C46.7457286,32.2674033 46.7798995,29.9381215 46.7798995,27.6088398 C46.7798995,27.3861878 46.7628141,27.1635359 46.7457286,26.940884 C45.8231156,26.940884 44.9517588,26.940884 44.0633166,26.940884 Z M41.7396985,26.8895028 C40.7316583,26.8895028 39.7919598,26.8895028 38.7326633,26.8895028 C38.7326633,25.0740331 38.7326633,23.3270718 38.7326633,21.5801105 C37.7417085,21.5801105 36.8532663,21.5801105 35.9648241,21.5801105 C35.9477387,21.7171271 35.9306533,21.8027624 35.9306533,21.8883978 C35.9306533,26.3071823 35.9135678,30.7430939 35.9306533,35.1618785 C35.9306533,36.6348066 36.3577889,37.9707182 37.280402,39.1353591 C38.4080402,40.5740331 39.9115578,41.2248619 41.7738693,41.3276243 C41.7738693,40.539779 41.7567839,39.8375691 41.7738693,39.1353591 C41.7909548,38.7585635 41.6884422,38.5872928 41.278392,38.5016575 C39.9286432,38.2104972 39.0231156,37.3198895 38.8864322,35.9839779 C38.681407,33.9458564 38.7326633,31.8906077 38.6643216,29.7668508 C39.7577889,29.7668508 40.7316583,29.7668508 41.7226131,29.7668508 C41.7396985,28.8077348 41.7396985,27.9 41.7396985,26.8895028 Z" id="Shape"></path>
            <path d="M106.203015,33.860221 C106.203015,33.3977901 106.18593,32.9353591 106.203015,32.4729282 C106.356784,29.9552486 107.928643,29.2016575 109.99598,29.2872928 C112.319598,29.3900552 113.327638,30.5375691 113.344724,32.8839779 C113.344724,33.860221 113.378894,34.8707182 113.225126,35.8298343 C112.934673,37.6966851 111.567839,38.621547 109.415075,38.5530387 C107.689447,38.5016575 106.425126,37.3370166 106.220101,35.6071823 C106.151759,35.0248619 106.168844,34.4425414 106.134673,33.8430939 C106.168844,33.860221 106.18593,33.860221 106.203015,33.860221 Z" id="Path"></path>
            <path d="M67.6753769,33.9116022 C67.6241206,34.579558 67.6241206,35.2646409 67.5045226,35.9154696 C67.1798995,37.679558 65.8643216,38.6044199 63.8140704,38.5701657 C62.0713568,38.5530387 60.721608,37.4911602 60.5336683,35.7955801 C60.3969849,34.5110497 60.3969849,33.1922652 60.5507538,31.9077348 C60.7557789,30.1093923 62.2422111,29.1160221 64.2753769,29.2701657 C66.4281407,29.4414365 67.3507538,30.3149171 67.5899497,32.4558011 C67.641206,32.9353591 67.5899497,33.4149171 67.5899497,33.8944751 C67.6070352,33.9116022 67.641206,33.9116022 67.6753769,33.9116022 Z" id="Path"></path>
        </g>
    </g>
</svg>
