<?xml version="1.0" encoding="UTF-8"?>
<svg viewBox="0 0 134 17" version="1.1" xmlns="http://www.w3.org/2000/svg" xmlns:xlink="http://www.w3.org/1999/xlink">
    <path d="M7.5668642,3.72553086 C6.96469136,2.68330864 6.24340741,2.08444444 4.96296296,2.08444444 C3.62296296,2.08444444 2.46162963,3.04395062 2.46162963,4.42696296 C2.46162963,5.72725926 3.80162963,6.32612346 4.824,6.78933333 L5.82320988,7.22938272 C7.78523457,8.08962963 9.44617284,9.06898765 9.44617284,11.4710617 C9.44617284,14.1146667 7.32533333,16.1329435 4.70158025,16.1329435 C2.28296296,16.1362469 0.479753086,14.5712593 0,12.2320494 L1.64108642,11.7721481 C1.85945679,13.3106667 3.04064198,14.5745679 4.66187654,14.5745679 C6.28311111,14.5745679 7.76538272,13.3338272 7.76538272,11.6331852 C7.76538272,9.86967901 6.38567901,9.27081481 4.98281481,8.62893827 L4.06301235,8.22859259 C2.29950617,7.42790123 0.780839506,6.52795062 0.780839506,4.36740741 C0.780839506,2.02488889 2.76271605,0.522765432 5.00266667,0.522765432 C6.68345679,0.522765432 8.1028642,1.38301235 8.90355556,2.86528395 L7.5668642,3.72553086 Z" id="Path" fill="#525252"></path>
    <path d="M16.7516543,9.77041975 C16.7516543,10.8920494 16.7119506,12.1724938 17.4100741,13.132 C18.0718025,14.0518025 19.3522469,14.5712593 20.450716,14.5712593 C21.532642,14.5712593 22.7138272,14.0716543 23.4119506,13.2312593 C24.212642,12.2717531 24.1530864,10.9516049 24.1530864,9.77041975 L24.1530864,0.784148148 L25.8338765,0.784148148 L25.8338765,10.230321 C25.8338765,11.8714074 25.7147654,13.1717037 24.5137284,14.4157531 C23.4715062,15.5373827 21.9726914,16.1362469 20.450716,16.1362469 C19.0313086,16.1362469 17.5688889,15.5969383 16.5498272,14.5944198 C15.229679,13.3338272 15.0708642,11.9508148 15.0708642,10.230321 L15.0708642,0.784148148 L16.7516543,0.784148148 L16.7516543,9.77041975 Z" id="Path" fill="#525252"></path>
    <polygon id="Path" fill="#525252" points="31.7199506 0.142271605 43.4887901 12.4702716 43.4887901 0.784148148 45.1695802 0.784148148 45.1695802 16.5564444 33.4007407 4.2482963 33.4007407 15.8748642 31.7199506 15.8748642"></polygon>
    <path d="M53.1963457,2.34251852 L53.8183704,2.34251852 C55.7803951,2.34251852 57.7622716,2.52118519 57.7622716,4.98612346 C57.7622716,7.14666667 56.1807407,7.7091358 54.321284,7.7091358 L53.1996543,7.7091358 L53.1996543,2.34251852 L53.1963457,2.34251852 Z M53.1963457,9.27081481 L54.4172346,9.27081481 C55.6778272,9.27081481 56.9814321,9.112 58.0004938,8.27160494 C58.9401481,7.49076543 59.4397531,6.25002469 59.4397531,5.0291358 C59.4397531,3.6891358 58.8607407,2.36898765 57.7391111,1.58814815 C56.6373333,0.827160494 55.2973333,0.78745679 53.997037,0.78745679 L51.5155556,0.78745679 L51.5155556,15.8781728 L53.1963457,15.8781728 L53.1963457,9.27081481 L53.1963457,9.27081481 Z" id="Shape" fill="#525252"></path>
    <polygon id="Path" fill="#525252" points="86.5573827 12.0897778 91.4409383 0 96.3211852 12.0897778 100.284938 0.780839506 102.104691 0.780839506 96.3211852 16.6523951 91.4409383 4.50306173 86.5573827 16.6523951 80.7738765 0.780839506 82.5936296 0.780839506"></polygon>
    <polygon id="Path" fill="#525252" points="105.869926 0.784148148 113.694864 0.784148148 113.694864 2.34582716 107.550716 2.34582716 107.550716 6.82903704 113.516198 6.82903704 113.516198 8.39071605 107.550716 8.39071605 107.550716 14.3131852 113.694864 14.3131852 113.694864 15.8748642 105.869926 15.8748642 105.869926 0.784148148"></polygon>
    <path d="M121.040049,2.34251852 L121.539654,2.34251852 C123.561235,2.34251852 125.380988,2.58404938 125.380988,5.06553086 C125.380988,7.40804938 123.458667,7.76869136 121.559506,7.76869136 L121.040049,7.76869136 L121.040049,2.34251852 L121.040049,2.34251852 Z M121.040049,9.25096296 L121.460247,9.25096296 L126.022864,15.8748642 L128.084148,15.8748642 L123.28,9.10869136 C125.602667,8.91017284 127.065086,7.26908642 127.065086,4.94641975 C127.065086,1.5451358 124.404938,0.784148148 121.542963,0.784148148 L119.362568,0.784148148 L119.362568,15.8748642 L121.043358,15.8748642 L121.043358,9.25096296 L121.040049,9.25096296 Z" id="Shape" fill="#525252"></path>
    <path d="M7.5668642,3.72553086 C6.96469136,2.68330864 6.24340741,2.08444444 4.96296296,2.08444444 C3.62296296,2.08444444 2.46162963,3.04395062 2.46162963,4.42696296 C2.46162963,5.72725926 3.80162963,6.32612346 4.824,6.78933333 L5.82320988,7.22938272 C7.78523457,8.08962963 9.44617284,9.06898765 9.44617284,11.4710617 C9.44617284,14.1146667 7.32533333,16.1329435 4.70158025,16.1329435 C2.28296296,16.1362469 0.479753086,14.5712593 0,12.2320494 L1.64108642,11.7721481 C1.85945679,13.3106667 3.04064198,14.5745679 4.66187654,14.5745679 C6.28311111,14.5745679 7.76538272,13.3338272 7.76538272,11.6331852 C7.76538272,9.86967901 6.38567901,9.27081481 4.98281481,8.62893827 L4.06301235,8.22859259 C2.29950617,7.42790123 0.780839506,6.52795062 0.780839506,4.36740741 C0.780839506,2.02488889 2.76271605,0.522765432 5.00266667,0.522765432 C6.68345679,0.522765432 8.1028642,1.38301235 8.90355556,2.86528395 L7.5668642,3.72553086 Z" id="Path" fill="#525252"></path>
    <path d="M16.7516543,9.77041975 C16.7516543,10.8920494 16.7119506,12.1724938 17.4100741,13.132 C18.0718025,14.0518025 19.3522469,14.5712593 20.450716,14.5712593 C21.532642,14.5712593 22.7138272,14.0716543 23.4119506,13.2312593 C24.212642,12.2717531 24.1530864,10.9516049 24.1530864,9.77041975 L24.1530864,0.784148148 L25.8338765,0.784148148 L25.8338765,10.230321 C25.8338765,11.8714074 25.7147654,13.1717037 24.5137284,14.4157531 C23.4715062,15.5373827 21.9726914,16.1362469 20.450716,16.1362469 C19.0313086,16.1362469 17.5688889,15.5969383 16.5498272,14.5944198 C15.229679,13.3338272 15.0708642,11.9508148 15.0708642,10.230321 L15.0708642,0.784148148 L16.7516543,0.784148148 L16.7516543,9.77041975 Z" id="Path" fill="#525252"></path>
    <polygon id="Path" fill="#525252" points="31.7199506 0.142271605 43.4887901 12.4702716 43.4887901 0.784148148 45.1695802 0.784148148 45.1695802 16.5564444 33.4007407 4.2482963 33.4007407 15.8748642 31.7199506 15.8748642"></polygon>
    <path d="M53.1963457,2.34251852 L53.8183704,2.34251852 C55.7803951,2.34251852 57.7622716,2.52118519 57.7622716,4.98612346 C57.7622716,7.14666667 56.1807407,7.7091358 54.321284,7.7091358 L53.1996543,7.7091358 L53.1996543,2.34251852 L53.1963457,2.34251852 Z M53.1963457,9.27081481 L54.4172346,9.27081481 C55.6778272,9.27081481 56.9814321,9.112 58.0004938,8.27160494 C58.9401481,7.49076543 59.4397531,6.25002469 59.4397531,5.0291358 C59.4397531,3.6891358 58.8607407,2.36898765 57.7391111,1.58814815 C56.6373333,0.827160494 55.2973333,0.78745679 53.997037,0.78745679 L51.5155556,0.78745679 L51.5155556,15.8781728 L53.1963457,15.8781728 L53.1963457,9.27081481 L53.1963457,9.27081481 Z" id="Shape" fill="#525252"></path>
    <polygon id="Path" fill="#525252" points="86.5573827 12.0897778 91.4409383 0 96.3211852 12.0897778 100.284938 0.780839506 102.104691 0.780839506 96.3211852 16.6523951 91.4409383 4.50306173 86.5573827 16.6523951 80.7738765 0.780839506 82.5936296 0.780839506"></polygon>
    <polygon id="Path" fill="#525252" points="105.869926 0.784148148 113.694864 0.784148148 113.694864 2.34582716 107.550716 2.34582716 107.550716 6.82903704 113.516198 6.82903704 113.516198 8.39071605 107.550716 8.39071605 107.550716 14.3131852 113.694864 14.3131852 113.694864 15.8748642 105.869926 15.8748642 105.869926 0.784148148"></polygon>
    <path d="M121.040049,2.34251852 L121.539654,2.34251852 C123.561235,2.34251852 125.380988,2.58404938 125.380988,5.06553086 C125.380988,7.40804938 123.458667,7.76869136 121.559506,7.76869136 L121.040049,7.76869136 L121.040049,2.34251852 L121.040049,2.34251852 Z M121.040049,9.25096296 L121.460247,9.25096296 L126.022864,15.8748642 L128.084148,15.8748642 L123.28,9.10869136 C125.602667,8.91017284 127.065086,7.26908642 127.065086,4.94641975 C127.065086,1.5451358 124.404938,0.784148148 121.542963,0.784148148 L119.362568,0.784148148 L119.362568,15.8748642 L121.043358,15.8748642 L121.043358,9.25096296 L121.040049,9.25096296 Z" id="Shape" fill="#525252"></path>
    <path d="M78.4611358,8.35101235 C78.4611358,12.7515062 74.9738272,16.0932346 70.5468642,16.0932346 C66.2158519,16.0932346 62.7285432,12.5926914 62.7285432,8.38409877 C62.7285432,4.10933333 66.1827654,0.608790123 70.5468642,0.608790123 C74.9738272,0.608790123 78.4611358,3.95051852 78.4611358,8.35101235 Z M64.4986667,8.38409877 C64.4986667,11.5934815 67.0694815,14.4356049 70.4476049,14.4356049 C73.9481481,14.4356049 76.6744691,11.8085432 76.6744691,8.38409877 C76.6744691,4.90009877 73.9779259,2.27303704 70.4476049,2.27303704 C67.0397037,2.27303704 64.4986667,5.11516049 64.4986667,8.38409877 Z" id="Shape" fill="#525252"></path>
    <path d="M128.78558,3.09358025 C128.78558,2.68330864 128.888148,2.29950617 129.093284,1.94217284 C129.29842,1.58483951 129.579654,1.3002963 129.936988,1.09516049 C130.294321,0.890024691 130.681432,0.784148148 131.095012,0.784148148 C131.505284,0.784148148 131.889086,0.886716049 132.24642,1.09185185 C132.603753,1.29698765 132.888296,1.57822222 133.093432,1.93555556 C133.298568,2.29288889 133.404444,2.68 133.404444,3.09358025 C133.404444,3.49723457 133.305185,3.87441975 133.106667,4.22844444 C132.908148,4.58246914 132.630222,4.86701235 132.272889,5.07876543 C131.915556,5.29051852 131.521827,5.3997037 131.098321,5.3997037 C130.674815,5.3997037 130.284395,5.29382716 129.923753,5.08207407 C129.56642,4.87032099 129.285185,4.58577778 129.086667,4.23175309 C128.88484,3.8777284 128.78558,3.49723457 128.78558,3.09358025 Z M129.070123,3.09358025 C129.070123,3.45753086 129.159457,3.79501235 129.341432,4.10602469 C129.523407,4.41703704 129.768247,4.66187654 130.079259,4.84385185 C130.390272,5.02582716 130.727753,5.11846914 131.091704,5.11846914 C131.455654,5.11846914 131.793136,5.0291358 132.104148,4.84716049 C132.41516,4.66518519 132.66,4.42034568 132.841975,4.10933333 C133.023951,3.79832099 133.116593,3.46083951 133.116593,3.09688889 C133.116593,2.73955556 133.030568,2.40869136 132.85521,2.09767901 C132.679852,1.78997531 132.435012,1.53851852 132.120691,1.34992593 C131.80637,1.16133333 131.46558,1.06869136 131.095012,1.06869136 C130.73437,1.06869136 130.396889,1.15802469 130.085877,1.34 C129.774864,1.52197531 129.526716,1.77012346 129.344741,2.08444444 C129.162765,2.39876543 129.070123,2.73293827 129.070123,3.09358025 Z M131.918864,2.51787654 C131.918864,2.68 131.87916,2.8222716 131.799753,2.94469136 C131.720346,3.06711111 131.607852,3.16637037 131.458963,3.23585185 L132.186864,4.44350617 L131.816296,4.44350617 L131.171111,3.33841975 L130.654963,3.33841975 L130.654963,4.44350617 L130.343951,4.44350617 L130.343951,1.74034568 L130.992444,1.74034568 C131.283605,1.74034568 131.511901,1.80320988 131.674025,1.93224691 C131.836148,2.05797531 131.918864,2.25318519 131.918864,2.51787654 Z M130.654963,3.09358025 L130.999062,3.09358025 C131.184346,3.09358025 131.333235,3.04725926 131.439111,2.95130864 C131.544988,2.85535802 131.597926,2.71639506 131.597926,2.53441975 C131.597926,2.1837037 131.396099,2.00503704 130.992444,2.00503704 L130.654963,2.00503704 L130.654963,3.09358025 L130.654963,3.09358025 Z" id="Shape" fill="#525252"></path>
</svg>
