<?xml version="1.0" encoding="UTF-8"?>
<svg viewBox="0 0 116 55" version="1.1" xmlns="http://www.w3.org/2000/svg" xmlns:xlink="http://www.w3.org/1999/xlink">
  <path d="M0,0 L116,0 L116,54.3496503 L0,54.3496503 L0,0 Z M18.3390238,32.4163075 L18.3577827,32.3853574 C18.9830769,36.9783603 22.1470658,40.1538462 27.111902,40.1538462 C33.4773974,40.1538462 37.4167511,35.7527342 37.96701,29.8783949 L39.3426573,14.6013986 L34.384074,14.6013986 L32.977162,30.0764758 C32.6832737,32.9796003 30.8261498,35.3565722 27.5245962,35.3565722 C24.2230426,35.3565722 22.9224306,33.0229306 23.2163189,29.7484042 L24.5732074,14.6509188 L19.6146241,14.6509188 L18.2639885,29.6431737 C18.2340269,30.5682084 18.2590819,31.494187 18.3390238,32.4163075 Z M39.809358,27.3235913 L39.809358,27.2865631 C39.2064578,33.9824874 43.0625066,40.1538462 51.4842677,40.1538462 C53.9202349,40.1279107 56.3090363,39.4906081 58.4238993,38.3024385 L58.9765578,32.2174788 C56.4895948,34.6860223 54.1156755,35.3031582 51.8736407,35.3031582 C46.7741105,35.3031582 44.4064714,31.6805706 44.8021246,27.2248495 C45.2166185,22.6518727 48.1243555,19.0354564 53.4185723,19.0354564 C55.566404,19.0354564 57.9026419,19.4551088 59.8683476,21.9791946 L60.4335664,16.0485188 C58.4897187,14.8072434 56.2138234,14.1627337 53.8958682,14.1971111 C45.3861841,14.1971111 40.4373789,20.146301 39.809358,27.3235913 Z M64.289572,14.6013986 L62.0559441,39.7482517 L76.6149671,39.7482517 C76.6149671,39.7482517 77.0629371,35.2677434 77.0629371,35.0188263 C76.6087453,35.0686097 74.928858,35.0686097 74.4311137,35.0686097 L67.4129179,35.0686097 L69.2110195,14.6013986 L64.289572,14.6013986 Z M89.4710076,23.7862639 C89.6237345,23.4520824 89.7451769,23.1044925 89.8337807,22.7479422 L89.9075651,22.7479422 C89.9365903,23.103068 89.9983389,23.4547613 90.092026,23.7985517 C90.35642,24.9290322 92.2502186,31.2142575 92.2502186,31.2142575 L86.1015217,31.2142575 C86.1015217,31.2142575 89.3910745,23.9521496 89.4587102,23.7924078 L89.4710076,23.7862639 Z M90.6884496,13.3846154 L90.3502713,13.3846154 L77.0629371,39.3426573 L82.2278425,39.3426573 L84.0724516,35.4044077 L93.4553633,35.4044077 L94.6236157,39.3426573 L99.7762238,39.3426573 L90.6884496,13.3846154 Z" id="Combined-Shape" fill="#525252"></path>
</svg>
