<?xml version="1.0" encoding="utf-8"?>
<!-- Generator: Adobe Illustrator 23.0.4, SVG Export Plug-In . SVG Version: 6.00 Build 0)  -->
<svg version="1.1" id="Layer_1" xmlns="http://www.w3.org/2000/svg" xmlns:xlink="http://www.w3.org/1999/xlink" x="0px" y="0px"
	 viewBox="0 0 1440 800" style="enable-background:new 0 0 1440 800;" xml:space="preserve">
<style type="text/css">
	.st0{fill:#525252;}
</style>
<g>
	<path class="st0" d="M728,200c5.4,0.7,10.9,1.2,16.3,2.1c28.3,4.6,52.8,16.9,73.6,36.6c14.7,13.9,25.8,30.4,34,48.9
		c0.2,0.6,0.5,1.1,0.7,1.7c0.1,0.1,0,0.3-0.1,0.8c-0.4-0.6-0.7-1.1-1-1.6c-20.6-39-52.8-63.2-95.2-74.2c-11.3-2.9-22.5-3.7-33.5,0.6
		c-3.8,1.5-7.2,3.9-10.8,6.1c-1.1,0.7-1.8,1.8-3.3,3.4c3.2,0.8,5.7,1.6,8.2,2c3.5,0.6,6.7,1.1,8.6,4.8c0.5,0.9,2.3,1.2,3.5,1.8
		c0.4-1.1,1-2.1,1.1-3.2c0.2-2.8,0.5-3.2,3.4-4.1c-1.7-1.8-5.7-2.5-3.3-6.1c4.5,0,8.5,1.2,12,4.3c0.6,0.5,2.3,0.6,2.9,0.1
		c1.6-1.2,2.7-0.6,4,0.2c4.1,2.7,8.3,5.4,13.1,8.6c-1.7,0.7-3,1.6-4.4,1.6c-2.1,0-4.2-0.8-6.3-0.9c-1.2,0-2.5,0.7-3.7,1
		c0.6,1.2,1.1,2.7,2,3.6c0.9,1,2.4,1.4,3.6,2.1c0,0.3,0.1,0.6,0.1,0.9c-2.6,0.7-5.2,1.3-8.1,2.1c-0.1,2.3-1.6,4.2-4.2,5.5
		c-1.2,0.6-2,2.2-2.5,3.6c-2.1,5.9-5.8,10.3-11.5,13.2c-3.1,1.6-3.4,3.1-2.1,6.4c1.4,3.6,3.4,7,2.2,11.3c-2.3-0.1-3.1-1.8-3.8-3.5
		c-0.8-1.9-1.2-3.9-1.9-5.8c-0.7-2.1-2.1-2.7-4.4-2.2c-2.2,0.5-4.6,0.3-7,0.3c-1.3,0-2.9-0.4-3.9,0.2c-2.5,1.5-5,1.2-7.7,1
		c-4.8-0.4-8.9,1.3-11.2,5.9c-0.8,1.5-1.5,3-2.2,4.5c-3,6.4-0.2,11.6,3.7,16.6c0.2,0.3,0.5,0.5,0.8,0.6c3,1.3,10.4-1.2,12-4.1
		c0.4-0.7,0.7-1.4,1.1-2.1c0.8-1.9,1.6-3.3,4.1-1.9c0.9,0.5,2.2,0.4,3.4,0.5c-1.2,3.5-2.4,6.9-3.7,10.6c-8.3,0-16.7-0.1-25,0.1
		c-3.2,0.1-5.8-0.5-8.2-2.8c-1.2-1.2-3.1-1.6-4.8-2.5c0-0.3,0.3-1.3,0.1-1.5c-1.8-1.1-1-2.2-0.3-3.5c0.3-0.5-0.2-1.6-0.5-2.3
		c-2.3-4.7-4.9-9.2-6.9-14c-1.2-2.7-1.5-5.7-2.5-9.5c-0.6,1.4-1.5,2.3-1.4,3.1c0.4,2.8,1.1,5.5,1.8,8.2c0.8,3.1,1.8,6.1,0.3,9.9
		c-0.6-1.4-1.1-2.4-1.5-3.3c-1.2-2.5-2.5-5-3.7-7.5c-0.3-0.6-0.4-1.3-0.3-2c0.7-5-0.2-9.8-2-14.5c-0.4-1.1-0.6-2.4-0.3-3.5
		c1.3-5.1,3.4-9.8,6.8-13.9c2.4-2.8,4.2-5.7,5-9.6c0.8-4.2,2.9-8.3,6.7-11.1c1.1-0.8,1.5-2.5,2.3-3.7c0.7-1,1.6-1.8,2.2-2.9
		c-39.2,12.7-68.5,37-87.5,73.9c1.2-2.8,2.4-5.7,3.7-8.5c11.9-25.8,28.9-47.2,53.3-62.3c16.4-10.2,34.3-16.2,53.3-18.7
		c4.6-0.6,9.3-1.1,13.9-1.6C716.6,200,722.3,200,728,200z"/>
	<path class="st0" d="M1115.2,600c-2.5-0.8-5.1-1.4-7.5-2.5c-7.1-3.5-10-9.7-9.7-17.4c0.3-7.7,3.8-13.3,11.1-16.2
		c6.2-2.5,12.6-2.5,18.9-0.2c8.2,3,12.1,9.9,11.5,19.4c-0.6,8.3-6.2,14.4-14.9,16.3c-0.7,0.1-1.3,0.4-2,0.6
		C1120.2,600,1117.7,600,1115.2,600z M1128.5,581.3c-0.1-1.2-0.2-2.3-0.4-3.3c-0.9-5.5-4-8.2-9.3-8.2c-5.3,0-8.7,2.8-9.3,8.2
		c-0.3,2.6-0.1,5.3,0.4,7.9c1,4.3,4.3,6.4,9.1,6.4c4.6-0.1,7.7-2.3,8.7-6.6C1128.2,584.2,1128.3,582.7,1128.5,581.3z"/>
	<path class="st0" d="M189.5,562.9c4.8,0,9.6,0,13.9,0c-0.4,2.8-0.9,5.2-1,7.7c-0.2,4.8-0.1,9.5,0,14.3c0,2.8,0.6,5.4,3.6,6.5
		c3.2,1.2,6.6,1.4,9.3-0.9c1.1-0.9,1.9-2.9,2-4.4c0.2-6.4,0.2-12.9,0.1-19.3c0-1.2-0.9-2.3-1.5-3.6c4.6,0,9.1,0,13.1,0
		c-0.3,2.4-0.8,4.7-0.9,7c-0.1,5.4,0.1,10.8-0.1,16.2c-0.3,8.3-4,12.1-12.3,13.1c-0.9,0.1-1.9,0.4-2.8,0.6c-1.9,0-3.9,0-5.8,0
		c-0.8-0.2-1.5-0.4-2.3-0.5c-9.1-1-12.9-5.1-12.9-14.4c0-5.8-0.1-11.6,0-17.4c0-1.9-0.5-3.4-2.3-4.3
		C189.5,563.2,189.5,563,189.5,562.9z"/>
	<path class="st0" d="M1173.1,600c-1.9-0.4-3.8-0.7-5.7-1.1c-5.7-1.4-8.9-4.5-9.2-10.4c-0.4-6.3-0.2-12.7-0.3-19.1
		c-0.1-2.1-0.6-4.1-1-6.3c4,0,8.6,0,13.6,0c-2.5,2.4-2,5.2-2,8c0,4.6,0,9.2,0,13.8c0,2.8,0.6,5.4,3.5,6.5c3.2,1.2,6.6,1.4,9.3-0.9
		c1.1-0.9,1.9-2.8,2-4.3c0.2-6.4,0.2-12.9,0.1-19.3c0-1.2-0.9-2.3-1.5-3.7c4.5,0,9.1,0,13.1,0c-0.3,2.4-0.8,4.7-0.9,7
		c-0.1,5.4,0.1,10.8-0.1,16.2c-0.3,8.3-4,12.1-12.3,13.1c-0.9,0.1-1.9,0.4-2.8,0.6C1176.9,600,1175,600,1173.1,600z"/>
	<path class="st0" d="M777.3,600c-1.8-0.4-3.6-0.7-5.4-1.1c-6.1-1.4-9.3-5.1-9.5-11.4c-0.2-6.1,0-12.2-0.2-18.3
		c-0.1-2-0.7-4-1.1-6.1c4,0,8.6,0,12.5,0c-0.3,2.6-0.7,5.3-0.8,8.1c-0.1,4.8-0.1,9.5,0,14.3c0.1,4.3,2.4,6.4,7,6.5
		c5,0.1,7.8-1.8,7.9-6.2c0.2-6.4,0.1-12.7,0-19.1c0-1.2-0.9-2.4-1.5-3.7c4.5,0,9.1,0,13.1,0c-0.3,2.5-0.8,5-0.9,7.6
		c-0.1,4.9,0,9.9-0.1,14.8c-0.1,8.6-4,12.8-12.5,13.8c-0.9,0.1-1.9,0.4-2.8,0.5C781.2,600,779.2,600,777.3,600z"/>
	<path class="st0" d="M505.1,600c0-4.1,0-8.3,0-12.2c4.1,1.4,8,2.8,12,4c1.7,0.5,3.7,0.4,5.5,0.4c1.7,0,3.5-0.6,3.5-2.4
		c0-1.1-1.4-2.5-2.6-3.1c-2-1-4.4-1.3-6.5-2.1c-2.6-1-5.3-2.1-7.7-3.5c-3.5-2.1-4.8-5.5-4.4-9.6c0.4-3.9,2.7-6.2,6.1-7.6
		c6-2.4,12.1-2.2,18.2-0.4c2.3,0.7,4.5,1.8,6.5-1.7c0,4.5,0,8.1,0,11.5c-4.2-1.1-8.3-2.3-12.5-3.2c-1.6-0.3-3.4-0.2-5,0.2
		c-0.8,0.2-2,1.2-2.1,1.9c-0.1,0.8,0.8,1.9,1.6,2.4c1.2,0.8,2.7,1.2,4.1,1.7c2.9,1,5.9,1.8,8.7,3c5.4,2.4,7.4,5.8,6.9,11
		c-0.5,4.6-3.6,7.8-9,9.2c-0.6,0.1-1.1,0.4-1.7,0.6c-3,0-6,0-9,0c-2.4-0.7-5-1.1-7.3-2.1c-2.6-1.1-3.9-0.2-4.9,2.1
		C505.5,600,505.3,600,505.1,600z"/>
	<path class="st0" d="M818.1,600c0-4.1,0-8.3,0-12.3c4.3,1.4,8.2,2.9,12.2,4c2,0.5,4.2,0.6,6.3,0.3c1-0.1,2.5-1.3,2.7-2.3
		c0.1-0.9-1-2.5-1.9-2.9c-2.2-1-4.7-1.4-7-2.3c-2.5-1-5.1-2-7.4-3.4c-3.6-2.1-5.1-5.5-4.7-9.7c0.4-4,2.8-6.4,6.3-7.8
		c6.3-2.5,12.6-2.1,18.9-0.1c2,0.6,3.7,1.1,5.4-1c0,3.5,0,7,0,10.5c-4-1-8-2.2-12.1-3.1c-1.4-0.3-3-0.4-4.4-0.1
		c-1.1,0.3-2,1.4-3,2.1c0.7,0.9,1.3,2.2,2.2,2.6c1.7,0.9,3.6,1.3,5.5,1.9c2.7,1,5.5,1.8,8.1,3.1c3.9,2,6.3,5.2,5.8,9.8
		c-0.5,4.8-3.2,7.9-7.8,9.3c-1.1,0.3-2.2,0.7-3.2,1c-2.8,0-5.7,0-8.5,0c-2.3-0.6-4.8-0.9-7-1.9c-2.7-1.2-4.4-0.6-5.7,1.9
		C818.5,600,818.3,600,818.1,600z"/>
	<path class="st0" d="M1007,600c-1.5-0.3-2.9-0.6-4.4-0.9c-9.9-2.2-15.4-8.9-15.1-18.5c0.2-9.4,6.1-15.9,15.8-17.7
		c4.9-0.9,9.7-0.7,14.4,0.7c2,0.6,3.9,1.2,5.6-1.6c0,4.3,0,7.9,0,11.9c-0.9-0.4-1.7-0.8-2.5-1.2c-4-1.9-8.1-2.9-12.6-2.6
		c-5.8,0.4-9.4,4.4-9.5,10.7c-0.1,6.3,3.5,10.7,9.3,11.2c2.2,0.2,4.3-0.2,7.1-0.4c-0.4-3.6-0.8-6.8-1.2-10.1c3.1,0,7,0,11.2,0
		c0,4.5,0.1,8.9-0.1,13.3c0,0.7-1.1,1.6-1.9,1.9c-3.4,1.1-6.8,1.9-10.2,2.8c-0.9,0.2-1.9,0.4-2.8,0.6
		C1009.1,600,1008.1,600,1007,600z"/>
	<path class="st0" d="M1250.5,579.3c-2.6,6.7-8,8.9-14.6,9.1c-2.8,0.1-5.6,0-8.8,0c0.4,3.7-1.2,7.2,1.9,10.4c-4.9,0-9.4,0-13.3,0
		c0.3-2.3,0.8-4.6,0.9-6.9c0.1-7.2,0.1-14.5,0-21.7c0-2.3-0.6-4.6-1-7.5c7.8,0.3,16.2,0.4,24.6,1c4.7,0.4,8.3,3.1,10.3,7.6
		C1250.5,574,1250.5,576.7,1250.5,579.3z M1227.2,581.7c3.3-0.3,6.3-0.3,9.2-0.9c2.5-0.5,3.6-2.7,3.4-5.5c-0.2-2.5-1.4-4.3-3.9-4.6
		c-2.8-0.3-5.7-0.3-8.7-0.5C1227.2,574.2,1227.2,577.7,1227.2,581.7z"/>
	<path class="st0" d="M922.1,600c-1.3-0.3-2.5-0.6-3.8-0.9c-9.8-2.2-14.9-8.7-14.7-18.8c0.2-9,6.1-16.1,15.5-17.4
		c4.6-0.6,9.4,0.2,14.2,0.4c1.6,0.1,3.3,0,5.1,0c0,2.8,0,6.3,0,9.4c-4-0.9-8-2.3-12-2.6c-7.3-0.6-11.6,3.6-11.6,10.8
		c0,6.7,4.6,11.5,11.5,11c4.1-0.3,8.1-1.8,12.3-2.7c0,1.7,0.1,3.9-0.1,6.2c-0.1,0.7-1,1.7-1.7,1.9c-3.4,1-7,1.8-10.4,2.7
		C925,600,923.5,600,922.1,600z"/>
	<path class="st0" d="M749.2,451.7c2.1,4.9-4.6,3.3-5.2,6.7c0.3,0.4,0.7,1,1.1,1.7c-0.2,0.1-0.3,0.3-0.4,0.3
		c-3.5,0.1-6.2-2.9-5.5-6.4c0.4-1.8,0.9-3.6,1.5-5.4c0.6-1.9,1.6-3.7,0.7-6c-0.4-1,0.4-2.9,1.2-3.8c4.3-5.2,6.1-11.3,7.1-17.7
		c0.1-0.8,0.8-1.5,1.2-2.3c0.5-1.2,1.2-2.3,1.4-3.6c0.3-2.4,0.3-4.8,0.5-7.1c0.1-1.1,0.2-2.4,0.6-3.3c0.9-1.8,2.2-3.4,0.8-5.4
		c-1.5-2.2-3.1-4.4-5-6.3c-1.5-1.6-3.4-2.8-5.1-4.2c-1.5-1.2-2.9-2.5-4.7-4.1c27.2,0,53.8,0,80.3,0c0.1,1.3,0.4,2.5,0.3,3.6
		c-0.1,1.1-0.5,2.1-1,3.1c-1.2,2.2-2.4,4.4-3.7,6.6c-1.3,2.2-2.4,4.5-3.9,6.5c-0.5,0.7-1.9,1.1-2.9,1.2c-4.9,0.1-8.7,2-11.1,6.4
		c-4.8,8.5-11.4,15.2-20.5,19.1c-0.7,0.3-1.4,1.4-1.4,2.1c0.1,2.3-1.1,3.2-3.1,3.9c-3.7,1.3-7.2,3.6-11,4.2
		c-3.9,0.7-5.2,3.3-7.1,5.9C753.1,449.1,751.1,450.1,749.2,451.7z"/>
	<path class="st0" d="M587,405.1c29.7,52.3,74.5,79.9,134.4,79.4c58.8-0.4,102.6-28,131.4-79.5c-2,4.2-3.9,8.5-6.1,12.5
		c-15.8,28.8-38,50.7-67.9,64.6c-22,10.2-45.2,14.1-69.4,12.4c-19.9-1.4-38.8-6.3-56.5-15.6c-22.9-12.1-40.7-29.7-54.1-51.8
		C594.4,420.1,590.9,412.5,587,405.1z"/>
	<path class="st0" d="M795.9,349.7c4.7,6.9,9.4,13.7,14.3,20.8c-7.9,0-15.4,0-22.9,0c0-0.2-0.1-0.4,0-0.6c2.4-3.7,2.4-3.7,0-7.2
		c-1.9-2.8-3.9-5.5-5.6-8.4c-1.3-2.3-2.9-3.4-5.5-2.9c-1,0.2-2.1,0-3.4,0c0,5.1-0.2,9.9,0.1,14.6c0.1,1.4,1.7,2.8,2.7,4.4
		c-7.1,0-14,0-21.1,0c0,0-0.1-0.3-0.1-0.3c2.9-2.6,2.8-6,2.7-9.4c-0.1-11.3,0-22.6,0-33.9c0-3.3,0.6-6.8-3.5-9.3
		c1.2-0.2,1.7-0.3,2.1-0.3c11.1,0,22.3,0,33.4,0.1c1.8,0,3.7,0.2,5.5,0.6c6.4,1.4,11.3,4.6,12.8,11.5c1.5,7.2-0.8,13.1-6.7,17.4
		C799.3,347.8,797.7,348.7,795.9,349.7z M772.7,328.3c0,4.1-0.1,7.9,0.1,11.6c0,0.5,1.1,1.5,1.8,1.5c2.9,0.2,5.9,0.4,8.7-0.1
		c2.2-0.3,4.6-1.2,6.5-2.5c2.3-1.5,2.6-4.1,1.8-6.7c-0.8-2.4-2.7-3.7-5.2-3.8C781.9,328.2,777.5,328.3,772.7,328.3z"/>
	<path class="st0" d="M490.8,317.1c5.1,0,10.2-0.1,15.3,0.1c0.9,0,1.8,0.9,2.5,1.6c7.3,8.2,14.5,16.4,21.7,24.6
		c1.2,1.3,2.3,2.6,3.9,4.4c0.1-1.2,0.2-1.9,0.2-2.6c0-7.4,0.2-14.8-0.1-22.3c-0.1-1.9-1.4-3.7-2.2-5.7c5.5,0,11.3,0,17.1,0
		c0,0.1,0.2,0.4,0.1,0.4c-2.6,2.4-2.7,5.4-2.7,8.7c0.1,13.6,0,27.2,0,40.8c0,1,0,2.1,0,3.5c-3.9,0-7.6,0.1-11.3-0.1
		c-0.8,0-1.6-1-2.2-1.6c-8.5-9.1-16.9-18.3-25.3-27.5c-0.6-0.6-1-1.4-1.5-2.1c-0.3,0.1-0.5,0.3-0.8,0.4c0,2,0,4,0,6
		c0,4.9,0,9.7,0,14.6c0,3.5-0.9,7.4,2.7,10.1c-5.9,0-11.7,0-17.6,0c0-0.1-0.1-0.3-0.1-0.4c2.9-2.6,2.8-5.9,2.8-9.4
		c-0.1-11.4-0.1-22.8,0-34.2c0-3.3,0.5-6.6-3.2-8.8C490.4,317.6,490.6,317.3,490.8,317.1z"/>
	<path class="st0" d="M411.9,317.3c6.9,0,13.9,0,21.6,0c-4.4,3.2-3.3,7.4-3.3,11.2c-0.1,7.3,0,14.7,0,22c0,6.1,3.3,9.5,9.5,9.7
		c1.3,0.1,2.7,0.1,4,0c5.3-0.5,8.5-3.6,8.6-8.9c0.2-9.6,0.2-19.3,0-28.9c0-1.6-1.5-3.2-2.4-5c6.8,0,13.8,0,21.5,0
		c-4.2,3-3.3,7-3.3,10.8c0,7.6,0,15.2,0,22.8c-0.1,12.2-4.7,17.8-16.7,19.9c-7.7,1.4-15.5,1.3-23.1-0.6c-9.1-2.3-13.5-8-13.7-17.4
		c-0.2-8.4,0-16.8-0.1-25.2C414.4,324.1,415.3,320.2,411.9,317.3z"/>
	<path class="st0" d="M830,372.3c0-6.8,0-12.9,0-19c4.1,1.7,8,3.7,12.2,5c3.7,1.2,7.6,1.7,11.4,2.2c1.6,0.2,3.5,0.1,4.9-0.6
		c1.2-0.6,2.7-2.1,2.8-3.3c0.1-1.2-1.1-3-2.3-3.7c-1.9-1.1-4.3-1.5-6.4-2.3c-5.5-2.2-11.3-3.7-16.2-6.8c-9-5.6-9.2-18.5-0.6-23.8
		c3.1-1.9,6.8-3,10.3-3.8c7.5-1.6,15-0.5,22.1,2.1c2.6,0.9,4.3,0.7,5.9-1.4c0.2-0.3,0.6-0.6,1.3-1.1c0,5.8,0,11.3,0,17.1
		c-0.9-0.4-1.8-0.7-2.6-1c-6.5-2.5-13.2-4.6-20.3-4.6c-1.4,0-2.8,0.3-4.1,0.8c-2.7,1.1-3.1,3.7-0.7,5.4c1.9,1.3,4.1,2.1,6.2,2.9
		c4.5,1.6,9.1,2.7,13.5,4.6c5.1,2.1,9.5,5.3,10.7,11.2c1.7,8.3-2.5,15.4-10.7,18.3c-7.9,2.7-15.8,2-23.8,0.2
		c-2.1-0.5-4.2-0.9-6.1-1.7c-2.6-1.2-4.3-0.6-5.8,1.6C831.4,371,830.9,371.4,830,372.3z"/>
	<path class="st0" d="M733.2,356.7c0,4.8,0,9.2,0,13.8c-16.6,0-33.1,0-50.2,0c4.9-3.9,3.1-9,3.2-13.6c0.2-9.7,0.1-19.4,0.1-29.2
		c0-3.6,0.9-7.5-3.3-10.5c17.3,0,33.7,0,50.3,0c0,4.5,0,9,0,14.2c-3.2-4.4-7.5-3.2-11.4-3.2c-6.5-0.1-13,0-19.7,0
		c0,3.5,0,6.7,0,10.3c5.7,0,11.3,0.2,16.9-0.1c1.3-0.1,2.6-1.7,4-2.7c0,5.5,0,10.8,0,16.1c-0.1,0-0.3,0.1-0.4,0.1
		c-2.3-2.7-5.4-2.9-8.6-2.7c-3.9,0.2-7.7,0-11.8,0c0,3.5,0,6.8,0,10.5c0.9,0,1.9,0,2.8,0c6.5,0,12.9,0,19.4,0
		C728.7,359.6,728.7,359.6,733.2,356.7z"/>
	<path class="st0" d="M892.5,370.5c1.1-2.4,2.2-4.7,3.3-7c6.2-12.8,12.3-25.6,18.5-38.4c1.2-2.5,2.9-4.8-0.1-7.6
		c0.2-0.1,0.4-0.3,0.6-0.4c2.3,0,4.6,0,7,0c3.5,0.1,7.7-1,10.4,0.6c2.5,1.5,3.4,5.8,4.9,8.8c6.8,13.8,13.6,27.5,20.3,41.3
		c0.4,0.8,0.8,1.7,1.3,2.8c-7.4,0-14.5,0-22,0c0.5-0.7,0.7-1.4,1.2-1.8c1.7-1.4,1.5-2.7,0.7-4.6c-1-2.6-2.5-3.3-5.1-3.2
		c-6.4,0.2-12.9,0.2-19.3,0c-2,0-3.2,0.5-4,2.5c-0.7,1.9-2,3.6,0.3,5.4c0.5,0.4,0.7,1,1.3,1.7C905.1,370.5,899,370.5,892.5,370.5z
		 M915.2,351.3c6.2,0,11.8,0,17.7,0c-3-6.4-5.8-12.5-8.9-19.2C921,338.7,918.2,344.8,915.2,351.3z"/>
	<path class="st0" d="M608,317.2c7.4,0,14.4,0,21.4,0c0,0.2,0.1,0.5,0.1,0.5c-2.9,2.3-2.1,4.8-0.8,7.6c3.5,7.4,6.7,15,10,22.5
		c0.3,0.8,0.7,1.5,1.3,2.7c4.5-9.7,8.8-19,13-28.3c0.3-0.6,0-1.5-0.3-2.1c-0.5-0.9-1.3-1.6-2.2-2.8c6.3,0,12.2,0,18.5,0
		c-0.4,0.9-0.7,1.6-1.1,2.4c-7.7,16.3-15.3,32.6-22.9,48.9c-0.7,1.5-1.5,2.4-3.3,2.2c-2.9-0.2-6.4,0.8-8.5-0.5
		c-2.1-1.3-2.8-4.9-4-7.5c-6.6-14.1-13.2-28.3-19.8-42.4C608.9,319.4,608.5,318.4,608,317.2z"/>
	<path class="st0" d="M973.5,370.5c4.5-3.1,3.4-7.4,3.4-11.3c0-10.9,0-21.7,0-32.6c0-3.3,0.5-6.6-3.5-9.2c7.8,0,14.7,0,21.6,0
		c0,0.1,0.1,0.3,0.1,0.4c-2.7,2.4-2.6,5.5-2.6,8.7c0.1,10,0,20,0,30c0,1,0,1.9,0,3.2c3.2,0,6.2,0,9.2,0c3.2,0,6.4,0,9.5,0
		c3.8,0,7.8,0.9,10.9-3.5c0,5.3,0,9.7,0,14.4C1006.3,370.5,990.2,370.5,973.5,370.5z"/>
	<path class="st0" d="M718.3,585.1c3.4-7,6.6-13.5,9.7-20c0.7-1.6,1.6-2.3,3.4-2.2c3.3,0.2,6.5,0,10.3,0c-3.1,3.3-1.9,7.1-2,10.7
		c-0.2,6.4-0.1,12.9,0,19.4c0,1.9,0.6,3.8,1,5.8c-3.8,0-8.2,0-12,0c0.3-2.2,0.8-4.4,0.9-6.7c0.1-4,0-8-0.5-12.2
		c-2.6,5.4-5.4,10.8-7.8,16.4c-0.9,2.1-2.1,2.9-4.4,2.8c-1.5-0.1-2.4-0.6-3-1.9c-2.6-5.1-5.4-10.1-8.1-15.2
		c-0.4-0.7-0.8-1.5-1.6-2.1c0.3,6.3-1.4,12.6,1,19c-3.3,0-6.9,0-9.9,0c0.3-2.5,0.8-5.1,0.9-7.7c0.1-7,0.1-14,0-20.9
		c0-2.3-0.6-4.6-0.9-7.2c3,0,6.7-0.1,10.3,0.1c0.7,0,1.5,1,1.9,1.8c3.2,5.8,6.2,11.7,9.4,17.5C717.2,583.1,717.6,583.9,718.3,585.1z
		"/>
	<path class="st0" d="M476.6,584.9c3.1,4.6,6.2,9.1,9.5,13.9c-5.2,0-10.1,0-15.3,0c2.6-2.1,0.9-3.8-0.3-5.6c-0.9-1.3-2-2.5-2.6-4
		c-1.4-2.9-3.4-3.8-6.7-2.8c0.4,4-1.3,8.3,1.6,12.4c-4.7,0-9.1,0-14,0c2.7-2.7,1.8-5.9,1.8-9c0.1-6.8,0.1-13.6,0-20.4
		c0-2.1-0.6-4.1-1-6.4c0,0,0.7-0.1,1.3-0.1c7.8,0.1,15.5-0.1,23.3,0.4c6,0.4,9.5,3.4,10.3,7.9c1.1,5.6-1.1,9.9-6.4,12.9
		C477.6,584.3,477.2,584.6,476.6,584.9z M461.2,579.6c3.3-0.2,6.4-0.2,9.4-0.8c2.3-0.4,3.5-2.3,3.3-4.7c-0.2-2.5-2-3.5-4.2-3.6
		c-2.8-0.1-5.6,0-8.5,0C461.2,573.5,461.2,576.3,461.2,579.6z"/>
	<path class="st0" d="M1071.3,585c3.1,4.6,6.2,9,9.5,13.8c-5.2,0-10.1,0-15.3,0c2.5-2,1.1-3.7-0.2-5.4c-1-1.4-2.2-2.8-2.9-4.4
		c-1.4-2.9-3.5-3.4-6.6-2.6c0.5,4-1.4,8.4,1.7,12.5c-4.8,0-9.3,0-14.2,0c2.7-2.5,1.9-5.4,1.9-8.2c0-7,0.1-14,0-20.9
		c0-2.2-0.6-4.3-1-6.8c0.9,0,2.4,0,4,0c6.9,0.1,13.8-0.1,20.6,0.4c6,0.4,9.4,3.4,10.3,7.9c1.1,5.6-1.1,9.9-6.5,12.9
		C1072.2,584.4,1071.9,584.6,1071.3,585z M1055.8,579.6c3.4-0.3,6.6-0.2,9.6-0.9c2.3-0.5,3.4-2.4,3.1-4.8c-0.3-2.3-2-3.3-4.1-3.4
		c-2.9-0.1-5.7,0-8.7,0C1055.8,573.6,1055.8,576.3,1055.8,579.6z"/>
	<path class="st0" d="M258.7,578.7c0.7,6.7-1.2,13.5,1.3,20.2c-3.5,0-7.2,0-10.3,0c0.3-2.5,0.8-4.9,0.8-7.3c0.1-7,0.1-14,0-20.9
		c0-2.5-0.6-5-0.9-7.7c2.7,0,6.1-0.1,9.4,0.1c0.8,0,1.6,0.9,2.2,1.6c5.5,6.2,11,12.4,16.8,18.6c-0.5-6.7,1.7-13.5-1.1-20.1
		c3.6,0,7.4,0,10.6,0c-0.3,2.4-0.8,4.7-0.9,7c-0.1,8.6,0,17.1,0,25.7c0,0.9,0,1.9,0,3.2c-2.6,0-5,0.1-7.3-0.1
		c-0.8-0.1-1.7-0.9-2.3-1.6c-5.8-6.3-11.6-12.6-17.4-18.9C259.2,578.6,258.9,578.6,258.7,578.7z"/>
	<path class="st0" d="M571.2,370.5c3.9-2.5,3.6-5.8,3.5-9.1c-0.1-11.2,0-22.4,0-33.6c0-3.6,0.9-7.5-3.4-10.4c7.8,0,14.8,0,21.9,0
		c0,0.1,0.2,0.4,0.1,0.4c-2.7,2.3-2.7,5.4-2.7,8.7c0.1,11.6,0.1,23.1,0,34.7c0,3.4-0.4,6.8,3.7,9.4
		C586.4,370.5,579.2,370.5,571.2,370.5z"/>
	<path class="st0" d="M428.7,590.7c0,2.3,0,5.1,0,8.1c-11.1,0-22,0-32.4,0c0.3-2.3,0.9-4.5,0.9-6.8c0.1-7.5,0.1-15,0-22.5
		c0-2.1-0.7-4.1-1-6.3c10.4,0,21.3,0,32.5,0c0,2.9,0,5.8,0,8.6c-6.4-2.7-13.1-0.8-19.6-1.2c-0.4,0-1.3,0.9-1.3,1.4
		c-0.2,1.7-0.1,3.5-0.1,5.6c4.9-0.6,9.7,1.3,14.2-1.7c0,3.5,0,6.8,0,10.2c-4.5-2.9-9.3-0.8-14.1-1.7c0,2.6,0,4.7,0,7.2
		C414.8,591.1,421.7,592.5,428.7,590.7z"/>
	<path class="st0" d="M565.2,598.9c-4.1,0-8,0-12.3,0c1.8-3.7,3.5-7.2,5.1-10.7c3.1-6.5,6.3-13,9.4-19.6c0.7-1.6,0.9-3.4,1.4-5.6
		c2.7,0,6.2-0.1,9.7,0.1c0.6,0,1.5,0.6,1.7,1.2c5.6,11.2,11.1,22.5,16.6,33.7c0.1,0.2,0.1,0.5,0.1,0.9c-4.7,0-9.3,0-13.8,0
		c0.3-1.2,1.1-2.4,0.9-3.4c-0.4-1.9-1.3-3.2-3.8-3c-3.8,0.3-7.6,0.1-11.4,0.1C564.2,592.6,562.9,594.8,565.2,598.9z M574,573
		c-2.1,4.7-4,8.8-5.9,12.9c4.2,0,7.9,0,11.9,0C578.1,581.7,576.2,577.7,574,573z"/>
	<path class="st0" d="M380.1,563.1c-1,2.2-1.9,4.1-2.8,6c-4.4,9.3-8.8,18.5-13,27.8c-0.7,1.6-1.6,2-3.3,2.2c-4.1,0.6-6-1.1-7.6-4.8
		c-4.1-9.5-8.6-18.8-13-28.1c-0.4-0.9-0.8-1.9-1.3-3.1c4.9,0,9.5,0,14.8,0c-3.4,2.3-1.4,4.4-0.4,6.6c2.2,5.2,4.5,10.3,7.1,16
		c3.1-6.7,6-12.9,8.7-19.2c0.3-0.8-0.6-2.1-1-3.4C371.9,563.1,375.8,563.1,380.1,563.1z"/>
	<path class="st0" d="M645.7,598.9c-10.8,0-21.3,0-31.2,0c0.3-2.8,0.7-5.6,0.8-8.3c0.1-6.8,0.1-13.6,0-20.4c0-2.3-0.6-4.6-0.9-7.1
		c3.9,0,8.4,0,13.3,0c-2.6,2.4-2,5.4-2,8.2c0,6.6,0,13.2,0,20.3c6.8-0.6,13.4,1,20-1.1C645.7,593,645.7,595.8,645.7,598.9z"/>
	<path class="st0" d="M884.1,598.9c-3.9,0-8.5,0-12.5,0c0.3-2.5,0.9-5,0.9-7.5c0.1-7,0.1-14,0-20.9c0-2.4-0.6-4.8-0.9-7.3
		c4,0,8.6,0,12.6,0c-0.3,2.4-0.9,4.8-0.9,7.2c-0.1,7.2-0.1,14.3,0,21.5C883.4,594.1,883.8,596.4,884.1,598.9z"/>
	<path class="st0" d="M322.5,598.8c-4,0-8.6,0-12.6,0c0.3-2.3,0.9-4.6,0.9-6.8c0.1-7.6,0.1-15.2,0-22.8c0-2-0.7-3.9-1-6.1
		c4,0,8.7,0,12.7,0c-0.3,2.4-0.9,4.9-0.9,7.4c-0.1,7.2-0.1,14.5,0,21.7C321.6,594.5,322.2,596.6,322.5,598.8z"/>
	<path class="st0" d="M1032.5,328.7c0,5.9-4.7,10.6-10.6,10.7c-5.9,0-10.7-4.8-10.7-10.8c0-5.8,4.9-10.6,10.7-10.5
		C1027.8,318.1,1032.5,322.8,1032.5,328.7z M1031.6,328.7c0-5.4-4.3-9.8-9.6-9.8c-5.4,0-9.7,4.3-9.8,9.7c0,5.4,4.3,9.8,9.6,9.8
		C1027.2,338.5,1031.6,334.1,1031.6,328.7z"/>
	<path class="st0" d="M743.5,296.2c-1.7,1-6.4,0.6-8.1-0.9c-0.7-0.6-1.6-1-2.5-1.4c-1.3-0.6-2.7-1.2-4-1.8c-1.8-0.8-3.5-1.7-5.1-2.4
		c1.3-1.2,5-0.7,6.7,0.8c1,0.9,2.4,1.3,3.7,1.8c0.9,0.4,1.8,0.4,2.7,0.8C739.2,294.1,741.4,295.2,743.5,296.2z"/>
	<path class="st0" d="M756.7,299.8c-3.2,0.9-5.6,1.7-7.9,2.2c-0.6,0.1-1.9-0.5-2.1-1.1c-0.4-1-0.3-2.3-0.1-3.4
		c0.1-0.4,1.4-0.9,2-0.7C751.2,297.6,753.6,298.6,756.7,299.8z"/>
	<path class="st0" d="M1025.9,332.2c-2.2,2.5-5.4,2.6-7.5,0.4c-2.2-2.2-2-6.1,0.3-8.1c2.3-2,5.3-1.8,7.1,0.4
		c-4.1-1.2-5.9-0.9-7.2,1.2c-1.2,2-1.1,3.9,0.4,5.6C1021,334.2,1023.4,333.4,1025.9,332.2z"/>
</g>
</svg>
