<?xml version="1.0" encoding="UTF-8"?>
<svg width="198px" height="75px" viewBox="0 0 198 75" version="1.1" xmlns="http://www.w3.org/2000/svg" xmlns:xlink="http://www.w3.org/1999/xlink">
    <!-- Generator: Sketch 57.1 (83088) - https://sketch.com -->
    <title>umg-logo</title>
    <desc>Created with Sketch.</desc>
    <g id="Page-1" stroke="none" stroke-width="1" fill="none" fill-rule="evenodd">
        <g id="umg-logo" fill="#525252" fill-rule="nonzero">
            <path d="M100.491525,0.186567164 C101.498305,0.317164179 102.523729,0.410447761 103.530508,0.578358209 C108.80678,1.43656716 113.374576,3.73134328 117.252542,7.40671642 C119.99322,10 122.062712,13.0783582 123.591525,16.5298507 C123.628814,16.641791 123.684746,16.7350746 123.722034,16.8470149 C123.740678,16.8656716 123.722034,16.9029851 123.70339,16.9962687 C123.628814,16.8843284 123.572881,16.7910448 123.516949,16.6977612 C119.676271,9.42164179 113.672881,4.90671642 105.767797,2.85447761 C103.661017,2.31343284 101.572881,2.1641791 99.5220339,2.96641791 C98.8135593,3.24626866 98.179661,3.69402985 97.5084746,4.10447761 C97.3033898,4.23507463 97.1728814,4.44029851 96.8932203,4.73880597 C97.4898305,4.8880597 97.9559322,5.03731343 98.4220339,5.1119403 C99.0745763,5.2238806 99.6711864,5.31716418 100.025424,6.00746269 C100.118644,6.17537313 100.454237,6.23134328 100.677966,6.34328358 C100.752542,6.1380597 100.864407,5.95149254 100.883051,5.74626866 C100.920339,5.2238806 100.976271,5.14925373 101.516949,4.98134328 C101.2,4.64552239 100.454237,4.51492537 100.901695,3.84328358 C101.740678,3.84328358 102.486441,4.06716418 103.138983,4.64552239 C103.250847,4.73880597 103.567797,4.75746269 103.679661,4.6641791 C103.977966,4.44029851 104.183051,4.55223881 104.425424,4.70149254 C105.189831,5.20522388 105.972881,5.70895522 106.867797,6.30597015 C106.550847,6.43656716 106.308475,6.60447761 106.047458,6.60447761 C105.655932,6.60447761 105.264407,6.45522388 104.872881,6.43656716 C104.649153,6.43656716 104.40678,6.56716418 104.183051,6.62313433 C104.294915,6.84701493 104.388136,7.12686567 104.555932,7.29477612 C104.723729,7.48134328 105.00339,7.55597015 105.227119,7.68656716 C105.227119,7.74253731 105.245763,7.79850746 105.245763,7.85447761 C104.761017,7.98507463 104.276271,8.09701493 103.735593,8.24626866 C103.716949,8.67537313 103.437288,9.02985075 102.952542,9.27238806 C102.728814,9.38432836 102.579661,9.68283582 102.486441,9.94402985 C102.094915,11.0447761 101.405085,11.8656716 100.342373,12.4067164 C99.7644068,12.7052239 99.7084746,12.9850746 99.9508475,13.6007463 C100.211864,14.2723881 100.584746,14.9067164 100.361017,15.7089552 C99.9322034,15.6902985 99.7830508,15.3731343 99.6525424,15.0559701 C99.5033898,14.7014925 99.4288136,14.3283582 99.2983051,13.9738806 C99.1677966,13.5820896 98.9067797,13.4701493 98.4779661,13.5634328 C98.0677966,13.6567164 97.620339,13.619403 97.1728814,13.619403 C96.9305085,13.619403 96.6322034,13.5447761 96.4457627,13.6567164 C95.979661,13.9365672 95.5135593,13.880597 95.0101695,13.8432836 C94.1152542,13.7686567 93.3508475,14.0858209 92.9220339,14.9440299 C92.7728814,15.2238806 92.6423729,15.5037313 92.5118644,15.7835821 C91.9525424,16.9776119 92.4745763,17.9477612 93.2016949,18.880597 C93.2389831,18.9365672 93.2949153,18.9738806 93.3508475,18.9925373 C93.9101695,19.2350746 95.2898305,18.7686567 95.5881356,18.2276119 C95.6627119,18.0970149 95.7186441,17.9664179 95.7932203,17.8358209 C95.9423729,17.4813433 96.0915254,17.2201493 96.5576271,17.4813433 C96.7254237,17.5746269 96.9677966,17.5559701 97.1915254,17.5746269 C96.9677966,18.2276119 96.7440678,18.8619403 96.5016949,19.5522388 C94.9542373,19.5522388 93.3881356,19.5335821 91.840678,19.5708955 C91.2440678,19.5895522 90.759322,19.4776119 90.3118644,19.0485075 C90.0881356,18.8246269 89.7338983,18.75 89.4169492,18.5820896 C89.4169492,18.5261194 89.4728814,18.3395522 89.4355932,18.3022388 C89.1,18.0970149 89.2491525,17.891791 89.379661,17.6492537 C89.4355932,17.5559701 89.3423729,17.3507463 89.2864407,17.2201493 C88.8576271,16.3432836 88.3728814,15.5037313 88,14.608209 C87.7762712,14.1044776 87.720339,13.5447761 87.5338983,12.8358209 C87.4220339,13.0970149 87.2542373,13.2649254 87.2728814,13.4141791 C87.3474576,13.9365672 87.4779661,14.4402985 87.6084746,14.9440299 C87.7576271,15.5223881 87.9440678,16.0820896 87.6644068,16.7910448 C87.5525424,16.5298507 87.459322,16.3432836 87.3847458,16.1753731 C87.1610169,15.7089552 86.9186441,15.2425373 86.6949153,14.7761194 C86.6389831,14.6641791 86.620339,14.5335821 86.6389831,14.4029851 C86.7694915,13.4701493 86.6016949,12.5746269 86.2661017,11.6977612 C86.1915254,11.4925373 86.1542373,11.25 86.2101695,11.0447761 C86.4525424,10.0932836 86.8440678,9.21641791 87.4779661,8.45149254 C87.9254237,7.92910448 88.2610169,7.3880597 88.4101695,6.66044776 C88.559322,5.87686567 88.9508475,5.1119403 89.659322,4.58955224 C89.8644068,4.44029851 89.9389831,4.12313433 90.0881356,3.89925373 C90.2186441,3.71268657 90.3864407,3.56343284 90.4983051,3.35820896 C83.1898305,5.72761194 77.7271186,10.261194 74.1847458,17.1455224 C74.4084746,16.6231343 74.6322034,16.0820896 74.8745763,15.5597015 C77.0932203,10.7462687 80.2627119,6.75373134 84.8118644,3.93656716 C87.8694915,2.03358209 91.2067797,0.914179104 94.7491525,0.447761194 C95.6067797,0.335820896 96.4830508,0.242537313 97.340678,0.149253731 C98.3661017,0.186567164 99.4288136,0.186567164 100.491525,0.186567164 Z" id="Path"></path>
            <path d="M172.681356,74.8134328 C172.215254,74.6641791 171.730508,74.5522388 171.283051,74.3470149 C169.959322,73.6940299 169.418644,72.5373134 169.474576,71.1007463 C169.530508,69.6641791 170.183051,68.619403 171.544068,68.0783582 C172.7,67.6119403 173.89322,67.6119403 175.067797,68.0410448 C176.59661,68.6007463 177.323729,69.8880597 177.211864,71.6604478 C177.1,73.2089552 176.055932,74.3470149 174.433898,74.7014925 C174.30339,74.7201493 174.191525,74.7761194 174.061017,74.8134328 C173.613559,74.8134328 173.147458,74.8134328 172.681356,74.8134328 Z M175.161017,71.3246269 C175.142373,71.1007463 175.123729,70.8955224 175.086441,70.7089552 C174.918644,69.6828358 174.340678,69.1791045 173.352542,69.1791045 C172.364407,69.1791045 171.730508,69.7014925 171.618644,70.7089552 C171.562712,71.1940299 171.6,71.6977612 171.69322,72.1828358 C171.879661,72.9850746 172.494915,73.3768657 173.389831,73.3768657 C174.247458,73.358209 174.825424,72.9477612 175.011864,72.1455224 C175.105085,71.8656716 175.123729,71.5858209 175.161017,71.3246269 Z" id="Shape"></path>
            <path d="M0.093220339,67.891791 C0.988135593,67.891791 1.88305085,67.891791 2.68474576,67.891791 C2.61016949,68.4141791 2.51694915,68.8619403 2.49830508,69.3283582 C2.46101695,70.2238806 2.47966102,71.1007463 2.49830508,71.9962687 C2.49830508,72.5186567 2.61016949,73.0037313 3.16949153,73.2089552 C3.76610169,73.4328358 4.4,73.4701493 4.90338983,73.0410448 C5.10847458,72.8731343 5.25762712,72.5 5.27627119,72.2201493 C5.31355932,71.0261194 5.31355932,69.8134328 5.29491525,68.619403 C5.29491525,68.3955224 5.12711864,68.1902985 5.01525424,67.9477612 C5.87288136,67.9477612 6.71186441,67.9477612 7.45762712,67.9477612 C7.40169492,68.3955224 7.30847458,68.8246269 7.28983051,69.2537313 C7.27118644,70.261194 7.30847458,71.2686567 7.27118644,72.2761194 C7.21525424,73.8246269 6.52542373,74.5335821 4.9779661,74.7201493 C4.81016949,74.738806 4.62372881,74.7947761 4.4559322,74.8320896 C4.10169492,74.8320896 3.72881356,74.8320896 3.37457627,74.8320896 C3.22542373,74.7947761 3.09491525,74.7574627 2.94576271,74.738806 C1.24915254,74.5522388 0.540677966,73.7873134 0.540677966,72.0522388 C0.540677966,70.9701493 0.522033898,69.8880597 0.540677966,68.8059701 C0.540677966,68.4514925 0.447457627,68.1716418 0.111864407,68.0037313 C0.093220339,67.9477612 0.093220339,67.9104478 0.093220339,67.891791 Z" id="Path"></path>
            <path d="M183.476271,74.8134328 C183.122034,74.738806 182.767797,74.6828358 182.413559,74.608209 C181.350847,74.3470149 180.754237,73.7686567 180.698305,72.6679104 C180.623729,71.4925373 180.661017,70.2985075 180.642373,69.1044776 C180.623729,68.7126866 180.530508,68.3395522 180.455932,67.9291045 C181.201695,67.9291045 182.059322,67.9291045 182.991525,67.9291045 C182.525424,68.3768657 182.618644,68.8992537 182.618644,69.4216418 C182.618644,70.2798507 182.618644,71.1380597 182.618644,71.9962687 C182.618644,72.5186567 182.730508,73.0037313 183.271186,73.2089552 C183.867797,73.4328358 184.501695,73.4701493 185.005085,73.0410448 C185.210169,72.8731343 185.359322,72.5186567 185.377966,72.238806 C185.415254,71.0447761 185.415254,69.8320896 185.39661,68.6380597 C185.39661,68.4141791 185.228814,68.2089552 185.116949,67.9477612 C185.955932,67.9477612 186.813559,67.9477612 187.559322,67.9477612 C187.50339,68.3955224 187.410169,68.8246269 187.391525,69.2537313 C187.372881,70.261194 187.410169,71.2686567 187.372881,72.2761194 C187.316949,73.8246269 186.627119,74.5335821 185.079661,74.7201493 C184.911864,74.738806 184.725424,74.7947761 184.557627,74.8320896 C184.184746,74.8134328 183.830508,74.8134328 183.476271,74.8134328 Z" id="Path"></path>
            <path d="M109.683051,74.8134328 C109.347458,74.738806 109.011864,74.6828358 108.676271,74.608209 C107.538983,74.3470149 106.942373,73.6567164 106.905085,72.4813433 C106.867797,71.3432836 106.905085,70.2052239 106.867797,69.0671642 C106.849153,68.6940299 106.737288,68.3208955 106.662712,67.9291045 C107.408475,67.9291045 108.266102,67.9291045 108.99322,67.9291045 C108.937288,68.4141791 108.862712,68.9179104 108.844068,69.4402985 C108.825424,70.3358209 108.825424,71.2126866 108.844068,72.108209 C108.862712,72.9104478 109.291525,73.3022388 110.149153,73.3208955 C111.081356,73.3395522 111.60339,72.9850746 111.622034,72.1641791 C111.659322,70.9701493 111.640678,69.7947761 111.622034,68.6007463 C111.622034,68.3768657 111.454237,68.1529851 111.342373,67.9104478 C112.181356,67.9104478 113.038983,67.9104478 113.784746,67.9104478 C113.728814,68.3768657 113.635593,68.8432836 113.616949,69.3283582 C113.598305,70.2425373 113.616949,71.1753731 113.598305,72.0895522 C113.579661,73.6940299 112.852542,74.4776119 111.267797,74.6641791 C111.1,74.6828358 110.913559,74.738806 110.745763,74.7574627 C110.410169,74.8134328 110.037288,74.8134328 109.683051,74.8134328 Z" id="Path"></path>
            <path d="M58.9338983,74.8134328 C58.9338983,74.0485075 58.9338983,73.2649254 58.9338983,72.5373134 C59.6983051,72.7985075 60.4254237,73.0597015 61.1711864,73.2835821 C61.4881356,73.3768657 61.8610169,73.358209 62.1966102,73.358209 C62.5135593,73.358209 62.8491525,73.2462687 62.8491525,72.9104478 C62.8491525,72.7052239 62.5881356,72.4440299 62.3644068,72.3320896 C61.9915254,72.1455224 61.5440678,72.0895522 61.1525424,71.9402985 C60.6677966,71.7537313 60.1644068,71.5485075 59.7169492,71.2873134 C59.0644068,70.8955224 58.8220339,70.261194 58.8966102,69.4962687 C58.9711864,68.7686567 59.4,68.3395522 60.0338983,68.0783582 C61.1525424,67.630597 62.2898305,67.6679104 63.4271186,68.0037313 C63.8559322,68.1343284 64.2661017,68.3395522 64.6389831,67.6865672 C64.6389831,68.5261194 64.6389831,69.1977612 64.6389831,69.8320896 C63.8559322,69.6268657 63.0915254,69.4029851 62.3084746,69.2350746 C62.0101695,69.1791045 61.6745763,69.1977612 61.3762712,69.2723881 C61.2271186,69.3097015 61.0033898,69.4962687 60.9847458,69.6268657 C60.9661017,69.7761194 61.1338983,69.9813433 61.2830508,70.0746269 C61.5067797,70.2238806 61.7864407,70.2985075 62.0474576,70.391791 C62.5881356,70.5783582 63.1474576,70.7276119 63.6694915,70.9514925 C64.6762712,71.3992537 65.0491525,72.0335821 64.9559322,73.0037313 C64.8627119,73.8619403 64.2847458,74.4589552 63.2779661,74.7201493 C63.1661017,74.738806 63.0728814,74.7947761 62.9610169,74.8320896 C62.4016949,74.8320896 61.8423729,74.8320896 61.2830508,74.8320896 C60.8355932,74.7014925 60.3508475,74.6268657 59.9220339,74.4402985 C59.4372881,74.2350746 59.1949153,74.4029851 59.0084746,74.8320896 C59.0084746,74.8134328 58.9711864,74.8134328 58.9338983,74.8134328 Z" id="Path"></path>
            <path d="M117.289831,74.8134328 C117.289831,74.0485075 117.289831,73.2649254 117.289831,72.5186567 C118.091525,72.7798507 118.818644,73.0597015 119.564407,73.2649254 C119.937288,73.358209 120.347458,73.3768657 120.738983,73.3208955 C120.925424,73.3022388 121.205085,73.0783582 121.242373,72.891791 C121.261017,72.7238806 121.055932,72.4253731 120.888136,72.3507463 C120.477966,72.1641791 120.011864,72.0895522 119.583051,71.9216418 C119.116949,71.7350746 118.632203,71.5485075 118.20339,71.2873134 C117.532203,70.8955224 117.252542,70.261194 117.327119,69.4776119 C117.401695,68.7313433 117.849153,68.2835821 118.501695,68.0223881 C119.676271,67.5559701 120.850847,67.630597 122.025424,68.0037313 C122.398305,68.1156716 122.715254,68.2089552 123.032203,67.8171642 C123.032203,68.4701493 123.032203,69.1231343 123.032203,69.7761194 C122.286441,69.5895522 121.540678,69.3656716 120.776271,69.1977612 C120.515254,69.141791 120.216949,69.1231343 119.955932,69.1791045 C119.750847,69.2350746 119.583051,69.4402985 119.39661,69.5708955 C119.527119,69.738806 119.638983,69.9813433 119.80678,70.0559701 C120.123729,70.2238806 120.477966,70.2985075 120.832203,70.4104478 C121.335593,70.5970149 121.857627,70.7462687 122.342373,70.988806 C123.069492,71.3619403 123.516949,71.9589552 123.423729,72.8171642 C123.330508,73.7126866 122.827119,74.2910448 121.969492,74.5522388 C121.764407,74.608209 121.559322,74.6828358 121.372881,74.738806 C120.850847,74.738806 120.310169,74.738806 119.788136,74.738806 C119.359322,74.6268657 118.89322,74.5708955 118.483051,74.3843284 C117.979661,74.1604478 117.662712,74.2723881 117.420339,74.738806 C117.364407,74.8134328 117.327119,74.8134328 117.289831,74.8134328 Z" id="Path"></path>
            <path d="M152.508475,74.8134328 C152.228814,74.7574627 151.967797,74.7014925 151.688136,74.6455224 C149.842373,74.2350746 148.816949,72.9850746 148.872881,71.1940299 C148.910169,69.4402985 150.010169,68.2276119 151.818644,67.891791 C152.732203,67.7238806 153.627119,67.761194 154.50339,68.0223881 C154.876271,68.1343284 155.230508,68.2462687 155.547458,67.7238806 C155.547458,68.5261194 155.547458,69.1977612 155.547458,69.9440299 C155.379661,69.869403 155.230508,69.7947761 155.081356,69.7201493 C154.335593,69.3656716 153.571186,69.1791045 152.732203,69.2350746 C151.650847,69.3097015 150.979661,70.0559701 150.961017,71.2313433 C150.942373,72.4067164 151.613559,73.2276119 152.694915,73.3208955 C153.105085,73.358209 153.49661,73.2835821 154.018644,73.2462687 C153.944068,72.5746269 153.869492,71.9776119 153.794915,71.3619403 C154.372881,71.3619403 155.1,71.3619403 155.883051,71.3619403 C155.883051,72.2014925 155.901695,73.0223881 155.864407,73.8432836 C155.864407,73.9738806 155.659322,74.141791 155.510169,74.1977612 C154.876271,74.4029851 154.242373,74.5522388 153.608475,74.7201493 C153.440678,74.7574627 153.254237,74.7947761 153.086441,74.8320896 C152.9,74.8134328 152.713559,74.8134328 152.508475,74.8134328 Z" id="Path"></path>
            <path d="M197.90678,70.9514925 C197.422034,72.2014925 196.415254,72.6119403 195.184746,72.6492537 C194.662712,72.6679104 194.140678,72.6492537 193.544068,72.6492537 C193.618644,73.3395522 193.320339,73.9925373 193.898305,74.5895522 C192.984746,74.5895522 192.145763,74.5895522 191.418644,74.5895522 C191.474576,74.1604478 191.567797,73.7313433 191.586441,73.3022388 C191.605085,71.9589552 191.605085,70.5970149 191.586441,69.2537313 C191.586441,68.8246269 191.474576,68.3955224 191.4,67.8544776 C192.854237,67.9104478 194.420339,67.9291045 195.986441,68.0410448 C196.862712,68.1156716 197.533898,68.619403 197.90678,69.4589552 C197.90678,69.9626866 197.90678,70.4664179 197.90678,70.9514925 Z M193.562712,71.3992537 C194.177966,71.3432836 194.737288,71.3432836 195.277966,71.2313433 C195.744068,71.1380597 195.949153,70.7276119 195.911864,70.2052239 C195.874576,69.738806 195.650847,69.4029851 195.184746,69.3470149 C194.662712,69.2910448 194.122034,69.2910448 193.562712,69.2537313 C193.562712,70 193.562712,70.6529851 193.562712,71.3992537 Z" id="Shape"></path>
            <path d="M136.679661,74.8134328 C136.437288,74.7574627 136.213559,74.7014925 135.971186,74.6455224 C134.144068,74.2350746 133.19322,73.0223881 133.230508,71.1380597 C133.267797,69.4589552 134.367797,68.1343284 136.120339,67.891791 C136.977966,67.7798507 137.872881,67.9291045 138.767797,67.9664179 C139.066102,67.9850746 139.383051,67.9664179 139.718644,67.9664179 C139.718644,68.488806 139.718644,69.141791 139.718644,69.7201493 C138.972881,69.5522388 138.227119,69.2910448 137.481356,69.2350746 C136.120339,69.1231343 135.318644,69.9067164 135.318644,71.25 C135.318644,72.5 136.176271,73.3955224 137.462712,73.3022388 C138.227119,73.2462687 138.972881,72.9664179 139.755932,72.7985075 C139.755932,73.1156716 139.774576,73.5261194 139.737288,73.9552239 C139.718644,74.0858209 139.550847,74.2723881 139.420339,74.3097015 C138.786441,74.4962687 138.115254,74.6455224 137.481356,74.8134328 C137.220339,74.8134328 136.940678,74.8134328 136.679661,74.8134328 Z" id="Path"></path>
            <path d="M104.444068,47.1455224 C104.835593,48.0597015 103.586441,47.761194 103.474576,48.3955224 C103.530508,48.4701493 103.605085,48.5820896 103.679661,48.7126866 C103.642373,48.7313433 103.623729,48.7686567 103.605085,48.7686567 C102.952542,48.7873134 102.449153,48.2276119 102.579661,47.5746269 C102.654237,47.238806 102.747458,46.9029851 102.859322,46.5671642 C102.971186,46.2126866 103.157627,45.8768657 102.989831,45.4477612 C102.915254,45.261194 103.064407,44.9067164 103.213559,44.738806 C104.015254,43.7686567 104.350847,42.630597 104.537288,41.4365672 C104.555932,41.2873134 104.686441,41.1567164 104.761017,41.0074627 C104.854237,40.7835821 104.984746,40.5783582 105.022034,40.3358209 C105.077966,39.8880597 105.077966,39.4402985 105.115254,39.011194 C105.133898,38.8059701 105.152542,38.5634328 105.227119,38.3955224 C105.394915,38.0597015 105.637288,37.761194 105.376271,37.3880597 C105.09661,36.9776119 104.798305,36.5671642 104.444068,36.2126866 C104.164407,35.9141791 103.810169,35.6902985 103.49322,35.4291045 C103.213559,35.2052239 102.952542,34.9626866 102.616949,34.6641791 C107.688136,34.6641791 112.647458,34.6641791 117.588136,34.6641791 C117.60678,34.9067164 117.662712,35.130597 117.644068,35.3358209 C117.625424,35.5410448 117.550847,35.7276119 117.457627,35.9141791 C117.233898,36.3246269 117.010169,36.7350746 116.767797,37.1455224 C116.525424,37.5559701 116.320339,37.9850746 116.040678,38.358209 C115.947458,38.488806 115.686441,38.5634328 115.5,38.5820896 C114.586441,38.6007463 113.877966,38.9552239 113.430508,39.7761194 C112.535593,41.3619403 111.305085,42.6119403 109.608475,43.3395522 C109.477966,43.3955224 109.347458,43.6007463 109.347458,43.7313433 C109.366102,44.1604478 109.142373,44.3283582 108.769492,44.4589552 C108.079661,44.7014925 107.427119,45.130597 106.718644,45.2425373 C105.991525,45.3731343 105.749153,45.858209 105.394915,46.3432836 C105.171186,46.6604478 104.798305,46.8470149 104.444068,47.1455224 Z" id="Path"></path>
            <path d="M74.2033898,38.4514925 C79.740678,48.2089552 88.0932203,53.358209 99.2610169,53.2649254 C110.223729,53.1902985 118.389831,48.0410448 123.759322,38.4328358 C123.386441,39.2164179 123.032203,40.0186567 122.622034,40.7649254 C119.676271,46.1380597 115.537288,50.2238806 109.962712,52.8171642 C105.861017,54.7201493 101.535593,55.4477612 97.0237288,55.130597 C93.3135593,54.869403 89.7898305,53.9552239 86.4898305,52.2201493 C82.220339,49.9626866 78.9016949,46.6791045 76.4033898,42.5559701 C75.5830508,41.25 74.9305085,39.8320896 74.2033898,38.4514925 Z" id="Path"></path>
            <path d="M113.150847,28.1156716 C114.027119,29.4029851 114.90339,30.6716418 115.816949,31.9962687 C114.344068,31.9962687 112.945763,31.9962687 111.547458,31.9962687 C111.547458,31.9589552 111.528814,31.9216418 111.547458,31.8843284 C111.994915,31.1940299 111.994915,31.1940299 111.547458,30.5410448 C111.19322,30.0186567 110.820339,29.5149254 110.50339,28.9738806 C110.261017,28.5447761 109.962712,28.3395522 109.477966,28.4328358 C109.291525,28.4701493 109.086441,28.4328358 108.844068,28.4328358 C108.844068,29.3843284 108.80678,30.2798507 108.862712,31.1567164 C108.881356,31.4179104 109.179661,31.6791045 109.366102,31.9776119 C108.042373,31.9776119 106.755932,31.9776119 105.432203,31.9776119 C105.432203,31.9776119 105.413559,31.9216418 105.413559,31.9216418 C105.954237,31.4365672 105.935593,30.8022388 105.916949,30.1679104 C105.898305,28.0597015 105.916949,25.9514925 105.916949,23.8432836 C105.916949,23.2276119 106.028814,22.5746269 105.264407,22.108209 C105.488136,22.0708955 105.581356,22.0522388 105.655932,22.0522388 C107.725424,22.0522388 109.813559,22.0522388 111.883051,22.0708955 C112.218644,22.0708955 112.572881,22.108209 112.908475,22.1828358 C114.101695,22.4440299 115.015254,23.0410448 115.294915,24.3283582 C115.574576,25.6716418 115.145763,26.7723881 114.045763,27.5746269 C113.784746,27.761194 113.486441,27.9291045 113.150847,28.1156716 Z M108.825424,24.1231343 C108.825424,24.8880597 108.80678,25.5970149 108.844068,26.2873134 C108.844068,26.380597 109.049153,26.5671642 109.179661,26.5671642 C109.720339,26.6044776 110.279661,26.641791 110.801695,26.5485075 C111.211864,26.4925373 111.659322,26.3246269 112.013559,26.0820896 C112.442373,25.8022388 112.498305,25.3171642 112.349153,24.8320896 C112.2,24.3843284 111.845763,24.141791 111.379661,24.1231343 C110.540678,24.1044776 109.720339,24.1231343 108.825424,24.1231343 Z" id="Shape"></path>
            <path d="M56.2677966,22.0335821 C57.2186441,22.0335821 58.1694915,22.0149254 59.120339,22.0522388 C59.2881356,22.0522388 59.4559322,22.2201493 59.5864407,22.3507463 C60.9474576,23.880597 62.2898305,25.4104478 63.6322034,26.9402985 C63.8559322,27.1828358 64.0610169,27.4253731 64.359322,27.761194 C64.3779661,27.5373134 64.3966102,27.4067164 64.3966102,27.2761194 C64.3966102,25.8955224 64.4338983,24.5149254 64.3779661,23.1156716 C64.359322,22.761194 64.1169492,22.4253731 63.9677966,22.0522388 C64.9932203,22.0522388 66.0745763,22.0522388 67.1559322,22.0522388 C67.1559322,22.0708955 67.1932203,22.1268657 67.1745763,22.1268657 C66.6898305,22.5746269 66.6711864,23.1343284 66.6711864,23.75 C66.6898305,26.2873134 66.6711864,28.8246269 66.6711864,31.3619403 C66.6711864,31.5485075 66.6711864,31.7537313 66.6711864,32.0149254 C65.9440678,32.0149254 65.2542373,32.0335821 64.5644068,31.9962687 C64.4152542,31.9962687 64.2661017,31.8097015 64.1542373,31.6977612 C62.5694915,30 61.0033898,28.2835821 59.4372881,26.5671642 C59.3254237,26.4552239 59.2508475,26.3059701 59.1576271,26.1753731 C59.1016949,26.1940299 59.0644068,26.2313433 59.0084746,26.25 C59.0084746,26.6231343 59.0084746,26.9962687 59.0084746,27.369403 C59.0084746,28.2835821 59.0084746,29.1791045 59.0084746,30.0932836 C59.0084746,30.7462687 58.840678,31.4738806 59.5118644,31.9776119 C58.4118644,31.9776119 57.3305085,31.9776119 56.2305085,31.9776119 C56.2305085,31.9589552 56.2118644,31.9216418 56.2118644,31.9029851 C56.7525424,31.4179104 56.7338983,30.8022388 56.7338983,30.1492537 C56.7152542,28.0223881 56.7152542,25.8955224 56.7338983,23.7686567 C56.7338983,23.1529851 56.8271186,22.5373134 56.1372881,22.1268657 C56.1932203,22.1268657 56.2305085,22.0708955 56.2677966,22.0335821 Z" id="Path"></path>
            <path d="M41.5576271,22.0708955 C42.8440678,22.0708955 44.1491525,22.0708955 45.5847458,22.0708955 C44.7644068,22.6679104 44.9694915,23.4514925 44.9694915,24.1604478 C44.9508475,25.5223881 44.9694915,26.9029851 44.9694915,28.2649254 C44.9694915,29.4029851 45.5847458,30.0373134 46.740678,30.0746269 C46.9830508,30.0932836 47.2440678,30.0932836 47.4864407,30.0746269 C48.4745763,29.9813433 49.0711864,29.4029851 49.0898305,28.4141791 C49.1271186,26.6231343 49.1271186,24.8134328 49.0898305,23.0223881 C49.0898305,22.7238806 48.8101695,22.4253731 48.6423729,22.0895522 C49.9101695,22.0895522 51.2152542,22.0895522 52.6508475,22.0895522 C51.8677966,22.6492537 52.0355932,23.3955224 52.0355932,24.1044776 C52.0355932,25.5223881 52.0355932,26.9402985 52.0355932,28.358209 C52.0169492,30.6343284 51.159322,31.6791045 48.9220339,32.0708955 C47.4864407,32.3320896 46.0322034,32.3134328 44.6152542,31.9589552 C42.9186441,31.5298507 42.0983051,30.4664179 42.0610169,28.7126866 C42.0237288,27.1455224 42.0610169,25.5783582 42.0423729,24.011194 C42.0237288,23.3395522 42.1915254,22.6119403 41.5576271,22.0708955 Z" id="Path"></path>
            <path d="M119.508475,32.3320896 C119.508475,31.0634328 119.508475,29.9253731 119.508475,28.7873134 C120.272881,29.1044776 121,29.4776119 121.783051,29.7201493 C122.472881,29.9440299 123.2,30.0373134 123.908475,30.130597 C124.20678,30.1679104 124.561017,30.1492537 124.822034,30.0186567 C125.045763,29.9067164 125.325424,29.6268657 125.344068,29.4029851 C125.362712,29.1791045 125.138983,28.8432836 124.915254,28.7126866 C124.561017,28.5074627 124.113559,28.4328358 123.722034,28.2835821 C122.69661,27.8731343 121.615254,27.5932836 120.701695,27.0149254 C119.023729,25.9701493 118.986441,23.5634328 120.589831,22.5746269 C121.167797,22.2201493 121.857627,22.0149254 122.510169,21.8656716 C123.908475,21.5671642 125.30678,21.7723881 126.630508,22.2574627 C127.115254,22.4253731 127.432203,22.3880597 127.730508,21.9962687 C127.767797,21.9402985 127.842373,21.8843284 127.972881,21.7910448 C127.972881,22.8731343 127.972881,23.8992537 127.972881,24.9813433 C127.805085,24.9067164 127.637288,24.8507463 127.488136,24.7947761 C126.276271,24.3283582 125.027119,23.9365672 123.70339,23.9365672 C123.442373,23.9365672 123.181356,23.9925373 122.938983,24.0858209 C122.435593,24.2910448 122.361017,24.7761194 122.808475,25.0932836 C123.162712,25.3358209 123.572881,25.4850746 123.964407,25.6343284 C124.80339,25.9328358 125.661017,26.1380597 126.481356,26.4925373 C127.432203,26.8843284 128.252542,27.4813433 128.476271,28.5820896 C128.79322,30.130597 128.010169,31.4552239 126.481356,31.9962687 C125.008475,32.5 123.535593,32.369403 122.044068,32.0335821 C121.652542,31.9402985 121.261017,31.8656716 120.90678,31.7164179 C120.422034,31.4925373 120.105085,31.6044776 119.825424,32.0149254 C119.769492,32.0895522 119.676271,32.1641791 119.508475,32.3320896 Z" id="Path"></path>
            <path d="M101.461017,29.4216418 C101.461017,30.3171642 101.461017,31.1380597 101.461017,31.9962687 C98.3661017,31.9962687 95.2898305,31.9962687 92.1016949,31.9962687 C93.0152542,31.2686567 92.679661,30.3171642 92.6983051,29.4589552 C92.7355932,27.6492537 92.7169492,25.8395522 92.7169492,24.011194 C92.7169492,23.3395522 92.8847458,22.6119403 92.1016949,22.0522388 C95.3271186,22.0522388 98.3847458,22.0522388 101.479661,22.0522388 C101.479661,22.891791 101.479661,23.7313433 101.479661,24.7014925 C100.883051,23.880597 100.081356,24.1044776 99.3542373,24.1044776 C98.1423729,24.0858209 96.9305085,24.1044776 95.6813559,24.1044776 C95.6813559,24.7574627 95.6813559,25.3544776 95.6813559,26.0261194 C96.7440678,26.0261194 97.7881356,26.0634328 98.8322034,26.0074627 C99.0745763,25.988806 99.3169492,25.6902985 99.5779661,25.5037313 C99.5779661,26.5298507 99.5779661,27.5186567 99.5779661,28.5074627 C99.559322,28.5074627 99.5220339,28.5261194 99.5033898,28.5261194 C99.0745763,28.0223881 98.4966102,27.9850746 97.9,28.0223881 C97.1728814,28.0597015 96.4644068,28.0223881 95.7,28.0223881 C95.7,28.6753731 95.7,29.2910448 95.7,29.9813433 C95.8677966,29.9813433 96.0542373,29.9813433 96.2220339,29.9813433 C97.4338983,29.9813433 98.6271186,29.9813433 99.8389831,29.9813433 C100.622034,29.9626866 100.622034,29.9626866 101.461017,29.4216418 Z" id="Path"></path>
            <path d="M131.161017,31.9962687 C131.366102,31.5485075 131.571186,31.119403 131.776271,30.6902985 C132.932203,28.3022388 134.069492,25.9141791 135.225424,23.5261194 C135.449153,23.0597015 135.766102,22.630597 135.20678,22.108209 C135.244068,22.0895522 135.281356,22.0522388 135.318644,22.0335821 C135.747458,22.0335821 136.176271,22.0335821 136.623729,22.0335821 C137.276271,22.0522388 138.059322,21.8470149 138.562712,22.1455224 C139.028814,22.4253731 139.19661,23.2276119 139.476271,23.7873134 C140.744068,26.3619403 142.011864,28.9179104 143.261017,31.4925373 C143.335593,31.641791 143.410169,31.8097015 143.50339,32.0149254 C142.123729,32.0149254 140.8,32.0149254 139.401695,32.0149254 C139.494915,31.8843284 139.532203,31.7537313 139.625424,31.6791045 C139.942373,31.4179104 139.905085,31.1753731 139.755932,30.8208955 C139.569492,30.3358209 139.289831,30.2052239 138.805085,30.2238806 C137.611864,30.261194 136.4,30.261194 135.20678,30.2238806 C134.833898,30.2238806 134.610169,30.3171642 134.461017,30.6902985 C134.330508,31.0447761 134.088136,31.3619403 134.516949,31.6977612 C134.610169,31.7723881 134.647458,31.8843284 134.759322,32.0149254 C133.510169,31.9962687 132.372881,31.9962687 131.161017,31.9962687 Z M135.39322,28.4141791 C136.549153,28.4141791 137.59322,28.4141791 138.69322,28.4141791 C138.133898,27.2201493 137.611864,26.0820896 137.033898,24.8320896 C136.474576,26.0634328 135.952542,27.2014925 135.39322,28.4141791 Z" id="Shape"></path>
            <path d="M78.1186441,22.0522388 C79.4983051,22.0522388 80.8033898,22.0522388 82.1084746,22.0522388 C82.1084746,22.0895522 82.1271186,22.1455224 82.1271186,22.1455224 C81.5864407,22.5746269 81.7355932,23.0410448 81.9779661,23.5634328 C82.6305085,24.9440299 83.2271186,26.3619403 83.8423729,27.761194 C83.8983051,27.9104478 83.9728814,28.0410448 84.0847458,28.2649254 C84.9237288,26.4552239 85.7254237,24.7201493 86.5084746,22.9850746 C86.5644068,22.8731343 86.5084746,22.7052239 86.4525424,22.5932836 C86.359322,22.4253731 86.2101695,22.2947761 86.0423729,22.0708955 C87.2169492,22.0708955 88.3169492,22.0708955 89.4915254,22.0708955 C89.4169492,22.238806 89.3610169,22.369403 89.2864407,22.5186567 C87.8508475,25.5597015 86.4338983,28.6007463 85.0169492,31.641791 C84.8864407,31.9216418 84.7372881,32.0895522 84.4016949,32.0522388 C83.8610169,32.0149254 83.2084746,32.2014925 82.8169492,31.9589552 C82.4254237,31.7164179 82.2949153,31.0447761 82.0711864,30.5597015 C80.840678,27.9291045 79.6101695,25.2798507 78.379661,22.6492537 C78.2864407,22.4626866 78.2118644,22.2761194 78.1186441,22.0522388 Z" id="Path"></path>
            <path d="M146.262712,31.9962687 C147.101695,31.4179104 146.89661,30.6156716 146.89661,29.8880597 C146.89661,27.8544776 146.89661,25.8395522 146.89661,23.8059701 C146.89661,23.1902985 146.989831,22.5746269 146.244068,22.0895522 C147.698305,22.0895522 148.984746,22.0895522 150.271186,22.0895522 C150.271186,22.108209 150.289831,22.1455224 150.289831,22.1641791 C149.786441,22.6119403 149.805085,23.1902985 149.805085,23.7873134 C149.823729,25.6529851 149.805085,27.5186567 149.805085,29.3843284 C149.805085,29.5708955 149.805085,29.738806 149.805085,29.9813433 C150.401695,29.9813433 150.961017,29.9813433 151.520339,29.9813433 C152.116949,29.9813433 152.713559,29.9813433 153.291525,29.9813433 C154,29.9813433 154.745763,30.1492537 155.323729,29.3283582 C155.323729,30.3171642 155.323729,31.1380597 155.323729,32.0149254 C152.377966,31.9962687 149.376271,31.9962687 146.262712,31.9962687 Z" id="Path"></path>
            <path d="M98.6830508,72.0335821 C99.3169492,70.7276119 99.9135593,69.5149254 100.491525,68.3022388 C100.622034,68.0037313 100.789831,67.8731343 101.125424,67.891791 C101.740678,67.9291045 102.337288,67.891791 103.045763,67.891791 C102.467797,68.5074627 102.691525,69.2164179 102.672881,69.8880597 C102.635593,71.0820896 102.654237,72.2947761 102.672881,73.5074627 C102.672881,73.8619403 102.784746,74.2164179 102.859322,74.5895522 C102.150847,74.5895522 101.330508,74.5895522 100.622034,74.5895522 C100.677966,74.1791045 100.771186,73.7686567 100.789831,73.3395522 C100.808475,72.5932836 100.789831,71.8470149 100.69661,71.0634328 C100.211864,72.0708955 99.6898305,73.0783582 99.2423729,74.1231343 C99.0745763,74.5149254 98.8508475,74.6641791 98.4220339,74.6455224 C98.1423729,74.6268657 97.9745763,74.5335821 97.8627119,74.2910448 C97.3779661,73.3395522 96.8559322,72.4067164 96.3525424,71.4552239 C96.2779661,71.3246269 96.2033898,71.1753731 96.0542373,71.0634328 C96.1101695,72.238806 95.7932203,73.4141791 96.240678,74.608209 C95.6254237,74.608209 94.9542373,74.608209 94.3949153,74.608209 C94.4508475,74.141791 94.5440678,73.6567164 94.5627119,73.1716418 C94.5813559,71.8656716 94.5813559,70.5597015 94.5627119,69.2723881 C94.5627119,68.8432836 94.4508475,68.4141791 94.3949153,67.9291045 C94.9542373,67.9291045 95.6440678,67.9104478 96.3152542,67.9477612 C96.4457627,67.9477612 96.5949153,68.1343284 96.6694915,68.2835821 C97.2661017,69.3656716 97.8254237,70.4664179 98.4220339,71.5485075 C98.4779661,71.6604478 98.5525424,71.8097015 98.6830508,72.0335821 Z" id="Path"></path>
            <path d="M53.620339,71.9962687 C54.1983051,72.8544776 54.7762712,73.6940299 55.3915254,74.5895522 C54.4220339,74.5895522 53.5084746,74.5895522 52.5389831,74.5895522 C53.0237288,74.1977612 52.7067797,73.880597 52.4830508,73.5447761 C52.3152542,73.3022388 52.1101695,73.0783582 51.9983051,72.7985075 C51.7372881,72.2574627 51.3644068,72.0895522 50.7491525,72.2761194 C50.8237288,73.0223881 50.5067797,73.8246269 51.0474576,74.5895522 C50.1711864,74.5895522 49.3508475,74.5895522 48.4372881,74.5895522 C48.940678,74.0858209 48.7728814,73.488806 48.7728814,72.9104478 C48.7915254,71.641791 48.7915254,70.3731343 48.7728814,69.1044776 C48.7728814,68.7126866 48.6610169,68.3395522 48.5864407,67.9104478 C48.5864407,67.9104478 48.7169492,67.891791 48.8288136,67.891791 C50.2830508,67.9104478 51.7186441,67.8731343 53.1728814,67.9664179 C54.2915254,68.0410448 54.9440678,68.6007463 55.0932203,69.4402985 C55.2983051,70.4850746 54.8881356,71.2873134 53.9,71.8470149 C53.8067797,71.8843284 53.7322034,71.9402985 53.620339,71.9962687 Z M50.7491525,71.0074627 C51.3644068,70.9701493 51.9423729,70.9701493 52.5016949,70.858209 C52.9305085,70.7835821 53.1542373,70.4291045 53.1169492,69.9813433 C53.079661,69.5149254 52.7440678,69.3283582 52.3338983,69.3097015 C51.8118644,69.2910448 51.2898305,69.3097015 50.7491525,69.3097015 C50.7491525,69.869403 50.7491525,70.391791 50.7491525,71.0074627 Z" id="Shape"></path>
            <path d="M164.49661,72.0149254 C165.074576,72.8731343 165.652542,73.6940299 166.267797,74.5895522 C165.298305,74.5895522 164.384746,74.5895522 163.415254,74.5895522 C163.881356,74.2164179 163.620339,73.8992537 163.377966,73.5820896 C163.191525,73.3208955 162.967797,73.0597015 162.837288,72.761194 C162.576271,72.2201493 162.184746,72.1268657 161.60678,72.2761194 C161.7,73.0223881 161.345763,73.8432836 161.923729,74.608209 C161.028814,74.608209 160.189831,74.608209 159.276271,74.608209 C159.779661,74.141791 159.630508,73.6007463 159.630508,73.0783582 C159.630508,71.7723881 159.649153,70.4664179 159.630508,69.1791045 C159.630508,68.7686567 159.518644,68.3768657 159.444068,67.9104478 C159.611864,67.9104478 159.891525,67.9104478 160.189831,67.9104478 C161.476271,67.9291045 162.762712,67.891791 164.030508,67.9850746 C165.149153,68.0597015 165.783051,68.619403 165.950847,69.4589552 C166.155932,70.5037313 165.745763,71.3059701 164.738983,71.8656716 C164.664407,71.9029851 164.608475,71.9402985 164.49661,72.0149254 Z M161.60678,71.0074627 C162.240678,70.9514925 162.837288,70.9701493 163.39661,70.8395522 C163.825424,70.7462687 164.030508,70.391791 163.974576,69.9440299 C163.918644,69.5149254 163.601695,69.3283582 163.210169,69.3097015 C162.669492,69.2910448 162.147458,69.3097015 161.588136,69.3097015 C161.60678,69.8880597 161.60678,70.391791 161.60678,71.0074627 Z" id="Shape"></path>
            <path d="M12.9949153,70.8395522 C13.1254237,72.0895522 12.7711864,73.358209 13.2372881,74.608209 C12.5847458,74.608209 11.8949153,74.608209 11.3169492,74.608209 C11.3728814,74.141791 11.4661017,73.6940299 11.4661017,73.2462687 C11.4847458,71.9402985 11.4847458,70.6343284 11.4661017,69.3470149 C11.4661017,68.880597 11.3542373,68.4141791 11.2983051,67.9104478 C11.8016949,67.9104478 12.4355932,67.891791 13.0508475,67.9291045 C13.2,67.9291045 13.3491525,68.0970149 13.4610169,68.2276119 C14.4864407,69.3843284 15.5118644,70.5410448 16.5932203,71.6977612 C16.5,70.4477612 16.9101695,69.1791045 16.3881356,67.9477612 C17.059322,67.9477612 17.7677966,67.9477612 18.3644068,67.9477612 C18.3084746,68.3955224 18.2152542,68.8246269 18.1966102,69.2537313 C18.1779661,70.858209 18.1966102,72.4440299 18.1966102,74.0485075 C18.1966102,74.2164179 18.1966102,74.4029851 18.1966102,74.6455224 C17.7118644,74.6455224 17.2644068,74.6641791 16.8355932,74.6268657 C16.6864407,74.608209 16.5186441,74.4589552 16.4067797,74.3283582 C15.3254237,73.1529851 14.2440678,71.9776119 13.1627119,70.8022388 C13.0881356,70.8208955 13.0322034,70.8208955 12.9949153,70.8395522 Z" id="Path"></path>
            <path d="M71.2576271,31.9962687 C71.9847458,31.5298507 71.9288136,30.9141791 71.9101695,30.2985075 C71.8915254,28.2089552 71.9101695,26.119403 71.9101695,24.0298507 C71.9101695,23.358209 72.0779661,22.630597 71.2762712,22.0895522 C72.7305085,22.0895522 74.0355932,22.0895522 75.359322,22.0895522 C75.359322,22.108209 75.3966102,22.1641791 75.3779661,22.1641791 C74.8745763,22.5932836 74.8745763,23.1716418 74.8745763,23.7873134 C74.8932203,25.9514925 74.8932203,28.0970149 74.8745763,30.261194 C74.8745763,30.8955224 74.8,31.5298507 75.5644068,32.0149254 C74.0915254,31.9962687 72.7491525,31.9962687 71.2576271,31.9962687 Z" id="Path"></path>
            <path d="M44.6898305,73.0783582 C44.6898305,73.5074627 44.6898305,74.0298507 44.6898305,74.5895522 C42.620339,74.5895522 40.5881356,74.5895522 38.6491525,74.5895522 C38.7050847,74.1604478 38.8169492,73.75 38.8169492,73.3208955 C38.8355932,71.9216418 38.8355932,70.5223881 38.8169492,69.1231343 C38.8169492,68.7313433 38.6864407,68.358209 38.6305085,67.9477612 C40.5694915,67.9477612 42.6016949,67.9477612 44.6898305,67.9477612 C44.6898305,68.488806 44.6898305,69.0298507 44.6898305,69.5522388 C43.4966102,69.0485075 42.2474576,69.4029851 41.0355932,69.3283582 C40.9610169,69.3283582 40.7932203,69.4962687 40.7932203,69.5895522 C40.7559322,69.9067164 40.7745763,70.2425373 40.7745763,70.6343284 C41.6881356,70.5223881 42.5830508,70.8768657 43.4220339,70.3171642 C43.4220339,70.9701493 43.4220339,71.5858209 43.4220339,72.2201493 C42.5830508,71.6791045 41.6881356,72.0708955 40.7932203,71.9029851 C40.7932203,72.3880597 40.7932203,72.7798507 40.7932203,73.2462687 C42.0983051,73.1529851 43.3847458,73.4141791 44.6898305,73.0783582 Z" id="Path"></path>
            <path d="M70.1389831,74.608209 C69.3745763,74.608209 68.6474576,74.608209 67.8457627,74.608209 C68.1813559,73.9179104 68.4983051,73.2649254 68.7966102,72.6119403 C69.3745763,71.3992537 69.9711864,70.1865672 70.5491525,68.9552239 C70.679661,68.6567164 70.7169492,68.3208955 70.8101695,67.9104478 C71.3135593,67.9104478 71.9661017,67.891791 72.6186441,67.9291045 C72.7305085,67.9291045 72.8983051,68.0410448 72.9355932,68.1529851 C73.979661,70.2425373 75.0050847,72.3507463 76.0305085,74.4402985 C76.0491525,74.4776119 76.0491525,74.5335821 76.0491525,74.608209 C75.1728814,74.608209 74.3152542,74.608209 73.4762712,74.608209 C73.5322034,74.3843284 73.6813559,74.1604478 73.6440678,73.9738806 C73.5694915,73.619403 73.4016949,73.3768657 72.9355932,73.4141791 C72.2271186,73.4701493 71.5186441,73.4328358 70.8101695,73.4328358 C69.9525424,73.4328358 69.7101695,73.8432836 70.1389831,74.608209 Z M71.779661,69.7761194 C71.3881356,70.6529851 71.0338983,71.4179104 70.679661,72.1828358 C71.4627119,72.1828358 72.1525424,72.1828358 72.8983051,72.1828358 C72.5440678,71.3992537 72.1898305,70.6529851 71.779661,69.7761194 Z" id="Shape"></path>
            <path d="M35.6288136,67.9291045 C35.4423729,68.3395522 35.2745763,68.6940299 35.1067797,69.0485075 C34.2864407,70.7835821 33.4661017,72.5 32.6830508,74.2350746 C32.5525424,74.5335821 32.3847458,74.608209 32.0677966,74.6455224 C31.3033898,74.7574627 30.9491525,74.4402985 30.6508475,73.75 C29.8864407,71.9776119 29.0474576,70.2425373 28.2271186,68.5074627 C28.1525424,68.3395522 28.0779661,68.1529851 27.9847458,67.9291045 C28.8983051,67.9291045 29.7559322,67.9291045 30.7440678,67.9291045 C30.1101695,68.358209 30.4830508,68.75 30.6694915,69.1604478 C31.079661,70.130597 31.5084746,71.0820896 31.9932203,72.1455224 C32.5711864,70.8955224 33.1118644,69.738806 33.6152542,68.5634328 C33.6711864,68.4141791 33.5033898,68.1716418 33.4288136,67.9291045 C34.1,67.9291045 34.8271186,67.9291045 35.6288136,67.9291045 Z" id="Path"></path>
            <path d="M85.1474576,74.608209 C83.1338983,74.608209 81.1762712,74.608209 79.3305085,74.608209 C79.3864407,74.0858209 79.4610169,73.5634328 79.479661,73.0597015 C79.4983051,71.7910448 79.4983051,70.5223881 79.479661,69.2537313 C79.479661,68.8246269 79.3677966,68.3955224 79.3118644,67.9291045 C80.0389831,67.9291045 80.8779661,67.9291045 81.7915254,67.9291045 C81.3067797,68.3768657 81.4186441,68.9365672 81.4186441,69.4589552 C81.4186441,70.6902985 81.4186441,71.9216418 81.4186441,73.2462687 C82.6864407,73.1343284 83.9169492,73.4328358 85.1474576,73.0410448 C85.1474576,73.5074627 85.1474576,74.0298507 85.1474576,74.608209 Z" id="Path"></path>
            <path d="M129.594915,74.608209 C128.867797,74.608209 128.010169,74.608209 127.264407,74.608209 C127.320339,74.141791 127.432203,73.6753731 127.432203,73.2089552 C127.450847,71.9029851 127.450847,70.5970149 127.432203,69.3097015 C127.432203,68.8619403 127.320339,68.4141791 127.264407,67.9477612 C128.010169,67.9477612 128.867797,67.9477612 129.613559,67.9477612 C129.557627,68.3955224 129.445763,68.8432836 129.445763,69.2910448 C129.427119,70.6343284 129.427119,71.9589552 129.445763,73.3022388 C129.464407,73.7126866 129.538983,74.141791 129.594915,74.608209 Z" id="Path"></path>
            <path d="M24.8898305,74.5895522 C24.1440678,74.5895522 23.2864407,74.5895522 22.540678,74.5895522 C22.5966102,74.1604478 22.7084746,73.7313433 22.7084746,73.3208955 C22.7271186,71.9029851 22.7271186,70.4850746 22.7084746,69.0671642 C22.7084746,68.6940299 22.5779661,68.3395522 22.5220339,67.9291045 C23.2677966,67.9291045 24.1440678,67.9291045 24.8898305,67.9291045 C24.8338983,68.3768657 24.7220339,68.8432836 24.7220339,69.3097015 C24.7033898,70.6529851 24.7033898,72.0149254 24.7220339,73.358209 C24.7220339,73.7873134 24.8338983,74.1791045 24.8898305,74.5895522 Z" id="Path"></path>
            <path d="M157.262712,24.1977612 C157.262712,25.2985075 156.386441,26.1753731 155.286441,26.1940299 C154.186441,26.1940299 153.291525,25.2985075 153.291525,24.1791045 C153.291525,23.0970149 154.205085,22.2014925 155.286441,22.2201493 C156.386441,22.2201493 157.262712,23.0970149 157.262712,24.1977612 Z M157.094915,24.1977612 C157.094915,23.1902985 156.29322,22.369403 155.305085,22.369403 C154.298305,22.369403 153.49661,23.1716418 153.477966,24.1791045 C153.477966,25.1865672 154.279661,26.0074627 155.267797,26.0074627 C156.274576,26.0261194 157.094915,25.2052239 157.094915,24.1977612 Z" id="Shape"></path>
            <path d="M103.381356,18.1343284 C103.064407,18.3208955 102.188136,18.2462687 101.871186,17.9664179 C101.740678,17.8544776 101.572881,17.7798507 101.405085,17.7052239 C101.162712,17.5932836 100.901695,17.4813433 100.659322,17.369403 C100.323729,17.2201493 100.00678,17.0522388 99.7084746,16.9216418 C99.9508475,16.6977612 100.640678,16.7910448 100.957627,17.0708955 C101.144068,17.238806 101.405085,17.3134328 101.647458,17.4067164 C101.815254,17.4813433 101.983051,17.4813433 102.150847,17.5559701 C102.579661,17.7425373 102.989831,17.9477612 103.381356,18.1343284 Z" id="Path"></path>
            <path d="M105.842373,18.8059701 C105.245763,18.9738806 104.798305,19.1231343 104.369492,19.2164179 C104.257627,19.2350746 104.015254,19.1231343 103.977966,19.011194 C103.90339,18.8246269 103.922034,18.5820896 103.959322,18.3768657 C103.977966,18.3022388 104.220339,18.2089552 104.332203,18.2462687 C104.816949,18.3955224 105.264407,18.5820896 105.842373,18.8059701 Z" id="Path"></path>
            <path d="M156.032203,24.8507463 C155.622034,25.3171642 155.025424,25.3358209 154.633898,24.9253731 C154.223729,24.5149254 154.261017,23.7873134 154.689831,23.4141791 C155.118644,23.0410448 155.677966,23.0783582 156.013559,23.488806 C155.249153,23.2649254 154.913559,23.3208955 154.671186,23.7126866 C154.447458,24.0858209 154.466102,24.4402985 154.745763,24.7574627 C155.118644,25.2238806 155.566102,25.0746269 156.032203,24.8507463 Z" id="Path"></path>
        </g>
    </g>
</svg>
