<svg width="129" height="20" xmlns="http://www.w3.org/2000/svg"><g fill="#525252" fill-rule="evenodd"><path d="M9.918 12.923c.968-2.28 1.883-4.443 2.803-6.604.38-.89.746-1.788 1.154-2.665 1.993-4.285 7.23-4.668 10.193-1.715.538.536.787.391 1.253.023C27.606.16 30.139-.464 32.97.44c.92.294 1.753.758 2.365 1.497.441.534.686.43 1.173.045C38.968.035 41.712-.615 44.66.654c2.417 1.04 3.712 2.997 3.75 5.652.051 3.488.022 6.977.01 10.465-.008 1.924-1.238 3.08-3.11 2.965-1.41-.086-2.403-1.26-2.417-2.948-.023-2.864-.007-5.729-.007-8.594 0-.23.011-.463-.006-.692-.107-1.462-1.03-2.469-2.387-2.617-1.569-.171-2.785.564-3.19 1.927-.126.427-.122.867-.123 1.305-.002 2.841.006 5.683-.003 8.524-.005 1.598-.743 2.68-2.03 3.02-1.663.44-3.152-.502-3.442-2.194a6.986 6.986 0 01-.089-1.17c-.008-2.865 0-5.73-.006-8.595-.002-1.121-.39-2.056-1.456-2.547-1.109-.51-2.206-.426-3.202.31-.838.621-1.045 1.535-1.046 2.519-.002 2.957.014 5.915-.006 8.872-.012 1.814-1.14 2.91-2.902 2.882-1.562-.023-2.62-1.224-2.626-3.035-.013-3.464-.004-6.93-.004-10.396 0-.184-.002-.369 0-.554.003-.418-.183-.724-.585-.837-.446-.124-.76.086-.947.492-.568 1.236-1.131 2.474-1.697 3.71-1.161 2.537-2.314 5.078-3.491 7.606a9.992 9.992 0 01-.9 1.555c-1.412 1.996-4.173 2.015-5.653.058-.702-.93-1.109-2.016-1.59-3.063A8357.896 8357.896 0 01.338 4.024C-.394 2.429.088.944 1.538.289c1.511-.684 2.996-.031 3.694 1.62C6.683 5.35 8.136 8.792 9.59 12.23c.08.19.176.374.328.693M63.155 5.195l-2.115 6.04c-.823 2.349-1.645 4.7-2.47 7.048-.312.885-.76 1.267-1.505 1.296-.757.03-1.35-.37-1.655-1.22a4609.891 4609.891 0 01-5.708-15.95c-.314-.885 0-1.611.748-1.888.844-.312 1.614.07 1.95 1.036 1.455 4.179 2.89 8.364 4.332 12.547.097.28.2.557.347.966l2.006-5.78c.876-2.527 1.748-5.054 2.63-7.577.353-1.007.701-1.278 1.562-1.266.822.011 1.21.328 1.548 1.309 1.418 4.118 2.83 8.238 4.246 12.357.097.282.203.56.346.953.733-2.1 1.431-4.096 2.126-6.092.858-2.459 1.715-4.918 2.568-7.378.19-.547.455-1.02 1.087-1.13 1.149-.2 1.95.694 1.578 1.818-.455 1.378-.977 2.734-1.468 4.1l-4.204 11.714c-.04.108-.078.216-.123.322-.33.788-.885 1.182-1.628 1.16-.719-.022-1.212-.405-1.498-1.22-.67-1.913-1.325-3.833-1.988-5.75-.799-2.308-1.596-4.617-2.403-6.923-.057-.163-.044-.38-.309-.492M85.294 9.888c-1.404.027-2.846.162-4.1 1.032-1.905 1.323-1.988 4.116-.15 5.524 1.418 1.088 3.054 1.246 4.737.92 2.21-.43 3.97-1.48 4.656-3.804.22-.742.092-1.516.139-2.273.027-.447-.123-.651-.575-.76a22.636 22.636 0 00-4.707-.64m5.244 6.749c-1.316 1.525-2.79 2.508-4.613 2.87-2.76.548-5.357.237-7.47-1.804-2.55-2.464-1.978-6.814 1.072-8.642 1.339-.803 2.816-1.128 4.349-1.22 2.037-.124 4.055.052 6.026.588.575.156.647-.009.643-.526-.014-2.879-1.734-4.745-4.606-4.936-1.79-.12-3.538.026-5.206.786-.7.318-1.418.002-1.68-.633-.254-.617-.041-1.312.593-1.58C82.92.164 86.261-.095 89.581 1.29c2.228.93 3.28 2.827 3.556 5.15.288 2.438.083 4.891.124 7.337a160.39 160.39 0 01-.001 4.296c-.01.891-.463 1.44-1.202 1.522-.84.093-1.474-.447-1.517-1.317-.023-.482-.003-.969-.003-1.642M115.553 8.977h4.15c1.91 0 1.91 0 1.383-1.843-.953-3.326-3.927-5.104-7.01-4.155-2.572.79-3.945 3.187-4.311 5.611-.072.473.271.384.531.385 1.752.004 3.504.002 5.257.002m.931 2.114c-2.052 0-4.105.013-6.157-.01-.51-.006-.63.144-.53.64.495 2.454 1.715 4.369 4.158 5.184 2.636.881 5.046.274 7.15-1.533.34-.292.671-.59 1.146-.545.492.046.877.292 1.052.778.185.512.04.955-.34 1.324-1.334 1.3-2.87 2.24-4.718 2.588-3.124.588-5.967.018-8.36-2.178-1.589-1.456-2.502-3.303-2.818-5.421-.49-3.292.134-6.322 2.444-8.817 2.306-2.49 5.208-3.258 8.453-2.416 3.236.84 5.027 3.163 5.887 6.29.227.825.33 1.672.322 2.534-.011 1.14-.436 1.577-1.6 1.58-2.03.006-4.059.002-6.089.002M99.419 4.773c.922-1.699 2.124-2.93 3.76-3.699.82-.385 1.672-.654 2.593-.627.77.022 1.287.468 1.366 1.185.091.83-.292 1.42-1.066 1.612-.335.083-.682.114-1.017.196-3.102.753-5.171 3.183-5.546 6.565-.296 2.669-.07 5.35-.134 8.023-.025 1.035-.768 1.683-1.703 1.479-.712-.156-1.083-.639-1.085-1.465-.007-2.03-.002-4.062-.002-6.093V2.048c0-1 .541-1.653 1.357-1.659.874-.006 1.428.636 1.433 1.665.003.83.003 1.662.005 2.492 0 .023.008.046.039.227M126.706.865a1.842 1.842 0 00-1.862 1.823c-.026 1.015.866 1.929 1.865 1.913.957-.016 1.85-.931 1.84-1.887a1.858 1.858 0 00-1.843-1.849m2.287 1.847c.001 1.336-.977 2.33-2.295 2.332-1.322.002-2.317-.996-2.313-2.32.006-1.323 1.012-2.345 2.307-2.341 1.324.005 2.3.992 2.301 2.329"/><path d="M127.146 2.295c-.074-.22-.248-.279-.472-.281-.225-.003-.332.079-.331.314 0 .247.133.31.346.299.217-.013.403-.067.457-.332m-.634-.74c1.123.008 1.383.399.924 1.31-.123.244.025.334.107.477.085.15.16.31-.014.423-.157.102-.305.018-.416-.123-.085-.108-.17-.217-.264-.319-.223-.242-.446-.448-.507.105-.022.197-.066.385-.314.36-.268-.029-.213-.257-.218-.43-.007-.323.022-.648-.007-.968-.055-.612.059-1.029.709-.835"/><path d="M127.146 2.295c-.054.265-.24.32-.457.332-.213.012-.346-.052-.346-.299-.001-.235.106-.317.331-.314.224.002.398.06.472.281"/></g></svg>