<?xml version="1.0" encoding="UTF-8"?>
<svg viewBox="0 0 134 43" version="1.1" xmlns="http://www.w3.org/2000/svg" xmlns:xlink="http://www.w3.org/1999/xlink">
    <path fill="#525252" d="M25.2627706,1.28283028 C25.0176718,1.29936207 24.7758205,1.34812241 24.5434632,1.42785193 C24.2773648,1.51108679 24.0222316,1.62599408 23.7835498,1.77010301 C23.5128375,1.93610919 23.2749214,2.15043026 23.081645,2.40239738 C22.8731905,2.70301817 22.716348,3.0363086 22.6175758,3.38854457 C22.0297547,5.30283028 21.3452525,7.53809724 20.5640693,10.0943454 C19.782886,12.6505936 18.9417605,15.3828014 18.0406926,18.2909688 L16.8805195,18.2909688 L12.4428571,4.67633677 L7.81376623,18.2909688 L6.7174026,18.2909688 L4.16502165,9.23001643 L2.4247619,2.9592805 C2.34928546,2.71445069 2.23148633,2.48474237 2.07670996,2.2805792 C1.91519968,2.0709044 1.71900726,1.89040737 1.49662338,1.74689954 C1.27003618,1.5972893 1.01860277,1.48925151 0.754112554,1.42785193 C0.507370977,1.35795251 0.255067922,1.3094327 0,1.28283028 L0,0.401098678 L7.19307359,0.401098678 L7.19307359,1.28283028 C6.65557884,1.30554931 6.12046876,1.36759106 5.59203463,1.46845799 C5.14730159,1.55740459 4.92493506,1.71016073 4.92493506,1.92672638 C4.92692544,2.03774366 4.93857109,2.14837728 4.95974026,2.25737573 C4.95974026,2.39079565 5.00614719,2.5010121 5.02354978,2.58802509 C5.21304473,3.31893418 5.54949495,4.52551426 6.03290043,6.20776534 C6.51630592,7.89001643 7.23561328,10.4037249 8.19082251,13.7488909 L12.5878788,0.650535908 L13.8060606,0.650535908 L18.2495238,14.044735 C18.8489466,11.9757596 19.36329,10.1755576 19.7925541,8.64412898 C20.2218182,7.11270041 20.5853391,5.79397025 20.8831169,4.68793851 C21.0842136,3.91448973 21.2079654,3.38467732 21.2543723,3.09850128 C21.2999389,2.85740743 21.3251648,2.61291081 21.3297835,2.36759218 C21.2928817,2.03794566 21.065689,1.76077062 20.749697,1.65988656 C20.1542849,1.42390278 19.5220565,1.29431558 18.8818182,1.27702941 L18.8818182,0.401098678 L25.2627706,0.401098678 L25.2627706,1.28283028 L25.2627706,1.28283028 L25.2627706,1.28283028 Z" id="Path"></path>
    <path fill="#525252" d="M34.3295238,18.0415316 L26.3823377,18.0415316 L26.3823377,17.1598 L27.3510823,17.0785879 C27.6559975,17.0668473 27.9581597,17.0161621 28.2502165,16.9277653 C28.4836719,16.8427789 28.6859122,16.6890763 28.830303,16.4868995 C28.9616762,16.251959 29.0221244,15.9839719 29.004329,15.7153844 L29.004329,2.95347963 C29.0129897,2.70307955 28.9674793,2.4537618 28.8709091,2.22257054 C28.7258701,1.98313298 28.4959839,1.80709395 28.227013,1.72949695 C27.9282707,1.62026351 27.6219419,1.53301797 27.3104762,1.46845799 C27.0055069,1.39283342 26.6952355,1.34047512 26.3823377,1.31183461 L26.3823377,0.401098678 L34.3295238,0.401098678 L34.3295238,1.28283028 C34.0205469,1.29597804 33.7125878,1.32696763 33.4071861,1.37564413 C33.0950255,1.42249083 32.7867439,1.49229044 32.4848485,1.5844753 C32.2165415,1.64296794 31.9850678,1.81131246 31.8467532,2.04854457 C31.7370638,2.28054848 31.6815243,2.53444338 31.684329,2.79105539 L31.684329,15.5529602 C31.678621,15.8082076 31.7406702,16.0604075 31.8641558,16.2838692 C32.0060679,16.5145809 32.2201786,16.6919869 32.4732468,16.7885446 C32.7515306,16.8833978 33.0365846,16.9570852 33.325974,17.0089775 C33.6543918,17.080416 33.9880739,17.1250363 34.3237229,17.1423974 L34.3237229,18.024129 L34.3237229,18.024129 L34.3295238,18.0415316 Z" id="Path"></path>
    <path fill="#525252" d="M50.6473593,12.791748 L50.2761039,18.0125272 L36.4874459,18.0125272 L36.4874459,17.1598 L37.3575758,17.0785879 C37.6305936,17.0613537 37.8999506,17.0067016 38.1580952,16.9161636 C38.3844627,16.8251393 38.572813,16.6593092 38.6917749,16.4462935 C38.815322,16.198032 38.8751287,15.9229214 38.8658009,15.645774 L38.8658009,3.01148829 C38.8706018,2.75462991 38.8211863,2.49964583 38.7207792,2.2631766 C38.6016422,2.01849158 38.3944404,1.82786597 38.1406926,1.72949695 C37.8844963,1.60417612 37.6162948,1.50505816 37.3401732,1.43365279 C37.0618772,1.35079018 36.7763607,1.29446379 36.4874459,1.26542768 L36.4874459,0.401098678 L43.9473593,0.401098678 L43.9473593,1.28283028 C43.6447734,1.30180812 43.344141,1.34447853 43.0482251,1.41044933 C42.7776078,1.45978252 42.5102672,1.52564905 42.2477056,1.60767876 C41.989336,1.6854314 41.7775902,1.87176774 41.667619,2.11815496 C41.5628449,2.36179887 41.5095233,2.62445735 41.5109957,2.88967011 L41.5109957,14.7350381 C41.5024896,15.161954 41.5296547,15.5888346 41.5922078,16.0112285 C41.6310922,16.2823722 41.7646595,16.5310129 41.9692641,16.7131333 C42.2225415,16.8850261 42.5166771,16.9870732 42.8219913,17.0089775 C43.3481466,17.0618671 43.8768611,17.0851073 44.4056277,17.0785879 C44.71114,17.0785879 45.0301876,17.0785879 45.3627706,17.0785879 C45.6795808,17.0638696 45.9952824,17.0309437 46.3083117,16.9799731 C46.5804682,16.9353209 46.8482906,16.867395 47.1088312,16.7769428 C47.3114819,16.7128848 47.4949257,16.5992294 47.6425108,16.4462935 C48.093025,15.9051034 48.4912001,15.3224082 48.8316883,14.7060337 C49.1979569,14.1054624 49.5123426,13.4747501 49.7714286,12.8207524 L50.6473593,12.8207524 L50.6473593,12.791748 Z" id="Path"></path>
    <path fill="#525252" d="M66.350303,12.791748 L65.9790476,18.0125272 L52.2077922,18.0125272 L52.2077922,17.1598 L53.0721212,17.072787 C53.3451391,17.0555528 53.6144961,17.0009007 53.8726407,16.9103627 C54.0990081,16.8193385 54.2873584,16.6535083 54.4063203,16.4404926 C54.5129063,16.1859077 54.5547592,15.9088819 54.5281385,15.6341723 L54.5281385,3.01148829 C54.5327658,2.75464498 54.4833572,2.49969673 54.3831169,2.2631766 C54.2635142,2.0188387 54.0564709,1.82835886 53.8030303,1.72949695 C53.546834,1.60417612 53.2786324,1.50505816 53.0025108,1.43365279 C52.7430838,1.35425184 52.4771409,1.29795737 52.2077922,1.26542768 L52.2077922,0.401098678 L59.6561039,0.401098678 L59.6561039,1.28283028 C59.353518,1.30180812 59.0528856,1.34447853 58.7569697,1.41044933 C58.4863494,1.4597683 58.2190079,1.52563504 57.9564502,1.60767876 C57.6980806,1.6854314 57.4863348,1.87176774 57.3763636,2.11815496 C57.2715895,2.36179887 57.2182679,2.62445735 57.2197403,2.88967011 L57.2197403,14.7350381 C57.2112342,15.161954 57.2383993,15.5888346 57.3009524,16.0112285 C57.3398368,16.2823722 57.4734041,16.5310129 57.6780087,16.7131333 C57.9312861,16.8850261 58.2254217,16.9870732 58.5307359,17.0089775 C59.0568938,17.0618305 59.5856063,17.0850706 60.1143723,17.0785879 C60.4198846,17.0785879 60.7389322,17.0785879 61.0715152,17.0785879 C61.3883254,17.0638696 61.704027,17.0309437 62.0170563,16.9799731 C62.2892303,16.9354051 62.5570599,16.8674773 62.8175758,16.7769428 C63.02033,16.7131105 63.2038263,16.5994226 63.3512554,16.4462935 C63.7917389,15.9039032 64.1801773,15.3212455 64.5114286,14.7060337 C64.8777713,14.1055034 65.1921603,13.4747847 65.4511688,12.8207524 L66.3387013,12.8207524 L66.350303,12.791748 Z" id="Path"></path>
    <path fill="#525252" d="M75.7187013,18.0415316 L67.777316,18.0415316 L67.777316,17.1598 L68.7460606,17.0843887 C69.0509694,17.072585 69.3531235,17.0219011 69.6451948,16.9335662 C69.8786502,16.8485798 70.0808906,16.6948771 70.2252814,16.4927004 C70.3617932,16.2573041 70.4263285,15.9870628 70.4109091,15.7153844 L70.4109091,2.95347963 C70.4195698,2.70307955 70.3740594,2.4537618 70.2774892,2.22257054 C70.1324502,1.98313298 69.902564,1.80709395 69.6335931,1.72949695 C69.3310474,1.61979829 69.0208274,1.53254894 68.7054545,1.46845799 C68.4007802,1.38896578 68.0905084,1.33272901 67.777316,1.30023288 L67.777316,0.401098678 L75.7187013,0.401098678 L75.7187013,1.28283028 C75.4097235,1.29596513 75.1017636,1.3269548 74.7963636,1.37564413 C74.4804127,1.41987837 74.1682241,1.48774546 73.8624242,1.57867444 C73.5920795,1.64404949 73.362229,1.82118201 73.2301299,2.06594716 C73.127749,2.30165216 73.0801486,2.55750431 73.0909091,2.81425885 L73.0909091,15.5761636 C73.0854774,15.8313807 73.1475091,16.0835097 73.2707359,16.3070727 C73.4144628,16.538481 73.6306348,16.7159052 73.8856277,16.811748 C74.1639115,16.9066012 74.4489656,16.9802887 74.738355,17.0321809 C75.0667683,17.1036447 75.4004525,17.1482653 75.7361039,17.1656008 L75.7361039,18.0473324 L75.7361039,18.0473324 L75.7187013,18.0415316 Z" id="Path"></path>
    <path fill="#525252" d="M95.7780952,18.0415316 L88.4458009,18.0415316 L88.4458009,17.1598 C88.9868139,17.1336448 89.5235115,17.0500289 90.0468398,16.9103627 C90.4722367,16.7866109 90.6849351,16.6338548 90.6849351,16.4520943 C90.6913971,16.3632651 90.6913971,16.2740838 90.6849351,16.1852545 C90.6703485,16.0880178 90.6450578,15.9926914 90.6095238,15.9010121 L89.1245022,11.9100164 L82.952381,11.9100164 C82.7203463,12.490103 82.5269841,12.9947783 82.3722944,13.4240424 C82.2176046,13.8533065 82.0861183,14.2516326 81.9778355,14.6190208 C81.8871966,14.90489 81.8116807,15.1953358 81.7516017,15.4891506 C81.7149959,15.6648732 81.6936466,15.8434309 81.6877922,16.0228303 C81.7485153,16.4253839 82.067494,16.739637 82.4709091,16.7943454 C83.0328136,16.9840012 83.6186836,17.0933636 84.2111688,17.1191939 L84.2111688,18.0009255 L77.6097835,18.0009255 L77.6097835,17.1598 C77.8799893,17.1323554 78.1476416,17.0838676 78.410303,17.0147783 C78.6928816,16.9532054 78.9633576,16.845407 79.2108225,16.6957307 C79.5072752,16.4995561 79.7681729,16.2543515 79.9823377,15.9706225 C80.2018821,15.6558264 80.3811684,15.3147927 80.5160173,14.955471 C81.4054834,12.7434075 82.3838961,10.2529024 83.4512554,7.48395582 C84.5186147,4.71500921 85.4718903,2.26124298 86.3110823,0.12265712 L87.3088312,0.12265712 L93.1793074,15.3325272 C93.2806353,15.6132158 93.4233681,15.8771737 93.6027706,16.1156441 C93.7924286,16.3415035 94.0154256,16.5371149 94.2640693,16.6957307 C94.4962408,16.8278175 94.7463502,16.9255165 95.0065801,16.985774 C95.2584894,17.0566161 95.5170251,17.1013253 95.7780952,17.1191939 L95.7780952,18.0009255 L95.7780952,18.0415316 Z M88.6836364,10.8368563 L86.0152381,3.99183461 L83.381645,10.8368563 L88.6836364,10.8368563 Z" id="Shape"></path>
    <path fill="#525252" d="M119.178788,18.0415316 L111.376623,18.0415316 L111.376623,17.1598 C111.741614,17.1537923 112.105861,17.1247301 112.467186,17.072787 C112.782421,17.0563035 113.092463,16.985661 113.383723,16.8639558 C113.617972,16.7363916 113.817201,16.5531013 113.96381,16.3302762 C114.091485,16.0958403 114.153606,15.8313235 114.143636,15.5645619 L114.143636,2.721445 L113.952208,2.721445 L107.925108,17.7572892 L107.316017,17.7572892 L101.57316,2.40239738 L101.399134,2.40239738 L101.399134,12.9425705 C101.377014,13.7207165 101.441216,14.4989169 101.590563,15.2629169 C101.66037,15.6999796 101.862884,16.1050064 102.170649,16.42309 C102.515464,16.6735876 102.911812,16.8440173 103.330823,16.9219645 C103.696376,17.0362864 104.070879,17.119725 104.45039,17.1714017 L104.45039,18.0531333 L97.3269264,18.0531333 L97.3269264,17.1598 C97.7172411,17.122944 98.1047707,17.0609393 98.4870996,16.9741723 C98.8316951,16.9119652 99.1572688,16.7710156 99.4384416,16.5623108 C99.7482459,16.2833867 99.953002,15.9066355 100.018528,15.4949515 C100.15019,14.7015664 100.204586,13.8972812 100.180952,13.0933931 L100.180952,4.05564413 C100.195045,3.62071714 100.132204,3.18671955 99.9953247,2.77365279 C99.8851726,2.46738649 99.7019862,2.19260688 99.461645,1.97313331 C99.1959688,1.7409712 98.8833506,1.5688333 98.5451082,1.46845799 C98.1897987,1.3663927 97.8238136,1.3060441 97.4545455,1.28863115 L97.4545455,0.401098678 L103.470043,0.401098678 L108.505195,13.6502762 L112.815238,2.57062249 C112.97456,2.1537868 113.10823,1.72759377 113.215498,1.29443201 C113.301575,1.00383267 113.365566,0.707143653 113.406926,0.406899544 L119.161385,0.406899544 L119.161385,1.28283028 C118.863327,1.29876571 118.566755,1.33559496 118.273853,1.39304673 C118.003015,1.43620323 117.735524,1.49823017 117.473333,1.57867444 C117.216111,1.65174318 117.003996,1.83416188 116.893247,2.07754889 C116.791705,2.31792616 116.740379,2.57652578 116.742424,2.83746231 L116.742424,15.558761 C116.736602,15.8088157 116.788199,16.0568755 116.893247,16.2838692 C117.025134,16.5187676 117.228278,16.70566 117.473333,16.8175489 C117.727611,16.93303 117.997234,17.0111815 118.273853,17.0495835 C118.572503,17.1088259 118.874852,17.1475887 119.178788,17.1656008 L119.178788,18.0473324 L119.178788,18.0473324 L119.178788,18.0415316 Z" id="Path"></path>
    <path fill="#525252" d="M132.32355,9.94932379 C132.688347,10.3503563 132.97026,10.8195539 133.153074,11.3299298 C133.342831,11.8900152 133.433139,12.4789802 133.419913,13.0701896 C133.45161,14.5511083 132.811928,15.9669362 131.679654,16.9219645 C130.492982,17.9513938 128.963142,18.497913 127.392814,18.4533931 C126.591883,18.451594 125.795853,18.3283757 125.031861,18.0879385 C124.320994,17.872051 123.639173,17.5701016 123.001558,17.1888043 L122.467879,18.0937394 L121.47013,18.0937394 L121.296104,12.0086311 L122.299654,12.0086311 C122.488666,12.7000734 122.733094,13.375159 123.030563,14.0273324 C123.315716,14.6378471 123.686876,15.2043541 124.132727,15.7095835 C124.556377,16.1894929 125.068431,16.583381 125.640952,16.8697567 C126.266408,17.1707589 126.954098,17.3198248 127.648052,17.3048216 C128.158017,17.3144124 128.665948,17.2379286 129.150476,17.0785879 C129.919658,16.8380632 130.526225,16.2422889 130.780519,15.4775489 C130.915106,15.0658169 130.97981,14.6344576 130.971948,14.2013584 C130.977686,13.5010551 130.775831,12.8147476 130.391861,12.229064 C129.959727,11.5926615 129.338917,11.1077804 128.616797,10.8426571 C128.083117,10.6299587 127.466291,10.3921232 126.76632,10.1291506 C126.066349,9.86617804 125.464993,9.62060806 124.962251,9.39244067 C124.054923,9.01643189 123.256925,8.41793344 122.641905,7.65218093 C122.059335,6.82245247 121.769527,5.82241122 121.818182,4.80975669 C121.815766,4.16184703 121.958479,3.52162062 122.235844,2.93607703 C122.514876,2.34559316 122.90936,1.81698406 123.396017,1.381445 C123.893726,0.939238307 124.470349,0.594838662 125.095671,0.366293483 C125.74882,0.122781041 126.440512,-0.00101605729 127.137576,0.000838938028 C127.881339,-0.0115956477 128.620936,0.114293272 129.318701,0.372094349 C129.924688,0.607155081 130.50732,0.898471242 131.058961,1.24222422 L131.569437,0.395297812 L132.567186,0.395297812 L132.665801,6.25417227 L131.679654,6.25417227 C131.508074,5.60202543 131.302835,4.95920206 131.064762,4.32828483 C130.847242,3.7368063 130.548538,3.17844457 130.177229,2.66923721 C129.831454,2.19243103 129.386092,1.79655325 128.872035,1.50906405 C128.288777,1.20655327 127.637656,1.05875288 126.980952,1.07979998 C126.237374,1.06566804 125.516778,1.33770865 124.968052,1.8397134 C124.428765,2.30643909 124.124822,2.98871651 124.138528,3.70179132 C124.112608,4.37446417 124.299346,5.03819693 124.672208,5.59867444 C125.077784,6.13612616 125.615282,6.5597308 126.232641,6.82845799 C126.81515,7.10968239 127.411462,7.36137244 128.019307,7.58257054 C128.603261,7.79526895 129.169812,8.02150272 129.718961,8.26127184 C130.20609,8.48057599 130.67884,8.73051354 131.134372,9.00958353 C131.572969,9.26537294 131.973303,9.58173448 132.32355,9.94932379 L132.32355,9.94932379 Z" id="Path"></path>
    <path fill="#525252" d="M26.585368,34.4231766 C26.9479825,34.8192438 27.2297635,35.2823106 27.4148918,35.7863801 C27.6046492,36.3464654 27.6949572,36.9354304 27.6817316,37.5266398 C27.7134277,39.0075585 27.0737464,40.4233864 25.9414719,41.3784147 C24.7522216,42.4015595 23.2226588,42.9417705 21.654632,42.8924407 C20.853708,42.8905523 20.0576919,42.7673361 19.2936797,42.5269861 C18.5796765,42.317328 17.8939618,42.0212239 17.2517749,41.6452545 L16.7238961,42.5385879 L15.7261472,42.5385879 L15.5521212,36.4998866 L16.555671,36.4998866 C16.7446835,37.1913288 16.989111,37.8664144 17.2865801,38.5185879 C17.5717333,39.1291025 17.942893,39.6956095 18.3887446,40.2008389 C18.8122946,40.6808546 19.3243711,41.0747596 19.8969697,41.3610121 C20.5223534,41.6622229 21.2100945,41.8112997 21.9040693,41.796077 C22.4140346,41.8056678 22.9219657,41.729184 23.4064935,41.5698433 C23.7996183,41.4366151 24.1554953,41.2119553 24.4448485,40.9143454 C24.707025,40.6379631 24.9050825,40.3072071 25.0249351,39.9456008 C25.1594148,39.5338436 25.224116,39.1025024 25.2163636,38.6694104 C25.2224499,37.9690583 25.0205657,37.2826519 24.6362771,36.697116 C24.2044317,36.0604431 23.5835248,35.5754865 22.8612121,35.3107091 C22.3159307,35.1134796 21.6952381,34.8853122 20.9991342,34.6262069 C20.3030303,34.3671016 19.7036075,34.1234652 19.2008658,33.8952978 C18.2934131,33.5195077 17.4953648,32.9209715 16.8805195,32.1550381 C16.2958963,31.3260374 16.0040298,30.3259353 16.0509957,29.3126138 C16.0478264,28.6671234 16.1885225,28.0290367 16.4628571,27.444735 C16.7416177,26.8540884 17.1361398,26.3254288 17.6230303,25.890103 C18.1207387,25.4478963 18.6973621,25.1034967 19.322684,24.8749515 C19.9794834,24.6300625 20.67523,24.5062432 21.3761905,24.5094969 C22.1199431,24.4971971 22.8595158,24.6230819 23.557316,24.8807524 C24.1633442,25.1157195 24.7459851,25.40704 25.2975758,25.7508822 L25.8080519,24.9039558 L26.8058009,24.9039558 L26.9044156,30.7628303 L25.9240693,30.7628303 C25.7530157,30.1105303 25.5477682,29.4676797 25.3091775,28.8369428 C25.0918016,28.2435957 24.7931065,27.6832983 24.421645,27.1720943 C24.0758698,26.6952882 23.6305072,26.2994104 23.1164502,26.0119212 C22.5332821,25.7091648 21.8820965,25.5613497 21.225368,25.5826571 C20.4825813,25.5669458 19.7620865,25.8368718 19.2124675,26.3367697 C18.6741646,26.7997816 18.3683413,27.4772651 18.3771429,28.1872459 C18.3512229,28.8599187 18.5379612,29.5236515 18.9108225,30.084129 C19.3140585,30.6229233 19.8495417,31.0485125 20.4654545,31.3197134 C21.0479641,31.6009378 21.6442759,31.8526279 22.2521212,32.073826 C22.836075,32.2865244 23.4026263,32.5127581 23.9517749,32.7525272 C24.4443458,32.9656392 24.9229103,33.2097652 25.3845887,33.4834363 C25.8271898,33.7384481 26.2314606,34.054834 26.585368,34.4231766 L26.585368,34.4231766 Z" id="Path"></path>
    <path fill="#525252" d="M43.8545455,26.9922675 C44.6508031,27.8276736 45.2720617,28.8137985 45.6818182,29.8927004 C46.1345654,31.1116622 46.3587437,32.4036371 46.3431169,33.7038692 C46.3602286,35.0071375 46.131957,36.3019884 45.6702165,37.5208389 C45.2528829,38.6054126 44.6171049,39.5926455 43.8023377,40.4212718 C43.0410714,41.2100648 42.1272682,41.8357141 41.1165368,42.2601463 C38.9807991,43.1385886 36.5820094,43.1239618 34.4571429,42.2195402 C33.4479466,41.783496 32.5410249,41.1413401 31.7945455,40.3342589 C31.0264143,39.4802959 30.4349563,38.4827034 30.0542857,37.3990208 C29.6228278,36.2192603 29.4067004,34.9716161 29.4161905,33.715471 C29.3852731,32.4123308 29.6017979,31.1151508 30.0542857,29.8927004 C30.4774858,28.8151894 31.1059489,27.8301374 31.9047619,26.9922675 C32.6703662,26.1881061 33.5948865,25.5520045 34.6195671,25.1243887 C36.7141649,24.2555324 39.0683459,24.2555324 41.1629437,25.1243887 C42.1807168,25.5522618 43.0975983,26.188546 43.8545455,26.9922675 L43.8545455,26.9922675 Z M42.0040693,39.4931333 C42.483927,38.7014897 42.8271053,37.8347194 43.0192208,36.9291506 C43.4551284,34.7744428 43.4432813,32.5531123 42.9844156,30.4031766 C42.7871552,29.4882484 42.436052,28.6134325 41.9460606,27.8159905 C41.5089872,27.1331541 40.9115441,26.5675747 40.2058009,26.1685446 C39.4838384,25.7701179 38.6692464,25.5699725 37.8448485,25.588458 C36.9508529,25.5617316 36.0689058,25.7998775 35.3098701,26.2729602 C34.6196715,26.7410571 34.0493433,27.3650398 33.6450216,28.094432 C33.2033443,28.8952435 32.8901505,29.7604413 32.7168831,30.6584147 C32.5112569,31.6721499 32.4101794,32.7043071 32.4152381,33.7386744 C32.4049884,34.8243428 32.5139234,35.9078569 32.7400866,36.9697567 C32.9331507,37.8759457 33.2783532,38.7428748 33.761039,39.5337394 C34.1782143,40.2333232 34.7596085,40.8206906 35.4548918,41.2449948 C36.1950142,41.6701087 37.0380411,41.8828727 37.8912554,41.8598866 C38.7330234,41.872696 39.5626687,41.6582708 40.2928139,41.2391939 C41.002666,40.8124608 41.5917135,40.2114327 42.0040693,39.4931333 Z" id="Shape"></path>
    <path fill="#525252" d="M65.2539394,25.7682848 C64.8925893,25.7991882 64.5351123,25.8652438 64.1865801,25.9655143 C63.8253192,26.0441404 63.4774683,26.1750731 63.154026,26.3541723 C62.8102694,26.6601311 62.6016954,27.0897935 62.5739394,27.5491506 C62.4586265,28.2897702 62.4062316,29.0388239 62.417316,29.7882848 L62.417316,42.6952112 L61.3151515,42.6952112 L50.6241558,28.2626571 L50.6241558,37.3584147 C50.6028525,38.146149 50.6670373,38.9338707 50.8155844,39.7077653 C50.8868193,40.1443679 51.0891299,40.5489891 51.395671,40.8679385 C51.7400308,41.1215505 52.1362142,41.2958712 52.5558442,41.3784147 C52.9351234,41.4930434 53.3231406,41.5764671 53.7160173,41.6278519 L53.7160173,42.5095835 L46.5345455,42.5095835 L46.5345455,41.6394537 C46.9274942,41.5913792 47.3156257,41.5098715 47.6947186,41.3958173 C48.0483083,41.3253734 48.3862987,41.1917493 48.6924675,41.0013584 C49.0022719,40.7224343 49.207028,40.3456831 49.2725541,39.9339991 C49.4057867,39.1271403 49.4601845,38.3092309 49.4349784,37.4918346 L49.4349784,28.8195402 C49.4355645,28.4244243 49.3688682,28.0320931 49.2377489,27.6593671 C49.1345422,27.3262792 48.9513087,27.0235457 48.7040693,26.7776355 C48.347336,26.4699881 47.9361128,26.2319115 47.4916883,26.0757307 C47.0979118,25.9087429 46.6814995,25.8012186 46.2561039,25.7566831 L46.2561039,24.8865532 L51.2796537,24.8865532 L61.1991342,38.338761 L61.1991342,29.9449082 C61.2210148,29.1511272 61.154868,28.3573657 61.0019048,27.578155 C60.9407856,27.1550732 60.7359591,26.7659029 60.4218182,26.4759905 C60.0603296,26.2657814 59.6692075,26.1112882 59.261645,26.0177221 C58.8706396,25.8949921 58.4684022,25.8114355 58.0608658,25.7682848 L58.0608658,24.8865532 L65.2597403,24.8865532 L65.2597403,25.7682848 L65.2597403,25.7682848 L65.2539394,25.7682848 Z" id="Path"></path>
    <path fill="#525252" d="M79.5588745,26.9922675 C80.3550084,27.82777 80.9762505,28.8138685 81.3861472,29.8927004 C81.838766,31.1116968 82.0629401,32.4036477 82.0474459,33.7038692 C82.0645576,35.0071375 81.836286,36.3019884 81.3745455,37.5208389 C80.9572119,38.6054126 80.3214339,39.5926455 79.5066667,40.4212718 C78.7452955,41.2099407 77.8315195,41.8355714 76.8208658,42.2601463 C74.6989995,43.1434898 72.3123425,43.1434898 70.1904762,42.2601463 C69.1759626,41.8147458 68.2667304,41.1604939 67.5220779,40.3400597 C66.7539468,39.4860967 66.1624888,38.4885043 65.7818182,37.4048216 C65.3503602,36.2250612 65.1342329,34.977417 65.1437229,33.7212718 C65.121335,32.4143282 65.3477241,31.1150517 65.8108225,29.8927004 C66.2340226,28.8151894 66.8624857,27.8301374 67.6612987,26.9922675 C68.426903,26.1881061 69.3514233,25.5520045 70.3761039,25.1243887 C72.4707017,24.2555324 74.8248827,24.2555324 76.9194805,25.1243887 C77.9184763,25.558691 78.8170341,26.1945935 79.5588745,26.9922675 Z M77.7316017,39.4931333 C78.2115588,38.701539 78.5547439,37.8347514 78.7467532,36.9291506 C79.1826609,34.7744428 79.1708138,32.5531123 78.7119481,30.4031766 C78.5146877,29.4882484 78.1635844,28.6134325 77.6735931,27.8159905 C77.2365196,27.1331541 76.6390766,26.5675747 75.9333333,26.1685446 C75.2113709,25.7701179 74.3967788,25.5699725 73.572381,25.588458 C72.6783854,25.5617316 71.7964383,25.7998775 71.0374026,26.2729602 C70.333681,26.7383155 69.7510266,27.3647186 69.3377489,28.1002329 C68.8960716,28.9010443 68.5828778,29.7662421 68.4096104,30.6642156 C68.2039842,31.6779508 68.1029066,32.710108 68.1079654,33.7444753 C68.1038577,34.8288451 68.2186268,35.910398 68.4502165,36.9697567 C68.6434951,37.8758807 68.9886836,38.7427746 69.4711688,39.5337394 C69.8885298,40.2331795 70.469884,40.8205065 71.1650216,41.2449948 C71.905144,41.6701087 72.748171,41.8828727 73.6013853,41.8598866 C74.4392301,41.8706088 75.2645959,41.6562541 75.991342,41.2391939 C76.7118226,40.8163742 77.311182,40.215017 77.7316017,39.4931333 Z" id="Shape"></path>
    <path fill="#525252" d="M104.015325,42.532787 L96.2247619,42.532787 L96.2247619,41.6452545 C96.5897526,41.6392469 96.9539991,41.6101846 97.3153247,41.5582415 C97.6285942,41.5410997 97.9366193,41.4704697 98.2260606,41.3494104 C98.4604499,41.2220421 98.6597219,41.0387119 98.8061472,40.8157307 C98.9340935,40.5813984 98.9962326,40.316806 98.985974,40.0500164 L98.985974,27.2185013 L98.8003463,27.2185013 L92.7790476,42.2427437 L92.158355,42.2427437 L86.4329004,26.8994537 L86.2704762,26.8994537 L86.2704762,37.433826 C86.2543692,38.212607 86.324405,38.9907821 86.4793074,39.7541723 C86.5491148,40.191235 86.7516282,40.5962619 87.0593939,40.9143454 C87.4042082,41.164843 87.8005562,41.3352727 88.2195671,41.4132199 C88.5851343,41.5274891 88.9596334,41.6109268 89.3391342,41.6626571 L89.3391342,42.5385879 L82.2040693,42.5385879 L82.2040693,41.6510554 C82.5943497,41.6139303 82.9818621,41.5519283 83.3642424,41.4654277 C83.7087772,41.4030197 84.0343068,41.2620892 84.3155844,41.0535662 C84.6250159,40.7743482 84.8296954,40.3977379 84.895671,39.9862069 C85.0270798,39.1927924 85.0814742,38.3885317 85.0580952,37.5846485 L85.0580952,28.5527004 C85.0719451,28.117787 85.00911,27.6838317 84.8724675,27.2707091 C84.7623155,26.9644428 84.5791291,26.6896632 84.3387879,26.4701896 C84.0642118,26.2362657 83.7413327,26.0659123 83.3932468,25.9713151 C83.0325054,25.8661032 82.6606158,25.8037971 82.2852814,25.7856874 L82.2852814,24.8865532 L88.2891775,24.8865532 L93.3417316,38.124129 L97.6633766,27.0502762 C97.8226305,26.6334168 97.9562988,26.2072279 98.0636364,25.7740857 C98.145944,25.4832165 98.2060589,25.1865204 98.2434632,24.8865532 L103.997922,24.8865532 L103.997922,25.7682848 C103.699864,25.7842203 103.403292,25.8210495 103.11039,25.8785013 C102.839541,25.9216019 102.572046,25.9836298 102.30987,26.064129 C102.052647,26.1371977 101.840533,26.3196164 101.729784,26.5630034 C101.628084,26.8033323 101.576752,27.0619649 101.578961,27.3229169 L101.578961,40.0384147 C101.572034,40.2904364 101.623661,40.5406297 101.729784,40.7693238 C101.861671,41.0042222 102.064814,41.1911146 102.30987,41.3030034 C102.563976,41.4189476 102.833668,41.4971191 103.11039,41.5350381 C103.409034,41.5943162 103.711386,41.6330793 104.015325,41.6510554 L104.015325,42.5385879 L104.015325,42.5385879 L104.015325,42.532787 Z" id="Path"></path>
    <path fill="#525252" d="M123.320606,42.532787 L116.017316,42.532787 L116.017316,41.6452545 C116.55832,41.6190121 117.095009,41.5353976 117.618355,41.3958173 C118.043752,41.2720655 118.25645,41.1193094 118.25645,40.9375489 C118.262695,40.8487119 118.262695,40.7595461 118.25645,40.6707091 C118.241864,40.5734723 118.216573,40.4781459 118.181039,40.3864666 L116.719221,36.4302762 L110.489091,36.4302762 C110.257056,37.0103627 110.063694,37.5150381 109.909004,37.9443021 C109.754315,38.3735662 109.622828,38.7718923 109.514545,39.1392805 C109.423907,39.4251498 109.348391,39.7155955 109.288312,40.0094104 C109.251677,40.1851283 109.230328,40.3636884 109.224502,40.54309 C109.285225,40.9456436 109.604204,41.2598968 110.007619,41.3146052 C110.569563,41.5041109 111.155411,41.6134692 111.747879,41.6394537 L111.747879,42.5211853 L105.134892,42.5211853 L105.134892,41.6394537 C105.405098,41.6120091 105.67275,41.5635213 105.935411,41.494432 C106.217959,41.4327575 106.488419,41.3249656 106.735931,41.1753844 C107.030322,40.9859168 107.291068,40.7486971 107.507446,40.4734796 C107.726629,40.158464 107.905891,39.8174768 108.041126,39.4583281 C108.930592,37.2462646 109.909004,34.7557596 110.976364,31.986813 C112.043723,29.2178664 112.996999,26.7602329 113.83619,24.6139125 L114.857143,24.6139125 L120.727619,39.8237827 C120.828787,40.1045428 120.971532,40.3685237 121.151082,40.6068995 C121.34074,40.8327589 121.563737,41.0283704 121.812381,41.1869861 C122.044262,41.3210164 122.294375,41.4206706 122.554892,41.4828303 C122.806837,41.5535127 123.065356,41.598219 123.326407,41.6162502 L123.326407,42.4979818 L123.320606,42.532787 Z M116.226147,35.3281117 L113.557749,28.48309 L110.924156,35.3281117 L116.226147,35.3281117 L116.226147,35.3281117 Z" id="Shape"></path>
</svg>
