<?xml version="1.0" encoding="UTF-8"?>
<svg viewBox="0 0 540 112" version="1.1" xmlns="http://www.w3.org/2000/svg" xmlns:xlink="http://www.w3.org/1999/xlink">

  <g id="world-vision" fill="#525252" fill-rule="nonzero">
      <path d="M487.96,5.55 L474.72,36.95 L532.04,89.58 L532.04,5.55 L487.96,5.55 Z M513.09,33.1 C509.96,36.01 510.35,46.7 509.11,65 C507.87,46.7 508.27,36.01 505.14,33.1 C502.24,30.42 497.01,29.69 488.13,29.04 C507.63,26.79 507.16,27.37 509.11,8.42 C511.07,27.37 510.6,26.79 530.09,29.04 C521.21,29.69 515.99,30.42 513.09,33.1 Z" id="Shape"></path>
      <g id="Group">
          <path d="M356.16,0.22 C355.99,0.22 355.86,0.35 355.86,0.52 C355.86,0.68 355.99,0.8 356.16,0.82 C431.64,10.75 497.32,52.07 539.35,111.42 L539.35,0.22 L356.16,0.22 Z M513.09,33.1 C509.96,36.01 510.35,46.7 509.11,65 C507.87,46.7 508.27,36.01 505.14,33.1 C502.24,30.42 497.01,29.69 488.13,29.04 C507.63,26.79 507.16,27.37 509.11,8.42 C511.07,27.37 510.6,26.79 530.09,29.04 C521.21,29.69 515.99,30.42 513.09,33.1 Z" id="Shape"></path>
          <g transform="translate(0.000000, 48.000000)">
              <path d="M389.56,21.37 C376.3,21.37 368.09,30.53 368.09,41.58 C368.09,52.63 376.3,61.79 389.56,61.79 C402.82,61.79 411.03,52.63 411.03,41.58 C411.03,30.53 402.82,21.37 389.56,21.37 Z M389.56,58 C382.72,58 379.67,50.74 379.67,41.58 C379.67,32.42 382.72,25.16 389.56,25.16 C396.4,25.16 399.46,32.42 399.46,41.58 C399.46,50.74 396.4,58 389.56,58 Z M71.38,8.54 L57.59,45.37 L45.28,13.27 L39.07,13.27 L26.65,45.37 L13.39,8.43 L0.65,8.43 L20.34,61.26 L26.34,61.26 L39.07,28.64 L51.7,61.26 L57.7,61.26 L77.38,8.54 L71.38,8.54 L71.38,8.54 Z M441.17,21.16 C436.44,21.16 432.43,22.95 428.44,25.69 L428.22,25.58 L428.22,21.79 L418.12,21.79 L418.12,61.37 L429.06,61.37 L429.06,29.48 C432.33,26.63 435.49,25.48 438.22,25.48 C444.01,25.48 448.01,31.06 448.01,37.16 L448.01,61.37 L459.06,61.37 L459.06,39.58 C459.06,24.85 447.8,21.16 441.17,21.16 Z M287.02,8.22 L270.92,45.58 L255.03,8.22 L241.77,8.22 L265.23,61.37 L269.87,61.37 L293.02,8.22 L287.02,8.22 Z M206.36,0.85 L206.36,24.95 C203.31,22.64 198.68,21.16 193.94,21.16 C187.94,21.16 173.63,24.85 173.63,42.21 C173.63,55.16 185,62.21 193.84,62.21 C198.99,62.21 203.2,60.42 206.99,57.47 L207.2,57.58 L207.2,61.37 L217.31,61.37 L217.31,0.85 L206.36,0.85 Z M206.36,53.58 C203.52,56 200.89,57.79 196.89,57.79 C192.05,57.79 185.73,53.69 185.73,41.79 C185.73,28.95 195.73,19.69 206.36,29.69 L206.36,53.58 L206.36,53.58 Z M321.41,30.11 C321.62,26.95 325.2,25.37 328.88,25.58 C332.67,25.9 335.62,28 338.88,30.95 L341.83,24.43 C337.73,22.64 333.83,21.79 330.36,21.48 C320.15,20.85 313.31,26.21 312.89,32.64 C311.83,47.69 333.94,44.11 333.31,53.27 C332.99,56.95 329.83,58.21 326.46,58.11 C320.99,57.68 317.62,54.53 314.68,51.05 L311.41,58.31 C315.83,60.84 320.67,62.11 324.88,62.42 C334.36,63.05 342.36,58.94 342.88,49.79 C343.83,35.58 320.99,37.37 321.41,30.11 Z M301.97,3.9 C298.7,3.9 296.18,6.43 296.18,9.69 C296.18,12.95 298.7,15.48 301.97,15.48 C305.23,15.48 307.76,12.95 307.76,9.69 C307.76,6.43 305.23,3.9 301.97,3.9 Z M295.13,21.79 L295.13,61.37 L306.07,61.37 L306.07,21.79 L295.13,21.79 Z M95.27,21.37 C82.01,21.37 73.8,30.53 73.8,41.58 C73.8,52.63 82.01,61.79 95.27,61.79 C108.53,61.79 116.74,52.63 116.74,41.58 C116.74,30.53 108.53,21.37 95.27,21.37 Z M95.27,58 C88.43,58 85.38,50.74 85.38,41.58 C85.38,32.42 88.43,25.16 95.27,25.16 C102.11,25.16 105.17,32.42 105.17,41.58 C105.17,50.74 102.11,58 95.27,58 Z M156.6,0.85 L156.6,61.37 L167.55,61.37 L167.55,0.85 L156.6,0.85 Z M143.03,21.16 C138.92,21.16 135.87,23.16 134.4,24.95 L133.87,25.58 L133.77,25.48 L133.87,21.79 L123.24,21.79 L123.24,61.37 L134.19,61.37 L134.19,29.16 C137.87,26 140.5,27.06 147.77,33.06 L152.19,23.16 C149.98,22.22 147.13,21.16 143.03,21.16 Z" id="Shape"></path>
              <g transform="translate(349.000000, 3.000000)">
                  <rect id="Rectangle" x="0.97" y="18.79" width="10.94" height="39.58"></rect>
                  <path d="M6.8,0.9 C3.53,0.9 1.01,3.43 1.01,6.69 C1.01,9.95 3.53,12.48 6.8,12.48 C10.06,12.48 12.59,9.95 12.59,6.69 C12.59,3.43 10.06,0.9 6.8,0.9 L6.8,0.9 Z" id="Path"></path>
              </g>
          </g>
          <path d="M471.84,69.71 C471.45,69.09 471.16,68.69 470.76,68.55 L470.76,68.53 C471.54,68.48 472.08,67.94 472.08,67.19 C472.08,66.68 471.7,65.97 470.55,65.97 L468.49,65.97 L468.49,70.62 L469.25,70.62 L469.25,68.64 L469.69,68.64 C470.27,68.64 470.49,68.84 471.08,69.89 L471.49,70.62 L472.4,70.62 L471.84,69.71 Z M470.32,68 L469.25,68 L469.25,66.6 L470.45,66.6 C470.95,66.6 471.29,66.87 471.29,67.29 C471.29,67.78 470.9,68 470.32,68 Z M471.84,69.71 C471.45,69.09 471.16,68.69 470.76,68.55 L470.76,68.53 C471.54,68.48 472.08,67.94 472.08,67.19 C472.08,66.68 471.7,65.97 470.55,65.97 L468.49,65.97 L468.49,70.62 L469.25,70.62 L469.25,68.64 L469.69,68.64 C470.27,68.64 470.49,68.84 471.08,69.89 L471.49,70.62 L472.4,70.62 L471.84,69.71 Z M470.32,68 L469.25,68 L469.25,66.6 L470.45,66.6 C470.95,66.6 471.29,66.87 471.29,67.29 C471.29,67.78 470.9,68 470.32,68 Z M470.38,63.9 C467.99,63.9 466.06,65.82 466.06,68.22 C466.06,70.62 467.99,72.56 470.38,72.56 C472.78,72.56 474.72,70.62 474.72,68.22 C474.72,65.82 472.78,63.9 470.38,63.9 Z M470.38,71.84 C468.39,71.84 466.78,70.22 466.78,68.22 C466.78,66.22 468.39,64.61 470.38,64.61 C472.38,64.61 474,66.22 474,68.22 C474,70.22 472.38,71.84 470.38,71.84 Z M470.76,68.55 L470.76,68.53 C471.54,68.48 472.08,67.94 472.08,67.19 C472.08,66.68 471.7,65.97 470.55,65.97 L468.49,65.97 L468.49,70.62 L469.25,70.62 L469.25,68.64 L469.69,68.64 C470.27,68.64 470.49,68.84 471.08,69.89 L471.49,70.62 L472.4,70.62 L471.84,69.71 C471.45,69.09 471.16,68.69 470.76,68.55 Z M470.32,68 L469.25,68 L469.25,66.6 L470.45,66.6 C470.95,66.6 471.29,66.87 471.29,67.29 C471.29,67.78 470.9,68 470.32,68 Z" id="Shape"></path>
      </g>
  </g>
</svg>
