<?xml version="1.0" encoding="utf-8"?>
<!-- Generator: Adobe Illustrator 23.0.4, SVG Export Plug-In . SVG Version: 6.00 Build 0)  -->
<svg version="1.1" id="Layer_1" xmlns="http://www.w3.org/2000/svg" xmlns:xlink="http://www.w3.org/1999/xlink" x="0px" y="0px"
	 viewBox="0 0 700 171.64" style="enable-background:new 0 0 700 171.64;" xml:space="preserve">
<style type="text/css">
	.st0{fill:#525252;}
</style>
<g>
	<path class="st0" d="M567.96,33.55l-13.24,31.4l57.32,52.63V33.55H567.96z M593.09,61.1c-3.13,2.91-2.74,13.6-3.98,31.9
		c-1.24-18.3-0.84-28.99-3.97-31.9c-2.9-2.68-8.13-3.41-17.01-4.06c19.5-2.25,19.03-1.67,20.98-20.62
		c1.96,18.95,1.49,18.37,20.98,20.62C601.21,57.69,595.99,58.42,593.09,61.1z"/>
	<g>
		<g>
			<path class="st0" d="M589.11,93"/>
		</g>
		<path class="st0" d="M436.16,28.22c-0.17,0-0.3,0.13-0.3,0.3c0,0.16,0.13,0.28,0.3,0.3c75.48,9.93,141.16,51.25,183.19,110.6
			V28.22H436.16z M593.09,61.1c-3.13,2.91-2.74,13.6-3.98,31.9c-1.24-18.3-0.84-28.99-3.97-31.9c-2.9-2.68-8.13-3.41-17.01-4.06
			c19.5-2.25,19.03-1.67,20.98-20.62c1.96,18.95,1.49,18.37,20.98,20.62C601.21,57.69,595.99,58.42,593.09,61.1z"/>
		<path class="st0" d="M589.11,93L589.11,93z"/>
		<g>
			<path class="st0" d="M469.56,97.37c-13.26,0-21.47,9.16-21.47,20.21s8.21,20.21,21.47,20.21c13.26,0,21.47-9.16,21.47-20.21
				S482.82,97.37,469.56,97.37z M469.56,134c-6.84,0-9.89-7.26-9.89-16.42c0-9.16,3.05-16.42,9.89-16.42c6.84,0,9.9,7.26,9.9,16.42
				C479.46,126.74,476.4,134,469.56,134z M151.38,84.54l-13.79,36.83l-12.31-32.1h-6.21l-12.42,32.1L93.39,84.43H80.65l19.69,52.83
				h6l12.73-32.62l12.63,32.62h6l19.68-52.72H151.38z M521.17,97.16c-4.73,0-8.74,1.79-12.73,4.53l-0.22-0.11v-3.79h-10.1v39.58
				h10.94v-31.89c3.27-2.85,6.43-4,9.16-4c5.79,0,9.79,5.58,9.79,11.68v24.21h11.05v-21.79C539.06,100.85,527.8,97.16,521.17,97.16z
				 M367.02,84.22l-16.1,37.36l-15.89-37.36h-13.26l23.46,53.15h4.64l23.15-53.15H367.02z M286.36,76.85v24.1
				c-3.05-2.31-7.68-3.79-12.42-3.79c-6,0-20.31,3.69-20.31,21.05c0,12.95,11.37,20,20.21,20c5.15,0,9.36-1.79,13.15-4.74l0.21,0.11
				v3.79h10.11V76.85H286.36z M286.36,129.58c-2.84,2.42-5.47,4.21-9.47,4.21c-4.84,0-11.16-4.1-11.16-16
				c0-12.84,10-22.1,20.63-12.1V129.58z M401.41,106.11c0.21-3.16,3.79-4.74,7.47-4.53c3.79,0.32,6.74,2.42,10,5.37l2.95-6.52
				c-4.1-1.79-8-2.64-11.47-2.95c-10.21-0.63-17.05,4.73-17.47,11.16c-1.06,15.05,21.05,11.47,20.42,20.63
				c-0.32,3.68-3.48,4.94-6.85,4.84c-5.47-0.43-8.84-3.58-11.78-7.06l-3.27,7.26c4.42,2.53,9.26,3.8,13.47,4.11
				c9.48,0.63,17.48-3.48,18-12.63C423.83,111.58,400.99,113.37,401.41,106.11z M381.97,79.9c-3.27,0-5.79,2.53-5.79,5.79
				c0,3.26,2.52,5.79,5.79,5.79c3.26,0,5.79-2.53,5.79-5.79C387.76,82.43,385.23,79.9,381.97,79.9z M375.13,97.79v39.58h10.94V97.79
				H375.13z M175.27,97.37c-13.26,0-21.47,9.16-21.47,20.21s8.21,20.21,21.47,20.21s21.47-9.16,21.47-20.21
				S188.53,97.37,175.27,97.37z M175.27,134c-6.84,0-9.89-7.26-9.89-16.42c0-9.16,3.05-16.42,9.89-16.42c6.84,0,9.9,7.26,9.9,16.42
				C185.17,126.74,182.11,134,175.27,134z M236.6,76.85v60.52h10.95V76.85H236.6z M223.03,97.16c-4.11,0-7.16,2-8.63,3.79
				l-0.53,0.63l-0.1-0.1l0.1-3.69h-10.63v39.58h10.95v-32.21c3.68-3.16,6.31-2.1,13.58,3.9l4.42-9.9
				C229.98,98.22,227.13,97.16,223.03,97.16z"/>
			<g>
				<rect x="429.97" y="97.79" class="st0" width="10.94" height="39.58"/>
				<path class="st0" d="M435.8,79.9c-3.27,0-5.79,2.53-5.79,5.79c0,3.26,2.52,5.79,5.79,5.79c3.26,0,5.79-2.53,5.79-5.79
					C441.59,82.43,439.06,79.9,435.8,79.9L435.8,79.9z"/>
			</g>
		</g>
		<g>
			<path class="st0" d="M589.11,93.42"/>
		</g>
		<path class="st0" d="M589.11,93.42L589.11,93.42z"/>
		<path class="st0" d="M551.84,97.71c-0.39-0.62-0.68-1.02-1.08-1.16v-0.02c0.78-0.05,1.32-0.59,1.32-1.34
			c0-0.51-0.38-1.22-1.53-1.22h-2.06v4.65h0.76v-1.98h0.44c0.58,0,0.8,0.2,1.39,1.25l0.41,0.73h0.91L551.84,97.71z M550.32,96h-1.07
			v-1.4h1.2c0.5,0,0.84,0.27,0.84,0.69C551.29,95.78,550.9,96,550.32,96z M551.84,97.71c-0.39-0.62-0.68-1.02-1.08-1.16v-0.02
			c0.78-0.05,1.32-0.59,1.32-1.34c0-0.51-0.38-1.22-1.53-1.22h-2.06v4.65h0.76v-1.98h0.44c0.58,0,0.8,0.2,1.39,1.25l0.41,0.73h0.91
			L551.84,97.71z M550.32,96h-1.07v-1.4h1.2c0.5,0,0.84,0.27,0.84,0.69C551.29,95.78,550.9,96,550.32,96z M550.38,91.9
			c-2.39,0-4.32,1.92-4.32,4.32c0,2.4,1.93,4.34,4.32,4.34c2.4,0,4.34-1.94,4.34-4.34C554.72,93.82,552.78,91.9,550.38,91.9z
			 M550.38,99.84c-1.99,0-3.6-1.62-3.6-3.62s1.61-3.61,3.6-3.61c2,0,3.62,1.61,3.62,3.61S552.38,99.84,550.38,99.84z M550.76,96.55
			v-0.02c0.78-0.05,1.32-0.59,1.32-1.34c0-0.51-0.38-1.22-1.53-1.22h-2.06v4.65h0.76v-1.98h0.44c0.58,0,0.8,0.2,1.39,1.25l0.41,0.73
			h0.91l-0.56-0.91C551.45,97.09,551.16,96.69,550.76,96.55z M550.32,96h-1.07v-1.4h1.2c0.5,0,0.84,0.27,0.84,0.69
			C551.29,95.78,550.9,96,550.32,96z"/>
	</g>
</g>
</svg>
