<svg height="110" viewBox="0 0 532 110" width="532" xmlns="http://www.w3.org/2000/svg" xmlns:xlink="http://www.w3.org/1999/xlink"><mask id="a" fill="#fff"><path d="m.06.335h522.523v100.741965h-522.523z" fill="#fff" fill-rule="evenodd"/></mask><g fill="none" fill-rule="evenodd"><path d="m350.902.831c-.166-.022-.297-.131-.297-.296 0-.164.133-.295.297-.295h180.815v109.76c-41.478-58.577-106.315-99.368-180.815-109.169" fill="#ff6b00"/><g transform="translate(0 8)"><path d="m501.875 56.185c1.224-18.068.831-28.619 3.923-31.485 2.861-2.65 8.021-3.371 16.785-4.009-19.242-2.222-18.776-1.652-20.708-20.356-1.931 18.704-1.465 18.134-20.708 20.356 8.765.638 13.925 1.359 16.785 4.009 3.093 2.866 2.7 13.417 3.923 31.485" fill="#fff" mask="url(#a)"/><path d="m203.043 68.706v23.584c-2.802 2.388-5.401 4.156-9.349 4.156-4.779 0-11.012-4.053-11.012-15.792 0-12.675 9.869-21.816 20.361-11.948zm190.594 11.742c0 9.037-3.013 16.205-9.765 16.205-6.753 0-9.766-7.168-9.766-16.205 0-9.04 3.013-16.21 9.766-16.21 6.752 0 9.765 7.17 9.765 16.21zm-30.958 0c0 10.907 8.101 19.946 21.193 19.946 13.088 0 21.192-9.039 21.192-19.946 0-10.909-8.104-19.948-21.192-19.948-13.092 0-21.193 9.039-21.193 19.948zm-259.52 0c0 9.037-3.013 16.205-9.765 16.205-6.753 0-9.766-7.168-9.766-16.205 0-9.04 3.013-16.21 9.766-16.21 6.752 0 9.765 7.17 9.765 16.21zm-59.111-27.946h-6.13l-12.259 31.683-13.089-36.461h-12.57l19.427 52.15h5.922l12.569-32.205 12.465 32.205h5.924l19.425-52.045h-5.92l-13.611 36.356zm408.424 47.473v-21.503c0-14.545-11.115-18.18-17.657-18.18-4.677 0-8.626 1.766-12.573 4.466l-.211-.104v-3.741h-9.97v39.062h10.802v-31.474c3.221-2.809 6.34-3.952 9.039-3.952 5.715 0 9.662 5.508 9.662 11.532v23.894zm-191.317 0h4.573l22.855-52.463h-5.923l-15.895 36.882-15.687-36.882h-13.088zm-70.473.833c5.09 0 9.246-1.766 12.985-4.677l.208.106v3.738h9.973v-59.736h-10.805v23.794c-3.012-2.287-7.582-3.741-12.257-3.741-5.922 0-20.05 3.635-20.05 20.778 0 12.778 11.219 19.738 19.946 19.738zm117.506-29.191c-1.038 14.856 20.779 11.323 20.156 20.362-.314 3.632-3.43 4.883-6.753 4.777-5.404-.418-8.727-3.534-11.636-6.962l-3.219 7.168c4.359 2.495 9.139 3.742 13.295 4.053 9.351.622 17.249-3.432 17.764-12.466.935-14.023-21.608-12.259-21.191-19.426.209-3.118 3.737-4.674 7.374-4.469 3.742.311 6.651 2.389 9.87 5.299l2.911-6.442c-4.052-1.765-7.896-2.598-11.324-2.909-10.077-.622-16.83 4.676-17.247 11.015zm-10.776-28.362c-3.223 0-5.715 2.495-5.715 5.715 0 3.217 2.492 5.712 5.715 5.712 3.221 0 5.713-2.495 5.713-5.712 0-3.22-2.492-5.715-5.713-5.715zm-6.751 56.721h10.803v-39.063h-10.803zm-218.46-19.528c0 10.907 8.101 19.946 21.193 19.946 13.088 0 21.192-9.039 21.192-19.946 0-10.909-8.104-19.948-21.192-19.948-13.092 0-21.193 9.039-21.193 19.948zm81.73 19.527h10.805v-59.736h-10.805zm-32.929-39.062v39.062h10.801v-31.789c3.639-3.115 6.235-2.077 13.404 3.846l4.363-9.767c-2.182-.934-4.987-1.973-9.039-1.973-4.051 0-7.065 1.973-8.518 3.741l-.522.621-.103-.105.103-3.636z" fill="#231f20" mask="url(#a)"/></g><g fill="#231f20"><path d="m344.796 107.976h10.803v-39.063h-10.803z"/><path d="m350.547 51.255c-3.223 0-5.715 2.495-5.715 5.715 0 3.217 2.492 5.712 5.715 5.712 3.221 0 5.713-2.495 5.713-5.712 0-3.22-2.492-5.715-5.713-5.715"/></g></g></svg>