<svg xmlns="http://www.w3.org/2000/svg" xmlns:xlink="http://www.w3.org/1999/xlink" width="285" height="40" viewBox="0 0 285 40"><defs><path id="f44na" d="M131.847 100.907c-4.716 0-8.545 3.82-8.545 8.538 0 4.711 3.83 8.54 8.545 8.54 2.234 0 4.26-.876 5.784-2.275a17.163 17.163 0 0 0 2.41 4.312c-2.267 1.758-5.104 2.824-8.194 2.824-7.406 0-13.4-6-13.4-13.4s5.994-13.404 13.4-13.404c3.09 0 5.927 1.065 8.194 2.825a17.22 17.22 0 0 0-2.41 4.31 8.514 8.514 0 0 0-5.784-2.27zm-27.692-9.749c.876 0 1.616.522 1.957 1.262l13.264 29.41h-5.286l-1.893-4.21H96.151l-1.923 4.21h-5.286l13.274-29.41a2.14 2.14 0 0 1 1.938-1.262zm5.904 21.744l-5.903-13.08-5.897 13.08zm57.537-3.472c0 2.19-.483 4.214-1.367 5.988l6.728 6.362h-7.346l-2.543-2.407c-2.31 1.88-5.407 2.998-9.053 2.998-8.176 0-13.242-6.953-13.242-12.94 0-7.289 5.858-13.243 13.122-13.403h.045c.218.01.265.13.181.326-.433.964-1.669 3.452-3.836 5.151-2.74 2.158-4.408 4.723-4.408 7.925 0 4.075 3.192 8.524 8.417 8.524 5.216 0 8.402-4.449 8.402-8.524 0-3.202-1.66-5.767-4.4-7.925-2.124-1.67-3.337-4.108-3.807-5.099-.013-.03-.029-.06-.037-.083-.09-.173-.015-.295.22-.285.03.004.052.004.083.004 7.127.303 12.841 6.04 12.841 13.388zm66.66-12.88v25.2h-4.991v-3.48l-.938.871c-2.384 2.234-4.972 3.365-7.7 3.365-3.45 0-6.356-1.26-8.606-3.759-2.257-2.568-3.398-5.815-3.398-9.68 0-3.775 1.14-6.977 3.398-9.483 2.235-2.504 5.08-3.767 8.449-3.767 2.89 0 5.525 1.216 7.836 3.617l.959.995v-3.88zm-6.833 19.138c1.472-1.713 2.219-3.887 2.219-6.484 0-2.593-.74-4.766-2.22-6.47-1.485-1.682-3.45-2.546-5.813-2.546-2.25 0-4.161.87-5.661 2.567-1.481 1.71-2.22 3.83-2.22 6.311 0 2.652.725 4.848 2.15 6.531 1.496 1.722 3.406 2.597 5.673 2.597 2.405 0 4.378-.853 5.872-2.506zm-27.453 6.142V96.55h5.05v25.28zm-9.779-25.28h5.09v12.684c0 7.702-5.073 13.311-12.049 13.311-6.929 0-11.973-5.609-11.973-13.31v-12.67h5.071v12.67c0 5.216 2.658 8.462 6.94 8.462s6.938-3.246 6.938-8.463z"/><path id="f44nb" d="M243.728 121.783V91.234h19.374v2.382h-16.763v11.313h16.443v2.381h-16.443v12.092h16.763v2.381z"/><path id="f44nc" d="M281.192 121.783v-14.977c0-4.259-2.152-5.542-5.358-5.542-2.84 0-5.771 1.787-7.191 3.802v16.717h-2.382V99.661h2.382v3.344c1.603-1.924 4.763-3.893 7.969-3.893 4.488 0 6.962 2.198 6.962 7.191v15.48z"/><path id="f44nd" d="M287.831 127.416l1.374-1.832c1.924 2.29 4.031 3.115 7.328 3.115 4.031 0 7.558-2.015 7.558-7.1v-3.48c-1.558 2.244-4.397 4.122-7.694 4.122-5.864 0-9.894-4.443-9.894-11.541 0-7.008 4.03-11.588 9.894-11.588 3.16 0 5.908 1.603 7.694 4.122v-3.572h2.427v21.892c0 6.779-4.58 9.206-9.985 9.206-3.71 0-6.09-.687-8.702-3.344zm16.26-11.358v-10.763c-1.282-2.153-4.214-4.03-7.282-4.03-4.902 0-7.74 4.076-7.74 9.435 0 5.358 2.838 9.388 7.74 9.388 3.068 0 6-1.878 7.282-4.03z"/><path id="f44ne" d="M324.746 121.783v-2.611c-1.97 2.153-4.442 3.16-7.512 3.16-3.801 0-7.74-2.61-7.74-7.373 0-4.81 3.894-7.328 7.74-7.328 3.07 0 5.588 1.008 7.512 3.16v-4.488c0-3.298-2.656-5.084-5.954-5.084-2.748 0-4.9.962-6.916 3.25l-1.328-1.647c2.29-2.473 4.854-3.71 8.518-3.71 4.489 0 8.062 2.153 8.062 7.099v15.572zm0-4.351v-4.854c-1.558-2.016-4.03-3.07-6.687-3.07-3.664 0-6.045 2.336-6.045 5.497 0 3.114 2.38 5.45 6.045 5.45 2.657 0 5.129-1.007 6.687-3.023z"/><path id="f44nf" d="M331.385 127.416l1.374-1.832c1.924 2.29 4.031 3.115 7.329 3.115 4.031 0 7.557-2.015 7.557-7.1v-3.48c-1.558 2.244-4.397 4.122-7.695 4.122-5.862 0-9.893-4.443-9.893-11.541 0-7.008 4.031-11.588 9.893-11.588 3.161 0 5.909 1.603 7.695 4.122v-3.572h2.428v21.892c0 6.779-4.581 9.206-9.985 9.206-3.711 0-6.091-.687-8.703-3.344zm16.26-11.358v-10.763c-1.282-2.153-4.214-4.03-7.283-4.03-4.9 0-7.739 4.076-7.739 9.435 0 5.358 2.839 9.388 7.739 9.388 3.069 0 6.001-1.878 7.283-4.03z"/><path id="f44ng" d="M352.955 110.7c0-6.412 4.534-11.588 10.672-11.588 6.732 0 10.442 5.358 10.442 11.725v.64h-18.503c.23 4.81 3.436 8.795 8.657 8.795 2.794 0 5.358-1.054 7.237-3.07l1.236 1.558c-2.198 2.29-4.992 3.573-8.656 3.573-6.458 0-11.084-4.81-11.084-11.633zm10.627-9.527c-5.222 0-7.832 4.58-8.015 8.428h16.076c-.046-3.756-2.52-8.428-8.061-8.428z"/></defs><g><g transform="translate(-89 -91)"><use fill="#fff" xlink:href="#f44na"/></g><g transform="translate(-89 -91)"><use fill="#fff" xlink:href="#f44nb"/></g><g transform="translate(-89 -91)"><use fill="#fff" xlink:href="#f44nc"/></g><g transform="translate(-89 -91)"><use fill="#fff" xlink:href="#f44nd"/></g><g transform="translate(-89 -91)"><use fill="#fff" xlink:href="#f44ne"/></g><g transform="translate(-89 -91)"><use fill="#fff" xlink:href="#f44nf"/></g><g transform="translate(-89 -91)"><use fill="#fff" xlink:href="#f44ng"/></g></g></svg>