<?xml version="1.0" encoding="utf-8"?>
<!-- Generator: Adobe Illustrator 24.0.1, SVG Export Plug-In . SVG Version: 6.00 Build 0)  -->
<svg version="1.1" id="Layer_1" xmlns="http://www.w3.org/2000/svg" xmlns:xlink="http://www.w3.org/1999/xlink" x="0px" y="0px"
	 viewBox="0 0 464.6 479.7" style="enable-background:new 0 0 464.6 479.7;" xml:space="preserve">
<style type="text/css">
	.st0{fill:#FFFFFF;}
	.st1{fill:#105266;}
	.st2{fill:#525352;}
	.st3{fill:#4B4C4B;}
	.st4{fill:#757778;}
</style>
<g>
	<g id="Layer_1_1_">
		<path class="st0" d="M195,367.6c-1.5,5.2-5.9,7.8-11.3,6.3l-6.3-1.8l5-17.6l6.3,1.8C194.1,357.8,196.5,362.4,195,367.6z
			 M184.5,370.1c3.1,0.9,5.4-0.5,6.3-3.7s-0.4-5.7-3.4-6.5l-1.9-0.5l-2.9,10.2L184.5,370.1z"/>
		<path class="st0" d="M197.9,362.5l4.2,0.8l-2.9,14.3l-4.2-0.8L197.9,362.5z M198.3,358.6c0.2-1.4,1.5-2.3,2.9-2.1
			c1.4,0.2,2.3,1.5,2.1,2.9c-0.2,1.4-1.5,2.3-2.9,2.1c0,0-0.1,0-0.1,0c-1.3-0.2-2.2-1.4-2-2.7C198.3,358.7,198.3,358.6,198.3,358.6z
			"/>
		<path class="st0" d="M209.4,364.3c1.7,0.1,3.3,1.2,4,2.8l0.3-2l4.2,0.5l-1.9,14.4l-4.2-0.5l0.2-2c-1.1,1.3-2.8,2-4.6,1.7
			c-3.4-0.4-5.7-3.7-5.1-8.2S206.1,363.9,209.4,364.3z M210.2,368.3c-1.6-0.2-3.2,0.9-3.5,3.2s1,3.8,2.6,4s3.2-0.9,3.5-3.2
			S211.8,368.5,210.2,368.3L210.2,368.3z"/>
		<path class="st0" d="M239,372.5c0-1.9-1.1-2.9-2.7-2.9s-2.6,1.1-2.6,3l0.1,7.9h-4.2l-0.1-7.9c0-1.9-1.1-2.9-2.7-2.9
			s-2.6,1.1-2.6,3l0.1,7.9h-4.2l-0.1-14.6h4.2v1.8c0.9-1.3,2.4-2,4-2c2-0.1,3.8,1,4.7,2.7c1-1.7,2.7-2.7,4.7-2.8
			c3.4,0,5.7,2.3,5.7,6.2l0.1,8.5H239L239,372.5z"/>
		<path class="st0" d="M253.3,379.1c-4,0.5-7.5-1.9-8.1-6.5s2.1-7.9,6.1-8.4s7.5,1.9,8.2,6.4S257.3,378.6,253.3,379.1z M252.8,375.3
			c1.5-0.2,2.8-1.6,2.4-4s-1.9-3.4-3.4-3.2s-2.7,1.5-2.4,4S251.2,375.5,252.8,375.3L252.8,375.3z"/>
		<path class="st0" d="M270.5,367.6c-0.5-1.9-1.7-2.8-3.3-2.4s-2.3,1.7-1.9,3.6l1.8,7.7l-4.1,1l-3.3-14.2l4.1-1l0.4,1.9
			c0.6-1.5,2-2.7,3.6-3c3.1-0.7,5.7,1,6.6,4.8l1.9,8.3l-4.1,1L270.5,367.6z"/>
		<path class="st0" d="M280,357.8c1.6-0.6,3.4-0.3,4.8,0.8l-2.1-6.4l4-1.3l6.1,18.3l-4,1.3l-0.7-2c-0.4,1.7-1.7,3.1-3.3,3.5
			c-3.2,1.1-6.7-0.8-8.2-5.2S276.7,358.8,280,357.8z M282.4,361c-1.5,0.5-2.5,2.1-1.8,4.3s2.5,3,4,2.5s2.5-2.2,1.7-4.4
			S283.9,360.5,282.4,361L282.4,361z"/>
		<polygon class="st1" points="93,38.6 373.4,38.6 373.4,340.8 233.8,438 91.2,342.4 		"/>
		<path class="st2" d="M234,470.6l-2.3-1.5l-165-110L68.8,10h329v347.2L234,470.6z M74.8,354.8L234,460.9L389.9,353V18H76.8
			L74.8,354.8z"/>
		<polygon class="st2" points="87,30 379.4,30 379.4,345.1 233.8,446.6 85.2,346.9 		"/>
		<polygon class="st3" points="224,37.5 236.7,434.1 373.4,339.6 373.4,37.5 		"/>
		<path class="st4" d="M232.3,300.9c-47.6,0.1-86.3-38.5-86.4-86.1s38.5-86.3,86.1-86.4c47.6-0.1,86.3,38.5,86.4,86.1
			c0,0,0,0.1,0,0.1C318.4,262.2,279.9,300.8,232.3,300.9L232.3,300.9z"/>
		<path class="st0" d="M232.3,277.3c-28.4-0.1-51.4-23-51.4-51.4c0-24.1,16.1-40.2,30.2-54.4c9.5-9.4,18.5-18.5,21.2-28.6
			c2.7,10.2,11.7,19.2,21.2,28.6c14.2,14.2,30.2,30.2,30.2,54.4c0,28.4-22.9,51.4-51.3,51.4C232.4,277.3,232.3,277.3,232.3,277.3"/>
		<path class="st4" d="M242.1,182.2c-3.3-3.3-6.8-6.8-9.8-10.4c-2.9,3.3-5.9,6.3-9.1,9.3c-0.8,0.7-1.3,1.6-1.7,2.5
			c-0.7,1.5-0.9,3.1-0.6,4.7v0.5c0.3,0.9,0.7,1.7,1.2,2.4c0.1,0.1,0.2,0.3,0.3,0.4c3,3.4,6.2,6.6,9.5,9.7l15.9,16.5l4.7,5
			c3.9,4.1,7.4,8.5,10.6,13.1l0,0c0.4,0.6,1,1.1,1.6,1.4h0.4c0.8-0.1,1.4-0.7,1.7-1.4l0,0c1-3.3,1.6-6.7,1.6-10.2
			c-0.1-8-2.6-15.8-7.3-22.3c-5.5-7.7-11.7-14.7-18.6-21.2L242.1,182.2z"/>
		<path class="st4" d="M246.6,235.4c-3.9-4.8-7.8-9.1-13.7-15.5c-5.1,5.8-9.7,10.2-13.5,14.7c-6.7,7.3-6.3,18.7,1,25.4
			c7.3,6.7,18.7,6.3,25.4-1c5.7-6.2,6.4-15.6,1.5-22.5C247.2,236.1,246.9,235.7,246.6,235.4z"/>
		<path class="st4" d="M223.4,212c0.4-0.5,0.4-1.2,0-1.7l-11.7-11.9l-2.5-2.3c-2,2.3-3.9,4.8-5.7,7.3c-2.8,4.1-4.9,8.6-6.2,13.3l0,0
			c-1.4,5.5-1.3,11.3,0.4,16.6l0.3,0.5c0.3,0.6,0.6,1.1,1,1.7l0,0c0,0,1.4,2.2,2.5,2.3h0.4c0.4-0.1,0.8-0.4,0.9-0.8
			c1.1-2.3,2.5-4.5,4.1-6.4l4.3-5.1l0,0L223.4,212z"/>
		
			<image style="overflow:visible;opacity:0.4;enable-background:new    ;" width="277" height="115" xlink:href="A02A4C25DC4CF979.png"  transform="matrix(1 0 0 1 101.13 33.96)">
		</image>
		<path class="st0" d="M203.6,58.9c0,6.8-4.4,11-11.2,11h-6.9V47.7h6.9C199.2,47.7,203.6,52,203.6,58.9z M192.4,67
			c5,0,7.7-3,7.7-8.1s-2.7-8.2-7.7-8.2h-3.4V67H192.4z"/>
		<path class="st0" d="M209.7,70h-3.5V52.3h3.5v2.6c1-1.8,2.9-2.9,5-2.8v3.8h-0.9c-2.6,0-4.1,1.1-4.1,4.9L209.7,70z"/>
		<path class="st0" d="M232.3,70h-3.5v-2.2c-1.2,1.5-3.1,2.4-5,2.4c-3.9,0-6.9-2.6-6.9-7.5V52.3h3.4v9.8c0,3.2,1.7,4.9,4.2,4.9
			s4.2-1.7,4.2-4.9v-9.8h3.5L232.3,70z"/>
		<path class="st0" d="M245.4,52c4.4,0,7.9,3.6,7.9,9s-3.5,9.2-7.9,9.2c-2.3,0-4.4-1.1-5.9-2.8v11H236v-26h3.5v2.6
			C240.9,53.1,243,52,245.4,52z M244.6,55.2c-2.6,0-5.1,2.1-5.1,5.9s2.5,5.9,5.1,5.9s5.1-2.2,5.1-6S247.2,55.2,244.6,55.2
			L244.6,55.2z"/>
		<path class="st0" d="M262.6,52c2.3-0.1,4.5,1,5.8,2.8v-2.5h3.6V70h-3.5v-2.7c-1.4,1.9-3.6,3-5.9,2.9c-4.4,0-7.9-3.8-7.9-9.2
			S258.2,52,262.6,52z M263.4,55.2c-2.6,0-5.1,2-5.1,5.8s2.5,6,5.1,6s5.1-2.1,5.1-6S266,55.2,263.4,55.2L263.4,55.2z"/>
		<path class="st0" d="M275.7,46.3h3.5V70h-3.5V46.3z"/>
		<path class="st0" d="M125.4,85.4c4.4-0.1,8.4,2.6,9.9,6.7h-4.2c-1-2.2-3.2-3.6-5.7-3.5c-4.2,0-7.3,3.1-7.3,8.2s3,8.2,7.3,8.2
			c2.4,0.1,4.7-1.3,5.7-3.5h4.2c-1.5,4.1-5.5,6.8-9.8,6.7c-6,0-10.8-4.7-10.8-11.4S119.4,85.4,125.4,85.4z"/>
		<path class="st0" d="M145.7,108.2c-4.8,0-8.4-3.6-8.4-9.1s3.4-9.1,8.4-9.1c4.8,0,8.2,3.5,8.2,8.7c0,0.6,0,1.2-0.1,1.8h-12.9
			c0,2.6,2.2,4.7,4.8,4.7c0,0,0,0,0,0c1.7,0.1,3.3-0.9,4-2.5h3.8C152.5,106.1,149.3,108.4,145.7,108.2z M140.9,97.6h9.3
			c0-2.5-2-4.5-4.5-4.5c-0.1,0-0.2,0-0.2,0C143.2,93.1,141.3,94.8,140.9,97.6z"/>
		<path class="st0" d="M159.9,108h-3.5V90.3h3.5v2.6c1-1.8,2.9-2.9,5-2.8v3.8H164c-2.6,0-4.1,1.1-4.1,4.9L159.9,108z"/>
		<path class="st0" d="M167.8,93.3h-2v-3h2v-4.4h3.5v4.4h4.1v3h-4.1v9.8c0,1.3,0.5,1.9,2,1.9h2.1v3h-2.8c-3,0-4.9-1.3-4.9-4.9
			L167.8,93.3z"/>
		<path class="st0" d="M177.3,85.7c0.1-1.2,1.1-2.1,2.3-2.1c1.2,0.1,2.1,1.1,2.1,2.3c-0.1,1.2-1,2.1-2.2,2.1
			C178.3,88,177.3,87,177.3,85.7C177.3,85.7,177.3,85.7,177.3,85.7z M177.8,90.3h3.5V108h-3.5V90.3z"/>
		<path class="st0" d="M185.4,93.3h-2v-3h2v-1.2c0-4.1,2-5.8,6.4-5.8v3c-2.1,0-2.9,0.8-2.9,2.8v1.2h3.1v3h-3.1V108h-3.5L185.4,93.3z
			"/>
		<path class="st0" d="M193.8,85.7c0.1-1.2,1.1-2.2,2.3-2.1c1.2,0.1,2.2,1.1,2.1,2.3c-0.1,1.2-1,2.1-2.2,2.1
			C194.8,88,193.8,86.9,193.8,85.7C193.8,85.7,193.8,85.7,193.8,85.7z M194.3,90.3h3.5V108h-3.5V90.3z"/>
		<path class="st0" d="M208.7,108.2c-4.8,0-8.4-3.6-8.4-9.1s3.4-9.1,8.4-9.1c4.8,0,8.2,3.5,8.2,8.7c0,0.6,0,1.2-0.1,1.8h-12.8
			c0,2.6,2.2,4.7,4.8,4.7c0,0,0,0,0,0c1.7,0.1,3.3-0.9,4-2.5h3.8C215.5,106.1,212.3,108.4,208.7,108.2z M203.9,97.6h9.3
			c0-2.5-2-4.5-4.4-4.5c-0.1,0-0.2,0-0.2,0C206.2,93.1,204.3,94.8,203.9,97.6L203.9,97.6z"/>
		<path class="st0" d="M226.2,90c2.2,0,4.4,1.1,5.8,2.8v-8.5h3.5V108H232v-2.7c-1.3,1.9-3.5,3.1-5.8,3c-4.4,0-7.9-3.8-7.9-9.2
			S221.8,90,226.2,90z M226.9,93.2c-2.6,0-5.1,2.1-5.1,5.8s2.5,6,5.1,6s5.1-2.1,5.1-6S229.6,93.2,226.9,93.2L226.9,93.2z"/>
		<path class="st0" d="M253.6,98.9h-3.8v9h-3.5V85.7h7.3c5,0,7.5,3,7.5,6.6C261.2,95.5,259.2,98.9,253.6,98.9z M253.6,95.9
			c2.7,0,3.9-1.4,3.9-3.6s-1.2-3.6-3.9-3.6h-3.8V96L253.6,95.9z"/>
		<path class="st0" d="M270.4,90c2.3-0.1,4.5,1,5.8,2.8v-2.5h3.5V108h-3.5v-2.6c-1.4,1.9-3.6,3-5.9,2.9c-4.4,0-7.9-3.8-7.9-9.2
			S266,90,270.4,90z M271.1,93.2c-2.6,0-5.1,2.1-5.1,5.8s2.5,6,5.1,6s5.1-2.1,5.1-6S273.8,93.2,271.1,93.2L271.1,93.2z"/>
		<path class="st0" d="M286.9,108h-3.5V90.3h3.5v2.6c1-1.9,3-3,5.1-2.9v3.8h-0.9c-2.6,0-4.1,1.1-4.1,4.9L286.9,108z"/>
		<path class="st0" d="M294.9,93.3h-2v-3h2v-4.4h3.5v4.4h4.1v3h-4.1v9.8c0,1.3,0.5,1.9,2,1.9h2.1v3h-2.7c-3,0-4.9-1.3-4.9-4.9
			L294.9,93.3z"/>
		<path class="st0" d="M316.7,98.1c0-3.2-1.7-4.9-4.2-4.9s-4.2,1.7-4.2,4.9v9.9h-3.5V90.3h3.5v2c1.2-1.5,3.1-2.3,5-2.3
			c3.9,0,6.9,2.6,6.9,7.5V108h-3.5V98.1z"/>
		<path class="st0" d="M331,108.2c-4.8,0-8.4-3.6-8.4-9.1S326,90,331,90c4.8,0,8.2,3.5,8.2,8.7c0,0.6,0,1.2-0.1,1.8h-12.9
			c0,2.6,2.2,4.7,4.8,4.7c0,0,0,0,0,0c1.7,0.1,3.3-0.9,4-2.5h3.8C337.8,106.1,334.6,108.4,331,108.2z M326.2,97.6h9.3
			c0-2.5-2-4.5-4.4-4.5c-0.1,0-0.2,0-0.2,0C328.5,93.1,326.6,94.8,326.2,97.6L326.2,97.6z"/>
		<path class="st0" d="M345.2,108h-3.5V90.3h3.5v2.6c1-1.8,2.9-2.9,5-2.8v3.8h-0.9c-2.6,0-4.1,1.1-4.1,4.9L345.2,108z"/>
		<path class="st4" d="M386.8,287.5l5.2,41.1c11.9-4.5,23.9-9,36.1-12.7c6.3-1.9,12.7-3.6,19.2-5c4.4-1,9.9-1.6,13.8-3.8
			c-2.3-1.6-24.7-8.5-23.8-11.2c3.4-11.2,11.2-19.1,21-25.1c-0.9,0.5-5.2-0.8-6.2-0.8c-5.6-0.2-11.2,0-16.7,0.5
			C418.4,272,400.4,276.8,386.8,287.5z"/>
		<path class="st0" d="M390.4,331.4l-5.7-44.7l0.9-0.7c15.4-12.1,35.4-16.2,49.5-17.5c5.7-0.5,11.3-0.6,17-0.5
			c0.8,0.1,1.5,0.2,2.3,0.4c1.1,0.3,2.2,0.4,3.3,0.5c-0.2,0-0.3,0.1-0.4,0.2l2.1,3.4l0,0c-10.3,6.3-16.8,13.9-19.9,23.2
			c2.1,1.7,10.8,5,15.2,6.6s6.7,2.5,7.7,3.2l2.7,1.8l-2.8,1.6c-3.4,1.9-7.7,2.7-11.5,3.4c-1,0.2-2,0.4-2.9,0.6
			c-5.9,1.3-12.1,2.9-19,5c-12.2,3.7-24,8.1-36,12.6L390.4,331.4z M388.9,288.4l4.8,37.4c11.3-4.2,22.4-8.3,33.9-11.8
			c7-2.1,13.3-3.8,19.3-5.1c0.9-0.2,1.9-0.4,3-0.6c2-0.4,4.1-0.8,6-1.3l-2.7-1c-14.6-5.5-18.8-7.6-17.8-10.7
			c2.8-9.1,8.4-16.8,17.3-23.2c-0.3-0.1-0.6-0.1-0.7-0.1c-5.5-0.2-11,0-16.5,0.5C422.2,273.7,403.4,277.4,388.9,288.4L388.9,288.4z"
			/>
		<path class="st4" d="M77.8,287.5l-5.2,41.1c-12-4.5-23.9-9-36.2-12.7c-6.3-1.9-12.7-3.6-19.2-5c-4.4-1-9.9-1.6-13.8-3.8
			c2.3-1.6,24.7-8.5,23.8-11.2c-3.4-11.2-11.2-19.1-20.9-25.1c0.9,0.5,5.2-0.8,6.2-0.8c5.6-0.2,11.2,0,16.8,0.5
			C46.2,272,64.3,276.8,77.8,287.5z"/>
		<path class="st0" d="M74.2,331.4l-2.4-0.9c-12-4.5-23.8-8.9-36-12.6c-6.9-2.1-13.1-3.7-19-5l-2.9-0.6c-3.8-0.7-8.1-1.6-11.5-3.4
			l-2.8-1.6l2.7-1.8c0.9-0.6,3.3-1.5,7.7-3.2s13-4.9,15.2-6.6c-3-9.3-9.5-16.9-19.9-23.2l0,0l2.1-3.4l0,0c-0.1-0.1-0.3-0.1-0.4-0.2
			c1.1-0.1,2.2-0.3,3.2-0.5c0.8-0.2,1.5-0.3,2.3-0.4c5.7-0.2,11.3,0,17,0.5c14.1,1.3,34.1,5.3,49.5,17.5l0.9,0.7L74.2,331.4z
			 M8.7,307c1.9,0.5,4,0.9,6,1.3c1,0.2,2,0.4,3,0.6c6,1.3,12.4,3,19.3,5.1c11.5,3.5,23,7.7,33.9,11.8l4.8-37.4
			c-14.5-11-33.2-14.7-46.5-15.9c-5.5-0.5-11-0.6-16.5-0.4l-0.7,0.1c8.8,6.4,14.5,14,17.3,23.2c1,3.1-3.2,5.2-17.8,10.7L8.7,307z"/>
		<path class="st4" d="M59.5,293.5c0,0,9.9-6.8,18.3-4.7l-4.2,55.3l-18.8-4.7L59.5,293.5z"/>
		<path class="st0" d="M75.4,346.6l-22.8-5.7l5-48.6l0.8-0.5c0.4-0.3,10.8-7.3,19.9-5l1.6,0.4L75.4,346.6z M57,337.9l14.8,3.7
			l3.9-51.1c-5.7-0.5-12.1,2.9-14.2,4.2L57,337.9z"/>
		<path class="st4" d="M405.1,293.5c0,0-9.9-6.8-18.3-4.7l4.2,55.3l18.8-4.7L405.1,293.5z"/>
		<path class="st0" d="M389.2,346.6l-4.5-59.4l1.6-0.4c9.1-2.3,19.4,4.7,19.9,5l0.8,0.5l5,48.6L389.2,346.6z M388.9,290.4l3.9,51.1
			l14.8-3.7l-4.4-43.2C401,293.4,394.7,289.9,388.9,290.4z"/>
		<path class="st4" d="M59.5,296.7c0,0,168.7,55.6,346,0l6,58.2c0,0-181.9,57.5-357.9,0L59.5,296.7z"/>
		<path class="st0" d="M225.1,382.4c-51.9,0-112.4-6.1-172.2-25.6l-1.5-0.5l6.4-62.3l2.4,0.8c0.4,0.1,42.8,13.9,106.2,20.8
			c58.5,6.3,147.3,7.8,238.5-20.8l2.3-0.7l6.4,62.3l-1.5,0.5c-0.5,0.1-46.5,14.5-113.3,21.7C274.2,381.1,249.7,382.4,225.1,382.4z
			 M55.7,353.5c90,29.1,181.4,27.5,242.4,21c59.7-6.4,102.6-18.5,111.1-21l-5.5-54.1c-91.1,28-179.6,26.5-237.9,20.2
			c-55.3-6-94.8-17.2-104.5-20.2L55.7,353.5z"/>
		
			<image style="overflow:visible;opacity:0.39;enable-background:new    ;" width="319" height="91" xlink:href="A02A4C25DC4CF97B.png"  transform="matrix(1 0 0 1 79.13 313.96)">
		</image>
		<path class="st0" d="M180.2,349.2c-0.7,7.2-5.8,11.2-13,10.5l-7.3-0.7l2.2-23.5l7.3,0.7C176.6,336.9,180.9,341.9,180.2,349.2z
			 M167.5,356.6c5.3,0.5,8.4-2.4,8.9-7.8s-2-9-7.3-9.5l-3.6-0.4l-1.6,17.2L167.5,356.6z"/>
		<path class="st0" d="M183.7,342.3l3.7,0.2l-1.3,18.7l-3.7-0.2L183.7,342.3z M183.6,337.3c0.2-1.3,1.3-2.2,2.6-2s2.2,1.3,2,2.6
			c-0.2,1.2-1.2,2.1-2.5,2.1C184.4,339.8,183.4,338.7,183.6,337.3C183.6,337.3,183.6,337.3,183.6,337.3L183.6,337.3z"/>
		<path class="st0" d="M198.4,342.8c2.4,0.1,4.7,1.3,6,3.3l0.1-2.7l3.7,0.2l-0.8,18.7l-3.7-0.1l0.1-2.8c-1.5,1.9-3.9,3-6.4,2.8
			c-4.6-0.2-8.2-4.3-7.9-10.1S193.7,342.6,198.4,342.8z M199,346.2c-2.8-0.1-5.5,1.9-5.7,6s2.4,6.5,5.1,6.6s5.5-2,5.7-6.1
			S201.8,346.4,199,346.2L199,346.2z"/>
		<path class="st0" d="M236.9,352c0-3.4-1.8-5.2-4.5-5.2s-4.5,1.8-4.5,5.2v10.5h-3.7V352c0-3.4-1.8-5.2-4.5-5.2s-4.5,1.8-4.5,5.2
			v10.5h-3.7v-18.7h3.7v2.1c1.3-1.6,3.2-2.5,5.3-2.5c2.7-0.1,5.2,1.3,6.4,3.7c1.2-2.3,3.6-3.7,6.2-3.7c4.2,0,7.4,2.8,7.4,8v11h-3.7
			L236.9,352z"/>
		<path class="st0" d="M252.3,362.2c-5.1,0.2-9.1-3.4-9.3-9.3s3.6-9.8,8.7-10s9.2,3.4,9.5,9.3S257.4,362,252.3,362.2z M252.2,358.9
			c2.8-0.1,5.4-2.3,5.2-6.5s-2.9-6.2-5.6-6.1s-5.2,2.2-5,6.5S249.4,359,252.2,358.9L252.2,358.9z"/>
		<path class="st0" d="M276.5,350c-0.2-3.4-2.1-5.1-4.8-4.9s-4.4,2.1-4.1,5.5l0.8,10.4l-3.7,0.3l-1.3-18.7l3.7-0.3l0.1,2.1
			c1.2-1.7,3.1-2.7,5.1-2.8c4.2-0.3,7.5,2.2,7.9,7.5l0.8,11l-3.6,0.3L276.5,350z"/>
		<path class="st0" d="M290.1,340.2c2.4-0.2,4.7,0.6,6.4,2.3l-0.9-9l3.7-0.4l2.5,25l-3.7,0.4l-0.3-2.8c-1.2,2.2-3.4,3.6-5.8,3.7
			c-4.7,0.5-8.8-3.1-9.4-8.9S285.4,340.7,290.1,340.2z M291.2,343.4c-2.7,0.3-5.2,2.7-4.8,6.7s3.3,6.1,6,5.8s5.1-2.8,4.7-6.8
			S294,343.2,291.2,343.4L291.2,343.4z"/>
	</g>
</g>
</svg>
