<svg id="Logos" xmlns="http://www.w3.org/2000/svg" xmlns:xlink="http://www.w3.org/1999/xlink" viewBox="0 0 1000 320"><defs><style>.cls-1{fill:#121118;}.cls-2{fill:url(#linear-gradient);}</style><linearGradient id="linear-gradient" x1="430.72" y1="226.49" x2="1095.67" y2="226.49" gradientUnits="userSpaceOnUse"><stop offset="0" stop-color="#121118" stop-opacity="0"/><stop offset="0.5" stop-color="#121118"/><stop offset="1" stop-color="#121118"/></linearGradient></defs><path class="cls-1" d="M278.8,113c14.87,0,24.8,6.76,31,15V9.48a2.84,2.84,0,0,0-4.51-2.28L158.5,114.36h3.9c15.24,0,23,9.7,23,20.35,0,8.28-4.33,14.4-10.14,17.11a1.22,1.22,0,0,0,.06,2.25c6.77,2.78,11.64,10,11.64,18.48,0,12.1-7.92,21.68-23.28,21.68H121.86a1.59,1.59,0,0,1-1.59-1.58V142.26L11,222a2.49,2.49,0,0,0,1.47,4.5H307.32a2.49,2.49,0,0,0,2.5-2.49V183.66a44.25,44.25,0,0,1-31,12c-23.52,0-42.72-16.16-42.72-41.31S255.28,113,278.8,113Zm-58.46,79.74a1.45,1.45,0,0,1-1.45,1.45H204.75a1.45,1.45,0,0,1-1.45-1.45v-77a1.45,1.45,0,0,1,1.45-1.45h14.14a1.45,1.45,0,0,1,1.45,1.45Zm-83-48.27V130.14a.81.81,0,0,1,.81-.81h20.55c5.76,0,9.36,3.47,9.36,8.38,0,5.15-3.6,8.38-9.36,8.38H138.9A1.58,1.58,0,0,1,137.32,144.51Zm0,33.17v-15a1.57,1.57,0,0,1,1.58-1.58h20.5c6.6,0,10.2,4.07,10.2,9.1,0,5.75-3.84,9.1-10.2,9.1H138.9A1.56,1.56,0,0,1,137.32,177.68Zm161.76-39.85L309.82,132V150H276.29a1.69,1.69,0,0,0-1.69,1.69V163.2a1.69,1.69,0,0,0,1.69,1.69h18.16a1.27,1.27,0,0,1,1.27,1.27v7.69a1.31,1.31,0,0,1-.45,1,27,27,0,0,1-16.47,5.71c-14.64,0-25.2-11.14-25.2-26.23s10.56-26.22,25.2-26.22a22.91,22.91,0,0,1,18.1,9.2A1.77,1.77,0,0,0,299.08,137.83Zm23.2,16.46C322.28,129.62,340,113,362.8,113c14.85,0,24.39,7.57,30.16,16.62a1.33,1.33,0,0,1-.52,1.9l-9.11,4.95a1.29,1.29,0,0,1-1.71-.47,22.71,22.71,0,0,0-18.82-10.55c-15.28,0-26.63,12-26.63,28.86,0,16.64,11.35,28.86,26.63,28.86a22.94,22.94,0,0,0,18.83-10.59,1.31,1.31,0,0,1,1.69-.47l9.18,4.75a1.32,1.32,0,0,1,.53,1.93c-6,9.06-15.4,16.83-30.23,16.83C340,195.6,322.28,178.84,322.28,154.29Zm78.55,0c0-19.87,11.36-35.33,28.58-39.92,29.08-7.75,55.78,19.45,49.45,49.79-3.88,18.63-18.78,31.44-38.51,31.44C417.17,195.6,400.83,178.12,400.83,154.29Zm65.13,0c0-16.52-10.09-28.86-25.61-28.86s-25.61,12.34-25.61,28.86,10,28.86,25.61,28.86S466,170.69,466,154.29Zm96.93,38.93V132.5l-24.31,61.24a.69.69,0,0,1-.63.42h-5.08a.66.66,0,0,1-.63-.42L507.81,132.5v60.72a1,1,0,0,1-.95.94H494.71a.94.94,0,0,1-.95-.94v-78a.94.94,0,0,1,.95-.94h17.56a1.9,1.9,0,0,1,1.77,1.19l21.37,54.81,21.24-54.8a1.9,1.9,0,0,1,1.77-1.2H576a.94.94,0,0,1,.94.94v78a.94.94,0,0,1-.94.94H563.83A.94.94,0,0,1,562.89,193.22Zm138.27-.5v-77a1.43,1.43,0,0,1,1.44-1.44h52a1.43,1.43,0,0,1,1.44,1.44v9.44a1.44,1.44,0,0,1-1.44,1.45H716.65a1.45,1.45,0,0,0-1.45,1.44v17.71a1.44,1.44,0,0,0,1.45,1.44h37.07a1.44,1.44,0,0,1,1.44,1.45v9.44a1.44,1.44,0,0,1-1.44,1.45H716.65A1.44,1.44,0,0,0,715.2,161v19.39a1.45,1.45,0,0,0,1.45,1.44h37.91a1.44,1.44,0,0,1,1.44,1.45v9.44a1.43,1.43,0,0,1-1.44,1.44h-52A1.43,1.43,0,0,1,701.16,192.72Zm120.11.74-16.81-28.41a1.43,1.43,0,0,0-1.24-.7H791.43a1.43,1.43,0,0,0-1.43,1.43v26.95a1.43,1.43,0,0,1-1.43,1.43H777.39a1.43,1.43,0,0,1-1.43-1.43v-77a1.43,1.43,0,0,1,1.43-1.43h33.73c15.84,0,26.28,10.17,26.28,25,0,13.15-8.1,20.8-17.06,23.06a1.42,1.42,0,0,0-.93,2.14L836.64,192a1.43,1.43,0,0,1-1.23,2.18H822.5A1.41,1.41,0,0,1,821.27,193.46ZM823,139.2c0-7.66-5.76-12.57-13.68-12.57H791.43a1.43,1.43,0,0,0-1.43,1.43v22.52a1.43,1.43,0,0,0,1.43,1.43h17.89C817.24,152,823,147,823,139.2Zm109.23,53.55v-77a1.41,1.41,0,0,1,1.41-1.41h52a1.41,1.41,0,0,1,1.41,1.41v9.51a1.41,1.41,0,0,1-1.41,1.41h-38a1.42,1.42,0,0,0-1.42,1.41v17.78a1.41,1.41,0,0,0,1.41,1.4h37.15a1.42,1.42,0,0,1,1.41,1.42v9.51a1.41,1.41,0,0,1-1.41,1.41H947.68a1.41,1.41,0,0,0-1.41,1.41v19.45a1.41,1.41,0,0,0,1.41,1.41h38a1.41,1.41,0,0,1,1.41,1.41v9.51a1.41,1.41,0,0,1-1.41,1.41h-52A1.41,1.41,0,0,1,932.23,192.75ZM847.68,154c0-24.67,17.71-41.31,40.52-41.31,14.85,0,24.4,7.57,30.16,16.62a1.34,1.34,0,0,1-.51,1.9l-9.11,5a1.31,1.31,0,0,1-1.72-.47A22.67,22.67,0,0,0,888.2,125.1c-15.28,0-26.62,12-26.62,28.86,0,16.64,11.34,28.85,26.62,28.85A22.94,22.94,0,0,0,907,172.23a1.32,1.32,0,0,1,1.69-.48l9.18,4.75a1.34,1.34,0,0,1,.53,1.94c-6,9.06-15.4,16.83-30.23,16.83C865.39,195.27,847.68,178.5,847.68,154ZM666.56,193.22V132.5l-24.31,61.24a.68.68,0,0,1-.63.42h-5.08a.66.66,0,0,1-.62-.42L611.48,132.5v60.72a.94.94,0,0,1-.94.94H598.38a.94.94,0,0,1-.94-.94v-78a.94.94,0,0,1,.94-.94H616a1.9,1.9,0,0,1,1.77,1.19l21.36,54.81,21.25-54.8a1.9,1.9,0,0,1,1.77-1.2h17.56a1,1,0,0,1,1,.94v78a1,1,0,0,1-1,.94H667.51A1,1,0,0,1,666.56,193.22Z"/><path class="cls-2" d="M430.72,221.93H986.34a1.41,1.41,0,0,1,1.41,1.41v6.3a1.41,1.41,0,0,1-1.41,1.41H430.72a0,0,0,0,1,0,0v-9.11A0,0,0,0,1,430.72,221.93Z"/><path class="cls-1" d="M309.82,265.78H345.7v9.31H320.22v9.65h22.42v9.31H320.22v10H346v9.31H309.82Z"/><path class="cls-1" d="M366.34,265.78h10.47v38.06h23.72v9.51H366.34Z"/><path class="cls-1" d="M419.88,265.78h10.47v47.57H419.88Z"/><path class="cls-1" d="M464.32,275.43H449.85v-9.65h39.41v9.65H474.79v37.92H464.32Z"/><path class="cls-1" d="M508.28,265.78h35.88v9.31H518.67v9.65H541.1v9.31H518.67v10H544.5v9.31H508.28Z"/><path class="cls-1" d="M596.2,265.78h19.43c11.35,0,18.21,6.73,18.21,16.45v.13c0,11-8.56,16.72-19.23,16.72h-8v14.27H596.2Zm18.75,24c5.24,0,8.29-3.13,8.29-7.2v-.14c0-4.69-3.26-7.2-8.49-7.2h-8.09v14.54Z"/><path class="cls-1" d="M664.14,265.44h9.65l20.39,47.91H683.24l-4.35-10.67H658.77l-4.35,10.67H643.76Zm11,28L668.83,278l-6.32,15.43Z"/><path class="cls-1" d="M712.51,265.78h21.75c6,0,10.74,1.7,13.86,4.83a14.92,14.92,0,0,1,4.08,10.87v.14c0,7.68-4.14,12.5-10.19,14.74l11.62,17H741.4l-10.2-15.22H723v15.22H712.51Zm21.07,23.11c5.1,0,8-2.72,8-6.73V282c0-4.48-3.13-6.79-8.22-6.79H723v13.66Z"/><path class="cls-1" d="M783.72,275.43H769.24v-9.65h39.42v9.65H794.19v37.92H783.72Z"/><path class="cls-1" d="M827.68,265.78h9.65l22.29,29.29V265.78H870v47.57H861l-23-30.24v30.24H827.68Z"/><path class="cls-1" d="M892.35,265.78h35.89v9.31H902.75v9.65h22.43v9.31H902.75v10h25.83v9.31H892.35Z"/><path class="cls-1" d="M948.88,265.78h21.75c6,0,10.74,1.7,13.87,4.83a14.91,14.91,0,0,1,4.07,10.87v.14c0,7.68-4.14,12.5-10.19,14.74l11.62,17H977.77l-10.2-15.22h-8.22v15.22H948.88ZM970,288.89c5.1,0,8-2.72,8-6.73V282c0-4.48-3.13-6.79-8.22-6.79h-10.4v13.66Z"/></svg>