<svg width="96" height="61" xmlns="http://www.w3.org/2000/svg"><g fill="#282829" fill-rule="evenodd"><path d="M6.234.831L.485 14.988h1.206l1.792-4.456h6.546l1.771 4.456h1.201L7.356.83H6.234zM6.81 2.11l2.84 7.428H3.864L6.81 2.11zM26.18.831l-5.362 12.784L15.4.831h-1.451v14.157h1.117V2.553l5.232 12.435h1.043L26.512 2.56v12.428h1.126V.83zM30.247.831v14.157h9.8v-.999h-8.676V8.14h8.064V7.14H31.37V1.828h8.574V.83zM43.13 1.828H48c1.034 0 3.44.27 3.44 2.773 0 2.668-2.156 3.066-3.44 3.066h-4.87v-5.84zm0 6.833H48c2.529 0 3.021 1.176 3.17 2.322.056.474.053.988.05 1.485-.01.933-.014 1.813.342 2.452l.037.068h1.305l-.16-.208c-.366-.47-.378-1.354-.392-2.288-.007-.452-.013-.918-.056-1.378-.113-1.194-.483-2.58-2.3-3.006 1.603-.477 2.579-1.8 2.579-3.566 0-2.428-1.583-3.71-4.575-3.71h-5.996v14.156h1.127V8.66zM54.964 14.988h1.125V.83h-1.125zM64.988 15.321c3.157 0 5.685-2.462 6.008-5.855l.013-.141h-1.133l-.008.121c-.162 2.689-2.35 4.875-4.88 4.875-3.35 0-5.687-2.637-5.687-6.411 0-3.774 2.337-6.41 5.687-6.41 2.434 0 4.303 1.456 4.652 3.629l.016.107h1.115l-.012-.14C70.755 5.05 70.119.5 64.989.5c-4.077 0-6.816 2.977-6.816 7.41s2.739 7.411 6.815 7.411M74.384 9.538l2.952-7.436 2.844 7.436h-5.796zm-.378.994h6.544l1.772 4.456h1.204L77.88.83h-1.125l-5.742 14.157h1.202l1.791-4.456zM85.728 2.37l8.766 12.618h1.223V.83H94.59v12.524L85.884.831h-1.277v14.157h1.121zM5.691 24.88h.034l1.22 5.626H4.47L5.69 24.88zM.785 35.226h2.658l.583-2.656h3.36l.588 2.656h2.654L7.284 22.705h-3.15l-3.35 12.52zM17.407 28.856c0 3.404-.352 4.508-2.127 4.508h-1.128v-8.801h1.078c1.948 0 2.177 1.456 2.177 4.293zm-5.809-6.151v12.52h4.02c3.38 0 4.343-2.004 4.343-6.439 0-3.674-.635-6.081-4.184-6.081h-4.179zM25.064 31.965l-1.788-9.26h-2.728l2.907 12.52h3.271l2.912-12.52h-2.643l-1.879 9.26zM37.997 24.77v-2.065h-7.061v12.52h7.24v-2.069h-4.693v-3.37h4.253v-2.071h-4.253V24.77zM43.428 28.178h-1.061v-3.615h1.198c1.156 0 1.77.578 1.77 1.733 0 1.35-.69 1.882-1.907 1.882m4.458-2.25c0-2.137-1.275-3.223-3.36-3.223h-4.711v12.52h2.552v-5.297h1.364c1.028 0 1.466.595 1.5 1.578l.074 2.404c.018.485.07.963.314 1.316h2.772v-.109c-.483-.244-.555-.932-.572-2.246-.032-2.649-.303-3.594-2.036-3.82v-.039c1.435-.296 2.103-1.417 2.103-3.084M54.166 35.226V24.77h2.76v-2.066H48.85v2.066h2.765v10.455zM58.504 35.226h2.552V22.705h-2.552zM62.593 31.311v.504c0 2.319 1.135 3.652 4.017 3.652 2.767 0 4.393-1.196 4.393-3.84 0-1.523-.494-2.49-2.405-3.313l-1.97-.839c-1.08-.458-1.31-.934-1.31-1.7 0-.742.3-1.454 1.457-1.454.974 0 1.377.675 1.377 1.858h2.44v-.35c0-2.406-1.644-3.368-3.91-3.368-2.408 0-3.912 1.246-3.912 3.682 0 2.084 1.046 3.013 3.308 3.784 1.685.579 2.27 1.003 2.27 2.142 0 1.05-.745 1.536-1.523 1.536-1.35 0-1.683-.75-1.683-1.929v-.365h-2.549zM72.41 35.226h2.546V22.705H72.41zM83.186 31.277l-3.076-8.572h-2.943v12.52h2.335v-8.768h.033l3.116 8.769h2.907V22.705h-2.34v8.572zM91.763 28.47v1.857h1.683v1.286c0 1.35-.973 1.992-1.578 1.992-1.466 0-1.754-1.89-1.754-4.904 0-3.125.498-4.38 1.741-4.38 1.02 0 1.45 1.17 1.45 2.104h2.445c0-2.549-1.14-3.965-3.932-3.965-3.264 0-4.25 2.155-4.25 6.36 0 4.336.617 6.647 3.754 6.647 1.187 0 2.053-.42 2.657-1.402h.03v1.16h1.878v-6.754h-4.124zM4.593 53.733l3.796-9.55h.052l3.652 9.55h-7.5zM7.82 43.166L.966 60.048H2.09l2.166-5.415h8.172l2.15 5.415h1.121L8.966 43.166H7.82zM35.28 43.166l-4.366 15.768h-.05l-4.582-15.768h-1.314l-4.506 15.768h-.053l-4.441-15.768H14.89l4.919 16.882h1.168l4.61-15.98h.045l4.687 15.98h1.193l4.891-16.882zM38.652 53.733l3.8-9.55h.047l3.653 9.55h-7.5zm3.226-10.567l-6.852 16.882h1.122l2.172-5.415h8.17l2.143 5.415h1.124L43.03 43.166h-1.152zM52.934 51.468v-7.4H59c2.291 0 4.347.965 4.347 3.519 0 2.72-1.867 3.881-4.347 3.881h-6.065zm7.805.427v-.052c2.27-.375 3.656-2.055 3.656-4.323 0-3.261-2.416-4.354-5.396-4.354H51.88v16.882h1.053v-7.681H59c2.98 0 3.796 1.323 4.01 2.957.195 1.628-.193 3.562.45 4.724h1.172c-.692-.897-.404-2.79-.572-4.54-.17-1.746-.788-3.335-3.32-3.613zM72.781 59.151h-4.587V44.068h4.37c2.53 0 6.997.617 6.997 7.518 0 5.838-3.606 7.565-6.78 7.565m-.048-15.986h-5.588V60.05h5.538c5.469 0 7.926-3.688 7.926-8.463 0-4.283-1.789-8.42-7.876-8.42M89.908 51.017c-2.887-.59-5.803-1.04-5.803-3.76 0-2.784 2.746-3.596 4.673-3.596 3.158 0 5.357 1.444 5.47 4.332h1.056c-.168-3.714-2.966-5.223-6.526-5.223-2.691 0-5.726 1.247-5.726 4.488 0 3.21 2.913 3.9 5.802 4.492 2.915.588 5.826 1.089 5.826 3.948 0 2.93-2.892 3.85-4.941 3.85-3.366 0-6.353-1.395-6.137-5.077H82.55c-.047 4.346 3.206 5.979 7.19 5.979 2.599 0 5.99-1.254 5.99-4.752 0-3.36-2.906-4.093-5.821-4.681M0 18.547h95.4v-.281H0zM0 39.066h95.4v-.28H0z"/></g></svg>