<?xml version="1.0" encoding="utf-8"?>
<!-- Generator: Adobe Illustrator 23.0.1, SVG Export Plug-In . SVG Version: 6.00 Build 0)  -->
<svg version="1.1" id="Layer_1" xmlns="http://www.w3.org/2000/svg" xmlns:xlink="http://www.w3.org/1999/xlink"
	 viewBox="0 0 597.86 360" style="enable-background:new 0 0 597.86 360;" xml:space="preserve">
<title>Third &amp; Grove</title>
<g>
	<path class="st0" d="M337.57,216.23l-40.27-113.82h-43.87l30.44,88.66l-38.61,0l-1.82,7.99h43.05l4.03,11.87
		c6.57,19.71,2.76,34.34-6.78,46.21v0.42h73.97v-0.42C350.07,247.18,343.29,231.71,337.57,216.23z"/>
	<path class="st0" d="M234.94,139.19H190.8v118.38h-42.19V139.19h-44.35v-36.78h130.68V139.19z"/>
	<path class="st0" d="M458.24,244.68c-11.07,9.33-23.82,13.99-38.24,13.99c-10.05,0-19.67-1.78-28.85-5.35
		c-9.18-3.57-17.19-8.78-24.04-15.63c-6.85-6.85-12.31-15.22-16.39-25.13c-4.08-9.91-6.12-21.2-6.12-33.87
		c0-10.93,2.04-21.09,6.12-30.49c4.08-9.4,9.69-17.56,16.83-24.47c7.14-6.92,15.55-12.38,25.24-16.39
		c9.69-4.01,20.14-6.01,31.36-6.01c6.99,0,13.69,0.76,20.1,2.29c6.41,1.53,12.35,3.79,17.81,6.77c5.46,2.99,10.38,6.56,14.75,10.71
		c4.37,4.15,7.94,8.85,10.71,14.1l-31.69,24.26c-3.06-6.12-7.65-11.04-13.77-14.75c-6.12-3.72-12.6-5.57-19.45-5.57
		c-5.1,0-9.76,1.02-13.99,3.06c-4.23,2.04-7.87,4.88-10.93,8.52c-3.06,3.64-5.46,7.98-7.21,13s-2.62,10.53-2.62,16.5
		c0,6.12,0.87,11.66,2.62,16.61c1.75,4.95,4.19,9.22,7.32,12.78c3.13,3.57,6.88,6.34,11.25,8.31c4.37,1.97,9.25,2.95,14.64,2.95
		c12.38,0,23.31-5.1,32.78-15.3h-26.88v-30.59h63.81v82.6h-35.18V244.68z"/>
</g>
</svg>
