<?xml version="1.0" encoding="UTF-8" ?>
<svg viewBox="0 0 260 22" version="1.1" width="260" height="22" xmlns="http://www.w3.org/2000/svg" xmlns:xlink="http://www.w3.org/1999/xlink">
		<title>Third &amp; Grove</title>

    <g transform="matrix(0.423892,0,0,0.423892,-17.9603,-65.0845)">
        <path d="M281.29,189.5C283.38,195.78 282.17,200.44 279.13,204.22L279.13,204.36L302.7,204.36L302.7,204.22C300.27,201.05 298.11,196.12 296.28,191.19L283.45,154.93L269.47,154.93L279.17,183.17L266.87,183.17L266.29,185.72L280,185.72L281.29,189.5Z" style="fill-rule:nonzero;"/>
    </g>
    <g transform="matrix(0.423892,0,0,0.423892,-17.9603,-65.0845)">
        <path d="M340.57,155.06C344.28,160.18 346.03,163.22 346.03,170.36L346.1,182.63L322.84,154.92L305.65,154.92L305.65,155.06C308.89,159.51 310.44,162.07 310.44,168.21L310.44,188.98C310.44,196.06 308.75,199.16 304.98,204.15L304.98,204.29L317.99,204.29L317.99,204.15C314.42,199.16 312.6,195.79 312.6,189.05L312.4,164.3L346.05,204.49L348.21,204.22L348.21,170.17C348.21,163.29 349.96,160.26 353.54,155.07L353.54,154.93L340.59,154.93L340.59,155.06L340.57,155.06Z" style="fill-rule:nonzero;"/>
    </g>
    <g transform="matrix(0.423892,0,0,0.423892,-17.9603,-65.0845)">
        <path d="M378.51,154.6C369.42,154.6 364.29,154.87 357.9,154.87L357.9,155.01C359.72,160.28 360.66,162.92 360.66,170.22L360.66,189.01C360.66,196.24 359.72,199.08 357.9,204.22L357.9,204.36L378.51,204.36C397.98,204.36 409.23,195.37 409.23,179.42C409.23,163.39 397.38,154.6 378.51,154.6ZM379.12,202.46C378.58,202.46 376.9,202.26 374.94,201.92L374.94,157.04C376.62,156.7 377.77,156.5 378.51,156.5C390.57,156.3 393.87,164.34 393.87,180.36C393.87,194.35 391.38,202.8 379.12,202.46Z" style="fill-rule:nonzero;"/>
    </g>
    <g transform="matrix(0.423892,0,0,0.423892,-17.9603,-65.0845)">
        <path d="M42.37,166.22L57.13,166.22L57.13,205.1L71.17,205.1L71.17,166.22L85.86,166.22L85.86,153.98L42.37,153.98L42.37,166.22Z" style="fill-rule:nonzero;"/>
    </g>
    <g transform="matrix(0.423892,0,0,0.423892,-17.9603,-65.0845)">
        <path d="M122.15,205.1L136.19,205.1L136.19,153.98L122.15,153.98L122.15,172.85L105.01,172.85L105.01,153.98L90.97,153.98L90.97,205.1L105.01,205.1L105.01,185.09L122.15,185.09L122.15,205.1Z" style="fill-rule:nonzero;"/>
    </g>
    <g transform="matrix(0.423892,0,0,0.423892,-17.9603,-65.0845)">
        <rect x="144.97" y="153.98" width="14.04" height="51.12"/>
    </g>
    <g transform="matrix(0.423892,0,0,0.423892,-17.9603,-65.0845)">
        <path d="M181.83,189.41L187.09,189.41L196.09,205.11L211.93,205.11L201.13,186.32C203.44,184.69 205.23,182.59 206.53,180.02C207.83,177.45 208.47,174.68 208.47,171.7C208.47,169.54 208.04,167.39 207.17,165.25C206.31,163.12 205.12,161.22 203.6,159.56C202.09,157.9 200.28,156.56 198.17,155.53C196.06,154.5 193.75,153.98 191.26,153.98L167.79,153.98L167.79,205.1L181.83,205.1L181.83,189.41ZM181.83,166.22L190.33,166.22C191.19,166.22 192.06,166.69 192.92,167.62C193.78,168.56 194.21,169.91 194.21,171.69C194.21,173.42 193.84,174.76 193.1,175.72C192.35,176.68 191.55,177.16 190.69,177.16L181.84,177.16L181.84,166.22L181.83,166.22Z" style="fill-rule:nonzero;"/>
    </g>
    <g transform="matrix(0.423892,0,0,0.423892,-17.9603,-65.0845)">
        <path d="M246.63,203.27C249.8,202.05 252.51,200.32 254.77,198.09C257.03,195.86 258.77,193.17 259.99,190.03C261.21,186.89 261.83,183.37 261.83,179.48C261.83,175.98 261.28,172.68 260.17,169.58C259.07,166.48 257.44,163.78 255.27,161.48C253.11,159.18 250.42,157.35 247.21,156.01C243.99,154.67 240.27,153.99 236.05,153.99L216.39,153.99L216.39,205.11L236.05,205.11C239.94,205.1 243.46,204.49 246.63,203.27ZM230.43,166.22L236.05,166.22C237.83,166.22 239.43,166.54 240.87,167.19C242.31,167.84 243.52,168.74 244.5,169.89C245.49,171.04 246.24,172.43 246.77,174.07C247.3,175.7 247.56,177.5 247.56,179.47C247.56,181.39 247.31,183.17 246.8,184.8C246.3,186.43 245.55,187.85 244.57,189.05C243.59,190.25 242.37,191.19 240.93,191.86C239.49,192.53 237.86,192.87 236.03,192.87L230.41,192.87L230.41,166.22L230.43,166.22Z" style="fill-rule:nonzero;"/>
    </g>
    <g transform="matrix(0.423892,0,0,0.423892,-17.9603,-65.0845)">
        <path d="M441.67,187.96L450.53,187.96C447.41,191.32 443.81,193 439.73,193C437.95,193 436.35,192.68 434.91,192.03C433.47,191.38 432.23,190.47 431.2,189.29C430.17,188.12 429.36,186.71 428.79,185.08C428.21,183.45 427.92,181.62 427.92,179.61C427.92,177.64 428.21,175.83 428.79,174.17C429.37,172.51 430.16,171.09 431.17,169.89C432.18,168.69 433.38,167.75 434.77,167.08C436.16,166.41 437.7,166.07 439.38,166.07C441.64,166.07 443.77,166.68 445.79,167.91C447.8,169.13 449.32,170.75 450.32,172.77L460.76,164.78C459.85,163.05 458.67,161.5 457.23,160.14C455.79,158.77 454.17,157.6 452.37,156.61C450.57,155.63 448.61,154.88 446.5,154.38C444.39,153.88 442.18,153.63 439.88,153.63C436.18,153.63 432.74,154.29 429.55,155.61C426.36,156.93 423.58,158.73 421.23,161.01C418.88,163.29 417.03,165.98 415.69,169.08C414.35,172.18 413.67,175.52 413.67,179.12C413.67,183.3 414.34,187.02 415.69,190.28C417.03,193.55 418.83,196.3 421.09,198.56C423.35,200.82 425.99,202.53 429.01,203.71C432.03,204.89 435.2,205.47 438.51,205.47C443.26,205.47 447.46,203.93 451.11,200.86L451.11,205.11L462.7,205.11L462.7,177.89L441.67,177.89L441.67,187.96Z" style="fill-rule:nonzero;"/>
    </g>
    <g transform="matrix(0.423892,0,0,0.423892,-17.9603,-65.0845)">
        <path d="M507.53,180C508.83,177.43 509.48,174.66 509.48,171.68C509.48,169.52 509.05,167.37 508.18,165.23C507.32,163.1 506.13,161.2 504.62,159.54C503.11,157.88 501.3,156.54 499.18,155.51C497.07,154.48 494.76,153.96 492.27,153.96L468.8,153.96L468.8,205.08L482.84,205.08L482.84,189.38L488.1,189.38L497.1,205.08L512.94,205.08L502.14,186.29C504.43,184.67 506.23,182.57 507.53,180ZM494.1,175.72C493.35,176.68 492.55,177.16 491.69,177.16L482.83,177.16L482.83,166.22L491.33,166.22C492.19,166.22 493.06,166.69 493.92,167.62C494.78,168.56 495.22,169.91 495.22,171.69C495.22,173.41 494.84,174.76 494.1,175.72Z" style="fill-rule:nonzero;"/>
    </g>
    <g transform="matrix(0.423892,0,0,0.423892,-17.9603,-65.0845)">
        <path d="M557.63,161.82C555.37,159.37 552.66,157.41 549.49,155.92C546.32,154.43 542.79,153.69 538.91,153.69C535.12,153.69 531.63,154.4 528.44,155.81C525.25,157.23 522.49,159.12 520.16,161.5C517.83,163.88 516.02,166.62 514.73,169.74C513.43,172.86 512.78,176.1 512.78,179.46C512.78,182.77 513.4,185.99 514.65,189.11C515.9,192.23 517.65,195 519.91,197.43C522.17,199.85 524.88,201.81 528.05,203.3C531.22,204.79 534.75,205.53 538.63,205.53C542.42,205.53 545.91,204.81 549.11,203.37C552.3,201.93 555.05,200.02 557.35,197.65C559.65,195.27 561.45,192.54 562.75,189.44C564.05,186.35 564.69,183.12 564.69,179.76C564.69,176.5 564.08,173.3 562.86,170.18C561.62,167.05 559.88,164.27 557.63,161.82ZM549.74,184.43C549.28,186.06 548.59,187.52 547.65,188.79C546.72,190.06 545.5,191.09 544.01,191.89C542.52,192.68 540.77,193.08 538.76,193.08C536.74,193.08 535,192.7 533.54,191.93C532.08,191.16 530.86,190.15 529.9,188.9C528.94,187.65 528.22,186.22 527.74,184.62C527.26,183.01 527.02,181.34 527.02,179.62C527.02,177.94 527.25,176.3 527.7,174.69C528.15,173.08 528.86,171.64 529.82,170.37C530.78,169.1 531.99,168.08 533.46,167.31C534.92,166.54 536.66,166.16 538.68,166.16C540.65,166.16 542.36,166.53 543.83,167.28C545.3,168.02 546.52,169.01 547.5,170.23C548.48,171.45 549.21,172.87 549.7,174.48C550.18,176.09 550.42,177.76 550.42,179.49C550.43,181.14 550.2,182.8 549.74,184.43Z" style="fill-rule:nonzero;"/>
    </g>
    <g transform="matrix(0.423892,0,0,0.423892,-17.9603,-65.0845)">
        <path d="M588.18,187.45L578.17,153.97L563.34,153.97L582.35,205.09L594.01,205.09L612.8,153.97L598.04,153.97L588.18,187.45Z" style="fill-rule:nonzero;"/>
    </g>
    <g transform="matrix(0.423892,0,0,0.423892,-17.9603,-65.0845)">
        <path d="M631.23,184.79L649.81,184.79L649.81,173.41L631.23,173.41L631.23,166.21L652.98,166.21L652.98,153.97L617.19,153.97L617.19,205.09L653.62,205.09L653.62,192.85L631.23,192.85L631.23,184.79Z" style="fill-rule:nonzero;"/>
    </g>
</svg>
