<?xml version="1.0" encoding="utf-8"?>
<!-- Generator: Adobe Illustrator 23.0.1, SVG Export Plug-In . SVG Version: 6.00 Build 0)  -->
<svg version="1.1" id="Layer_1" xmlns="http://www.w3.org/2000/svg" xmlns:xlink="http://www.w3.org/1999/xlink" 
	 viewBox="0 0 695.91 360" style="enable-background:new 0 0 695.91 360;" xml:space="preserve">
<style type="text/css">
</style>
<path class="st0" d="M281.29,189.5c2.09,6.28,0.88,10.94-2.16,14.72v0.14h23.57v-0.14c-2.43-3.17-4.59-8.1-6.42-13.03l-12.83-36.26
	h-13.98l9.7,28.24h-12.3l-0.58,2.55H280L281.29,189.5z"/>
<path class="st0" d="M340.57,155.06c3.71,5.12,5.46,8.16,5.46,15.3l0.07,12.27l-23.26-27.71h-17.19v0.14
	c3.24,4.45,4.79,7.01,4.79,13.15v20.77c0,7.08-1.69,10.18-5.46,15.17v0.14h13.01v-0.14c-3.57-4.99-5.39-8.36-5.39-15.1l-0.2-24.75
	l33.65,40.19l2.16-0.27v-34.05c0-6.88,1.75-9.91,5.33-15.1v-0.14h-12.95V155.06z"/>
<path class="st0" d="M378.51,154.6c-9.09,0-14.22,0.27-20.61,0.27v0.14c1.82,5.27,2.76,7.91,2.76,15.21v18.79
	c0,7.23-0.94,10.07-2.76,15.21v0.14h20.61c19.47,0,30.72-8.99,30.72-24.94C409.23,163.39,397.38,154.6,378.51,154.6z M379.12,202.46
	c-0.54,0-2.22-0.2-4.18-0.54v-44.88c1.68-0.34,2.83-0.54,3.57-0.54c12.06-0.2,15.36,7.84,15.36,23.86
	C393.87,194.35,391.38,202.8,379.12,202.46z"/>
<g>
	<polygon class="st0" points="42.37,166.22 57.13,166.22 57.13,205.1 71.17,205.1 71.17,166.22 85.86,166.22 85.86,153.98 
		42.37,153.98 	"/>
	<polygon class="st0" points="122.15,205.1 136.19,205.1 136.19,153.98 122.15,153.98 122.15,172.85 105.01,172.85 105.01,153.98 
		90.97,153.98 90.97,205.1 105.01,205.1 105.01,185.09 122.15,185.09 	"/>
	<rect x="144.97" y="153.98" class="st0" width="14.04" height="51.12"/>
	<path class="st0" d="M181.83,189.41h5.26l9,15.7h15.84l-10.8-18.79c2.31-1.63,4.1-3.73,5.4-6.3c1.3-2.57,1.94-5.34,1.94-8.32
		c0-2.16-0.43-4.31-1.3-6.45c-0.86-2.13-2.05-4.03-3.57-5.69c-1.51-1.66-3.32-3-5.43-4.03c-2.11-1.03-4.42-1.55-6.91-1.55h-23.47
		v51.12h14.04V189.41z M181.83,166.22h8.5c0.86,0,1.73,0.47,2.59,1.4c0.86,0.94,1.29,2.29,1.29,4.07c0,1.73-0.37,3.07-1.11,4.03
		c-0.75,0.96-1.55,1.44-2.41,1.44h-8.85V166.22z"/>
	<path class="st0" d="M246.63,203.27c3.17-1.22,5.88-2.95,8.14-5.18c2.26-2.23,4-4.92,5.22-8.06c1.22-3.14,1.84-6.66,1.84-10.55
		c0-3.5-0.55-6.8-1.66-9.9c-1.1-3.1-2.73-5.8-4.9-8.1c-2.16-2.3-4.85-4.13-8.06-5.47c-3.22-1.34-6.94-2.02-11.16-2.02h-19.66v51.12
		h19.66C239.94,205.1,243.46,204.49,246.63,203.27z M230.43,166.22h5.62c1.78,0,3.38,0.32,4.82,0.97c1.44,0.65,2.65,1.55,3.63,2.7
		c0.99,1.15,1.74,2.54,2.27,4.18c0.53,1.63,0.79,3.43,0.79,5.4c0,1.92-0.25,3.7-0.76,5.33c-0.5,1.63-1.25,3.05-2.23,4.25
		c-0.98,1.2-2.2,2.14-3.64,2.81c-1.44,0.67-3.07,1.01-4.9,1.01h-5.62V166.22z"/>
</g>
<g>
	<path class="st0" d="M441.67,187.96h8.86c-3.12,3.36-6.72,5.04-10.8,5.04c-1.78,0-3.38-0.32-4.82-0.97s-2.68-1.56-3.71-2.74
		c-1.03-1.17-1.84-2.58-2.41-4.21c-0.58-1.63-0.87-3.46-0.87-5.47c0-1.97,0.29-3.78,0.87-5.44c0.58-1.66,1.37-3.08,2.38-4.28
		c1.01-1.2,2.21-2.14,3.6-2.81c1.39-0.67,2.93-1.01,4.61-1.01c2.26,0,4.39,0.61,6.41,1.84c2.01,1.22,3.53,2.84,4.53,4.86l10.44-7.99
		c-0.91-1.73-2.09-3.28-3.53-4.64c-1.44-1.37-3.06-2.54-4.86-3.53c-1.8-0.98-3.76-1.73-5.87-2.23c-2.11-0.5-4.32-0.75-6.62-0.75
		c-3.7,0-7.14,0.66-10.33,1.98c-3.19,1.32-5.97,3.12-8.32,5.4c-2.35,2.28-4.2,4.97-5.54,8.07c-1.34,3.1-2.02,6.44-2.02,10.04
		c0,4.18,0.67,7.9,2.02,11.16c1.34,3.27,3.14,6.02,5.4,8.28c2.26,2.26,4.9,3.97,7.92,5.15c3.02,1.18,6.19,1.76,9.5,1.76
		c4.75,0,8.95-1.54,12.6-4.61v4.25h11.59v-27.22h-21.03V187.96z"/>
	<path class="st0" d="M507.53,180c1.3-2.57,1.95-5.34,1.95-8.32c0-2.16-0.43-4.31-1.3-6.45c-0.86-2.13-2.05-4.03-3.56-5.69
		c-1.51-1.66-3.32-3-5.44-4.03c-2.11-1.03-4.42-1.55-6.91-1.55h-23.47v51.12h14.04v-15.7h5.26l9,15.7h15.84l-10.8-18.79
		C504.43,184.67,506.23,182.57,507.53,180z M494.1,175.72c-0.75,0.96-1.55,1.44-2.41,1.44h-8.86v-10.94h8.5
		c0.86,0,1.73,0.47,2.59,1.4c0.86,0.94,1.3,2.29,1.3,4.07C495.22,173.41,494.84,174.76,494.1,175.72z"/>
	<path class="st0" d="M557.63,161.82c-2.26-2.45-4.97-4.41-8.14-5.9c-3.17-1.49-6.7-2.23-10.58-2.23c-3.79,0-7.28,0.71-10.47,2.12
		c-3.19,1.42-5.95,3.31-8.28,5.69s-4.14,5.12-5.43,8.24c-1.3,3.12-1.95,6.36-1.95,9.72c0,3.31,0.62,6.53,1.87,9.65
		c1.25,3.12,3,5.89,5.26,8.32c2.26,2.42,4.97,4.38,8.14,5.87s6.7,2.23,10.58,2.23c3.79,0,7.28-0.72,10.48-2.16
		c3.19-1.44,5.94-3.35,8.24-5.72c2.3-2.38,4.1-5.11,5.4-8.21c1.3-3.09,1.94-6.32,1.94-9.68c0-3.26-0.61-6.46-1.83-9.58
		C561.62,167.05,559.88,164.27,557.63,161.82z M549.74,184.43c-0.46,1.63-1.15,3.09-2.09,4.36c-0.93,1.27-2.15,2.3-3.64,3.1
		c-1.49,0.79-3.24,1.19-5.25,1.19c-2.02,0-3.76-0.38-5.22-1.15c-1.46-0.77-2.68-1.78-3.64-3.03c-0.96-1.25-1.68-2.68-2.16-4.28
		c-0.48-1.61-0.72-3.28-0.72-5c0-1.68,0.23-3.32,0.68-4.93c0.45-1.61,1.16-3.05,2.12-4.32c0.96-1.27,2.17-2.29,3.64-3.06
		c1.46-0.77,3.2-1.15,5.22-1.15c1.97,0,3.68,0.37,5.15,1.12c1.47,0.74,2.69,1.73,3.67,2.95c0.98,1.22,1.71,2.64,2.2,4.25
		c0.48,1.61,0.72,3.28,0.72,5.01C550.43,181.14,550.2,182.8,549.74,184.43z"/>
	<polygon class="st0" points="588.18,187.45 578.17,153.97 563.34,153.97 582.35,205.09 594.01,205.09 612.8,153.97 598.04,153.97 	
		"/>
	<polygon class="st0" points="631.23,184.79 649.81,184.79 649.81,173.41 631.23,173.41 631.23,166.21 652.98,166.21 652.98,153.97 
		617.19,153.97 617.19,205.09 653.62,205.09 653.62,192.85 631.23,192.85 	"/>
</g>
</svg>
