<svg id="Livello_1" data-name="Livello 1" xmlns="http://www.w3.org/2000/svg" xmlns:xlink="http://www.w3.org/1999/xlink" width="287" height="126.3" viewBox="0 0 287 126.3">
  <defs>
    <clipPath id="clip-path" transform="translate(0 0.1)">
      <polygon points="109.8 94.5 109.8 31.5 54.9 0 0 31.5 0 94.7 54.9 126.2 109.8 94.5" fill="none"></polygon>
    </clipPath>
  </defs>
  <title>drupalcon</title>
  <g>
    <path d="M127.7,101.4a2.2,2.2,0,0,1,.9,1.9,2.5,2.5,0,0,1-.5,1.6,2.8,2.8,0,0,1-1.5.8,2.6,2.6,0,0,1,1.8.9,2.9,2.9,0,0,1,.7,1.8,2.8,2.8,0,0,1-1.1,2.2,4.5,4.5,0,0,1-2.8.7h-4.5V100.7h4.5A3.9,3.9,0,0,1,127.7,101.4Zm-.8,3.5a1.8,1.8,0,0,0,.6-1.4,1.7,1.7,0,0,0-.6-1.4,3,3,0,0,0-1.8-.5h-3.3v3.8h3.3A3,3,0,0,0,126.9,104.9Zm.3,4.9a1.6,1.6,0,0,0,.8-1.5,1.9,1.9,0,0,0-.8-1.5,4.1,4.1,0,0,0-2.1-.5h-3.3v4.1h3.3A3.3,3.3,0,0,0,127.2,109.8Z" transform="translate(0 0.1)" fill="#424242"></path>
    <path d="M136.8,104.5a5.1,5.1,0,0,1,.9,3.2H131a3,3,0,0,0,1,2,2.9,2.9,0,0,0,2.1.8,3.5,3.5,0,0,0,1.4-.3,2.6,2.6,0,0,0,1.1-.7l.6.5a3.3,3.3,0,0,1-1.4,1l-1.8.3a3.6,3.6,0,0,1-2.1-.5,3.8,3.8,0,0,1-1.4-1.4,4.6,4.6,0,0,1-.5-2.1,5.4,5.4,0,0,1,.5-2.1,3.8,3.8,0,0,1,3.5-1.9A3.5,3.5,0,0,1,136.8,104.5Zm0,2.4a3.1,3.1,0,0,0-.8-2,3,3,0,0,0-5,2Z" transform="translate(0 0.1)" fill="#424242"></path>
    <path d="M142.8,100.7h1.5v4.7h6.1v-4.7h1.5v10.6h-1.5v-4.6h-6.1v4.6h-1.5Z" transform="translate(0 0.1)" fill="#424242"></path>
    <path d="M161.3,103.3v8h-1.5v-1.7a3,3,0,0,1-2.9,1.8,2.7,2.7,0,0,1-2.2-.9,2.8,2.8,0,0,1-.8-2.3v-4.9h1.4v4.6a1.9,1.9,0,0,0,.6,1.5,1.8,1.8,0,0,0,1.5.6,2.5,2.5,0,0,0,1.8-.8,3.2,3.2,0,0,0,.6-2v-3.9Z" transform="translate(0 0.1)" fill="#424242"></path>
    <path d="M176,104.1a3.1,3.1,0,0,1,.8,2.2v5h-1.4v-4.6a2.1,2.1,0,0,0-.6-1.6,2,2,0,0,0-1.5-.6,2.5,2.5,0,0,0-1.8.8,2.9,2.9,0,0,0-.7,2v4h-1.4v-4.6a2.1,2.1,0,0,0-.6-1.6,1.8,1.8,0,0,0-1.5-.6,2.5,2.5,0,0,0-1.8.8,3.5,3.5,0,0,0-.7,2v4h-1.4v-8h1.4v1.6a3.2,3.2,0,0,1,3-1.7,3.6,3.6,0,0,1,1.9.5,3.1,3.1,0,0,1,1,1.5,3,3,0,0,1,3.1-2A2.8,2.8,0,0,1,176,104.1Z" transform="translate(0 0.1)" fill="#424242"></path>
    <path d="M183.6,111.3v-1.1a3.2,3.2,0,0,1-2.8,1.2,4,4,0,0,1-1.5-.3,3.8,3.8,0,0,1-.9-.9,2,2,0,0,1-.4-1.3,2.1,2.1,0,0,1,.8-1.7,4.8,4.8,0,0,1,2.3-.7h2.5v-.3a1.7,1.7,0,0,0-.5-1.3,2,2,0,0,0-1.5-.5,4,4,0,0,0-2.5.9l-.6-1a4.8,4.8,0,0,1,1.6-.8,4.7,4.7,0,0,1,1.7-.3,3.5,3.5,0,0,1,2.4.8,2.5,2.5,0,0,1,.8,2v5.3Zm-.8-1.6a2,2,0,0,0,.8-1.2v-.9h-2.3a2.8,2.8,0,0,0-1.5.3,1,1,0,0,0-.4.9,1.1,1.1,0,0,0,.4,1,2,2,0,0,0,1.3.4A3.1,3.1,0,0,0,182.8,109.7Z" transform="translate(0 0.1)" fill="#424242"></path>
    <path d="M193.6,104a3.2,3.2,0,0,1,.9,2.3v5H193v-4.6a2.5,2.5,0,0,0-.5-1.6,2.1,2.1,0,0,0-1.6-.5,2.8,2.8,0,0,0-1.8.6,2.9,2.9,0,0,0-.7,1.8v4.3h-1.5v-8h1.5V105a3.4,3.4,0,0,1,5.2-1Z" transform="translate(0 0.1)" fill="#424242"></path>
    <path d="M196.9,110.3c.2.1.2.2.2.5a1.1,1.1,0,0,1-.1.5l-.8,1.8h-.6l.6-1.8-.3-.2a.4.4,0,0,1-.1-.3.8.8,0,0,1,.2-.5c.1-.2.3-.2.5-.2S196.8,110.1,196.9,110.3Z" transform="translate(0 0.1)" fill="#424242"></path>
    <path d="M201,100.7h8.1v.9h-3.5v9.7h-1v-9.7H201Z" transform="translate(0 0.1)" fill="#424242"></path>
    <path d="M215.8,104.1a3.4,3.4,0,0,1,.8,2.3v4.9h-1.1v-4.6a2.4,2.4,0,0,0-.6-1.8,2.4,2.4,0,0,0-1.7-.7,3.4,3.4,0,0,0-2.1.9,3.6,3.6,0,0,0-.8,2.3v3.9h-1V100h1v5.2a3.3,3.3,0,0,1,3.2-1.9A3.4,3.4,0,0,1,215.8,104.1Z" transform="translate(0 0.1)" fill="#424242"></path>
    <path d="M219.7,100.5c.1.2.2.3.2.5a1.4,1.4,0,0,1-.2.6l-.5.2-.5-.2a1.4,1.4,0,0,1-.2-.6c0-.2.1-.3.2-.5l.5-.2Zm-1,2.8h1v8h-1Z" transform="translate(0 0.1)" fill="#424242"></path>
    <path d="M228.5,104.1a3.4,3.4,0,0,1,.8,2.3v4.9h-1v-4.6a2.1,2.1,0,0,0-.7-1.8,2.4,2.4,0,0,0-1.7-.7,2.7,2.7,0,0,0-2.8,2.8v4.3h-1v-8h1v1.9a3.3,3.3,0,0,1,1.2-1.4,3.8,3.8,0,0,1,1.9-.5A3.4,3.4,0,0,1,228.5,104.1Z" transform="translate(0 0.1)" fill="#424242"></path>
    <path d="M237.1,111.3l-2.8-4.1-1.8,1.8v2.3h-1V100h1v7.7l4.3-4.4H238l-3,3.1,3.4,4.9Z" transform="translate(0 0.1)" fill="#424242"></path>
    <path d="M250.2,101.3a5.5,5.5,0,0,1,2,2,5.6,5.6,0,0,1,0,5.4,5.2,5.2,0,0,1-2,1.9,5.7,5.7,0,0,1-2.9.7H243V100.7h4.4A6.4,6.4,0,0,1,250.2,101.3Zm-.8,8.2a5.4,5.4,0,0,0,1.5-1.5,4.2,4.2,0,0,0,.5-2,3.6,3.6,0,0,0-2-3.5,4.6,4.6,0,0,0-2-.5h-2.9v8h2.9A4.2,4.2,0,0,0,249.4,109.5Z" transform="translate(0 0.1)" fill="#424242"></path>
    <path d="M255.6,100.3a1.4,1.4,0,0,1,.2.7,1.4,1.4,0,0,1-.2.6.9.9,0,0,1-.7.3,1.1,1.1,0,0,1-.9-.9.9.9,0,0,1,.3-.7.9.9,0,0,1,.6-.3A.9.9,0,0,1,255.6,100.3Zm-1.4,3h1.4v8h-1.4Z" transform="translate(0 0.1)" fill="#424242"></path>
    <path d="M264.9,103.3v7.2a4.2,4.2,0,0,1-.5,2,2.9,2.9,0,0,1-1.4,1.3,4.2,4.2,0,0,1-2.2.5,5.7,5.7,0,0,1-3.3-1.1l.6-1,1.2.7,1.4.2a2.6,2.6,0,0,0,2.8-2.6v-1.1a2.5,2.5,0,0,1-1.2,1.1,3.1,3.1,0,0,1-1.7.4,2.9,2.9,0,0,1-3.1-1.8,3.5,3.5,0,0,1-.5-2,3.1,3.1,0,0,1,.5-2,3.3,3.3,0,0,1,1.2-1.4,4.1,4.1,0,0,1,1.9-.5,3.1,3.1,0,0,1,1.7.4,3.2,3.2,0,0,1,1.2,1.1v-1.4Zm-2.7,6.2a4.7,4.7,0,0,0,1-1,3.4,3.4,0,0,0,0-2.8,4.7,4.7,0,0,0-1-1,2.5,2.5,0,0,0-1.3-.3,2.8,2.8,0,0,0-1.3.3,2.8,2.8,0,0,0-.9,1,2.3,2.3,0,0,0-.4,1.4,2.6,2.6,0,0,0,.8,1.9,2.1,2.1,0,0,0,1.8.8A2.5,2.5,0,0,0,262.2,109.5Z" transform="translate(0 0.1)" fill="#424242"></path>
    <path d="M268.2,100.3a.9.9,0,0,1,.3.7.9.9,0,0,1-.3.6.7.7,0,0,1-.6.3.6.6,0,0,1-.6-.3.9.9,0,0,1-.3-.6.9.9,0,0,1,.3-.7.6.6,0,0,1,.6-.3A.7.7,0,0,1,268.2,100.3Zm-1.3,3h1.4v8h-1.4Z" transform="translate(0 0.1)" fill="#424242"></path>
    <path d="M274.8,110.8a3.5,3.5,0,0,1-1.9.6,2.1,2.1,0,0,1-1.6-.6,2.4,2.4,0,0,1-.6-1.7v-4.5h-1.1v-1.1h1.1v-2.1h1.5v2.1h2.4v1.1h-2.4v4.2a2.2,2.2,0,0,0,.2,1,.9.9,0,0,0,.7.3,3.8,3.8,0,0,0,1.3-.4Z" transform="translate(0 0.1)" fill="#424242"></path>
    <path d="M280.8,111.3v-1.1a3.2,3.2,0,0,1-2.8,1.2,3.3,3.3,0,0,1-1.5-.3l-1-.9a2.8,2.8,0,0,1-.3-1.3,2.1,2.1,0,0,1,.8-1.7,4.4,4.4,0,0,1,2.2-.7h2.6v-.3a1.7,1.7,0,0,0-.5-1.3,2.1,2.1,0,0,0-1.6-.5,4,4,0,0,0-2.4.9l-.6-1a4,4,0,0,1,1.6-.8,4.3,4.3,0,0,1,1.7-.3,3.6,3.6,0,0,1,2.4.8,2.5,2.5,0,0,1,.8,2v5.3Zm-.8-1.6a2,2,0,0,0,.8-1.2v-.9h-2.4a2.6,2.6,0,0,0-1.4.3,1.1,1.1,0,0,0-.5.9,1.1,1.1,0,0,0,.5,1,1.7,1.7,0,0,0,1.3.4A3.4,3.4,0,0,0,280,109.7Z" transform="translate(0 0.1)" fill="#424242"></path>
    <path d="M284.2,100h1.4v11.3h-1.4Z" transform="translate(0 0.1)" fill="#424242"></path>
  </g>
  <g clip-path="url(#clip-path)">
    <g>
      <g>
        <polygon points="21.9 19 21.9 31.6 32.9 25.3 21.9 19" fill="#1f867d"></polygon>
        <polygon points="21.9 31.6 21.9 19 11 25.3 21.9 31.6" fill="#7dc7c8"></polygon>
      </g>
      <g>
        <polygon points="21.9 31.6 21.9 44.3 32.9 37.9 21.9 31.6" fill="#27a568"></polygon>
        <polygon points="21.9 44.3 21.9 31.6 11 37.9 21.9 44.3" fill="#7fbb4f"></polygon>
      </g>
      <g>
        <polygon points="21.9 44.3 21.9 56.9 32.9 50.6 21.9 44.3" fill="#72b52b"></polygon>
        <polygon points="21.9 56.9 21.9 44.3 11 50.6 21.9 56.9" fill="#b6d27c"></polygon>
      </g>
      <g>
        <polygon points="21.9 56.9 21.9 69.5 32.9 63.2 21.9 56.9" fill="#30b9d0"></polygon>
        <polygon points="21.9 69.5 21.9 56.9 11 63.2 21.9 69.5" fill="#44ac4a"></polygon>
      </g>
      <g>
        <polygon points="21.9 69.5 21.9 82.1 32.9 75.8 21.9 69.5" fill="#597bb7"></polygon>
        <polygon points="21.9 82.1 21.9 69.5 11 75.8 21.9 82.1" fill="#346d48"></polygon>
      </g>
      <g>
        <polygon points="21.9 82.1 21.9 94.8 32.9 88.4 21.9 82.1" fill="#1d9cd8"></polygon>
        <polygon points="21.9 94.8 21.9 82.1 11 88.5 21.9 94.8" fill="#223870"></polygon>
      </g>
      <g>
        <polygon points="21.9 94.8 21.9 107.4 32.9 101.1 21.9 94.8" fill="#1e75ba"></polygon>
        <polygon points="21.9 107.4 21.9 94.8 11 101.1 21.9 107.4" fill="#248da9"></polygon>
      </g>
      <line x1="43.9" y1="6.3" x2="54.9" fill="#597bb7"></line>
      <g>
        <polygon points="43.9 6.3 43.9 19 54.9 12.6 43.9 6.3" fill="#22519f"></polygon>
        <polygon points="43.9 19 43.9 6.3 32.9 12.7 43.9 19" fill="#146080"></polygon>
      </g>
      <g>
        <polygon points="43.9 19 43.9 31.6 54.9 25.3 43.9 19" fill="#22519f"></polygon>
        <polygon points="43.9 31.6 43.9 19 32.9 25.3 43.9 31.6" fill="#6bc5d6"></polygon>
      </g>
      <g>
        <polygon points="43.9 31.6 43.9 44.2 54.9 37.9 43.9 31.6" fill="#1c4487"></polygon>
        <polygon points="43.9 44.2 43.9 31.6 32.9 37.9 43.9 44.2" fill="#248da9"></polygon>
      </g>
      <g>
        <polygon points="43.9 44.2 43.9 56.9 54.9 50.5 43.9 44.2" fill="#166495"></polygon>
        <polygon points="43.9 56.9 43.9 44.2 32.9 50.6 43.9 56.9" fill="#222d58"></polygon>
      </g>
      <g>
        <polygon points="43.9 56.9 43.9 69.5 54.9 63.2 43.9 56.9" fill="#186a9a"></polygon>
        <polygon points="43.9 69.5 43.9 56.9 32.9 63.2 43.9 69.5" fill="#8ec6e8"></polygon>
      </g>
      <g>
        <polygon points="43.9 69.5 43.9 82.1 54.9 75.8 43.9 69.5" fill="#597bb7"></polygon>
        <polygon points="43.9 82.1 43.9 69.5 32.9 75.8 43.9 82.1" fill="#29327a"></polygon>
      </g>
      <g>
        <polygon points="43.9 82.1 43.9 94.7 54.9 88.4 43.9 82.1" fill="#597bb7"></polygon>
        <polygon points="43.9 94.7 43.9 82.1 32.9 88.4 43.9 94.7" fill="#22519f"></polygon>
      </g>
      <g>
        <polygon points="43.9 94.7 43.9 107.4 54.9 101.1 43.9 94.7" fill="#28afac"></polygon>
        <polygon points="43.9 107.4 43.9 94.7 32.9 101.1 43.9 107.4" fill="#1c4487"></polygon>
      </g>
      <g>
        <polygon points="43.9 107.4 43.9 120 54.9 113.7 43.9 107.4" fill="#49babb"></polygon>
        <polygon points="43.9 120 43.9 107.4 32.9 113.7 43.9 120" fill="#83bddb"></polygon>
      </g>
      <polygon points="0 31.6 0 44.3 11 37.9 0 31.6" fill="#2cb3a8"></polygon>
      <polygon points="0 44.3 0 56.9 11 50.6 0 44.3" fill="#7dc7c8"></polygon>
      <polygon points="0 56.9 0 69.5 11 63.2 0 56.9" fill="#1066af"></polygon>
      <polygon points="0 69.5 0 82.2 11 75.8 0 69.5" fill="#90b423"></polygon>
      <polygon points="0 82.2 0 94.8 11 88.5 0 82.2" fill="#00b3bd"></polygon>
      <polygon points="109.8 44.2 109.8 31.5 98.8 37.9 109.8 44.2" fill="#da2c87"></polygon>
      <polygon points="109.8 56.8 109.8 44.2 98.8 50.5 109.8 56.8" fill="#d51c5f"></polygon>
      <polygon points="109.8 69.4 109.8 56.8 98.8 63.1 109.8 69.4" fill="#f29870"></polygon>
      <polygon points="109.8 82.1 109.8 69.4 98.8 75.8 109.8 82.1" fill="#e95427"></polygon>
      <polygon points="109.8 94.7 109.8 82.1 98.8 88.4 109.8 94.7" fill="#d44628"></polygon>
      <line x1="54.9" x2="65.9" y2="6.3" fill="#222d58"></line>
      <g>
        <polygon points="65.9 6.3 65.9 19 76.9 12.6 65.9 6.3" fill="#522776"></polygon>
        <polygon points="65.9 19 65.9 6.3 54.9 12.7 65.9 19" fill="#342d86"></polygon>
      </g>
      <g>
        <polygon points="65.9 19 65.9 31.6 76.9 25.3 65.9 19" fill="#342d86"></polygon>
        <polygon points="65.9 31.6 65.9 19 54.9 25.3 65.9 31.6" fill="#1c80b5"></polygon>
      </g>
      <g>
        <polygon points="65.9 31.6 65.9 44.2 76.9 37.9 65.9 31.6" fill="#597bb7"></polygon>
        <polygon points="65.9 44.2 65.9 31.6 54.9 37.9 65.9 44.2" fill="#1c80b5"></polygon>
      </g>
      <g>
        <polygon points="65.9 44.2 65.9 56.9 76.9 50.5 65.9 44.2" fill="#597bb7"></polygon>
        <polygon points="65.9 56.9 65.9 44.2 54.9 50.6 65.9 56.9" fill="#1c6c99"></polygon>
      </g>
      <g>
        <polygon points="65.9 56.9 65.9 69.5 76.9 63.2 65.9 56.9" fill="#2fa5de"></polygon>
        <polygon points="65.9 69.5 65.9 56.9 54.9 63.2 65.9 69.5" fill="#146080"></polygon>
      </g>
      <g>
        <polygon points="65.9 69.5 65.9 82.1 76.9 75.8 65.9 69.5" fill="#597bb7"></polygon>
        <polygon points="65.9 82.1 65.9 69.5 54.9 75.8 65.9 82.1" fill="#bad9ed"></polygon>
      </g>
      <g>
        <polygon points="65.9 82.1 65.9 94.7 76.9 88.4 65.9 82.1" fill="#597bb7"></polygon>
        <polygon points="65.9 94.7 65.9 82.1 54.9 88.4 65.9 94.7" fill="#222d58"></polygon>
      </g>
      <g>
        <polygon points="65.9 94.7 65.9 107.4 76.9 101 65.9 94.7" fill="#0771b7"></polygon>
        <polygon points="65.9 107.4 65.9 94.7 54.9 101.1 65.9 107.4" fill="#006bb1"></polygon>
      </g>
      <g>
        <polygon points="65.9 107.4 65.9 120 76.9 113.7 65.9 107.4" fill="#3d768b"></polygon>
        <polygon points="65.9 120 65.9 107.4 54.9 113.7 65.9 120" fill="#08547a"></polygon>
      </g>
      <g>
        <polygon points="87.9 18.9 87.9 31.6 98.8 25.2 87.9 18.9" fill="#e2adcf"></polygon>
        <polygon points="87.8 31.6 87.8 18.9 76.9 25.3 87.8 31.6" fill="#d37bb0"></polygon>
      </g>
      <g>
        <polygon points="87.9 31.6 87.9 44.2 98.8 37.9 87.9 31.6" fill="#d44628"></polygon>
        <polygon points="87.8 44.2 87.8 31.6 76.9 37.9 87.8 44.2" fill="#e5286f"></polygon>
      </g>
      <g>
        <polygon points="87.9 44.2 87.9 56.8 98.8 50.5 87.9 44.2" fill="#f39f89"></polygon>
        <polygon points="87.8 56.8 87.8 44.2 76.9 50.5 87.8 56.8" fill="#ad2c86"></polygon>
      </g>
      <g>
        <polygon points="87.9 56.8 87.9 69.5 98.8 63.1 87.9 56.8" fill="#d37bb0"></polygon>
        <polygon points="87.8 69.5 87.8 56.8 76.9 63.2 87.8 69.5" fill="#343389"></polygon>
      </g>
      <g>
        <polygon points="87.9 69.5 87.9 82.1 98.8 75.8 87.9 69.5" fill="#e94c80"></polygon>
        <polygon points="87.8 82.1 87.8 69.5 76.9 75.8 87.8 82.1" fill="#59337c"></polygon>
      </g>
      <g>
        <polygon points="87.9 82.1 87.9 94.7 98.8 88.4 87.9 82.1" fill="#c24c95"></polygon>
        <polygon points="87.8 94.7 87.8 82.1 76.9 88.4 87.8 94.7" fill="#ab2885"></polygon>
      </g>
      <g>
        <polygon points="87.9 94.7 87.9 107.4 98.8 101 87.9 94.7" fill="#c3569a"></polygon>
        <polygon points="87.8 107.4 87.8 94.7 76.9 101 87.8 107.4" fill="#7c4c98"></polygon>
      </g>
      <g>
        <polygon points="32.9 12.7 32.9 25.3 43.9 19 32.9 12.7" fill="#7fbb4f"></polygon>
        <polygon points="32.9 25.3 32.9 12.7 22 19 32.9 25.3" fill="#44ac4a"></polygon>
      </g>
      <g>
        <polygon points="32.9 25.3 32.9 37.9 43.9 31.6 32.9 25.3" fill="#146080"></polygon>
        <polygon points="32.9 37.9 32.9 25.3 22 31.6 32.9 37.9" fill="#1f867d"></polygon>
      </g>
      <g>
        <polygon points="32.9 37.9 32.9 50.6 43.9 44.2 32.9 37.9" fill="#597bb7"></polygon>
        <polygon points="32.9 50.6 32.9 37.9 22 44.3 32.9 50.6" fill="#cad420"></polygon>
      </g>
      <g>
        <polygon points="32.9 50.6 32.9 63.2 43.9 56.9 32.9 50.6" fill="#dfebf4"></polygon>
        <polygon points="32.9 63.2 32.9 50.6 22 56.9 32.9 63.2" fill="#248da9"></polygon>
      </g>
      <g>
        <polygon points="32.9 63.2 32.9 75.8 43.9 69.5 32.9 63.2" fill="#1c80b5"></polygon>
        <polygon points="32.9 75.8 32.9 63.2 22 69.5 32.9 75.8" fill="#28afac"></polygon>
      </g>
      <g>
        <polygon points="32.9 75.8 32.9 88.4 43.9 82.1 32.9 75.8" fill="#28abc8"></polygon>
        <polygon points="32.9 88.4 32.9 75.8 22 82.1 32.9 88.4" fill="#248da9"></polygon>
      </g>
      <g>
        <polygon points="32.9 88.4 32.9 101.1 43.9 94.7 32.9 88.4" fill="#597bb7"></polygon>
        <polygon points="32.9 101.1 32.9 88.4 22 94.8 32.9 101.1" fill="#222d58"></polygon>
      </g>
      <g>
        <polygon points="32.9 101.1 32.9 113.7 43.9 107.4 32.9 101.1" fill="#a7cddf"></polygon>
        <polygon points="32.9 113.7 32.9 101.1 22 107.4 32.9 113.7" fill="#95c4de"></polygon>
      </g>
      <g>
        <path d="M54.9-.1" transform="translate(0 0.1)" fill="#597bb7"></path>
        <path d="M54.9-.1" transform="translate(0 0.1)" fill="#222d58"></path>
      </g>
      <g>
        <polygon points="54.9 0 54.9 12.6 65.9 6.3 54.9 0" fill="#2757a3"></polygon>
        <polygon points="54.9 12.6 54.9 0 43.9 6.3 54.9 12.6" fill="#2175ba"></polygon>
      </g>
      <g>
        <polygon points="54.9 12.6 54.9 25.3 65.9 18.9 54.9 12.6" fill="#223870"></polygon>
        <polygon points="54.9 25.3 54.9 12.6 43.9 19 54.9 25.3" fill="#222d58"></polygon>
      </g>
      <g>
        <polygon points="54.9 25.3 54.9 37.9 65.9 31.6 54.9 25.3" fill="#29327a"></polygon>
        <polygon points="54.9 37.9 54.9 25.3 43.9 31.6 54.9 37.9" fill="#1b3f80"></polygon>
      </g>
      <g>
        <polygon points="54.9 37.9 54.9 50.5 65.9 44.2 54.9 37.9" fill="#1d7ebc"></polygon>
        <polygon points="54.9 50.5 54.9 37.9 43.9 44.2 54.9 50.5" fill="#1d9cd8"></polygon>
      </g>
      <g>
        <polygon points="54.9 50.5 54.9 63.2 65.9 56.8 54.9 50.5" fill="#6398ad"></polygon>
        <polygon points="54.9 63.2 54.9 50.5 43.9 56.9 54.9 63.2" fill="#bed5e7"></polygon>
      </g>
      <g>
        <polygon points="54.9 63.2 54.9 75.8 65.9 69.5 54.9 63.2" fill="#22519f"></polygon>
        <polygon points="54.9 75.8 54.9 63.2 43.9 69.5 54.9 75.8" fill="#1a77aa"></polygon>
      </g>
      <g>
        <polygon points="54.9 75.8 54.9 88.4 65.9 82.1 54.9 75.8" fill="#0572b6"></polygon>
        <polygon points="54.9 88.4 54.9 75.8 43.9 82.1 54.9 88.4" fill="#2a3276"></polygon>
      </g>
      <g>
        <polygon points="54.9 88.4 54.9 101.1 65.9 94.7 54.9 88.4" fill="#3d768b"></polygon>
        <polygon points="54.9 101.1 54.9 88.4 43.9 94.7 54.9 101.1" fill="#155384"></polygon>
      </g>
      <g>
        <polygon points="54.9 101.1 54.9 113.7 65.9 107.4 54.9 101.1" fill="#223870"></polygon>
        <polygon points="54.9 113.7 54.9 101.1 43.9 107.4 54.9 113.7" fill="#28abc8"></polygon>
      </g>
      <g>
        <polygon points="54.9 113.7 54.9 126.3 65.9 120 54.9 113.7" fill="#b0c1e0"></polygon>
        <polygon points="54.9 126.3 54.9 113.7 43.9 120 54.9 126.3" fill="#0771b7"></polygon>
      </g>
      <g>
        <polygon points="11 25.3 11 37.9 22 31.6 11 25.3" fill="#b8dcd4"></polygon>
        <polygon points="11 37.9 11 25.3 0 31.6 11 37.9" fill="#72c2b4"></polygon>
      </g>
      <g>
        <polygon points="11 37.9 11 50.6 22 44.2 11 37.9" fill="#8dced5"></polygon>
        <polygon points="11 50.6 11 37.9 0 44.3 11 50.6" fill="#28a997"></polygon>
      </g>
      <g>
        <polygon points="11 50.6 11 63.2 22 56.9 11 50.6" fill="#7fbb4f"></polygon>
        <polygon points="11 63.2 11 50.6 0 56.9 11 63.2" fill="#30b9d0"></polygon>
      </g>
      <g>
        <polygon points="11 63.2 11 75.8 22 69.5 11 63.2" fill="#27a568"></polygon>
        <polygon points="11 75.8 11 63.2 0 69.5 11 75.8" fill="#1f867d"></polygon>
      </g>
      <g>
        <polygon points="11 75.8 11 88.5 22 82.1 11 75.8" fill="#146080"></polygon>
        <polygon points="11 88.5 11 75.8 0 82.2 11 88.5" fill="#187145"></polygon>
      </g>
      <g>
        <polygon points="11 88.5 11 101.1 22 94.8 11 88.5" fill="#1f867d"></polygon>
        <polygon points="11 101.1 11 88.5 0 94.8 11 101.1" fill="#24573c"></polygon>
      </g>
      <g>
        <polygon points="76.9 12.6 76.9 25.3 87.8 18.9 76.9 12.6" fill="#b1378b"></polygon>
        <polygon points="76.9 25.3 76.9 12.6 65.9 19 76.9 25.3" fill="#a0257f"></polygon>
      </g>
      <g>
        <polygon points="76.9 25.3 76.9 37.9 87.8 31.6 76.9 25.3" fill="#ec80a8"></polygon>
        <polygon points="76.9 37.9 76.9 25.3 65.9 31.6 76.9 37.9" fill="#4e3b8e"></polygon>
      </g>
      <g>
        <polygon points="76.9 37.9 76.9 50.5 87.8 44.2 76.9 37.9" fill="#a0257f"></polygon>
        <polygon points="76.9 50.5 76.9 37.9 65.9 44.2 76.9 50.5" fill="#006bb1"></polygon>
      </g>
      <g>
        <polygon points="76.9 50.5 76.9 63.2 87.8 56.8 76.9 50.5" fill="#81358a"></polygon>
        <polygon points="76.9 63.2 76.9 50.5 65.9 56.9 76.9 63.2" fill="#3c2871"></polygon>
      </g>
      <g>
        <polygon points="76.9 63.2 76.9 75.8 87.8 69.5 76.9 63.2" fill="#8b79a4"></polygon>
        <polygon points="76.9 75.8 76.9 63.2 65.9 69.5 76.9 75.8" fill="#1a77aa"></polygon>
      </g>
      <g>
        <polygon points="76.9 75.8 76.9 88.4 87.8 82.1 76.9 75.8" fill="#6b3e90"></polygon>
        <polygon points="76.9 88.4 76.9 75.8 65.9 82.1 76.9 88.4" fill="#4f2f87"></polygon>
      </g>
      <g>
        <polygon points="76.9 88.4 76.9 101 87.8 94.7 76.9 88.4" fill="#1066af"></polygon>
        <polygon points="76.9 101 76.9 88.4 65.9 94.7 76.9 101" fill="#7f5aa1"></polygon>
      </g>
      <g>
        <polygon points="76.9 101 76.9 113.7 87.8 107.3 76.9 101" fill="#4d4d9b"></polygon>
        <polygon points="76.9 113.7 76.9 101 65.9 107.4 76.9 113.7" fill="#4e5f98"></polygon>
      </g>
      <g>
        <polygon points="98.8 25.2 98.8 37.9 109.8 31.5 98.8 25.2" fill="#e01582"></polygon>
        <polygon points="98.8 37.9 98.8 25.2 87.9 31.6 98.8 37.9" fill="#d51c5f"></polygon>
      </g>
      <g>
        <polygon points="98.8 37.9 98.8 50.5 109.8 44.2 98.8 37.9" fill="#e8417b"></polygon>
        <polygon points="98.8 50.5 98.8 37.9 87.9 44.2 98.8 50.5" fill="#ec6c23"></polygon>
      </g>
      <g>
        <polygon points="98.8 50.5 98.8 63.1 109.8 56.8 98.8 50.5" fill="#f5a761"></polygon>
        <polygon points="98.8 63.1 98.8 50.5 87.9 56.8 98.8 63.1" fill="#f8b332"></polygon>
      </g>
      <g>
        <polygon points="98.8 63.1 98.8 75.8 109.8 69.4 98.8 63.1" fill="#f5a761"></polygon>
        <polygon points="98.8 75.8 98.8 63.1 87.9 69.5 98.8 75.8" fill="#cc93b3"></polygon>
      </g>
      <g>
        <polygon points="98.8 75.8 98.8 88.4 109.8 82.1 98.8 75.8" fill="#ef8122"></polygon>
        <polygon points="98.8 88.4 98.8 75.8 87.9 82.1 98.8 88.4" fill="#ec80a8"></polygon>
      </g>
      <g>
        <polygon points="98.8 88.4 98.8 101 109.8 94.7 98.8 88.4" fill="#e15929"></polygon>
        <polygon points="98.8 101 98.8 88.4 87.9 94.7 98.8 101" fill="#e22b4b"></polygon>
      </g>
    </g>
  </g>
  <rect x="118.8" y="93.3" width="56.3" height="1.37" fill="#08547a"></rect>
  <rect x="184" y="93.3" width="103" height="1.42" fill="#08547a"></rect>
  <path d="M120.9,66.4h-2.2v-4h9.9c7.5,0,12.4,4.7,12.4,12.8S136.1,88,128.6,88h-5.3c-1.7,0-2.4-.7-2.4-2.4ZM126.2,84h2.2c4.8,0,7.9-3,7.9-8.8s-3.1-8.8-7.9-8.8h-3V83.3C125.4,83.8,125.7,84,126.2,84Z" transform="translate(0 0.1)" fill="#08547a"></path>
  <path d="M187.5,69.2c-4.3,0-5.8,2.9-5.8,2.9h-.1v-.7c0-1-.6-1.8-2.3-1.8h-4v3.9h1.4a.7.7,0,0,1,.8.8V95.1H182V86h0a6.4,6.4,0,0,0,5.3,2.4c4.8,0,8.4-3.8,8.4-9.6S192.5,69.2,187.5,69.2Zm-1.1,15.3c-3,0-4.5-2.8-4.5-5.6s2.2-5.8,4.6-5.8,4.6,2.3,4.6,5.8S188.9,84.5,186.4,84.5Z" transform="translate(0 0.1)" fill="#08547a"></path>
  <path d="M211.6,83.3V76.5c0-4.1-1.7-7.3-7.8-7.3-1.9,0-6.8.4-6.8,3.8v1.9h4.3V74c0-1.1,1.6-1.3,2.4-1.3,2.3,0,3.4,1,3.4,3.6v.2h-.6c-3,0-10.9.4-10.9,6.2,0,3.6,3,5.7,6.3,5.7a5.9,5.9,0,0,0,5.5-3.3h.1a3.8,3.8,0,0,0-.1.8c0,1.1.7,2,2.4,2h4.1V84.1h-1.5A.7.7,0,0,1,211.6,83.3ZM207.2,80c0,2.2-1.8,4.8-4.2,4.8s-2.8-1.1-2.8-2.4,3.8-2.8,6.2-2.8h.8Z" transform="translate(0 0.1)" fill="#08547a"></path>
  <path d="M219.8,83.3V64.9c0-1.7-.7-2.4-2.4-2.4H213v3.8h1.5a.7.7,0,0,1,.8.8V85.5c0,1.7.7,2.4,2.4,2.4H222V84.1h-1.4A.7.7,0,0,1,219.8,83.3Z" transform="translate(0 0.1)" fill="#08547a"></path>
  <path d="M234.9,84c-4.6,0-8.3-4-8.3-9s3.6-8.6,8.2-8.6c2.2,0,5.2.9,5.2,2.7v1.5h4.3V67.7c0-4.3-6.4-5.7-9.6-5.7a12.6,12.6,0,0,0-12.9,13c0,7.5,5.3,13.4,13,13.4A14.1,14.1,0,0,0,245.1,84l-2.5-3.4A10.8,10.8,0,0,1,234.9,84Z" transform="translate(0 0.1)" fill="#e22b4b"></path>
  <path d="M255.1,69.2c-5.6,0-10,4-10,9.6s4.4,9.6,10,9.6,10-4,10-9.6S260.7,69.2,255.1,69.2Zm0,15.3a5.7,5.7,0,1,1,5.5-5.7A5.5,5.5,0,0,1,255.1,84.5Z" transform="translate(0 0.1)" fill="#e22b4b"></path>
  <path d="M285.1,84.1a.7.7,0,0,1-.8-.8V76.2c0-4.9-2.3-7-6.4-7a7,7,0,0,0-6.4,3.8h-.1a3.8,3.8,0,0,0,.1-.8v-.5c0-1.3-.8-2.1-2.4-2.1h-4.2v3.9h1.4a.7.7,0,0,1,.8.8V87.9h4.5V79.5a6.7,6.7,0,0,1,.4-2.4,5,5,0,0,1,4.9-3.7c2.3,0,2.9,1.5,2.9,3.7v8.4c0,1.7.7,2.4,2.4,2.4h4.3V84.1Z" transform="translate(0 0.1)" fill="#e22b4b"></path>
  <path d="M174.5,84.1a.7.7,0,0,1-.8-.8V69.6h-4.5V78c0,3.3-1.8,6.2-5.1,6.2s-2.9-1.5-2.9-3.7V72.1c0-1.5-.5-2.2-1.8-2.4h-5.9a6.2,6.2,0,0,0-4.1,2.2,11.3,11.3,0,0,0-1.1,2.2h-.1a6.8,6.8,0,0,0,.1-1.2v-1c0-1.6-.8-2.3-2.4-2.3h-4.2v1.3a17.2,17.2,0,0,1,.5,2.6h1c.5,0,.7.3.7.8V87.9h4.6V80.7a9.5,9.5,0,0,1,.4-3,3.1,3.1,0,0,1,.6-1.3h0a6.2,6.2,0,0,1,5.5-2.9h.9a.7.7,0,0,1,.8.8v7.1c0,5,2.4,7,6.3,7a6.8,6.8,0,0,0,6.3-3.8h.1v1.3c0,1.3.8,2,2.4,2H176V84.1Z" transform="translate(0 0.1)" fill="#08547a"></path>
  <path d="M68,36.2c-5.8-5.9-11.4-11.4-13-17.7-1.7,6.3-7.2,11.8-13.1,17.7-8.7,8.7-18.6,18.6-18.6,33.4a31.7,31.7,0,1,0,63.3,0C86.6,54.8,76.7,44.9,68,36.2ZM39.6,72.5a22.8,22.8,0,0,0-2.5,3.9l-.5.5h-.3c-.7-.1-1.5-1.4-1.5-1.4h0l-.6-1-.2-.3C32.2,70,33.8,64,33.8,64h0a25.3,25.3,0,0,1,3.7-8.1A45.8,45.8,0,0,1,41,51.4l1.5,1.5,7.1,7.2a.8.8,0,0,1,0,1.1l-7.4,8.2h0ZM55.3,93.2A10.9,10.9,0,0,1,45,85.8,11.2,11.2,0,0,1,47.2,75c2.3-2.8,5.2-5.5,8.2-9,3.7,3.9,6,6.5,8.4,9.5a4.3,4.3,0,0,1,.4.7,10.2,10.2,0,0,1,2,6.2A10.8,10.8,0,0,1,55.3,93.2ZM75.9,75.8h0a1.3,1.3,0,0,1-1,.9h-.2a1.7,1.7,0,0,1-1-.8h0a47.6,47.6,0,0,0-6.5-8l-2.9-3.1-9.6-9.9a78.7,78.7,0,0,1-5.7-6c-.1,0-.1-.1-.2-.2a5.5,5.5,0,0,1-.8-1.5v-.3a5.3,5.3,0,0,1,.4-2.9,3.3,3.3,0,0,1,1.1-1.5c1.8-1.9,3.7-3.8,5.5-5.8,1.9,2.2,4,4.3,6.1,6.4h0c4.1,4.1,8.3,8.3,11.3,12.9s4.5,8.9,4.5,13.6A21.2,21.2,0,0,1,75.9,75.8Z" transform="translate(0 0.1)" fill="#fff"></path>
</svg>
