<svg xmlns="http://www.w3.org/2000/svg" height="81.852" width="250" viewBox="0 0 250 81.851547">
 <path fill="#2774ae" d="m1.0742 57.591c-0.3057-2.604-0.15849-6.398-0.15849-8.3l3.9744-44.782h14.607l-3.9749 45.178c-0.84923 9.8059 2.978 16.747 12.761 16.747 9.9304 0 15.207-7.0202 16.045-15.716l4.2121-46.21h14.675l-4.0536 45.587c-1.675 17.607-13.293 30.719-32.101 30.719-14.675 0-24.153-9.466-25.986-23.223m68.096-15.162c1.914-21.48 16.442-39.336 41.43-39.336 6.6467 0 12.988 1.506 19.272 5.6162l-1.6874 17.766c-5.7295-7.6657-12.614-8.8434-18.955-8.8434-15.592 0-24.152 10.825-25.375 24.492-1.155 13.418 5.7295 24.242 20.869 24.242 6.5787 0 13.531-1.9022 20.869-9.2397l-1.6079 18.241c-7.1109 3.8725-13.758 5.605-20.405 5.605-24.854 0-36.233-18.411-34.412-38.544m72.47-37.921h14.595l-5.3558 60.817h20.948c1.5286 0 6.4994-0.06793 7.8696-0.06793-0.0679 0.71335-1.3701 13.973-1.3701 13.973h-43.345l6.658-74.722m79.953-3.3855h-1.0644l-40.05 78.118h15.592l5.571-11.855h28.285l3.5214 11.855h15.433l-27.263-78.12m-3.7366 31.275c0.46424-1.0304 0.83792-2.3666 1.0644-3.0799h0.23779c0.0679 0.95115 0.22645 2.0607 0.53218 3.1592 0.75865 3.3969 6.4994 22.283 6.4994 22.283h-18.513s9.9416-21.809 10.179-22.364z"/>
</svg>