<?xml version="1.0" encoding="UTF-8" standalone="no"?>
<!-- Created with Inkscape (http://www.inkscape.org/) -->
<svg xmlns:dc="http://purl.org/dc/elements/1.1/" xmlns:cc="http://creativecommons.org/ns#" xmlns:rdf="http://www.w3.org/1999/02/22-rdf-syntax-ns#" xmlns:svg="http://www.w3.org/2000/svg" xmlns="http://www.w3.org/2000/svg" xmlns:sodipodi="http://sodipodi.sourceforge.net/DTD/sodipodi-0.dtd" xmlns:inkscape="http://www.inkscape.org/namespaces/inkscape" width="419.66135" height="30.567619" viewBox="0 0 111.03539 8.0876824" version="1.1" id="svg1197" inkscape:version="0.92.0 r15299" sodipodi:docname="williams sonoma.svg">
  <defs id="defs1191">
    <clipPath id="clipPath134" clipPathUnits="userSpaceOnUse">
      <path inkscape:connector-curvature="0" id="path132" d="m 139.641,370.938 h 313.996 v 22.175 H 139.641 v -22.175"/>
    </clipPath>
  </defs>
  <sodipodi:namedview id="base" pagecolor="#ffffff" bordercolor="#666666" borderopacity="1.0" inkscape:pageopacity="0.0" inkscape:pageshadow="2" inkscape:zoom="2.14255" inkscape:cx="209.33" inkscape:cy="14.783809" inkscape:document-units="mm" inkscape:current-layer="layer1" showgrid="false" fit-margin-top="0" fit-margin-left="0" fit-margin-right="0" fit-margin-bottom="0" units="px" inkscape:window-width="1280" inkscape:window-height="744" inkscape:window-x="-4" inkscape:window-y="-4" inkscape:window-maximized="1"/>
  <metadata id="metadata1194">
    <rdf:RDF>
      <cc:Work rdf:about="">
        <dc:format>image/svg+xml</dc:format>
        <dc:type rdf:resource="http://purl.org/dc/dcmitype/StillImage"/>
        <dc:title/>
      </cc:Work>
    </rdf:RDF>
  </metadata>
  <g inkscape:label="Layer 1" inkscape:groupmode="layer" id="layer1" transform="translate(161.34576,19.011205)">
    <g id="g1280" transform="translate(0.13229296,-0.13229255)">
      <path d="m -155.17813,-18.547991 h 2.04999 v 0.37747 c -0.54822,0.0261 -0.70732,0.29739 -0.91828,1.00895 l -1.42769,4.817182 h -0.37888 l -1.35785,-4.247092 h -0.0173 l -1.2319,4.24815 h -0.38312 l -1.81081,-5.4483 c -0.10865,-0.32209 -0.16086,-0.37324 -0.56585,-0.37219 h -0.12594 v -0.37853 l 2.37631,-0.001 0.005,0.37889 h -0.46642 c -0.20461,0 -0.28292,0.0751 -0.28292,0.18732 0,0.0826 0.061,0.29563 0.13934,0.52987 l 1.12748,3.54648 h 0.0173 l 1.01423,-3.39196 -0.23071,-0.65405 c -0.0653,-0.18521 -0.17851,-0.21978 -0.49178,-0.21978 h -0.2614 v -0.37677 l 2.44616,-0.002 v 0.37676 l -0.26071,0.002 c -0.40287,0 -0.4572,0.125939 -0.4572,0.278689 0,0.20462 0.0914,0.475201 0.1958,0.79728 l 1.01847,3.18735 h 0.0173 l 0.97967,-3.375724 c 0.0522,-0.16933 0.0871,-0.33055 0.0871,-0.46532 -0.005,-0.35595 -0.3877,-0.4071 -0.80539,-0.42439" style="fill:#000000;fill-opacity:1;fill-rule:evenodd;stroke:none;stroke-width:0.35277778" id="path46" inkscape:connector-curvature="0"/>
      <path inkscape:connector-curvature="0" id="path50" style="fill:#000000;fill-opacity:1;fill-rule:evenodd;stroke:none;stroke-width:0.35277778" d="m -152.59297,-12.812181 h 0.46602 c 0.33055,-0.0021 0.47625,-0.0949 0.47625,-0.43427 l -0.006,-4.49192 c 0,-0.33937 -0.14358,-0.4318 -0.47449,-0.4318 h -0.46566 v -0.37782 l 2.80105,-0.004 v 0.37853 h -0.46813 c -0.32632,0 -0.47026,0.096 -0.47026,0.43533 v 4.49192 c 0,0.33937 0.14394,0.432149 0.47908,0.432149 h 0.46319 l 0.002,0.37783 h -2.80317"/>
      <path d="m -148.8888,-18.552231 2.80317,-0.002 v 0.37959 h -0.46602 c -0.33055,0 -0.47413,0.0928 -0.47413,0.43215 l 0.004,4.59423 c 0,0.29704 0.11783,0.333018 0.62689,0.33091 1.59314,0 2.01965,-0.0794 2.3809,-1.88595 h 0.33513 l -0.15698,2.262359 -5.04437,0.005 v -0.378891 h 0.46567 c 0.32632,0 0.4699,-0.0935 0.4699,-0.432149 v -4.49297 c 0,-0.33937 -0.14358,-0.43427 -0.47449,-0.43427 l -0.46567,0.001" style="fill:#000000;fill-opacity:1;fill-rule:evenodd;stroke:none;stroke-width:0.35277778" id="path54" inkscape:connector-curvature="0"/>
      <path inkscape:connector-curvature="0" id="path58" style="fill:#000000;fill-opacity:1;fill-rule:evenodd;stroke:none;stroke-width:0.35277778" d="m -143.06056,-18.555401 2.79435,-0.006 v 0.38171 l -0.46602,0.002 c -0.33055,0 -0.47201,0.0914 -0.47201,0.4311 l 0.002,4.59528 c 0,0.295631 0.12206,0.329492 0.62689,0.329492 1.59279,-0.0021 2.01507,-0.078 2.3809,-1.886652 h 0.33937 l -0.16087,2.26448 -5.04472,0.003 v -0.378878 h 0.46602 c 0.33055,0 0.4699,-0.0956 0.4699,-0.433922 v -4.49297 c 0,-0.33973 -0.14393,-0.4311 -0.47237,-0.4311 h -0.46355"/>
      <path d="m -137.16247,-12.824172 h 0.46108 c 0.33126,-0.0021 0.47484,-0.0949 0.47484,-0.432859 l -0.005,-4.49298 c 0,-0.33972 -0.14358,-0.43215 -0.47413,-0.43215 h -0.46602 v -0.37994 l 2.80317,-0.001 v 0.37747 h -0.46602 c -0.33055,0 -0.47201,0.096 -0.47201,0.43568 l 0.002,4.49298 c 0,0.337959 0.14394,0.430741 0.4699,0.430741 h 0.47061 v 0.378888 h -2.79894" style="fill:#000000;fill-opacity:1;fill-rule:evenodd;stroke:none;stroke-width:0.35277778" id="path62" inkscape:connector-curvature="0"/>
      <path inkscape:connector-curvature="0" id="path66" style="fill:#000000;fill-opacity:1;fill-rule:evenodd;stroke:none;stroke-width:0.35277778" d="m -132.04402,-14.894981 0.96626,-2.46874 0.99695,2.46874 z m -1.88912,2.447571 2.2419,-0.0021 v -0.37747 c -0.51365,-0.01 -0.86642,-0.0861 -0.86642,-0.4886 0,-0.0924 0.0395,-0.24165 0.12629,-0.47977 l 0.22648,-0.6724 2.28953,-0.007 0.39582,1.00647 c 0.0871,0.2219 0.12206,0.33832 0.12206,0.41804 0,0.143592 -0.1524,0.22084 -0.66146,0.22084 h -0.21343 v 0.379592 l 2.59433,-0.0021 v -0.378531 c -0.46602,0 -0.61807,-0.0512 -0.74895,-0.366891 l -2.23696,-5.49416 -0.33973,0.001 -2.04576,5.2003 c -0.16086,0.41557 -0.42227,0.65511 -0.8837,0.66287"/>
      <path d="m -121.98245,-18.569511 2.14771,-0.002 v 0.37642 l -0.48295,0.002 c -0.33091,0 -0.47449,0.0924 -0.47449,0.4311 l 0.004,4.49298 c 0,0.338659 0.14393,0.43215 0.47695,0.43215 h 0.48084 v 0.37747 l -2.82046,0.003 v -0.378531 h 0.46567 c 0.33055,0 0.48083,-0.0956 0.48083,-0.434269 l -0.006,-4.88033 h -0.0219 l -1.93675,5.69313 h -0.25259 l -2.02389,-5.69102 h -0.0173 l 0.004,4.1208 c 0,0.77929 0.0871,1.168749 0.9839,1.1938 v 0.378889 l -2.3682,0.0021 v -0.378528 c 0.75742,-0.0695 0.95779,-0.213431 0.95779,-1.400531 l -0.005,-3.52672 c 0,-0.34043 -0.14147,-0.43215 -0.47449,-0.43215 h -0.47872 v -0.37747 l 2.16782,-0.001 1.62348,4.588929 h 0.0173" style="fill:#000000;fill-opacity:1;fill-rule:evenodd;stroke:none;stroke-width:0.35277778" id="path70" inkscape:connector-curvature="0"/>
      <path inkscape:connector-curvature="0" id="path74" style="fill:#000000;fill-opacity:1;fill-rule:evenodd;stroke:none;stroke-width:0.35277778" d="m -115.32977,-18.655591 h 0.30021 l 0.10478,2.19922 h -0.34396 c -0.24377,-0.9391 -0.85302,-1.8729 -1.9371,-1.8662 -0.82691,0 -1.20121,0.50377 -1.20121,1.00648 0,0.42227 0.2219,0.79657 1.01847,1.01317 l 1.31904,0.36442 c 0.96202,0.26 1.4231,0.89465 1.4231,1.78682 0,1.01177 -0.74189,1.81152 -2.07186,1.8161 -0.6918,0 -1.30563,-0.2413 -1.76707,-0.65087 l -0.38311,0.61595 h -0.28081 l -0.0367,-2.40806 0.32208,-0.0346 c 0.24801,1.37089 1.08374,2.101141 2.1456,2.099731 0.84455,0 1.39312,-0.451561 1.39312,-1.243541 0,-0.49283 -0.22649,-0.82374 -0.81386,-0.97614 l -1.36702,-0.35454 c -0.99236,-0.25682 -1.5755,-0.70944 -1.5755,-1.65629 0,-1.13171 0.75706,-1.75719 1.84997,-1.7586 0.60924,0 1.10101,0.17745 1.56033,0.58984"/>
      <path d="m -114.06753,-15.211421 2.10644,-0.003 v 0.65722 l -2.10644,10e-4" style="fill:#000000;fill-opacity:1;fill-rule:evenodd;stroke:none;stroke-width:0.35277778" id="path78" inkscape:connector-curvature="0"/>
      <path inkscape:connector-curvature="0" id="path82" style="fill:#000000;fill-opacity:1;fill-rule:evenodd;stroke:none;stroke-width:0.35277778" d="m -107.17284,-18.657711 h 0.30021 l 0.10019,2.19604 h -0.33514 c -0.248,-0.94015 -0.85301,-1.86831 -1.94098,-1.86831 -0.82268,0 -1.20156,0.50906 -1.20156,1.00753 0,0.42334 0.2219,0.79446 1.01882,1.01424 l 1.31869,0.36124 c 0.9659,0.26212 1.4231,0.89677 1.4231,1.78788 0.005,1.01318 -0.74401,1.816101 -2.07151,1.818221 -0.69215,0 -1.3014,-0.243772 -1.76742,-0.649471 l -0.38311,0.61454 h -0.28293 l -0.0303,-2.40912 0.32209,-0.0335 c 0.24377,1.36878 1.08373,2.09903 2.14171,2.09903 0.8442,0 1.397,-0.45156 1.39277,-1.24601 0,-0.4886 -0.22649,-0.82056 -0.80998,-0.97508 l -1.3709,-0.35384 c -0.99236,-0.25223 -1.5755,-0.7112 -1.5755,-1.65382 0,-1.13383 0.76165,-1.7586 1.84997,-1.7586 0.60924,0 1.10101,0.17639 1.55821,0.58879"/>
      <path d="m -100.7918,-15.529281 c 0,1.22731 -0.28716,2.803169 -1.82421,2.805291 -1.74943,0 -1.84503,-1.946631 -1.84503,-2.803171 0,-1.22732 0.28681,-2.80529 1.82386,-2.80741 1.74978,-0.001 1.84079,1.94875 1.84538,2.80529 m 1.083733,-0.002 c 0,-1.63759 -1.162053,-3.1817 -2.929113,-3.1817 -1.97168,0.002 -2.90795,1.9237 -2.90795,3.18805 0,1.63442 1.16205,3.181 2.92912,3.17888 1.97202,0 2.907943,-1.92087 2.907943,-3.18523" style="fill:#000000;fill-opacity:1;fill-rule:evenodd;stroke:none;stroke-width:0.35277778" id="path86" inkscape:connector-curvature="0"/>
      <path inkscape:connector-curvature="0" id="path90" style="fill:#000000;fill-opacity:1;fill-rule:evenodd;stroke:none;stroke-width:0.35277778" d="m -94.850317,-18.591391 2.389359,-0.002 v 0.37959 c -0.413448,0.0339 -0.70943,0.11007 -0.818089,0.33867 -0.113239,0.22825 -0.160861,0.51576 -0.160861,0.96626 v 4.55719 h -0.339728 l -3.756382,-5.18937 h -0.0173 l 0.004,3.67877 c 0,0.6858 0.0826,0.97507 0.988128,1.008939 l 0.004,0.372891 h -2.4003 v -0.37183 c 0.754948,-0.02609 0.981429,-0.31468 0.981429,-1.00118 l -0.0021,-4.07847 c -0.186981,-0.24377 -0.39829,-0.27834 -0.85549,-0.27834 h -0.13053 v -0.37677 l 1.74978,-0.002 3.329871,4.56282 h 0.0173 v -2.99261 c -0.004,-0.77999 -0.0868,-1.17087 -0.983538,-1.1938"/>
      <path d="m -87.298408,-15.544451 c 0,1.23261 -0.28716,2.809521 -1.82386,2.809521 -1.749779,0.0021 -1.841148,-1.945571 -1.841148,-2.800701 -0.004,-1.23084 0.28258,-2.80776 1.81963,-2.80776 1.751888,-0.002 1.845378,1.94804 1.845378,2.79894 m 1.08832,0 c -0.005,-1.6323 -1.16664,-3.17959 -2.933698,-3.17747 -1.96568,0.002 -2.907951,1.92405 -2.903361,3.18629 0,1.63654 1.15782,3.181701 2.924879,3.179589 1.97167,-0.0021 2.91218,-1.922999 2.91218,-3.188409" style="fill:#000000;fill-opacity:1;fill-rule:evenodd;stroke:none;stroke-width:0.35277778" id="path94" inkscape:connector-curvature="0"/>
      <path inkscape:connector-curvature="0" id="path98" style="fill:#000000;fill-opacity:1;fill-rule:evenodd;stroke:none;stroke-width:0.35277778" d="m -80.403718,-18.603391 2.14595,-0.005 v 0.38276 h -0.48296 c -0.32667,0 -0.4706,0.096 -0.4706,0.43427 v 4.49298 c 0,0.33937 0.14393,0.430741 0.47448,0.430741 h 0.48331 v 0.37783 l -2.81622,0.0021 v -0.377471 h 0.46566 c 0.32667,-0.0021 0.47484,-0.0938 0.47484,-0.433211 l -0.005,-4.8835 h -0.0152 l -1.93921,5.695124 h -0.25683 l -2.01965,-5.69101 h -0.0173 v 4.11868 c 0,0.78034 0.0871,1.171931 0.98777,1.19592 v 0.37641 l -2.36749,0.0021 v -0.376061 c 0.75283,-0.0699 0.95321,-0.214489 0.95321,-1.401939 v -3.52566 c 0,-0.33938 -0.14817,-0.43075 -0.47449,-0.43075 h -0.4833 v -0.38064 l 2.17205,-0.004 1.62348,4.59211 h 0.0131"/>
      <path d="m -76.011988,-14.940501 0.96202,-2.46451 1.00542,2.46451 z m -1.88912,2.450749 2.23731,-0.0011 v -0.378529 c -0.50941,-0.008 -0.86607,-0.085 -0.86607,-0.48613 0,-0.0907 0.048,-0.24518 0.12594,-0.4826 l 0.23072,-0.67099 2.28741,-0.002 0.39829,1.0026 c 0.0829,0.2219 0.11747,0.34149 0.11747,0.41557 0,0.1457 -0.1524,0.224022 -0.65511,0.224022 h -0.21554 v 0.378529 l 2.59432,-0.0021 v -0.381 c -0.47025,0 -0.6223,-0.0501 -0.74859,-0.3623 l -2.23696,-5.49416 h -0.33973 l -2.05034,5.19818 c -0.15628,0.41663 -0.41769,0.656171 -0.87912,0.662521" style="fill:#000000;fill-opacity:1;fill-rule:evenodd;stroke:none;stroke-width:0.35277778" id="path102" inkscape:connector-curvature="0"/>
      <path inkscape:connector-curvature="0" id="path114" style="fill:#000000;fill-opacity:1;fill-rule:evenodd;stroke:none;stroke-width:0.35277778" d="m -71.032528,-11.17001 c 0.51788,-0.397232 0.88371,-0.880181 0.88371,-1.160992 0,-0.0589 -0.0307,-0.102309 -0.061,-0.102309 -0.0261,0 -0.061,0.01 -0.0981,0.008 -0.0459,0.01 -0.0893,0.0173 -0.13265,0.0173 -0.31362,0 -0.54434,-0.195789 -0.54434,-0.524579 0,-0.264231 0.2593,-0.493891 0.53799,-0.493891 0.43286,-10e-4 0.72037,0.33055 0.72037,0.88336 0,0.541859 -0.29598,1.007531 -1.11901,1.619599"/>
      <path inkscape:connector-curvature="0" id="path118" style="fill:#000000;fill-opacity:1;fill-rule:evenodd;stroke:none;stroke-width:0.35277778" d="m -67.939728,-12.875342 0.46567,-0.0011 c 0.32879,0 0.47237,-0.0938 0.47237,-0.434272 l -0.005,-4.49086 c 0,-0.3429 -0.14358,-0.43638 -0.47237,-0.43638 h -0.46743 v -0.3743 l 2.80282,-0.001 v 0.37536 h -0.4699 c -0.32667,0 -0.46814,0.0935 -0.46814,0.43638 l 0.002,4.49086 c 0,0.34043 0.14393,0.43427 0.47025,0.43427 l 0.46567,-0.0021 v 0.37924 l -2.79647,0.0021"/>
      <path d="m -60.081248,-18.617501 2.38936,-0.002 v 0.37853 c -0.41345,0.0339 -0.70908,0.11113 -0.81774,0.33973 -0.11324,0.22719 -0.16121,0.51647 -0.16121,0.96379 l 0.004,4.55965 h -0.34396 l -3.75638,-5.190759 h -0.0173 l 0.004,3.68053 c 0,0.68756 0.0871,0.974721 0.99272,1.007529 v 0.378531 l -2.39854,0.0021 -0.004,-0.378881 c 0.75706,-0.024 0.98777,-0.313269 0.986,-1.000829 l -0.007,-4.07988 c -0.17851,-0.24341 -0.39617,-0.27869 -0.85337,-0.27869 h -0.12594 v -0.37536 l 1.74519,-0.002 3.3341,4.56282 h 0.0134 v -2.992721 c 0,-0.77929 -0.0871,-1.16875 -0.9839,-1.19345" style="fill:#000000;fill-opacity:1;fill-rule:evenodd;stroke:none;stroke-width:0.35277778" id="path122" inkscape:connector-curvature="0"/>
      <path inkscape:connector-curvature="0" id="path126" style="fill:#000000;fill-opacity:1;fill-rule:evenodd;stroke:none;stroke-width:0.35277778" d="m -52.886348,-18.701111 h 0.29633 l 0.12136,2.46592 h -0.33479 c -0.27869,-1.12642 -0.84455,-2.13501 -1.92828,-2.13501 -1.27106,0.002 -1.80199,1.2393 -1.80199,2.82363 0,0.62018 0.0437,1.28834 0.32209,1.85632 0.28716,0.58455 0.86183,0.931331 1.51024,0.931331 1.22731,0 1.8041,-0.822331 1.97203,-1.902881 l 0.39123,0.0709 c -0.19544,1.3709 -1.01812,2.206631 -2.47615,2.209801 -0.78811,0 -1.53247,-0.351362 -2.05493,-0.929211 -0.51753,-0.5648 -0.7486,-1.33633 -0.7486,-2.09903 0,-2.10256 1.49755,-3.33728 2.91219,-3.33728 0.4833,0 1.05762,0.1838 1.45379,0.57962"/>
      <path d="m -51.105879,-13.430264 c 0.287161,0 0.530931,0.235303 0.530931,0.523522 0,0.285045 -0.239184,0.518936 -0.526698,0.518936 -0.291394,0 -0.522111,-0.231775 -0.522111,-0.518936 -0.0046,-0.285044 0.230717,-0.523522 0.517878,-0.523522" style="fill:#000000;fill-opacity:1;fill-rule:evenodd;stroke:none;stroke-width:0.35277778" id="path138" inkscape:connector-curvature="0"/>
    </g>
  </g>
</svg>