<?xml version="1.0" encoding="UTF-8"?>
<svg width="20px" height="19px" viewBox="0 0 20 19" version="1.1" xmlns="http://www.w3.org/2000/svg" xmlns:xlink="http://www.w3.org/1999/xlink">
    <title>Combined Shape</title>
    <g id="Drupal-Page" stroke="none" stroke-width="1" fill="none" fill-rule="evenodd">
        <g id="Desktop-Home" transform="translate(-780.000000, -5574.000000)" stroke="#282829">
            <g id="Why-Brands-work-with-TAG" transform="translate(300.000000, 5400.000000)">
                <path d="M492.402521,173.734545 C493.367393,174.148969 494.199942,174.812502 494.819499,175.64399 C495.554565,176.6305 495.989481,177.853749 495.989481,179.178543 C495.989481,180.340323 495.655075,181.42403 495.076971,182.338435 C494.424489,183.370485 493.462,184.187082 492.320246,184.657142 L492.320246,184.657142 L492.319801,193.348249 L487.815191,193.348249 L487.814746,184.657142 C486.672992,184.187082 485.710503,183.370485 485.058021,182.338435 C484.479917,181.42403 484.145511,180.340323 484.145511,179.178543 C484.145511,177.853749 484.580427,176.6305 485.315494,175.64399 C485.935051,174.812502 486.767599,174.148969 487.732471,173.734545 L487.732471,173.734545 L487.732659,179.678543 L492.402333,179.678543 Z" id="Combined-Shape" transform="translate(490.067496, 183.435404) rotate(-45.000000) translate(-490.067496, -183.435404) "></path>
            </g>
        </g>
    </g>
</svg>