<svg width="60" height="60" viewBox="0 0 37 60" fill="none" xmlns="http://www.w3.org/2000/svg">
<path d="M10.4802 31L10.1008 30.7225C6.72875 28.4169 3.12486 25.1721 3.08271 25.1508L3.06163 25.1294C1.31238 23.3576 0.637964 21.1588 1.18592 19.1094C1.69173 17.2095 3.16701 15.6938 5.0638 15.1815C6.89736 14.6905 8.85737 15.2028 10.5012 16.6331C12.1451 15.2028 14.0841 14.6905 15.9387 15.1815C17.8144 15.6938 19.3108 17.1881 19.8166 19.1094C20.3645 21.1588 19.669 23.3362 17.9409 25.1081L17.8776 25.1508C17.8355 25.1935 14.2316 28.4169 10.8806 30.7225L10.4802 31Z" fill="white" stroke="black" stroke-miterlimit="10"/>
<path d="M8.03125 1.35062C8.03125 1.35062 36 -2.84931 36 40.5647H28.1583V53.2529H8.03125V59.0263" stroke="black" stroke-miterlimit="10"/>
</svg>
