<?xml version="1.0" encoding="utf-8"?>
<!-- Generator: Adobe Illustrator 23.0.4, SVG Export Plug-In . SVG Version: 6.00 Build 0)  -->
<svg version="1.1" id="Layer_1" xmlns="http://www.w3.org/2000/svg" xmlns:xlink="http://www.w3.org/1999/xlink" x="0px" y="0px"
	 viewBox="0 0 276 89" style="enable-background:new 0 0 276 89;" xml:space="preserve">
<style type="text/css">
	.st0{fill:none;stroke:#282829;stroke-width:0.5;}
</style>
<title>Creative</title>
<g id="Desktop">
	<g id="Desktop---Home---Technology" transform="translate(0.000000, -1840.000000)">
		<g id="What-We-Do" transform="translate(-267.000000, 1450.000000)">
			<path id="Creative" class="st0" d="M128.7,478.7c17,0,26.6-6.3,30.1-8.7l2.3-23.6l-1.4-0.3c-11,18.4-18.3,29.9-30.9,29.9
				c-14.1,0-22.9-13.7-22.9-39.4c0-25.6,5.3-42.7,22.9-42.7c10.5,0,17.6,6.4,30.5,23.6l1.4-0.3l-2.3-22.3c-7.7-1.7-16-3.7-29.3-3.7
				c-28.4,0-49.3,20.2-49.3,45.4S101.6,478.7,128.7,478.7z M200.4,477v-0.2c-1.5-5.2-2.9-9.7-2.9-18.9v-23.5
				c1.3-1.4,2.5-2.4,4.3-2.4c3.1,0,9.4,3.6,12.8,8.5h0.6l3.1-22c-11-0.9-16.4,7.9-21,12.9l-0.1-0.1V418l-27.7,6.9v0.2
				c4.8,5.8,6.1,11,6.1,20v12.7c0,9.7-1.4,13.8-2.9,19v0.2H200.4z M251,478.7c13.8,0,22.9-7.2,26.1-18.7l-0.6-0.3
				c-1.1,0.9-5.5,4.4-14,4.4c-9.1,0-16.7-4-17.9-20.2l32.8,0.3c0-12.4-8.5-25.5-26-25.5c-17.8,0-29.3,13.2-29.3,31.1
				C222,465.8,232.7,478.7,251,478.7z M244.4,441.4v-1.7c0-9.9,2.1-19,6.1-19c3.2,0,5.8,4,5.8,14.6v6L244.4,441.4z M326.5,478.7
				c11.2,0,15.5-7.8,17.1-11.6l-0.2-0.7c-1.3,0.8-2.5,0.9-3.8,0.9c-3.8,0-5.1-2.4-5.1-5.2v-27.8c0-10-6.9-15.8-19.4-15.8
				c-13.8,0-23.2,6.8-29.2,13.3l0.5,0.9c5.2-1.3,10.2-2,14.7-2c8.3,0,11.3,2.6,11.3,9.9v4.4c-13.3,3-28.9,8.4-28.9,21.3
				c0,8.7,6.3,12.3,13.3,12.3c7.4,0,12.8-4.6,15.9-9.8C313.7,474.8,318.6,478.7,326.5,478.7z M309.8,466.8c-4.9,0-7.2-3-7.2-7.5
				c0-4.5,2.4-9.2,9.8-11.5v18.6C311.6,466.6,310.8,466.8,309.8,466.8z M370.3,478.7c10.6,0,17.1-5.3,19.6-9.8l-0.3-0.3
				c-0.3,0.3-0.9,0.7-1.5,1c-1,0.5-2.4,0.9-4.6,0.9c-4,0-8.3-1.7-8.3-9.4v-38h13v-2.8h-13v-13.6h-1.4L346.5,422v1.1h6.6v38.5
				C353.1,473.7,359.7,478.7,370.3,478.7z M407.5,413.4c6.6,0,11.8-4.9,11.8-11.5c0-6.1-5.3-11.4-11.8-11.4
				c-6.4,0-11.3,5.1-11.3,11.4C396.2,408.5,401.2,413.4,407.5,413.4z M423.8,477v-0.2c-1.5-5.2-2.9-9.7-2.9-18.9V418l-28.2,6.9v0.2
				c4.8,5.8,6.1,11,6.1,20v12.7c0,9.3-1.4,13.8-2.9,19v0.2H423.8z M458.9,477.6l16.7-37.8c4.9-11.4,7.8-14.4,11.8-19.1v-0.2h-15.4
				v0.2c1.8,2.5,4.6,10.1,0.6,19.4l-6.2,14.4l-5.6-14.3c-3-7.8-2.4-16.8,0-19.6v-0.2h-33.1v0.2c3.5,3.7,5.3,8.1,10,19.2l15.5,37.7
				H458.9z M516.3,478.7c13.8,0,22.9-7.2,26.1-18.7l-0.6-0.3c-1.2,0.9-5.5,4.4-14,4.4c-9.1,0-16.7-4-17.9-20.2l32.8,0.3
				c0-12.4-8.5-25.5-26-25.5c-17.8,0-29.3,13.2-29.3,31.1C487.3,465.8,498,478.7,516.3,478.7z M509.7,441.4v-1.7
				c0-9.9,2.1-19,6.1-19c3.2,0,5.8,4,5.8,14.6v6L509.7,441.4z"/>
		</g>
	</g>
</g>
</svg>
