<?xml version="1.0" encoding="utf-8"?>
<!-- Generator: Adobe Illustrator 23.0.4, SVG Export Plug-In . SVG Version: 6.00 Build 0)  -->
<svg version="1.1" id="Layer_1" xmlns="http://www.w3.org/2000/svg" xmlns:xlink="http://www.w3.org/1999/xlink" x="0px" y="0px"
	 viewBox="0 0 267 87" style="enable-background:new 0 0 267 87;" xml:space="preserve">
<style type="text/css">
	.st0{fill:none;stroke:#282829;stroke-width:0.5;}
</style>
<title>Data</title>
<g id="Desktop">
	<g id="Desktop---Home---Technology" transform="translate(-1164.000000, -1842.000000)">
		<g id="What-We-Do" transform="translate(-267.000000, 1450.000000)">
			<path id="Data" class="st0" d="M1466.6,477c33.2,0,52.4-15.3,52.4-42.4c0-27.3-20.2-42.2-52.4-42.2c-15.5,0-24.3,0.5-35.2,0.5
				v0.2c3.1,9,4.7,13.5,4.7,25.9v32c0,12.3-1.6,17.1-4.7,25.9v0.2H1466.6z M1467.6,473.8c-0.9,0-3.8-0.3-7.1-0.9v-76.4
				c2.9-0.6,4.8-0.9,6.1-0.9c20.6-0.3,26.2,13.3,26.2,40.6C1492.8,460,1488.5,474.4,1467.6,473.8z M1567.9,478.7
				c11.2,0,15.5-7.8,17.1-11.6l-0.2-0.7c-1.3,0.8-2.5,0.9-3.8,0.9c-3.8,0-5.1-2.4-5.1-5.2v-27.8c0-10-6.9-15.8-19.4-15.8
				c-13.8,0-23.2,6.8-29.2,13.3l0.5,0.9c5.2-1.3,10.2-2,14.7-2c8.3,0,11.3,2.6,11.3,9.9v4.4c-13.3,3-28.9,8.4-28.9,21.3
				c0,8.7,6.3,12.3,13.3,12.3c7.4,0,12.8-4.6,15.9-9.8C1555.1,474.8,1560.1,478.7,1567.9,478.7z M1551.2,466.8c-4.9,0-7.2-3-7.2-7.5
				c0-4.5,2.4-9.2,9.8-11.5v18.6C1553.1,466.6,1552.3,466.8,1551.2,466.8z M1611.8,478.7c10.6,0,17.1-5.3,19.5-9.8l-0.3-0.3
				c-0.3,0.3-0.9,0.7-1.5,1c-1,0.5-2.4,0.9-4.6,0.9c-4,0-8.3-1.7-8.3-9.4v-38h13v-2.8h-13v-13.6h-1.4L1588,422v1.1h6.6v38.5
				C1594.5,473.7,1601.2,478.7,1611.8,478.7z M1679.9,478.7c11.2,0,15.5-7.8,17.1-11.6l-0.2-0.7c-1.3,0.8-2.5,0.9-3.8,0.9
				c-3.8,0-5.1-2.4-5.1-5.2v-27.8c0-10-6.9-15.8-19.4-15.8c-13.8,0-23.2,6.8-29.2,13.3l0.5,0.9c5.2-1.3,10.2-2,14.7-2
				c8.3,0,11.3,2.6,11.3,9.9v4.4c-13.3,3-28.9,8.4-28.9,21.3c0,8.7,6.3,12.3,13.3,12.3c7.4,0,12.8-4.6,15.9-9.8
				C1667.1,474.8,1672.1,478.7,1679.9,478.7z M1663.2,466.8c-4.9,0-7.2-3-7.2-7.5c0-4.5,2.4-9.2,9.8-11.5v18.6
				C1665.1,466.6,1664.2,466.8,1663.2,466.8z"/>
		</g>
	</g>
</g>
</svg>
