<?xml version="1.0" encoding="utf-8"?>
<!-- Generator: Adobe Illustrator 23.0.4, SVG Export Plug-In . SVG Version: 6.00 Build 0)  -->
<svg version="1.1" id="Layer_1" xmlns="http://www.w3.org/2000/svg" xmlns:xlink="http://www.w3.org/1999/xlink" x="0px" y="0px"
	 viewBox="0 0 279 99" style="enable-background:new 0 0 279 99;" xml:space="preserve">
<style type="text/css">
	.st0{fill:none;stroke:#282829;stroke-width:0.5;}
</style>
<title>Strategy</title>
<g id="Desktop">
	<g id="Desktop---Home---Creative" transform="translate(0.000000, -406.000000)">
		<g id="KEEP" transform="translate(-457.000000, 0.000000)">
			<path id="Strategy" class="st0" d="M300.4,478.7c17,0,32.7-6.6,32.7-26.5c0-16.9-11.7-24.5-23.1-30.4
				c-10.9-5.5-21.5-9.1-21.5-17.7c0-6.1,5.4-10.3,11.6-10.3c8.9,0,16.9,8.5,26.6,22.4l1.4-0.3l-3.5-22.4c-5.5-1.5-11.6-2.4-17.9-2.4
				c-17.7,0-34.3,6.6-34.3,25.2c0,15.6,11.8,22.4,23.3,28.2c10.8,5.3,21.3,9.5,21.3,19.4c0,6.9-5.1,12.1-13.3,12.1
				c-10.5,0-18.7-8.3-31-27.7l-1.4,0.3l3.4,24.6C280,476.1,289.9,478.7,300.4,478.7z M363.2,478.7c10.6,0,17.1-5.3,19.5-9.8
				l-0.3-0.3c-0.3,0.3-0.9,0.7-1.5,1c-1,0.5-2.4,0.9-4.6,0.9c-4,0-8.3-1.7-8.3-9.4v-38h13v-2.8h-13v-13.6h-1.4L339.4,422v1.1h6.6
				v38.5C346,473.7,352.6,478.7,363.2,478.7z M416.8,477v-0.2c-1.5-5.2-2.9-9.7-2.9-18.9v-23.5c1.3-1.4,2.5-2.4,4.3-2.4
				c3.1,0,9.4,3.6,12.8,8.5h0.6l3.1-22c-11-0.9-16.4,7.9-21,12.9l-0.1-0.1V418l-27.7,6.9v0.2c4.8,5.8,6.1,11,6.1,20v12.7
				c0,9.7-1.4,13.8-2.9,19v0.2H416.8z M479.8,478.7c11.2,0,15.5-7.8,17.1-11.6l-0.2-0.7c-1.3,0.8-2.5,0.9-3.8,0.9
				c-3.8,0-5.1-2.4-5.1-5.2v-27.8c0-10-6.9-15.8-19.4-15.8c-13.8,0-23.2,6.8-29.2,13.3l0.5,0.9c5.2-1.3,10.2-2,14.7-2
				c8.3,0,11.3,2.6,11.3,9.9v4.4c-13.3,3-28.9,8.4-28.9,21.3c0,8.7,6.3,12.3,13.3,12.3c7.4,0,12.8-4.6,15.9-9.8
				C467,474.8,472,478.7,479.8,478.7z M463.1,466.8c-4.9,0-7.2-3-7.2-7.5c0-4.5,2.4-9.2,9.8-11.5v18.6
				C464.9,466.6,464.1,466.8,463.1,466.8z M523.6,478.7c10.6,0,17.1-5.3,19.5-9.8l-0.3-0.3c-0.3,0.3-0.9,0.7-1.5,1
				c-1,0.5-2.4,0.9-4.6,0.9c-4,0-8.3-1.7-8.3-9.4v-38h13v-2.8h-13v-13.6h-1.4L499.8,422v1.1h6.6v38.5
				C506.4,473.7,513.1,478.7,523.6,478.7z M576.6,478.7c13.8,0,22.9-7.2,26.1-18.7l-0.6-0.3c-1.1,0.9-5.5,4.4-14,4.4
				c-9.1,0-16.7-4-17.9-20.2l32.8,0.3c0-12.4-8.5-25.5-26-25.5c-17.8,0-29.3,13.2-29.3,31.1C547.6,465.8,558.3,478.7,576.6,478.7z
				 M570,441.4v-1.7c0-9.9,2.1-19,6.1-19c3.2,0,5.8,4,5.8,14.6v6L570,441.4z M635.7,503.8c22.3,0,35.9-7.2,35.9-20
				c0-10.7-9.8-16.7-29.4-17.8l-9.5-0.6c-8-0.3-9.9-2.3-9.9-5.8c0-1.5,0.5-2.6,0.9-3.5c4,1.7,8.5,2.8,13.9,2.8
				c15.8,0,26.4-8.6,26.4-20.1c0-5.6-2.5-10.6-7-14.1l14,2.4h0.5v-14.4l-0.2-0.2L654.6,423c-4.5-2.8-10.2-4.4-17.1-4.4
				c-15.8,0-26.3,8.7-26.3,20.2c0,6.9,3.9,13,10.8,16.6c-5.1,1.8-12.7,6.4-12.7,16c0,5.6,2.6,10.1,9.4,12.5
				c-5.9,1.5-10.7,4.6-10.7,9.2C608,499.7,617.9,503.8,635.7,503.8z M637.6,456.9c-4,0-5.5-6.1-5.5-18.1c0-12,1.3-18.2,5.4-18.2
				c4.1,0,5.6,6.2,5.6,18.2C643.1,450.8,641.6,456.9,637.6,456.9z M639.3,501.3c-10.6,0-19.9-2.5-19.9-11.2c0-2.3,0.6-4.3,1.4-5.5
				c2,0.6,4.5,0.9,7.5,1.1l10.8,0.7c14.1,0.9,18.5,2.4,18.5,6.7C657.6,498.2,651.1,501.3,639.3,501.3z M679.3,502.9
				c12.1-4,18.9-6,29.9-30.7l14.4-32.4c4.9-11.2,7.8-14.5,11.8-19.1v-0.2h-15.6v0.2c2.4,2.4,4.8,10.2,0.8,19.4l-6.2,14.3l-5.6-14.1
				c-3-7.8-2.4-16.8,0-19.6v-0.2h-32.7v0.2c1.6,2.1,3.3,4.6,6.1,11.2l3.5,8.1l16.9,40.4c-5.3,6.6-15.9,5.9-23.2,5.3V502.9z"/>
		</g>
	</g>
</g>
</svg>
