<?xml version="1.0" encoding="utf-8"?>
<!-- Generator: Adobe Illustrator 23.0.4, SVG Export Plug-In . SVG Version: 6.00 Build 0)  -->
<svg version="1.1" id="Layer_1" xmlns="http://www.w3.org/2000/svg" xmlns:xlink="http://www.w3.org/1999/xlink" x="0px" y="0px"
	 viewBox="0 0 279 118" style="enable-background:new 0 0 279 118;" xml:space="preserve">
<style type="text/css">
	.st0{fill:none;stroke:#282829;stroke-width:0.5;}
</style>
<title>Technology</title>
<g id="Desktop">
	<g id="Desktop---Home---Data" transform="translate(0.000000, -387.000000)">
		<g id="KEEP" transform="translate(-457.000000, 0.000000)">
			<path id="Technology" class="st0" d="M136.5,477v-0.2c-3.1-8.6-4.6-14.1-4.6-25.8v-55.4l2,0.2c7.7,0.9,19.4,19.8,25.6,29.7
				l1.4-0.3l-5.4-32.3H84l-5.4,32.3l1.4,0.3c6.2-9.9,17.9-28.8,25.6-29.7l2-0.2v55.3c0,12.3-1.6,17.1-4.7,25.9v0.2H136.5z
				 M192,478.7c13.8,0,22.9-7.2,26.1-18.7l-0.6-0.3c-1.1,0.9-5.5,4.4-14,4.4c-9.1,0-16.7-4-17.9-20.2l32.8,0.3
				c0-12.4-8.5-25.5-26-25.5c-17.8,0-29.3,13.2-29.3,31.1C163,465.8,173.7,478.7,192,478.7z M185.5,441.4v-1.7c0-9.9,2.1-19,6.1-19
				c3.2,0,5.8,4,5.8,14.6v6L185.5,441.4z M254.3,478.7c13.3,0,22.2-7.2,25.3-18.7l-0.6-0.3c-2.3,2.3-6.8,4.4-12.3,4.4
				c-9,0-18.1-5.3-18.1-22.8c0-12.5,4.7-20.2,9.7-20.2c4.5,0,9.4,5.9,18.1,18.9l1.1-0.2l-1.7-18.5c-3.6-1-8.6-2.5-15.9-2.5
				c-20.7,0-33.7,13.1-33.7,31.5C226.2,467.6,237.7,478.7,254.3,478.7z M313.9,477v-0.2c-1.5-5.2-2.9-9.7-2.9-18.9v-24.4
				c1.7-2.9,4.9-5.5,9-5.5c4.3,0,6.4,2.4,6.4,6.4V458c0,9.2-1,13.5-2.9,18.7v0.2h27.8v-0.2c-1.8-5.2-2.9-9.8-2.9-19v-23.6
				c0-9.7-7.9-15.6-17.7-15.6c-11.4,0-17.6,7-19.8,11.3v-42.4l-28.2,6.9v0.2c4.8,5.8,6.1,11,6.1,20v43.2c0,9.7-1.4,13.8-2.9,19v0.2
				H313.9z M388.7,477v-0.2c-1.5-5.2-2.9-9.7-2.9-18.9v-24.6c1.7-2.9,4.8-5.3,8.9-5.3c4.5,0,6.6,2.5,6.6,6.6V458
				c0,9.2-1,13.5-2.9,18.7v0.2h27.8v-0.2c-1.8-5.2-2.9-9.8-2.9-19v-23.6c0-9.7-7.9-15.6-17.7-15.6c-11.4,0-17.6,7-19.8,11.3
				l-0.5-0.1V418l-27.7,6.9v0.2c4.8,5.8,6.1,11,6.1,20l0.1,12.7c0,9.7-1.2,13.8-3,19v0.2H388.7z M466,478.7
				c17.4,0,31.7-13.8,31.7-30s-14.4-30.1-31.7-30.1c-17.1,0-31.6,13.9-31.6,30.1S448.8,478.7,466,478.7z M466.1,476.7
				c-6.4,0-9.3-10.4-9.3-27.9s2.8-28.1,9.2-28.1s9.3,10.5,9.3,28.1S472.5,476.7,466.1,476.7z M532.8,477v-0.2
				c-1.5-5.2-2.9-9.7-2.9-18.9v-70.5l-28.2,6.9v0.2c4.8,5.8,6.1,11,6.1,20v43.2c0,9.7-1.4,13.8-2.9,19v0.2H532.8z M571.2,478.7
				c17.4,0,31.7-13.8,31.7-30s-14.4-30.1-31.7-30.1c-17.1,0-31.6,13.9-31.6,30.1S554,478.7,571.2,478.7z M571.3,476.7
				c-6.4,0-9.3-10.1-9.3-27.4l0-0.5c0-17.6,2.8-28.1,9.2-28.1s9.3,10.5,9.3,28.1S577.7,476.7,571.3,476.7z M635.7,503.8
				c22.3,0,35.9-7.2,35.9-20c0-10.7-9.8-16.7-29.4-17.8l-9.5-0.6c-8-0.3-9.9-2.3-9.9-5.8c0-1.5,0.5-2.6,0.9-3.5
				c4,1.7,8.5,2.8,13.9,2.8c15.8,0,26.4-8.6,26.4-20.1c0-5.6-2.5-10.6-7-14.1l14,2.4h0.5v-14.4l-0.2-0.2L654.6,423
				c-4.5-2.8-10.2-4.4-17.1-4.4c-15.8,0-26.3,8.7-26.3,20.2c0,6.9,3.9,13,10.8,16.6c-5.1,1.8-12.7,6.4-12.7,16
				c0,5.6,2.6,10.1,9.4,12.5c-5.9,1.5-10.7,4.6-10.7,9.2C608,499.7,617.9,503.8,635.7,503.8z M637.6,456.9c-4,0-5.5-6.1-5.5-18.1
				c0-12,1.3-18.2,5.4-18.2c4.1,0,5.6,6.2,5.6,18.2C643.1,450.8,641.6,456.9,637.6,456.9z M639.3,501.3c-10.6,0-19.9-2.5-19.9-11.2
				c0-2.3,0.6-4.3,1.4-5.5c2,0.6,4.5,0.9,7.5,1.1l10.8,0.7c14.1,0.9,18.5,2.4,18.5,6.7C657.6,498.2,651.1,501.3,639.3,501.3z
				 M679.3,502.9c12.1-4,18.9-6,29.9-30.7l14.4-32.4c4.9-11.2,7.8-14.5,11.8-19.1v-0.2h-15.6v0.2c2.4,2.4,4.8,10.2,0.8,19.4
				l-6.2,14.3l-5.6-14.1c-3-7.8-2.4-16.8,0-19.6v-0.2h-32.7v0.2c1.6,2.1,3.3,4.6,6.1,11.2l3.5,8.1l16.9,40.4
				c-5.3,6.6-15.9,5.9-23.2,5.3V502.9z"/>
		</g>
	</g>
</g>
</svg>
