

<svg xmlns="http://www.w3.org/2000/svg" viewBox="0 0 118.7 237.7"><path d="M117.2 54.4V15.5C117.2 8.3 112.4 0 101 0H17.8C6.3 0 1.6 8.3 1.6 15.5v15.6c-.5.4-1.3.6-1.5 1.5-.2.7 0 1.4 0 2.1V39c0 .7 1.1 1.4 1.5 1.8v7.8C.9 49.7.1 50.7.1 52.2v12c0 1.5.8 2.4 1.5 3.5v2C.9 70.8.1 71.8.1 73.3v12c0 1.5.8 2.4 1.5 3.5v133.5c0 7.2 4.8 15.5 16.2 15.5H101c11.4 0 16.2-8.3 16.2-15.5V73.6c.7-1.1 1.5-2 1.5-3.5v-8-4c0-1.6-.8-2.6-1.5-3.7zm-6.1 163c0 7.4-4 13.4-13.9 13.4H20.9c-9.9 0-13.9-6-13.9-13.4V15.5c0-.6.1-1.1.1-1.7.1-.6.2-1.2.4-1.7.4-1.1 1-2.1 1.7-3 .4-.4.8-.8 1.3-1.2.5-.3 1.1-.6 1.6-.9.7-.3 1.4-.5 2.1-.7.9-.2 1.9-.3 2.8-.3h83.8c.9 0 1.9.1 2.8.3.7.1 1.5.4 2.1.7.6.2 1.1.6 1.6.9.5.3.9.7 1.3 1.2.8.9 1.3 1.9 1.7 3 .2.6.3 1.1.4 1.7.1.6.1 1.1.1 1.7.3 67.3.3 134.6.3 201.9z" fill="#fff"/></svg>
